<svg width="20" height="20" viewBox="0 0 20 20" fill="none" xmlns="http://www.w3.org/2000/svg">
<path fill-rule="evenodd" clip-rule="evenodd" d="M19.9704 8.8847V8.91405C19.9704 9.22851 19.7188 9.48008 19.4043 9.48008H11.0563C10.7419 9.48008 10.4903 9.22851 10.4903 8.91405V0.566038C10.4903 0.251572 10.7419 0 11.0563 0C13.614 0 16.0458 1.09853 17.7398 3.01468C19.1695 4.63732 19.962 6.72117 19.9704 8.8847ZM17.832 11.0566C17.832 10.7463 17.5762 10.4906 17.266 10.4906H9.48399V2.7086C9.48399 2.39413 9.23242 2.14256 8.91795 2.14256C4.00391 2.14256 0.00390625 6.14256 0.00390625 11.0566C0.00390625 15.9706 4.00391 19.9706 8.91795 19.9706C13.832 19.9706 17.832 15.9706 17.832 11.0566ZM16.679 11.6226C16.3897 15.652 13.0186 18.8386 8.91795 18.8386C4.62864 18.8386 1.13598 15.3459 1.13598 11.0566C1.13598 6.95598 4.32256 3.58491 8.35191 3.2956V11.0566C8.35191 11.3711 8.60349 11.6226 8.91795 11.6226H16.679ZM18.8173 8.3522H11.6224V1.15723C13.6433 1.30398 15.5385 2.23899 16.8886 3.76939C18.0207 5.04822 18.6915 6.65828 18.8173 8.3522Z" fill="#808080"/>
</svg>
