<svg width="11" height="20" viewBox="0 0 11 20" fill="none" xmlns="http://www.w3.org/2000/svg">
<path fill-rule="evenodd" clip-rule="evenodd" d="M10.3955 0.00412371L7.8084 0C4.90191 0 3.02361 1.91443 3.02361 4.87753V7.12639H0.422417C0.197644 7.12639 0.015625 7.30742 0.015625 7.53072V10.7891C0.015625 11.0124 0.197851 11.1932 0.422417 11.1932H3.02361V19.4151C3.02361 19.6384 3.20563 19.8192 3.4304 19.8192H6.82421C7.04898 19.8192 7.231 19.6381 7.231 19.4151V11.1932H10.2724C10.4972 11.1932 10.6792 11.0124 10.6792 10.7891L10.6804 7.53072C10.6804 7.42351 10.6375 7.32082 10.5613 7.24495C10.4851 7.16907 10.3814 7.12639 10.2734 7.12639H7.231V5.22C7.231 4.30371 7.4508 3.83856 8.65229 3.83856L10.3951 3.83794C10.6196 3.83794 10.8016 3.65691 10.8016 3.43381V0.408247C10.8016 0.185361 10.6198 0.00453608 10.3955 0.00412371Z" fill="white"/>
</svg>
