<svg xmlns="http://www.w3.org/2000/svg" width="18" height="16" viewBox="0 0 18 16"><g><g><path fill="gray" d="M17.147 13.482c-.002.677-.563 1.224-1.255 1.226h-13.8c-.693-.002-1.254-.55-1.256-1.226V4.207h8.528a.402.402 0 0 0 .121-.017c.097.013.195.02.293.02h6.114c.692.003 1.253.55 1.255 1.227zM2.09.822h3.852c.468 0 .898.255 1.112.66l.862 1.619c.053.098.113.191.18.281H.837V2.05c0-.676.56-1.224 1.254-1.226zm13.801 2.564H9.774c-.469 0-.898-.255-1.113-.662L7.8 1.1A2.088 2.088 0 0 0 5.943 0H2.09C.936 0 .001.916 0 2.045v11.433c0 1.13.936 2.044 2.091 2.045h13.801c1.155 0 2.09-.916 2.091-2.045V5.431c0-1.13-.936-2.045-2.09-2.045z"/></g></g></svg>