<svg width="20" height="11" viewBox="0 0 20 11" fill="none" xmlns="http://www.w3.org/2000/svg">
<path fill-rule="evenodd" clip-rule="evenodd" d="M19.8707 9.92363C19.8465 9.8735 19.824 9.83191 19.803 9.7986C19.4564 9.19833 18.7941 8.46154 17.8164 7.58802L17.7958 7.56801L17.7854 7.55821L17.775 7.54815H17.7645C17.3208 7.1414 17.0398 6.8679 16.9221 6.72788C16.7068 6.46115 16.6586 6.19116 16.7762 5.91759C16.8594 5.71091 17.1717 5.27441 17.7123 4.60751C17.9968 4.25407 18.222 3.9708 18.3883 3.75739C19.588 2.2237 20.1081 1.24364 19.9486 0.816852L19.8866 0.717116C19.845 0.657072 19.7375 0.602142 19.5643 0.552046C19.3908 0.502056 19.169 0.493788 18.8985 0.527104L15.9031 0.547002C15.8545 0.530467 15.7852 0.532008 15.695 0.552046C15.6048 0.572084 15.5597 0.582139 15.5597 0.582139L15.5076 0.607186L15.4662 0.637279C15.4315 0.657177 15.3934 0.692174 15.3517 0.742199C15.3103 0.792049 15.2757 0.850553 15.248 0.917218C14.9219 1.72404 14.5511 2.47417 14.1349 3.16759C13.8784 3.58107 13.6427 3.93942 13.4275 4.24283C13.2126 4.54613 13.0323 4.7696 12.8868 4.91285C12.7411 5.05623 12.6096 5.1711 12.4915 5.25787C12.3736 5.34468 12.2836 5.38136 12.2212 5.36794C12.1588 5.35453 12.0999 5.34122 12.0442 5.3279C11.9472 5.26786 11.8692 5.1862 11.8103 5.08286C11.7513 4.97951 11.7115 4.84944 11.6907 4.69274C11.67 4.53594 11.6577 4.40107 11.6542 4.28767C11.651 4.17441 11.6525 4.01421 11.6595 3.80752C11.6667 3.60073 11.67 3.46081 11.67 3.38745C11.67 3.13403 11.6751 2.859 11.6854 2.56228C11.6959 2.26556 11.7044 2.03046 11.7115 1.85726C11.7186 1.68389 11.7219 1.50046 11.7219 1.30709C11.7219 1.11371 11.7096 0.962059 11.6854 0.851989C11.6615 0.742059 11.6248 0.635352 11.5765 0.531903C11.5279 0.428559 11.4567 0.348616 11.3633 0.291865C11.2697 0.235183 11.1533 0.190202 11.0149 0.156782C10.6473 0.0768042 10.1793 0.0335399 9.6106 0.0268137C8.32095 0.0135016 7.49228 0.0935844 7.12477 0.266957C6.97916 0.340209 6.84739 0.440295 6.72958 0.5669C6.60474 0.713648 6.58732 0.793731 6.67745 0.806903C7.09355 0.866842 7.38812 1.01023 7.56149 1.23692L7.62397 1.35704C7.67257 1.44371 7.72109 1.59715 7.76965 1.81715C7.81814 2.03715 7.84944 2.28052 7.86321 2.54711C7.89781 3.03395 7.89781 3.45069 7.86321 3.79736C7.82849 4.14418 7.7957 4.41417 7.76441 4.60754C7.73311 4.80092 7.68634 4.95762 7.62397 5.0776C7.56149 5.19762 7.51993 5.27098 7.49909 5.2976C7.47829 5.32422 7.46095 5.341 7.44718 5.34759C7.35705 5.3808 7.26331 5.39772 7.1663 5.39772C7.06914 5.39772 6.95133 5.35099 6.81268 5.25759C6.67406 5.1642 6.5302 5.03591 6.38109 4.87252C6.23199 4.7091 6.06383 4.48073 5.87654 4.18737C5.6894 3.89401 5.49523 3.5473 5.29413 3.14724L5.12776 2.85711C5.02375 2.67046 4.88168 2.39868 4.70138 2.04202C4.52098 1.68522 4.36153 1.34009 4.22291 1.00669C4.1675 0.866667 4.08426 0.760065 3.97333 0.686709L3.92128 0.656616C3.88667 0.629992 3.83111 0.601721 3.7549 0.571594C3.67858 0.541502 3.59894 0.519922 3.51566 0.506645L0.665792 0.526543C0.374572 0.526543 0.176976 0.589986 0.0729326 0.716696L0.0312933 0.776635C0.0104918 0.810021 0 0.863339 0 0.936731C0 1.01009 0.0208015 1.10012 0.0624408 1.20672C0.47847 2.14698 0.930893 3.05378 1.41971 3.92726C1.90852 4.80074 2.3333 5.50436 2.69377 6.03747C3.05432 6.57097 3.42182 7.07449 3.79628 7.54777C4.17075 8.02122 4.41862 8.32463 4.53989 8.45793C4.66131 8.59147 4.75668 8.69131 4.82601 8.75798L5.08608 8.99798C5.2525 9.15804 5.49687 9.34973 5.81931 9.57306C6.14182 9.79653 6.49887 10.0165 6.89064 10.2334C7.28248 10.4499 7.73832 10.6266 8.25843 10.7633C8.77847 10.9001 9.28463 10.955 9.77698 10.9285H10.9731C11.2157 10.9084 11.3995 10.835 11.5244 10.7084L11.5658 10.6583C11.5936 10.6185 11.6197 10.5567 11.6437 10.4735C11.6681 10.3901 11.6801 10.2983 11.6801 10.1984C11.673 9.91175 11.6957 9.65339 11.7476 9.42337C11.7995 9.19342 11.8585 9.02005 11.9246 8.90329C11.9907 8.78663 12.0652 8.68819 12.1482 8.60839C12.2313 8.52841 12.2905 8.47996 12.3253 8.46329C12.3598 8.44651 12.3874 8.43512 12.4082 8.42829C12.5746 8.37497 12.7705 8.42661 12.996 8.58345C13.2214 8.74014 13.4328 8.93363 13.6306 9.16358C13.8282 9.39373 14.0656 9.65195 14.343 9.93862C14.6204 10.2254 14.8631 10.4386 15.071 10.5788L15.2789 10.6988C15.4178 10.7789 15.5981 10.8523 15.82 10.9189C16.0416 10.9855 16.2357 11.0022 16.4023 10.9689L19.0649 10.929C19.3282 10.929 19.5332 10.887 19.6785 10.8038C19.8242 10.7205 19.9107 10.6287 19.9386 10.5288C19.9664 10.4288 19.9679 10.3154 19.9439 10.1886C19.9192 10.0621 19.8949 9.97362 19.8707 9.92363Z" fill="white"/>
</svg>
