<svg xmlns="http://www.w3.org/2000/svg" width="18" height="18" viewBox="0 0 18 18"><g><g><path fill="#ccc" d="M11.414 11.913a.496.496 0 0 1-.353-.146L8.382 9.088a.498.498 0 0 1-.146-.353V3.068a.499.499 0 0 1 .999 0v5.46l2.532 2.533a.499.499 0 0 1-.353.852zm-2.679 5.558C3.918 17.47 0 13.552 0 8.735 0 3.92 3.918 0 8.735 0c4.817 0 8.735 3.919 8.735 8.735 0 4.817-3.918 8.736-8.735 8.736zm0-16.473C4.47.998.998 4.47.998 8.735c0 4.267 3.471 7.737 7.737 7.737s7.737-3.47 7.737-7.737c0-4.266-3.47-7.737-7.737-7.737z"/></g></g></svg>