<svg width="70" height="70" viewBox="0 0 70 70" fill="none" xmlns="http://www.w3.org/2000/svg">
<path fill-rule="evenodd" clip-rule="evenodd" d="M59.5 10.0135V10.0368C65.9738 16.3917 70 25.2327 70 35C70 54.299 54.299 70 35 70C15.701 70 0 54.299 0 35C0 25.2327 4.02617 16.3917 10.5 10.0368V10.0135L10.8617 9.66933C10.9418 9.59315 11.0236 9.51915 11.1053 9.44522L11.1053 9.44517C11.1925 9.36628 11.2796 9.28747 11.3645 9.20617L11.592 8.99967C11.9408 8.68583 12.2932 8.38017 12.6513 8.0815L12.6514 8.08148L12.6514 8.08145L12.6514 8.08143L12.6514 8.08141L12.6515 8.08139L12.6515 8.08136L12.6515 8.08134C12.7156 8.02773 12.7797 7.97411 12.845 7.92167C13.2242 7.61133 13.6068 7.30917 13.9965 7.01633C14.021 6.99825 14.0455 6.97988 14.07 6.9615C14.0945 6.94313 14.119 6.92475 14.1435 6.90667C14.553 6.601 14.9695 6.30467 15.3907 6.01883C15.4076 6.00717 15.4245 5.99579 15.4414 5.98442C15.4583 5.97304 15.4753 5.96167 15.4922 5.95C15.9285 5.656 16.3707 5.3725 16.8187 5.0995C16.8478 5.0832 16.8757 5.06573 16.9037 5.04826L16.9037 5.04824L16.9037 5.04823L16.9037 5.04822L16.9038 5.04821L16.9038 5.04819L16.9038 5.04818L16.9038 5.04817C17.3577 4.774 17.815 4.51033 18.2793 4.25717C18.2977 4.24655 18.3166 4.23637 18.3355 4.2261L18.3357 4.22603L18.336 4.22586L18.3363 4.22569C18.3484 4.21915 18.3605 4.21258 18.3727 4.20583C18.8323 3.95733 19.2967 3.71933 19.7657 3.49183L19.831 3.46033L19.8963 3.42883C20.3525 3.2095 20.8133 3.00183 21.2777 2.8035C21.3097 2.79008 21.3415 2.77638 21.3733 2.76267C21.4051 2.74896 21.4369 2.73525 21.469 2.72183C21.9123 2.53633 22.3603 2.36017 22.8107 2.19217C22.8188 2.18925 22.8267 2.18604 22.8346 2.18283C22.8425 2.17963 22.8503 2.17642 22.8585 2.1735C22.8686 2.16917 22.8787 2.1653 22.8891 2.16131L22.8891 2.16129L22.9087 2.15367L22.9967 2.12217L23.0848 2.09067C23.5095 1.93667 23.9365 1.792 24.367 1.6555L24.4391 1.63208C24.5369 1.6003 24.6338 1.56881 24.7322 1.53883C25.1358 1.41517 25.5418 1.30083 25.949 1.19233C25.9972 1.17935 26.0455 1.16612 26.0938 1.15289L26.0938 1.15287L26.0939 1.15286L26.0939 1.15284L26.094 1.15283L26.094 1.15281L26.0941 1.1528C26.1975 1.12445 26.3011 1.09606 26.4052 1.06983C26.7878 0.973 27.174 0.886667 27.5602 0.802667C27.6253 0.788621 27.6904 0.77411 27.7556 0.759586C27.8691 0.734298 27.9827 0.708972 28.0968 0.686C28.4643 0.6125 28.8342 0.5495 29.204 0.487667C29.2843 0.4746 29.3642 0.460787 29.4441 0.446973C29.5639 0.426253 29.6837 0.405533 29.8048 0.387333C30.1378 0.337923 30.4728 0.298402 30.8088 0.258756L30.8957 0.2485C30.9706 0.239712 31.0453 0.230324 31.1201 0.220928C31.2539 0.204128 31.3879 0.187301 31.5233 0.173833C31.9118 0.135333 32.3027 0.109667 32.6935 0.084C32.7743 0.0789826 32.8546 0.0726706 32.9349 0.066363L32.935 0.0663596C33.0413 0.0580017 33.1476 0.049652 33.2547 0.0443333C33.8345 0.0151667 34.4155 0 35 0C35.5845 0 36.1655 0.0151667 36.7418 0.0478333C36.8489 0.0531521 36.9552 0.0615018 37.0615 0.0698598C37.1418 0.0761684 37.2222 0.0824818 37.303 0.0875C37.6938 0.113167 38.0847 0.138833 38.4732 0.177333C38.6056 0.190572 38.737 0.207057 38.8687 0.223572C38.9459 0.233253 39.0232 0.242945 39.1008 0.252C39.4648 0.294 39.83 0.337167 40.1917 0.390833C40.3313 0.411015 40.4693 0.435107 40.6075 0.459244L40.6077 0.459266C40.6692 0.470004 40.7307 0.480751 40.7925 0.491167C41.1623 0.553 41.5322 0.616 41.8997 0.6895C42.0138 0.712471 42.1274 0.737795 42.2409 0.763081L42.2409 0.763092C42.3061 0.777614 42.3712 0.792123 42.4363 0.806167C42.8237 0.890167 43.2087 0.9765 43.5913 1.07333C43.6954 1.09956 43.799 1.12795 43.9024 1.1563L43.9025 1.15631L43.9025 1.15632C43.9509 1.16958 43.9992 1.18283 44.0475 1.19583C44.4558 1.30433 44.8618 1.41867 45.2643 1.54233C45.3408 1.56564 45.4169 1.59032 45.4927 1.61494C45.5384 1.62975 45.5839 1.64454 45.6295 1.659C46.06 1.79667 46.487 1.94017 46.9117 2.09417C46.9329 2.10183 46.9544 2.10933 46.9759 2.11685C47.0133 2.12995 47.0508 2.14309 47.0878 2.15717C47.096 2.16067 47.1045 2.16388 47.1129 2.16708C47.1214 2.17029 47.1298 2.1735 47.138 2.177C47.1462 2.17992 47.154 2.18313 47.1619 2.18633C47.1698 2.18954 47.1777 2.19275 47.1858 2.19567C47.6373 2.36367 48.0842 2.53983 48.5275 2.72533C48.5596 2.73875 48.5914 2.75246 48.6232 2.76617C48.655 2.77988 48.6868 2.79358 48.7188 2.807C49.1843 3.00533 49.644 3.213 50.1002 3.43233L50.1655 3.46383L50.2308 3.49533C50.6998 3.72283 51.1642 3.96083 51.6238 4.20933L51.6705 4.235L51.7172 4.26067C52.1815 4.51383 52.64 4.7775 53.0927 5.05167C53.1218 5.068 53.1498 5.0855 53.1778 5.103C53.6258 5.376 54.068 5.6595 54.5043 5.9535L54.5249 5.96757L54.5551 5.98792L54.5854 6.00833L54.6058 6.02233C55.027 6.30817 55.4423 6.6045 55.853 6.91017C55.902 6.94633 55.951 6.9825 56 7.01983C56.3897 7.31383 56.7735 7.61483 57.1515 7.92517C57.2157 7.97767 57.281 8.03133 57.3452 8.085C57.7033 8.38367 58.0568 8.68933 58.4045 9.00317C58.4803 9.07083 58.5562 9.13967 58.632 9.20967C58.6916 9.26395 58.7515 9.31751 58.8114 9.371C58.9213 9.46928 59.0311 9.56735 59.1383 9.66933L59.5 10.0135ZM35 43.1667C31.4475 43.1667 28.1003 44.6192 25.6783 47.1823L35 58.8607L44.3217 47.1823C41.8997 44.6192 38.5525 43.1667 35 43.1667ZM45.7812 45.3542C42.9392 42.4713 39.0892 40.8333 35 40.8333C30.9108 40.8333 27.0608 42.4713 24.2188 45.3542L13.3058 31.6832L23.3333 23.66L33.8497 32.074L33.852 32.1872L34.2067 32.3598L34.8367 32.8253L35.0163 32.7378L35.21 32.8265L35.7863 32.3645L36.1667 32.1568V32.0623L46.6667 23.6612L56.6942 31.6832L45.7812 45.3542ZM13.0562 10.822C13.0515 10.8243 13.048 10.8278 13.0445 10.8313C13.0056 10.867 12.9675 10.9041 12.9293 10.9412C12.8975 10.9721 12.8656 11.003 12.8333 11.0332V29.0722L22.1667 21.6067V4.963C21.7478 5.14267 21.3337 5.32933 20.9253 5.52533L20.8664 5.55335L20.8075 5.58133C20.356 5.80067 19.9103 6.02933 19.4705 6.26733C19.4635 6.27083 19.4565 6.27462 19.4495 6.27842C19.4425 6.28221 19.4355 6.286 19.4285 6.2895C17.1232 7.54483 14.9847 9.06967 13.0562 10.822ZM25.4812 3.752C25.8417 3.64233 26.2057 3.53967 26.572 3.44167C26.7272 3.39967 26.8835 3.35767 27.0398 3.31917C27.3828 3.23283 27.7282 3.15467 28.0747 3.08C28.1226 3.06965 28.1706 3.05914 28.2186 3.04861L28.2186 3.04861L28.2187 3.0486L28.2187 3.0486C28.3493 3.01997 28.4803 2.99126 28.6125 2.96567C28.9427 2.90033 29.2752 2.84317 29.6088 2.78717C29.6632 2.77806 29.7175 2.76876 29.7719 2.75947C29.9124 2.73543 30.0532 2.71137 30.1945 2.69033C30.5247 2.64133 30.8583 2.60167 31.1908 2.56317C31.2578 2.55529 31.3247 2.54701 31.3915 2.53873L31.3915 2.53873L31.3915 2.53873C31.5225 2.5225 31.6533 2.5063 31.7847 2.49317C32.1405 2.45817 32.4998 2.43483 32.8592 2.4115C32.9296 2.40683 32.9997 2.40142 33.0698 2.39601C33.175 2.38789 33.2801 2.37977 33.3865 2.37417C33.4658 2.37039 33.5462 2.36899 33.6268 2.36759C33.6956 2.36639 33.7646 2.36519 33.8333 2.3625V29.0733L24.5 21.6067V4.074C24.5493 4.05708 24.5985 4.04002 24.6477 4.02296C24.7954 3.97177 24.943 3.92058 25.0927 3.87333C25.221 3.8325 25.3505 3.79167 25.4812 3.752ZM38.2153 2.49317C37.8595 2.45817 37.5002 2.43483 37.1408 2.4115C37.0739 2.40704 37.007 2.40173 36.9401 2.39641C36.8319 2.38782 36.7235 2.37921 36.6147 2.37417C36.5235 2.36914 36.4314 2.36765 36.3392 2.36616C36.2817 2.36523 36.2241 2.36429 36.1667 2.3625V29.0733L45.5 21.6067V4.074C45.4297 4.05028 45.3595 4.02612 45.2893 4.00194C45.1626 3.95831 45.0357 3.91462 44.9073 3.87333C44.7778 3.8325 44.6483 3.79167 44.5188 3.752C44.1583 3.64233 43.7943 3.53967 43.428 3.44167C43.372 3.42703 43.3161 3.41225 43.2603 3.39748C43.1603 3.37103 43.0605 3.34462 42.9602 3.31917C42.6183 3.234 42.2718 3.15467 41.9253 3.08L41.7776 3.04813C41.6476 3.01999 41.5179 2.99191 41.3875 2.96567C41.0573 2.90033 40.7248 2.84317 40.3912 2.78717C40.3369 2.77807 40.2827 2.76879 40.2284 2.75951L40.2281 2.75947C40.0876 2.73543 39.9468 2.71137 39.8055 2.69033C39.4753 2.64133 39.1428 2.60167 38.8092 2.56317C38.7453 2.55561 38.6813 2.54768 38.6172 2.53974C38.4835 2.52318 38.3494 2.50657 38.2153 2.49317ZM49.1937 5.58133C49.6452 5.80067 50.0908 6.02817 50.5307 6.26733C50.5377 6.27083 50.5447 6.27462 50.5517 6.27842C50.5587 6.28221 50.5657 6.286 50.5727 6.2895C52.878 7.54483 55.0165 9.06967 56.945 10.822C56.9485 10.8255 56.952 10.8278 56.9567 10.8313C56.9918 10.8641 57.0266 10.898 57.0615 10.9321L57.0616 10.9322C57.0963 10.966 57.1312 11 57.1667 11.0332V29.0722L47.8333 21.6067V4.963C48.2522 5.14267 48.6663 5.32933 49.0758 5.52533C49.0987 5.53676 49.1215 5.54741 49.1442 5.55796L49.1443 5.558C49.1609 5.56575 49.1774 5.57343 49.1937 5.58133ZM2.33333 35C2.33333 53.0122 16.9878 67.6667 35 67.6667C53.0122 67.6667 67.6667 53.0122 67.6667 35C67.6667 26.7365 64.5773 19.1858 59.5 13.4272V30.8537V31.9083L36.1667 61.1392V61.3597V61.3713L35.9392 61.4868L35.7782 61.5755L35.2322 62.0282L35.2112 62.0188L35.2018 62.0258L35.0175 61.9418L34.8378 62.0293L34.8297 62.0235L34.8063 62.034L34.2277 61.579L33.8543 61.404V61.3912H33.8532L33.8473 61.1567L10.5 31.9083V30.8537V13.4272C5.42267 19.1858 2.33333 26.7365 2.33333 35Z" fill="#CCCCCC"/>
</svg>
