<svg xmlns="http://www.w3.org/2000/svg" width="26" height="26" viewBox="0 0 26 26"><defs/><path d="M6 1C3.255 1 1 3.255 1 6v14c0 2.745 2.255 5 5 5h14c2.745 0 5-2.255 5-5V6c0-2.745-2.255-5-5-5H6zm0 2h14c1.655 0 3 1.345 3 3v14c0 1.018-.504 1.926-1.28 2.47-.66-1.553-3.08-2.865-5.72-3.376 0 0-1.194-.207-.594-1.407.6-.9 1.094-1.98 1.094-2.28 0 0 .994-.794 1.094-2.095.1-1.2-.188-1.312-.188-1.312.5-1.4.582-6.506-2.718-5.906-.6-1.1-3.994-1.994-5.594.906-.8 1.4-1.106 3.3-.406 5 0 .1-.182-.106-.282.594-.1.7.294 1.72.594 2.22.1.198.4.28.5.28 0 0 .188 1.3 1.188 2.5.2.9-.688 1.406-.688 1.406-2.64.51-5.13 1.824-5.813 3.375C3.47 21.825 3 20.97 3 20V6c0-1.655 1.345-3 3-3z" style="text-indent:0;text-align:start;line-height:normal;text-transform:none;block-progression:tb" color="#000" overflow="visible"/></svg>