<svg xmlns="http://www.w3.org/2000/svg" width="18" height="18" viewBox="0 0 18 18"><g><g><path fill="#ccc" d="M.958 3.883c.045-.495.235-.91.594-1.267l1.39-1.386c.216-.209.456-.317.687-.317.228 0 .46.108.673.324.25.231.486.474.74.73l.388.396 1.114 1.11c.231.231.351.466.351.697 0 .231-.12.466-.351.697-.116.116-.232.235-.348.35-.347.35-.672.682-1.031 1l-.019.018c-.31.31-.261.604-.186.827l.01.03c.288.69.688 1.345 1.312 2.128 1.121 1.379 2.302 2.448 3.602 3.272.16.104.333.186.493.268.15.075.288.146.411.224l.042.022a.783.783 0 0 0 .362.093c.299 0 .493-.19.557-.253l1.397-1.394c.217-.216.452-.332.684-.332.284 0 .516.176.661.332l2.253 2.244c.449.447.445.931-.01 1.405-.158.167-.322.328-.498.495-.261.254-.534.515-.78.809-.43.462-.942.678-1.604.678-.063 0-.13-.003-.194-.007-1.225-.078-2.365-.556-3.22-.962a18.167 18.167 0 0 1-6.058-4.733c-1.393-1.673-2.331-3.23-2.952-4.9-.384-1.025-.53-1.849-.47-2.598zm2.71 8.072a19.114 19.114 0 0 0 6.36 4.972c.93.44 2.174.961 3.559 1.05.086.004.168.008.254.008.93 0 1.677-.32 2.285-.98.004-.004.012-.011.015-.019.217-.26.463-.495.721-.745.176-.168.355-.343.527-.522.795-.827.795-1.878-.008-2.68L15.137 10.8c-.381-.395-.837-.604-1.315-.604s-.937.209-1.33.6l-1.336 1.334a7.112 7.112 0 0 0-.37-.193 4.623 4.623 0 0 1-.41-.224c-1.218-.771-2.323-1.778-3.38-3.07-.534-.675-.893-1.242-1.143-1.82.351-.316.68-.648.997-.972.112-.116.228-.231.344-.347.403-.402.62-.868.62-1.341 0-.474-.213-.94-.62-1.342L6.08 1.711c-.13-.13-.254-.258-.381-.388a20.473 20.473 0 0 0-.758-.75C4.557.199 4.105 0 3.627 0c-.474 0-.93.198-1.33.578L.902 1.97a2.861 2.861 0 0 0-.855 1.834c-.071.89.093 1.837.519 2.981.654 1.77 1.64 3.414 3.103 5.17z"/></g></g></svg>