<svg xmlns="http://www.w3.org/2000/svg" viewBox="0 0 490.1 490.1"><defs/><path d="M421 162.747H320.1v-69.2c0-33.2-9.9-57.3-29.5-71.6-30.8-22.6-72.7-9.9-74.5-9.3-7.1 2.2-12 8.9-12 16.4v83.5c0 61.8-72.7 83.3-75.8 84.1-.2.1-.4.1-.5.2l-8.3 2.6c-9.4-8.9-22-14.3-35.8-14.3H52.2c-28.8-.1-52.2 23.3-52.2 52.1v179.6c0 28.8 23.4 52.2 52.2 52.2h31.5c13.3 0 25.5-5 34.7-13.3 13.2 15.7 33 25.8 55.1 25.8h204.4c47.4 0 78.9-26 84.4-69.5l25.4-159.5 1.4-8.6c.6-4 1-8.1 1-12.2-.1-38-31.1-69-69.1-69zm-319.4 254.2c0 9.9-8 17.9-17.9 17.9H52.2c-9.9 0-17.9-8-17.9-17.9v-179.7c0-9.9 8-17.9 17.9-17.9h31.5c9.9 0 17.9 8 17.9 17.9v179.7zm353.6-178.3l-26.8 168.4c0 .2-.1.4-.1.6-1.2 9.8-4.8 39.7-50.4 39.7H173.5c-20.7 0-37.6-16.9-37.6-37.6v-172.5c0-2.3-.2-4.6-.5-6.9l2.5-.8c7.3-2.1 100.5-30.7 100.5-117.1v-69.3c9.9-1 22.9-.3 32 6.5 10.2 7.6 15.4 22.3 15.4 43.9v86.4c0 9.5 7.7 17.2 17.2 17.2h118c19.2 0 34.7 15.6 34.7 34.7 0 2.2-.2 4.5-.5 6.8z"/></svg>