<svg width="23" height="22" viewBox="0 0 23 22" fill="none" xmlns="http://www.w3.org/2000/svg">
<path fill-rule="evenodd" clip-rule="evenodd" d="M21.3785 0.0244141C22.2577 0.0244141 22.9665 0.76672 22.9672 1.67245V20.3479C22.9672 21.2018 22.3439 21.8929 21.5439 21.9788H3.91433C2.36215 21.8997 2.15356 21.7279 2.15356 21.7279H2.15461C1.71956 21.5822 1.18861 21.3054 0.841014 20.7822C0.625398 20.4575 0.452754 20.1468 0.316196 19.8391C0.0408448 19.1466 0 17.9852 0 17.9852V6.02402C0.124265 5.34194 0.534444 4.34521 1.89083 4.35168C2.94563 4.35581 3.80716 4.35994 4.40107 4.36279L4.40616 4.36281H4.40652C4.67787 4.36392 4.73429 4.06639 4.74323 3.87978V1.67245C4.74323 0.76672 5.45262 0.0244141 6.33185 0.0244141H21.3785ZM21.8756 19.2868H21.8762C21.8762 20.1016 21.2543 20.7603 20.4824 20.7603H7.24752C6.85804 20.7581 6.39494 20.7553 5.92902 20.7488C5.57721 20.7431 5.49538 20.5122 5.48377 20.3295C5.49884 19.9995 5.57826 19.5514 5.63172 19.2847C5.64538 19.2221 5.658 19.1602 5.67011 19.0962L5.67801 19.0592C5.83594 18.2405 5.87697 17.4649 5.87697 17.4649H5.87592C5.88274 17.3487 5.88591 17.247 5.88591 17.1819V2.57567C5.88591 1.76485 6.50904 1.10145 7.27943 1.10145H20.4824C21.2526 1.10145 21.8756 1.76485 21.8756 2.57567V19.2868ZM4.81958 6.14193L4.81929 16.5203C4.81929 17.0313 4.67715 18.4044 4.64892 18.6737C4.64402 18.702 4.63973 18.7297 4.63544 18.7574C4.62867 18.8012 4.62187 18.845 4.61265 18.8917L4.6137 18.8909C4.6137 18.8909 4.48295 19.733 4.26697 20.3252C4.18178 20.5747 4.00261 20.6661 3.90748 20.697C2.85892 20.8832 2.31255 20.505 2.18983 20.4021C2.03575 20.2518 1.87064 20.044 1.71062 19.7308C1.70823 19.7267 1.70568 19.7229 1.70315 19.7191C1.69951 19.7136 1.69591 19.7082 1.69292 19.7021C1.68664 19.6896 1.68174 19.6774 1.67679 19.6649C1.67275 19.6548 1.66868 19.6446 1.66379 19.6341C1.65516 19.6162 1.64651 19.5989 1.63788 19.5815C1.61966 19.545 1.60148 19.5085 1.5835 19.4666C1.57293 19.441 1.56602 19.4171 1.55913 19.3933L1.553 19.3724C1.23731 18.6284 1.09517 17.9449 1.09812 17.1193C1.10094 16.1726 1.12826 7.42773 1.12826 7.42773C1.12826 7.42773 1.05533 5.42495 2.35595 5.43323C3.45919 5.44041 4.22991 5.44529 4.44062 5.44636H4.44167C4.47866 5.4471 4.50371 5.4471 4.50371 5.4471H4.51265C4.62185 5.45823 4.81641 5.53107 4.81818 5.92064L4.81745 6.14193H4.81958ZM19.0983 4.90253H8.69991C8.31483 4.90253 8.17196 5.18569 8.16442 5.45091C8.14705 5.92211 8.70027 6.00102 8.70027 6.00102H19.0752C19.8044 6.00102 19.8212 5.67472 19.8212 5.45124C19.8289 4.84212 19.0983 4.90253 19.0983 4.90253ZM8.69991 7.67172H19.0983C19.0983 7.67172 19.8289 7.61186 19.8212 8.22113C19.8212 8.44457 19.8044 8.77054 19.0752 8.77054H8.70027C8.70027 8.77054 8.14705 8.6916 8.16442 8.22043C8.17196 7.95521 8.31483 7.67172 8.69991 7.67172ZM19.0093 10.4534H8.60982C8.22542 10.4534 8.08327 10.7372 8.07469 11.0022C8.05804 11.4735 8.61018 11.5519 8.61018 11.5519H18.9861C19.7146 11.5519 19.7314 11.2261 19.7314 11.0029C19.7399 10.3934 19.0093 10.4534 19.0093 10.4534ZM8.60982 13.1311H19.0093C19.0093 13.1311 19.7399 13.0714 19.7314 13.6805C19.7314 13.9031 19.7146 14.2296 18.9861 14.2296H8.61018C8.61018 14.2296 8.05804 14.1512 8.07469 13.6805C8.08327 13.4152 8.22542 13.1311 8.60982 13.1311ZM19.0093 15.9235H8.60982C8.22542 15.9235 8.08327 16.2075 8.07469 16.4729C8.05804 16.9443 8.61018 17.0219 8.61018 17.0219H18.9861C19.7146 17.0219 19.7314 16.6955 19.7314 16.4729C19.7399 15.8638 19.0093 15.9235 19.0093 15.9235Z" fill="#FF5050"/>
</svg>
