<svg width="16" height="16" viewBox="0 0 16 16" fill="none" xmlns="http://www.w3.org/2000/svg">
<path fill-rule="evenodd" clip-rule="evenodd" d="M6.23875 11.0456C6.42301 11.0456 6.57236 11.1948 6.57236 11.3792C6.57236 11.5633 6.42301 11.7127 6.23875 11.7127H4.19716C4.01279 11.7127 3.86344 11.5633 3.86344 11.3792C3.86344 11.1948 4.01279 11.0456 4.19716 11.0456H6.23875ZM11.81 11.0456C11.9943 11.0456 12.1437 11.1948 12.1437 11.3792C12.1437 11.5633 11.9943 11.7127 11.81 11.7127H9.76833C9.58418 11.7127 9.43482 11.5633 9.43482 11.3792C9.43482 11.1948 9.58418 11.0456 9.76833 11.0456H11.81ZM0.357378 7.42257C0.268331 7.42184 0.183255 7.38525 0.121174 7.3214C0.0593007 7.25743 0.0254378 7.17142 0.026901 7.08227V5.0808C0.0262739 4.96354 0.0871017 4.85484 0.187227 4.7938L1.90869 3.76308V2.76224C1.90869 0.727228 3.33313 0.00335693 4.66758 0.00335693H11.3496C12.6841 0.00335693 14.1087 0.727228 14.1087 2.76224V3.76308L15.8201 4.80049C15.9201 4.86143 15.9807 4.97033 15.9801 5.08739V7.08906C15.9801 7.27321 15.8307 7.42257 15.6466 7.42257C15.4622 7.42257 15.313 7.27321 15.313 7.08906V5.26757L14.1087 4.53691V11.6828C14.1393 12.485 13.8232 13.2617 13.2413 13.8145V15.1489C13.2413 15.5474 12.9193 15.8711 12.5206 15.8728H10.6959C10.2973 15.8711 9.97527 15.5474 9.97527 15.1489V14.4319H6.02544V15.1357C6.02544 15.5341 5.70322 15.8577 5.3047 15.8595H3.47976C3.08135 15.8577 2.75934 15.5341 2.75934 15.1357V13.8012C2.16214 13.2603 1.84431 12.4769 1.89521 11.6728V4.53691L0.69099 5.26757V7.08906C0.69099 7.27321 0.541533 7.42257 0.357378 7.42257ZM13.4414 8.66703L13.4446 3.59951H8.3371V8.66703H13.4414ZM7.66998 8.66703V3.59951H2.56244V8.66703H7.66998ZM5.36459 15.1456V14.4319H4.6541C4.2353 14.4354 3.81954 14.3585 3.42981 14.2049V15.1456C3.42981 15.1757 3.45332 15.2006 3.48332 15.2022H5.31139C5.34139 15.2006 5.3649 15.1757 5.36459 15.1456ZM12.5773 15.1456L12.5639 14.2114C12.174 14.3635 11.7581 14.4382 11.3396 14.4319H10.6424V15.1456C10.6424 15.1757 10.6658 15.2006 10.6959 15.2022H12.524C12.554 15.2006 12.5775 15.1757 12.5773 15.1456ZM11.3396 13.7645C13.2413 13.7645 13.4446 12.3033 13.4446 11.6728V9.3376H2.57581V11.6728C2.57581 13.5608 4.04038 13.7645 4.66758 13.7645H11.3396ZM4.66758 0.65041C4.02701 0.65041 2.56244 0.840627 2.56244 2.74217V2.93239H13.4314V2.74217C13.4314 0.8539 11.9667 0.65041 11.3396 0.65041H4.66758Z" fill="#999999"/>
</svg>
