<svg xmlns="http://www.w3.org/2000/svg" width="16" height="20" viewBox="0 0 16 20"><g><g><path fill="#999" d="M4.334 9.994c-.366 0-.61.235-.61.588s.244.588.61.588h7.327c.366 0 .61-.235.61-.588s-.244-.588-.61-.588zm0 2.94c-.366 0-.61.234-.61.587s.244.588.61.588h7.327c.366 0 .61-.235.61-.588s-.244-.588-.61-.588zm0 2.939c-.366 0-.61.235-.61.588 0 .352.244.588.61.588h7.327c.366 0 .61-.236.61-.588 0-.353-.244-.588-.61-.588zm-1.221 2.93c-.977 0-1.832-.823-1.832-1.764V2.94c0-.94.855-1.763 1.832-1.763h4.274v4.113c0 1.645 1.343 2.937 3.053 2.937h4.274v8.813c0 .94-.855 1.763-1.832 1.763zM13.98 7.054H10.44c-.977 0-1.832-.824-1.832-1.764V1.88zm1.465-.236L8.852.47C8.486.235 7.997 0 7.51 0H3.113C1.403 0 .06 1.293.06 2.94v14.108c0 1.647 1.343 2.94 3.053 2.94h9.769c1.71 0 3.053-1.293 3.053-2.94V8.113c0-.47-.122-.94-.489-1.294z"/></g></g></svg>