<svg xmlns="http://www.w3.org/2000/svg" width="16" height="19" viewBox="0 0 16 19"><g><g><g><path fill="#ccc" d="M14.75 17.708V1.25H1.25v16.458zM15.375 0c.345 0 .625.28.625.625v17.708c0 .346-.28.625-.625.625H.625A.625.625 0 0 1 0 18.333V.625C0 .28.28 0 .625 0zM3.469 15.912a.625.625 0 1 1 0-1.25h9.072a.625.625 0 1 1 0 1.25zm0-2.816a.625.625 0 1 1 0-1.25h9.072a.625.625 0 1 1 0 1.25zm0-2.784a.625.625 0 1 1 0-1.25h9.072a.625.625 0 1 1 0 1.25zm0-5.75a.625.625 0 1 1 0-1.25h9.072a.625.625 0 1 1 0 1.25zm0 2.875a.625.625 0 1 1 0-1.25h9.072a.625.625 0 1 1 0 1.25z"/></g></g></g></svg>