<svg xmlns="http://www.w3.org/2000/svg" width="20" height="16" viewBox="0 0 20 16"><g><g><path fill="gray" d="M18.706 13.985a.662.662 0 0 1-.657.665.662.662 0 0 1-.658-.665V2.023c0-.367.295-.665.658-.665.362 0 .657.298.657.665zm-2.609-.883l-3.504-1.037h-.002L3.913 9.499V6.51l12.184-3.602zm-4.62 1.101a.634.634 0 0 1-.577.105l-3.913-1.205a.663.663 0 0 1-.465-.64v-.816l5.217 1.554v.466c0 .213-.096.409-.263.537zM2.618 9.992a.661.661 0 0 1-.657.664.661.661 0 0 1-.658-.664V6.007c0-.366.295-.664.658-.664.362 0 .657.298.657.664zM18.043.03c-.902 0-1.664.626-1.888 1.474L3.734 5.18a1.957 1.957 0 0 0-1.777-1.162C.877 4.017 0 4.911 0 6.011v3.987c0 1.099.878 1.993 1.957 1.993.787 0 1.467-.477 1.777-1.162l1.483.44v1.195c0 .887.56 1.655 1.395 1.91l3.913 1.196a1.917 1.917 0 0 0 1.73-.31c.501-.38.788-.963.788-1.6v-.077l3.112.92c.224.849.986 1.475 1.888 1.475 1.08 0 1.957-.894 1.957-1.993V2.024C20 .924 19.122.03 18.043.03z"/></g></g></svg>