<svg width="20" height="5" viewBox="0 0 20 5" fill="none" xmlns="http://www.w3.org/2000/svg">
<path fill-rule="evenodd" clip-rule="evenodd" d="M2.27271 4.56105C1.01753 4.56105 0 3.54352 0 2.28834C0 1.03315 1.01753 0.015625 2.27271 0.015625C3.5279 0.015625 4.54542 1.03315 4.54542 2.28834C4.54542 3.54352 3.5279 4.56105 2.27271 4.56105ZM10 4.56105C8.74482 4.56105 7.72729 3.54352 7.72729 2.28834C7.72729 1.03315 8.74482 0.015625 10 0.015625C11.2552 0.015625 12.2727 1.03315 12.2727 2.28834C12.2727 3.54352 11.2552 4.56105 10 4.56105ZM17.7273 4.56105C16.4721 4.56105 15.4546 3.54352 15.4546 2.28834C15.4546 1.03315 16.4721 0.015625 17.7273 0.015625C18.9825 0.015625 20 1.03315 20 2.28834C20 3.54352 18.9825 4.56105 17.7273 4.56105Z" fill="#CCCCCC"/>
</svg>
