<svg xmlns="http://www.w3.org/2000/svg" width="20" height="25" viewBox="0 0 20 25"><g><g><path fill="#999" d="M5.065 10.131c0-2.725 2.214-4.948 4.93-4.948 2.715 0 4.929 2.223 4.929 4.948 0 2.725-2.209 4.948-4.93 4.948-2.72 0-4.93-2.223-4.93-4.948zm-1.41-.005c0 3.504 2.846 6.358 6.34 6.358 3.493 0 6.339-2.854 6.339-6.358 0-3.504-2.846-6.358-6.34-6.358-3.493 0-6.34 2.854-6.34 6.358zm14.752 1.562l-.047.225v.01a8.341 8.341 0 0 1-.58 1.71c-.005.004-.005.015-.01.02-.977 2.322-3.118 5.865-7.776 9.728-4.658-3.863-6.799-7.406-7.775-9.728-.005-.005-.005-.016-.01-.02a8.898 8.898 0 0 1-.58-1.71v-.01c-.032-.12-.042-.2-.047-.225 0-.01-.005-.021-.005-.037a8.59 8.59 0 0 1-.157-1.635c0-4.743 3.848-8.606 8.574-8.606s8.575 3.863 8.575 8.606c0 .555-.052 1.106-.157 1.64 0 .01-.005.021-.005.032zM.01 10.02c0 .629.057 1.263.178 1.882a9.894 9.894 0 0 0 .736 2.311C2 16.756 4.365 20.66 9.556 24.843a.707.707 0 0 0 .887 0c5.186-4.183 7.557-8.087 8.632-10.63a9.783 9.783 0 0 0 .737-2.31c.114-.619.177-1.253.177-1.882C19.98 4.497 15.5 0 9.994 0 4.49 0 .01 4.497.01 10.021z"/></g></g></svg>