<svg xmlns="http://www.w3.org/2000/svg" width="20" height="16" viewBox="0 0 20 16"><g><g><path fill="#299ae0" d="M13.768 10.444a.748.748 0 0 1 .005 1.076.793.793 0 0 1-1.103.005c-.722-.698-1.78-1.149-2.697-1.149h-.057c-.917 0-1.976.451-2.698 1.15a.787.787 0 0 1-.548.22.787.787 0 0 1-.554-.226.748.748 0 0 1 .005-1.076c1.014-.98 2.468-1.59 3.795-1.59h.057c1.327 0 2.78.61 3.795 1.59zm3.11-3.146a.744.744 0 0 1-.003 1.072.788.788 0 0 1-.55.22c-.2 0-.4-.074-.552-.224-1.598-1.567-3.657-2.43-5.798-2.43-2.14 0-4.2.863-5.797 2.43a.794.794 0 0 1-1.102.004.744.744 0 0 1-.004-1.072C4.964 5.442 7.416 4.42 9.975 4.42c2.56 0 5.01 1.022 6.904 2.878zm2.874-3.131a.744.744 0 0 1-.04 1.071.79.79 0 0 1-.53.204.788.788 0 0 1-.571-.241c-2.264-2.363-5.33-3.664-8.63-3.664-3.302 0-6.367 1.3-8.63 3.664a.795.795 0 0 1-1.103.037.744.744 0 0 1-.039-1.072C2.772 1.494 6.242.02 9.98.02c3.74 0 7.21 1.473 9.772 4.147zm-9.81 11.815c-.711 0-1.287-.56-1.287-1.251 0-.691.576-1.251 1.287-1.251.71 0 1.286.56 1.286 1.25 0 .692-.576 1.252-1.286 1.252z"/></g></g></svg>