<svg xmlns="http://www.w3.org/2000/svg" width="20" height="22" viewBox="0 0 20 22"><g><g><path fill="gray" d="M12.498 7.357v9.86c0 .43.35.783.778.783a.783.783 0 0 0 .778-.783v-9.86c0-.43-.35-.783-.778-.783a.783.783 0 0 0-.778.783zm-6.578 0v9.86c0 .43.348.783.773.783a.78.78 0 0 0 .773-.783v-9.86a.78.78 0 0 0-.773-.783.78.78 0 0 0-.773.783zm3.289 0v9.86c0 .43.35.783.778.783a.783.783 0 0 0 .778-.783v-9.86c0-.43-.35-.783-.778-.783a.783.783 0 0 0-.778.783zm-2.38-4.07V2.239c0-.37.3-.674.673-.674h4.965c.368 0 .672.3.672.674v1.048zm7.884 0V2.239A2.242 2.242 0 0 0 12.473 0H7.5a2.242 2.242 0 0 0-2.24 2.24v1.047H.784A.785.785 0 0 0 0 4.07c0 .43.352.782.783.782h1.19v13.705a2.732 2.732 0 0 0 2.731 2.73h10.57a2.732 2.732 0 0 0 2.73-2.73v-11.2a.785.785 0 0 0-.782-.783.785.785 0 0 0-.783.783v11.2c0 .643-.522 1.165-1.165 1.165H4.7a1.165 1.165 0 0 1-1.165-1.165V4.852h15.652a.786.786 0 0 0 .787-.782.785.785 0 0 0-.783-.783z"/></g></g></svg>