<svg xmlns="http://www.w3.org/2000/svg" width="20" height="19" viewBox="0 0 20 19"><g><g><path fill="gray" d="M2.505 2.743l.121-.134c.726-.805 1.687-1.248 2.704-1.248 1.017 0 1.977.443 2.703 1.248L9.48 4.212a.675.675 0 0 0 1.002 0l1.447-1.603c.726-.805 1.686-1.248 2.704-1.248 1.017 0 1.977.443 2.704 1.248l.12.134C18.998 4.45 19 7.227 17.46 8.935l-7.479 8.066-7.48-8.066C.964 7.227.965 4.45 2.506 2.743zm7.976 15.711l7.983-8.603.006-.007c.969-1.072 1.502-2.494 1.502-4.003s-.533-2.93-1.502-4.004l-.122-.133C17.362.61 16.045.01 14.64.01c-1.405 0-2.722.601-3.708 1.693l-.946 1.048-.946-1.048C8.054.611 6.737.01 5.332.01 3.927.01 2.61.611 1.624 1.703l-.122.135C.534 2.91 0 4.332 0 5.84s.534 2.93 1.502 4.003l.007.007 7.982 8.603a.676.676 0 0 0 .99 0z"/></g></g></svg>