<svg xmlns="http://www.w3.org/2000/svg" viewBox="0 0 30.333 30.333"><path fill="#010002" d="M0 26.75V11.908c0-4.59 3.735-8.325 8.325-8.325h13.681c4.591 0 8.327 3.735 8.327 8.325v2.56c0 4.59-3.735 8.325-8.325 8.325H8.518L0 26.75zM8.325 5.439c-3.567 0-6.469 2.902-6.469 6.469v11.933l6.253-2.905h13.899c3.567 0 6.469-2.902 6.469-6.469v-2.56c0-3.567-2.903-6.469-6.471-6.469H8.325v.001zm.612 6.328c.975 0 1.765.79 1.765 1.765s-.79 1.765-1.765 1.765-1.765-.79-1.765-1.765.79-1.765 1.765-1.765zm12.458 0c.975 0 1.765.79 1.765 1.765s-.79 1.765-1.765 1.765-1.765-.79-1.765-1.765.79-1.765 1.765-1.765zm-6.23 0c.975 0 1.765.79 1.765 1.765s-.79 1.765-1.765 1.765-1.765-.79-1.765-1.765.79-1.765 1.765-1.765z"/></svg>