<svg xmlns="http://www.w3.org/2000/svg" viewBox="0 0 50 50"><defs/><path d="M37.094.094a2 2 0 00-1.188 3.437l6.47 6.47H2a2 2 0 00-.188 0A2.002 2.002 0 102 14h40.375l-6.47 6.47a2 2 0 102.814 2.843l9.904-9.907L50.03 12l-1.405-1.406L38.72.688a2 2 0 00-1.626-.594zm-24.594 26a2 2 0 00-1.188.593l-9.906 9.907L0 38l1.406 1.406 9.906 9.907a2 2 0 102.813-2.844L7.655 40H48a2 2 0 100-4H7.656l6.47-6.47a2 2 0 00-1.626-3.436z" style="text-indent:0;text-align:start;line-height:normal;text-transform:none;block-progression:tb" /></svg>