<svg xmlns="http://www.w3.org/2000/svg" width="16" height="20" viewBox="0 0 16 20"><g><g><g><path fill="#ccc" d="M7.393 16.588V9.216a.615.615 0 0 1 1.228 0v7.372a.615.615 0 0 1-1.228 0zm-3.072 0V9.216a.615.615 0 0 1 1.228 0v7.372a.615.615 0 0 1-1.228 0zM14.765 4.301a.615.615 0 0 0-.614-.615H1.863a.615.615 0 0 0 0 1.23h12.288c.339 0 .614-.276.614-.615zm-1.229 1.843H2.478v11.059c0 .678.55 1.228 1.228 1.228h8.602c.679 0 1.228-.55 1.228-1.228zM6.164 2.458H9.85v-.615a.615.615 0 0 0-.614-.614H6.778a.615.615 0 0 0-.614.614zm9.83 1.228v1.229c0 .678-.55 1.229-1.229 1.229v11.059c0 1.357-1.1 2.457-2.457 2.457H3.706a2.458 2.458 0 0 1-2.457-2.457V6.143c-.68 0-1.229-.55-1.229-1.228V3.686c0-.679.55-1.228 1.229-1.228h3.686v-1.23C4.935.55 5.485 0 6.164 0H9.85c.679 0 1.229.55 1.229 1.229v1.229h3.686c.679 0 1.229.55 1.229 1.228zm-5.53 12.902V9.216a.615.615 0 0 1 1.23 0v7.372a.615.615 0 0 1-1.23 0z"/></g></g></g></svg>