<?xml version="1.0" encoding="utf-8"?>
<!-- Generator: Adobe Illustrator 19.2.1, SVG Export Plug-In . SVG Version: 6.00 Build 0)  -->
<svg version="1.1" id="Слой_1" xmlns="http://www.w3.org/2000/svg" xmlns:xlink="http://www.w3.org/1999/xlink" x="0px" y="0px"
	 viewBox="0 0 40.9 40.4" style="enable-background:new 0 0 40.9 40.4;" xml:space="preserve">
<style type="text/css">
	.st0{fill:none;stroke:#000000;}
</style>
<g>
	<path class="st0" d="M40.4,15.5c-0.1-0.3-0.3-0.5-0.6-0.5l-12.9-1.9L21.1,0.9c-0.1-0.3-0.4-0.4-0.6-0.4c-0.3,0-0.5,0.2-0.6,0.4
		L14,13.1L1.1,15c-0.3,0-0.5,0.2-0.6,0.5c-0.1,0.3,0,0.6,0.2,0.8l9.4,9.5L7.9,39.1c0,0.3,0.1,0.6,0.3,0.7C8.4,40,8.7,40,8.9,39.8
		l11.6-6.3L32,39.8c0.1,0.1,0.2,0.1,0.3,0.1c0.1,0,0.3,0,0.4-0.1c0.2-0.2,0.3-0.4,0.3-0.7l-2.2-13.3l9.4-9.5
		C40.4,16.1,40.5,15.8,40.4,15.5z"/>
</g>
</svg>
