<svg width="25" height="22" viewBox="0 0 25 22" fill="none" xmlns="http://www.w3.org/2000/svg">
<path fill-rule="evenodd" clip-rule="evenodd" d="M22.9867 9.56214H23.5809C24.3494 9.56214 24.9744 10.2012 24.9795 10.9869V14.1664C24.9795 14.9521 24.3545 15.5912 23.5861 15.5912H22.9918V19.2474C22.9918 20.735 21.8084 21.9502 20.3484 21.9502H1.78279C0.79918 21.9502 0 21.1331 0 20.1274V2.24452V2.21309C0.0153689 1.00309 0.983607 0.0288086 2.16701 0.0288086H18.0174C19.001 0.0288086 19.8002 0.845951 19.8002 1.85167L19.7951 3.20833H20.3432C21.7982 3.20833 22.9867 4.41833 22.9867 5.91119V9.56214ZM18.0174 1.28595H2.16701C1.64959 1.28595 1.22951 1.72071 1.22951 2.24976C1.22951 2.77881 1.64959 3.20833 2.16701 3.20833H18.5656L18.5707 1.84643C18.5707 1.53738 18.3197 1.28595 18.0174 1.28595ZM21.7572 19.2421C21.7572 20.0383 21.1219 20.6879 20.3432 20.6879H1.77766C1.47541 20.6879 1.22439 20.4364 1.22439 20.1221V4.24548C1.51127 4.3869 1.82889 4.46548 2.16701 4.46548H20.3432C21.1219 4.46548 21.7572 5.115 21.7572 5.91119V9.56214H17.5615C16.793 9.56214 16.168 10.2012 16.168 10.9869V14.1664C16.168 14.9521 16.793 15.5912 17.5615 15.5912H21.7572V19.2421ZM23.5809 14.334C23.6732 14.334 23.7449 14.2607 23.7449 14.1664V10.9869C23.7449 10.8926 23.668 10.8193 23.5809 10.8193H17.5666C17.4744 10.8193 17.4027 10.8979 17.4027 10.9869V14.1664C17.4027 14.2607 17.4744 14.334 17.5666 14.334H23.5809Z" fill="#FF5050"/>
</svg>
