<svg xmlns="http://www.w3.org/2000/svg" width="16" height="20" viewBox="0 0 16 20"><g><g><path fill="gray" d="M9.009 14.437A1.02 1.02 0 0 1 8 15.465a1.02 1.02 0 0 1-1.007-1.028A1.02 1.02 0 0 1 8 13.408a.73.73 0 0 0 .72-.735.73.73 0 0 0-.72-.734c-1.347 0-2.447 1.122-2.447 2.498 0 1.375 1.1 2.498 2.447 2.498s2.447-1.123 2.447-2.498a.73.73 0 0 0-.72-.735.73.73 0 0 0-.72.735zM3.83 8.879V5.742c0-2.356 1.868-4.27 4.166-4.27s4.166 1.914 4.166 4.27V8.88zm9.768.004V5.746C13.598 2.576 11.084 0 7.996 0 4.908 0 2.394 2.577 2.394 5.742V8.88h-.59C.818 8.88.02 9.701.02 10.708v7.46c0 1.01.802 1.828 1.784 1.828h10.813a.73.73 0 0 0 .718-.736.73.73 0 0 0-.718-.736H1.804a.352.352 0 0 1-.348-.356v-7.456c0-.197.156-.356.348-.356h12.385c.191 0 .347.16.347.356v7.46a.73.73 0 0 0 .718.736.73.73 0 0 0 .718-.736v-7.46c0-1.01-.802-1.829-1.783-1.829z"/></g></g></svg>