<svg width="20" height="17" viewBox="0 0 20 17" fill="none" xmlns="http://www.w3.org/2000/svg">
<path fill-rule="evenodd" clip-rule="evenodd" d="M11.3565 0.0107422C6.59326 0.0107422 2.71979 3.8197 2.71979 8.49871V8.52678L1.00958 5.99683C0.842237 5.74824 0.49938 5.68008 0.246319 5.84447C-0.00674219 6.00886 -0.0761299 6.34565 0.091217 6.59423L2.57285 10.2629C2.66265 10.3952 2.8055 10.4794 2.96469 10.4994C2.98918 10.5034 3.00958 10.5034 3.03407 10.5034C3.16877 10.5034 3.29938 10.4553 3.40142 10.3631L6.8504 7.31192C7.07489 7.11145 7.0953 6.77065 6.89122 6.54612C6.68714 6.3256 6.3402 6.30555 6.11163 6.50603L3.82183 8.53881V8.49871C3.82183 4.4131 7.20142 1.09329 11.3565 1.09329C15.5116 1.09329 18.8953 4.4131 18.8953 8.49871C18.8953 12.5843 15.5157 15.9041 11.3606 15.9041C9.34836 15.9041 7.45448 15.1343 6.03407 13.735C5.81775 13.5225 5.47081 13.5225 5.25448 13.735C5.03816 13.9475 5.03816 14.2883 5.25448 14.5008C6.88714 16.1046 9.05448 16.9867 11.3606 16.9867C16.1198 16.9867 19.9973 13.1817 19.9973 8.49871C19.9973 3.81569 16.1198 0.0107422 11.3565 0.0107422Z" fill="#808080"/>
</svg>
