<svg width="22" height="22" viewBox="0 0 22 22" fill="none" xmlns="http://www.w3.org/2000/svg">
<path fill-rule="evenodd" clip-rule="evenodd" d="M22 11C22 4.93443 17.0652 0 11 0C4.93477 0 0 4.93443 0 11C0 17.0656 4.93477 22 11 22C17.0652 22 22 17.0656 22 11ZM20.6462 11C20.6462 16.3189 16.3189 20.6462 11 20.6462C5.68108 20.6462 1.35385 16.3189 1.35385 11C1.35385 5.68108 5.68108 1.35385 11 1.35385C16.3189 1.35385 20.6462 5.68108 20.6462 11ZM10.8369 7.74603C10.3985 7.74603 10.0432 7.39068 10.0432 6.95234C10.0432 6.51399 10.3985 6.15865 10.8369 6.15865C11.2752 6.15865 11.6306 6.51399 11.6306 6.95234C11.6306 7.39068 11.2752 7.74603 10.8369 7.74603ZM11.5541 10.2696C11.5541 9.8956 11.2508 9.59268 10.8771 9.59268C10.5035 9.59268 10.2002 9.89594 10.2002 10.2696V16.0234C10.2002 16.3971 10.5035 16.7004 10.8771 16.7004C11.2508 16.7004 11.5541 16.3971 11.5541 16.0234V10.2696Z" fill="#FF5050"/>
</svg>
