<svg xmlns="http://www.w3.org/2000/svg" width="70" height="60" viewBox="0 0 70 60"><g><g><path fill="#ff5050" d="M60.43 40.816c.755 0 1.367.61 1.367 1.36 0 .752-.612 1.361-1.367 1.361H32.266c-.756 0-1.368-.609-1.368-1.36 0-.752.612-1.36 1.368-1.36zm0-8.163c.755 0 1.367.61 1.367 1.36 0 .752-.612 1.361-1.367 1.361H32.266c-.756 0-1.368-.609-1.368-1.36 0-.752.612-1.36 1.368-1.36zm-28.164-5.442c-.756 0-1.368-.61-1.368-1.36 0-.752.612-1.361 1.368-1.361H54.96c.755 0 1.367.609 1.367 1.36 0 .752-.612 1.36-1.367 1.36zM9.57 10.884c-.755 0-1.367-.609-1.367-1.36 0-.752.612-1.36 1.367-1.36h22.696c.755 0 1.367.608 1.367 1.36 0 .751-.612 1.36-1.367 1.36zM67.266 47.62V20.41c0-.751-.613-1.361-1.368-1.361H26.797c-.754 0-1.367.61-1.367 1.36V47.62c0 .75.613 1.36 1.367 1.36h25.43c.362 0 .71.144.966.4l5.87 5.84V50.34c0-.751.612-1.36 1.367-1.36h5.468c.755 0 1.368-.61 1.368-1.36zM9.57 19.046a1.362 1.362 0 0 1-1.367-1.359c0-.751.612-1.36 1.367-1.36h35V4.082c0-.75-.613-1.36-1.367-1.36H4.102c-.755 0-1.368.61-1.368 1.36v27.21c0 .75.613 1.361 1.368 1.361H9.57c.755 0 1.368.61 1.368 1.36v4.879l5.869-5.84a1.37 1.37 0 0 1 .966-.399h4.922v-5.442H9.57c-.755 0-1.367-.61-1.367-1.36 0-.752.612-1.361 1.367-1.361h13.125v-4.083c0-.477.084-.935.235-1.361zm56.328-2.72c2.262 0 4.102 1.831 4.102 4.082V47.62c0 2.25-1.84 4.082-4.102 4.082h-4.101v6.802c0 1.216-1.479 1.813-2.334.962l-7.803-7.764H26.797c-2.262 0-4.102-1.831-4.102-4.082V35.374H18.34l-7.803 7.765c-.854.85-2.334.257-2.334-.962v-6.803H4.102C1.84 35.374 0 33.544 0 31.293V4.082C0 1.83 1.84 0 4.102 0h39.101c2.262 0 4.102 1.83 4.102 4.082v12.245zm-28.164-5.442c-.754 0-1.367-.61-1.367-1.36 0-.751.613-1.36 1.367-1.36.755 0 1.368.609 1.368 1.36 0 .75-.613 1.36-1.368 1.36zm22.7 13.606c.758 0 1.373.61 1.373 1.36 0 .751-.615 1.36-1.372 1.36-.758 0-1.372-.609-1.372-1.36 0-.75.614-1.36 1.372-1.36z"/></g></g></svg>