<svg width="21" height="25" viewBox="0 0 21 25" fill="none" xmlns="http://www.w3.org/2000/svg">
<path fill-rule="evenodd" clip-rule="evenodd" d="M20.8673 6.41588L20.8677 6.43703C20.987 12.7185 21.1502 21.3212 10.7318 24.9517C10.6395 24.9839 10.5431 25 10.4467 25C10.3504 25 10.2541 24.9839 10.1617 24.9517C-0.255861 21.3214 -0.092473 12.7188 0.0268278 6.43751L0.0268282 6.43749C0.0397099 5.76241 0.0517793 5.12455 0.0517793 4.50757C0.0517793 4.02431 0.44148 3.63251 0.922165 3.63251C4.64428 3.63251 7.47791 2.557 9.84002 0.247774C10.1778 -0.0825329 10.7156 -0.0826496 11.0536 0.247774C13.4159 2.557 16.25 3.63251 19.9724 3.63251C20.4532 3.63251 20.8427 4.02431 20.8427 4.50757C20.8427 5.11799 20.8547 5.74874 20.8673 6.41588ZM1.76765 6.47035C1.64777 12.7847 1.51269 19.9328 10.4471 23.1958C19.3823 19.9326 19.2473 12.7843 19.1276 6.46976C19.1204 6.09104 19.1134 5.72398 19.1085 5.36404C15.6221 5.21621 12.8339 4.154 10.4471 2.06389C8.06066 4.154 5.27287 5.21609 1.78669 5.36404C1.78181 5.72409 1.77485 6.09139 1.76765 6.47035Z" fill="white"/>
<path fill-rule="evenodd" clip-rule="evenodd" d="M13.4442 9.46133L9.24327 13.6846L7.45062 11.8823C7.11071 11.5407 6.55958 11.5407 6.21978 11.8823C5.87987 12.2242 5.87987 12.7782 6.21978 13.1199L8.62785 15.5409C8.79775 15.7117 9.02056 15.7971 9.24327 15.7971C9.46597 15.7971 9.68879 15.7117 9.85869 15.5409L14.6749 10.6989C15.015 10.3572 15.015 9.80307 14.6751 9.46144C14.3353 9.1197 13.7841 9.11958 13.4442 9.46133Z" fill="white"/>
</svg>
