<svg xmlns="http://www.w3.org/2000/svg" width="20" height="18" viewBox="0 0 20 18"><g><g><path fill="#ff5050" d="M6.678 15.777c0-.284.224-.513.502-.513h12.306c.277 0 .502.23.502.513a.507.507 0 0 1-.502.512H7.18a.507.507 0 0 1-.502-.512zm0-6.784c0-.283.224-.512.502-.512h12.306c.277 0 .502.229.502.512a.507.507 0 0 1-.502.513H7.18a.507.507 0 0 1-.502-.513zm0-6.787c0-.283.224-.513.502-.513h12.306c.277 0 .502.23.502.513a.507.507 0 0 1-.502.512H7.18a.507.507 0 0 1-.502-.512zM0 15.78c0-1.209.967-2.196 2.151-2.196 1.184 0 2.151.983 2.151 2.196 0 1.208-.963 2.196-2.151 2.196C.967 17.977 0 16.989 0 15.78zm1-.004c0 .646.518 1.175 1.151 1.175s1.151-.525 1.151-1.175c0-.646-.514-1.175-1.151-1.175-.633 0-1.151.529-1.151 1.175zM0 8.993c0-1.212.963-2.196 2.151-2.196 1.188 0 2.151.988 2.151 2.196 0 1.209-.963 2.196-2.151 2.196C.967 11.19 0 10.206 0 8.993zm1 0c0 .65.518 1.175 1.151 1.175s1.151-.529 1.151-1.175-.514-1.175-1.151-1.175C1.518 7.818 1 8.343 1 8.993zM0 2.206C0 .998.963.01 2.151.01c1.188 0 2.151.992 2.151 2.2 0 1.208-.963 2.196-2.151 2.196C.967 4.406 0 3.414 0 2.206zm1 0c0 .646.518 1.175 1.151 1.175s1.151-.53 1.151-1.175c0-.646-.514-1.175-1.151-1.175C1.518 1.03 1 1.56 1 2.206z"/></g></g></svg>