<svg width="16" height="16" viewBox="0 0 16 16" fill="none" xmlns="http://www.w3.org/2000/svg">
<path fill-rule="evenodd" clip-rule="evenodd" d="M8.914 7.98442L15.8107 14.8676C16.0631 15.1196 16.0631 15.528 15.8107 15.7799C15.6846 15.9059 15.5191 15.9688 15.3537 15.9688C15.1883 15.9688 15.0229 15.9059 14.8967 15.7799L7.99999 8.89665L1.10337 15.7798C0.977148 15.9058 0.811742 15.9688 0.646336 15.9688C0.48093 15.9688 0.315492 15.9059 0.189305 15.7799C-0.0631015 15.5279 -0.0631015 15.1195 0.189305 14.8676L7.08597 7.98441L0.189305 1.10119C-0.0631015 0.849271 -0.0631015 0.44085 0.189305 0.188967C0.44168 -0.0629474 0.85093 -0.0629474 1.1033 0.188967L7.99998 7.07218L14.8967 0.188936C15.1491 -0.0629786 15.5583 -0.0629786 15.8107 0.188936C16.0631 0.44085 16.0631 0.849271 15.8107 1.10115L8.914 7.98442Z" fill="#999999"/>
</svg>
