<svg xmlns="http://www.w3.org/2000/svg" width="20" height="16" viewBox="0 0 20 16"><g><g><path fill="gray" d="M16.691 4.41a.742.742 0 0 0-1.034.127.736.736 0 0 0 .126 1.03c.839.655 1.678 1.468 2.493 2.42-.481.562-1.418 1.571-2.689 2.495-2.448 1.778-4.92 2.421-7.344 1.908a.731.731 0 1 0-.301 1.433c.631.134 1.266.2 1.906.2a9.7 9.7 0 0 0 2.896-.453c1.267-.394 2.526-1.045 3.743-1.932 2.053-1.502 3.28-3.158 3.332-3.227a.738.738 0 0 0-.02-.895c-1.006-1.237-2.049-2.28-3.108-3.105zM7.545 5.548A3.415 3.415 0 0 0 6.54 7.98c0 .668.191 1.308.546 1.858l-1.51 1.51C4.253 10.583 2.95 9.45 1.685 7.972c.541-.635 1.685-1.862 3.252-2.884 2.71-1.768 5.408-2.15 8.037-1.145l-1.143 1.145a3.44 3.44 0 0 0-4.286.46zm.462 2.436c0-.525.203-1.022.578-1.397a1.978 1.978 0 0 1 2.171-.42l-2.59 2.591a1.907 1.907 0 0 1-.16-.774zm8.7-7.768L14.1 2.822c-3.23-1.466-6.676-1.108-9.963 1.039C1.69 5.458.202 7.466.141 7.551a.74.74 0 0 0 .02.897c1.394 1.71 2.852 3.042 4.343 3.971L2.21 14.712a.738.738 0 0 0 .518 1.255.731.731 0 0 0 .517-.216L17.746 1.254A.734.734 0 1 0 16.707.215z"/></g></g></svg>