<svg xmlns="http://www.w3.org/2000/svg" width="10" height="20" viewBox="0 0 10 20"><g><g><path fill="#ccc" d="M.1 14.619l.5-.516A.312.312 0 0 1 .832 14c.087 0 .164.034.23.103l3.937 4.052 3.936-4.052a.312.312 0 0 1 .23-.103c.087 0 .164.034.23.103l.502.516a.33.33 0 0 1 0 .474l-4.668 4.804a.312.312 0 0 1-.23.103.312.312 0 0 1-.23-.103L.1 15.093a.33.33 0 0 1 0-.474z"/></g><g><path fill="#ccc" d="M.1 5.381a.33.33 0 0 1 0-.474L4.768.103A.312.312 0 0 1 4.998 0c.087 0 .163.034.23.103l4.668 4.804a.33.33 0 0 1 0 .474l-.501.516a.312.312 0 0 1-.23.103.312.312 0 0 1-.23-.103L4.997 1.845 1.06 5.897A.312.312 0 0 1 .831 6a.312.312 0 0 1-.23-.103z"/></g></g></svg>