<svg width="20" height="12" viewBox="0 0 20 12" fill="none" xmlns="http://www.w3.org/2000/svg">
<path fill-rule="evenodd" clip-rule="evenodd" d="M19.8002 10.763L18.7982 11.7937C18.6647 11.9314 18.5109 12 18.3371 12C18.1636 12 18.0099 11.9314 17.8764 11.7937L10.0001 3.69074L2.12418 11.7935C1.9906 11.9312 1.83688 11.9998 1.66322 11.9998C1.48949 11.9998 1.33577 11.9312 1.20226 11.7935L0.200471 10.7627C0.0666833 10.6253 0 10.4672 0 10.2884C0 10.1099 0.0668939 9.9517 0.200471 9.81434L9.53915 0.206108C9.67266 0.0686787 9.82645 0 10.0001 0C10.1738 0 10.3273 0.0686787 10.4607 0.206108L19.8002 9.81434C19.9337 9.95177 20 10.1099 20 10.2884C20 10.4672 19.9337 10.6253 19.8002 10.763Z" fill="#BBBBBB"/>
</svg>
