<svg width="19" height="26" viewBox="0 0 19 26" fill="none" xmlns="http://www.w3.org/2000/svg">
<path fill-rule="evenodd" clip-rule="evenodd" d="M18.3683 6.62265C18.6937 6.62321 18.9584 6.88627 18.962 7.21353V23.0342C18.9617 24.6654 17.6454 25.9876 16.0215 25.9882H2.95345C1.32966 25.9876 0.013432 24.6654 0.0126953 23.0342V7.21353C0.0136161 6.88738 0.276605 6.62358 0.60092 6.62265H4.52954V5.12789C4.52954 2.29598 6.81522 0 9.63461 0C12.4538 0 14.7395 2.29598 14.7395 5.12789V6.62265H18.3683ZM5.69991 5.12197V6.61673H13.5573V5.12197C13.5573 2.94254 11.7986 1.17546 9.62854 1.17546C7.45906 1.17546 5.69991 2.94254 5.69991 5.12197ZM17.7801 7.80422V23.0342C17.7771 24.012 16.9889 24.8038 16.0158 24.8066H2.94774C1.97424 24.8038 1.18601 24.012 1.18325 23.0342V7.80422H4.52365V10.2086C4.52365 10.5349 4.78719 10.7995 5.11169 10.7995C5.43656 10.7995 5.69991 10.5349 5.69991 10.2086V7.80422H13.5632V10.2086C13.5632 10.5349 13.8266 10.7995 14.1515 10.7995C14.476 10.7995 14.7395 10.5349 14.7395 10.2086V7.80422H17.7801ZM8.7658 18.8848C8.76189 18.7441 8.75994 18.6387 8.75994 18.5684C8.75994 18.1543 8.81853 17.7969 8.93572 17.4961C9.02166 17.2695 9.16033 17.041 9.35173 16.8105C9.49236 16.6426 9.74529 16.3975 10.1105 16.0752C10.4758 15.7529 10.7131 15.4961 10.8224 15.3047C10.9318 15.1133 10.9865 14.9043 10.9865 14.6777C10.9865 14.2676 10.8263 13.9072 10.506 13.5967C10.1857 13.2861 9.79314 13.1309 9.3283 13.1309C8.87908 13.1309 8.50408 13.2715 8.2033 13.5527C7.90251 13.834 7.70525 14.2734 7.6115 14.8711L6.52752 14.7422C6.62517 13.9414 6.91521 13.3281 7.39763 12.9023C7.88006 12.4766 8.51775 12.2637 9.31072 12.2637C10.1506 12.2637 10.8205 12.4922 11.3205 12.9492C11.8205 13.4063 12.0705 13.959 12.0705 14.6074C12.0705 14.9824 11.9826 15.3281 11.8068 15.6445C11.631 15.9609 11.2873 16.3457 10.7756 16.7988C10.4318 17.1035 10.2072 17.3281 10.1017 17.4727C9.99627 17.6172 9.91814 17.7832 9.86736 17.9707C9.81658 18.1582 9.78728 18.4629 9.77947 18.8848H8.7658ZM8.70134 19.7988V21H9.90252V19.7988H8.70134Z" fill="#FF5050"/>
</svg>
