<svg xmlns="http://www.w3.org/2000/svg" width="18" height="17" viewBox="0 0 18 17"><g><g><path fill="#ff5050" d="M13.232 11.68c-1.631 1.756-3.386 3.176-4.237 3.83-.85-.654-2.606-2.074-4.237-3.83-2.336-2.516-3.571-4.816-3.571-6.653 0-2.12 1.744-3.844 3.889-3.844a3.9 3.9 0 0 1 3.4 1.984l.519.925.519-.925a3.9 3.9 0 0 1 3.4-1.984c2.145 0 3.89 1.724 3.89 3.844 0 1.837-1.236 4.137-3.572 6.653zM12.922.01A5.104 5.104 0 0 0 9 1.844 5.103 5.103 0 0 0 5.078.01C2.278.01 0 2.26 0 5.027c0 2.166 1.307 4.671 3.886 7.446 1.984 2.136 4.143 3.79 4.757 4.245l.357.265.356-.265c.615-.455 2.773-2.109 4.758-4.245C16.692 9.698 18 7.193 18 5.027 18 2.26 15.722.01 12.922.01z"/></g></g></svg>