<svg width="18" height="22" viewBox="0 0 18 22" fill="none" xmlns="http://www.w3.org/2000/svg">
<path fill-rule="evenodd" clip-rule="evenodd" d="M17.3876 1.10451C17.6985 1.10451 17.9536 0.856557 17.9536 0.554508C17.9536 0.247951 17.6985 0 17.383 0H3.53969C1.59587 0 0.0185547 1.53729 0.0185547 3.42172V18.5557C0.0185547 20.4447 1.60051 21.9775 3.53969 21.9775H17.3876C17.7031 21.9775 17.9582 21.7295 17.9582 21.423V6.29344C17.9582 5.98689 17.7031 5.73893 17.3876 5.73893H3.53969C2.2268 5.73893 1.15515 4.69754 1.15515 3.42172C1.15515 2.1459 2.2268 1.10451 3.53969 1.10451H17.3876ZM1.15515 5.93729C1.78144 6.50082 2.62113 6.84344 3.53969 6.84344H16.817V20.873H3.53969C2.2268 20.873 1.15515 19.8316 1.15515 18.5557V5.93729ZM3.73453 2.92131H16.7289C17.0443 2.92131 17.2995 3.16926 17.2995 3.47582C17.2995 3.78238 17.0443 4.03033 16.7289 4.03033H3.73453C3.41907 4.03033 3.16392 3.78238 3.16392 3.47582C3.16392 3.16926 3.41907 2.92131 3.73453 2.92131ZM12 13H9.5V10.5C9.5 10.2239 9.27614 10 9 10C8.72386 10 8.5 10.2239 8.5 10.5V13H6C5.72386 13 5.5 13.2239 5.5 13.5C5.5 13.7761 5.72386 14 6 14H8.5V16.5C8.5 16.7761 8.72386 17 9 17C9.27614 17 9.5 16.7761 9.5 16.5V14H12C12.2761 14 12.5 13.7761 12.5 13.5C12.5 13.2239 12.2761 13 12 13Z" fill="#999999"/>
</svg>
