<svg width="20" height="18" viewBox="0 0 20 18" fill="none" xmlns="http://www.w3.org/2000/svg">
<path fill-rule="evenodd" clip-rule="evenodd" d="M0.769231 5.66688C1.19407 5.66688 1.53846 5.32248 1.53846 4.89765C1.53846 4.47281 1.19407 4.12842 0.769231 4.12842C0.344396 4.12842 0 4.47281 0 4.89765C0 5.32248 0.344396 5.66688 0.769231 5.66688Z" fill="#CCCCCC"/>
<path fill-rule="evenodd" clip-rule="evenodd" d="M0.769231 1.56434C1.19407 1.56434 1.53846 1.21994 1.53846 0.79511C1.53846 0.370275 1.19407 0.0258789 0.769231 0.0258789C0.344396 0.0258789 0 0.370275 0 0.79511C0 1.21994 0.344396 1.56434 0.769231 1.56434Z" fill="#CCCCCC"/>
<path fill-rule="evenodd" clip-rule="evenodd" d="M0.769231 17.9745C1.19407 17.9745 1.53846 17.6301 1.53846 17.2053C1.53846 16.7804 1.19407 16.436 0.769231 16.436C0.344396 16.436 0 16.7804 0 17.2053C0 17.6301 0.344396 17.9745 0.769231 17.9745Z" fill="#CCCCCC"/>
<path fill-rule="evenodd" clip-rule="evenodd" d="M0.769231 13.872C1.19407 13.872 1.53846 13.5276 1.53846 13.1027C1.53846 12.6779 1.19407 12.3335 0.769231 12.3335C0.344396 12.3335 0 12.6779 0 13.1027C0 13.5276 0.344396 13.872 0.769231 13.872Z" fill="#CCCCCC"/>
<path fill-rule="evenodd" clip-rule="evenodd" d="M0.769231 9.76942C1.19407 9.76942 1.53846 9.42502 1.53846 9.00019C1.53846 8.57535 1.19407 8.23096 0.769231 8.23096C0.344396 8.23096 0 8.57535 0 9.00019C0 9.42502 0.344396 9.76942 0.769231 9.76942Z" fill="#CCCCCC"/>
<rect x="3.84619" y="4.12842" width="15.4872" height="1.53846" fill="#CCCCCC"/>
<rect x="3.84619" y="0.0258789" width="15.4872" height="1.53846" fill="#CCCCCC"/>
<rect x="3.84619" y="16.436" width="15.4872" height="1.53846" fill="#CCCCCC"/>
<rect x="3.84619" y="12.3335" width="15.4872" height="1.53846" fill="#CCCCCC"/>
<rect x="3.84619" y="8.23096" width="15.4872" height="1.53846" fill="#CCCCCC"/>
</svg>
