<?xml version="1.0" encoding="utf-8"?>
<!-- Generator: Adobe Illustrator 19.2.1, SVG Export Plug-In . SVG Version: 6.00 Build 0)  -->
<svg version="1.1" id="Слой_1" xmlns="http://www.w3.org/2000/svg" xmlns:xlink="http://www.w3.org/1999/xlink" x="0px" y="0px"
	 viewBox="0 0 24.3 20.3" style="enable-background:new 0 0 24.3 20.3;" xml:space="preserve">
<style type="text/css">
	.st0{fill:#FF5050;}
</style>
<g>
	<path class="st0" d="M3,19l-0.9,0.5l0.5,0.8l0.9-0.4L3,19z M1.3,16.1l-0.6-0.8L0,15.8l0.4,0.8L1.3,16.1z M6,9.5l1,0.1l0.1-1.1
		L6,8.5L6,9.5z M15.3,19l-0.9,0.5l0.5,0.8l0.9-0.4L15.3,19z M13.7,16.1l-0.6-0.8l-0.7,0.5l0.4,0.8L13.7,16.1z M18.4,9.5l1,0.2
		l0.2-1.1l-1.1-0.1L18.4,9.5z M6.7,2C7.6,2,8.3,2.3,9,3.1l1.5-1.4C9.4,0.6,8.2,0,6.7,0V2z M9,3.1c0.7,0.7,1,1.6,1,2.9h2
		c0-1.7-0.5-3.1-1.6-4.3L9,3.1z M10.1,6c0,2.3-0.7,4.6-2.2,7L9.5,14c1.7-2.6,2.5-5.3,2.5-8.1H10.1z M7.8,13
		c-1.5,2.4-3.3,4.1-5.3,5.1l0.9,1.8c2.4-1.3,4.4-3.2,6.1-5.8L7.8,13z M3.8,18.5l-1.7-2.9l-1.7,1l1.7,2.9L3.8,18.5z M1.9,16.9
		c1.5-1,2.7-2.1,3.5-3.2l-1.6-1.2c-0.7,0.9-1.7,1.8-3.1,2.8L1.9,16.9z M5.4,13.7c0.9-1.2,1.4-2.5,1.6-4L5,9.4
		c-0.1,1.2-0.5,2.2-1.2,3.1L5.4,13.7z M6,8.5c-0.7,0-1.3-0.3-1.9-1L2.6,8.8c0.9,1.1,2,1.7,3.3,1.7L6,8.5z M4.2,7.5
		C3.6,6.8,3.3,6.1,3.3,5.3h-2c0,1.3,0.4,2.5,1.3,3.5L4.2,7.5z M3.3,5.3c0-0.8,0.3-1.5,1-2.3L2.9,1.6c-1,1-1.6,2.3-1.6,3.7H3.3z
		 M4.4,3c0.7-0.7,1.5-1,2.3-1V0C5.3,0,4,0.6,2.9,1.6L4.4,3z M19,2c0.9,0,1.6,0.3,2.3,1.1l1.5-1.4C21.8,0.6,20.5,0,19,0V2z M21.3,3.1
		c0.6,0.7,1,1.6,1,2.9h2c0-1.7-0.5-3.1-1.5-4.3L21.3,3.1z M22.3,6c0,2.3-0.7,4.6-2.2,7l1.7,1.1c1.6-2.6,2.5-5.3,2.5-8.1H22.3z
		 M20.1,13c-1.5,2.4-3.2,4.1-5.3,5.1l0.9,1.8c2.4-1.3,4.4-3.2,6-5.8L20.1,13z M16.2,18.5l-1.7-2.9l-1.7,1l1.7,2.9L16.2,18.5z
		 M14.2,16.9c1.5-1,2.7-2.1,3.5-3.2l-1.6-1.2c-0.7,0.9-1.7,1.8-3.1,2.8L14.2,16.9z M17.7,13.7c0.9-1.1,1.4-2.5,1.7-4l-2-0.3
		c-0.2,1.2-0.6,2.2-1.3,3.1L17.7,13.7z M18.5,8.5c-0.7,0-1.3-0.3-1.9-1l-1.5,1.3c0.9,1.1,2,1.7,3.3,1.7L18.5,8.5z M16.6,7.5
		c-0.6-0.7-0.8-1.4-0.8-2.2h-2c0,1.3,0.4,2.5,1.3,3.5L16.6,7.5z M15.8,5.3c0-0.8,0.3-1.6,1-2.3l-1.4-1.4c-1,1-1.5,2.3-1.5,3.7H15.8z
		 M16.8,3c0.7-0.7,1.4-1,2.3-1V0c-1.4,0-2.7,0.6-3.7,1.6L16.8,3z"/>
</g>
</svg>
