<svg xmlns="http://www.w3.org/2000/svg" width="22" height="25" viewBox="0 0 22 25"><g><g><path fill="#ff5050" d="M8.908 20.903a.503.503 0 0 0-.508.498c0 .275.227.498.508.498h.102c.28 0 .507-.223.507-.498a.503.503 0 0 0-.507-.498zm-7.853 1.5V21.9h6.218c.28 0 .508-.223.508-.498a.503.503 0 0 0-.508-.498H1.055v-1.327c0-.814.676-1.477 1.505-1.477h16.865c.83 0 1.506.663 1.506 1.477v2.828zm1.275 1.601V23.4h17.336v.604zm6.2-21.923A3.328 3.328 0 0 1 10.992.996c.94 0 1.838.396 2.464 1.086.625.69.92 1.611.811 2.528l-1.487 12.483H9.204L7.717 4.61a3.203 3.203 0 0 1 .812-2.529zm5.281 15.022l1.476-12.375a4.187 4.187 0 0 0-1.063-3.308A4.36 4.36 0 0 0 10.998 0a4.359 4.359 0 0 0-3.226 1.42 4.187 4.187 0 0 0-1.063 3.308l1.475 12.375H2.561c-1.39 0-2.521 1.11-2.521 2.473v3.326c0 .275.227.498.508.498h.766v1.102c0 .275.228.498.508.498h18.352c.28 0 .507-.223.507-.498V23.4h.767c.28 0 .508-.223.508-.498v-3.326c0-1.364-1.131-2.473-2.522-2.473z"/></g></g></svg>