<svg xmlns="http://www.w3.org/2000/svg" width="20" height="16" viewBox="0 0 20 16"><g><g><path fill="#72bb53" d="M13.381 1.158c-.767.772-1.15 1.649-1.15 2.631 0 .936.323 1.79.97 2.562.648.772 1.427 1.181 2.339 1.228-.192 1.216-.636 2.269-1.331 3.158-.696.889-1.691 1.778-2.986 2.667L12.733 16c2.015-1.03 3.73-2.655 5.145-4.877C19.293 8.9 20 6.667 20 4.42c0-1.31-.384-2.374-1.151-3.193S17.17 0 16.115 0s-1.966.386-2.734 1.158zm-11.259 0C1.331 1.93.935 2.807.935 3.789c0 .936.324 1.79.971 2.562.648.772 1.427 1.181 2.339 1.228-.144 1.216-.564 2.269-1.26 3.158-.695.889-1.69 1.778-2.985 2.667L1.51 16c2.015-1.03 3.742-2.655 5.18-4.877C8.13 8.9 8.85 6.667 8.85 4.42c0-1.31-.396-2.374-1.187-3.193C6.87.41 5.947 0 4.892 0s-1.978.386-2.77 1.158z"/></g></g></svg>