<svg width="16" height="18" viewBox="0 0 16 18" fill="none" xmlns="http://www.w3.org/2000/svg">
<path fill-rule="evenodd" clip-rule="evenodd" d="M3.2841 3.56735C1.3919 5.33061 0.593679 8.01592 1.19234 10.5727C1.25648 10.8371 1.09613 11.1053 0.839558 11.1714C0.80036 11.1825 0.764725 11.1861 0.725527 11.1861C0.508155 11.1861 0.312164 11.0355 0.258712 10.8078C-0.425475 7.89837 0.486774 4.84204 2.63911 2.83265C4.20348 1.37061 6.23109 0.624899 8.34067 0.735103C10.044 0.823266 11.6369 1.4551 12.9304 2.54612L12.8556 0.514695C12.8449 0.239184 13.0516 0.0114293 13.3188 0.000408926C13.5825 -0.0106115 13.807 0.20245 13.8177 0.47796L13.9353 3.71796V3.77674C13.9353 4.0449 13.7322 4.26163 13.4721 4.27265L10.2935 4.39388H10.2756C10.0191 4.39388 9.80526 4.18449 9.79457 3.91633C9.78388 3.64082 9.99056 3.41306 10.2578 3.40204L12.3282 3.32123C9.71617 1.12816 5.86049 1.1649 3.2841 3.56735ZM15.767 7.18204C16.4511 10.0951 15.5389 13.1478 13.3866 15.1571C11.9184 16.5237 10.0511 17.2657 8.08767 17.2657C7.95582 17.2657 7.82041 17.262 7.68499 17.2547C5.99234 17.1665 4.4066 16.5384 3.11305 15.4584L3.2841 17.4457C3.30905 17.7212 3.11305 17.96 2.84936 17.9857C2.8351 17.9894 2.82085 17.9894 2.8066 17.9894C2.56072 17.9894 2.35047 17.7947 2.32909 17.5376L2.04401 14.2718C2.01907 13.9963 2.21506 13.7576 2.47876 13.7318L5.64669 13.438C5.91395 13.4122 6.14557 13.6106 6.17052 13.8861C6.19546 14.1616 5.99947 14.4004 5.73577 14.4261L3.64045 14.6208C4.91617 15.7155 6.49836 16.2702 8.0841 16.2702C9.74468 16.2702 11.4124 15.6604 12.7416 14.4224C14.6338 12.6592 15.4355 9.97388 14.8333 7.41714C14.7692 7.15265 14.9295 6.88449 15.1861 6.81837C15.4427 6.75225 15.7028 6.91755 15.767 7.18204Z" fill="#808080"/>
</svg>
