<svg width="20" height="20" viewBox="0 0 20 20" fill="none" xmlns="http://www.w3.org/2000/svg">
<path fill-rule="evenodd" clip-rule="evenodd" d="M19.9875 9.11482C19.9958 8.50939 19.5616 7.99582 18.9645 7.89562L17.5616 7.65762C17.4154 7.1858 17.2276 6.73069 16.9979 6.29645L17.8246 5.13987C18.1754 4.64718 18.1211 3.97495 17.691 3.54906L16.4468 2.3048C16.2129 2.07098 15.904 1.94154 15.5741 1.94154C15.3152 1.94154 15.0689 2.02088 14.8601 2.17119L13.6994 2.99791C13.2484 2.75992 12.7766 2.56367 12.2881 2.41754L12.0543 1.03132C11.9541 0.434238 11.4405 0 10.8351 0H9.07724C8.47182 0 7.95825 0.434238 7.85804 1.03132L7.61587 2.45094C7.14823 2.59708 6.69311 2.78914 6.25887 3.02296L5.11065 2.19624C4.90188 2.04593 4.65136 1.9666 4.39248 1.9666C4.06263 1.9666 3.74948 2.09603 3.51983 2.32985L2.2714 3.57411C1.84551 4 1.78706 4.67223 2.13779 5.16493L2.97286 6.3382C2.74322 6.77662 2.5595 7.23173 2.41754 7.70355L1.03132 7.93737C0.434238 8.03758 0 8.55115 0 9.15658V10.9144C0 11.5198 0.434238 12.0334 1.03132 12.1336L2.45094 12.3758C2.59708 12.8434 2.78914 13.2985 3.02296 13.7328L2.20042 14.8768C1.84969 15.3695 1.90397 16.0418 2.33403 16.4676L3.57829 17.7119C3.81211 17.9457 4.12109 18.0752 4.45094 18.0752C4.70981 18.0752 4.95616 17.9958 5.16493 17.8455L6.3382 17.0104C6.75992 17.2317 7.20251 17.4113 7.65762 17.5532L7.89144 18.9562C7.99165 19.5532 8.50522 19.9875 9.11065 19.9875H10.8727C11.4781 19.9875 11.9916 19.5532 12.0919 18.9562L12.3299 17.5532C12.8017 17.4071 13.2568 17.2192 13.691 16.9896L14.8476 17.8163C15.0564 17.9666 15.3069 18.0459 15.5658 18.0459C15.8956 18.0459 16.2046 17.9165 16.4384 17.6827L17.6827 16.4384C18.1086 16.0125 18.167 15.3403 17.8163 14.8476L16.9896 13.6868C17.2192 13.2484 17.4113 12.7933 17.5532 12.3257L18.9562 12.0919C19.5532 11.9916 19.9875 11.4781 19.9875 10.8727V9.11482ZM18.8727 10.8727H18.8685C18.8685 10.9269 18.8309 10.9729 18.7766 10.9812L17.023 11.2735C16.8017 11.3111 16.6263 11.4739 16.572 11.6868C16.4134 12.3006 16.1712 12.8894 15.8455 13.4363C15.7328 13.6284 15.7411 13.8664 15.8706 14.0501L16.9019 15.5031C16.9311 15.5449 16.9269 15.6075 16.8894 15.6451L15.6451 16.8894C15.6159 16.9186 15.5866 16.9228 15.5658 16.9228C15.5407 16.9228 15.5198 16.9144 15.5031 16.9019L14.0543 15.8706C13.8747 15.7411 13.6326 15.7328 13.4405 15.8455C12.8935 16.1712 12.3048 16.4134 11.691 16.572C11.4739 16.6263 11.3111 16.8058 11.2777 17.023L10.9812 18.7766C10.9729 18.8309 10.9269 18.8685 10.8727 18.8685H9.11482C9.06054 18.8685 9.01461 18.8309 9.00626 18.7766L8.71399 17.023C8.67641 16.8017 8.51357 16.6263 8.30063 16.572C7.70355 16.4175 7.12735 16.1795 6.58873 15.8706C6.50104 15.8205 6.40084 15.7954 6.3048 15.7954C6.19207 15.7954 6.07516 15.8288 5.97912 15.8998L4.51775 16.9395C4.49687 16.952 4.47599 16.9603 4.45511 16.9603C4.43841 16.9603 4.40501 16.9562 4.37578 16.9269L3.13152 15.6827C3.09395 15.6451 3.08977 15.5866 3.119 15.5407L4.14614 14.1002C4.27557 13.9165 4.28393 13.6743 4.17119 13.4823C3.84551 12.9395 3.59499 12.3507 3.43633 11.737C3.37787 11.524 3.20251 11.3612 2.98539 11.3236L1.21921 11.023C1.16493 11.0146 1.12735 10.9687 1.12735 10.9144V9.15658C1.12735 9.1023 1.16493 9.05637 1.21921 9.04802L2.96033 8.75574C3.18163 8.71816 3.36117 8.55532 3.41545 8.3382C3.56994 7.72443 3.80793 7.13152 4.12944 6.58455C4.24217 6.39248 4.22965 6.15449 4.10021 5.97495L3.06054 4.51357C3.03132 4.47182 3.03549 4.40919 3.07307 4.37161L4.31733 3.12735C4.34656 3.09812 4.37578 3.09395 4.39666 3.09395C4.42171 3.09395 4.44259 3.1023 4.45929 3.11482L5.89979 4.14196C6.08351 4.2714 6.32568 4.27975 6.51775 4.16701C7.06054 3.84134 7.64927 3.59081 8.26305 3.43215C8.47599 3.3737 8.63883 3.19833 8.67641 2.98121L8.97704 1.21503C8.98539 1.16075 9.03131 1.12317 9.0856 1.12317H10.8434C10.8977 1.12317 10.9436 1.16075 10.952 1.21503L11.2443 2.95616C11.2818 3.17745 11.4447 3.35699 11.6618 3.41127C12.2923 3.56994 12.8935 3.81628 13.453 4.14614C13.6451 4.25887 13.8831 4.25052 14.0668 4.12109L15.5073 3.08559C15.5282 3.07307 15.5491 3.06472 15.5699 3.06472C15.5866 3.06472 15.62 3.06889 15.6493 3.09812L16.8935 4.34238C16.9311 4.37996 16.9353 4.43841 16.9061 4.48434L15.8747 5.93319C15.7453 6.11273 15.737 6.35491 15.8497 6.54697C16.1754 7.09395 16.4175 7.68267 16.5762 8.29645C16.6305 8.51357 16.81 8.67641 17.0271 8.70981L18.7808 9.00626C18.8351 9.01461 18.8727 9.06054 18.8727 9.11482V10.8727ZM9.99582 5.6785C12.3758 5.6785 14.309 7.61169 14.309 9.99165C14.309 12.3716 12.3758 14.3048 9.99582 14.3048C7.61587 14.3048 5.68267 12.3716 5.68267 9.99165C5.68267 7.61169 7.61587 5.6785 9.99582 5.6785ZM13.1816 9.99165C13.1816 11.7495 11.7537 13.1775 9.99582 13.1775C8.238 13.1775 6.81002 11.7495 6.81002 9.99165C6.81002 8.23382 8.238 6.80585 9.99582 6.80585C11.7537 6.80585 13.1816 8.23382 13.1816 9.99165Z" fill="#999999"/>
</svg>
