<svg xmlns="http://www.w3.org/2000/svg" width="16" height="20" viewBox="0 0 16 20"><g><g><path fill="#b3b3b3" d="M4.054 8.1a3.956 3.956 0 0 1 3.943-3.953 3.953 3.953 0 1 1 0 7.906A3.953 3.953 0 0 1 4.054 8.1zm-1.128.005c0 2.805 2.277 5.09 5.071 5.09 2.795 0 5.072-2.285 5.072-5.09 0-2.805-2.277-5.09-5.072-5.09-2.794 0-5.071 2.285-5.071 5.09zm11.801 1.24c-.004.021-.016.084-.037.18v.009c-.105.47-.26.926-.464 1.366-.004.004-.004.013-.008.017-.781 1.856-2.494 4.689-6.22 7.777-3.727-3.088-5.44-5.92-6.22-7.777-.005-.004-.005-.013-.01-.017a7.112 7.112 0 0 1-.463-1.366v-.008c-.025-.097-.033-.16-.038-.18 0-.009-.004-.017-.004-.03a6.864 6.864 0 0 1-.125-1.307c0-3.793 3.079-6.881 6.86-6.881 3.78 0 6.859 3.088 6.859 6.88 0 .445-.042.885-.125 1.312 0 .009-.004.017-.004.025zM.01 8.017A7.918 7.918 0 0 0 .206 9.79c.121.541.301 1.074.535 1.581.86 2.034 2.753 5.157 6.906 8.503a.566.566 0 0 0 .71 0c4.148-3.346 6.045-6.47 6.905-8.503a7.827 7.827 0 0 0 .59-1.849 8.273 8.273 0 0 0 .141-1.505C15.985 3.597 12.401 0 7.997 0 3.594 0 .01 3.597.01 8.017z"/></g></g></svg>