<svg xmlns="http://www.w3.org/2000/svg" width="22" height="21" viewBox="0 0 22 21"><g><g><path fill="#ff5050" d="M12.22 9.102c.016.346.288.64.655.64.342 0 .67-.295.653-.64a.658.658 0 0 0-.653-.64c-.343 0-.67.294-.654.64zm0-3.313c.016.347.288.64.655.64.342 0 .67-.294.653-.64a.658.658 0 0 0-.653-.64c-.343 0-.67.295-.654.64zM8.473 9.102c.015.346.287.64.653.64.343 0 .67-.295.654-.64a.658.658 0 0 0-.654-.64c-.342 0-.67.294-.653.64zm0-3.313c.015.347.287.64.653.64.343 0 .67-.294.654-.64a.658.658 0 0 0-.654-.64c-.342 0-.67.295-.653.64zm7.866 11.907H5.662c-2.4 0-4.354-1.925-4.354-4.292v-3.86c0-.842.694-1.526 1.547-1.526s1.547.684 1.547 1.526v3.86c0 .684.565 1.241 1.26 1.241h10.676c.694 0 1.26-.557 1.26-1.241v-3.86c0-.842.694-1.526 1.547-1.526s1.547.684 1.547 1.526v3.86c0 2.367-1.953 4.292-4.354 4.292zM6.061 1.3h9.878c1.407 0 2.552 1.128 2.552 2.514V6.8c-1.26.292-2.201 1.408-2.201 2.737v3.81H5.71v-3.81c0-1.33-.94-2.445-2.2-2.737V3.813c0-1.386 1.144-2.514 2.55-2.514zm13.738 2.514c0-2.097-1.732-3.803-3.86-3.803H6.061C3.933.01 2.2 1.716 2.2 3.813V6.8C.941 7.093 0 8.21 0 9.539v3.859c0 2.858 2.193 5.22 5.008 5.541v1.4a.65.65 0 0 0 .654.644.65.65 0 0 0 .654-.645v-1.362h9.368v1.362a.65.65 0 0 0 .654.645.65.65 0 0 0 .654-.645V18.94c2.815-.32 5.008-2.683 5.008-5.541V9.539c0-1.33-.941-2.446-2.201-2.738z"/></g></g></svg>