<svg xmlns="http://www.w3.org/2000/svg" width="22" height="18" viewBox="0 0 22 18"><g><g><path fill="#ccc" d="M6.38 10.497c0-2.57 2.074-4.656 4.62-4.656 2.546 0 4.62 2.09 4.62 4.656s-2.074 4.656-4.62 4.656c-2.546 0-4.62-2.086-4.62-4.656zm1.1 0c0 1.956 1.58 3.549 3.52 3.549s3.52-1.593 3.52-3.549c0-1.955-1.58-3.549-3.52-3.549s-3.52 1.594-3.52 3.55zM2.986 6.415c0-.412.33-.746.736-.746.407 0 .736.334.736.746 0 .413-.33.747-.736.747a.741.741 0 0 1-.736-.747zm-.431-3.474h3.57l.084-.376A3.276 3.276 0 0 1 9.406.01h3.183a3.269 3.269 0 0 1 3.197 2.555l.085.376h3.574A2.566 2.566 0 0 1 22 5.514v9.778a2.696 2.696 0 0 1-2.685 2.704H2.685A2.696 2.696 0 0 1 0 15.292V5.514c0-1.416 1.145-2.573 2.555-2.573zm0 1.107A1.46 1.46 0 0 0 1.1 5.514v9.778c0 .882.71 1.597 1.585 1.597H19.31a1.59 1.59 0 0 0 1.585-1.597V5.514a1.46 1.46 0 0 0-1.455-1.466h-4.01a.553.553 0 0 1-.534-.43l-.184-.804a2.175 2.175 0 0 0-2.124-1.697H9.406c-1.02 0-1.89.697-2.124 1.697l-.184.805a.548.548 0 0 1-.534.43z"/></g></g></svg>