<svg xmlns="http://www.w3.org/2000/svg" width="22" height="22" viewBox="0 0 22 22" fill="none">
<path fill-rule="evenodd" clip-rule="evenodd" fill="#000" d="M4.50014 18.5844C2.36502 16.7447 1 14.0213 1 11.0013C1 5.49137 5.4894 1 10.9987 1C16.5083 1 21 5.49168 21 11.0013C21 14.009 19.6773 16.6912 17.5974 18.5621L17.5736 18.5835L17.5548 18.5883L17.3851 18.7257C15.6441 20.1346 13.4208 21 11.0273 21C8.57509 21 6.35868 20.1339 4.62607 18.6799L4.52838 18.5979L4.50014 18.5844ZM4.58245 18.6594C4.58391 18.6608 4.58473 18.6616 4.58481 18.6617C4.58489 18.6618 4.58415 18.6611 4.58245 18.6594ZM10.9987 0C17.0606 0 22 4.9394 22 11.0013C22 14.3116 20.5424 17.2581 18.2662 19.3055C18.2116 19.3913 18.1259 19.4744 18.0142 19.503C16.107 21.0464 13.6646 22 11.0273 22C8.33282 22 5.89039 21.0464 3.98322 19.4458C3.92865 19.4199 3.90008 19.3913 3.8715 19.3627C1.51484 17.3438 0 14.3402 0 11.0013C0 4.9394 4.93681 0 10.9987 0ZM11.0013 2.01074C6.05293 2.01074 2.01074 6.05293 2.01074 11.0013C2.01074 12.8019 2.55426 14.4892 3.48602 15.889C3.98498 14.7943 4.82218 13.5881 6.21229 12.5922C5.86244 11.8817 5.6491 11.0792 5.6491 10.2166C5.6491 7.25049 8.06115 4.83845 11.0273 4.83845C13.9934 4.83845 16.4055 7.25049 16.4055 10.2166C16.4055 11.0599 16.2138 11.879 15.8545 12.6059C17.2223 13.5984 18.0494 14.7963 18.5501 15.8801C19.4639 14.4751 19.9918 12.8021 19.9918 11.0013C19.9918 6.05293 15.9497 2.01074 11.0013 2.01074ZM18.9789 17.0082C20.2445 15.3361 20.9918 13.258 20.9918 11.0013C20.9918 5.50065 16.5019 1.01074 11.0013 1.01074C5.50065 1.01074 1.01074 5.50065 1.01074 11.0013C1.01074 13.2581 1.77814 15.3564 3.06714 17.0181C3.31711 17.3404 3.58669 17.6462 3.87408 17.9336C3.93661 17.6062 4.03541 17.2219 4.18842 16.8069C4.5802 15.7441 5.32734 14.4795 6.73067 13.4518C6.98896 13.2626 7.26948 13.0815 7.57411 12.9111C7.37657 12.6441 7.2035 12.3564 7.06214 12.0517C6.80187 11.4906 6.6491 10.8716 6.6491 10.2166C6.6491 7.80277 8.61343 5.83845 11.0273 5.83845C13.4411 5.83845 15.4055 7.80277 15.4055 10.2166C15.4055 10.87 15.2654 11.4994 15.0071 12.0601C14.8657 12.3668 14.689 12.6529 14.4805 12.9111C14.7851 13.083 15.0655 13.2659 15.3236 13.4569C16.7124 14.4846 17.4561 15.748 17.8563 16.8096C18.0124 17.2237 18.1162 17.607 18.1857 17.9336C18.4685 17.6415 18.7335 17.3325 18.9789 17.0082ZM11.0013 7.87514C9.70098 7.87514 8.63386 8.94227 8.63386 10.2426C8.63386 11.5429 9.70098 12.61 11.0013 12.61C12.3016 12.61 13.3687 11.5429 13.3687 10.2426C13.3687 8.94227 12.3016 7.87514 11.0013 7.87514ZM11.0013 6.87514C9.14869 6.87514 7.63386 8.38998 7.63386 10.2426C7.63386 12.0952 9.14869 13.61 11.0013 13.61C12.8539 13.61 14.3687 12.0952 14.3687 10.2426C14.3687 8.38998 12.8539 6.87514 11.0013 6.87514ZM11.0325 20.9893C13.3892 20.9893 15.5769 20.1474 17.2892 18.7729C17.2035 17.9025 16.728 15.208 13.7243 13.6646C12.9656 14.2544 12.012 14.6182 11.0013 14.6182C9.99055 14.6182 9.06555 14.283 8.30683 13.6932C5.27457 15.2366 4.82767 17.9882 4.77051 18.8015C6.48281 20.1786 8.64463 20.9918 11.0325 20.9893ZM5.8383 18.3552C5.79606 18.5726 5.77658 18.7503 5.76805 18.8716L4.77051 18.8015L5.39722 18.0222C5.54079 18.1377 5.68787 18.2488 5.8383 18.3552ZM8.25899 14.8687C8.06291 14.7522 7.874 14.6233 7.69307 14.4827L8.30683 13.6932L8.76045 14.5844C8.58304 14.6747 8.41609 14.7697 8.25899 14.8687ZM13.7711 14.8419C13.6133 14.7418 13.4455 14.6456 13.2673 14.554L13.7243 13.6646L14.3381 14.4541C14.1582 14.5939 13.9688 14.7237 13.7711 14.8419ZM16.2114 18.3334C16.3657 18.2245 16.5164 18.111 16.6632 17.9931L17.2892 18.7729L16.294 18.8709C16.2809 18.7377 16.2571 18.5535 16.2114 18.3334Z"/>
</svg>