<svg xmlns="http://www.w3.org/2000/svg" width="20" height="19" viewBox="0 0 20 19"><g><g><path fill="gray" d="M1.815 13.17c.499.562.907 1.21.907 1.512 0 .475-.408.863-.907.863-.5 0-.908-.388-.908-.863 0-.26.409-.907.908-1.512zm.453 4.966v-1.77c.772-.216 1.361-.864 1.361-1.684S2.404 12.48 2.132 12.22a.512.512 0 0 0-.68 0C1.225 12.48 0 13.861 0 14.682c0 .82.59 1.468 1.361 1.684v1.77H.454c-.273 0-.454.173-.454.432 0 .26.181.432.454.432h2.268c.272 0 .454-.173.454-.432s-.182-.432-.454-.432zM9.073 3.455c-.272 0-.453.172-.453.431 0 .26.181.432.453.432h1.815c.272 0 .453-.173.453-.432s-.181-.431-.453-.431zM6.351 13.818c-.272 0-.453.173-.453.432 0 .26.18.432.453.432h7.25c.271 0 .452-.173.452-.432 0-.26-.18-.432-.453-.432zm0-1.727c-.272 0-.453.173-.453.432s.18.432.453.432h7.25c.271 0 .452-.173.452-.432 0-.26-.18-.432-.453-.432zm0-1.727c-.272 0-.453.172-.453.431 0 .26.18.432.453.432h7.25c.271 0 .452-.172.452-.432 0-.259-.18-.431-.453-.431zm0-1.728c-.272 0-.453.173-.453.432 0 .26.18.432.453.432h7.25c.271 0 .452-.173.452-.432s-.18-.432-.453-.432zm0-1.727c-.272 0-.453.173-.453.432s.18.432.453.432h7.25c.271 0 .452-.173.452-.432 0-.26-.18-.432-.453-.432zm0-1.727c-.272 0-.453.173-.453.432s.18.431.453.431h7.25c.271 0 .452-.172.452-.431 0-.26-.18-.432-.453-.432zm11.795 7.988c.5.562.908 1.21.908 1.512 0 .475-.409.863-.908.863-.499 0-.907-.388-.907-.863 0-.26.408-.907.907-1.512zm-7.712 4.966V16.41h1.371v1.727zm-2.268 0V16.41h1.36v1.727zm10.434 0v-1.77a1.74 1.74 0 0 0 1.361-1.684c0-.82-1.225-2.202-1.497-2.462a.512.512 0 0 0-.68 0c-.227.26-1.452 1.641-1.452 2.462 0 .82.59 1.468 1.36 1.684v1.77h-4.99v-2.159c0-.259-.181-.432-.453-.432H7.712c-.272 0-.453.173-.453.432v2.16H4.99V4.317h2.722c.272 0 .454-.173.454-.432V2.591h3.63v1.295c0 .26.18.432.453.432h2.722v12.523c0 .259.181.432.453.432.273 0 .454-.173.454-.432V3.886c0-.259-.181-.431-.454-.431h-2.722V2.159c0-.259-.181-.432-.453-.432h-1.815V.432c0-.26-.181-.432-.453-.432-.273 0-.454.173-.454.432v1.295H7.712c-.272 0-.453.173-.453.432v1.296H4.537c-.273 0-.454.172-.454.431v14.682c0 .26.181.432.454.432h14.97c.273 0 .454-.173.454-.432s-.181-.432-.454-.432z"/></g></g></svg>