<svg xmlns="http://www.w3.org/2000/svg" width="18" height="22" viewBox="0 0 18 22"><g><g><path fill="gray" d="M9.534 17.581v-2.53c0-.44-.36-.8-.798-.8a.801.801 0 0 0-.798.8v2.53c0 .44.359.8.798.8.439 0 .798-.36.798-.8zm5.123 2.797H3.36c-.95 0-1.714-.759-1.714-1.705v-7.245c0-.946.763-1.705 1.714-1.705h11.297c.95 0 1.714.76 1.714 1.705v7.245c0 .946-.763 1.705-1.714 1.705zm-4.98-18.78c2.397 0 4.284 1.968 4.284 4.349v2.168H3.921V5.947c0-2.38 2.022-4.349 4.418-4.349zm4.98 20.379c1.834 0 3.32-1.439 3.32-3.264v-7.299c0-1.478-.937-2.743-2.41-3.156V5.954C15.568 2.69 12.958 0 9.678 0H8.34C5.06 0 2.316 2.677 2.316 5.954v2.304C.977 8.67.04 9.936.04 11.414v7.3c0 1.824 1.486 3.263 3.32 3.263z"/></g></g></svg>