<svg xmlns="http://www.w3.org/2000/svg" width="22" height="22" viewBox="0 0 22 22"><g><g><path fill="#72bb53" d="M11.634 15.172a.608.608 0 0 0-.081-.17.666.666 0 0 0-.178-.18.708.708 0 0 0-.17-.08.53.53 0 0 0-.124-.025.615.615 0 0 0-.31.046.649.649 0 0 0-.288.954.758.758 0 0 0 .08.098.632.632 0 0 0 .329.176.717.717 0 0 0 .19.01.729.729 0 0 0 .182-.046.891.891 0 0 0 .111-.06.582.582 0 0 0 .14-.127.658.658 0 0 0 .144-.472.61.61 0 0 0-.025-.124zm-1.26-8.524v6.69a.644.644 0 1 0 1.288 0v-6.69a.644.644 0 1 0-1.288 0zm1.434 13.726a1.136 1.136 0 0 1-.81.336c-.305 0-.593-.12-.81-.336l-8.545-8.563A1.14 1.14 0 0 1 1.307 11c0-.306.12-.595.336-.811l8.546-8.563c.216-.217.504-.336.81-.336.305 0 .593.12.81.336l8.545 8.563c.217.216.336.505.336.811 0 .306-.12.595-.336.811zm.91-19.66A2.414 2.414 0 0 0 10.998 0c-.65 0-1.26.253-1.72.714L.733 9.277A2.424 2.424 0 0 0 .02 11c0 .651.253 1.263.712 1.723l8.547 8.563c.459.46 1.07.714 1.72.714.65 0 1.26-.253 1.72-.714l8.545-8.563c.46-.46.713-1.072.713-1.723s-.253-1.263-.712-1.723z"/></g></g></svg>