<svg xmlns="http://www.w3.org/2000/svg" width="24" height="22" viewBox="0 0 24 22"><g><g><path fill="#fff" d="M10.102 13.195c0 1.018.823 1.838 1.845 1.838a1.837 1.837 0 1 0 0-3.675c-1.022 0-1.845.819-1.845 1.837zm9.006-7.915a4.294 4.294 0 0 1 4.296 4.29v8.14A4.294 4.294 0 0 1 19.108 22H4.786A4.294 4.294 0 0 1 .49 17.71V9.57a4.294 4.294 0 0 1 4.296-4.29zM13.703 0a3.534 3.534 0 0 1 3.522 3.52v.88h-1.761v-.88c0-.983-.777-1.76-1.76-1.76H10.18c-.984 0-1.76.777-1.76 1.76v.88H6.658v-.88A3.534 3.534 0 0 1 10.181 0z"/></g></g></svg>