<svg xmlns="http://www.w3.org/2000/svg" width="20" height="20" viewBox="0 0 20 20"><g><g><path fill="#999" d="M18.78 16.552c-2.367 2.343-4.853 2.812-6.747 1.523-2.486-1.758-4.025-3.164-5.445-4.57a39.929 39.929 0 0 1-4.617-5.39C.67 6.24 1.143 3.779 3.511 1.435c.236-.117.473-.234.71-.234.236 0 .473.117.828.352l1.657 1.64c.119.234.237.469.237.703 0 .235 0 .469-.237.703l-.71.703c-.592.586-.592 1.524 0 2.344.829 1.055 2.367 2.578 3.196 3.398.829.82 2.249 2.344 3.433 3.164.828.586 1.775.586 2.367 0l.71-.703c.355-.352 1.066-.352 1.42 0l1.658 1.64c.118.235.237.47.237.703 0 .235 0 .47-.237.704zm-1.065-4.102c-.829-.82-2.25-.82-3.078 0l-.71.703a.576.576 0 0 1-.829 0c-1.065-.82-2.486-2.226-3.314-3.046-.829-.703-2.25-2.227-3.078-3.281-.118-.235-.237-.586 0-.82l.71-.704c.355-.351.592-.937.592-1.523 0-.586-.237-1.172-.592-1.523L5.76.616c-.829-.821-2.25-.821-3.078 0C-.04 3.427-.752 6.473 1.024 8.817c1.776 2.46 3.314 4.101 4.735 5.507 1.42 1.406 3.078 2.93 5.564 4.687a5.216 5.216 0 0 0 2.96.938c1.775 0 3.55-.938 5.09-2.812.354-.352.591-.938.591-1.524 0-.586-.237-1.172-.592-1.523z"/></g></g></svg>