<svg xmlns="http://www.w3.org/2000/svg" width="22" height="22" viewBox="0 0 22 22"><g><g><path fill="gray" d="M13.432 9.993v.57c0 .362.3.656.672.656a.665.665 0 0 0 .673-.657v-.569a.665.665 0 0 0-.673-.657.665.665 0 0 0-.672.657zm0-3.149v.572c0 .365.3.66.672.66a.667.667 0 0 0 .673-.66v-.572a.667.667 0 0 0-.673-.66.667.667 0 0 0-.672.66zm-6.328 11.55c-2.937 0-5.366-2.16-5.7-4.936H20.61c-.334 2.775-2.763 4.935-5.7 4.935zm14.207-6.25h-1.346V3.19c0-1.759-1.466-3.19-3.267-3.19-1.8 0-3.266 1.431-3.266 3.19v1.197c0 .363.3.657.672.657a.665.665 0 0 0 .673-.657V3.19c0-1.035.862-1.876 1.921-1.876 1.06 0 1.922.841 1.922 1.876v8.955H.693a.665.665 0 0 0-.673.656c0 2.965 1.92 5.499 4.609 6.48a2.947 2.947 0 0 0-.837 2.062c0 .363.3.657.672.657a.665.665 0 0 0 .673-.657c0-.897.7-1.626 1.562-1.626h8.606c.861 0 1.562.73 1.562 1.626 0 .363.301.657.672.657a.665.665 0 0 0 .673-.657c0-.802-.32-1.53-.837-2.062 2.689-.981 4.608-3.515 4.608-6.48a.665.665 0 0 0-.672-.656z"/></g></g></svg>