<svg xmlns="http://www.w3.org/2000/svg" width="16" height="13" viewBox="0 0 16 13"><g><g><path fill="#b3b3b3" d="M3.52 9.916v.704a14.35 14.35 0 0 1-3.348-.609l-.166-.05L0 9.925V7.593c0-1.586 1.333-2.876 2.972-2.876h1.97c.074 0 .145.005.218.01.024.753.357 1.43.882 1.918-1.457.42-2.522 1.727-2.523 3.271zM1.635 2.317c0-1.24 1.04-2.246 2.322-2.246 1.281 0 2.32 1.005 2.32 2.246 0 .043-.004.084-.006.126a2.765 2.765 0 0 0-1.08 1.774c-.358.218-.78.347-1.234.347-1.283 0-2.322-1.006-2.322-2.247zm14.192 5.271v2.328h-.016l-.155.076c-.074.036-1.186.564-3.116.633v-.718c0-1.541-1.066-2.847-2.522-3.265.528-.49.861-1.17.883-1.925h1.954c1.639 0 2.972 1.288 2.972 2.871zm-3.83 2.32v2.328h-.017l-.156.075c-.078.039-1.346.64-3.533.64-1.12 0-2.48-.157-4.046-.629l-.166-.05-.007-.037V9.908c0-1.584 1.335-2.872 2.976-2.872h1.973c1.64 0 2.976 1.288 2.975 2.872zM5.708 4.636c0-1.24 1.04-2.246 2.322-2.246s2.321 1.005 2.321 2.246c0 1.24-1.039 2.247-2.321 2.247-1.282 0-2.322-1.006-2.322-2.247zM11.871.07c1.282 0 2.321 1.006 2.321 2.247 0 1.24-1.039 2.246-2.321 2.246-.351 0-.682-.077-.98-.212a2.776 2.776 0 0 0-1.34-2.068c.02-1.225 1.05-2.213 2.32-2.213z"/></g></g></svg>