<svg width="20" height="22" viewBox="0 0 20 22" fill="none" xmlns="http://www.w3.org/2000/svg">
<path d="M1.57422 4.8999H1.02539V2.83154C0.82487 3.01904 0.588542 3.15771 0.316406 3.24756V2.74951C0.459635 2.70264 0.615234 2.6141 0.783203 2.48389C0.951172 2.35238 1.06641 2.19938 1.12891 2.0249H1.57422V4.8999ZM2.02344 8.39014V8.8999H0.0996094C0.120443 8.70719 0.182943 8.5249 0.287109 8.35303C0.391276 8.17985 0.597005 7.95068 0.904297 7.66553C1.15169 7.43506 1.30339 7.27881 1.35938 7.19678C1.4349 7.0835 1.47266 6.97152 1.47266 6.86084C1.47266 6.73844 1.43945 6.64469 1.37305 6.57959C1.30794 6.51318 1.21745 6.47998 1.10156 6.47998C0.986979 6.47998 0.895833 6.51449 0.828125 6.5835C0.760417 6.65251 0.721354 6.76709 0.710938 6.92725L0.164062 6.87256C0.196615 6.57048 0.298828 6.35368 0.470703 6.22217C0.642578 6.09066 0.857422 6.0249 1.11523 6.0249C1.39779 6.0249 1.61979 6.10107 1.78125 6.25342C1.94271 6.40576 2.02344 6.59521 2.02344 6.82178C2.02344 6.95068 2 7.07373 1.95312 7.19092C1.90755 7.3068 1.83464 7.42855 1.73438 7.55615C1.66797 7.64079 1.54818 7.76253 1.375 7.92139C1.20182 8.08024 1.0918 8.18571 1.04492 8.23779C0.999349 8.28988 0.96224 8.34066 0.933594 8.39014H2.02344ZM0.150391 12.1401L0.681641 12.0757C0.698568 12.2111 0.744141 12.3146 0.818359 12.3862C0.892578 12.4578 0.982422 12.4937 1.08789 12.4937C1.20117 12.4937 1.29622 12.4507 1.37305 12.3647C1.45117 12.2788 1.49023 12.1629 1.49023 12.0171C1.49023 11.8791 1.45312 11.7697 1.37891 11.689C1.30469 11.6082 1.21419 11.5679 1.10742 11.5679C1.03711 11.5679 0.953125 11.5815 0.855469 11.6089L0.916016 11.1616C1.06445 11.1655 1.17773 11.1336 1.25586 11.0659C1.33398 10.9969 1.37305 10.9058 1.37305 10.7925C1.37305 10.6961 1.3444 10.6193 1.28711 10.562C1.22982 10.5047 1.15365 10.4761 1.05859 10.4761C0.964844 10.4761 0.884766 10.5086 0.818359 10.5737C0.751953 10.6388 0.711589 10.7339 0.697266 10.8589L0.191406 10.7729C0.226562 10.5998 0.279297 10.4618 0.349609 10.3589C0.421224 10.2547 0.520182 10.1733 0.646484 10.1147C0.774089 10.0549 0.916667 10.0249 1.07422 10.0249C1.34375 10.0249 1.5599 10.1108 1.72266 10.2827C1.85677 10.4233 1.92383 10.5822 1.92383 10.7593C1.92383 11.0106 1.78646 11.2111 1.51172 11.3608C1.67578 11.396 1.80664 11.4748 1.9043 11.5972C2.00326 11.7196 2.05273 11.8674 2.05273 12.0405C2.05273 12.2918 1.96094 12.506 1.77734 12.6831C1.59375 12.8602 1.36523 12.9487 1.0918 12.9487C0.832682 12.9487 0.617839 12.8745 0.447266 12.7261C0.276693 12.5763 0.177734 12.381 0.150391 12.1401ZM1.24609 16.8999V16.3237H0.0742188V15.8433L1.31641 14.0249H1.77734V15.8413H2.13281V16.3237H1.77734V16.8999H1.24609ZM1.24609 15.8413V14.8628L0.587891 15.8413H1.24609ZM0.177734 20.1636L0.724609 20.1069C0.740234 20.2306 0.786458 20.3289 0.863281 20.4019C0.940104 20.4735 1.02865 20.5093 1.12891 20.5093C1.24349 20.5093 1.34049 20.4631 1.41992 20.3706C1.49935 20.2769 1.53906 20.1362 1.53906 19.9487C1.53906 19.7729 1.49935 19.6414 1.41992 19.5542C1.3418 19.4657 1.23958 19.4214 1.11328 19.4214C0.955729 19.4214 0.814453 19.491 0.689453 19.6304L0.244141 19.5659L0.525391 18.0757H1.97656V18.5894H0.941406L0.855469 19.0757C0.977865 19.0145 1.10286 18.9839 1.23047 18.9839C1.47396 18.9839 1.68034 19.0724 1.84961 19.2495C2.01888 19.4266 2.10352 19.6564 2.10352 19.939C2.10352 20.1746 2.03516 20.3849 1.89844 20.5698C1.71224 20.8224 1.45378 20.9487 1.12305 20.9487C0.858724 20.9487 0.643229 20.8778 0.476562 20.7358C0.309896 20.5939 0.210286 20.4032 0.177734 20.1636Z" fill="#B3B3B3"/>
<rect x="3.84619" y="6.12793" width="15.4872" height="1.53846" fill="#CCCCCC"/>
<rect x="3.84619" y="2.02539" width="15.4872" height="1.53846" fill="#CCCCCC"/>
<rect x="3.84619" y="18.436" width="15.4872" height="1.53846" fill="#CCCCCC"/>
<rect x="3.84619" y="14.333" width="15.4872" height="1.53846" fill="#CCCCCC"/>
<rect x="3.84619" y="10.2305" width="15.4872" height="1.53846" fill="#CCCCCC"/>
</svg>
