<svg xmlns="http://www.w3.org/2000/svg" width="16" height="19" viewBox="0 0 16 19"><g><g><path fill="#b3b3b3" d="M9.113 12.099L8 11.032 6.888 12.1 1.6 17.194V1.608h12.8v15.586zM15.756.629A1.41 1.41 0 0 0 15.1.112 1.378 1.378 0 0 0 14.55 0H1.45C1.258 0 1.075.038.9.113a1.41 1.41 0 0 0-.656.515A1.337 1.337 0 0 0 0 1.406v16.188c0 .284.081.544.244.778.162.235.381.406.656.515.175.075.358.113.55.113.392 0 .737-.138 1.037-.414L8 13.26l5.513 5.325c.291.267.637.401 1.037.401.208 0 .392-.033.55-.1.275-.109.494-.28.656-.515.163-.234.244-.494.244-.778V1.407c0-.285-.081-.545-.244-.779z"/></g></g></svg>