<svg width="26" height="19" viewBox="0 0 26 19" fill="none" xmlns="http://www.w3.org/2000/svg">
<path fill-rule="evenodd" clip-rule="evenodd" d="M4.04425 12.9958C4.536 13.3318 5.03191 13.6411 5.53 13.9239L0.322342 17.7034L1.23402 18.8845L7.01912 14.686C9.03133 15.6041 11.0582 16.0811 13 16.0811C15.9062 16.0811 19.0031 15.0141 21.9559 12.9958C24.1645 11.486 25.5122 9.98833 25.5686 9.92523L26 9.44223L25.5686 8.95924C25.5122 8.89634 24.1645 7.39867 21.9559 5.88889C21.4547 5.54612 20.9492 5.23162 20.4414 4.94444L25.6269 1.18105L24.7152 0L18.9497 4.18445C16.9478 3.27539 14.9319 2.80355 13 2.80355C10.0938 2.80355 6.9969 3.87034 4.04425 5.88889C1.83546 7.39867 0.487778 8.89634 0.431442 8.95924L0 9.44223L0.431442 9.92523C0.487778 9.98813 1.83546 11.486 4.04425 12.9958ZM7.67511 9.44223C7.67511 6.59521 10.0638 4.27871 13 4.27871C13.0335 4.27871 13.0669 4.27939 13.1002 4.28007L13.1003 4.28007L13.1502 4.28101C14.5522 4.31871 15.8205 4.88481 16.7505 5.7806L15.5141 6.67793C14.8432 6.10356 13.9633 5.75405 13 5.75405C10.9029 5.75405 9.19656 7.40848 9.19656 9.44223C9.19656 9.99987 9.3255 10.5285 9.55501 11.0028L8.31821 11.9003C7.90819 11.169 7.67511 10.3315 7.67511 9.44223ZM13 11.6553C14.2584 11.6553 15.2822 10.6625 15.2822 9.44223C15.2822 9.20718 15.2437 8.98059 15.1733 8.76784L11.7206 11.2738C12.0857 11.5143 12.5263 11.6553 13 11.6553ZM10.718 9.44223C10.718 8.22214 11.7418 7.2294 13 7.2294C13.4622 7.2294 13.8924 7.36367 14.2523 7.59372L10.817 10.0868C10.7527 9.88272 10.718 9.66633 10.718 9.44223ZM13 13.1304C12.0256 13.1304 11.1362 12.773 10.4625 12.1867L9.22771 13.0829C10.1957 14.0258 11.5321 14.6058 13 14.6058C15.9362 14.6058 18.3249 12.2894 18.3249 9.44223C18.3249 8.54221 18.0861 7.69567 17.6669 6.95819L16.4323 7.85417C16.6701 8.33543 16.8034 8.87402 16.8034 9.44223C16.8034 11.476 15.0973 13.1304 13 13.1304ZM21.0478 7.07302C22.383 7.98227 23.3947 8.90134 23.9471 9.44204C23.1009 10.2688 21.1732 11.9844 18.6326 13.2112C19.3974 12.1398 19.8463 10.841 19.8463 9.44223C19.8463 8.21098 19.4984 7.05725 18.8936 6.06778L19.1082 5.91217C19.8352 6.28976 20.4884 6.69216 21.0478 7.07302ZM6.15366 9.44223C6.15366 8.04344 6.60255 6.74467 7.36745 5.67327C4.827 6.90009 2.89909 8.61569 2.05267 9.44243C2.60512 9.98294 3.61697 10.9022 4.95216 11.8114C5.50401 12.1871 6.14711 12.5839 6.86221 12.9569L7.09073 12.7911C6.49564 11.8074 6.15366 10.6629 6.15366 9.44223Z" fill="#B3B3B3"/>
</svg>
