<svg width="20" height="18" viewBox="0 0 20 18" fill="none" xmlns="http://www.w3.org/2000/svg">
<path fill-rule="evenodd" clip-rule="evenodd" d="M0 8.99612C0 4.05234 4.48163 0.0292969 9.99592 0.0292969C15.5102 0.0292969 19.9918 4.05234 19.9918 8.99612C19.9918 13.9399 15.5102 17.9629 9.99592 17.9629C9.08571 17.9629 8.18367 17.851 7.31429 17.6353C7.0449 17.5689 6.88163 17.2952 6.94694 17.0215C7.01225 16.7477 7.28163 16.5818 7.55102 16.6482C8.34286 16.8473 9.16735 16.9468 9.99592 16.9468C14.9551 16.9468 18.9918 13.38 18.9918 8.99612C18.9918 4.61225 14.9551 1.04543 9.99592 1.04543C5.03673 1.04543 1 4.61225 1 8.99612C1 10.8251 1.68163 12.5422 2.97551 13.9731C3.10204 14.1141 3.14286 14.3173 3.07755 14.4957C2.80816 15.2298 2.40816 15.8394 1.88163 16.3205C2.62041 16.3454 3.63673 16.2376 4.57551 15.6652C4.81224 15.5201 5.11837 15.5989 5.26122 15.8394C5.40408 16.08 5.32653 16.391 5.0898 16.5362C3.59184 17.4487 1.96735 17.3864 1.13469 17.2703C0.820408 17.2247 0.571429 16.9924 0.502041 16.6772C0.432653 16.3579 0.563265 16.0344 0.832653 15.856C1.3551 15.5118 1.7551 15.0265 2.02857 14.4127C0.718367 12.8616 0 10.9496 0 8.99612ZM10.6327 8.99612C10.6327 9.35574 10.3457 9.64727 9.99184 9.64727C9.63792 9.64727 9.35102 9.35574 9.35102 8.99612C9.35102 8.6365 9.63792 8.34496 9.99184 8.34496C10.3457 8.34496 10.6327 8.6365 10.6327 8.99612ZM7.23265 9.64727C7.58657 9.64727 7.87347 9.35574 7.87347 8.99612C7.87347 8.6365 7.58657 8.34496 7.23265 8.34496C6.87874 8.34496 6.59184 8.6365 6.59184 8.99612C6.59184 9.35574 6.87874 9.64727 7.23265 9.64727ZM13.3918 8.99612C13.3918 9.35574 13.1049 9.64727 12.751 9.64727C12.3971 9.64727 12.1102 9.35574 12.1102 8.99612C12.1102 8.6365 12.3971 8.34496 12.751 8.34496C13.1049 8.34496 13.3918 8.6365 13.3918 8.99612Z" fill="#CCCCCC"/>
</svg>
