<svg xmlns="http://www.w3.org/2000/svg" width="20" height="18" viewBox="0 0 20 18"><g><g><path fill="#72bb53" d="M19.992 8.997c0 4.944-4.482 8.967-9.996 8.967-.91 0-1.812-.112-2.682-.328a.507.507 0 0 1-.367-.614.498.498 0 0 1 .604-.373c.792.199 1.616.299 2.445.299 4.96 0 8.996-3.567 8.996-7.951 0-4.384-4.037-7.95-8.996-7.95C5.036 1.046 1 4.612 1 8.996c0 1.829.682 3.546 1.976 4.977a.52.52 0 0 1 .102.522c-.27.734-.67 1.344-1.196 1.825.738.025 1.755-.083 2.694-.655a.495.495 0 0 1 .685.174.512.512 0 0 1-.171.697c-1.498.912-3.123.85-3.955.734a.757.757 0 0 1-.633-.593.78.78 0 0 1 .33-.821c.523-.345.923-.83 1.197-1.444C.719 12.863 0 10.95 0 8.997 0 4.053 4.482.03 9.996.03s9.996 4.023 9.996 8.967zm-10.641 0c0-.36.287-.651.64-.651.355 0 .642.291.642.65 0 .36-.287.652-.641.652a.646.646 0 0 1-.641-.651zm-2.76 0c0-.36.288-.651.642-.651.354 0 .64.291.64.65 0 .36-.286.652-.64.652a.646.646 0 0 1-.641-.651zm5.52 0c0-.36.286-.651.64-.651.354 0 .64.291.64.65 0 .36-.286.652-.64.652a.646.646 0 0 1-.64-.651z"/></g></g></svg>