<svg width="16" height="16" viewBox="0 0 16 16" fill="none" xmlns="http://www.w3.org/2000/svg">
<path fill-rule="evenodd" clip-rule="evenodd" d="M14.6693 1.26148L14.6568 1.24932C13.1389 -0.264889 10.7196 -0.421134 9.02266 0.886785C8.85283 1.01732 8.71598 1.13601 8.59204 1.26025L8.58148 1.27111L5.86579 4.00099C5.6279 4.24009 5.6279 4.62776 5.86587 4.86678C6.10384 5.10597 6.48954 5.10589 6.72727 4.8667L9.45303 2.12662L9.46148 2.11805C9.54457 2.0356 9.64057 1.95315 9.76321 1.85895C10.9821 0.919519 12.7204 1.03462 13.807 2.12678L13.8179 2.13748C15.0079 3.3445 15.0045 5.30009 13.8078 6.50344L11.0822 9.24327C10.8443 9.48238 10.8443 9.87005 11.0823 10.1091C11.2013 10.2286 11.3571 10.2883 11.513 10.2883C11.6688 10.2883 11.8248 10.2286 11.9438 10.109L14.6694 7.36915C16.3443 5.68499 16.3443 2.94507 14.6693 1.26148ZM9.27744 11.0561L6.5533 13.7942C6.54794 13.7997 6.54258 13.8053 6.53738 13.8109C6.23622 14.1087 5.88284 14.3374 5.48601 14.4912C4.34936 14.9335 3.05856 14.6602 2.19821 13.7954C0.998781 12.5885 0.998781 10.6247 2.19821 9.41829L4.92365 6.68001C5.03785 6.56515 5.10209 6.4094 5.10209 6.24695V6.24589C5.10209 5.90768 4.82944 5.63413 4.49295 5.63413C4.31955 5.63413 4.16304 5.70719 4.0521 5.82417L1.33657 8.5525C-0.337341 10.2364 -0.337504 12.9766 1.3364 14.6609C2.1563 15.4852 3.25543 15.9245 4.37486 15.9245C4.8958 15.9244 5.42128 15.8292 5.92483 15.6334C6.48702 15.4157 6.98782 15.0889 7.41324 14.6623C7.41941 14.6562 7.42542 14.6498 7.43135 14.6434L10.1389 11.922C10.3768 11.6828 10.3768 11.2952 10.1388 11.0561C9.90112 10.8171 9.51541 10.8171 9.27744 11.0561ZM5.31594 11.2739C5.16 11.2739 5.00414 11.2141 4.88516 11.0945C4.64727 10.8554 4.64727 10.4678 4.88532 10.2287L10.259 4.82785C10.4969 4.58883 10.8826 4.58874 11.1204 4.82793C11.3583 5.06695 11.3583 5.45462 11.1204 5.69372L5.74664 11.0946C5.62774 11.2141 5.4718 11.2739 5.31594 11.2739Z" fill="#299AE0"/>
</svg>
