<svg width="40" height="36" viewBox="0 0 40 36" fill="none" xmlns="http://www.w3.org/2000/svg">
<path fill-rule="evenodd" clip-rule="evenodd" d="M0 18C0 8.07586 8.96693 0 20 0C31.0331 0 40 8.07586 40 18C40 27.9241 31.0331 36 20 36C18.1788 36 16.374 35.7752 14.6345 35.3423C14.0955 35.2091 13.7689 34.6596 13.8996 34.1101C14.0302 33.5606 14.5692 33.2276 15.1082 33.3608C16.6925 33.7604 18.3422 33.9602 20 33.9602C29.9224 33.9602 37.9992 26.8002 37.9992 18C37.9992 9.19981 29.9224 2.03978 20 2.03978C10.0776 2.03978 2.00082 9.19981 2.00082 18C2.00082 21.6716 3.36464 25.1184 5.95345 27.9907C6.20661 28.2738 6.28828 28.6818 6.15762 29.0398C5.61862 30.5134 4.81829 31.7373 3.7648 32.7031C5.24296 32.753 7.27644 32.5365 9.15476 31.3876C9.62842 31.0962 10.2409 31.2544 10.5267 31.7373C10.8126 32.2202 10.6574 32.8446 10.1837 33.136C7.18661 34.9676 3.9363 34.8427 2.27031 34.6096C1.64149 34.518 1.14332 34.0518 1.00449 33.4191C0.865659 32.778 1.12699 32.1286 1.66599 31.7706C2.71131 31.0796 3.51164 30.1055 4.0588 28.8733C1.43732 25.7595 0 21.9214 0 18ZM21.274 18C21.274 18.7219 20.6999 19.3071 19.9918 19.3071C19.2837 19.3071 18.7097 18.7219 18.7097 18C18.7097 17.2781 19.2837 16.6929 19.9918 16.6929C20.6999 16.6929 21.274 17.2781 21.274 18ZM14.4712 19.3071C15.1793 19.3071 15.7534 18.7219 15.7534 18C15.7534 17.2781 15.1793 16.6929 14.4712 16.6929C13.7631 16.6929 13.1891 17.2781 13.1891 18C13.1891 18.7219 13.7631 19.3071 14.4712 19.3071ZM26.7946 18C26.7946 18.7219 26.2206 19.3071 25.5125 19.3071C24.8043 19.3071 24.2303 18.7219 24.2303 18C24.2303 17.2781 24.8043 16.6929 25.5125 16.6929C26.2206 16.6929 26.7946 17.2781 26.7946 18Z" fill="#CCCCCC"/>
</svg>
