<svg xmlns="http://www.w3.org/2000/svg" width="16" height="17" viewBox="0 0 16 17"><g><g><path fill="#999" d="M8.494 3.987a.504.504 0 0 0-.507-.49.493.493 0 0 0-.481.49v4.599c0 .008.017.044.017.07a.457.457 0 0 0 .131.393l2.616 2.614a.498.498 0 0 0 .674 0 .471.471 0 0 0 0-.682l-2.45-2.465zm3.018 10.697a6.89 6.89 0 0 1-3.525.944 6.775 6.775 0 0 1-2.73-.56 7.153 7.153 0 0 1-2.239-1.495 7.11 7.11 0 0 1-1.496-2.248 6.886 6.886 0 0 1-.55-2.738c0-1.269.31-2.443.935-3.516A7.022 7.022 0 0 1 4.47 2.508a6.837 6.837 0 0 1 3.517-.945 6.89 6.89 0 0 1 3.525.945 7.04 7.04 0 0 1 2.572 2.563 6.836 6.836 0 0 1 .945 3.516c0 1.268-.313 2.45-.945 3.534a7.019 7.019 0 0 1-2.572 2.563zm-.41-13.445A7.863 7.863 0 0 0 7.986.6a7.782 7.782 0 0 0-3.106.639C2.915 2.082 1.475 3.512.63 5.48A7.785 7.785 0 0 0 0 8.587c0 1.085.206 2.127.63 3.114.845 1.97 2.285 3.408 4.251 4.252.99.425 2.021.638 3.106.638a7.866 7.866 0 0 0 3.114-.638c1.983-.846 3.417-2.285 4.26-4.252.425-.99.639-2.03.639-3.114a7.78 7.78 0 0 0-.639-3.106c-.843-1.966-2.277-3.397-4.26-4.242z"/></g></g></svg>