<svg width="24" height="15" viewBox="0 0 24 15" fill="none" xmlns="http://www.w3.org/2000/svg">
<path d="M0.601562 15V0.683594H2.49609V6.5625H9.9375V0.683594H11.832V15H9.9375V8.25195H2.49609V15H0.601562ZM23.5215 13.3105V15H14.0586C14.0456 14.5768 14.1139 14.1699 14.2637 13.7793C14.5046 13.1348 14.8887 12.5 15.416 11.875C15.9499 11.25 16.7181 10.5273 17.7207 9.70703C19.2767 8.43099 20.3281 7.42188 20.875 6.67969C21.4219 5.93099 21.6953 5.22461 21.6953 4.56055C21.6953 3.86393 21.4447 3.27799 20.9434 2.80273C20.4486 2.32096 19.8008 2.08008 19 2.08008C18.1536 2.08008 17.4766 2.33398 16.9688 2.8418C16.4609 3.34961 16.2038 4.05273 16.1973 4.95117L14.3906 4.76562C14.5143 3.41797 14.9798 2.39258 15.7871 1.68945C16.5944 0.979818 17.6784 0.625 19.0391 0.625C20.4128 0.625 21.5 1.00586 22.3008 1.76758C23.1016 2.5293 23.502 3.47331 23.502 4.59961C23.502 5.17253 23.3848 5.73568 23.1504 6.28906C22.916 6.84245 22.5254 7.42513 21.9785 8.03711C21.4382 8.64909 20.5365 9.48893 19.2734 10.5566C18.2188 11.4421 17.5417 12.0443 17.2422 12.3633C16.9427 12.6758 16.6953 12.9915 16.5 13.3105H23.5215Z" fill="#FF5050"/>
</svg>
