<svg xmlns="http://www.w3.org/2000/svg" width="70" height="70" viewBox="0 0 70 70"><g><g><g><path fill="#ff5050" d="M10.135 17.952c3.062-5.978 9.13-9.693 15.838-9.693a1.366 1.366 0 1 0 0-2.729c-7.899 0-14.848 4.492-18.273 11.18a1.364 1.364 0 0 0 .595 1.837 1.368 1.368 0 0 0 1.84-.595z"/></g><g><path fill="#ff5050" d="M7.86 22.003c0 .566-.459 1.024-1.025 1.024a1.024 1.024 0 1 1 0-2.047c.566 0 1.026.458 1.026 1.023z"/></g><g><path fill="#ff5050" d="M57.673 65.331l-4.06-6.354c-1.243-1.945-2.938-4.214-4.938-6.613l3.647-3.642c2.282 1.84 4.48 3.442 6.413 4.672l6.649 4.234c2.163 1.886 2.498 5.212.736 7.459-2.136 2.726-6.183 2.832-8.447.244zm-14.91-19.486c1.067-.9 2.06-1.882 2.972-2.941a91.767 91.767 0 0 0 4.477 4.067l-3.32 3.313a110.08 110.08 0 0 0-4.13-4.44zm-2.865-1.21a23.061 23.061 0 0 1-13.867 4.592c-12.846 0-23.297-10.421-23.297-23.232C2.734 13.205 13.161 2.8 25.976 2.8c12.846 0 23.297 10.422 23.297 23.232 0 7.68-3.734 14.405-9.375 18.605zm27.194 10.852a1.275 1.275 0 0 0-.148-.108l-6.734-4.286c-4.152-2.642-9.22-6.848-12.791-10.363a25.615 25.615 0 0 0 4.588-14.699C52.007 11.716 40.33.07 25.976.07 11.653.07 0 11.7 0 25.995c0 14.316 11.677 25.962 26.031 25.962a25.76 25.76 0 0 0 14.535-4.449c3.567 3.598 8.044 8.713 10.745 12.937l4.114 6.435c.033.052.07.1.109.148 3.35 3.95 9.504 3.878 12.748-.259 2.599-3.31 2.286-8.35-1.19-11.282z"/></g><g><path fill="#ff5050" d="M35.542 35.68h-5.46V13.85h5.46zm-8.206 0h-5.46V22.037h5.46zm-8.205 0h-5.46v-5.457h5.46zm20.514 0h-1.367V12.486c0-.754-.612-1.365-1.368-1.365h-8.203c-.755 0-1.367.61-1.367 1.365v6.822h-6.835c-.755 0-1.367.611-1.367 1.365v6.822h-6.836c-.756 0-1.368.611-1.368 1.365v6.822H9.567c-.755 0-1.367.611-1.367 1.364 0 .754.612 1.365 1.367 1.365h30.078a1.366 1.366 0 1 0 0-2.73z"/></g></g></g></svg>