<svg width="17" height="18" viewBox="0 0 17 18" fill="none" xmlns="http://www.w3.org/2000/svg">
<path fill-rule="evenodd" clip-rule="evenodd" d="M16.1512 13.5442L17 13.4071L16.5105 14.1013C14.9909 16.2106 12.6409 17.6049 10.0632 17.9268C8.63798 18.1044 7.24029 17.9585 5.90883 17.493C2.65558 16.3557 0.410982 13.5376 0.0503828 10.1378C-0.459722 5.31944 2.95808 0.926692 7.83179 0.137201L8.68022 0L8.17877 0.696149C6.97223 2.37191 6.4256 4.40593 6.63953 6.42344C6.97099 9.55136 9.03623 12.1442 12.0295 13.1906C13.2538 13.6187 14.5392 13.7529 15.8505 13.5893C15.9519 13.5767 16.0516 13.5605 16.1512 13.5442Z" fill="#CCCCCC"/>
</svg>
