<svg width="14" height="14" viewBox="0 0 14 14" fill="none" xmlns="http://www.w3.org/2000/svg">
<path fill-rule="evenodd" clip-rule="evenodd" d="M13.9544 5.33462C13.9249 5.24077 13.8467 5.17233 13.7524 5.15807L9.22995 4.47648L7.20745 0.226698C7.16545 0.138031 7.07844 0.0820312 6.98345 0.0820312C6.88845 0.0820312 6.8012 0.138031 6.75945 0.226698L4.7367 4.47674L0.214195 5.15833C0.119945 5.17259 0.0419454 5.24077 0.0121954 5.33488C-0.0170546 5.42848 0.00719536 5.53166 0.0754454 5.60036L3.3482 8.90851L2.57545 13.5798C2.55945 13.6771 2.59795 13.7753 2.6747 13.8334C2.75195 13.892 2.8542 13.8995 2.93795 13.8531L6.98345 11.6478L11.0284 13.8531C11.0649 13.8731 11.1052 13.8829 11.1449 13.8829C11.1967 13.8829 11.2482 13.8663 11.2919 13.8334C11.3689 13.7753 11.4074 13.6771 11.3912 13.5798L10.6187 8.90877L13.8914 5.60036C13.9594 5.53114 13.9839 5.42822 13.9544 5.33462Z" fill="#FFC959"/>
</svg>
