<svg xmlns="http://www.w3.org/2000/svg" width="70" height="66" viewBox="0 0 70 66"><g><g><g><path fill="#ff5050" d="M18.72 41.95a1.358 1.358 0 0 0 .501-1.86 1.372 1.372 0 0 0-1.867-.498 1.358 1.358 0 0 0-.5 1.86 1.37 1.37 0 0 0 1.867.497z"/></g><g><path fill="#ff5050" d="M3.65 45.892a6.77 6.77 0 0 1-.917-3.395 6.824 6.824 0 0 1 3.42-5.9l10.656-6.123 6.836 11.785-10.656 6.124c-3.265 1.875-7.454.758-9.338-2.49zm30.606-36.56L50.06 36.577l-23.852 4.657-7.253-12.504zm3.472-3.57c.233.002.814.075 1.165.68l15.894 27.415c.517.893-.112 2.015-1.15 2.04-.187.005-.272.038-.75.127l-16.812-29c.353-.452.398-.495.468-.61.367-.597.949-.659 1.185-.652zm13.16 10.468l1.89 3.258-1.686 2.54-3.256-5.615zM24.01 48.324l-1.367-2.351 2.368-1.357 1.367 2.35zm3.101 10.8a2.713 2.713 0 0 1-1.001 3.718 2.745 2.745 0 0 1-3.735-.996L15.54 50.059l4.736-2.721c7.912 13.64 6.71 11.568 6.836 11.787zm-7.104 4.082c1.486 2.564 4.828 3.514 7.47 1.993a5.427 5.427 0 0 0 2.002-7.436l-4.102-7.072 3.552-2.041a1.358 1.358 0 0 0 .5-1.859l-1.777-3.065c.212-.04 1.606-.313 26.187-5.113 3.039-.164 4.86-3.472 3.324-6.116l-4.543-7.834 2.903-4.377c.286-.43.303-.984.044-1.43l-2.735-4.715a1.372 1.372 0 0 0-1.266-.677l-5.26.314-5.044-8.697a4.07 4.07 0 0 0-3.5-2.04l-.053-.001a4.07 4.07 0 0 0-3.453 1.882l-17.86 22.646-11.611 6.673c-4.567 2.623-6.149 8.454-3.503 13.012 2.417 4.168 7.513 5.807 11.84 4.082z"/></g><g><path fill="#ff5050" d="M14.495 42.81a1.37 1.37 0 0 0-1.868-.497l-2.368 1.36a1.372 1.372 0 0 1-1.868-.498 1.37 1.37 0 0 0-1.867-.498 1.358 1.358 0 0 0-.5 1.86 4.117 4.117 0 0 0 5.602 1.493l2.368-1.36a1.357 1.357 0 0 0 .5-1.86z"/></g><g><path fill="#ff5050" d="M67.971 5.952l-7.618 4.22a1.358 1.358 0 0 0-.53 1.85 1.37 1.37 0 0 0 1.86.528L69.3 8.33c.66-.365.897-1.194.53-1.85a1.37 1.37 0 0 0-1.859-.528z"/></g><g><path fill="#ff5050" d="M67.164 20.045l-5.282-1.408a1.36 1.36 0 1 0-.708 2.629l5.283 1.408a1.368 1.368 0 0 0 1.674-.962 1.36 1.36 0 0 0-.967-1.667z"/></g><g><path fill="#ff5050" d="M53.894 1.009l-1.417 5.258a1.36 1.36 0 0 0 .967 1.667 1.368 1.368 0 0 0 1.674-.962l1.417-5.258a1.368 1.368 0 0 0-2.64-.705z"/></g></g></g></svg>