<svg width="22" height="16" viewBox="0 0 22 16" fill="none" xmlns="http://www.w3.org/2000/svg">
<path fill-rule="evenodd" clip-rule="evenodd" d="M3.42206 10.9964C3.83815 11.2808 4.25777 11.5425 4.67923 11.7817L0.272751 14.9798L1.04417 15.9792L5.93925 12.4266C7.64189 13.2035 9.35695 13.6071 11 13.6071C13.4591 13.6071 16.0795 12.7043 18.5781 10.9964C20.4469 9.71891 21.5873 8.45166 21.6349 8.39827L22 7.98958L21.6349 7.58089C21.5873 7.52767 20.4469 6.26042 18.5781 4.98291C18.154 4.69287 17.7263 4.42676 17.2966 4.18376L21.6843 0.999349L20.9129 0L16.0344 3.54069C14.3405 2.77148 12.6347 2.37223 11 2.37223C8.54088 2.37223 5.92046 3.2749 3.42206 4.98291C1.55309 6.26042 0.412735 7.52767 0.365067 7.58089L0 7.98958L0.365067 8.39827C0.412735 8.4515 1.55309 9.71891 3.42206 10.9964ZM6.49432 7.98958C6.49432 5.58057 8.51553 3.62044 11 3.62044C11.0283 3.62044 11.0566 3.62102 11.0848 3.6216L11.0848 3.6216L11.1271 3.6224C12.3134 3.6543 13.3866 4.1333 14.1735 4.89128L13.1273 5.65055C12.5596 5.16455 11.8151 4.86881 11 4.86881C9.22552 4.86881 7.78171 6.26872 7.78171 7.98958C7.78171 8.46143 7.89081 8.90869 8.08501 9.31006L7.03848 10.0695C6.69154 9.45068 6.49432 8.74202 6.49432 7.98958ZM11 9.86214C12.0648 9.86214 12.9311 9.02214 12.9311 7.98958C12.9311 7.79069 12.8985 7.59896 12.8389 7.41895L9.91739 9.53939C10.2264 9.74284 10.5992 9.86214 11 9.86214ZM9.06909 7.98958C9.06909 6.95719 9.93535 6.11719 11 6.11719C11.3911 6.11719 11.7551 6.23079 12.0596 6.42546L9.15285 8.53499C9.09846 8.3623 9.06909 8.1792 9.06909 7.98958ZM11 11.1104C10.1755 11.1104 9.42291 10.8079 8.85291 10.3118L7.80806 11.0702C8.62715 11.868 9.75793 12.3587 11 12.3587C13.4845 12.3587 15.5057 10.3988 15.5057 7.98958C15.5057 7.22803 15.3036 6.51172 14.9489 5.8877L13.9043 6.64583C14.1055 7.05306 14.2183 7.50879 14.2183 7.98958C14.2183 9.71045 12.7746 11.1104 11 11.1104ZM17.8097 5.98486C18.9395 6.75423 19.7955 7.5319 20.263 7.98942C19.5469 8.68896 17.9158 10.1406 15.766 11.1787C16.4132 10.2721 16.7931 9.17318 16.7931 7.98958C16.7931 6.94775 16.4987 5.97152 15.9869 5.13428L16.1685 5.0026C16.7837 5.3221 17.3364 5.6626 17.8097 5.98486ZM5.20694 7.98958C5.20694 6.80599 5.58678 5.70703 6.23399 4.80046C4.08438 5.83854 2.45308 7.2902 1.73688 7.98975C2.20433 8.4471 3.06052 9.22493 4.19029 9.9943C4.65724 10.3122 5.2014 10.6479 5.80649 10.9635L5.99985 10.8232C5.49631 9.99089 5.20694 9.02246 5.20694 7.98958Z" fill="#B3B3B3"/>
</svg>
