<svg xmlns="http://www.w3.org/2000/svg" width="20" height="20" viewBox="0 0 20 20"><g><g><path fill="gray" d="M18.431 18.227a.399.399 0 1 1-.794.058 17.367 17.367 0 0 0-1.044-4.806.398.398 0 1 1 .746-.279c.6 1.613.968 3.304 1.092 5.027zm-1.693-6.466a.402.402 0 1 1-.727.345 17.8 17.8 0 0 0-.14-.29.402.402 0 1 1 .72-.358c.05.101.1.203.147.303zm-.944 7.432h3.384C19.13 9.071 10.932.845.844.797v3.382c8.223.048 14.902 6.757 14.95 15.014zM.756 0c10.592 0 19.21 8.654 19.21 19.292 0 .39-.319.708-.709.708h-3.56a.709.709 0 0 1-.708-.708c0-7.893-6.385-14.314-14.233-14.314a.709.709 0 0 1-.708-.708V.708C.048.318.365 0 .756 0zm8.74 19.2h3.384C12.833 12.555 7.458 7.158.84 7.11v3.386a8.672 8.672 0 0 1 6.095 2.57A8.761 8.761 0 0 1 9.495 19.2zM.75 6.314c7.127 0 12.926 5.825 12.926 12.985a.71.71 0 0 1-.709.708H9.407a.71.71 0 0 1-.709-.708 7.98 7.98 0 0 0-2.329-5.665 7.878 7.878 0 0 0-5.618-2.338.71.71 0 0 1-.708-.709V7.022a.71.71 0 0 1 .708-.708zM3.213 19.18a2.38 2.38 0 0 0 2.377-2.378 2.38 2.38 0 0 0-2.377-2.378 2.38 2.38 0 0 0-2.377 2.378 2.38 2.38 0 0 0 2.377 2.378zm.005-5.553a3.18 3.18 0 0 1 3.178 3.175 3.18 3.18 0 0 1-3.178 3.175A3.18 3.18 0 0 1 .04 16.803a3.18 3.18 0 0 1 3.178-3.175z"/></g></g></svg>