<svg xmlns="http://www.w3.org/2000/svg" width="20" height="20" viewBox="0 0 20 20"><g><g><path fill="gray" d="M5.77 2.5v.385a.192.192 0 0 1-.193.192H5A.577.577 0 0 0 5 4.23h.577c.742 0 1.346-.604 1.346-1.346V2.5a.577.577 0 0 0-1.154 0zm5.384.577h-.577a.192.192 0 0 1-.192-.192V2.5a.577.577 0 0 0-1.154 0v.385c0 .742.604 1.346 1.346 1.346h.577a.577.577 0 0 0 0-1.154zm5.77 9.615h-.193a.58.58 0 0 0-.577.582.58.58 0 0 0 .577.582h.192a.58.58 0 0 0 .577-.582.58.58 0 0 0-.577-.582zm1.354 1.933H15a.58.58 0 0 1-.578-.579v-1.544c0-.32.26-.579.578-.579h3.277a.58.58 0 0 1 .578.58v1.543c0 .32-.26.58-.578.58zm-1.73 4.231H1.731a.578.578 0 0 1-.577-.577V8.269c0-.318.259-.577.577-.577h14.817c.318 0 .577.26.577.578v2.502H15.01c-.955 0-1.732.777-1.732 1.732v1.54c0 .955.777 1.732 1.732 1.732h2.116v2.503a.578.578 0 0 1-.577.577zM12.5 1.154v5.394H3.654V1.154zm2.076 5.192h-.922v-3.3l1.784.444zm3.693 1.923c0-.954-.776-1.73-1.73-1.73h-.821l.988-3.296a.577.577 0 0 0-.412-.726l-2.64-.66V.577A.577.577 0 0 0 13.077 0h-10A.577.577 0 0 0 2.5.577v5.961h-.77C.777 6.538 0 7.315 0 8.27v10C0 19.224.776 20 1.73 20h14.808c.955 0 1.731-.776 1.731-1.73v-2.5c.955 0 1.731-.777 1.731-1.732V12.5c0-.954-.776-1.73-1.73-1.73z"/></g></g></svg>