<svg xmlns="http://www.w3.org/2000/svg" width="22" height="18" viewBox="0 0 22 18"><g><g><g><path fill="#ff5050" d="M18.368 4.852a.816.816 0 0 0-1.14.14.812.812 0 0 0 .14 1.134c.923.722 1.847 1.619 2.744 2.668-.53.62-1.56 1.731-2.96 2.75-2.694 1.96-5.416 2.668-8.084 2.103a.805.805 0 0 0-.955.623.805.805 0 0 0 .623.956c.695.148 1.395.22 2.099.22 1.058 0 2.125-.167 3.188-.499 1.394-.435 2.78-1.152 4.12-2.13 2.26-1.655 3.61-3.48 3.668-3.556a.814.814 0 0 0-.022-.987c-1.108-1.363-2.256-2.511-3.421-3.422zM8.306 6.1a3.749 3.749 0 0 0-1.107 2.672c0 .734.21 1.437.6 2.041l-1.662 1.66c-1.456-.84-2.89-2.085-4.283-3.71.595-.698 1.855-2.045 3.58-3.168 2.984-1.943 5.954-2.363 8.849-1.258l-1.26 1.258a3.793 3.793 0 0 0-4.717.505zm.501 2.683c0-.578.225-1.125.637-1.537a2.176 2.176 0 0 1 2.388-.462l-2.85 2.85a2.098 2.098 0 0 1-.175-.851zM18.378.237l-2.867 2.868C11.957 1.49 8.167 1.885 4.55 4.247 1.858 6.004.223 8.212.155 8.307a.814.814 0 0 0 .023.985c1.532 1.882 3.136 3.347 4.776 4.369l-2.522 2.523a.811.811 0 0 0 0 1.142.805.805 0 0 0 1.138 0L19.52 1.38A.807.807 0 1 0 18.378.236z"/></g></g></g></svg>