<svg xmlns="http://www.w3.org/2000/svg" width="20" height="20" viewBox="0 0 20 20"><g><g><path fill="gray" d="M14.826 14.102c.29 0 .527-.23.527-.511a.521.521 0 0 0-.527-.512h-1.38c-.29 0-.527.23-.527.512 0 .281.233.511.527.511zm0-1.764c.29 0 .527-.232.527-.516a.524.524 0 0 0-.527-.517h-1.38a.524.524 0 0 0-.527.517.52.52 0 0 0 .527.516zm-5.514 1.764c.29 0 .528-.23.528-.511a.522.522 0 0 0-.528-.512H5.166c-.29 0-.529.23-.529.512 0 .281.234.511.529.511zm1.384-1.764c.29 0 .528-.232.528-.516a.524.524 0 0 0-.528-.517h-5.53a.524.524 0 0 0-.529.517c0 .284.234.516.528.516zm4.13-6.49c.29 0 .527-.233.527-.517a.524.524 0 0 0-.527-.516h-1.38a.524.524 0 0 0-.527.516.52.52 0 0 0 .527.517zm0-1.784c.29 0 .527-.23.527-.512a.521.521 0 0 0-.527-.511h-1.38c-.29 0-.527.23-.527.511 0 .282.233.512.527.512zM9.312 5.848c.29 0 .528-.233.528-.517a.524.524 0 0 0-.528-.516H5.166a.524.524 0 0 0-.529.516c0 .284.234.517.529.517zm1.384-1.784c.29 0 .528-.23.528-.512a.522.522 0 0 0-.528-.511h-5.53c-.29 0-.529.23-.529.511 0 .282.234.512.528.512zm4.13 5.885c.29 0 .527-.23.527-.512a.521.521 0 0 0-.527-.512h-1.38c-.29 0-.527.23-.527.512 0 .282.233.512.527.512zm0-1.778c.29 0 .527-.23.527-.512a.521.521 0 0 0-.527-.512h-1.38c-.29 0-.527.23-.527.512 0 .281.233.512.527.512zM9.312 9.949c.29 0 .528-.23.528-.512a.522.522 0 0 0-.528-.512H5.166c-.29 0-.529.23-.529.512 0 .282.234.512.529.512zm1.384-1.778c.29 0 .528-.23.528-.512a.522.522 0 0 0-.528-.512h-5.53c-.29 0-.529.23-.529.512 0 .281.234.512.528.512zm4.74 9.194a.538.538 0 0 0-.584 0l-2.29 1.484-2.3-1.484a.538.538 0 0 0-.585 0l-2.29 1.48-2.3-1.48a.538.538 0 0 0-.585 0L2.74 18.503V1.02h14.464l.004 17.488zM.547 0C.257 0 .02.23.02.512c0 .281.237.511.527.511h1.139v18.44c0 .187.105.362.277.452.171.09.378.08.54-.026l2.29-1.48 2.3 1.484a.538.538 0 0 0 .584 0l2.29-1.48 2.3 1.485a.538.538 0 0 0 .584 0l2.29-1.48 2.299 1.484a.546.546 0 0 0 .54.026.511.511 0 0 0 .277-.453L18.25 1.036h1.2c.29 0 .527-.23.527-.511A.532.532 0 0 0 19.449 0z"/></g></g></svg>