<svg width="20" height="18" viewBox="0 0 20 18" fill="none" xmlns="http://www.w3.org/2000/svg">
<path fill-rule="evenodd" clip-rule="evenodd" d="M19.4177 2.40016L19.4141 2.4H14.1016V1.8C14.1016 0.8075 13.313 0 12.3438 0H7.65625C6.68701 0 5.89844 0.8075 5.89844 1.8V2.4H0.585938C0.259705 2.4 0 2.67375 0 3V16.2C0 17.1925 0.788574 18 1.75781 18H18.2422C19.2114 18 20 17.1925 20 16.2V3.01266V3.01031C19.9776 2.61625 19.7409 2.40234 19.4177 2.40016ZM7.07031 1.8C7.07031 1.46922 7.33322 1.2 7.65625 1.2H12.3438C12.6668 1.2 12.9297 1.46922 12.9297 1.8V2.4H7.07031V1.8ZM16.7815 9.18969L18.6011 3.6H1.39893L3.21854 9.18969C3.29834 9.43516 3.52173 9.6 3.77426 9.6H7.07031V9C7.07031 8.66859 7.33261 8.4 7.65625 8.4H12.3438C12.6674 8.4 12.9297 8.66859 12.9297 9V9.6H16.2257C16.4783 9.6 16.7017 9.43516 16.7815 9.18969ZM11.7578 9.6V10.8H8.24219V9.6H11.7578ZM18.2422 16.8C18.5652 16.8 18.8281 16.5308 18.8281 16.2V6.69734L17.8932 9.56922C17.6537 10.3055 16.9835 10.8 16.2257 10.8H12.9297V11.4C12.9297 11.7314 12.6674 12 12.3438 12H7.65625C7.33261 12 7.07031 11.7314 7.07031 11.4V10.8H3.77426C3.01651 10.8 2.34634 10.3055 2.10678 9.56922L1.17188 6.69734V16.2C1.17188 16.5308 1.43478 16.8 1.75781 16.8H18.2422Z" fill="white"/>
</svg>
