<svg xmlns="http://www.w3.org/2000/svg" width="80" height="80" viewBox="0 0 80 80"><g><g><path fill="#72bb53" d="M34.951 50.64l-13.08-13.038a1.855 1.855 0 0 0-2.62 0 1.848 1.848 0 0 0 0 2.616l14.362 14.336c.349.35.825.544 1.32.537a1.8 1.8 0 0 0 1.281-.519l25.288-24.128c.733-.709.757-1.875.054-2.613a1.863 1.863 0 0 0-2.618-.076zM3.717 40.013C3.717 20.077 19.975 3.85 39.95 3.85S76.18 20.077 76.18 40.013c0 19.937-16.258 36.165-36.232 36.165S3.717 59.95 3.717 40.013zm-.676-15.261a39.812 39.812 0 0 0 8.666 43.451c15.598 15.57 40.887 15.57 56.484 0 15.598-15.568 15.598-40.81 0-56.379A39.73 39.73 0 0 0 39.95.14C23.79.137 9.224 9.851 3.04 24.752z"/></g></g></svg>