<svg xmlns="http://www.w3.org/2000/svg" width="15" height="15" viewBox="0 0 15 15"><defs><clipPath id="zbasa"><path fill="#fff" d="M8 7h6.5a.5.5 0 0 1 0 1H8v6.5a.5.5 0 0 1-1 0V8H.5a.5.5 0 0 1 0-1H7V.5a.5.5 0 0 1 1 0z"/></clipPath></defs><g><g><path fill="#d8d8d8" d="M8 7h6.5a.5.5 0 0 1 0 1H8v6.5a.5.5 0 0 1-1 0V8H.5a.5.5 0 0 1 0-1H7V.5a.5.5 0 0 1 1 0z"/><path fill="none" stroke="#979797" stroke-miterlimit="50" stroke-width="2" d="M8 7v0h6.5a.5.5 0 0 1 0 1H8v6.5a.5.5 0 0 1-1 0V8v0H.5a.5.5 0 0 1 0-1H7v0V.5a.5.5 0 0 1 1 0z" clip-path="url(&quot;#zbasa&quot;)"/></g></g></svg>