<svg xmlns="http://www.w3.org/2000/svg" width="22" height="20" viewBox="0 0 22 20"><g><g><path fill="gray" d="M16.507 8.536l3.772-3.184-3.772-3.184V3.36a.677.677 0 0 1-.688.664h-1.095c-3.564 0-6.656 2.446-7.4 5.766 1.688-1.966 4.182-3.11 6.88-3.11h1.615c.38 0 .688.297.688.663zm5.258-3.684a.65.65 0 0 1 0 .999l-5.5 4.647a.706.706 0 0 1-.737.105.664.664 0 0 1-.403-.604V8.007h-.927c-2.625 0-5.023 1.284-6.414 3.433L6.77 13.006a.692.692 0 0 1-.583.312.723.723 0 0 1-.235-.04.662.662 0 0 1-.445-.716l.363-2.456c.625-4.225 4.429-7.41 8.848-7.41h.407V.704c0-.26.158-.496.403-.604a.702.702 0 0 1 .737.105zm-4.578 7.139c.38 0 .688.297.688.664v6.639a.676.676 0 0 1-.688.663H.688A.676.676 0 0 1 0 19.294V3.36c0-.367.308-.664.688-.664h6.875c.379 0 .687.297.687.664a.676.676 0 0 1-.688.664H1.375V18.63H16.5v-5.975c0-.367.308-.664.688-.664z"/></g></g></svg>