<svg xmlns="http://www.w3.org/2000/svg" width="18" height="22" viewBox="0 0 18 22"><g><g><path fill="#ff5050" d="M16.73 2.921c.316 0 .57.248.57.555a.562.562 0 0 1-.57.554H3.736a.562.562 0 0 1-.57-.554c0-.307.255-.555.57-.555zm.66-1.816H3.54c-1.313 0-2.384 1.04-2.384 2.317 0 1.276 1.071 2.317 2.384 2.317H17.39c.316 0 .57.248.57.554v15.13a.562.562 0 0 1-.57.554H3.541c-1.939 0-3.521-1.532-3.521-3.421V3.422C.02 1.537 1.597 0 3.541 0h13.843c.316 0 .571.248.571.555a.56.56 0 0 1-.566.55zM1.156 5.937v12.619c0 1.276 1.071 2.317 2.384 2.317h13.277V6.843H3.541a3.556 3.556 0 0 1-2.384-.906z"/></g></g></svg>