<svg width="18" height="18" viewBox="0 0 18 18" fill="none" xmlns="http://www.w3.org/2000/svg">
<path fill-rule="evenodd" clip-rule="evenodd" d="M14.7064 1.63477H1.63406C0.733251 1.63477 0 2.3676 0 3.26878V13.4816C0 13.5901 0.0430851 13.6938 0.119681 13.7704L4.2048 17.8555C4.2814 17.9321 4.38511 17.9752 4.49364 17.9752H14.7064C15.6072 17.9752 16.3404 17.2424 16.3404 16.3411V3.26878C16.3404 2.3676 15.6072 1.63477 14.7064 1.63477ZM4.08512 16.5805L1.39469 13.8901H3.26811C3.71891 13.8901 4.08512 14.2567 4.08512 14.7071V16.5805ZM14.7064 17.1582C15.1571 17.1582 15.5234 16.7915 15.5234 16.3411V3.26878C15.5234 2.8184 15.1572 2.45177 14.7064 2.45177H1.63406C1.18325 2.45177 0.817008 2.8184 0.817008 3.26878V13.073H3.26807C4.16888 13.073 4.90213 13.8059 4.90213 14.7071V17.1582H14.7064Z" fill="#999999"/>
<path fill-rule="evenodd" clip-rule="evenodd" d="M16.3403 0H3.2679C3.04209 0 2.85938 0.182719 2.85938 0.408523C2.85938 0.634328 3.04209 0.817047 3.2679 0.817047H16.3402C16.791 0.817047 17.1572 1.18367 17.1572 1.63406V14.7064C17.1572 14.9322 17.34 15.1149 17.5658 15.1149C17.7916 15.1149 17.9743 14.9322 17.9743 14.7064V1.63406C17.9743 0.73283 17.2411 0 16.3403 0Z" fill="#999999"/>
</svg>
