<svg width="60" height="60" viewBox="0 0 60 60" fill="none" xmlns="http://www.w3.org/2000/svg">
<path fill-rule="evenodd" clip-rule="evenodd" d="M46.3982 2.61333L56.9849 13.1556C58.652 14.8209 59.5524 17.0311 59.5524 19.4609V39.7751C59.5524 42.5244 58.5618 44.7351 56.7147 46.5778L46.6689 56.6284C44.6418 58.6551 42.3898 59.4667 39.6422 59.4667H19.9111C17.0724 59.5084 14.8653 58.6076 12.884 56.6284L2.83778 46.5778C0.946667 44.7351 0 42.572 0 39.7751V19.4609C0 17.0311 0.901333 14.8209 2.56711 13.1556L13.1542 2.61333C14.8653 0.900889 17.1178 0 19.7756 0H39.7764C42.4351 0 44.6418 0.900889 46.3982 2.61333ZM55.6338 19.9111V26.4C55.6338 27.0756 55.3182 27.4373 54.6871 27.4373H51.6698V25.3156C51.6698 23.7396 51.444 22.9276 50.0929 22.9276H48.7409C47.3902 22.9276 47.1644 23.7396 47.1644 25.3156V27.4373H45.0476C43.4716 27.4373 42.66 27.6622 42.66 29.0133V30.4533C42.66 31.8044 43.4716 32.0298 45.0476 32.0298H47.1644V34.1453C47.1644 35.7218 47.3902 36.5333 48.7409 36.5333H50.0929C51.444 36.5333 51.6698 35.7218 51.6698 34.1453V32.0298H54.6876C55.2733 32.0298 55.5889 32.344 55.6338 32.9307V39.7751C55.6338 41.4462 55.1378 42.7084 53.9671 43.8342L43.9213 53.8787C42.7498 55.0462 41.4436 55.5911 39.8227 55.5911H19.7302C18.1089 55.5911 16.8031 55.0462 15.6316 53.8787L5.58622 43.8342C4.41556 42.6609 3.87333 41.4462 3.91956 39.7751V19.9111C3.91956 18.2462 4.46044 16.8062 5.67644 15.5853L15.9018 5.22667C16.9382 4.18978 18.244 3.87556 19.7302 3.87556H39.8227C41.3084 3.87556 42.6147 4.18978 43.6511 5.22667L53.8769 15.5853C55.0476 16.8062 55.6338 18.2462 55.6338 19.9111ZM20.6844 17.7067C20.6844 16.3973 19.8724 16.1307 18.2964 16.1307H14.1969C12.6209 16.1307 11.8098 16.3973 11.8098 17.7067V19.1942C11.8098 20.4978 12.6209 20.7707 14.1964 20.7707H15.1431C15.7284 20.7707 15.9982 21.0844 15.9982 21.9853V41.4462C15.9982 43.0222 16.2693 43.8342 17.576 43.8342H19.1062C20.4138 43.8342 20.6844 43.0222 20.6844 41.4462V17.7067ZM36.4889 35.9467C36.4889 38.7853 35.4524 39.9111 32.5689 39.9111C29.6867 39.9111 28.6502 38.7853 28.6502 35.9467C28.6502 33.1084 29.6867 31.8044 32.5689 31.8044C35.4524 31.8044 36.4889 33.1084 36.4889 35.9467ZM32.5689 19.7751C30.0924 19.7751 29.1009 20.6756 29.1009 23.6978C29.1009 26.6253 30.0924 27.6151 32.5689 27.6151C35.0471 27.6151 36.0387 26.6253 36.0387 23.6978C36.0387 20.6756 35.0471 19.7751 32.5689 19.7751ZM41.1289 36.5809C41.1289 33.2031 40.9036 30.6311 37.8844 29.464C40.4071 27.6151 40.452 25.7244 40.452 24.1898V22.6609C40.1818 17.5707 38.4707 15.6329 32.5689 15.6329C26.6684 15.6329 24.9569 17.5707 24.6862 22.6609V24.1898C24.6862 25.7244 24.7311 27.6151 27.2538 29.464C24.236 30.6311 24.0107 33.2031 24.0107 36.5809C24.0107 41.5822 25.7671 44.0596 32.5689 44.1898C39.3711 44.0596 41.1289 41.5822 41.1289 36.5809Z" fill="#CCCCCC"/>
</svg>
