<svg xmlns="http://www.w3.org/2000/svg" width="20" height="24" viewBox="0 0 20 24"><g><g><path fill="gray" d="M17.814 21.8c.501-.476.745-1.127.745-1.99 0-.449-.015-.891-.045-1.315a12.858 12.858 0 0 0-.175-1.362c-.086-.48-.196-.931-.327-1.34a6.103 6.103 0 0 0-.51-1.152 3.95 3.95 0 0 0-.691-.908 2.76 2.76 0 0 0-.9-.56 3.228 3.228 0 0 0-1.105-.213c-.05.026-.137.076-.278.169-.289.188-.612.396-.987.636-.415.264-.948.502-1.586.709a6.418 6.418 0 0 1-1.975.317c-.66 0-1.324-.107-1.975-.318-.638-.205-1.171-.444-1.585-.708-.367-.234-.7-.449-.988-.636a3.735 3.735 0 0 0-.278-.169c-.403.011-.774.083-1.104.213-.357.142-.66.33-.9.56-.258.246-.49.552-.693.908a6.124 6.124 0 0 0-.508 1.152c-.131.409-.241.86-.327 1.34-.088.487-.147.945-.176 1.362-.03.425-.044.867-.044 1.316 0 .862.244 1.513.745 1.99.51.486 1.189.722 2.073.722h11.52c.885 0 1.563-.236 2.074-.722zm2.099-3.403c.032.456.048.931.048 1.414 0 1.249-.397 2.26-1.18 3.005-.774.736-1.796 1.11-3.04 1.11H4.22c-1.245 0-2.268-.374-3.041-1.11C.397 22.071 0 21.06 0 19.811c0-.48.016-.956.048-1.413.032-.467.097-.976.194-1.512.097-.541.222-1.053.371-1.52.155-.484.365-.96.625-1.418.27-.474.586-.887.942-1.228a4.15 4.15 0 0 1 1.354-.85 4.672 4.672 0 0 1 1.727-.313c.245 0 .48.1.937.397.285.186.613.397.976.63.313.2.738.386 1.262.555.512.166 1.031.25 1.544.25.513 0 1.032-.084 1.544-.25.524-.169.949-.356 1.262-.556.367-.234.695-.446.976-.629.456-.297.692-.397.936-.397.622 0 1.204.105 1.728.313.527.208.982.494 1.354.85.355.34.672.753.942 1.228.26.457.47.934.625 1.418.15.467.275.979.372 1.52.096.537.161 1.045.194 1.511zM6.747 2.68c-.86.86-1.278 1.869-1.278 3.083 0 1.215.418 2.224 1.278 3.083.86.86 1.868 1.278 3.083 1.278 1.214 0 2.223-.418 3.083-1.278.86-.86 1.277-1.868 1.277-3.083 0-1.214-.418-2.223-1.277-3.083-.86-.86-1.869-1.277-3.083-1.277-1.215 0-2.224.418-3.083 1.277zm3.078 8.846c-1.582 0-2.952-.568-4.071-1.688-1.12-1.12-1.687-2.491-1.687-4.075 0-1.583.567-2.954 1.687-4.074C6.873.568 8.242 0 9.824 0c1.582 0 2.952.568 4.071 1.688 1.12 1.12 1.687 2.491 1.687 4.074 0 1.584-.567 2.954-1.686 4.075-1.12 1.12-2.49 1.688-4.071 1.688z"/></g></g></svg>