<svg width="40" height="34" viewBox="0 0 40 34" fill="none" xmlns="http://www.w3.org/2000/svg">
<path fill-rule="evenodd" clip-rule="evenodd" d="M36.7787 14.7783H37.7295C38.959 14.7783 39.959 15.7659 39.9672 16.9802V21.894C39.9672 23.1083 38.9672 24.0959 37.7377 24.0959H36.7869V29.7464C36.7869 32.0454 34.8934 33.9235 32.5574 33.9235H2.85246C1.27869 33.9235 0 32.6606 0 31.1063V3.46921V3.42064C0.0245902 1.55064 1.57377 0.0449219 3.46721 0.0449219H28.8279C30.4016 0.0449219 31.6803 1.30778 31.6803 2.86206L31.6721 4.95873H32.5492C34.877 4.95873 36.7787 6.82873 36.7787 9.13587V14.7783ZM28.8279 1.98778H3.46721C2.63934 1.98778 1.96721 2.65968 1.96721 3.4773C1.96721 4.29492 2.63934 4.95873 3.46721 4.95873H29.7049L29.7131 2.85397C29.7131 2.37635 29.3115 1.98778 28.8279 1.98778ZM34.8115 29.7383C34.8115 30.9687 33.7951 31.9725 32.5492 31.9725H2.84426C2.36066 31.9725 1.95902 31.584 1.95902 31.0983V6.56159C2.41803 6.78016 2.92623 6.90159 3.46721 6.90159H32.5492C33.7951 6.90159 34.8115 7.9054 34.8115 9.13587V14.7783H28.0984C26.8689 14.7783 25.8689 15.7659 25.8689 16.9802V21.894C25.8689 23.1083 26.8689 24.0959 28.0984 24.0959H34.8115V29.7383ZM37.7295 22.153C37.877 22.153 37.9918 22.0397 37.9918 21.894V16.9802C37.9918 16.8344 37.8689 16.7211 37.7295 16.7211H28.1066C27.959 16.7211 27.8443 16.8425 27.8443 16.9802V21.894C27.8443 22.0397 27.959 22.153 28.1066 22.153H37.7295Z" fill="#CCCCCC"/>
</svg>
