<svg width="17" height="22" viewBox="0 0 17 22" fill="none" xmlns="http://www.w3.org/2000/svg">
<path fill-rule="evenodd" clip-rule="evenodd" d="M10.3741 0C9.14213 0 8.13982 1.00342 8.13982 2.23694C8.13982 3.47033 9.14213 4.47389 10.3741 4.47389C11.6064 4.47389 12.6087 3.47047 12.6087 2.23694C12.6087 1.00342 11.6064 0 10.3741 0ZM10.3741 0.968553C11.0728 0.968553 11.6413 1.53751 11.6413 2.23694C11.6413 2.93624 11.0728 3.50533 10.3741 3.50533C9.67549 3.50533 9.1073 2.93638 9.1073 2.23694C9.1073 1.53751 9.67549 0.968553 10.3741 0.968553ZM0.324243 9.07867C0.0816822 8.96631 -0.00691133 8.68571 0.0883163 8.43582C2.34019 2.53747 11.4663 5.7355 11.4663 5.7355C11.7238 5.80426 11.8772 6.06854 11.8093 6.32645L9.92054 13.5214C9.86359 13.7389 9.63043 13.9295 9.32996 13.8668C9.06819 13.812 8.91698 13.5342 8.98498 13.2755L10.7512 6.54728C10.7512 6.54728 3.12358 3.94437 0.966373 8.84262C0.858292 9.08725 0.566528 9.19074 0.324243 9.07867ZM13.0234 7.58709C13.0234 7.31964 12.8067 7.10282 12.5396 7.10282C12.2722 7.10282 12.0559 7.31964 12.0559 7.58696C12.0559 9.29355 12.5356 11.3171 16.1915 11.9773C17.0671 12.1707 17.1587 11.159 16.4501 11.0389C13.0256 10.4515 13.0234 8.66399 13.0234 7.58709ZM8.75168 15.6242C7.65428 15.3866 6.86344 14.8546 6.40098 14.0424C5.59176 12.6209 6.11917 10.8636 6.17915 10.6762L7.18976 7.00997C7.26093 6.75206 7.52685 6.60083 7.78489 6.67195C8.04224 6.74321 8.19358 7.0097 8.12241 7.26761L7.10904 10.9442L7.1061 10.954C7.10478 10.9586 7.10346 10.9632 7.10185 10.9675L7.10179 10.9677C7.09404 10.992 6.62112 12.4787 7.24366 13.5667C7.56458 14.1272 8.14065 14.5009 8.9561 14.6773C10.0332 14.9106 10.8004 15.4621 11.2369 16.3172C12.2748 18.3513 10.9766 21.3656 10.921 21.4929C10.8414 21.6744 10.6555 21.9239 10.2716 21.8291C9.92178 21.7426 9.928 21.3494 10.0348 21.1048C10.0467 21.0777 11.2048 18.3804 10.3744 16.7561C10.0722 16.1654 9.5417 15.7953 8.75168 15.6242ZM7.81931 16.4968C7.77287 16.6338 6.64907 19.8003 2.34752 20.9571C2.08948 21.0266 1.91865 21.2977 2.00614 21.5506C2.16388 22.0089 2.55328 21.9047 2.59838 21.8926L2.59893 21.8925C7.4243 20.5952 8.68576 16.9587 8.73703 16.8045C8.82134 16.5511 8.68423 16.2765 8.43076 16.192C8.17783 16.1079 7.90431 16.2443 7.81931 16.4968Z" fill="#999999"/>
</svg>
