<svg xmlns="http://www.w3.org/2000/svg" width="16" height="15" viewBox="0 0 16 15"><g><g><path fill="gray" d="M14.373 6.868h-1.307c-.211 0-.379.17-.379.376v6.687h-2.215V8.794a.381.381 0 0 0-.384-.376H5.63c-.21 0-.378.17-.378.376v5.138H3.037V7.244a.381.381 0 0 0-.384-.376H1.35l3.031-2.762L7.862.932l3.48 3.174zM8.121.154a.384.384 0 0 0-.519-.006L3.863 3.561.141 6.953a.372.372 0 0 0-.141.29c0 .207.167.376.378.376h1.897v6.688c0 .206.167.375.378.375H5.63c.211 0 .384-.169.384-.375V9.164H9.71v5.143c0 .206.167.375.378.375h2.978c.21 0 .383-.169.383-.375V7.619h1.891v-.005a.384.384 0 0 0 .281-.117.375.375 0 0 0-.021-.529l-3.74-3.407z"/></g></g></svg>