<svg width="20" height="20" viewBox="0 0 20 20" fill="none" xmlns="http://www.w3.org/2000/svg">
<path fill-rule="evenodd" clip-rule="evenodd" d="M17.7322 17.4398C17.585 17.577 17.3877 17.6562 17.1792 17.6562H2.81984C2.54472 17.6562 2.28888 17.5183 2.1424 17.2909C1.99592 17.0636 1.97932 16.7787 2.09848 16.5366L3.5712 13.5444V6.27523C3.5712 5.39675 3.75708 4.55985 4.09245 3.80004L5.33836 5.04595C5.22976 5.43799 5.1718 5.85013 5.1718 6.27523V13.7224C5.1718 13.8395 5.14484 13.9552 5.09288 14.0607L4.09224 16.0938H15.9068L15.4422 15.1498L17.7322 17.4398ZM5.01883 2.3122C6.19859 0.901908 7.99318 0 9.99952 0C13.5441 0 16.4278 2.81508 16.4278 6.27523V13.5444L16.5992 13.8926L14.8272 12.1206V6.27523C14.8272 3.67664 12.6615 1.5625 9.99952 1.5625C8.4272 1.5625 7.02802 2.30006 6.14599 3.43936L5.01883 2.3122ZM12.0003 18.4375C12.4423 18.4375 12.8006 18.7873 12.8006 19.2188C12.8006 19.6502 12.4423 20 12.0003 20H7.99876C7.55676 20 7.19844 19.6502 7.19844 19.2188C7.19844 18.7873 7.55676 18.4375 7.99876 18.4375H12.0003Z" fill="#CCCCCC"/>
<rect x="0.828125" y="0.121094" width="26" height="1" rx="0.5" transform="rotate(45 0.828125 0.121094)" fill="#CCCCCC"/>
</svg>
