<svg xmlns="http://www.w3.org/2000/svg" width="22" height="24" viewBox="0 0 22 24"><g><g><path fill="gray" d="M19.113 7.598c-.804 0-1.57.294-2.165.813a3.296 3.296 0 0 0-4.217-.096.694.694 0 0 0-.23 0 3.293 3.293 0 0 0-4.217.096 3.296 3.296 0 0 0-3.477-.54c.734-3.678 3.956-6.456 7.809-6.456s7.075 2.778 7.809 6.456a3.287 3.287 0 0 0-1.312-.273zM12.621 0C7.453 0 3.249 4.246 3.249 9.465c0 .39.316.707.703.707a.699.699 0 0 0 .579-.31c.358-.531.952-.849 1.588-.849.636 0 1.23.318 1.588.85a.699.699 0 0 0 1.158 0c.359-.532.953-.85 1.589-.85.568 0 1.103.255 1.466.69v4.655h-.588c-.387 0-.7.317-.7.707 0 .39.313.708.7.708h.588v2.744H5.741l-4.535-4.58a.696.696 0 0 0-.99 0 .712.712 0 0 0 0 1l4.74 4.788c.131.132.31.207.495.207h2.566L6.14 22.913a.712.712 0 0 0 .216.977c.326.21.759.112.967-.218l2.353-3.74h2.244v3.36c0 .391.314.708.7.708.387 0 .7-.317.7-.707v-3.361h2.244l2.354 3.74a.698.698 0 0 0 .967.218.712.712 0 0 0 .216-.977l-1.877-2.981h2.566c.387 0 .7-.317.7-.707a.704.704 0 0 0-.7-.708H13.32v-2.744h.589c.387 0 .7-.317.7-.708a.704.704 0 0 0-.7-.707h-.589V9.703c.363-.435.898-.69 1.467-.69.636 0 1.23.318 1.588.85a.699.699 0 0 0 1.158 0c.359-.532.953-.85 1.589-.85.635 0 1.23.318 1.588.85.13.193.35.31.58.31.388 0 .701-.317.701-.708 0-5.22-4.204-9.465-9.371-9.465z"/></g></g></svg>