<svg width="20" height="16" viewBox="0 0 20 16" fill="none" xmlns="http://www.w3.org/2000/svg">
<path fill-rule="evenodd" clip-rule="evenodd" d="M0 4.89832C0 3.64003 1.04082 2.61088 2.32245 2.61088H5.56735L5.6449 2.27722C5.96327 0.938523 7.15918 0.00585938 8.55102 0.00585938H11.4449C12.8408 0.00585938 14.0367 0.938523 14.351 2.27722L14.4286 2.61088H17.6776C18.9592 2.61088 20 3.63601 20 4.89832V13.5898C20 14.9164 18.9061 15.9938 17.5592 15.9938H2.44082C1.09388 15.9938 0 14.9164 0 13.5898V4.89832ZM5.96735 3.59581H2.32245C1.59184 3.59581 1 4.17872 1 4.89832V13.5898C1 14.3737 1.6449 15.0089 2.44082 15.0089H17.5551C18.351 15.0089 18.9959 14.3737 18.9959 13.5898V4.89832C18.9959 4.17872 18.4041 3.59581 17.6735 3.59581H14.0286C13.7959 3.59581 13.5959 3.43501 13.5429 3.2139L13.3755 2.49832C13.1633 1.60988 12.3714 0.990784 11.4449 0.990784H8.55102C7.62449 0.990784 6.83265 1.60988 6.62041 2.49832L6.45306 3.2139C6.4 3.43903 6.2 3.59581 5.96735 3.59581ZM3.38367 6.35762C3.01398 6.35762 2.71429 6.06244 2.71429 5.69832C2.71429 5.3342 3.01398 5.03903 3.38367 5.03903C3.75337 5.03903 4.05306 5.3342 4.05306 5.69832C4.05306 6.06244 3.75337 6.35762 3.38367 6.35762Z" fill="#808080"/>
<path style="fill: none; stroke: currentColor;" d="M13.5 9C13.5 10.933 11.933 12.5 10 12.5C8.067 12.5 6.5 10.933 6.5 9C6.5 7.067 8.067 5.5 10 5.5C11.933 5.5 13.5 7.067 13.5 9Z" stroke="#808080"/>
</svg>
