<svg width="14" height="20" viewBox="0 0 14 20" fill="none" xmlns="http://www.w3.org/2000/svg">
<path fill-rule="evenodd" clip-rule="evenodd" d="M12.2225 9.01227V5.49991C12.2225 2.47327 9.79748 0.0173429 6.7999 0C3.80231 0.0173429 1.37731 2.47327 1.37731 5.49991V9.01227C0.525022 10.1604 0.0136719 11.5808 0.0136719 13.1249C0.0136719 16.9112 3.04892 19.9825 6.7999 19.9998C10.5509 19.9825 13.5861 16.9112 13.5861 13.1249C13.5861 11.5808 13.0748 10.1604 12.2225 9.01227ZM2.74094 7.63455V5.49991C2.74094 3.2323 4.55508 1.39234 6.7999 1.37502C9.04472 1.39234 10.8589 3.2323 10.8589 5.49991V7.63455C9.72607 6.77497 8.32436 6.25712 6.7999 6.24998C5.27543 6.25712 3.87372 6.77497 2.74094 7.63455ZM6.7999 11.7507C7.16144 11.7675 7.44976 12.0687 7.44976 12.4374V15.1874C7.44976 15.5561 7.16144 15.8573 6.7999 15.8742C6.43835 15.8573 6.15004 15.5561 6.15004 15.1874V12.4374C6.15004 12.0687 6.43835 11.7675 6.7999 11.7507ZM1.37731 13.1249C1.37731 10.0983 3.80231 7.64234 6.7999 7.625C9.79748 7.64234 12.2225 10.0983 12.2225 13.1249C12.2225 16.1515 9.79748 18.6075 6.7999 18.6248C3.80231 18.6075 1.37731 16.1515 1.37731 13.1249Z" fill="#FF5050"/>
</svg>
