<svg width="40" height="34" viewBox="0 0 40 34" fill="none" xmlns="http://www.w3.org/2000/svg">
<path fill-rule="evenodd" clip-rule="evenodd" d="M0 10.2108C0 7.58471 2.08163 5.43683 4.6449 5.43683H11.1347L11.2898 4.74044C11.9265 1.94652 14.3184 0 17.102 0H22.8898C25.6816 0 28.0735 1.94652 28.702 4.74044L28.8571 5.43683H35.3551C37.9184 5.43683 40 7.57632 40 10.2108V28.3504C40 31.1191 37.8122 33.3677 35.1184 33.3677H4.88163C2.18776 33.3677 0 31.1191 0 28.3504V10.2108ZM11.9347 7.49242H4.6449C3.18367 7.49242 2 8.70899 2 10.2108V28.3504C2 29.9865 3.2898 31.3121 4.88163 31.3121H35.1102C36.702 31.3121 37.9918 29.9865 37.9918 28.3504V10.2108C37.9918 8.70899 36.8082 7.49242 35.3469 7.49242H28.0571C27.5918 7.49242 27.1918 7.15681 27.0857 6.69535L26.751 5.2019C26.3265 3.34768 24.7429 2.05559 22.8898 2.05559H17.102C15.249 2.05559 13.6653 3.34768 13.2408 5.2019L12.9061 6.69535C12.8 7.1652 12.4 7.49242 11.9347 7.49242ZM6.76735 13.2565C6.02796 13.2565 5.42857 12.6404 5.42857 11.8805C5.42857 11.1205 6.02796 10.5045 6.76735 10.5045C7.50673 10.5045 8.10612 11.1205 8.10612 11.8805C8.10612 12.6404 7.50673 13.2565 6.76735 13.2565Z" fill="#CCCCCC"/>
</svg>
