<svg width="18" height="18" viewBox="0 0 18 18" fill="none" xmlns="http://www.w3.org/2000/svg">
<path fill-rule="evenodd" clip-rule="evenodd" d="M9 0C4 0 0 4 0 9C0 14 4 18 9 18C9.8 18 10.5 17.3 10.5 16.5C10.5 16.1 10.4 15.8 10.1 15.5C9.9 15.2 9.7 14.9 9.7 14.5C9.7 13.7 10.4 13 11.2 13H13C15.8 13 18 10.8 18 8C18 3.6 14 0 9 0ZM3.5 9C2.7 9 2 8.3 2 7.5C2 6.7 2.7 6 3.5 6C4.3 6 5 6.7 5 7.5C5 8.3 4.3 9 3.5 9ZM5 3.5C5 4.3 5.7 5 6.5 5C7.3 5 8 4.3 8 3.5C8 2.7 7.3 2 6.5 2C5.7 2 5 2.7 5 3.5ZM11.5 5C10.7 5 10 4.3 10 3.5C10 2.7 10.7 2 11.5 2C12.3 2 13 2.7 13 3.5C13 4.3 12.3 5 11.5 5ZM13 7.5C13 8.3 13.7 9 14.5 9C15.3 9 16 8.3 16 7.5C16 6.7 15.3 6 14.5 6C13.7 6 13 6.7 13 7.5Z" fill="#FF5050"/>
</svg>
