<svg xmlns="http://www.w3.org/2000/svg" width="20" height="17" viewBox="0 0 20 17"><g><g><path fill="gray" d="M18.875 11.064h-4.821a.129.129 0 0 1-.132-.129V8.487c0-.068.058-.129.132-.129h4.82c.07 0 .132.057.132.13v2.447a.129.129 0 0 1-.132.13zm-1.47 3.794c0 .614-.507 1.116-1.13 1.116H1.422a.44.44 0 0 1-.442-.437V3.278c.229.11.483.17.754.17h14.54c.624 0 1.132.502 1.132 1.116v2.82h-3.357c-.615 0-1.115.493-1.115 1.1v2.454c0 .607.5 1.1 1.115 1.1h3.357zM1.736.99h12.689a.44.44 0 0 1 .443.434l-.005 1.052H1.734a.746.746 0 0 1-.75-.74.75.75 0 0 1 .75-.746zm17.13 6.396h-.476V4.565c0-1.153-.95-2.088-2.114-2.088h-.439l.004-1.048C15.84.65 15.2.02 14.414.02H1.734C.787.02.012.773 0 1.708V15.55c0 .777.64 1.408 1.426 1.408H16.28c1.168 0 2.114-.939 2.114-2.088v-2.826h.476a1.11 1.11 0 0 0 1.115-1.1V8.488a1.115 1.115 0 0 0-1.12-1.101z"/></g></g></svg>