<svg xmlns="http://www.w3.org/2000/svg" width="22" height="18" viewBox="0 0 22 18"><g><g><path fill="#ccc" d="M10.57 16.138c0-.234.193-.425.43-.425s.43.19.43.425a.428.428 0 0 1-.43.426.428.428 0 0 1-.43-.426zm7.157-1.854c1.032 0 1.872.832 1.872 1.854 0 1.022-.84 1.854-1.872 1.854-.83 0-1.535-.537-1.78-1.28H12.72c-.238 0-.43-.223-.43-.5 0-.276.192-.5.43-.5h3.186a1.872 1.872 0 0 1 1.822-1.428zm-1.012 1.854c0 .553.454 1.003 1.012 1.003a1.01 1.01 0 0 0 1.013-1.003c0-.553-.454-1.003-1.013-1.003-.558 0-1.013.45-1.013 1.003zM4.273 17.992A1.865 1.865 0 0 1 2.4 16.138c0-1.022.84-1.854 1.872-1.854.884 0 1.627.61 1.822 1.429H9.28c.238 0 .43.223.43.5 0 .276-.192.5-.43.5H6.053a1.874 1.874 0 0 1-1.78 1.28zM3.26 16.138c0 .553.454 1.003 1.013 1.003.558 0 1.012-.45 1.012-1.003 0-.553-.454-1.003-1.012-1.003-.559 0-1.013.45-1.013 1.003zm14.467-9.59c-1.279 0-2.32-1.03-2.32-2.297 0-1.266 1.041-2.297 2.32-2.297 1.28 0 2.32 1.03 2.32 2.297 0 1.267-1.04 2.298-2.32 2.298zm0-3.743c-.805 0-1.46.649-1.46 1.446 0 .798.655 1.447 1.46 1.447.805 0 1.46-.65 1.46-1.447s-.655-1.446-1.46-1.446zM4.273 6.55c-1.28 0-2.32-1.031-2.32-2.298 0-1.266 1.04-2.297 2.32-2.297 1.279 0 2.32 1.03 2.32 2.297 0 1.267-1.041 2.298-2.32 2.298zm0-3.744c-.805 0-1.46.649-1.46 1.446 0 .798.655 1.447 1.46 1.447.805 0 1.46-.65 1.46-1.447s-.655-1.446-1.46-1.446zm13.07 10.148l-3.52-6.982a4.166 4.166 0 0 1-.369-1.72c0-2.333 1.917-4.231 4.273-4.231S22 1.918 22 4.251a4.166 4.166 0 0 1-.369 1.72l-3.52 6.982a.43.43 0 0 1-.768 0zm.384-1.143l3.13-6.21c.188-.426.284-.88.284-1.349 0-1.863-1.532-3.38-3.414-3.38-1.882 0-3.413 1.517-3.413 3.38 0 .47.095.923.283 1.35zM4.273 13.188a.43.43 0 0 1-.385-.235L.368 5.97A4.166 4.166 0 0 1 0 4.251C.001 1.918 1.918.02 4.274.02s4.273 1.898 4.273 4.231a4.166 4.166 0 0 1-.369 1.72l-3.52 6.982a.43.43 0 0 1-.384.235zm-3.13-7.587l3.13 6.21 3.13-6.21c.188-.427.283-.88.283-1.35 0-1.863-1.531-3.38-3.413-3.38S.859 2.388.859 4.251c0 .47.096.923.283 1.35z"/></g></g></svg>