<svg xmlns="http://www.w3.org/2000/svg" width="20" height="20" viewBox="0 0 20 20"><g><g><g><path fill="gray" d="M11.618 1.157a7.78 7.78 0 0 1 5.267 2.612 7.775 7.775 0 0 1 1.928 4.583h-7.195zm6.118 1.858A8.92 8.92 0 0 0 11.052 0a.564.564 0 0 0-.566.566v8.348c0 .315.252.566.566.566H19.4a.564.564 0 0 0 .566-.566v-.03a8.928 8.928 0 0 0-2.23-5.87zM1.132 11.057c0-4.101 3.189-7.472 7.22-7.761v7.76c0 .315.252.567.567.567h7.766c-.29 4.029-3.663 7.216-7.766 7.216-4.292 0-7.787-3.493-7.787-7.782zm8.348-.566V2.709a.564.564 0 0 0-.566-.566C4 2.143 0 6.143 0 11.057s4 8.914 8.914 8.914 8.914-4 8.914-8.914a.57.57 0 0 0-.566-.566z"/></g></g></g></svg>