<svg width="20" height="20" viewBox="0 0 20 20" fill="none" xmlns="http://www.w3.org/2000/svg">
<path fill-rule="evenodd" clip-rule="evenodd" d="M18.3368 1.57679L18.3212 1.56159C16.4238 -0.331164 13.3997 -0.526471 11.2786 1.10843C11.0663 1.27159 10.8952 1.41996 10.7403 1.57526L10.7271 1.58884L7.33248 5.00118C7.03512 5.30006 7.03512 5.78465 7.33258 6.08343C7.63004 6.38241 8.11217 6.38231 8.40933 6.08333L11.8165 2.65822L11.8271 2.64751C11.931 2.54445 12.051 2.44139 12.2043 2.32363C13.7279 1.14935 15.9008 1.29322 17.259 2.65843L17.2726 2.67179C18.7601 4.18057 18.7559 6.62506 17.26 8.12924L13.853 11.554C13.5556 11.8529 13.5556 12.3375 13.8531 12.6363C14.0018 12.7857 14.1966 12.8604 14.3915 12.8604C14.5863 12.8604 14.7812 12.7857 14.9299 12.6362L18.337 9.21139C20.4306 7.10618 20.4306 3.68128 18.3368 1.57679ZM11.597 13.8201L8.19187 17.2427C8.18517 17.2495 8.17847 17.2566 8.17197 17.2636C7.79552 17.6359 7.3538 17.9217 6.85776 18.1139C5.43694 18.6668 3.82344 18.3252 2.74801 17.2441C1.24872 15.7356 1.24872 13.2809 2.74801 11.7728L6.15481 8.34996C6.29755 8.20639 6.37786 8.01169 6.37786 7.80863V7.8073C6.37786 7.38455 6.03704 7.04261 5.61644 7.04261C5.39968 7.04261 5.20405 7.13394 5.06537 7.28016L1.67095 10.6906C-0.421432 12.7955 -0.421635 16.2207 1.67075 18.3261C2.69562 19.3564 4.06953 19.9056 5.46882 19.9056C6.11999 19.9055 6.77684 19.7865 7.40628 19.5417C8.10902 19.2696 8.73501 18.8611 9.26679 18.3278C9.27451 18.3202 9.28202 18.3122 9.28943 18.3041L12.6739 14.9024C12.9713 14.6034 12.9713 14.1189 12.6738 13.8201C12.3766 13.5213 11.8945 13.5213 11.597 13.8201ZM6.64517 14.0923C6.45024 14.0923 6.25542 14.0176 6.10669 13.8681C5.80933 13.5692 5.80933 13.0847 6.10689 12.7859L12.824 6.03475C13.1213 5.73598 13.6034 5.73588 13.9008 6.03486C14.1982 6.33363 14.1982 6.81822 13.9007 7.1171L7.18354 13.8682C7.03491 14.0176 6.83999 14.0923 6.64517 14.0923Z" fill="#CCCCCC"/>
</svg>
