<svg width="40" height="40" viewBox="0 0 40 40" fill="none" xmlns="http://www.w3.org/2000/svg">
<path fill-rule="evenodd" clip-rule="evenodd" d="M39.7025 13.0263L39.7019 13.0257L26.8944 0.221944C26.5997 -0.0726791 26.1219 -0.0726791 25.8272 0.221944L23.6921 2.35251C23.5146 2.53053 23.4374 2.78515 23.4861 3.03175L24.5691 8.38496C24.5993 8.53034 24.6711 8.66383 24.7759 8.76911L25.2929 9.28609L17.9622 16.6235C13.8324 14.428 9.01958 14.8929 6.08374 17.831C5.78911 18.1257 5.78911 18.6035 6.08374 18.8982L11.4807 24.2944L0.151 38.7125C-0.0990947 39.046 -0.0315475 39.519 0.301943 39.7691C0.570245 39.9703 0.939302 39.9703 1.2076 39.7691L15.6227 28.4423L21.0189 33.8393C21.3136 34.1339 21.7914 34.1339 22.0861 33.8393C25.0227 30.9035 25.4868 26.0906 23.2936 21.9608L30.6272 14.628L31.1767 15.1774C31.2826 15.2833 31.4176 15.3553 31.5646 15.3842L36.8853 16.4355C37.132 16.484 37.3868 16.4065 37.5646 16.2287L39.6989 14.0936C39.9946 13.7999 39.9962 13.322 39.7025 13.0263ZM5.22345 34.6967L12.5533 25.3676L14.5525 27.3668L5.22345 34.6967ZM32.0846 13.9472L36.785 14.8763L38.1011 13.5593L26.3607 1.81892L25.046 3.13289L26.0037 7.86647L26.8943 8.75628C27.1889 9.051 27.1889 9.52874 26.8943 9.82345L18.6226 18.0951C18.3786 18.3393 18.0002 18.3869 17.7034 18.2106C14.3139 16.1955 10.3215 16.2982 7.71241 18.3918L21.5284 32.2076C23.6219 29.5985 23.7246 25.6061 21.7095 22.2167C21.5333 21.9199 21.5808 21.5414 21.825 21.2974L30.0967 13.0257C30.3914 12.7311 30.8691 12.7311 31.1638 13.0257L32.0846 13.9472Z" fill="#CCCCCC"/>
</svg>
