<svg xmlns="http://www.w3.org/2000/svg" width="20" height="20" viewBox="0 0 20 20"><g><g><path fill="#72bb53" d="M17.105 6.233L13.86 2.987l1.299-1.299c.519-.52 1.298-.52 1.818 0l1.428 1.429c.52.519.52 1.298 0 1.818zM1.522 18.57l.65-3.896.454-.454 3.247 3.246-.455.455zm5.257-2.013l-3.244-3.246 9.343-9.35 3.244 3.246zm12.404-14.35L17.755.78c-.91-1.039-2.597-1.039-3.636 0L12.43 2.467c0 .057-.03.118-.058.187l-11.37 11.37c0 .13-.13.26-.13.39l-.78 4.935c-.13.13 0 .39.13.52.13 0 .39.13.52.13l4.935-.65c.13 0 .26 0 .39-.13L17.494 7.792c0-.095.058-.21.095-.355l1.593-1.593c1.04-.91 1.04-2.598 0-3.636z"/></g></g></svg>