<svg xmlns="http://www.w3.org/2000/svg" width="20" height="19" viewBox="0 0 20 19"><g><g><path fill="gray" d="M12.344 6.531a.59.59 0 0 0-.586-.593.59.59 0 0 0-.586.593.59.59 0 0 0 .586.594.59.59 0 0 0 .586-.594zm-3.516 0a.59.59 0 0 0-.586-.593.59.59 0 0 0-.586.593.59.59 0 0 0 .586.594.59.59 0 0 0 .586-.594zm2.407 2.448c-.33.338-.77.524-1.24.524-.469 0-.91-.186-1.24-.524a.576.576 0 0 0-.827 0 .606.606 0 0 0 0 .844 2.874 2.874 0 0 0 2.067.874c.781 0 1.516-.31 2.067-.874a.606.606 0 0 0 0-.844.576.576 0 0 0-.827 0zM5.898 7.724c0-2.295 1.84-4.162 4.102-4.162 2.262 0 4.102 1.867 4.102 4.162 0 2.294-1.84 4.161-4.102 4.161-2.262 0-4.102-1.867-4.102-4.161zm-1.171-.01c0 2.944 2.363 5.339 5.268 5.339s5.268-2.395 5.268-5.34c0-2.943-2.363-5.338-5.268-5.338S4.727 4.77 4.727 7.714zm13.515 6.528H7.656a.582.582 0 0 0-.414.174l-2.515 2.547v-2.128a.59.59 0 0 0-.586-.593H1.758a.59.59 0 0 1-.586-.594V1.781a.59.59 0 0 1 .586-.593h16.484a.59.59 0 0 1 .586.593v11.867a.59.59 0 0 1-.586.594zM1.758 0C.788 0 0 .8 0 1.781v11.875c0 .982.789 1.781 1.758 1.781h1.797v2.97c0 .24.142.456.361.548a.58.58 0 0 0 .639-.129l3.344-3.389h10.343c.97 0 1.758-.799 1.758-1.78V1.78C20 .8 19.211 0 18.242 0z"/></g></g></svg>