<svg width="18" height="15" viewBox="0 0 18 15" fill="none" xmlns="http://www.w3.org/2000/svg">
<path fill-rule="evenodd" clip-rule="evenodd" d="M16.073 2.7966H9.22495L7.50902 0.718138C7.14262 0.279765 6.60512 0.0175781 6.02792 0.0175781H1.92302C0.86792 0.0175781 0 0.878663 0 1.91593V13.0751C0 14.1084 0.86792 14.9697 1.92302 14.9697H16.077C17.1321 14.9697 18 14.1084 18 13.0712V4.67146C17.996 3.63419 17.1281 2.7966 16.073 2.7966ZM0.796234 13.0712V1.91593C0.796234 1.30921 1.30586 0.800358 1.92302 0.800358H6.02792C6.36232 0.800358 6.68079 0.956968 6.89186 1.21524L8.19374 2.7966H3.95755C2.90643 2.7966 2.03055 3.63419 2.03055 4.67146V14.1867H1.92302C1.30586 14.1867 0.796234 13.6779 0.796234 13.0712ZM16.073 14.1867C16.6902 14.1867 17.1998 13.674 17.1998 13.0712V4.67146C17.1998 4.06865 16.6862 3.57938 16.073 3.57938H3.95755C3.34438 3.57938 2.82678 4.06865 2.82678 4.67146V14.1867H16.073Z" fill="#999999"/>
<path fill-rule="evenodd" clip-rule="evenodd" d="M9.5657 8.19727H10.2028C11.4449 8.19727 12.4602 9.19147 12.4602 10.4165V12.2248C12.4602 12.4402 12.2811 12.6203 12.0621 12.6203H7.70242C7.48352 12.6203 7.32422 12.4402 7.32422 12.2248V10.4165C7.32422 9.19147 8.31958 8.19727 9.5657 8.19727ZM8.12045 11.8374H11.664V10.4165C11.664 9.62201 11.0071 8.98005 10.2028 8.98005H9.5657C8.75752 8.98005 8.12045 9.62593 8.12045 10.4165V11.8374Z" fill="#999999"/>
<path fill-rule="evenodd" clip-rule="evenodd" d="M11.547 6.50712C11.547 7.40736 10.8026 8.13937 9.88687 8.13937C8.97116 8.13937 8.22656 7.40736 8.22656 6.50712C8.22656 5.60688 8.97102 4.875 9.88687 4.875C10.8026 4.875 11.547 5.60688 11.547 6.50712ZM10.7508 6.50725C10.7508 6.03742 10.3646 5.65778 9.88687 5.65778C9.4091 5.65778 9.0228 6.03742 9.0228 6.50725C9.0228 6.97695 9.40897 7.35659 9.88687 7.35659C10.3646 7.35659 10.7508 6.97695 10.7508 6.50725Z" fill="#999999"/>
</svg>
