<svg xmlns="http://www.w3.org/2000/svg" width="64" height="70" viewBox="0 0 64 70"><g><g><path fill="#ff5050" d="M32.594 31.874c.21 1.888.455 3.77.764 5.865-3.83 3.533-8.29 7.001-13.064 7.576v-6.988a4.11 4.11 0 0 0 2.732-3.868v-5.471a4.103 4.103 0 0 0-2.752-3.877c.012-.074.02-.15.02-.227v-4.101a12.444 12.444 0 0 1 12.3 11.091zm.454 26.632c-2.934 5.41-8.344 8.77-14.118 8.77-5.774 0-11.184-3.36-14.12-8.77-2.95-5.436-1.964-10.183-.788-17.536 4.29 3.768 9.3 7.158 14.908 7.158 5.61 0 10.62-3.393 14.915-7.166 1.233 7.806 2.08 12.245-.797 17.544zM5.276 31.874c.695-6.285 5.981-11.053 12.299-11.091v4.101c0 .078.008.154.02.229a4.11 4.11 0 0 0-2.751 3.875v5.47a4.11 4.11 0 0 0 2.731 3.869v6.988c-4.77-.574-9.226-4.037-13.053-7.565.312-2.116.555-4.003.754-5.876zm13.649-4.257c.75 0 1.36.612 1.36 1.367v5.47c0 .753-.61 1.366-1.36 1.366-.75 0-1.36-.613-1.36-1.367v-5.469c0-.754.61-1.367 1.36-1.367zM32.575 0c-8.276 0-15.01 6.747-15.01 15.04v3.008c-7.7.038-14.154 5.848-15.003 13.526C1.08 45.51-1.976 51.721 2.413 59.806 5.786 66.02 12.01 70 18.93 70c6.934 0 13.15-3.993 16.516-10.194 4.318-7.95 1.398-14.287-.15-28.238-.85-7.683-7.294-13.483-15.002-13.52v-3.009c0-6.785 5.51-12.305 12.282-12.305 6.786 0 12.281 5.501 12.281 12.305V35c0 5.277 4.285 9.57 9.552 9.57 5.282 0 9.553-4.282 9.553-9.57V1.367a1.366 1.366 0 1 0-2.73 0V35a6.825 6.825 0 0 1-6.823 6.836c-3.762 0-6.823-3.067-6.823-6.836V15.04c0-8.31-6.71-15.04-15.01-15.04z"/></g></g></svg>