<svg width="14" height="22" viewBox="0 0 14 22" fill="none" xmlns="http://www.w3.org/2000/svg">
<path fill-rule="evenodd" clip-rule="evenodd" d="M6.83185 8.25C5.29502 8.25 3.88163 8.76906 2.74094 9.63464V5.5C2.74094 3.22164 4.57232 1.375 6.83185 1.375C9.09139 1.375 10.9228 3.22164 10.9228 5.5H12.2864C12.2864 2.46261 9.84414 0 6.83185 0C3.81957 0 1.37731 2.46261 1.37731 5.5V11.0124C0.525022 12.1605 0.0136719 13.5809 0.0136719 15.125C0.0136719 18.9221 3.06618 22 6.83185 22C10.5975 22 13.65 18.9221 13.65 15.125C13.65 11.3279 10.5975 8.25 6.83185 8.25ZM6.83185 13.75C6.45549 13.75 6.15004 14.058 6.15004 14.4375V17.1875C6.15004 17.567 6.45549 17.875 6.83185 17.875C7.20822 17.875 7.51367 17.567 7.51367 17.1875V14.4375C7.51367 14.058 7.20822 13.75 6.83185 13.75ZM1.37731 15.125C1.37731 18.1624 3.81957 20.625 6.83185 20.625C9.84414 20.625 12.2864 18.1624 12.2864 15.125C12.2864 12.0876 9.84414 9.625 6.83185 9.625C3.81957 9.625 1.37731 12.0876 1.37731 15.125Z" fill="#72BB53"/>
</svg>
