<svg width="40" height="35" viewBox="0 0 40 35" fill="none" xmlns="http://www.w3.org/2000/svg">
<path fill-rule="evenodd" clip-rule="evenodd" d="M35.118 2.02544V8.37632C37.868 8.72779 40 11.0521 40 13.8601C40 16.6681 37.868 18.9923 35.118 19.3439V25.6948C35.118 26.3943 34.7531 27.0229 34.1423 27.3766C33.8298 27.5575 33.4851 27.648 33.14 27.6481C32.8077 27.6481 32.4748 27.5641 32.1697 27.3957C26.6402 24.3443 20.6591 22.4755 14.3715 21.831L18.23 32.3338C18.4481 32.9254 18.3598 33.5873 17.9933 34.1039C17.6268 34.6202 17.0266 34.9285 16.3877 34.9285H11.8809C11.0598 34.9285 10.3196 34.4169 10.0389 33.6556L5.54789 21.4251C4.59156 21.0075 3.895 20.1142 3.76781 19.0507H2.50586C1.12422 19.0507 0 17.9414 0 16.578V11.1454C0 9.78195 1.12422 8.67274 2.50586 8.67274H3.76797C3.94461 7.19503 5.22102 6.04458 6.76531 6.04458C6.76531 6.04458 12.9141 6.01806 12.9663 6.01428C19.7694 5.5165 26.2304 3.60237 32.1698 0.324702C32.7917 -0.0185909 33.5293 -0.0112672 34.1425 0.343744C34.7534 0.697367 35.118 1.32606 35.118 2.02544ZM2.50586 17.1436H3.74617V10.5798H2.50586C2.18969 10.5798 1.93258 10.8336 1.93258 11.1454V16.5779C1.93258 16.8899 2.18969 17.1436 2.50586 17.1436ZM6.32266 19.6779C5.94375 19.5103 5.67875 19.1352 5.67875 18.6997V9.02359H5.67883C5.67883 8.43252 6.16625 7.95162 6.76523 7.95162H12.0256V19.7718C12.0256 19.7718 6.71938 19.7697 6.69648 19.7684C6.50266 19.7462 6.46187 19.7364 6.32266 19.6779ZM16.4102 33.0096C16.4185 32.998 16.4165 32.9924 16.4134 32.9846L12.2598 21.6787H7.69648L11.8553 33.0047C11.8588 33.0141 11.8694 33.0213 11.8809 33.0213H16.3877C16.3959 33.0213 16.402 33.0213 16.4102 33.0096ZM33.1855 25.6948C33.1855 25.7086 33.1855 25.7197 33.1646 25.7318C33.1398 25.746 33.1249 25.7379 33.113 25.7313C27.1729 22.4533 20.7327 20.4855 13.9582 19.8754V7.84585C20.7332 7.23474 27.1734 5.26679 33.1128 1.98913C33.125 1.98258 33.1401 1.97448 33.1646 1.98867C33.1855 2.00077 33.1855 2.01164 33.1855 2.02544V25.6948ZM35.118 10.3067V17.4135C36.7979 17.081 38.0674 15.6142 38.0674 13.8601C38.0674 12.106 36.798 10.6393 35.118 10.3067Z" fill="#CCCCCC"/>
</svg>
