<svg width="30" height="42" viewBox="0 0 30 42" fill="none" xmlns="http://www.w3.org/2000/svg">
<path fill-rule="evenodd" clip-rule="evenodd" d="M24.046 18.0381C24.7785 17.3722 25.7673 17.0446 26.7589 17.139C28.5415 17.309 29.9377 18.9029 29.9377 20.7679V33.4873C29.9377 37.79 26.4373 41.2905 22.1345 41.2905H11.5811C8.2171 41.2905 5.24218 39.1462 4.17823 35.9548L1.64347 28.3502C1.05169 26.5751 1.67718 24.6515 3.19992 23.5637L5.77 21.7279V17.7638C2.34105 16.3466 0.0625 12.9642 0.0625 9.23016C0.0625 4.14065 4.20306 0 9.29258 0C14.3821 0 18.5227 4.14065 18.5228 9.23008C18.5228 11.7361 17.4958 14.0831 15.7843 15.7845C16.7718 16.0161 17.6023 16.6898 18.0815 17.5841C18.1623 17.4937 18.2481 17.407 18.3385 17.3247C19.071 16.6587 20.0598 16.3311 21.0514 16.4255C22.2302 16.538 23.2402 17.2731 23.789 18.2976C23.8698 18.2072 23.9556 18.1205 24.046 18.0381ZM9.29258 1.33774C4.94073 1.33774 1.40016 4.87831 1.40016 9.23016C1.40016 12.234 3.12468 14.9714 5.77 16.2942V14.5453C4.00056 13.3695 2.91621 11.3677 2.91621 9.23016C2.91621 5.71427 5.77669 2.85379 9.29258 2.85379C12.8085 2.85379 15.669 5.71427 15.669 9.23016C15.669 11.3679 14.5847 13.3696 12.8152 14.5453V16.2942C15.4606 14.9714 17.185 12.234 17.185 9.23016C17.185 4.87831 13.6444 1.33774 9.29258 1.33774ZM9.63629 5.72403C8.64468 5.62952 7.65597 5.9571 6.92355 6.62315C6.19048 7.28968 5.77 8.23992 5.77 9.23016V12.8305C4.81524 11.8929 4.25395 10.5967 4.25395 9.23016C4.25395 6.45185 6.51427 4.19153 9.29258 4.19153C12.0709 4.19153 14.3312 6.45185 14.3312 9.23016C14.3312 10.5969 13.7699 11.893 12.8152 12.8306V9.3529C12.8152 7.4879 11.419 5.89387 9.63629 5.72403ZM11.581 39.9527H22.1345C25.6997 39.9527 28.6001 37.0523 28.6003 33.4871H28.6001V20.7679C28.6001 19.585 27.7356 18.576 26.6319 18.4707C26.0054 18.4105 25.4069 18.609 24.946 19.028C24.4911 19.4414 24.2303 20.0309 24.2303 20.6452V24.9258C24.2303 25.2952 23.931 25.5947 23.5615 25.5947C23.1919 25.5947 22.8926 25.2952 22.8926 24.9258V20.6452V20.0546C22.8926 18.8717 22.0281 17.8627 20.9244 17.7574C20.2979 17.6972 19.6994 17.8956 19.2385 18.3147C18.7837 18.7281 18.5228 19.3176 18.5228 19.9319V24.2125C18.5228 24.5819 18.2235 24.8814 17.854 24.8814C17.4844 24.8814 17.1851 24.5819 17.1851 24.2125V19.9319V19.3411C17.1851 18.1582 16.3206 17.1492 15.2169 17.044C14.5904 16.9837 13.9919 17.1822 13.531 17.6012C13.0762 18.0146 12.8153 18.6041 12.8153 19.2184V23.499C12.8153 23.8685 12.5159 24.1679 12.1465 24.1679C11.7769 24.1679 11.4776 23.8684 11.4776 23.499V9.35282C11.4776 8.16992 10.6131 7.16089 9.50936 7.05573C8.88355 6.99589 8.28436 7.19387 7.82339 7.61298C7.36863 8.02637 7.10774 8.61589 7.10774 9.23016V29.2067C7.10774 29.5761 6.80831 29.8756 6.43887 29.8756C6.06936 29.8756 5.77 29.576 5.77 29.2067V23.3719L3.97742 24.6523C2.93548 25.3965 2.5075 26.7127 2.9125 27.9273L5.44726 35.5318C6.32871 38.176 8.79363 39.9527 11.581 39.9527Z" fill="#999999"/>
</svg>
