<svg xmlns="http://www.w3.org/2000/svg" width="24" height="30" viewBox="0 0 24 30"><g><g><path fill="#72bb53" d="M11.914 21.181a.73.73 0 0 0 .529-.232l4.246-4.558a.722.722 0 1 0-1.057-.985l-2.993 3.21v-7.913a.727.727 0 0 0-.725-.725.727.727 0 0 0-.725.725v7.913l-2.985-3.21a.722.722 0 1 0-1.058.986l4.24 4.557a.73.73 0 0 0 .528.232zm-5.964 2.37a.727.727 0 0 0-.724.724c0 .399.326.725.724.725h11.935a.727.727 0 0 0 .725-.725.728.728 0 0 0-.732-.724zm-1.978 5c-1.355 0-2.493-1.123-2.493-2.486V3.935c0-1.355 1.13-2.486 2.493-2.486h10.985v4.58a3.17 3.17 0 0 0 3.182 3.174h4.21v16.862c0 1.363-1.13 2.486-2.493 2.486zM21.356 7.744H18.14a1.724 1.724 0 0 1-1.732-1.722V2.558zM15.675 0H3.972C1.812 0 .03 1.775.03 3.935v22.13C.03 28.225 1.813 30 3.972 30h15.884c2.16 0 3.942-1.775 3.942-3.935V8.493a.78.78 0 0 0-.21-.508L16.197.232A.726.726 0 0 0 15.675 0z"/></g></g></svg>