<svg xmlns="http://www.w3.org/2000/svg" width="24" height="30" viewBox="0 0 24 30"><g><g><path fill="#ff5050" d="M23.996 12.11c0 .773-.073 1.546-.218 2.301-.019.117-.043.24-.08.387a11.996 11.996 0 0 1-.805 2.398c-1.225 2.927-3.922 7.479-9.77 12.393a1.713 1.713 0 0 1-2.194 0c-5.855-4.92-8.552-9.466-9.782-12.417a11.677 11.677 0 0 1-.8-2.38c-.066-.264-.085-.406-.085-.406a12.393 12.393 0 0 1-.157-3.453C.675 4.914 5.614.215 11.59.006 11.729 0 11.874 0 12.014 0c6.6 0 11.97 5.436 11.982 12.11zm-1.497.007c0-5.982-4.91-10.816-10.855-10.608-5.236.184-9.557 4.3-10.06 9.57a10.935 10.935 0 0 0 .139 3.05c0 .012.006.024.006.037.006.03.024.128.06.288.164.73.4 1.436.71 2.11 1.175 2.816 3.751 7.142 9.37 11.865a.255.255 0 0 0 .15.056.243.243 0 0 0 .152-.056c5.619-4.717 8.188-9.042 9.358-11.84.315-.7.552-1.405.715-2.129.043-.19.06-.294.06-.307.128-.687.195-1.362.195-2.036zm-4.291.135c0 3.454-2.776 6.27-6.194 6.27S5.82 15.698 5.82 12.244s2.776-6.27 6.194-6.27 6.194 2.823 6.194 6.277zm-1.485 0c0-2.626-2.115-4.767-4.71-4.767-2.593 0-4.708 2.14-4.708 4.767 0 2.625 2.109 4.766 4.709 4.766 2.6 0 4.709-2.14 4.709-4.766z"/></g></g></svg>