<svg width="20" height="20" viewBox="0 0 20 20" fill="none" xmlns="http://www.w3.org/2000/svg">
<path fill-rule="evenodd" clip-rule="evenodd" d="M0.699258 10.5256C0.312383 10.5256 0.00488281 10.2081 0.00488281 9.82125C0.00488281 9.43437 0.312383 9.12687 0.699258 9.12687H9.12113V0.704375C9.12176 0.3175 9.43926 0 9.82613 0C10.213 0 10.5205 0.3175 10.5205 0.704375V9.12687H18.9424C19.3293 9.12687 19.6468 9.43437 19.6468 9.82125C19.6468 10.2081 19.3293 10.5256 18.9424 10.5256H10.5205V18.9481C10.5205 19.335 10.213 19.6525 9.82613 19.6525C9.43926 19.6525 9.12176 19.335 9.12176 18.9481V10.5256H0.699258Z" fill="white"/>
</svg>
