<svg xmlns="http://www.w3.org/2000/svg" width="27" height="22" viewBox="0 0 27 22"><g><g><path fill="#ff5050" d="M12.973 19.726a.527.527 0 0 1 1.054 0 .527.527 0 0 1-1.054 0zm8.783-2.27c1.267 0 2.298 1.019 2.298 2.27 0 1.252-1.031 2.27-2.298 2.27a2.3 2.3 0 0 1-2.185-1.567H15.61c-.29 0-.527-.274-.527-.612 0-.338.236-.612.527-.612h3.91a2.296 2.296 0 0 1 2.237-1.749zm-1.243 2.27c0 .678.558 1.23 1.243 1.23s1.243-.552 1.243-1.23c0-.678-.558-1.23-1.243-1.23s-1.243.552-1.243 1.23zm-15.27 2.27c-1.266 0-2.297-1.018-2.297-2.27 0-1.251 1.031-2.27 2.298-2.27 1.085 0 1.997.748 2.236 1.749h3.91c.292 0 .528.274.528.612 0 .338-.236.612-.527.612H7.428a2.299 2.299 0 0 1-2.184 1.567zm-1.242-2.27c0 .678.558 1.23 1.243 1.23s1.243-.552 1.243-1.23c0-.678-.558-1.23-1.243-1.23S4 19.048 4 19.726zm17.755-11.71c-1.57 0-2.847-1.262-2.847-2.812 0-1.55 1.277-2.81 2.847-2.81s2.847 1.26 2.847 2.81-1.277 2.812-2.847 2.812zm0-4.583c-.988 0-1.792.794-1.792 1.771 0 .977.804 1.772 1.792 1.772s1.792-.795 1.792-1.772-.804-1.771-1.792-1.771zM5.244 8.016c-1.57 0-2.847-1.262-2.847-2.812 0-1.55 1.277-2.81 2.847-2.81s2.847 1.26 2.847 2.81-1.277 2.812-2.847 2.812zm0-4.583c-.988 0-1.792.794-1.792 1.771 0 .977.804 1.772 1.792 1.772s1.792-.795 1.792-1.772-.804-1.771-1.792-1.771zm16.04 12.406l-4.32-8.534a5.076 5.076 0 0 1-.452-2.102c0-2.853 2.352-5.173 5.244-5.173S27 2.35 27 5.203a5.076 5.076 0 0 1-.452 2.102l-4.32 8.534a.528.528 0 0 1-.472.288.528.528 0 0 1-.472-.288zm.472-1.395l3.842-7.592c.23-.521.347-1.076.347-1.65 0-2.278-1.879-4.132-4.189-4.132s-4.19 1.854-4.19 4.132c0 .574.118 1.129.348 1.65zM5.244 16.127a.528.528 0 0 1-.472-.288L.452 7.305A5.076 5.076 0 0 1 0 5.203C0 2.35 2.352.03 5.244.03c2.891 0 5.244 2.32 5.244 5.173a5.076 5.076 0 0 1-.453 2.102l-4.32 8.534a.528.528 0 0 1-.471.288zM1.402 6.852l3.842 7.592 3.842-7.592c.23-.521.347-1.076.347-1.65 0-2.278-1.88-4.132-4.19-4.132-2.309 0-4.188 1.854-4.188 4.132 0 .574.116 1.129.347 1.65z"/></g></g></svg>