<svg width="20" height="20" viewBox="0 0 20 20" fill="none" xmlns="http://www.w3.org/2000/svg">
<path fill-rule="evenodd" clip-rule="evenodd" d="M8.75 11.25V15H10.625C11.6605 15 12.5 14.1605 12.5 13.125C12.5 12.0895 11.6605 11.25 10.625 11.25H8.75ZM14.2749 8.84477C15.4836 9.87649 16.25 11.4112 16.25 13.125C16.25 16.2316 13.7316 18.75 10.625 18.75H5V1.25H10C12.7614 1.25 15 3.48858 15 6.25C15 7.20011 14.735 8.08833 14.2749 8.84477ZM8.75 5V7.5H10C10.6904 7.5 11.25 6.94036 11.25 6.25C11.25 5.55964 10.6904 5 10 5H8.75Z" fill="#CCCCCC"/>
</svg>
