<svg xmlns="http://www.w3.org/2000/svg" width="22" height="22" viewBox="0 0 22 22"><g><g><path fill="#ff5050" d="M13.95 14.56a.607.607 0 0 1-.431-.178l-3.274-3.274a.61.61 0 0 1-.179-.432V3.75a.61.61 0 0 1 1.22 0v6.674l3.096 3.095a.61.61 0 0 1-.431 1.042zm-3.274 6.793C4.79 21.353 0 16.563 0 10.676 0 4.79 4.79 0 10.676 0c5.887 0 10.676 4.79 10.676 10.676.001 5.888-4.789 10.677-10.676 10.677zm0-20.133c-5.214 0-9.456 4.242-9.456 9.456 0 5.215 4.242 9.457 9.456 9.457 5.214 0 9.456-4.242 9.456-9.457 0-5.214-4.241-9.456-9.456-9.456z"/></g></g></svg>