<svg width="10" height="16" viewBox="0 0 10 16" fill="none" xmlns="http://www.w3.org/2000/svg">
<path fill-rule="evenodd" clip-rule="evenodd" d="M8.96916 15.8359C8.85445 15.9427 8.72266 15.9958 8.57371 15.9958C8.42494 15.9958 8.29314 15.9427 8.17862 15.8359L0.171757 8.36635C0.0572323 8.25963 0 8.13686 0 7.99797C0 7.85908 0.0572323 7.73608 0.171757 7.6293L8.17862 0.160334C8.29308 0.0535009 8.42488 0 8.57371 0C8.72266 0 8.85445 0.0533325 8.96892 0.160334L9.82794 0.961557C9.94265 1.06833 9.99982 1.19128 9.99982 1.33022C9.99982 1.46911 9.94265 1.59206 9.82794 1.69889L3.07562 7.99797L9.82812 14.2973C9.94283 14.4041 10 14.527 10 14.6658C10 14.8048 9.94283 14.9278 9.82812 15.0346L8.96916 15.8359Z" fill="#999999"/>
</svg>
