<svg width="50" height="42" viewBox="0 0 50 42" fill="none" xmlns="http://www.w3.org/2000/svg">
<path fill-rule="evenodd" clip-rule="evenodd" d="M0 12.6134C0 9.36935 2.60204 6.71608 5.80612 6.71608H13.9184L14.1122 5.85584C14.9082 2.40452 17.898 0 21.3776 0H28.6122C32.102 0 35.0918 2.40452 35.8776 5.85584L36.0714 6.71608H44.1939C47.398 6.71608 50 9.35898 50 12.6134V35.021C50 38.4413 47.2653 41.2189 43.898 41.2189H6.10204C2.73469 41.2189 0 38.4413 0 35.021V12.6134ZM14.9184 9.25534H5.80612C3.97959 9.25534 2.5 10.7582 2.5 12.6134V35.021C2.5 37.0421 4.11224 38.6796 6.10204 38.6796H43.8878C45.8776 38.6796 47.4898 37.0421 47.4898 35.021V12.6134C47.4898 10.7582 46.0102 9.25534 44.1837 9.25534H35.0714C34.4898 9.25534 33.9898 8.84077 33.8571 8.27073L33.4388 6.42588C32.9082 4.13536 30.9286 2.53926 28.6122 2.53926H21.3776C19.0612 2.53926 17.0816 4.13536 16.551 6.42588L16.1327 8.27073C16 8.85113 15.5 9.25534 14.9184 9.25534ZM8.45918 16.3756C7.53495 16.3756 6.78571 15.6146 6.78571 14.6759C6.78571 13.7371 7.53495 12.9761 8.45918 12.9761C9.38342 12.9761 10.1327 13.7371 10.1327 14.6759C10.1327 15.6146 9.38342 16.3756 8.45918 16.3756Z" fill="#CCCCCC"/>
</svg>
