<svg width="26" height="26" viewBox="0 0 26 26" fill="none" xmlns="http://www.w3.org/2000/svg">
<path fill-rule="evenodd" clip-rule="evenodd" d="M12.1739 7.71404C14.5674 5.31567 16.9662 2.912 19.3491 0.513632C19.725 0.131591 20.1593 -0.0275925 20.6358 0.0307748L20.7259 0.0413871L20.7344 0.0424862C21.0607 0.0846666 21.4332 0.132826 21.7849 0.274856C23.5536 0.991183 24.8456 2.26465 25.624 4.04751C25.7461 4.333 25.8096 4.6283 25.866 4.89103L25.8729 4.92302C25.8861 4.97603 25.898 5.03036 25.9099 5.08469L25.91 5.08488C25.9219 5.13926 25.9338 5.19364 25.947 5.24669C25.9629 5.31567 25.9682 5.38996 25.9629 5.46424C25.9206 5.91526 25.7511 6.28139 25.444 6.58914C21.2819 10.7544 17.1198 14.9251 12.9576 19.101C12.7088 19.3504 12.4175 19.5042 12.0733 19.5785C11.0444 19.7921 10.0129 20.0108 8.98247 20.2292L8.98237 20.2293C8.52794 20.3256 8.0737 20.4219 7.61996 20.5177L6.68798 20.714C6.59796 20.73 6.50794 20.7406 6.41792 20.7406C6.1002 20.7406 5.79837 20.6185 5.58126 20.401C5.30061 20.1198 5.18941 19.7059 5.27413 19.292L5.45417 18.443C5.77719 16.9095 6.1002 15.3761 6.43381 13.8426C6.49735 13.5508 6.66151 13.2536 6.87861 13.0308C7.61578 12.2794 8.35972 11.5348 9.10231 10.7915L9.65866 10.2344L12.1739 7.71404ZM20.4611 1.30955C20.424 1.30955 20.3764 1.32547 20.2758 1.41037C17.8823 3.81935 15.4835 6.22302 13.0847 8.62669L10.5695 11.1471C9.64277 12.0704 8.72139 12.9989 7.8 13.9328C7.75234 13.9859 7.70998 14.0602 7.69939 14.1079C7.4199 15.4089 7.14424 16.7136 6.86916 18.0157L6.72505 18.6977L6.57678 19.3928L7.36049 19.2283C8.10384 19.0719 8.84588 18.9155 9.58791 18.7591C10.3312 18.6025 11.0745 18.4458 11.8191 18.2891C11.9145 18.2679 11.978 18.2361 12.0468 18.1671C13.0866 17.1252 14.1264 16.0829 15.1663 15.0406L15.1681 15.0388L15.1683 15.0386C18.2902 11.9093 21.4129 8.77931 24.5385 5.65526C24.6126 5.58629 24.6497 5.52261 24.6709 5.4271C24.6629 5.38465 24.6537 5.3422 24.6444 5.29975C24.6351 5.25731 24.6259 5.21486 24.6179 5.17241C24.5703 4.94424 24.5226 4.72669 24.4485 4.5569C23.8077 3.09241 22.7487 2.05241 21.3083 1.46873C21.1071 1.38384 20.853 1.352 20.5776 1.32016L20.4876 1.30955H20.4611ZM1.29735 6.56792C1.29735 6.14873 1.64155 5.80384 2.05988 5.80384H11.3055C11.6656 5.80384 11.9568 5.512 11.9568 5.15118C11.9568 4.79037 11.6656 4.49853 11.3055 4.49853H2.05988C0.921385 4.49853 0 5.4271 0 6.56261V23.9349C0 25.0757 0.92668 25.9989 2.05988 25.9989H19.3914C20.5299 25.9989 21.4513 25.0704 21.4513 23.9349V15.0471C21.4513 14.6863 21.1601 14.3944 20.8 14.3944C20.4399 14.3944 20.1487 14.6863 20.1487 15.0471V23.9349C20.1487 24.354 19.8045 24.6989 19.3862 24.6989H2.05988C1.64155 24.6989 1.29735 24.354 1.29735 23.9349V6.56792Z" fill="#FF5050"/>
</svg>
