<svg width="20" height="20" viewBox="0 0 20 20" fill="none" xmlns="http://www.w3.org/2000/svg">
<path fill-rule="evenodd" clip-rule="evenodd" d="M17.7538 0.77916L19.1823 2.20759C20.2211 3.24647 20.2211 4.93468 19.182 5.84364L17.5887 7.437C17.5747 7.49307 17.5574 7.54452 17.5414 7.592L17.5414 7.59203L17.5414 7.59204C17.5159 7.66771 17.4939 7.73332 17.4939 7.79155L6.06628 19.2192C5.93643 19.349 5.80658 19.349 5.67673 19.349L0.742102 19.9983C0.677177 19.9983 0.579789 19.9659 0.482401 19.9334C0.385013 19.901 0.287625 19.8685 0.222699 19.8685C0.0928484 19.7386 -0.0370023 19.4789 0.0928484 19.3491L0.872028 14.4144C0.872028 14.3495 0.90449 14.2845 0.936953 14.2196C0.969416 14.1547 1.00188 14.0898 1.00188 14.0248L12.3725 2.65431L12.3863 2.62016C12.409 2.56504 12.4296 2.51482 12.4296 2.46729L14.1178 0.77916C15.1567 -0.25972 16.8448 -0.25972 17.7538 0.77916ZM3.53419 13.3107L6.78068 16.5571L16.1306 7.20722L12.8841 3.96073L3.53419 13.3107ZM5.4171 17.9207L1.52128 18.57L2.17061 14.6742L2.62516 14.2196L5.87165 17.4661L5.4171 17.9207ZM17.1045 6.23326L18.4031 4.93468C18.9226 4.41521 18.9226 3.63603 18.4031 3.11662L16.9746 1.68819C16.4552 1.16879 15.676 1.16879 15.1566 1.68819L13.858 2.98677L17.1045 6.23326Z" fill="#999999"/>
</svg>
