<svg xmlns="http://www.w3.org/2000/svg" width="20" height="21" viewBox="0 0 20 21"><g><g><path fill="#72bb53" d="M9.177 14.905a.819.819 0 1 0 1.637 0 .819.819 0 0 0-1.637 0zM6.81 8.159a.656.656 0 1 0 1.312 0A1.88 1.88 0 0 1 10 6.28a1.88 1.88 0 0 1 1.878 1.878A1.88 1.88 0 0 1 10 10.037a.656.656 0 0 0-.656.656v2.284a.656.656 0 1 0 1.312 0V11.28a3.195 3.195 0 0 0 2.534-3.121c0-1.76-1.431-3.19-3.19-3.19a3.193 3.193 0 0 0-3.19 3.19zM1.312 10.4c0-4.79 3.897-8.688 8.688-8.688 4.79 0 8.688 3.897 8.688 8.688 0 4.79-3.897 8.688-8.688 8.688-4.79 0-8.688-3.897-8.688-8.688zM0 10.4c0 5.514 4.486 10 10 10s10-4.486 10-10-4.486-10-10-10-10 4.486-10 10z"/></g></g></svg>