<svg width="21" height="18" viewBox="0 0 21 18" fill="none" xmlns="http://www.w3.org/2000/svg">
<path fill-rule="evenodd" clip-rule="evenodd" d="M20.2725 0.483887H0V17.9828L20.2725 17.9711V0.483887ZM3.19584 1.54774H19.2273L19.2272 16.919L1.04519 16.9196V1.54774H3.18777C3.19172 1.54791 3.19347 1.54783 3.19467 1.54778L3.19584 1.54774ZM2.11063 2.63221H18.1618V14.1373H2.11063V2.63221ZM3.15583 10.9585V3.69607H17.1166V11.5262L14.4523 8.8148C14.2483 8.60715 13.9174 8.60715 13.7133 8.8148L12.0629 10.4946L8.20694 6.56974C8.00288 6.36204 7.67202 6.36209 7.46788 6.56974L3.15583 10.9585ZM3.15583 13.0735H13.1183L7.83736 7.69818L3.15583 12.463V13.0735ZM17.1166 13.0162V13.0735H14.5966L12.802 11.2469L14.0828 9.94314L17.0376 12.9503C17.0622 12.9754 17.0888 12.9972 17.1166 13.0162ZM12.0356 4.48422C13.0045 4.48422 13.7929 5.28656 13.7929 6.27279C13.7929 7.25906 13.0045 8.06145 12.0356 8.06145C11.0667 8.06145 10.2784 7.25902 10.2784 6.27279C10.2784 5.28656 11.0667 4.48422 12.0356 4.48422ZM12.7477 6.27274C12.7477 6.67245 12.4283 6.99755 12.0356 6.99755C11.643 6.99755 11.3236 6.67236 11.3236 6.27274C11.3235 5.87312 11.6429 5.54798 12.0356 5.54798C12.4283 5.54798 12.7477 5.87308 12.7477 6.27274Z" fill="#CCCCCC"/>
</svg>
