<svg width="17" height="16" viewBox="0 0 17 16" fill="none" xmlns="http://www.w3.org/2000/svg">
<path fill-rule="evenodd" clip-rule="evenodd" d="M14.6041 5.33885C15.9094 5.33885 16.9688 6.37513 16.9688 7.64433H16.9723V7.71859C16.9723 7.73885 16.9688 7.76248 16.9654 7.78273L15.989 13.7574C15.809 15.1751 14.7876 15.9954 13.1811 15.9954H5.93788C4.63259 15.9954 3.57312 14.9591 3.57312 13.6899V7.07049C3.57312 6.87134 3.40692 6.70931 3.20265 6.70931H1.21874C1.01446 6.70931 0.848269 6.87134 0.848269 7.07049V14.0882C0.848269 14.2874 1.01446 14.4494 1.21874 14.4494H2.36477C2.59674 14.4494 2.79063 14.6317 2.79063 14.8612C2.79063 15.0907 2.6002 15.2764 2.36477 15.2764H1.21874C0.547047 15.2764 0 14.7431 0 14.0882V7.07049C0 6.41564 0.547047 5.88231 1.21874 5.88231H3.19919C3.67699 5.88231 4.09246 6.15235 4.29328 6.54391C4.32098 6.52703 4.35214 6.51691 4.38676 6.50678C4.38782 6.50647 4.3891 6.50609 4.39059 6.50565C4.55078 6.4586 7.20509 5.67903 7.20509 3.4283V0.542222C7.20509 0.359944 7.32627 0.201294 7.50285 0.147286C7.56171 0.127032 8.96049 -0.288157 9.97841 0.440957C10.6224 0.900028 10.9479 1.68315 10.9479 2.77007V5.33885H14.6041ZM15.1477 13.6393L16.1206 7.68146H16.124V7.64771C16.124 6.83083 15.442 6.16923 14.6075 6.16923H10.5255C10.29 6.16923 10.0996 5.98357 10.0996 5.75404V2.77007C10.0996 1.95994 9.88839 1.40298 9.47637 1.10594C9.02974 0.788636 8.41344 0.819016 8.05336 0.873024V3.42492C8.05336 6.33125 4.75723 7.2629 4.61527 7.30003C4.54949 7.31691 4.48371 7.32028 4.42138 7.30678V13.6899C4.42138 14.5068 5.10346 15.1684 5.93788 15.1684H12.911H13.1811C14.3582 15.1684 15.0196 14.6519 15.1477 13.6393Z" fill="#72BB53"/>
</svg>
