<svg xmlns="http://www.w3.org/2000/svg" width="12" height="16" viewBox="0 0 12 16"><g><g><path fill="gray" d="M11.952 13.361c.003.236.005.277.006.256v.286S11.081 15.672 6 15.672C.918 15.672.04 13.903.04 13.903v-.387c.001.034.004.018.009-.275.067-3.59.578-4.625 4.223-5.282 0 0 .518.66 1.727.66 1.21 0 1.728-.66 1.728-.66 3.685.665 4.166 1.715 4.225 5.402zM5.999 7.664c-1.742 0-3.155-1.715-3.155-3.832C2.844 1.716 3.308 0 6 0c2.692 0 3.155 1.716 3.155 3.832C9.154 5.95 7.742 7.664 6 7.664z"/></g></g></svg>