<svg width="10" height="16" viewBox="0 0 10 16" fill="none" xmlns="http://www.w3.org/2000/svg">
<path fill-rule="evenodd" clip-rule="evenodd" d="M1.03084 15.8359L0.171877 15.0346C0.0571721 14.9278 0 14.8048 0 14.6658C0 14.527 0.0571721 14.4041 0.171877 14.2973L6.92438 7.99797L0.172058 1.69889C0.0573526 1.59206 0.000180543 1.46911 0.000180543 1.33022C0.000180543 1.19128 0.0573526 1.06833 0.172058 0.961557L1.03108 0.160334C1.14555 0.0533325 1.27734 0 1.42629 0C1.57512 0 1.70692 0.0535009 1.82138 0.160334L9.82824 7.6293C9.94277 7.73608 10 7.85908 10 7.99797C10 8.13686 9.94277 8.25963 9.82824 8.36635L1.82138 15.8359C1.70686 15.9427 1.57506 15.9958 1.42629 15.9958C1.27734 15.9958 1.14555 15.9427 1.03084 15.8359Z" fill="white"/>
</svg>
