<svg xmlns="http://www.w3.org/2000/svg" width="18" height="22" viewBox="0 0 18 22"><g><g><path fill="#ff5050" d="M9.501 10.5a.5.5 0 0 0-1 0V13h-2.5a.5.5 0 0 0 0 1h2.5v2.5a.5.5 0 0 0 1 0V14h2.5a.5.5 0 0 0 0-1h-2.5zM3.165 3.476c0 .306.255.554.57.554h12.986c.315 0 .57-.248.57-.554a.562.562 0 0 0-.57-.555H3.736a.562.562 0 0 0-.57.555zm13.653 3.367v14.02H3.541c-1.313 0-2.384-1.04-2.384-2.316V5.937a3.558 3.558 0 0 0 2.384.906zM17.384 0H3.541C1.597 0 .02 1.537.02 3.422v15.134c0 1.889 1.582 3.421 3.521 3.421H17.39c.316 0 .57-.247.57-.554V6.293a.562.562 0 0 0-.57-.554H3.541c-1.313 0-2.384-1.041-2.384-2.317 0-1.276 1.071-2.317 2.384-2.317H17.39a.56.56 0 0 0 .566-.55.562.562 0 0 0-.57-.555z"/></g></g></svg>