<svg xmlns="http://www.w3.org/2000/svg" width="16" height="20" viewBox="0 0 16 20"><g><g><path fill="#999" d="M8.007 18.702l-.977-.743.977-4.46.977 4.46zm0-17.463c2.076 0 3.664 1.981 3.664 4.334 0 2.353-1.588 4.335-3.664 4.335S4.344 7.926 4.344 5.573c0-2.353 1.588-4.334 3.663-4.334zm.367 10.909h-.855c-.122 0-.366-.126-.366-.251l-.122-.502h1.831l-.122.502c0 .125-.244.25-.366.25zm4.518-6.575C12.892 2.477 10.694 0 8.007 0 5.321 0 3.123 2.477 3.123 5.573c0 1.488.515 2.823 1.34 3.819C1.989 9.87.07 12.105.07 14.738v4.211c0 .372.244.62.61.62.367 0 .611-.248.611-.62v-4.21c0-2.354 1.832-4.212 4.152-4.212h.37c.032.019.062.041.094.059-.112.245-.211.578-.098.808l.245.867c.14.356.41.657.744.861l-1.11 4.96c-.123.248 0 .496.243.62l1.71 1.114c.122.124.244.124.366.124.123 0 .245 0 .367-.124l1.71-1.114c.244-.124.244-.372.244-.62L9.22 13.14c.338-.203.646-.511.863-.878l.245-.867c.122-.247 0-.619-.123-.867h.367c2.32 0 4.152 1.858 4.152 4.211v4.211c0 .372.244.62.61.62.367 0 .61-.248.61-.62v-4.21c0-2.634-1.918-4.87-4.393-5.347.824-.996 1.341-2.331 1.341-3.819z"/></g></g></svg>