<svg xmlns="http://www.w3.org/2000/svg" width="20" height="20" viewBox="0 0 20 20"><g><g><path fill="gray" d="M10.656 13.98V7.727A.656.656 0 0 0 10 7.072H8.796a.656.656 0 0 0 0 1.312h.549v5.595h-.55a.656.656 0 0 0 0 1.312h2.41a.656.656 0 1 0 0-1.312zm.033-8.556a.875.875 0 1 0-1.75 0 .875.875 0 0 0 1.75 0zM1.312 10c0-4.79 3.897-8.688 8.688-8.688 4.79 0 8.688 3.897 8.688 8.688 0 4.79-3.897 8.688-8.688 8.688S1.312 14.791 1.312 10zM0 10c0 5.514 4.486 10 10 10s10-4.486 10-10S15.514 0 10 0 0 4.486 0 10z"/></g></g></svg>