<svg xmlns="http://www.w3.org/2000/svg" width="22" height="19" viewBox="0 0 22 19"><g><g><g><path fill="#72bb53" d="M5.407 13.022c1.43.055 2.69.575 3.568 1.48.903.93 1.361 2.216 1.326 3.721a.746.746 0 0 1-.743.731H.745a.746.746 0 0 1-.743-.73c-.035-1.506.424-2.792 1.326-3.722.878-.904 2.138-1.425 3.569-1.48-1.911-.133-3.426-1.74-3.426-3.699 0-2.045 1.651-3.708 3.681-3.708 2.03 0 3.68 1.663 3.68 3.708 0 1.959-1.514 3.567-3.425 3.699zM18.737.259c4.345 4.376 4.343 11.498-.004 15.876a.739.739 0 0 1-1.051 0 .752.752 0 0 1 0-1.058c3.768-3.795 3.77-9.967.003-13.76a.751.751 0 0 1 0-1.058.74.74 0 0 1 1.052 0zm-7.12 5.46a.74.74 0 0 1 1.051 0 3.528 3.528 0 0 1 0 4.958.738.738 0 0 1-1.051 0 .751.751 0 0 1 0-1.057 2.023 2.023 0 0 0 0-2.844.751.751 0 0 1 0-1.058zm2.779-2.147a.74.74 0 0 1 1.05 0c2.532 2.55 2.53 6.7-.002 9.25a.739.739 0 0 1-1.051 0 .752.752 0 0 1 0-1.057c1.953-1.968 1.955-5.168.002-7.135a.751.751 0 0 1 0-1.058z"/></g></g></g></svg>