<svg width="20" height="5" viewBox="0 0 20 5" fill="none" xmlns="http://www.w3.org/2000/svg">
<path fill-rule="evenodd" clip-rule="evenodd" d="M2.27271 4.56007C1.01753 4.56007 0 3.54255 0 2.28736C0 1.03218 1.01753 0.0146484 2.27271 0.0146484C3.5279 0.0146484 4.54542 1.03218 4.54542 2.28736C4.54542 3.54255 3.5279 4.56007 2.27271 4.56007ZM10 4.56007C8.74482 4.56007 7.72729 3.54255 7.72729 2.28736C7.72729 1.03218 8.74482 0.0146484 10 0.0146484C11.2552 0.0146484 12.2727 1.03218 12.2727 2.28736C12.2727 3.54255 11.2552 4.56007 10 4.56007ZM17.7273 4.56007C16.4721 4.56007 15.4546 3.54255 15.4546 2.28736C15.4546 1.03218 16.4721 0.0146484 17.7273 0.0146484C18.9825 0.0146484 20 1.03218 20 2.28736C20 3.54255 18.9825 4.56007 17.7273 4.56007Z" fill="#CCCCCC"/>
</svg>
