<svg width="22" height="18" viewBox="0 0 22 18" fill="none" xmlns="http://www.w3.org/2000/svg">
<path fill-rule="evenodd" clip-rule="evenodd" d="M0 5.51086C0 4.09528 1.1449 2.93749 2.55469 2.93749H6.12408L6.20939 2.56211C6.55959 1.05608 7.8751 0.00683594 9.40612 0.00683594H12.5894C14.1249 0.00683594 15.4404 1.05608 15.7861 2.56211L15.8714 2.93749H19.4453C20.8551 2.93749 22 4.09076 22 5.51086V15.2887C22 16.7812 20.7967 17.9933 19.3151 17.9933H2.6849C1.20327 17.9933 0 16.7812 0 15.2887V5.51086ZM6.56408 4.04553H2.55469C1.75102 4.04553 1.1 4.70131 1.1 5.51086V15.2887C1.1 16.1707 1.80939 16.8852 2.6849 16.8852H19.3106C20.1861 16.8852 20.8955 16.1707 20.8955 15.2887V5.51086C20.8955 4.70131 20.2445 4.04553 19.4408 4.04553H15.4314C15.1755 4.04553 14.9555 3.86462 14.8971 3.61588L14.7131 2.81086C14.4796 1.81136 13.6086 1.11488 12.5894 1.11488H9.40612C8.38694 1.11488 7.51592 1.81136 7.28245 2.81086L7.09837 3.61588C7.04 3.86915 6.82 4.04553 6.56408 4.04553ZM3.72204 7.15256C3.31538 7.15256 2.98571 6.82049 2.98571 6.41086C2.98571 6.00122 3.31538 5.66915 3.72204 5.66915C4.1287 5.66915 4.45837 6.00122 4.45837 6.41086C4.45837 6.82049 4.1287 7.15256 3.72204 7.15256ZM11.5 9.00005H15C15.2761 9.00005 15.5 9.22391 15.5 9.50005C15.5 9.77619 15.2761 10.0001 15 10.0001H11.5V13.5001C11.5 13.7762 11.2761 14.0001 11 14.0001C10.7239 14.0001 10.5 13.7762 10.5 13.5001V10.0001H7C6.72386 10.0001 6.5 9.77619 6.5 9.50005C6.5 9.22391 6.72386 9.00005 7 9.00005H10.5V5.50005C10.5 5.22391 10.7239 5.00005 11 5.00005C11.2761 5.00005 11.5 5.22391 11.5 5.50005V9.00005Z" fill="#CCCCCC"/>
</svg>
