<svg xmlns="http://www.w3.org/2000/svg" width="10" height="20" viewBox="0 0 10 20"><g><g><path fill="#4267b2" d="M9.446.004L7.094 0c-2.642 0-4.35 1.914-4.35 4.878v2.248H.38c-.205 0-.37.181-.37.405v3.258c0 .223.166.404.37.404h2.365v8.222c0 .223.165.404.37.404H6.2c.204 0 .37-.18.37-.404v-8.222h2.764c.205 0 .37-.18.37-.404l.001-3.258c0-.107-.039-.21-.108-.286a.355.355 0 0 0-.262-.119H6.57V5.22c0-.916.2-1.381 1.293-1.381l1.584-.001c.204 0 .37-.181.37-.404V.408c0-.223-.166-.403-.37-.404z"/></g></g></svg>