<svg width="18" height="15" viewBox="0 0 18 15" fill="none" xmlns="http://www.w3.org/2000/svg">
<path fill-rule="evenodd" clip-rule="evenodd" d="M15.425 1.96615H14.6162V0.488769C14.6162 0.218801 14.391 0 14.1135 0C13.8358 0 13.6107 0.218801 13.6107 0.488769V1.96615H3.54807V0.488769C3.54807 0.218801 3.32302 0 3.04534 0C2.76766 0 2.5426 0.218801 2.5426 0.488769V1.96615H1.73496C0.778322 1.96615 0 2.72285 0 3.65291V13.3134C0 14.2433 0.778322 15 1.73496 15H15.4252C16.3818 15 17.16 14.2434 17.16 13.3134V3.65291C17.16 2.72285 16.3817 1.96615 15.425 1.96615ZM1.73496 2.94369H15.4252C15.8274 2.94369 16.1545 3.26177 16.1545 3.65291V4.30664H1.00547V3.65291C1.00547 3.26177 1.33264 2.94369 1.73496 2.94369ZM1.73496 14.0225H15.425C15.8274 14.0225 16.1545 13.7044 16.1545 13.3134V5.28418H1.00547V13.3134C1.00547 13.7044 1.33264 14.0225 1.73496 14.0225Z" fill="#999999"/>
</svg>
