<svg xmlns="http://www.w3.org/2000/svg" width="22" height="23" viewBox="0 0 22 23"><g><g><path fill="gray" d="M19.08 12.984l-4.742-.16-4.786 8.915H7.824l2.61-9.04-5.273-.215h-.024c-.298 0-.585-.047-.853-.139l-.458-.156-1.802 3.075h-.722l1.13-3.474v-.649l-1.13-3.473h.721L3.8 10.697l.46-.164c.275-.096.57-.146.879-.146l5.279-.215-2.593-8.979h1.728l4.753 8.855 4.775-.16c.914.004 1.656.697 1.656 1.548 0 .85-.742 1.543-1.656 1.548zm-.008-4.29l-4.07.137L10.26 0H7.619c-.578 0-1.048.472-1.048 1.052v.085l2.283 7.904-3.73.152a3.926 3.926 0 0 0-.781.081l-1.641-2.8H.935a.94.94 0 0 0-.935.94v.096l1.244 3.821v.269L0 15.42v.095a.936.936 0 0 0 .936.941h1.766l1.673-2.854c.244.049.494.074.75.074l3.746.153-2.3 7.966v.085c0 .58.47 1.052 1.048 1.052h2.642l4.773-8.89 4.018.134h.02c1.572 0 2.852-1.229 2.852-2.74 0-1.512-1.28-2.742-2.852-2.742z"/></g></g></svg>