<svg width="12" height="20" viewBox="0 0 12 20" fill="none" xmlns="http://www.w3.org/2000/svg">
<path fill-rule="evenodd" clip-rule="evenodd" d="M4.97432 14.0113C3.44287 13.8504 2.06205 13.4706 0.879839 12.5396C0.733149 12.4238 0.581701 12.3121 0.447839 12.1827C-0.0696097 11.6823 -0.121748 11.1092 0.287701 10.5186C0.637976 10.0131 1.22598 9.87794 1.83715 10.1681C1.95549 10.2244 2.06825 10.2946 2.17625 10.37C4.37949 11.8944 7.40618 11.9365 9.6177 10.4386C9.8368 10.2694 10.071 10.1315 10.3425 10.0611C10.8703 9.9246 11.3625 10.1198 11.6457 10.5848C11.9693 11.1159 11.9651 11.6342 11.5665 12.0465C10.9549 12.6786 10.2194 13.1359 9.40211 13.455C8.62936 13.7567 7.78294 13.9086 6.94522 14.0094C7.07163 14.1479 7.13122 14.2161 7.21025 14.2961C8.34777 15.4469 9.49025 16.5929 10.624 17.7473C11.0103 18.1406 11.091 18.6284 10.8783 19.0859C10.6458 19.5859 10.1252 19.9148 9.6148 19.8796C9.29142 19.8571 9.03922 19.695 8.81515 19.4677C7.95674 18.5979 7.08218 17.7442 6.24115 16.8579C5.99639 16.6002 5.87867 16.649 5.66267 16.8727C4.79908 17.7679 3.92142 18.6494 3.0386 19.5259C2.64218 19.9194 2.17046 19.9902 1.71074 19.7654C1.22205 19.5269 0.91108 19.0246 0.93508 18.5198C0.951632 18.1784 1.11839 17.9175 1.35115 17.6836C2.47687 16.5517 3.59949 15.4169 4.72253 14.2831C4.7968 14.2077 4.86611 14.1277 4.97432 14.0113ZM5.90722 10.0686C3.17515 10.0592 0.934873 7.77856 0.950804 5.02314C0.966528 2.23731 3.20825 -0.00768854 5.96722 1.97909e-05C8.73177 0.00751979 10.9507 2.28481 10.9369 5.0996C10.9228 7.84939 8.66701 10.0781 5.90722 10.0686ZM8.39018 5.02981C8.38542 3.66169 7.30336 2.57252 5.94736 2.57127C4.57998 2.56981 3.48818 3.67877 3.49873 5.05939C3.50887 6.42231 4.60025 7.50377 5.95998 7.49877C7.31556 7.49398 8.39474 6.39773 8.39018 5.02981Z" fill="white"/>
</svg>
