<svg width="17" height="16" viewBox="0 0 17 16" fill="none" xmlns="http://www.w3.org/2000/svg">
<path fill-rule="evenodd" clip-rule="evenodd" d="M0 8.36241H0.00346232C0.00346232 9.63161 1.06293 10.6679 2.36823 10.6679H6.02444V13.2367C6.02444 14.3236 6.3499 15.1067 6.99389 15.5658C8.01181 16.2949 9.41059 15.8797 9.46945 15.8595C9.64603 15.8054 9.76721 15.6468 9.76721 15.4645V12.5784C9.76721 10.3277 12.4215 9.54813 12.5817 9.50109L12.5855 9.49996C12.6202 9.48983 12.6513 9.47971 12.679 9.46283C12.8798 9.85439 13.2953 10.1244 13.7731 10.1244H15.7536C16.4253 10.1244 16.9723 9.5911 16.9723 8.93625V1.91853C16.9723 1.26367 16.4253 0.73034 15.7536 0.73034H14.6075C14.3721 0.73034 14.1817 0.915994 14.1817 1.14553C14.1817 1.37507 14.3756 1.55734 14.6075 1.55734H15.7536C15.9578 1.55734 16.124 1.71937 16.124 1.91853V8.93625C16.124 9.1354 15.9578 9.29743 15.7536 9.29743H13.7697C13.5654 9.29743 13.3992 9.1354 13.3992 8.93625V2.31684C13.3992 1.04764 12.3397 0.0113525 11.0344 0.0113525H3.79124C2.18473 0.0113525 1.16334 0.831606 0.983299 2.24933L0.00692464 8.22401C0.00346232 8.24426 0 8.26789 0 8.28815V8.36241ZM0.848269 8.32528H0.851731L1.82464 2.36747C1.95275 1.35481 2.61405 0.838357 3.79124 0.838357H11.0344C11.8688 0.838357 12.5509 1.49996 12.5509 2.31684V8.69996C12.4886 8.68646 12.4228 8.68983 12.357 8.70671C12.2151 8.74384 8.91894 9.67549 8.91894 12.5818V15.1337C8.55886 15.1877 7.94257 15.2181 7.49593 14.9008C7.08391 14.6038 6.87271 14.0468 6.87271 13.2367V10.2527C6.87271 10.0232 6.68228 9.83751 6.44684 9.83751H2.36477C1.53035 9.83751 0.848269 9.17591 0.848269 8.35903V8.32528Z" fill="#CCCCCC"/>
</svg>
