<svg width="22" height="22" viewBox="0 0 22 22" fill="none" xmlns="http://www.w3.org/2000/svg">
<path fill-rule="evenodd" clip-rule="evenodd" d="M12.3413 11.242C13.2213 10.0547 13.75 8.53323 13.75 6.875C13.75 3.07795 10.98 0 7.5625 0C4.14495 0 1.375 3.07795 1.375 6.875C1.375 8.53323 1.90368 10.0547 2.78368 11.242C1.16805 11.8009 0 13.319 0 15.125V17.875C0 20.1534 1.84663 22 4.125 22H11C13.2784 22 15.125 20.1534 15.125 17.875V15.125C15.125 13.319 13.957 11.8009 12.3413 11.242ZM2.75 6.875C2.75 3.83763 4.90463 1.375 7.5625 1.375C10.2204 1.375 12.375 3.83763 12.375 6.875C12.375 9.91237 10.2204 12.375 7.5625 12.375C4.90463 12.375 2.75 9.91237 2.75 6.875ZM10.375 20.625C12.2389 20.625 13.75 19.2397 13.75 17.5313V15.4688C13.75 14.0071 12.641 12.7896 11.154 12.4658C10.1406 13.2715 8.90313 13.75 7.5625 13.75C6.22187 13.75 4.98437 13.2715 3.971 12.4658C2.48395 12.7896 1.375 14.0071 1.375 15.4688V17.5313C1.375 19.2397 2.88613 20.625 4.74995 20.625H10.375ZM15.8125 5.5H21.3125C21.692 5.5 22 5.192 22 4.8125C22 4.433 21.692 4.125 21.3125 4.125H15.8125C15.433 4.125 15.125 4.433 15.125 4.8125C15.125 5.192 15.433 5.5 15.8125 5.5ZM15.8125 8.25H21.3125C21.692 8.25 22 8.558 22 8.9375C22 9.317 21.692 9.625 21.3125 9.625H15.8125C15.433 9.625 15.125 9.317 15.125 8.9375C15.125 8.558 15.433 8.25 15.8125 8.25ZM21.3125 12.375H17.1875C16.808 12.375 16.5 12.683 16.5 13.0625C16.5 13.442 16.808 13.75 17.1875 13.75H21.3125C21.692 13.75 22 13.442 22 13.0625C22 12.683 21.692 12.375 21.3125 12.375ZM17.1875 16.5H21.3125C21.692 16.5 22 16.808 22 17.1875C22 17.567 21.692 17.875 21.3125 17.875H17.1875C16.808 17.875 16.5 17.567 16.5 17.1875C16.5 16.808 16.808 16.5 17.1875 16.5Z" fill="#1D1EF4"/>
</svg>
