<svg width="18" height="18" viewBox="0 0 18 18" fill="none" xmlns="http://www.w3.org/2000/svg">
<path fill-rule="evenodd" clip-rule="evenodd" d="M17.9414 6.85978C17.9035 6.73911 17.8029 6.65111 17.6817 6.63278L11.8671 5.75645L9.26672 0.292445C9.21272 0.178445 9.10086 0.106445 8.97872 0.106445C8.85657 0.106445 8.74439 0.178445 8.69072 0.292445L6.09004 5.75678L0.275394 6.63311C0.154215 6.65145 0.0539297 6.73911 0.0156798 6.86011C-0.0219274 6.98045 0.00925118 7.11311 0.0970012 7.20145L4.30482 11.4548L3.31129 17.4608C3.29072 17.5858 3.34022 17.7121 3.43889 17.7868C3.53822 17.8621 3.66968 17.8718 3.77736 17.8121L8.97872 14.9768L14.1794 17.8121C14.2264 17.8378 14.2781 17.8504 14.3292 17.8504C14.3958 17.8504 14.462 17.8291 14.5182 17.7868C14.6172 17.7121 14.6667 17.5858 14.6458 17.4608L13.6526 11.4551L17.8604 7.20145C17.9479 7.11244 17.9794 6.98011 17.9414 6.85978Z" fill="#FFC959"/>
</svg>
