<svg xmlns="http://www.w3.org/2000/svg" width="20" height="23" viewBox="0 0 20 23"><g><g><path fill="gray" d="M18.638 21.02H1.367v-2.842h13.504c.37 0 .669-.3.669-.669V5.105c0-.37-.3-.67-.669-.67H6.3V1.339h9.825a2.517 2.517 0 0 1 2.514 2.514zM5.135 14.166h6.558a3.351 3.351 0 0 1-3.279 2.674 3.351 3.351 0 0 1-3.28-2.674zM16.123 0H5.63c-.369 0-.668.3-.668.669v4.436c0 .369.299.668.668.668h2.114v2.374a.669.669 0 0 0 1.338 0V5.773h5.12V16.84h-2.516a4.667 4.667 0 0 0 1.408-3.343c0-.37-.3-.669-.669-.669H4.401c-.369 0-.668.3-.668.67 0 1.308.54 2.492 1.408 3.342H.699c-.37 0-.669.3-.669.669v4.18c0 .37.3.669.669.669h18.608c.369 0 .668-.3.668-.669V3.852A3.856 3.856 0 0 0 16.123 0z"/></g></g></svg>