<svg xmlns="http://www.w3.org/2000/svg" width="19" height="20" viewBox="0 0 19 20"><g><g><path fill="#72bb53" d="M.957 5.887c.045-.495.236-.909.594-1.267l1.39-1.386c.217-.209.456-.317.688-.317.228 0 .46.108.673.324.25.232.485.474.74.73l.388.396 1.114 1.11c.231.232.35.466.35.697 0 .231-.119.466-.35.697-.116.116-.232.235-.348.35-.347.35-.673.683-1.031 1l-.019.018c-.31.31-.261.604-.187.827l.011.03c.288.69.688 1.345 1.312 2.128 1.121 1.379 2.302 2.449 3.602 3.272.161.104.333.186.494.268.149.075.287.146.41.224l.042.022a.783.783 0 0 0 .362.094c.3 0 .493-.19.557-.254l1.397-1.394c.217-.216.453-.331.684-.331.284 0 .516.175.662.331l2.253 2.244c.448.447.445.932-.011 1.405a12.45 12.45 0 0 1-.497.495c-.262.254-.535.515-.781.81-.43.461-.942.677-1.603.677-.064 0-.131-.003-.195-.007-1.225-.078-2.365-.555-3.22-.962a18.168 18.168 0 0 1-6.058-4.732c-1.394-1.674-2.332-3.231-2.952-4.901-.385-1.025-.53-1.849-.47-2.598zM18.966 1.26a.404.404 0 0 0-.41-.409l-5.16-.02a.404.404 0 0 0-.41.41c0 .222.186.407.412.412l4.17.012-6.86 6.852a.41.41 0 0 0 .007.58.406.406 0 0 0 .577.002l6.859-6.851.016 4.168c0 .222.186.408.409.409.23 0 .415-.184.41-.41zm-15.298 12.7a19.114 19.114 0 0 0 6.36 4.972c.93.44 2.174.961 3.559 1.05.086.005.168.008.254.008.93 0 1.677-.32 2.285-.98.004-.004.012-.011.015-.018.217-.261.463-.496.721-.746.176-.168.355-.343.527-.522.795-.827.795-1.878-.008-2.68l-2.244-2.239c-.381-.395-.837-.604-1.315-.604s-.937.21-1.33.6l-1.336 1.335a7.112 7.112 0 0 0-.37-.194 4.623 4.623 0 0 1-.41-.224c-1.218-.771-2.323-1.777-3.38-3.07-.534-.675-.893-1.242-1.143-1.82.351-.316.68-.648.997-.972.112-.115.228-.23.344-.346.403-.403.62-.869.62-1.342 0-.473-.213-.94-.62-1.342L6.08 3.715c-.13-.13-.254-.257-.381-.388a20.473 20.473 0 0 0-.758-.749c-.385-.376-.837-.574-1.315-.574-.474 0-.93.198-1.33.578L.902 3.976a2.861 2.861 0 0 0-.855 1.833c-.071.89.093 1.837.519 2.982.654 1.77 1.64 3.413 3.103 5.168z"/></g></g></svg>