<svg width="34" height="18" viewBox="0 0 34 18" fill="none" xmlns="http://www.w3.org/2000/svg">
<path fill-rule="evenodd" clip-rule="evenodd" d="M30.9393 16.8279H33.4064C33.7277 16.8279 33.9884 17.0867 33.9884 17.4059C33.9884 17.7251 33.7277 17.984 33.4064 17.984H0.636621C0.315324 17.984 0.0546115 17.7251 0.0546115 17.4059C0.0546115 17.0867 0.315324 16.8279 0.636621 16.8279H2.76053C0.487435 15.2494 -0.492467 12.3886 0.339522 9.76011C1.17187 7.13197 3.62381 5.34325 6.39723 5.34199H6.5888L6.85679 3.16266V1.42853H4.7096C4.28715 1.46829 3.97713 1.84082 4.01715 2.26089C4.05736 2.6806 4.43269 2.9886 4.85496 2.94883C5.17663 2.94883 5.43679 3.20749 5.43679 3.5267C5.43679 3.8459 5.17663 4.10474 4.85496 4.10474H4.64574C3.95239 4.07311 3.32926 3.67437 3.0136 3.06036C2.69794 2.44634 2.73852 1.71122 3.11912 1.13481C3.49973 0.558207 4.16216 0.229058 4.85496 0.272258H7.45591C7.7772 0.272258 8.03792 0.530914 8.03792 0.850483V2.63649H20.9256V1.17385H18.8658C18.5445 1.17385 18.2841 0.915192 18.2841 0.595804C18.2841 0.276596 18.5445 0.0175781 18.8658 0.0175781H23.3696C23.6909 0.0175781 23.9514 0.276596 23.9514 0.595804C23.9514 0.915192 23.6909 1.17385 23.3696 1.17385H22.0893V3.03523L24.2074 6.13947C27.1633 4.5042 30.8902 5.45677 32.6848 8.30596C34.4796 11.1552 33.712 14.902 30.9393 16.8279ZM32.4798 11.4711C32.3744 8.6971 30.0795 6.5026 27.2854 6.50368C26.4495 6.50657 25.6267 6.71064 24.8882 7.09908L26.8374 9.94899C26.9904 9.90471 27.1489 9.88121 27.3086 9.8794C28.2263 9.87561 28.9995 10.559 29.1031 11.4648C29.2066 12.3707 28.6064 13.2085 27.7109 13.4086C26.8158 13.6085 25.9123 13.1065 25.6154 12.244H22.1242C22.4372 15.0025 24.8902 17.0211 27.6765 16.8134C30.4632 16.6054 32.5851 14.2455 32.4798 11.4711ZM23.9105 7.75231L25.8541 10.5964C25.7413 10.7454 25.6529 10.9115 25.5923 11.0879H22.1011C22.2565 9.78812 22.9035 8.5957 23.9105 7.75231ZM27.9256 11.666C27.9256 11.3178 27.6412 11.0357 27.2912 11.0357C26.9406 11.0357 26.657 11.3178 26.657 11.666C26.657 12.0139 26.9406 12.2959 27.2912 12.2959C27.6412 12.2959 27.9256 12.0139 27.9256 11.666ZM20.9491 11.0879H20.8674C20.7191 10.4976 20.3513 9.98532 19.8375 9.65419L21.6647 4.48613L23.2359 6.79831C21.9285 7.86854 21.1056 9.41252 20.9491 11.0879ZM17.0275 9.79282C17.4518 9.45084 17.9818 9.26304 18.5285 9.26105L18.5168 9.28437C18.5923 9.27822 18.6682 9.27822 18.7437 9.28437L20.6815 3.79258H9.16664L17.0275 9.79282ZM18.5285 10.4171C19.2227 10.4171 19.7853 10.9764 19.7853 11.666C19.7853 12.3555 19.2227 12.9142 18.5285 12.9142C17.8344 12.9142 17.2718 12.3555 17.2718 11.666C17.2718 10.9805 17.8273 10.4235 18.5168 10.4171H18.5285ZM6.41451 6.50368C3.54612 6.50693 1.22191 8.81622 1.21845 11.666C1.21645 14.3613 3.30251 16.6045 6.00698 16.8159C8.71217 17.0274 11.1248 15.1355 11.5471 12.4728C11.9692 9.80999 10.2583 7.27314 7.61874 6.64828L7.20011 10.0589C7.9948 10.4446 8.39233 11.3448 8.14016 12.1872C7.88746 13.0295 7.05911 13.5671 6.18109 13.4581C5.30362 13.3489 4.63373 12.6254 4.59753 11.7471C4.56187 10.8692 5.17026 10.0938 6.03627 9.91429L6.45508 6.50368H6.41451ZM6.41451 11.0357C6.76455 11.0357 7.04874 11.3178 7.04874 11.666C7.04874 12.0139 6.76455 12.2959 6.41451 12.2959C6.06429 12.2959 5.78047 12.0139 5.78047 11.666C5.78047 11.3178 6.06429 11.0357 6.41451 11.0357ZM12.6385 10.3918C13.1428 12.8506 12.134 15.3726 10.0685 16.8161L23.6314 16.8279C22.106 15.7634 21.1276 14.0877 20.9549 12.244H20.8618C20.628 13.1076 19.9295 13.7708 19.0503 13.9635C18.171 14.1564 17.2567 13.8469 16.6787 13.161C16.1004 12.475 15.9545 11.5264 16.3001 10.7002L7.88655 4.27808L7.74136 5.48044C10.2109 6.00535 12.1335 7.93325 12.6385 10.3918Z" fill="#999999"/>
</svg>
