<svg width="20" height="20" viewBox="0 0 20 20" fill="none" xmlns="http://www.w3.org/2000/svg">
<path fill-rule="evenodd" clip-rule="evenodd" d="M9.99953 19.9991C7.32856 19.9991 4.8175 18.9589 2.92881 17.0703C1.04013 15.1816 0 12.6705 0 9.99953C0 7.32856 1.04017 4.81746 2.92881 2.92881C4.81746 1.04017 7.32856 0 9.99953 0C12.6705 0 15.1816 1.04017 17.0702 2.92881C18.959 4.81746 19.9991 7.3286 19.9991 9.99958C19.9991 12.6706 18.9589 15.1816 17.0703 17.0703C15.1816 18.959 12.6705 19.9991 9.99953 19.9991ZM9.99953 1.05932C5.06992 1.05932 1.05932 5.06992 1.05932 9.99953C1.05932 14.9292 5.06992 18.9398 9.99953 18.9397C14.9292 18.9397 18.9398 14.9292 18.9398 9.99953C18.9398 5.06987 14.9292 1.05932 9.99953 1.05932ZM4.25801 10.5292C3.96551 10.5292 3.72835 10.2921 3.72835 9.99953C3.72835 9.70703 3.96551 9.46987 4.25801 9.46987H15.7411C16.0336 9.46987 16.2707 9.70703 16.2707 9.99953C16.2707 10.292 16.0336 10.5292 15.7411 10.5292H4.25801Z" fill="#808080"/>
</svg>
