<svg width="23" height="20" viewBox="0 0 23 20" fill="none" xmlns="http://www.w3.org/2000/svg">
<path fill-rule="evenodd" clip-rule="evenodd" d="M15.3565 16.1894C15.3565 16.0177 15.4223 15.8456 15.5543 15.7145C15.8183 15.4526 16.2463 15.4526 16.5103 15.7145L19.178 18.3655L21.846 15.7145C22.11 15.4526 22.538 15.4526 22.802 15.7145C23.066 15.9767 23.066 16.402 22.802 16.6642L19.656 19.7898C19.5292 19.9157 19.3571 19.9863 19.1779 19.9863C18.9988 19.9863 18.8266 19.9157 18.6999 19.7898L15.5542 16.6642C15.4223 16.5331 15.3565 16.3611 15.3565 16.1894Z" fill="#999999"/>
<path fill-rule="evenodd" clip-rule="evenodd" d="M11.5542 0.74806C11.5542 0.37741 11.8569 0.0766602 12.23 0.0766602L16.3031 0.0766602C18.2613 0.0766602 19.854 1.65901 19.854 3.60436V19.3153C19.854 19.6859 19.5513 19.9867 19.1782 19.9867C18.8051 19.9867 18.5024 19.6859 18.5024 19.3153V3.60431C18.5024 2.39961 17.5158 1.41946 16.3032 1.41946L12.23 1.41946C11.8568 1.41946 11.5542 1.11871 11.5542 0.74806Z" fill="#999999"/>
<path fill-rule="evenodd" clip-rule="evenodd" d="M3.16842 16.4581L3.16842 0.712904C3.16842 0.342254 3.47115 0.0415039 3.84423 0.0415039C4.21731 0.0415039 4.52004 0.342254 4.52004 0.712904L4.52004 16.4581C4.52004 17.6631 5.50667 18.6433 6.71923 18.6433H10.873C11.2461 18.6433 11.5488 18.944 11.5488 19.3147C11.5488 19.6853 11.2461 19.9861 10.873 19.9861H6.71923C4.76116 19.9861 3.16842 18.4034 3.16842 16.4581Z" fill="#999999"/>
<path fill-rule="evenodd" clip-rule="evenodd" d="M0.0223784 3.8385C0.0223784 3.6668 0.0882077 3.49475 0.220219 3.3636L3.36629 0.238054C3.49301 0.112154 3.66514 0.0415039 3.8443 0.0415039C4.02347 0.0415039 4.1956 0.112154 4.32232 0.238054L7.46804 3.3636C7.73201 3.62585 7.73201 4.0511 7.46804 4.31335C7.20407 4.57525 6.77602 4.57525 6.51205 4.31335L3.84435 1.66235L1.1763 4.31335C0.912333 4.57525 0.484291 4.57525 0.220319 4.31335C0.0881572 4.18225 0.0223784 4.0102 0.0223784 3.8385Z" fill="#999999"/>
</svg>
