<svg xmlns="http://www.w3.org/2000/svg" width="20" height="16" viewBox="0 0 20 16"><g><g><path fill="#999" d="M11.878 8.06c0 .113 0 .227.119.342.118.114.356.228.475.228s.237-.114.356-.228c.119 0 .238-.229.238-.343 0-.228-.12-.342-.238-.457a.59.59 0 0 0-.831 0c-.12.115-.12.343-.12.457zm-8.909 6.732c-.95 0-1.781-.812-1.781-1.74V2.961c0-.928.831-1.74 1.781-1.74h13.066c.95 0 1.782.812 1.782 1.74v2.204h-5.939c-1.07 0-2.02.928-2.02 1.972v1.856c0 1.044.95 1.971 2.02 1.971h5.939v2.088c0 .928-.832 1.74-1.782 1.74zm14.967-4.991h-6.058c-.475 0-.832-.347-.832-.81V7.139c0-.463.357-.81.832-.81h6.058c.475 0 .831.347.831.81V8.99c0 .463-.356.81-.831.81zm1.069-6.84c0-1.625-1.307-2.901-2.97-2.901H2.97C1.307.06 0 1.336 0 2.96v10.093c0 1.624 1.307 2.9 2.97 2.9h13.065c1.663 0 2.97-1.276 2.97-2.9v-2.415c.56-.361.95-.978.95-1.645V7.137c0-.669-.39-1.285-.95-1.645z"/></g></g></svg>