<svg xmlns="http://www.w3.org/2000/svg" width="20" height="20" viewBox="0 0 20 20"><g><g><path fill="#02a6e5" d="M14.376 14.19c-.392.565-.968 1.005-1.72 1.322-.753.318-1.643.476-2.672.476-1.232 0-2.253-.216-3.058-.651a3.964 3.964 0 0 1-1.393-1.252c-.358-.522-.539-1.034-.539-1.532 0-.294.112-.55.33-.759.221-.21.505-.315.84-.315.275 0 .511.083.703.247.191.164.351.402.482.716.157.365.327.67.508.912.18.24.434.44.762.597.325.157.757.236 1.297.236.74 0 1.338-.16 1.796-.476.46-.318.68-.706.68-1.174 0-.374-.118-.67-.363-.902-.246-.234-.565-.413-.96-.537-.396-.126-.929-.26-1.596-.4-.896-.196-1.645-.423-2.252-.685-.608-.262-1.091-.62-1.45-1.074-.36-.457-.539-1.026-.539-1.7 0-.642.19-1.216.568-1.716.379-.501.926-.885 1.64-1.152.712-.267 1.55-.4 2.51-.4.767 0 1.431.088 1.993.265.56.178 1.028.413 1.402.707.37.295.644.605.817.93.173.327.26.646.26.957 0 .29-.112.552-.33.782-.22.23-.499.347-.825.346-.295 0-.526-.068-.686-.211-.156-.14-.32-.36-.496-.67-.224-.43-.493-.765-.804-1.005-.304-.235-.805-.358-1.502-.356-.645 0-1.16.131-1.55.39-.392.261-.58.565-.58.92 0 .224.064.412.193.573.131.162.314.303.548.421.235.12.473.214.713.28.242.07.644.169 1.204.3.7.152 1.337.32 1.908.504.57.185 1.058.408 1.46.674.405.265.722.603.948 1.011.228.409.342.908.342 1.495 0 .708-.197 1.344-.59 1.907zm4.75-2.765A9.26 9.26 0 0 0 8.534.834 5.596 5.596 0 0 0 .833 8.535a9.259 9.259 0 0 0 10.591 10.592 5.596 5.596 0 0 0 7.701-7.702z"/></g></g></svg>