<svg width="24" height="18" viewBox="0 0 24 18" fill="none" xmlns="http://www.w3.org/2000/svg">
<path fill-rule="evenodd" clip-rule="evenodd" d="M10.3722 5.0615L15.664 7.93272C15.9773 8.1027 16.171 8.42798 16.1697 8.7819C16.1682 9.13582 15.9722 9.45966 15.658 9.62728L10.366 12.449C10.2207 12.5266 10.0628 12.5652 9.90527 12.5652C9.7333 12.5652 9.5617 12.5192 9.40691 12.4275C9.11049 12.2519 8.93359 11.9425 8.93359 11.6002V5.90706C8.93359 5.56311 9.11159 5.25323 9.41002 5.07781C9.70826 4.90257 10.0679 4.89641 10.3722 5.0615ZM10.3373 6.62904V10.884L14.2923 8.77502L10.3373 6.62904Z" fill="#FF5050"/>
<path fill-rule="evenodd" clip-rule="evenodd" d="M23.7759 4.23524L23.777 4.24611C23.7842 4.32585 23.9532 6.21958 23.9534 8.12091V9.8983C23.9534 11.7996 23.7842 13.6934 23.777 13.7731L23.7743 13.7974C23.7509 13.9842 23.5212 15.6483 22.7272 16.5042C21.7744 17.5438 20.6998 17.6569 20.1832 17.7113L20.1827 17.7113C20.1334 17.7164 20.0884 17.7211 20.0484 17.7264L20.0066 17.7307C16.8399 17.959 12.0577 17.9902 12.0099 17.9904L12.0026 17.9906L11.9952 17.9904C11.7522 17.987 6.01955 17.902 4.19115 17.7294L4.13578 17.7218C4.08011 17.7121 3.99917 17.7029 3.90508 17.6923L3.8973 17.6914C3.28107 17.6214 2.13542 17.4913 1.22935 16.508C0.399488 15.6427 0.197734 13.9733 0.177449 13.7852L0.17617 13.7733C0.169042 13.6935 0 11.7996 0 9.8983V8.12091C0 6.21958 0.169042 4.32567 0.17617 4.24611L0.178911 4.22183C0.202485 4.03481 0.432018 2.37069 1.22606 1.51498C2.19243 0.460837 3.27321 0.337065 3.79258 0.277626C3.79987 0.276783 3.80705 0.275958 3.81412 0.275145C3.84662 0.271412 3.87687 0.267936 3.90479 0.264215L3.947 0.259866C7.14218 0.0315319 11.9245 0.000362436 11.9724 0.000181218L11.9766 0L11.9808 0.000181218C12.0287 0.000362436 16.811 0.0315319 19.9777 0.259866L20.0196 0.264215C20.0552 0.268927 20.095 0.273458 20.1385 0.278351C20.6639 0.337609 21.7564 0.461199 22.72 1.47856C23.5537 2.34351 23.7557 4.04406 23.7759 4.23524ZM22.3799 13.6368C22.3946 13.4705 22.5495 11.6581 22.5495 9.8983V8.12091C22.5495 6.33266 22.39 4.49493 22.3794 4.37623C22.3196 3.83384 22.0844 2.83207 21.7043 2.43937L21.6986 2.43339C21.087 1.78644 20.4205 1.71106 19.9795 1.66122L19.9772 1.66096C19.9337 1.65598 19.8932 1.65136 19.856 1.64673C16.7761 1.426 12.1429 1.39302 11.9766 1.39193L11.9703 1.39198C11.7178 1.39388 7.14438 1.42821 4.06798 1.64673C4.03566 1.65088 4.00087 1.65488 3.96378 1.65914L3.95358 1.66032C3.52485 1.70943 2.87664 1.78373 2.26188 2.45423C1.89108 2.854 1.64437 3.84309 1.57328 4.38293C1.5583 4.55273 1.40369 6.3631 1.40369 8.12091V9.8983C1.40369 11.6827 1.56268 13.5165 1.57383 13.6423C1.63359 14.1739 1.86879 15.1585 2.2489 15.5512L2.26188 15.565C2.81408 16.1673 3.53217 16.2489 4.05682 16.3085L4.05702 16.3085C4.16045 16.3201 4.25859 16.3313 4.34942 16.346C6.12208 16.5093 11.7708 16.595 12.0086 16.5985C12.2206 16.5972 16.8224 16.5635 19.8852 16.3439C19.9306 16.3382 19.9806 16.3328 20.0347 16.3272C20.4821 16.2802 21.0948 16.2157 21.6913 15.565C22.0782 15.148 22.3204 14.0951 22.3799 13.6368Z" fill="#FF5050"/>
</svg>
