<svg width="18" height="18" viewBox="0 0 18 18" fill="none" xmlns="http://www.w3.org/2000/svg">
<path fill-rule="evenodd" clip-rule="evenodd" d="M18 9C18 4.03726 13.9625 0 9 0C4.03754 0 0 4.03726 0 9C0 13.9627 4.03754 18 9 18C13.9625 18 18 13.9627 18 9ZM16.8923 9C16.8923 13.3518 13.3518 16.8923 9 16.8923C4.64815 16.8923 1.10769 13.3518 1.10769 9C1.10769 4.64815 4.64815 1.10769 9 1.10769C13.3518 1.10769 16.8923 4.64815 16.8923 9ZM8.86652 6.33766C8.50788 6.33766 8.21714 6.04692 8.21714 5.68828C8.21714 5.32963 8.50788 5.03889 8.86652 5.03889C9.22517 5.03889 9.51591 5.32963 9.51591 5.68828C9.51591 6.04692 9.22517 6.33766 8.86652 6.33766ZM9.45332 8.4024C9.45332 8.0964 9.2052 7.84855 8.89948 7.84855C8.59375 7.84855 8.34563 8.09668 8.34563 8.4024V13.1101C8.34563 13.4158 8.59375 13.6639 8.89948 13.6639C9.2052 13.6639 9.45332 13.4158 9.45332 13.1101V8.4024Z" fill="#B3B3B3"/>
</svg>
