<svg width="40" height="40" viewBox="0 0 40 40" fill="none" xmlns="http://www.w3.org/2000/svg">
<path fill-rule="evenodd" clip-rule="evenodd" d="M19.9053 5.97363C27.7771 5.97363 34.1812 12.3777 34.1812 20.2493C34.1812 28.1211 27.7771 34.5251 19.9053 34.5251C18.9868 34.5251 17.7041 34.3604 16.8403 34.1968C16.4116 34.1157 16.1301 33.7024 16.2109 33.2737C16.2925 32.8452 16.7056 32.5637 17.134 32.6445C17.8999 32.7896 19.0938 32.9456 19.9053 32.9456C26.9062 32.9456 32.6016 27.25 32.6016 20.2493C32.6016 13.2485 26.9062 7.55322 19.9053 7.55322C12.9048 7.55322 7.20923 13.2485 7.20923 20.2493C7.20923 23.8564 9.0498 27.6589 12.0129 30.1724C12.3457 30.4546 12.3865 30.9531 12.1042 31.2856C11.8223 31.6187 11.3237 31.6592 10.991 31.3772C9.42383 30.0479 8.09961 28.356 7.16113 26.4849C6.15918 24.4871 5.62964 22.3311 5.62964 20.2493C5.62964 12.3777 12.0337 5.97363 19.9053 5.97363ZM14.0449 23.0894C13.6719 23.0894 13.4182 22.9668 13.2842 22.7222L11.6233 19.6975V22.6697C11.6233 22.804 11.5564 22.9075 11.4224 22.98C11.2881 23.053 11.1279 23.0894 10.9414 23.0894C10.7549 23.0894 10.5947 23.053 10.4609 22.98C10.3267 22.9075 10.2598 22.804 10.2598 22.6697V17.1189C10.2598 16.9849 10.3267 16.8813 10.4609 16.8086C10.5947 16.7358 10.7549 16.6992 10.9414 16.6992C11.2036 16.6992 11.3975 16.7371 11.5229 16.8127C11.6482 16.8887 11.7896 17.0781 11.9468 17.3809L13.363 20.082V17.1099C13.363 16.9761 13.4299 16.874 13.564 16.804C13.6978 16.7339 13.8584 16.6992 14.0449 16.6992C14.2312 16.6992 14.3916 16.7339 14.5254 16.804C14.6594 16.874 14.7266 16.9761 14.7266 17.1099V22.6697C14.7266 22.804 14.6594 22.9075 14.5254 22.98C14.3916 23.053 14.2312 23.0894 14.0449 23.0894ZM20.2512 17.8882H17.9087V19.3655H19.2197C19.3479 19.3655 19.4482 19.418 19.5215 19.5227C19.5942 19.6277 19.6309 19.7532 19.6309 19.8987C19.6309 20.033 19.5957 20.1523 19.5259 20.2573C19.4556 20.3618 19.3535 20.4146 19.2197 20.4146H17.9082V21.9006H20.2512C20.3794 21.9006 20.4797 21.959 20.5527 22.0754C20.6255 22.1921 20.6619 22.3345 20.6619 22.5037C20.6619 22.6611 20.6272 22.7981 20.5571 22.9146C20.4871 23.0312 20.3853 23.0894 20.2512 23.0894H17.1392C16.9761 23.0894 16.8359 23.053 16.7192 22.98C16.6028 22.9075 16.5449 22.804 16.5449 22.6697V17.1189C16.5449 16.9849 16.6028 16.8813 16.7192 16.8086C16.8359 16.7358 16.9761 16.6992 17.1392 16.6992H20.2512C20.3853 16.6992 20.4873 16.7576 20.5571 16.874C20.6272 16.9907 20.6619 17.1277 20.6619 17.2849C20.6619 17.4539 20.6255 17.5967 20.5527 17.7134C20.48 17.8298 20.3794 17.8882 20.2512 17.8882ZM23.7651 23.0237C23.5962 22.9453 23.4883 22.833 23.4419 22.6875L21.7019 17.3547C21.6904 17.3198 21.6846 17.2822 21.6846 17.2412C21.6846 17.1016 21.7793 16.9761 21.9688 16.8655C22.158 16.7549 22.3579 16.6992 22.5674 16.6992C22.8123 16.6992 22.958 16.7837 23.0049 16.9529L24.3335 21.437L25.0239 18.4827C25.0474 18.3718 25.123 18.2847 25.2512 18.2202C25.3794 18.1562 25.5222 18.124 25.6797 18.124C25.8369 18.124 25.9795 18.1562 26.1079 18.2202C26.2358 18.2842 26.312 18.3718 26.3352 18.4827L27.0259 21.437L28.3545 16.9529C28.4011 16.7837 28.5471 16.6992 28.7917 16.6992C29.0015 16.6992 29.2012 16.7549 29.3906 16.8652C29.5798 16.9761 29.6748 17.1016 29.6748 17.2412C29.6748 17.2822 29.6689 17.3198 29.657 17.3547L27.9175 22.6875C27.865 22.833 27.7559 22.9453 27.5898 23.0237C27.4238 23.1025 27.2327 23.1418 27.0171 23.1418C26.8015 23.1418 26.6091 23.1025 26.4402 23.0237C26.271 22.9453 26.1692 22.833 26.1343 22.6875L25.6797 20.6155L25.2251 22.6875C25.1902 22.833 25.0881 22.9453 24.9192 23.0237C24.75 23.1025 24.5579 23.1418 24.3423 23.1418C24.1265 23.1418 23.9343 23.1025 23.7651 23.0237ZM20.1787 4.31763C19.7424 4.31763 19.3892 3.96436 19.3892 3.52783V0.789795C19.3892 0.35376 19.7424 0 20.1787 0C20.615 0 20.9688 0.35376 20.9688 0.789795V3.52783C20.9688 3.96387 20.615 4.31763 20.1787 4.31763ZM20.1787 35.6824C20.615 35.6824 20.9688 36.0356 20.9688 36.4722V39.2102C20.9688 39.6462 20.615 40 20.1787 40C19.7424 40 19.3892 39.6462 19.3892 39.2102V36.4722C19.3892 36.0361 19.7424 35.6824 20.1787 35.6824ZM3.52783 19.2102C3.96436 19.2102 4.31763 19.564 4.31763 20C4.31763 20.436 3.96436 20.7898 3.52783 20.7898H0.789795C0.35376 20.7898 0 20.436 0 20C0 19.564 0.35376 19.2102 0.789795 19.2102H3.52783ZM39.2102 19.2102C39.6462 19.2102 40 19.564 40 20C40 20.436 39.6462 20.7898 39.2102 20.7898H36.4722C36.0356 20.7898 35.6824 20.436 35.6824 20C35.6824 19.564 36.0356 19.2102 36.4722 19.2102H39.2102ZM7.66846 31.3384C7.97705 31.03 8.47681 31.03 8.7854 31.3384C9.09399 31.647 9.09399 32.147 8.7854 32.4556L6.84937 34.3916C6.69531 34.5459 6.49292 34.6228 6.29102 34.6228C6.08887 34.6228 5.88647 34.5459 5.73242 34.3916C5.42383 34.083 5.42383 33.583 5.73242 33.2744L7.66846 31.3384ZM31.522 9.3916C31.3198 9.3916 31.1179 9.31445 30.9634 9.16016C30.6548 8.85156 30.6548 8.35156 30.9634 8.04321L32.8994 6.10718C33.208 5.79858 33.7083 5.79858 34.0166 6.10718C34.325 6.41577 34.325 6.91553 34.0166 7.22412L32.0806 9.16016C31.9263 9.31421 31.7241 9.3916 31.522 9.3916ZM7.75977 9.36865L5.82373 7.43262C5.51514 7.12402 5.51514 6.62378 5.82373 6.31543C6.13232 6.00708 6.63208 6.00708 6.94067 6.31543L8.87671 8.25146C9.18506 8.55981 9.18506 9.06006 8.87671 9.36865C8.72266 9.52271 8.52026 9.59985 8.31812 9.59985C8.11621 9.59985 7.91382 9.52271 7.75977 9.36865ZM32.1719 31.5466L34.1079 33.4827C34.4163 33.7913 34.4163 34.2915 34.1079 34.5996C33.9536 34.7539 33.7515 34.8311 33.5496 34.8311C33.3472 34.8311 33.145 34.7539 32.9907 34.5996L31.0547 32.6636C30.7466 32.355 30.7466 31.855 31.0547 31.5466C31.3633 31.238 31.8633 31.238 32.1719 31.5466ZM13.8601 31.698C14.2847 31.5972 14.71 31.8606 14.8101 32.2852C14.9102 32.7097 14.6475 33.135 14.2231 33.2351L14.1831 33.2446C14.1221 33.259 14.061 33.2661 14.001 33.2661C13.6428 33.2661 13.3188 33.021 13.2327 32.6575C13.1326 32.2329 13.3958 31.8076 13.8203 31.707L13.8601 31.698Z" fill="#CCCCCC"/>
</svg>
