<svg xmlns="http://www.w3.org/2000/svg" width="20" height="18" viewBox="0 0 20 18"><g><g><path fill="gray" d="M18.828 16.2c0 .33-.263.6-.586.6H1.758a.594.594 0 0 1-.586-.6V6.697l.935 2.872c.24.736.91 1.231 1.667 1.231H7.07v.6c0 .331.263.6.586.6h4.688a.593.593 0 0 0 .586-.6v-.6h3.296a1.76 1.76 0 0 0 1.667-1.23l.935-2.873zm-7.07-6.6v1.2H8.242V9.6zm6.843-6l-1.82 5.59a.586.586 0 0 1-.555.41H12.93V9c0-.331-.263-.6-.586-.6H7.656a.593.593 0 0 0-.586.6v.6H3.774a.586.586 0 0 1-.555-.41L1.399 3.6zM7.071 1.8c0-.33.262-.6.585-.6h4.688c.323 0 .586.27.586.6v.6H7.07zm12.347.6h-5.316v-.6c0-.993-.789-1.8-1.758-1.8H7.656c-.969 0-1.758.807-1.758 1.8v.6H.586A.595.595 0 0 0 0 3v13.2c0 .993.789 1.8 1.758 1.8h16.484c.97 0 1.758-.807 1.758-1.8V3.01c-.022-.394-.26-.608-.582-.61z"/></g></g></svg>