<svg xmlns="http://www.w3.org/2000/svg" width="12" height="26" viewBox="0 0 12 26"><g><g><path fill="gray" d="M3.362 7.349v-.005h5.233c1.854 0 3.362 1.48 3.362 3.3v4.23c0 1.22-.698 2.334-1.773 2.902v5.56c0 1.449-1.2 2.627-2.676 2.627h-3.06c-1.475 0-2.675-1.178-2.675-2.627v-5.555C.697 17.213 0 16.099 0 14.878V10.65c0-1.82 1.508-3.3 3.362-3.3zm5.243 1.295H3.373c-1.124 0-2.038.896-2.038 2v4.234c0 .833.535 1.587 1.335 1.873.26.096.433.34.433.61v5.97a1.34 1.34 0 0 0 1.351 1.327h3.06a1.34 1.34 0 0 0 1.35-1.327v-5.975c0-.27.174-.514.433-.61a2.002 2.002 0 0 0 1.335-1.873v-4.229c0-1.098-.913-1.995-2.027-2zM5.978 0c1.87 0 3.39 1.491 3.39 3.327 0 1.836-1.52 3.327-3.39 3.327S2.59 5.163 2.59 3.327C2.59 1.49 4.11 0 5.98 0zM3.914 3.327c0 1.12.924 2.027 2.064 2.027 1.14 0 2.065-.907 2.065-2.027S7.12 1.3 5.978 1.3c-1.14 0-2.064.907-2.064 2.027z"/></g></g></svg>