<svg width="20" height="13" viewBox="0 0 20 13" fill="none" xmlns="http://www.w3.org/2000/svg">
<path fill-rule="evenodd" clip-rule="evenodd" d="M9.99988 0.0332031C15.437 0.0332031 19.6942 5.8574 19.8729 6.10539C20.0423 6.34042 20.0423 6.65976 19.8729 6.89498C19.6942 7.14274 15.437 12.967 9.99988 12.967C4.56273 12.967 0.305391 7.14278 0.126914 6.89479C-0.0423047 6.65952 -0.0423047 6.34042 0.126914 6.10515C0.305391 5.8574 4.56273 0.0332031 9.99988 0.0332031ZM1.49922 6.49963C2.52605 7.76337 5.99484 11.629 9.99988 11.629C14.0135 11.629 17.475 7.76535 18.5005 6.50054C17.4733 5.23614 14.0047 1.37117 9.99988 1.37117C5.98625 1.37117 2.52473 5.23479 1.49922 6.49963Z" fill="#808080"/>
<path fill-rule="evenodd" clip-rule="evenodd" d="M6.04395 6.50028C6.04395 4.28703 7.81867 2.48633 10 2.48633C12.1813 2.48633 13.9561 4.28703 13.9561 6.50028C13.9561 8.71353 12.1813 10.5142 10 10.5142C7.81867 10.5142 6.04395 8.71353 6.04395 6.50028ZM7.36266 6.50028C7.36266 7.97582 8.5457 9.17622 10 9.17622C11.4543 9.17622 12.6373 7.97582 12.6373 6.50028C12.6373 5.02474 11.4543 3.82434 10 3.82434C8.54574 3.82434 7.36266 5.02474 7.36266 6.50028Z" fill="#808080"/>
</svg>
