<svg xmlns="http://www.w3.org/2000/svg" width="22" height="20" viewBox="0 0 22 20"><g><g><path fill="#b3b3b3" d="M20.967 16.861a1.539 1.539 0 0 1-1.534 1.535H2.557a1.539 1.539 0 0 1-1.535-1.535V5.258H11.45c.05 0 .1-.006.148-.02.119.015.238.024.358.025h7.477a1.539 1.539 0 0 1 1.534 1.534zM2.557 1.028h4.714c.573 0 1.098.319 1.36.826l1.055 2.024c.065.122.139.24.22.352H1.022V2.563c0-.846.687-1.532 1.536-1.535zm16.867 3.205h-7.478a1.53 1.53 0 0 1-1.36-.829L9.533 1.375A2.544 2.544 0 0 0 7.263 0H2.556A2.557 2.557 0 0 0 0 2.556v14.292a2.557 2.557 0 0 0 2.556 2.556h16.868a2.557 2.557 0 0 0 2.556-2.556V6.788a2.557 2.557 0 0 0-2.556-2.555z"/></g></g></svg>