<svg width="18" height="18" viewBox="0 0 18 18" fill="none" xmlns="http://www.w3.org/2000/svg">
<path fill-rule="evenodd" clip-rule="evenodd" d="M18 9C18 4.0374 13.9626 0 8.99982 0C4.03735 0 0 4.0374 0 9C0 13.9626 4.03735 18 8.99982 18C13.9626 18 18 13.9626 18 9ZM16.8196 9C16.8196 13.3117 13.3115 16.8196 8.99982 16.8196C4.68841 16.8196 1.18035 13.3117 1.18035 9C1.18035 4.68823 4.68841 1.1804 8.99982 1.1804C13.3115 1.1804 16.8196 4.68828 16.8196 9ZM8.99982 4.11219C10.5829 4.11219 11.8707 5.39991 11.8707 6.98283C11.8707 8.36347 10.8908 9.51917 9.59009 9.79204V11.3193C9.59009 11.6452 9.32571 11.9094 8.99982 11.9094C8.67393 11.9094 8.40973 11.6452 8.40973 11.3193V9.26348C8.40973 8.93763 8.67393 8.67334 8.99982 8.67334C9.93209 8.67334 10.6903 7.915 10.6903 6.98287C10.6903 6.05092 9.93217 5.29258 8.99982 5.29258C8.06783 5.29258 7.30966 6.05092 7.30966 6.98287C7.30966 7.30876 7.04547 7.57305 6.7194 7.57305C6.39351 7.57305 6.12931 7.30881 6.12931 6.98287C6.12931 5.39991 7.4169 4.11219 8.99982 4.11219ZM9.74075 13.059C9.74075 12.6499 9.40941 12.3182 9.00018 12.3182C8.59131 12.3182 8.25926 12.6499 8.25926 13.059C8.25926 13.4681 8.59131 13.7999 9.00018 13.7999C9.40941 13.7999 9.74075 13.4681 9.74075 13.059Z" fill="#CCCCCC"/>
</svg>
