<svg width="17" height="22" viewBox="0 0 17 22" fill="none" xmlns="http://www.w3.org/2000/svg">
<path fill-rule="evenodd" clip-rule="evenodd" d="M14.8005 3.09063C15.4551 3.4686 15.6392 4.13683 15.2578 4.79745L8.31917 16.8155L3.94904 19.3869C3.33145 19.702 2.90293 19.4546 2.86696 18.7622L2.90878 13.6919L9.84743 1.67376C10.2288 1.01313 10.8996 0.838447 11.5543 1.21642L14.8005 3.09063ZM4.05738 14.2014L4.03837 17.9827L7.30361 16.0756L4.05738 14.2014ZM5.0849 13.3518L5.07918 13.3485L4.68212 13.1193L8.74293 6.08577L11.9892 7.95998L7.92835 14.9935C7.06176 14.4926 5.76356 13.7434 5.0849 13.3518ZM9.36767 5.00369L12.6139 6.8779L12.6139 6.87791L13.8634 4.71374C14.1761 4.17694 14.1647 4.17026 13.6919 3.89379C13.6735 3.88306 13.6545 3.87192 13.6347 3.86033L11.4706 2.61085C10.9503 2.28742 10.9093 2.29476 10.6172 2.83952L9.36767 5.00369Z" fill="#CCCCCC"/>
</svg>
