<svg xmlns="http://www.w3.org/2000/svg" width="16" height="20" viewBox="0 0 16 20"><g><g><path fill="gray" d="M6.549 12.617c0 .51.265.958.665 1.215v1.715c0 .431.351.781.785.781.433 0 .784-.35.784-.781v-1.713c.402-.257.668-.706.668-1.217 0-.798-.65-1.445-1.451-1.445s-1.451.647-1.451 1.445zm7.098 5.82H2.353a.784.784 0 0 1-.784-.78v-7.97c0-.43.351-.78.784-.78h11.294c.433 0 .784.35.784.78v7.97c0 .43-.351.78-.784.78zM8.004 1.563c1.473 0 2.671 1.153 2.671 2.57v3.212H5.332V4.132c0-1.417 1.198-2.57 2.672-2.57zm4.23 5.782V4.132c0-2.279-1.9-4.132-4.235-4.132-2.336 0-4.236 1.853-4.236 4.132v3.212h-1.41A2.351 2.351 0 0 0 0 9.687v7.97A2.351 2.351 0 0 0 2.353 20h11.294A2.351 2.351 0 0 0 16 17.656V9.688a2.351 2.351 0 0 0-2.353-2.344z"/></g></g></svg>