<svg width="20" height="10" viewBox="0 0 20 10" fill="none" xmlns="http://www.w3.org/2000/svg">
<path fill-rule="evenodd" clip-rule="evenodd" d="M18.6496 1.49725C17.7305 0.531739 16.4345 0 15 0C13.2312 0 11.8997 0.945109 10.9667 1.99359C11.3212 2.49859 11.5974 2.98199 11.7988 3.37424C12.5155 2.4167 13.5888 1.44928 15 1.44928C16.9918 1.44928 18.4375 2.94257 18.4375 5C18.4375 7.05743 16.9918 8.55072 15 8.55072C12.1525 8.55072 10.7543 4.80674 10.7409 4.76996L10.737 4.75957C10.6633 4.56522 8.88758 0 5 0C3.56555 0 2.26945 0.531739 1.35035 1.49725C0.47957 2.41203 0 3.65601 0 5C0 6.34399 0.47957 7.58797 1.35035 8.50275C2.26945 9.46826 3.56555 10 5 10C6.78336 10 8.10805 9.07862 9.03297 8.04525C8.6793 7.54036 8.40543 7.05638 8.20441 6.65779C7.49723 7.60395 6.43191 8.55072 5 8.55072C3.00816 8.55072 1.5625 7.05743 1.5625 5C1.5625 2.94257 3.00816 1.44928 5 1.44928C7.74816 1.44928 9.21516 5.1183 9.26195 5.23772C9.36574 5.52149 11.0685 10 15 10C16.4345 10 17.7305 9.46826 18.6496 8.50275C19.5204 7.58797 20 6.34399 20 5C20 3.65601 19.5204 2.41203 18.6496 1.49725Z" fill="black"/>
</svg>
