<svg xmlns="http://www.w3.org/2000/svg" width="20" height="25" viewBox="0 0 20 25"><g><g><path fill="#999" d="M12.161 6.113c.299 0 .54-.245.54-.547a.544.544 0 0 0-.54-.548H7.828a.544.544 0 0 0-.541.548c0 .302.242.547.54.547zm4.274 13.189c0-.562-.45-1.018-1.006-1.018-.555 0-1.005.456-1.005 1.018s.45 1.018 1.005 1.018c.556 0 1.006-.456 1.006-1.018zm-10.945 0c0-.562-.45-1.018-1.006-1.018-.555 0-1.005.456-1.005 1.018s.45 1.018 1.005 1.018c.555 0 1.006-.456 1.006-1.018zm-1.396-5.436V9.852a1.36 1.36 0 0 1 1.35-1.367h9.1c.745 0 1.35.614 1.35 1.367v4.014zm1.352-6.475c-1.342 0-2.433 1.104-2.433 2.461v4.562c0 .302.243.547.541.547h12.89c.3 0 .541-.245.541-.547V9.852c0-1.357-1.09-2.461-2.432-2.461zm10.192 13.843H4.35c-1.802 0-3.269-1.485-3.269-3.31v-7.522c0-3.673 2.951-6.661 6.578-6.661h4.67c3.628 0 6.578 2.988 6.578 6.661v7.521c0 1.826-1.466 3.311-3.269 3.311zM10.535 2.646V1.095h1.939c.299 0 .54-.245.54-.548a.544.544 0 0 0-.54-.547h-4.96a.544.544 0 0 0-.54.547c0 .303.242.548.54.548h1.94v1.551H7.659C3.436 2.646 0 6.126 0 10.402v7.521c0 2.43 1.951 4.406 4.35 4.406h1.591a57.97 57.97 0 0 1-2.655 1.641.551.551 0 0 0-.202.747.539.539 0 0 0 .738.204 66.753 66.753 0 0 0 4.087-2.592h4.17a66.75 66.75 0 0 0 4.088 2.592.533.533 0 0 0 .737-.204.551.551 0 0 0-.201-.747 57.97 57.97 0 0 1-2.656-1.641h1.591c2.399 0 4.35-1.977 4.35-4.406v-7.52c0-4.277-3.435-7.757-7.658-7.757z"/></g></g></svg>