<svg xmlns="http://www.w3.org/2000/svg" width="20" height="11" viewBox="0 0 20 11"><g><g><path fill="#5181b8" d="M19.87 9.928a1.296 1.296 0 0 0-.067-.125c-.347-.6-1.009-1.337-1.987-2.21l-.02-.02-.01-.01-.011-.01h-.01c-.444-.407-.725-.68-.843-.82-.215-.267-.263-.537-.146-.81.083-.207.396-.644.936-1.31.285-.354.51-.638.676-.851 1.2-1.534 1.72-2.514 1.56-2.94l-.061-.1c-.042-.06-.15-.115-.323-.165-.173-.05-.395-.059-.666-.025l-2.995.02a.404.404 0 0 0-.208.005l-.135.03-.052.025-.042.03a.455.455 0 0 0-.114.105.68.68 0 0 0-.104.175 16.063 16.063 0 0 1-1.113 2.25c-.257.414-.492.772-.707 1.075a5.208 5.208 0 0 1-.541.67 3.724 3.724 0 0 1-.395.345c-.118.087-.208.124-.27.11a7.846 7.846 0 0 1-.178-.04.676.676 0 0 1-.234-.245 1.067 1.067 0 0 1-.12-.39 4.14 4.14 0 0 1-.036-.405 8.142 8.142 0 0 1 .006-.48c.007-.207.01-.347.01-.42 0-.253.005-.528.015-.825.01-.297.02-.532.027-.705.007-.173.01-.357.01-.55 0-.194-.012-.345-.037-.455a1.515 1.515 0 0 0-.108-.32.546.546 0 0 0-.214-.24 1.23 1.23 0 0 0-.348-.136c-.368-.08-.836-.123-1.404-.13-1.29-.013-2.119.067-2.486.24a1.394 1.394 0 0 0-.395.3c-.125.147-.143.227-.053.24.417.06.711.204.884.43l.063.12c.049.087.097.24.146.46.048.22.08.464.093.73a7.49 7.49 0 0 1 0 1.251c-.035.347-.067.617-.099.81-.03.194-.078.35-.14.47-.063.12-.104.194-.125.22a.176.176 0 0 1-.052.05.807.807 0 0 1-.28.05c-.098 0-.216-.046-.354-.14a2.46 2.46 0 0 1-.432-.385 5.156 5.156 0 0 1-.504-.685c-.188-.293-.382-.64-.583-1.04l-.166-.29a24.6 24.6 0 0 1-.427-.815c-.18-.357-.34-.702-.478-1.036a.663.663 0 0 0-.25-.32l-.052-.03a.721.721 0 0 0-.166-.085 1.138 1.138 0 0 0-.24-.065l-2.85.02c-.29 0-.488.064-.592.19L.03.781A.313.313 0 0 0 0 .941c0 .074.02.164.062.27.416.94.869 1.847 1.358 2.72.489.874.913 1.578 1.274 2.111.36.534.728 1.037 1.102 1.51.375.474.623.777.744.91.121.134.217.234.286.3l.26.24c.167.16.41.352.733.576.323.223.68.443 1.072.66.391.217.847.393 1.367.53s1.027.192 1.519.165h1.196c.243-.02.426-.093.551-.22l.042-.05a.65.65 0 0 0 .078-.185.98.98 0 0 0 .036-.275 3.173 3.173 0 0 1 .068-.775c.051-.23.11-.403.177-.52a1.282 1.282 0 0 1 .4-.44.694.694 0 0 1 .083-.035c.167-.053.362-.002.588.155a3.4 3.4 0 0 1 .635.58c.197.23.435.489.712.775.277.287.52.5.728.64l.208.12c.139.08.32.154.541.22.222.067.416.084.582.05l2.663-.04c.263 0 .468-.041.614-.125.145-.083.232-.175.26-.275.027-.1.029-.213.005-.34a1.217 1.217 0 0 0-.073-.265z"/></g></g></svg>