<svg xmlns="http://www.w3.org/2000/svg" width="22" height="22" viewBox="0 0 22 22"><g><g><path fill="gray" d="M10.095 15.961c0 .5.408.906.91.906.503 0 .91-.406.91-.906s-.407-.905-.91-.905a.908.908 0 0 0-.91.905zM7.49 8.535a.721.721 0 1 0 1.443 0c0-1.14.927-2.066 2.066-2.066 1.14 0 2.066.927 2.066 2.066 0 1.139-.927 2.066-2.066 2.066a.721.721 0 0 0-.721.721v2.513a.721.721 0 1 0 1.442 0v-1.867a3.514 3.514 0 0 0 2.788-3.433 3.513 3.513 0 0 0-3.51-3.509 3.512 3.512 0 0 0-3.508 3.509zm-6.048 2.47c0-5.273 4.29-9.562 9.562-9.562 5.272 0 9.562 4.29 9.562 9.562 0 5.273-4.29 9.562-9.562 9.562-5.272 0-9.562-4.29-9.562-9.562zM0 11c0 6.065 4.935 11 11 11s11-4.935 11-11S17.065 0 11 0 0 4.935 0 11z"/></g></g></svg>