<svg width="20" height="17" viewBox="0 0 20 17" fill="none" xmlns="http://www.w3.org/2000/svg">
<path fill-rule="evenodd" clip-rule="evenodd" d="M0 5.10542C0 3.79235 1.04082 2.71841 2.32245 2.71841H5.56735L5.6449 2.37022C5.96327 0.973259 7.15918 0 8.55102 0H11.4449C12.8408 0 14.0367 0.973259 14.351 2.37022L14.4286 2.71841H17.6776C18.9592 2.71841 20 3.78816 20 5.10542V14.1752C20 15.5596 18.9061 16.6838 17.5592 16.6838H2.44082C1.09388 16.6838 0 15.5596 0 14.1752V5.10542ZM5.96735 3.74621H2.32245C1.59184 3.74621 1 4.3545 1 5.10542V14.1752C1 14.9932 1.6449 15.656 2.44082 15.656H17.5551C18.351 15.656 18.9959 14.9932 18.9959 14.1752V5.10542C18.9959 4.3545 18.4041 3.74621 17.6735 3.74621H14.0286C13.7959 3.74621 13.5959 3.57841 13.5429 3.34768L13.3755 2.60095C13.1633 1.67384 12.3714 1.0278 11.4449 1.0278H8.55102C7.62449 1.0278 6.83265 1.67384 6.62041 2.60095L6.45306 3.34768C6.4 3.5826 6.2 3.74621 5.96735 3.74621ZM3.38367 6.62823C3.01398 6.62823 2.71429 6.32021 2.71429 5.94024C2.71429 5.56027 3.01398 5.25224 3.38367 5.25224C3.75337 5.25224 4.05306 5.56027 4.05306 5.94024C4.05306 6.32021 3.75337 6.62823 3.38367 6.62823Z" fill="#808080"/>
</svg>
