<svg width="22" height="22" viewBox="0 0 22 22" fill="none" xmlns="http://www.w3.org/2000/svg">
<path fill-rule="evenodd" clip-rule="evenodd" d="M10.301 6.52726C12.3263 4.49788 14.356 2.464 16.3723 0.434612C16.6904 0.111346 17.0578 -0.0233475 17.4611 0.0260402L17.5373 0.0350198L17.5445 0.0359505C17.8206 0.0716414 18.1358 0.112392 18.4334 0.232571C19.9299 0.838693 21.0232 1.91624 21.6819 3.42482C21.7852 3.66639 21.8389 3.91625 21.8866 4.13856L21.8867 4.13858L21.8925 4.16563C21.9037 4.21053 21.9137 4.25655 21.9238 4.30257C21.9339 4.34859 21.944 4.39461 21.9552 4.43951C21.9686 4.49788 21.9731 4.56073 21.9686 4.62359C21.9328 5.00522 21.7894 5.31502 21.5295 5.57543C18.0077 9.09992 14.4859 12.6289 10.9642 16.1624C10.7536 16.3734 10.5071 16.5036 10.2159 16.5664C9.34517 16.7472 8.47229 16.9322 7.60025 17.1171C7.21581 17.1986 6.83152 17.2801 6.44766 17.3611L5.65906 17.5273C5.58289 17.5407 5.50672 17.5497 5.43055 17.5497C5.16171 17.5497 4.90631 17.4464 4.72261 17.2624C4.48513 17.0244 4.39104 16.6742 4.46273 16.324L4.61507 15.6056C4.88839 14.3081 5.16171 13.0105 5.44399 11.713C5.49776 11.466 5.63666 11.2146 5.82037 11.026C6.44414 10.3902 7.07365 9.76014 7.70201 9.13122L7.70202 9.13121L8.17271 8.65992L10.301 6.52726ZM17.3132 1.10808C17.2819 1.10808 17.2415 1.12155 17.1564 1.19339C15.1312 3.23175 13.1014 5.26563 11.0717 7.29951L8.94338 9.43216C8.15927 10.2134 7.37963 10.9991 6.6 11.7893C6.55967 11.8342 6.52383 11.8971 6.51487 11.9375C6.27841 13.0381 6.04519 14.142 5.81246 15.2436L5.81239 15.2439L5.69043 15.8211L5.56497 16.4093L6.22811 16.2701C6.85767 16.1377 7.48612 16.0052 8.11456 15.8728C8.74294 15.7403 9.37132 15.6079 10.0008 15.4754C10.0815 15.4575 10.1352 15.4305 10.1935 15.3722C11.0733 14.4906 11.9531 13.6087 12.8329 12.7268L12.8345 12.7252C15.4762 10.0773 18.1185 7.42874 20.7633 4.78522C20.8261 4.72686 20.8574 4.67298 20.8754 4.59216C20.8686 4.55624 20.8608 4.52033 20.853 4.48441C20.8451 4.44849 20.8373 4.41257 20.8305 4.37665C20.7902 4.18359 20.7499 3.99951 20.6872 3.85584C20.145 2.61665 19.2489 1.73665 18.0301 1.24277C17.8599 1.17094 17.6448 1.144 17.4118 1.11706L17.3356 1.10808H17.3132ZM1.09776 5.55747C1.09776 5.20278 1.389 4.91094 1.74297 4.91094H9.56619C9.87088 4.91094 10.1173 4.664 10.1173 4.35869C10.1173 4.05339 9.87088 3.80645 9.56619 3.80645H1.74297C0.779633 3.80645 0 4.59216 0 5.55298V20.2526C0 21.2179 0.784114 21.9991 1.74297 21.9991H16.4081C17.3715 21.9991 18.1511 21.2134 18.1511 20.2526V12.7322C18.1511 12.4269 17.9047 12.1799 17.6 12.1799C17.2953 12.1799 17.0489 12.4269 17.0489 12.7322V20.2526C17.0489 20.6073 16.7576 20.8991 16.4037 20.8991H1.74297C1.389 20.8991 1.09776 20.6073 1.09776 20.2526V5.55747Z" fill="#B3B3B3"/>
</svg>
