<svg xmlns="http://www.w3.org/2000/svg" width="20" height="20" viewBox="0 0 20 20"><g><g><path fill="gray" d="M18.828 11.416H1.172v-1.182h17.656zm-1.719 7.412H2.891v-6.25h14.218zM3.36 7.227c0-.754.614-1.368 1.368-1.368H7.46c.754 0 1.367.614 1.367 1.368v1.836H3.36zm2.73-6.055a1.757 1.757 0 0 1 0 3.516 1.757 1.757 0 0 1 0-3.516zm5.747 3.955V2.773h5.068v2.354zm3.125 3.936V6.288h3.125V1.602h-7.422v4.687h3.125v2.774H10V7.226c0-1.1-.704-2.04-1.684-2.391.44-.513.707-1.179.707-1.906A2.933 2.933 0 0 0 6.093 0a2.933 2.933 0 0 0-2.929 2.93c0 .727.267 1.393.708 1.906a2.543 2.543 0 0 0-1.685 2.39v1.837H0v3.515h1.719V20H18.28v-7.422H20V9.063z"/></g></g></svg>