<svg width="24" height="22" viewBox="0 0 24 22" fill="none" xmlns="http://www.w3.org/2000/svg">
<path fill-rule="evenodd" clip-rule="evenodd" d="M24 19.8288C24 19.5055 23.9263 19.1901 23.7812 18.8921L23.7808 18.8917C22.1834 15.6198 19.506 10.9794 17.1436 6.88491L17.1418 6.88187L17.0926 6.79658L17.0926 6.79649L17.0923 6.79597C15.8743 4.68438 14.7261 2.6939 13.8931 1.1761C13.4947 0.449587 12.7867 0.015625 11.9995 0.015625C11.2123 0.015625 10.5043 0.449587 10.1059 1.1761C9.26109 2.7154 8.09259 4.74137 6.85477 6.88627L6.82504 6.93781L6.82504 6.93781L6.82501 6.93786C4.47088 11.0194 1.80928 15.6341 0.218766 18.8921C0.0737344 19.1901 0 19.5055 0 19.8288C0 21.0176 0.961453 21.9845 2.14364 21.9845L12 21.9835L21.8564 21.9845C23.0385 21.9845 24 21.0176 24 19.8288ZM23 19.8288C23 20.4666 22.4868 20.9864 21.8565 20.9864H2.14453C1.51416 20.9864 1.00097 20.4666 1.00097 19.8288C1.00097 19.6582 1.04053 19.4899 1.11862 19.3295C2.69912 16.0921 5.36348 11.4737 7.7153 7.39691L7.71535 7.39683L7.71538 7.39678L7.72214 7.38506C8.96236 5.23529 10.1338 3.20445 10.9834 1.65589C11.4238 0.852327 12.5761 0.852327 13.0166 1.65589C13.8657 3.20352 15.0361 5.23234 16.2754 7.3802C18.6304 11.4613 21.2993 16.0876 22.8818 19.3291C22.9605 19.49 23 19.6582 23 19.8288ZM12 5.00902C12.2764 5.00902 12.5 5.23234 12.5 5.50832V15.4941C12.5 15.7701 12.2764 15.9934 12 15.9934C11.7236 15.9934 11.5 15.7701 11.5 15.4941V5.50832C11.5 5.23234 11.7236 5.00902 12 5.00902ZM11.5 18.4894C11.5 18.7652 11.7238 18.9887 12 18.9887C12.2762 18.9887 12.5 18.7652 12.5 18.4894C12.5 18.2136 12.2762 17.9901 12 17.9901C11.7238 17.9901 11.5 18.2136 11.5 18.4894Z" fill="#FF5050"/>
</svg>
