<svg xmlns="http://www.w3.org/2000/svg" width="29" height="20" viewBox="0 0 29 20"><g><g><path fill="#ff5050" d="M15.066 19.388a.568.568 0 0 1-1.132 0 .568.568 0 0 1 1.132 0zm13.905-.178a.567.567 0 0 1-.537.745H16.766a.566.566 0 0 1 0-1.134h10.883l-2.124-6.423c-.843 1.7-1.882 3.21-2.85 4.11a.564.564 0 0 1-.77 0c-1.704-1.584-3.63-5.068-4.321-8.131h-6.688c-.612 1.219-1.36 2.3-2.055 2.947a.565.565 0 0 1-.772 0c-.696-.648-1.443-1.728-2.056-2.947H4.804L1.35 18.821h10.884a.566.566 0 0 1 0 1.134H.566a.566.566 0 0 1-.537-.745L3.857 7.632a.566.566 0 0 1 .538-.388H5.5c-.48-1.19-.797-2.424-.797-3.461A3.757 3.757 0 0 1 8.455.03a3.756 3.756 0 0 1 3.752 3.753c0 1.037-.316 2.27-.797 3.46h5.974a8.328 8.328 0 0 1-.065-1.004 4.978 4.978 0 0 1 4.972-4.973 4.978 4.978 0 0 1 4.97 4.973c0 1.387-.414 3.031-1.05 4.625zM11.074 3.783a2.622 2.622 0 0 0-2.62-2.62 2.622 2.622 0 0 0-2.618 2.62c0 1.912 1.358 4.839 2.619 6.306 1.261-1.467 2.619-4.394 2.619-6.306zM22.29 15.287c.982-1.073 2.019-2.786 2.767-4.584a.571.571 0 0 1 .064-.155c.606-1.495 1.008-3.037 1.008-4.31A3.844 3.844 0 0 0 22.29 2.4a3.843 3.843 0 0 0-3.838 3.84c0 .438.048.91.135 1.4a.562.562 0 0 1 .025.133c.51 2.666 2.16 5.856 3.678 7.515zm0-11.724c1.475 0 2.675 1.2 2.675 2.676 0 1.475-1.2 2.676-2.675 2.676a2.679 2.679 0 0 1-2.675-2.676c0-1.476 1.2-2.676 2.675-2.676zm0 4.218c.85 0 1.543-.692 1.543-1.542 0-.85-.692-1.543-1.543-1.543-.85 0-1.542.692-1.542 1.543 0 .85.692 1.542 1.542 1.542z"/></g></g></svg>