<svg width="26" height="18" viewBox="0 0 26 18" fill="none" xmlns="http://www.w3.org/2000/svg">
<path fill-rule="evenodd" clip-rule="evenodd" d="M23.6192 4.48685L23.6324 4.49115C24.4292 4.53464 25.0532 5.19427 25.0532 5.99339C25.0532 6.79265 24.4292 7.45241 23.6324 7.49563H23.4557L24.3395 9.17255C24.3738 9.23655 24.3919 9.30802 24.3924 9.38047V14.4557C24.3898 14.5272 24.3702 14.5971 24.3348 14.659C24.3713 14.7583 24.3908 14.8633 24.3924 14.9689V17.0265C24.3924 17.5541 23.965 17.9823 23.4379 17.9823H19.4261C18.8989 17.9823 18.4716 17.5541 18.4716 17.0265V14.8981H6.57716V17.0265C6.57716 17.5541 6.14988 17.9823 5.62286 17.9823H1.61535C1.09511 17.9723 0.678478 17.5474 0.678478 17.0265V14.9689C0.680277 14.8633 0.699642 14.7583 0.73616 14.659C0.70061 14.5971 0.681107 14.5272 0.678478 14.4557V9.37604C0.678893 9.30345 0.697429 9.23211 0.731595 9.16826L1.61535 7.49134H1.42086C0.624117 7.44784 0 6.78821 0 5.98896C0 5.18984 0.624117 4.53007 1.42086 4.48685H3.18823L5.33128 0.429476C5.40777 0.285277 5.55716 0.19524 5.71997 0.194824H19.3201C19.4828 0.19524 19.6323 0.285277 19.7088 0.429476L21.8517 4.48685H23.6192ZM7.1382 10.7299C7.13599 9.58257 6.20756 8.65296 5.06168 8.65047C3.91484 8.65047 2.98503 9.58146 2.98503 10.7299C2.98503 11.8787 3.91484 12.8097 5.06168 12.8097C6.20867 12.8097 7.1382 11.8787 7.1382 10.7299ZM5.06168 11.9248V11.9291C4.40285 11.9291 3.86878 11.3944 3.86878 10.7345C3.86878 10.0747 4.40285 9.53977 5.06168 9.53977C5.72066 9.53977 6.25473 10.0747 6.25473 10.7345C6.24989 11.3916 5.71789 11.9224 5.06168 11.9248ZM3.0647 6.61063L5.98514 1.08426H19.0548L21.9798 6.61063H3.0647ZM1.40316 6.61063H2.066L2.72885 5.37615H1.40316C1.08308 5.4033 0.836859 5.67161 0.836859 5.99339C0.836859 6.31531 1.08308 6.58362 1.40316 6.61063ZM5.69811 14.9689L5.69355 17.0265C5.69355 17.0654 5.66187 17.0973 5.62286 17.0973H1.61535C1.5762 17.0973 1.5448 17.0654 1.5448 17.0265V14.9689C1.5448 14.9298 1.5762 14.8981 1.61535 14.8981H5.62286C5.64237 14.8969 5.6616 14.9038 5.6757 14.9174C5.69009 14.9307 5.69811 14.9495 5.69811 14.9689ZM23.4953 17.0265L23.5 14.9689C23.5 14.9298 23.4682 14.8981 23.429 14.8981H19.4172C19.3782 14.8981 19.3464 14.9298 19.3464 14.9689V17.0265C19.3464 17.0654 19.3782 17.0972 19.4172 17.0972H23.4246C23.4636 17.0972 23.4953 17.0654 23.4953 17.0265ZM23.4953 9.49115V14.0131H1.5448V9.49115L2.5962 7.50007H22.4439L23.4953 9.49115ZM23.6148 6.61063L23.6192 6.60634C23.9394 6.57919 24.1855 6.31101 24.1855 5.98896C24.1855 5.66718 23.9394 5.399 23.6192 5.37185H22.3246L22.9784 6.61063H23.6148ZM22.055 10.7299C22.0524 9.58257 21.1241 8.65296 19.9784 8.65047C18.8314 8.65047 17.9015 9.58146 17.9015 10.7299C17.9015 11.8787 18.8314 12.8097 19.9784 12.8097C21.1252 12.8097 22.055 11.8787 22.055 10.7299ZM19.9784 11.9291V11.9248C20.6345 11.9224 21.1663 11.3916 21.1713 10.7345C21.1713 10.0747 20.6372 9.53977 19.9784 9.53977C19.3194 9.53977 18.7852 10.0747 18.7852 10.7345C18.7852 11.3944 19.3194 11.9291 19.9784 11.9291ZM16.342 10.7299C16.342 10.4857 16.1441 10.2875 15.9001 10.2875H9.14431C8.90031 10.2875 8.70237 10.4857 8.70237 10.7299C8.70237 10.9744 8.90031 11.1725 9.14431 11.1725H15.9001C16.1441 11.1725 16.342 10.9744 16.342 10.7299Z" fill="#999999"/>
</svg>
