<svg width="40" height="37" viewBox="0 0 40 37" fill="none" xmlns="http://www.w3.org/2000/svg">
<path fill-rule="evenodd" clip-rule="evenodd" d="M20.9479 10.1475L24.2112 7.23234C24.5807 6.9022 24.6126 6.33503 24.2824 5.9656C24.1052 5.76731 23.8597 5.66618 23.613 5.66618C23.4003 5.66618 23.1868 5.74142 23.0158 5.89425L20.8579 7.82189V0.907818C20.8579 0.412458 20.4562 0.0107422 19.9609 0.0107422C19.4654 0.0107422 19.0638 0.412458 19.0638 0.907818V7.82189L16.906 5.89417C16.5364 5.56435 15.9694 5.59608 15.6393 5.96567C15.3092 6.33511 15.3412 6.9022 15.7107 7.23234L18.974 10.1475C19.5366 10.65 20.3853 10.65 20.9479 10.1475ZM39.9221 34.9455L39.8937 14.4291C39.8931 13.9499 39.7059 13.4996 39.3665 13.1612C39.0278 12.8232 38.5779 12.6373 38.0997 12.6373H38.0972L1.79166 12.6872C1.31244 12.6879 0.862224 12.8751 0.523745 13.2146C0.185343 13.5538 -0.000699776 14.0047 1.97803e-06 14.4839L0.0282281 35.0003C0.0294757 35.9888 0.834076 36.7921 1.82261 36.7921H1.82488L38.1303 36.7421C38.6096 36.7415 39.0599 36.5543 39.3984 36.2149C39.7368 35.8756 39.9228 35.4246 39.9221 34.9455ZM3.76491 14.4787L36.1278 14.4342L19.9625 25.6723L3.76491 14.4787ZM26.702 27.4727C26.3105 27.1689 26.2393 26.6054 26.5431 26.2139C26.8468 25.8224 27.4102 25.7514 27.8017 26.0549L38.1277 34.0638L38.1007 15.2479L20.4761 27.5004C20.3222 27.6073 20.1431 27.6609 19.9641 27.6609C19.7857 27.6609 19.6075 27.6079 19.454 27.5018L1.79525 15.2985L1.82098 34.0676L12.1512 26.055C12.5427 25.7513 13.1062 25.8224 13.4098 26.2139C13.7134 26.6054 13.6423 27.1689 13.2508 27.4726L3.55205 34.9955L36.3433 34.9503L26.702 27.4727Z" fill="#CCCCCC"/>
</svg>
