<svg xmlns="http://www.w3.org/2000/svg" width="20" height="20" viewBox="0 0 20 20"><g><g><path fill="#ff5050" d="M5.83.814c-.8 0-2.63.24-2.63 2.642v.24h13.586v-.24c0-2.385-1.831-2.642-2.615-2.642zm8.333 16.503c2.375 0 2.63-1.839 2.63-2.632v-2.939H3.215v2.939c0 2.376 1.83 2.632 2.613 2.632zm1.555 1.738l-.017-1.175a4.019 4.019 0 0 1-1.53.277h-.872v.898c0 .038.03.07.067.072h2.285a.07.07 0 0 0 .067-.072zm-9.016 0v-.898h-.888a4.055 4.055 0 0 1-1.53-.286v1.184c0 .038.03.07.067.072h2.285a.07.07 0 0 0 .066-.072zm2.882-8.162V4.525H3.199v6.368zm7.214 0l.004-6.368h-6.384v6.368zM.443 9.336a.416.416 0 0 1-.413-.428V6.39a.42.42 0 0 1 .2-.362l2.152-1.297v-1.26C2.382.912 4.162 0 5.831 0h8.352c1.669 0 3.45.91 3.45 3.472v1.26l2.139 1.305a.42.42 0 0 1 .2.36v2.52c0 .232-.187.42-.417.42a.418.418 0 0 1-.417-.42V6.625l-1.506-.92v8.993a3.528 3.528 0 0 1-1.084 2.682v1.68a.908.908 0 0 1-.9.91h-2.282a.908.908 0 0 1-.9-.91v-.903H7.528v.886a.908.908 0 0 1-.9.91H4.345a.908.908 0 0 1-.9-.91v-1.68a3.34 3.34 0 0 1-1.08-2.678v-8.98l-1.506.92v2.292c0 .232-.187.42-.417.42zm14.733 4.98c0 .231-.187.42-.417.42h-2.552a.418.418 0 0 1-.417-.42c0-.232.187-.42.417-.42h2.552c.23 0 .417.188.417.42zm-7.39-.42c.23 0 .416.188.416.42 0 .231-.186.42-.416.42H5.242a.418.418 0 0 1-.416-.42c0-.232.186-.42.416-.42z"/></g></g></svg>