<svg width="22" height="22" viewBox="0 0 22 22" fill="none" xmlns="http://www.w3.org/2000/svg">
<path fill-rule="evenodd" clip-rule="evenodd" d="M13.8322 0.000174673H21.4636C21.7268 0.000174673 21.9406 0.213272 21.9406 0.477139V8.10858C21.9406 8.30118 21.8241 8.47562 21.6462 8.54921C21.587 8.5739 21.5251 8.58554 21.4636 8.58554C21.3395 8.58554 21.2174 8.53687 21.1264 8.44557L18.6018 5.92101L13.5524 10.9704L18.6018 16.0195L21.1264 13.4949C21.2626 13.3584 21.4673 13.3161 21.6462 13.3913C21.8241 13.4649 21.9406 13.6393 21.9406 13.8322V21.4636C21.9406 21.7272 21.7268 21.9406 21.4636 21.9406H13.8322C13.6393 21.9406 13.4653 21.8246 13.3913 21.6462C13.3175 21.4678 13.3584 21.2626 13.4949 21.1264L16.0195 18.6018L10.9704 13.5524L2.72199 21.8006C2.62907 21.8937 2.50703 21.9406 2.385 21.9406C2.26273 21.9406 2.14069 21.8937 2.04777 21.8006L0.13991 19.8927C-0.0466368 19.7064 -0.0466368 19.4048 0.13991 19.2185L8.38805 10.9704L0.13991 2.72199C-0.0466368 2.53568 -0.0466368 2.23408 0.13991 2.04777L2.04777 0.13991C2.23408 -0.0466368 2.53568 -0.0466368 2.72199 0.13991L10.9704 8.38805L16.0195 3.33893L13.4949 0.814136C13.3584 0.677893 13.3175 0.472714 13.3913 0.294318C13.4653 0.115922 13.6393 0.000174673 13.8322 0.000174673ZM1.15136 19.5557L2.385 20.7891L10.2959 12.8782L9.06251 11.6446L1.15136 19.5557ZM20.9866 20.9866H14.9833L20.9866 14.9833V20.9866ZM1.15136 2.385L16.6939 17.9273L17.9273 16.6939L2.385 1.15136L1.15136 2.385ZM12.8782 10.2959L11.6446 9.06251L16.6939 4.01315L17.9273 5.24679L12.8782 10.2959ZM14.9833 0.954104L20.9866 6.95715V0.954104H14.9833Z" fill="#FF5050"/>
</svg>
