<svg width="22" height="20" viewBox="0 0 22 20" fill="none" xmlns="http://www.w3.org/2000/svg">
<path fill-rule="evenodd" clip-rule="evenodd" fill="#000" d="M0 9.99536C0 4.50227 4.9298 0.0322266 10.9955 0.0322266C17.0612 0.0322266 21.991 4.50227 21.991 9.99536C21.991 15.4884 17.0612 19.9585 10.9955 19.9585C9.99429 19.9585 9.00204 19.8341 8.04571 19.5944C7.74939 19.5207 7.5698 19.2166 7.64163 18.9124C7.71347 18.6083 8.0098 18.4239 8.30612 18.4977C9.17714 18.7189 10.0841 18.8295 10.9955 18.8295C16.4506 18.8295 20.891 14.8663 20.891 9.99536C20.891 5.12439 16.4506 1.16126 10.9955 1.16126C5.54041 1.16126 1.1 5.12439 1.1 9.99536C1.1 12.0276 1.8498 13.9355 3.27306 15.5253C3.41225 15.682 3.45714 15.9078 3.38531 16.106C3.08898 16.9216 2.64898 17.599 2.0698 18.1336C2.88245 18.1613 4.00041 18.0414 5.03306 17.4055C5.29347 17.2442 5.6302 17.3318 5.78735 17.599C5.94449 17.8663 5.85918 18.2119 5.59878 18.3732C3.95102 19.3871 2.16408 19.3179 1.24816 19.1889C0.902449 19.1382 0.628571 18.8802 0.552245 18.5299C0.475918 18.1751 0.619592 17.8156 0.915918 17.6175C1.49061 17.235 1.93061 16.6958 2.23143 16.0138C0.790204 14.2903 0 12.1659 0 9.99536ZM11.6959 9.99536C11.6959 10.3949 11.3803 10.7189 10.991 10.7189C10.6017 10.7189 10.2861 10.3949 10.2861 9.99536C10.2861 9.59578 10.6017 9.27186 10.991 9.27186C11.3803 9.27186 11.6959 9.59578 11.6959 9.99536ZM7.95592 10.7189C8.34522 10.7189 8.66082 10.3949 8.66082 9.99536C8.66082 9.59578 8.34522 9.27186 7.95592 9.27186C7.56661 9.27186 7.25102 9.59578 7.25102 9.99536C7.25102 10.3949 7.56661 10.7189 7.95592 10.7189ZM14.731 9.99536C14.731 10.3949 14.4154 10.7189 14.0261 10.7189C13.6368 10.7189 13.3212 10.3949 13.3212 9.99536C13.3212 9.59578 13.6368 9.27186 14.0261 9.27186C14.4154 9.27186 14.731 9.59578 14.731 9.99536Z"/>
</svg>
