<svg width="2950" height="880" fill="none" xmlns="http://www.w3.org/2000/svg"><g opacity=".7" clip-path="url(#clip0)"><path fill="#fff" d="M0 0h2950v880H0z"/><path d="M49.657 149.144l1.826 14.523" stroke="#9C7EB5" stroke-width="4.9"/><path fill-rule="evenodd" clip-rule="evenodd" d="M62.582 180.711l-17.632 2.217-2.738-21.784 17.63-2.218 2.74 21.785z" fill="#CA9DE6"/><path fill-rule="evenodd" clip-rule="evenodd" d="M79.797 200.323c1.62 12.89-7.514 24.654-20.402 26.275-12.887 1.621-24.65-7.515-26.27-20.405-1.62-12.89 7.514-24.654 20.401-26.275 12.889-1.62 24.65 7.515 26.27 20.405" fill="#F1CAFF"/><path d="M138.684 128.977l5.36 13.62" stroke="#9C7EB5" stroke-width="4.9"/><path fill-rule="evenodd" clip-rule="evenodd" d="M159.011 156.368l-16.535 6.51-8.04-20.43 16.536-6.51 8.039 20.43z" fill="#CA9DE6"/><path fill-rule="evenodd" clip-rule="evenodd" d="M180.541 171.113c4.758 12.089-1.184 25.746-13.27 30.505-12.088 4.758-25.743-1.185-30.5-13.274-4.758-12.088 1.184-25.746 13.27-30.504 12.088-4.759 25.742 1.184 30.5 13.273" fill="#F1CAFF"/><path d="M518.887 144.439l1.826 14.522" stroke="#9C7EB5" stroke-width="4.9"/><path fill-rule="evenodd" clip-rule="evenodd" d="M531.812 176.007l-17.632 2.217-2.738-21.784 17.63-2.217 2.74 21.784z" fill="#CA9DE6"/><path fill-rule="evenodd" clip-rule="evenodd" d="M549.027 195.618c1.62 12.89-7.514 24.654-20.402 26.275-12.887 1.621-24.65-7.515-26.27-20.405-1.621-12.891 7.514-24.654 20.401-26.275 12.889-1.621 24.65 7.515 26.271 20.405" fill="#F1CAFF"/><path d="M607.913 124.273l5.36 13.619" stroke="#9C7EB5" stroke-width="4.9"/><path fill-rule="evenodd" clip-rule="evenodd" d="M628.241 151.664l-16.536 6.509-8.04-20.43 16.536-6.509 8.04 20.43z" fill="#CA9DE6"/><path fill-rule="evenodd" clip-rule="evenodd" d="M649.771 166.407c4.758 12.089-1.185 25.747-13.271 30.506-12.087 4.758-25.742-1.185-30.5-13.274-4.757-12.089 1.185-25.747 13.271-30.505 12.087-4.758 25.742 1.185 30.5 13.273" fill="#F1CAFF"/><path d="M964.93 146.048l1.826 14.523" stroke="#9C7EB5" stroke-width="4.9"/><path fill-rule="evenodd" clip-rule="evenodd" d="M977.854 177.615l-17.631 2.217-2.739-21.784 17.631-2.218 2.739 21.785z" fill="#CA9DE6"/><path fill-rule="evenodd" clip-rule="evenodd" d="M995.07 197.228c1.62 12.889-7.513 24.653-20.402 26.274-12.887 1.621-24.649-7.515-26.269-20.405-1.621-12.89 7.513-24.654 20.401-26.275 12.888-1.62 24.649 7.515 26.27 20.406" fill="#F1CAFF"/><path d="M1053.96 125.881l5.36 13.621" stroke="#9C7EB5" stroke-width="4.9"/><path fill-rule="evenodd" clip-rule="evenodd" d="M1074.28 153.271l-16.53 6.51-8.04-20.43 16.53-6.51 8.04 20.43z" fill="#CA9DE6"/><path fill-rule="evenodd" clip-rule="evenodd" d="M1095.81 168.017c4.76 12.088-1.18 25.746-13.27 30.504-12.08 4.759-25.74-1.184-30.5-13.273-4.75-12.089 1.19-25.747 13.27-30.505 12.09-4.759 25.75 1.185 30.5 13.274" fill="#F1CAFF"/><path d="M1276.51 146.287l-1.83 14.522" stroke="#9C7EB5" stroke-width="4.9"/><path fill-rule="evenodd" clip-rule="evenodd" d="M1263.58 177.853l17.63 2.218 2.74-21.784-17.63-2.217-2.74 21.783z" fill="#CA9DE6"/><path fill-rule="evenodd" clip-rule="evenodd" d="M1246.37 197.466c-1.62 12.89 7.51 24.654 20.4 26.275 12.89 1.62 24.65-7.516 26.27-20.405 1.62-12.891-7.51-24.655-20.4-26.275-12.89-1.621-24.65 7.515-26.27 20.405" fill="#F1CAFF"/><path d="M1187.48 126.121l-5.36 13.619" stroke="#9C7EB5" stroke-width="4.9"/><path fill-rule="evenodd" clip-rule="evenodd" d="M1167.15 153.51l16.54 6.51 8.04-20.43-16.54-6.509-8.04 20.429z" fill="#CA9DE6"/><path fill-rule="evenodd" clip-rule="evenodd" d="M1145.62 168.255c-4.75 12.089 1.19 25.747 13.27 30.505 12.09 4.758 25.75-1.185 30.5-13.273 4.76-12.089-1.18-25.747-13.27-30.505-12.08-4.758-25.74 1.184-30.5 13.273" fill="#F1CAFF"/><path d="M840.27 150.991l-1.826 14.522" stroke="#9C7EB5" stroke-width="4.9"/><path fill-rule="evenodd" clip-rule="evenodd" d="M827.346 182.559l17.632 2.217 2.738-21.784-17.631-2.217-2.739 21.784z" fill="#CA9DE6"/><path fill-rule="evenodd" clip-rule="evenodd" d="M810.131 202.17c-1.621 12.89 7.513 24.654 20.401 26.275 12.888 1.621 24.65-7.515 26.27-20.405 1.62-12.891-7.513-24.654-20.401-26.275-12.888-1.621-24.65 7.514-26.27 20.405" fill="#F1CAFF"/><path d="M751.243 130.825l-5.36 13.62" stroke="#9C7EB5" stroke-width="4.9"/><path fill-rule="evenodd" clip-rule="evenodd" d="M730.917 158.215l16.535 6.509 8.04-20.43-16.536-6.509-8.039 20.43z" fill="#CA9DE6"/><path fill-rule="evenodd" clip-rule="evenodd" d="M709.387 172.959c-4.758 12.089 1.184 25.747 13.27 30.506 12.087 4.758 25.743-1.185 30.5-13.274 4.758-12.089-1.184-25.747-13.271-30.504-12.087-4.759-25.741 1.184-30.499 13.272" fill="#F1CAFF"/><path d="M393.229 150.991l-1.826 14.522" stroke="#9C7EB5" stroke-width="4.9"/><path fill-rule="evenodd" clip-rule="evenodd" d="M380.306 182.559l17.631 2.217 2.739-21.784-17.631-2.217-2.739 21.784z" fill="#CA9DE6"/><path fill-rule="evenodd" clip-rule="evenodd" d="M363.09 202.17c-1.62 12.89 7.513 24.654 20.401 26.275 12.888 1.621 24.649-7.515 26.271-20.405 1.62-12.891-7.514-24.654-20.402-26.275-12.888-1.621-24.649 7.514-26.27 20.405" fill="#F1CAFF"/><path d="M304.203 130.825l-5.36 13.62" stroke="#9C7EB5" stroke-width="4.9"/><path fill-rule="evenodd" clip-rule="evenodd" d="M283.875 158.215l16.536 6.509 8.04-20.43-16.536-6.509-8.04 20.43z" fill="#CA9DE6"/><path fill-rule="evenodd" clip-rule="evenodd" d="M262.346 172.959c-4.758 12.089 1.184 25.747 13.271 30.506 12.086 4.758 25.742-1.185 30.499-13.274 4.758-12.089-1.183-25.747-13.271-30.504-12.087-4.759-25.741 1.184-30.499 13.272" fill="#F1CAFF"/><path d="M0 150.361c107.838 0 198.374-30.199 223.494-77.361M223.494 73c25.12 47.162 115.665 77.361 223.503 77.361 107.847 0 198.383-30.199 223.503-77.361M670.5 73c25.119 47.162 115.666 77.361 223.503 77.361 107.837 0 198.387-30.199 223.507-77.361M1117.51 73c25.12 47.162 115.65 77.361 223.49 77.361" stroke="#CA9DE6" stroke-width="9.1"/><path d="M1384.66 149.144l1.82 14.523" stroke="#9C7EB5" stroke-width="4.9"/><path fill-rule="evenodd" clip-rule="evenodd" d="M1397.58 180.711l-17.63 2.217-2.74-21.784 17.63-2.218 2.74 21.785z" fill="#CA9DE6"/><path fill-rule="evenodd" clip-rule="evenodd" d="M1414.8 200.323c1.62 12.89-7.52 24.654-20.4 26.275-12.89 1.621-24.65-7.515-26.28-20.405-1.62-12.89 7.52-24.654 20.41-26.275 12.88-1.62 24.65 7.515 26.27 20.405" fill="#F1CAFF"/><path d="M1473.68 128.977l5.36 13.62" stroke="#9C7EB5" stroke-width="4.9"/><path fill-rule="evenodd" clip-rule="evenodd" d="M1494.01 156.368l-16.53 6.51-8.04-20.43 16.53-6.51 8.04 20.43z" fill="#CA9DE6"/><path fill-rule="evenodd" clip-rule="evenodd" d="M1515.54 171.113c4.76 12.089-1.18 25.746-13.27 30.505-12.09 4.758-25.74-1.185-30.5-13.274-4.76-12.088 1.18-25.746 13.27-30.504 12.09-4.759 25.74 1.184 30.5 13.273" fill="#F1CAFF"/><path d="M1853.89 144.439l1.82 14.522" stroke="#9C7EB5" stroke-width="4.9"/><path fill-rule="evenodd" clip-rule="evenodd" d="M1866.81 176.007l-17.63 2.217-2.74-21.784 17.63-2.217 2.74 21.784z" fill="#CA9DE6"/><path fill-rule="evenodd" clip-rule="evenodd" d="M1884.03 195.618c1.62 12.89-7.52 24.654-20.4 26.275-12.89 1.621-24.65-7.515-26.28-20.405-1.62-12.891 7.52-24.654 20.41-26.275 12.88-1.621 24.65 7.515 26.27 20.405" fill="#F1CAFF"/><path d="M1942.91 124.273l5.36 13.619" stroke="#9C7EB5" stroke-width="4.9"/><path fill-rule="evenodd" clip-rule="evenodd" d="M1963.24 151.664l-16.53 6.509-8.05-20.43 16.54-6.509 8.04 20.43z" fill="#CA9DE6"/><path fill-rule="evenodd" clip-rule="evenodd" d="M1984.77 166.407c4.76 12.089-1.18 25.747-13.27 30.506-12.09 4.758-25.74-1.185-30.5-13.274-4.76-12.089 1.18-25.747 13.27-30.505 12.09-4.758 25.74 1.185 30.5 13.273" fill="#F1CAFF"/><path d="M2299.93 146.048l1.83 14.523" stroke="#9C7EB5" stroke-width="4.9"/><path fill-rule="evenodd" clip-rule="evenodd" d="M2312.85 177.615l-17.63 2.217-2.74-21.784 17.64-2.218 2.73 21.785z" fill="#CA9DE6"/><path fill-rule="evenodd" clip-rule="evenodd" d="M2330.07 197.228c1.62 12.889-7.51 24.653-20.4 26.274-12.89 1.621-24.65-7.515-26.27-20.405-1.62-12.89 7.51-24.654 20.4-26.275 12.89-1.62 24.65 7.515 26.27 20.406" fill="#F1CAFF"/><path d="M2388.96 125.881l5.36 13.621" stroke="#9C7EB5" stroke-width="4.9"/><path fill-rule="evenodd" clip-rule="evenodd" d="M2409.28 153.271l-16.53 6.51-8.04-20.43 16.53-6.51 8.04 20.43z" fill="#CA9DE6"/><path fill-rule="evenodd" clip-rule="evenodd" d="M2430.81 168.017c4.76 12.088-1.18 25.746-13.27 30.504-12.08 4.759-25.74-1.184-30.5-13.273-4.75-12.089 1.19-25.747 13.27-30.505 12.09-4.759 25.75 1.185 30.5 13.274" fill="#F1CAFF"/><path d="M2611.51 146.287l-1.83 14.522" stroke="#9C7EB5" stroke-width="4.9"/><path fill-rule="evenodd" clip-rule="evenodd" d="M2598.58 177.853l17.63 2.218 2.74-21.784-17.63-2.217-2.74 21.783z" fill="#CA9DE6"/><path fill-rule="evenodd" clip-rule="evenodd" d="M2581.37 197.466c-1.62 12.89 7.51 24.654 20.4 26.275 12.89 1.62 24.65-7.516 26.27-20.405 1.62-12.891-7.51-24.655-20.4-26.275-12.89-1.621-24.65 7.515-26.27 20.405" fill="#F1CAFF"/><path d="M2522.48 126.121l-5.36 13.619" stroke="#9C7EB5" stroke-width="4.9"/><path fill-rule="evenodd" clip-rule="evenodd" d="M2502.15 153.51l16.54 6.51 8.04-20.43-16.54-6.509-8.04 20.429z" fill="#CA9DE6"/><path fill-rule="evenodd" clip-rule="evenodd" d="M2480.62 168.255c-4.75 12.089 1.19 25.747 13.27 30.505 12.09 4.758 25.75-1.185 30.5-13.273 4.76-12.089-1.18-25.747-13.27-30.505-12.08-4.758-25.74 1.184-30.5 13.273" fill="#F1CAFF"/><path d="M2175.27 150.991l-1.83 14.522" stroke="#9C7EB5" stroke-width="4.9"/><path fill-rule="evenodd" clip-rule="evenodd" d="M2162.35 182.559l17.63 2.217 2.74-21.784-17.64-2.217-2.73 21.784z" fill="#CA9DE6"/><path fill-rule="evenodd" clip-rule="evenodd" d="M2145.13 202.17c-1.62 12.89 7.51 24.654 20.4 26.275 12.89 1.621 24.65-7.515 26.27-20.405 1.62-12.891-7.51-24.654-20.4-26.275-12.89-1.621-24.65 7.514-26.27 20.405" fill="#F1CAFF"/><path d="M2086.24 130.825l-5.36 13.62" stroke="#9C7EB5" stroke-width="4.9"/><path fill-rule="evenodd" clip-rule="evenodd" d="M2065.92 158.215l16.53 6.509 8.04-20.43-16.53-6.509-8.04 20.43z" fill="#CA9DE6"/><path fill-rule="evenodd" clip-rule="evenodd" d="M2044.39 172.959c-4.76 12.089 1.18 25.747 13.27 30.506 12.08 4.758 25.74-1.185 30.5-13.274 4.76-12.089-1.19-25.747-13.27-30.504-12.09-4.759-25.75 1.184-30.5 13.272" fill="#F1CAFF"/><path d="M1728.23 150.991l-1.83 14.522" stroke="#9C7EB5" stroke-width="4.9"/><path fill-rule="evenodd" clip-rule="evenodd" d="M1715.31 182.559l17.63 2.217 2.74-21.784-17.64-2.217-2.73 21.784z" fill="#CA9DE6"/><path fill-rule="evenodd" clip-rule="evenodd" d="M1698.09 202.17c-1.62 12.89 7.51 24.654 20.4 26.275 12.89 1.621 24.65-7.515 26.27-20.405 1.62-12.891-7.51-24.654-20.4-26.275-12.89-1.621-24.65 7.514-26.27 20.405" fill="#F1CAFF"/><path d="M1639.2 130.825l-5.36 13.62" stroke="#9C7EB5" stroke-width="4.9"/><path fill-rule="evenodd" clip-rule="evenodd" d="M1618.88 158.215l16.53 6.509 8.04-20.43-16.54-6.509-8.03 20.43z" fill="#CA9DE6"/><path fill-rule="evenodd" clip-rule="evenodd" d="M1597.35 172.959c-4.76 12.089 1.18 25.747 13.27 30.506 12.08 4.758 25.74-1.185 30.5-13.274 4.75-12.089-1.19-25.747-13.27-30.504-12.09-4.759-25.75 1.184-30.5 13.272" fill="#F1CAFF"/><path d="M1335 150.361c107.84 0 198.37-30.199 223.49-77.361M1558.49 73c25.12 47.162 115.67 77.361 223.51 77.361 107.84 0 198.38-30.199 223.5-77.361M2005.5 73c25.12 47.162 115.67 77.361 223.5 77.361 107.84 0 198.39-30.199 223.51-77.361M2452.51 73c25.12 47.162 115.65 77.361 223.49 77.361" stroke="#CA9DE6" stroke-width="9.1"/><path d="M2724.66 149.144l1.82 14.523" stroke="#9C7EB5" stroke-width="4.9"/><path fill-rule="evenodd" clip-rule="evenodd" d="M2737.58 180.711l-17.63 2.217-2.74-21.784 17.63-2.218 2.74 21.785z" fill="#CA9DE6"/><path fill-rule="evenodd" clip-rule="evenodd" d="M2754.8 200.323c1.62 12.89-7.52 24.654-20.4 26.275-12.89 1.621-24.65-7.515-26.28-20.405-1.62-12.89 7.52-24.654 20.41-26.275 12.88-1.62 24.65 7.515 26.27 20.405" fill="#F1CAFF"/><path d="M2813.68 128.977l5.36 13.62" stroke="#9C7EB5" stroke-width="4.9"/><path fill-rule="evenodd" clip-rule="evenodd" d="M2834.01 156.368l-16.53 6.51-8.04-20.43 16.53-6.51 8.04 20.43z" fill="#CA9DE6"/><path fill-rule="evenodd" clip-rule="evenodd" d="M2855.54 171.113c4.76 12.089-1.18 25.746-13.27 30.505-12.09 4.758-25.74-1.185-30.5-13.274-4.76-12.088 1.18-25.746 13.27-30.504 12.09-4.759 25.74 1.184 30.5 13.273M2937.35 172.959c-4.76 12.089 1.18 25.747 13.27 30.506 12.08 4.758 25.74-1.185 30.5-13.274 4.75-12.089-1.19-25.747-13.27-30.504-12.09-4.759-25.75 1.184-30.5 13.272" fill="#F1CAFF"/><path d="M2675 150.361c107.84 0 198.37-30.199 223.49-77.361M2898.49 73c25.12 47.162 115.67 77.361 223.51 77.361 107.84 0 198.38-30.199 223.5-77.361" stroke="#CA9DE6" stroke-width="9.1"/><path fill-rule="evenodd" clip-rule="evenodd" d="M305.862 706.935v1.192c0 9.948 8.065 18.006 18.003 18.006h141.012c21.751 0 38.49-19.974 35.488-42.353l-15.92-124.698c-1.379-10.328-9.874-18.013-19.913-18.013h-41.793c-10.031 0-18.526 7.685-19.912 18.013L386.906 683.78c-.122.89-.208 1.781-.258 2.664l-.086-.014s-2.944 20.505-30.318 20.505h-50.382z" fill="#D7BDE3"/><path fill-rule="evenodd" clip-rule="evenodd" d="M456.707 706.224h-92.182c19.712-3.605 22.038-19.794 22.038-19.794l.086.014c.051-.883.137-1.774.259-2.664l15.92-124.698c1.386-10.328 9.881-18.013 19.913-18.013h40.357c5.507 0 10.126 1.098 14.245 4.787l14.852 118.014c3.001 22.38-13.737 42.354-35.488 42.354" fill="#F1CAFF"/><path fill-rule="evenodd" clip-rule="evenodd" d="M1010.41 724.288h-9.04l-38.685 155.7h9.037l38.688-155.7z" fill="#CA9DE6"/><path d="M1047.02 801.406l21.4-75.538M1030.28 725.868l55.76 75.328M1030.28 725.868l-79.966 74.486" stroke="#9C7EB5" stroke-width="4.9"/><path fill-rule="evenodd" clip-rule="evenodd" d="M1063.71 724.193h8.91l38.13 155.794h-8.91l-38.13-155.794z" fill="#CA9DE6"/><path d="M967.81 725.868l79.21 74.486" stroke="#9C7EB5" stroke-width="4.9"/><path fill-rule="evenodd" clip-rule="evenodd" d="M972.246 724.288h-9.038l-38.684 155.7h9.038l38.684-155.7zM1025.61 724.288h9.04l38.68 155.7h-9.03l-38.69-155.7z" fill="#D7BDE3"/><path fill-rule="evenodd" clip-rule="evenodd" d="M911.606 706.935v1.192c0 9.948 8.064 18.006 18.003 18.006h141.011c21.75 0 38.49-19.974 35.49-42.353l-15.92-124.698c-1.38-10.328-9.88-18.013-19.91-18.013h-41.8c-10.03 0-18.52 7.685-19.91 18.013L992.65 683.78c-.122.89-.208 1.781-.258 2.664l-.087-.014s-2.944 20.505-30.317 20.505h-50.382z" fill="#D7BDE3"/><path fill-rule="evenodd" clip-rule="evenodd" d="M1062.45 706.224h-92.181c19.711-3.605 22.038-19.794 22.038-19.794l.086.014c.05-.883.137-1.774.259-2.664l15.918-124.698c1.39-10.328 9.88-18.013 19.91-18.013h40.36c5.51 0 10.18 1.098 14.35 4.877l14.75 117.924c3 22.38-13.74 42.354-35.49 42.354" fill="#F1CAFF"/><path d="M160.73 568.115l-31.522-27.845" stroke="#9C7EB5" stroke-width="6.3"/><path fill-rule="evenodd" clip-rule="evenodd" d="M213.661 555.608c0 22.318-16.965 40.41-37.893 40.41s-37.894-18.092-37.894-40.41" fill="#D7BDE3"/><path d="M275.423 504.797l16.335-3.413 28.579 53.733" stroke="#9C7EB5" stroke-width="4.9"/><path d="M405.705 566.992l27.84-31.528" stroke="#9C7EB5" stroke-width="6.3"/><path fill-rule="evenodd" clip-rule="evenodd" d="M0 606.593h178.308v-23.485H0v23.485zM260.503 879.988h11.595V591.821h-11.595v288.167z" fill="#9C7EB5"/><path fill-rule="evenodd" clip-rule="evenodd" d="M272.099 879.988h12.709V591.821h-12.709v288.167zM423.492 555.608c0 22.318-16.965 40.41-37.893 40.41-20.929 0-37.894-18.092-37.894-40.41" fill="#D7BDE3"/><path fill-rule="evenodd" clip-rule="evenodd" d="M178.309 606.594h344.298v-23.489H178.309v23.489z" fill="#CA9DE6"/><path fill-rule="evenodd" clip-rule="evenodd" d="M263.607 536.267l-.877 11.698-1.916 25.575-.722 9.566h-26.26l-.722-9.566-1.924-25.575-.876-11.698h33.297z" fill="#CA9DE6"/><path fill-rule="evenodd" clip-rule="evenodd" d="M264.885 545.737l-2.177 24.853h-31.49l-2.186-24.853h35.853zM263.234 535.393h-32.545l1.453-9.611h29.639l1.453 9.611z" fill="#F1CAFF"/><path fill-rule="evenodd" clip-rule="evenodd" d="M267.054 538.558H226.87l1.794-7.025h36.595l1.795 7.025z" fill="#F1CAFF"/><path fill-rule="evenodd" clip-rule="evenodd" d="M333.137 522.998l-6.657 60.108h-21.413l-6.657-60.108h34.727z" fill="#D7BDE3"/><path fill-rule="evenodd" clip-rule="evenodd" d="M759.523 564.942l-11.31 10.249-7.73-14.995 11.309-10.249 7.731 14.995zM808.905 564.935l-11.309 10.25-7.731-14.995 11.31-10.251 7.73 14.996z" fill="#F1CAFF"/><path fill-rule="evenodd" clip-rule="evenodd" d="M764.178 572.508L751.4 565.96l4.938-16.942 12.778 6.547-4.938 16.943zM790.829 567.829l-13.418 3.659-2.76-17.792 13.418-3.659 2.76 17.792z" fill="#F1CAFF"/><path fill-rule="evenodd" clip-rule="evenodd" d="M777.425 567.829l-13.419 3.659-2.759-17.792 13.418-3.659 2.76 17.792zM946.384 561.167l-11.309 10.25-7.731-14.995 11.309-10.25 7.731 14.995zM995.767 561.161l-11.309 10.25-7.731-14.995 11.309-10.25 7.731 14.995z" fill="#F1CAFF"/><path fill-rule="evenodd" clip-rule="evenodd" d="M951.041 568.733l-12.779-6.548 4.938-16.942 12.778 6.547-4.937 16.943zM977.691 564.055l-13.419 3.659-2.758-17.792 13.417-3.659 2.76 17.792z" fill="#F1CAFF"/><path fill-rule="evenodd" clip-rule="evenodd" d="M964.287 564.055l-13.419 3.659-2.759-17.792 13.417-3.659 2.761 17.792z" fill="#F1CAFF"/><path fill-rule="evenodd" clip-rule="evenodd" d="M813.407 558.33c0 18.618-16.965 33.711-37.893 33.711-20.927 0-37.893-15.093-37.893-33.711M999.449 558.33c0 18.618-16.965 33.711-37.893 33.711s-37.893-15.093-37.893-33.711" fill="#D7BDE3"/><path fill-rule="evenodd" clip-rule="evenodd" d="M605.744 606.593h178.308v-23.485H605.744v23.485zM866.246 879.988h11.596V591.821h-11.596v288.167z" fill="#9C7EB5"/><path fill-rule="evenodd" clip-rule="evenodd" d="M877.842 879.988h12.709V591.821h-12.709v288.167z" fill="#D7BDE3"/><path fill-rule="evenodd" clip-rule="evenodd" d="M784.052 606.594h344.298v-23.489H784.052v23.489z" fill="#CA9DE6"/><path d="M813.407 491.689l16.545-2.176 24.46 55.73M904.114 488l-21.493.055-17.195 58.753" stroke="#9C7EB5" stroke-width="4.9"/><path fill-rule="evenodd" clip-rule="evenodd" d="M879.743 516.219l-8.509 66.887h-27.372l-8.51-66.887h44.391z" fill="#D7BDE3"/><path fill-rule="evenodd" clip-rule="evenodd" d="M101.801 724.288h-9.038l-38.685 155.7h9.038l38.685-155.7z" fill="#CA9DE6"/><path d="M138.419 801.406l21.4-75.538M121.673 725.868l55.761 75.328M121.674 725.868l-79.966 74.486" stroke="#9C7EB5" stroke-width="4.9"/><path fill-rule="evenodd" clip-rule="evenodd" d="M155.104 724.193h8.907l38.128 155.794h-8.908l-38.127-155.794z" fill="#CA9DE6"/><path d="M59.204 725.868l79.215 74.486" stroke="#9C7EB5" stroke-width="4.9"/><path fill-rule="evenodd" clip-rule="evenodd" d="M63.64 724.288h-9.037l-38.685 155.7h9.038l38.684-155.7zM117.006 724.288h9.037l38.685 155.7h-9.038l-38.684-155.7z" fill="#D7BDE3"/><path fill-rule="evenodd" clip-rule="evenodd" d="M207.876 706.935v1.192c0 9.948-8.064 18.006-18.003 18.006H48.861c-21.75 0-38.49-19.974-35.488-42.353l15.92-124.698c1.38-10.328 9.874-18.013 19.913-18.013H91c10.032 0 18.527 7.685 19.913 18.013l15.92 124.698c.122.89.208 1.781.259 2.664l.086-.014s2.944 20.505 30.318 20.505h50.381z" fill="#D7BDE3"/><path fill-rule="evenodd" clip-rule="evenodd" d="M707.544 724.288h-9.038l-38.684 155.7h9.038l38.684-155.7z" fill="#CA9DE6"/><path d="M744.163 801.406l21.399-75.538M727.417 725.868l55.761 75.328M727.417 725.868l-79.965 74.486" stroke="#9C7EB5" stroke-width="4.9"/><path fill-rule="evenodd" clip-rule="evenodd" d="M760.847 724.193h8.908l38.128 155.794h-8.908l-38.128-155.794z" fill="#CA9DE6"/><path d="M664.948 725.868l79.215 74.486" stroke="#9C7EB5" stroke-width="4.9"/><path fill-rule="evenodd" clip-rule="evenodd" d="M669.384 724.288h-9.038l-38.684 155.7h9.038l38.684-155.7zM722.749 724.288h9.038l38.684 155.7h-9.037l-38.685-155.7z" fill="#D7BDE3"/><path fill-rule="evenodd" clip-rule="evenodd" d="M813.62 706.935v1.192c0 9.948-8.064 18.006-18.003 18.006H654.605c-21.752 0-38.49-19.974-35.488-42.353l15.92-124.698c1.378-10.328 9.874-18.013 19.913-18.013h41.793c10.032 0 18.527 7.685 19.913 18.013l15.92 124.698c.122.89.208 1.781.258 2.664l.086-.014s2.945 20.505 30.318 20.505h50.382z" fill="#D7BDE3"/><path fill-rule="evenodd" clip-rule="evenodd" d="M404.663 724.288h-9.037l-38.686 155.7h9.038l38.685-155.7z" fill="#CA9DE6"/><path d="M441.281 801.406l21.4-75.538M424.535 725.868l55.761 75.328M424.536 725.868l-79.966 74.486" stroke="#9C7EB5" stroke-width="4.9"/><path fill-rule="evenodd" clip-rule="evenodd" d="M457.966 724.193h8.908l38.128 155.794h-8.908l-38.128-155.794z" fill="#CA9DE6"/><path d="M362.066 725.868l79.215 74.486" stroke="#9C7EB5" stroke-width="4.9"/><path fill-rule="evenodd" clip-rule="evenodd" d="M366.502 724.288h-9.037l-38.685 155.7h9.038l38.684-155.7zM419.868 724.288h9.037l38.685 155.7h-9.038l-38.684-155.7zM2651.51 711.35v1.162c0 9.693-7.86 17.546-17.55 17.546h-137.41c-21.2 0-37.51-19.464-34.59-41.273l15.52-121.517c1.34-10.064 9.62-17.553 19.4-17.553h40.73c9.78 0 18.05 7.489 19.4 17.553l15.52 121.517c.12.868.2 1.736.25 2.597l.08-.014s2.87 19.982 29.55 19.982h49.1z" fill="#D7BDE3"/><path fill-rule="evenodd" clip-rule="evenodd" d="M2504.51 710.657h89.83c-19.21-3.514-21.48-19.289-21.48-19.289l-.08.014c-.05-.861-.13-1.729-.25-2.597l-15.52-121.517c-1.35-10.064-9.63-17.553-19.4-17.553h-39.33c-5.37 0-9.87 1.07-13.88 4.665l-14.47 115.004c-2.93 21.809 13.38 41.273 34.58 41.273" fill="#F1CAFF"/><path fill-rule="evenodd" clip-rule="evenodd" d="M1964.94 728.26h8.8l37.7 151.728h-8.81l-37.69-151.728z" fill="#CA9DE6"/><path d="M1929.25 803.411L1908.4 729.8M1945.57 729.8l-54.34 73.406M1945.57 729.8l77.92 72.586" stroke="#9C7EB5" stroke-width="4.9"/><path fill-rule="evenodd" clip-rule="evenodd" d="M1912.99 728.168h-8.68l-37.15 151.819h8.68l37.15-151.819z" fill="#CA9DE6"/><path d="M2006.44 729.8l-77.19 72.586" stroke="#9C7EB5" stroke-width="4.9"/><path fill-rule="evenodd" clip-rule="evenodd" d="M2002.12 728.26h8.81l37.7 151.728h-8.81l-37.7-151.728zM1950.12 728.26h-8.81l-37.7 151.728h8.81l37.7-151.728z" fill="#D7BDE3"/><path fill-rule="evenodd" clip-rule="evenodd" d="M2061.21 711.35v1.162c0 9.693-7.85 17.546-17.54 17.546h-137.41c-21.2 0-37.51-19.464-34.59-41.273l15.52-121.517c1.34-10.064 9.62-17.553 19.4-17.553h40.73c9.78 0 18.05 7.489 19.4 17.553l15.52 121.517c.12.868.2 1.736.25 2.597l.08-.014s2.87 19.982 29.55 19.982h49.09z" fill="#D7BDE3"/><path fill-rule="evenodd" clip-rule="evenodd" d="M1914.22 710.657h89.83c-19.21-3.514-21.48-19.289-21.48-19.289l-.08.014c-.05-.861-.13-1.729-.25-2.597l-15.52-121.517c-1.35-10.064-9.63-17.553-19.4-17.553h-39.33c-5.37 0-9.92 1.07-13.98 4.753l-14.37 114.916c-2.93 21.809 13.38 41.273 34.58 41.273" fill="#F1CAFF"/><path d="M2792.94 576.071l30.71-27.134" stroke="#9C7EB5" stroke-width="6.3"/><path fill-rule="evenodd" clip-rule="evenodd" d="M2741.35 563.883c0 21.749 16.54 39.38 36.93 39.38s36.93-17.631 36.93-39.38" fill="#D7BDE3"/><path d="M2681.17 514.369l-15.92-3.326-27.85 52.362" stroke="#9C7EB5" stroke-width="4.9"/><path d="M2554.21 574.976l-27.13-30.723" stroke="#9C7EB5" stroke-width="6.3"/><path fill-rule="evenodd" clip-rule="evenodd" d="M2949.56 613.568h-173.75v-22.886h173.75v22.886zM2695.71 879.988h-11.3V599.173h11.3v280.815z" fill="#9C7EB5"/><path fill-rule="evenodd" clip-rule="evenodd" d="M2684.41 879.988h-12.39V599.173h12.39v280.815zM2536.88 563.883c0 21.749 16.53 39.38 36.92 39.38 20.4 0 36.93-17.631 36.93-39.38" fill="#D7BDE3"/><path fill-rule="evenodd" clip-rule="evenodd" d="M2775.8 613.568h-335.51v-22.889h335.51v22.889zM2692.68 545.036l.86 11.399 1.86 24.923.71 9.321h25.59l.7-9.321 1.88-24.923.85-11.399h-32.45z" fill="#CA9DE6"/><path fill-rule="evenodd" clip-rule="evenodd" d="M2691.44 554.264l2.12 24.219h30.68l2.14-24.219h-34.94zM2693.05 544.184h31.71l-1.42-9.366h-28.88l-1.41 9.366z" fill="#F1CAFF"/><path fill-rule="evenodd" clip-rule="evenodd" d="M2689.32 547.268h39.16l-1.75-6.845h-35.66l-1.75 6.845z" fill="#F1CAFF"/><path fill-rule="evenodd" clip-rule="evenodd" d="M2624.93 532.105l6.48 58.575h20.87l6.49-58.575h-33.84z" fill="#D7BDE3"/><path fill-rule="evenodd" clip-rule="evenodd" d="M2209.42 572.979l11.02 9.988 7.53-14.613-11.02-9.988-7.53 14.613zM2161.3 572.973l11.02 9.988 7.53-14.613-11.02-9.989-7.53 14.614z" fill="#F1CAFF"/><path fill-rule="evenodd" clip-rule="evenodd" d="M2204.88 580.352l12.45-6.38-4.81-16.511-12.45 6.38 4.81 16.511zM2178.91 575.792l13.08 3.566 2.69-17.338-13.08-3.566-2.69 17.338z" fill="#F1CAFF"/><path fill-rule="evenodd" clip-rule="evenodd" d="M2191.97 575.792l13.08 3.566 2.69-17.338-13.08-3.566-2.69 17.338zM2027.32 569.301l11.02 9.988 7.54-14.613-11.02-9.988-7.54 14.613zM1979.2 569.295l11.02 9.988 7.54-14.612-11.03-9.989-7.53 14.613z" fill="#F1CAFF"/><path fill-rule="evenodd" clip-rule="evenodd" d="M2022.79 576.673l12.45-6.38-4.81-16.511-12.46 6.381 4.82 16.51zM1996.82 572.114l13.07 3.566 2.69-17.338-13.07-3.566-2.69 17.338z" fill="#F1CAFF"/><path fill-rule="evenodd" clip-rule="evenodd" d="M2009.88 572.114l13.07 3.566 2.69-17.338-13.07-3.566-2.69 17.338z" fill="#F1CAFF"/><path fill-rule="evenodd" clip-rule="evenodd" d="M2156.91 566.536c0 18.143 16.53 32.851 36.92 32.851 20.4 0 36.93-14.708 36.93-32.851M1975.61 566.536c0 18.143 16.53 32.851 36.93 32.851 20.39 0 36.93-14.708 36.93-32.851" fill="#D7BDE3"/><path fill-rule="evenodd" clip-rule="evenodd" d="M2359.27 613.568h-173.76v-22.886h173.76v22.886zM2105.42 879.988h-11.3V599.173h11.3v280.815z" fill="#9C7EB5"/><path fill-rule="evenodd" clip-rule="evenodd" d="M2094.12 879.988h-12.39V599.173h12.39v280.815z" fill="#D7BDE3"/><path fill-rule="evenodd" clip-rule="evenodd" d="M2185.51 613.568H1850v-22.889h335.51v22.889z" fill="#CA9DE6"/><path d="M2156.91 501.595l-16.12-2.12-23.84 54.308M2068.52 498l20.94.053 16.76 57.255" stroke="#9C7EB5" stroke-width="4.9"/><path fill-rule="evenodd" clip-rule="evenodd" d="M2092.26 525.499l8.3 65.181h26.67l8.29-65.181h-43.26z" fill="#D7BDE3"/><path fill-rule="evenodd" clip-rule="evenodd" d="M2850.36 728.26h8.81l37.7 151.728h-8.81l-37.7-151.728z" fill="#CA9DE6"/><path d="M2814.68 803.411l-20.86-73.611M2831 729.8l-54.34 73.406M2831 729.8l77.92 72.586" stroke="#9C7EB5" stroke-width="4.9"/><path fill-rule="evenodd" clip-rule="evenodd" d="M2798.42 728.168h-8.68l-37.16 151.819h8.68l37.16-151.819z" fill="#CA9DE6"/><path d="M2891.87 729.8l-77.19 72.586" stroke="#9C7EB5" stroke-width="4.9"/><path fill-rule="evenodd" clip-rule="evenodd" d="M2887.55 728.26h8.8l37.7 151.728h-8.8l-37.7-151.728zM2835.54 728.26h-8.8l-37.7 151.728h8.81l37.69-151.728z" fill="#D7BDE3"/><path fill-rule="evenodd" clip-rule="evenodd" d="M2746.99 711.35v1.162c0 9.693 7.86 17.546 17.55 17.546h137.41c21.2 0 37.51-19.464 34.58-41.273l-15.51-121.517c-1.34-10.064-9.62-17.553-19.41-17.553h-40.72c-9.78 0-18.06 7.489-19.41 17.553l-15.51 121.517c-.12.868-.2 1.736-.25 2.597l-.09-.014s-2.87 19.982-29.54 19.982h-49.1z" fill="#D7BDE3"/><path fill-rule="evenodd" clip-rule="evenodd" d="M2260.07 728.26h8.81l37.7 151.728h-8.81l-37.7-151.728z" fill="#CA9DE6"/><path d="M2224.39 803.411l-20.86-73.611M2240.7 729.8l-54.33 73.406M2240.7 729.8l77.93 72.586" stroke="#9C7EB5" stroke-width="4.9"/><path fill-rule="evenodd" clip-rule="evenodd" d="M2208.13 728.168h-8.68l-37.16 151.819h8.68l37.16-151.819z" fill="#CA9DE6"/><path d="M2301.58 729.8l-77.19 72.586" stroke="#9C7EB5" stroke-width="4.9"/><path fill-rule="evenodd" clip-rule="evenodd" d="M2297.26 728.26h8.8l37.7 151.728h-8.81l-37.69-151.728zM2245.25 728.26h-8.8l-37.7 151.728h8.81l37.69-151.728z" fill="#D7BDE3"/><path fill-rule="evenodd" clip-rule="evenodd" d="M2156.7 711.35v1.162c0 9.693 7.86 17.546 17.54 17.546h137.42c21.2 0 37.51-19.464 34.58-41.273l-15.51-121.517c-1.34-10.064-9.62-17.553-19.41-17.553h-40.72c-9.78 0-18.06 7.489-19.41 17.553l-15.51 121.517a28.75 28.75 0 00-.25 2.597l-.09-.014s-2.87 19.982-29.54 19.982h-49.1z" fill="#D7BDE3"/><path fill-rule="evenodd" clip-rule="evenodd" d="M2555.23 728.26h8.8l37.7 151.728h-8.81l-37.69-151.728z" fill="#CA9DE6"/><path d="M2519.54 803.411l-20.85-73.611M2535.86 729.8l-54.34 73.406M2535.86 729.8l77.92 72.586" stroke="#9C7EB5" stroke-width="4.9"/><path fill-rule="evenodd" clip-rule="evenodd" d="M2503.28 728.168h-8.68l-37.15 151.819h8.68l37.15-151.819z" fill="#CA9DE6"/><path d="M2596.74 729.8l-77.2 72.586" stroke="#9C7EB5" stroke-width="4.9"/><path fill-rule="evenodd" clip-rule="evenodd" d="M2592.41 728.26h8.81l37.7 151.728h-8.81l-37.7-151.728zM2540.41 728.26h-8.81l-37.7 151.728h8.81l37.7-151.728z" fill="#D7BDE3"/></g><defs><clipPath id="clip0"><path fill="#fff" d="M0 0h2950v880H0z"/></clipPath></defs></svg>