<svg width="2950" height="880" fill="none" xmlns="http://www.w3.org/2000/svg"><g opacity=".7" clip-path="url(#clip0)"><path fill="#fff" d="M0 0h2950v880H0z"/><path fill-rule="evenodd" clip-rule="evenodd" d="M2389 796h46V680h-46v116z" fill="#9FB563"/><path fill-rule="evenodd" clip-rule="evenodd" d="M2225 503.761V804h-118V419l46.35 33.294v48.951h40.25v-20.04l31.4 22.556z" fill="#DEECB6"/><path fill-rule="evenodd" clip-rule="evenodd" d="M2323.96 793.005h74.03v-91.87h-74.03v91.87z" fill="#9FB563"/><path fill-rule="evenodd" clip-rule="evenodd" d="M2354.15 797.853h10.31v-86.275h-10.31v86.275zM2373.58 797.853h10.31v-86.275h-10.31v86.275z" fill="#CCD3B8"/><path d="M2314.46 560.757v46.515" stroke="#D8E79F" stroke-width="5.6"/><path fill-rule="evenodd" clip-rule="evenodd" d="M2224.01 801.39h75.93V588.251h-75.93V801.39z" fill="#D8E79F"/><path fill-rule="evenodd" clip-rule="evenodd" d="M2233.9 795.416h11.88v-193.68h-11.88v193.68zM2256.03 795.416h11.88v-193.68h-11.88v193.68zM2278.17 795.416h11.88v-193.68h-11.88v193.68zM2299.94 801.39h48.13V588.251h-48.13V801.39z" fill="#9FB563"/><path fill-rule="evenodd" clip-rule="evenodd" d="M2309.29 795.416h10.32v-193.68h-10.32v193.68zM2329.03 795.416h10.31v-193.68h-10.31v193.68z" fill="#CCD3B8"/><path fill-rule="evenodd" clip-rule="evenodd" d="M2329.03 706.916h10.31v-17.94h-10.31v17.94zM2329.03 654.396h10.31v-17.941h-10.31v17.941zM2309.29 654.396h10.32v-17.941h-10.32v17.941z" fill="#D8E79F"/><path fill-rule="evenodd" clip-rule="evenodd" d="M2309.3 672.335h10.31v-17.94h-10.31v17.94zM2354.15 757.611h10.31v-17.94h-10.31v17.94zM2373.58 775.55h10.31v-17.939h-10.31v17.939zM2309.3 724.855h10.31v-17.939h-10.31v17.939zM2329.03 724.855h10.31v-17.939h-10.31v17.939z" fill="#D8E79F"/><path fill-rule="evenodd" clip-rule="evenodd" d="M2437.74 799.396h55.21v-77.933h-55.21v77.933z" fill="#CCD3B8"/><path fill-rule="evenodd" clip-rule="evenodd" d="M2376.07 799.396h61.67v-77.933h-61.67v77.933z" fill="#C6E08E"/><path fill-rule="evenodd" clip-rule="evenodd" d="M2442.54 729.9h61.13v-15.612h-61.13V729.9z" fill="#D8E79F"/><path fill-rule="evenodd" clip-rule="evenodd" d="M2376.07 733.77h116.88v-3.87h-116.88v3.87z" fill="#9FB563"/><path fill-rule="evenodd" clip-rule="evenodd" d="M2376.07 740.756h116.88v-3.869h-116.88v3.869z" fill="#D8E79F"/><path fill-rule="evenodd" clip-rule="evenodd" d="M2376.07 777.456h116.88v-3.87h-116.88v3.87z" fill="#9FB563"/><path fill-rule="evenodd" clip-rule="evenodd" d="M2376.07 784.442h116.88v-3.87h-116.88v3.87z" fill="#D8E79F"/><path fill-rule="evenodd" clip-rule="evenodd" d="M2364.73 729.9h77.81v-15.612h-77.81V729.9z" fill="#CCD3B8"/><path fill-rule="evenodd" clip-rule="evenodd" d="M2442.54 773.585h61.13v-26.359h-61.13v26.359z" fill="#D8E79F"/><path fill-rule="evenodd" clip-rule="evenodd" d="M2364.73 773.585h77.81v-26.359h-77.81v26.359zM2484.33 795.302h75.1V692.049h-75.1v103.253z" fill="#CCD3B8"/><path fill-rule="evenodd" clip-rule="evenodd" d="M2559.43 795.302h47.61V692.049h-47.61v103.253z" fill="#D8E79F"/><path fill-rule="evenodd" clip-rule="evenodd" d="M2484.33 781.955h107.92v-8.906h-107.92v8.906zM2484.33 766.598h107.92v-8.906h-107.92v8.906zM2484.33 751.241h107.92v-8.906h-107.92v8.906zM2484.33 735.883h107.92v-8.906h-107.92v8.906zM2484.33 720.526h107.92v-8.906h-107.92v8.906zM2484.33 705.169h107.92v-8.906h-107.92v8.906z" fill="#9FB563"/><path fill-rule="evenodd" clip-rule="evenodd" d="M2530.58 781.955h15.9v-8.906h-15.9v8.906zM2530.58 766.598h15.9v-8.906h-15.9v8.906zM2514.69 781.955h15.89v-8.906h-15.89v8.906zM2530.34 735.884h15.9v-8.906h-15.9v8.906zM2491.61 720.526h15.89v-8.905h-15.89v8.905zM2507.5 720.526h15.89v-8.905h-15.89v8.905z" fill="#C6E08E"/><path fill-rule="evenodd" clip-rule="evenodd" d="M2256 794h-81V588h81v206z" fill="#DEECB6"/><path fill-rule="evenodd" clip-rule="evenodd" d="M3096.05 787.833h-146.22V7.853h146.22v779.98z" fill="#CCD3B8"/><path fill-rule="evenodd" clip-rule="evenodd" d="M2949.83 787.833h-92.7V7.853h92.7v779.98z" fill="#9FB563"/><path fill-rule="evenodd" clip-rule="evenodd" d="M3109.55 7.852H2946.8v-17.988h162.75V7.852z" fill="#CCD3B8"/><path fill-rule="evenodd" clip-rule="evenodd" d="M2946.8 7.852h-103.17v-17.988h103.17V7.852zM2839 800h-98V482h98v318z" fill="#D8E79F"/><path fill-rule="evenodd" clip-rule="evenodd" d="M2896 596h-98V280h98v316z" fill="#D8E79F"/><path fill-rule="evenodd" clip-rule="evenodd" d="M2550 273.808V808h206V123l-80.92 59.237v87.096h-70.26v-35.657L2550 273.808z" fill="#9FB563"/><path d="M2686.78 390.165v58.221" stroke="#D8E79F" stroke-width="5.6"/><path fill-rule="evenodd" clip-rule="evenodd" d="M2894.93 801.414h-148V426.17h148v375.244z" fill="#CCD3B8"/><path fill-rule="evenodd" clip-rule="evenodd" d="M2746.93 801.414h-93.83V426.17h93.83v375.244z" fill="#D8E79F"/><path fill-rule="evenodd" clip-rule="evenodd" d="M2894.93 474.789h-35.18v-17.465h35.18v17.465zM2859.75 492.078h-35.19v-17.464h35.19v17.464zM2824.56 474.789h-35.18v-17.465h35.18v17.465z" fill="#9FB563"/><path fill-rule="evenodd" clip-rule="evenodd" d="M2894.93 492.078h-35.18v-17.464h35.18v17.464zM2859.75 609.962h-35.19v-17.466h35.19v17.466zM2734.87 492.078h-27.26v-17.464h27.26v17.464zM2789.38 698.06h-35.19v-17.465h35.19v17.465z" fill="#C6E08E"/><path fill-rule="evenodd" clip-rule="evenodd" d="M2789.38 509.544h-35.19v-17.466h35.19v17.466zM2859.75 592.497h-35.19v-17.465h35.19v17.465zM2789.38 609.962h-35.19v-17.466h35.19v17.466zM2734.86 474.789h-27.25v-17.465h27.25v17.465zM2680.35 492.254h-27.25v-17.465h27.25v17.465zM2734.86 559.668h-27.25v-17.465h27.25v17.465zM2824.56 698.06h-35.18v-17.465h35.18v17.465zM2894.93 742.86h-35.18v-17.465h35.18v17.465zM2859.75 760.325h-35.19V742.86h35.19v17.465zM2894.93 509.544h-35.18v-17.466h35.18v17.466zM2372.78 788.481h-131.63v-163.36h131.63v163.36z" fill="#9FB563"/><path fill-rule="evenodd" clip-rule="evenodd" d="M2319.09 797.101h-18.33V643.692h18.33v153.409zM2284.55 797.101h-18.33V643.692h18.33v153.409z" fill="#CCD3B8"/><path d="M2389.68 375.509v82.711" stroke="#D8E79F" stroke-width="5.6"/><path fill-rule="evenodd" clip-rule="evenodd" d="M2550.5 803.391h-135V424.397h135v378.994z" fill="#D8E79F"/><path fill-rule="evenodd" clip-rule="evenodd" d="M2532.92 792.768h-21.13V448.377h21.13v344.391zM2493.57 792.768h-21.13V448.377h21.13v344.391zM2454.21 792.768h-21.13V448.377h21.13v344.391zM2415.5 803.391h-85.58V424.397h85.58v378.994z" fill="#9FB563"/><path fill-rule="evenodd" clip-rule="evenodd" d="M2398.86 792.768h-18.33V448.377h18.33v344.391zM2363.77 792.768h-18.34V448.377h18.34v344.391z" fill="#CCD3B8"/><path fill-rule="evenodd" clip-rule="evenodd" d="M2363.77 635.401h-18.34v-31.9h18.34v31.9zM2363.77 542.012h-18.34v-31.901h18.34v31.901zM2398.86 542.012h-18.33v-31.901h18.33v31.901z" fill="#D8E79F"/><path fill-rule="evenodd" clip-rule="evenodd" d="M2398.84 573.912h-18.33v-31.901h18.33v31.901zM2319.09 725.545h-18.33v-31.901h18.33v31.901zM2284.55 757.444h-18.33v-31.9h18.33v31.9zM2398.84 667.3h-18.33v-31.899h18.33V667.3zM2363.77 667.3h-18.34v-31.899h18.34V667.3z" fill="#D8E79F"/><path fill-rule="evenodd" clip-rule="evenodd" d="M2667.52 579.955h-9.56v-17.053h9.56v17.053zM2667.52 545.849h-9.56v-17.052h9.56v17.052z" fill="#CFDCB3"/><path fill-rule="evenodd" clip-rule="evenodd" d="M2676.92 786.359h-82.24V347.713h82.24v438.646z" fill="#BEC8A2"/><path fill-rule="evenodd" clip-rule="evenodd" d="M2594.68 786.359h-52.13V347.713h52.13v438.646z" fill="#DEECB6"/><path fill-rule="evenodd" clip-rule="evenodd" d="M2676.92 337.597h-82.24v-20.056h82.24v20.056z" fill="#BEC8A2"/><path fill-rule="evenodd" clip-rule="evenodd" d="M2662.01 329.61h-33.18v-20.056h33.18v20.056zM2586.65 329.61h-33.17v-20.056h33.17v20.056z" fill="#BEC8A2"/><path fill-rule="evenodd" clip-rule="evenodd" d="M2594.68 337.597h-52.13v-20.056h52.13v20.056z" fill="#DEECB6"/><path fill-rule="evenodd" clip-rule="evenodd" d="M2684.51 347.713h-91.53v-10.116h91.53v10.116z" fill="#BEC8A2"/><path fill-rule="evenodd" clip-rule="evenodd" d="M2592.98 347.713h-58.02v-10.116h58.02v10.116zM2667.52 786.358h-9.56V357.651h9.56v428.707zM2614.12 786.358h-9.55V357.651h9.55v428.707zM2631.92 786.358h-9.55V357.651h9.55v428.707zM2649.72 786.358h-9.55V357.651h9.55v428.707z" fill="#F1FFBA"/><path fill-rule="evenodd" clip-rule="evenodd" d="M2649.72 562.902h-9.55v-17.053h9.55v17.053zM2631.92 719.995h-9.55v-17.053h9.55v17.053zM2631.92 702.942h-9.55v-17.053h9.55v17.053z" fill="#CFDCB3"/><path fill-rule="evenodd" clip-rule="evenodd" d="M2614.12 651.739h-9.55v-17.053h9.55v17.053zM2667.52 669.043h-9.56V651.99h9.56v17.053zM2614.12 510.818h-9.55v-17.053h9.55v17.053zM2667.52 484.018h-9.56v-17.053h9.56v17.053zM2631.92 668.836h-9.55v-17.053h9.55v17.053z" fill="#DEECB6"/><path fill-rule="evenodd" clip-rule="evenodd" d="M2667.52 739.592h-9.56v-17.053h9.56v17.053zM2631.92 545.849h-9.55v-17.052h9.55v17.052zM2667.52 597.008h-9.56v-17.053h9.56v17.053zM2614.12 446.755h-9.55v-17.053h9.55v17.053zM2667.52 420.251h-9.56v-17.053h9.56v17.053zM2667.52 437.304h-9.56v-17.053h9.56v17.053zM2631.92 528.795h-9.55v-17.053h9.55v17.053z" fill="#CFDCB3"/><path fill-rule="evenodd" clip-rule="evenodd" d="M636.163 818h-46V702h46v116z" fill="#9FB563"/><path fill-rule="evenodd" clip-rule="evenodd" d="M800.163 525.761V826h118V441l-46.35 33.294v48.951h-40.249v-20.04l-31.401 22.556z" fill="#DEECB6"/><path fill-rule="evenodd" clip-rule="evenodd" d="M701.201 815.005h-74.028v-91.87h74.028v91.87z" fill="#9FB563"/><path fill-rule="evenodd" clip-rule="evenodd" d="M671.01 819.853h-10.311v-86.275h10.311v86.275zM651.584 819.853h-10.311v-86.275h10.311v86.275z" fill="#CCD3B8"/><path d="M710.704 582.757v46.515" stroke="#D8E79F" stroke-width="5.6"/><path fill-rule="evenodd" clip-rule="evenodd" d="M801.15 823.39h-75.923V610.251h75.923V823.39z" fill="#D8E79F"/><path fill-rule="evenodd" clip-rule="evenodd" d="M791.26 817.416h-11.881v-193.68h11.881v193.68zM769.129 817.416h-11.881v-193.68h11.881v193.68zM746.997 817.416h-11.882v-193.68h11.882v193.68zM725.226 823.39h-48.13V610.251h48.13V823.39z" fill="#9FB563"/><path fill-rule="evenodd" clip-rule="evenodd" d="M715.868 817.416h-10.311v-193.68h10.311v193.68zM696.133 817.416h-10.311v-193.68h10.311v193.68z" fill="#CCD3B8"/><path fill-rule="evenodd" clip-rule="evenodd" d="M696.133 728.916h-10.311v-17.94h10.311v17.94zM696.133 676.396h-10.311v-17.941h10.311v17.941zM715.868 676.396h-10.311v-17.941h10.311v17.941z" fill="#D8E79F"/><path fill-rule="evenodd" clip-rule="evenodd" d="M715.86 694.335h-10.311v-17.94h10.311v17.94zM671.01 779.611h-10.311v-17.94h10.311v17.94zM651.584 797.55h-10.311v-17.939h10.311v17.939zM715.86 746.855h-10.311v-17.939h10.311v17.939zM696.133 746.855h-10.311v-17.939h10.311v17.939z" fill="#D8E79F"/><path fill-rule="evenodd" clip-rule="evenodd" d="M587.418 821.396h-55.202v-77.933h55.202v77.933z" fill="#CCD3B8"/><path fill-rule="evenodd" clip-rule="evenodd" d="M649.088 821.396h-61.669v-77.933h61.669v77.933z" fill="#C6E08E"/><path fill-rule="evenodd" clip-rule="evenodd" d="M582.618 751.9h-61.127v-15.612h61.127V751.9z" fill="#D8E79F"/><path fill-rule="evenodd" clip-rule="evenodd" d="M649.088 755.77H532.216v-3.87h116.872v3.87z" fill="#9FB563"/><path fill-rule="evenodd" clip-rule="evenodd" d="M649.088 762.756H532.216v-3.869h116.872v3.869z" fill="#D8E79F"/><path fill-rule="evenodd" clip-rule="evenodd" d="M649.088 799.456H532.216v-3.87h116.872v3.87z" fill="#9FB563"/><path fill-rule="evenodd" clip-rule="evenodd" d="M649.088 806.442H532.216v-3.87h116.872v3.87z" fill="#D8E79F"/><path fill-rule="evenodd" clip-rule="evenodd" d="M660.438 751.9h-77.82v-15.612h77.82V751.9z" fill="#CCD3B8"/><path fill-rule="evenodd" clip-rule="evenodd" d="M582.618 795.585h-61.127v-26.359h61.127v26.359z" fill="#D8E79F"/><path fill-rule="evenodd" clip-rule="evenodd" d="M660.437 795.585h-77.819v-26.359h77.819v26.359zM540.835 817.302h-75.101V714.049h75.101v103.253z" fill="#CCD3B8"/><path fill-rule="evenodd" clip-rule="evenodd" d="M465.734 817.302h-47.608V714.049h47.608v103.253z" fill="#D8E79F"/><path fill-rule="evenodd" clip-rule="evenodd" d="M540.835 803.955H432.91v-8.906h107.925v8.906zM540.835 788.598H432.91v-8.906h107.925v8.906zM540.835 773.241H432.91v-8.906h107.925v8.906zM540.835 757.883H432.91v-8.906h107.925v8.906zM540.835 742.526H432.91v-8.906h107.925v8.906zM540.834 727.169H432.91v-8.906h107.924v8.906z" fill="#9FB563"/><path fill-rule="evenodd" clip-rule="evenodd" d="M494.579 803.955h-15.893v-8.906h15.893v8.906zM494.579 788.598h-15.893v-8.906h15.893v8.906z" fill="#C6E08E"/><path fill-rule="evenodd" clip-rule="evenodd" d="M510.472 803.955h-15.893v-8.906h15.893v8.906zM494.819 757.884h-15.893v-8.906h15.893v8.906zM533.553 742.526H517.66v-8.905h15.893v8.905z" fill="#C6E08E"/><path fill-rule="evenodd" clip-rule="evenodd" d="M517.661 742.526h-15.893v-8.905h15.893v8.905z" fill="#C6E08E"/><path fill-rule="evenodd" clip-rule="evenodd" d="M769.163 816h81V610h-81v206z" fill="#DEECB6"/><path fill-rule="evenodd" clip-rule="evenodd" d="M-70.886 809.833H75.337V29.853H-70.886v779.98z" fill="#CCD3B8"/><path fill-rule="evenodd" clip-rule="evenodd" d="M75.337 809.833h92.695V29.853H75.337v779.98z" fill="#9FB563"/><path fill-rule="evenodd" clip-rule="evenodd" d="M-70.886 11.864H75.337V-23.8H-70.886v35.663z" fill="#CCD3B8"/><path fill-rule="evenodd" clip-rule="evenodd" d="M75.337 11.864h92.695V-23.8H75.337v35.663z" fill="#9FB563"/><path fill-rule="evenodd" clip-rule="evenodd" d="M-84.383 29.852H78.36V11.864H-84.383v17.988z" fill="#CCD3B8"/><path fill-rule="evenodd" clip-rule="evenodd" d="M78.361 29.852h103.167V11.864H78.361v17.988zM40.768 809.833h16.99V47.526h-16.99v762.307zM9.12 809.833h16.99V47.526H9.12v762.307z" fill="#D8E79F"/><path fill-rule="evenodd" clip-rule="evenodd" d="M9.12 691.828h16.99v-30.323H9.12v30.323zM9.12 661.505h16.99v-30.323H9.12v30.323z" fill="#C6E08E"/><path fill-rule="evenodd" clip-rule="evenodd" d="M40.768 570.458h16.99v-30.323h-16.99v30.323zM40.768 319.879h16.99v-30.323h-16.99v30.323zM9.12 600.859h16.99v-30.323H9.12v30.323z" fill="#9FB563"/><path fill-rule="evenodd" clip-rule="evenodd" d="M9.12 382.17h16.99v-30.323H9.12v30.323zM40.768 205.965h16.99v-30.323h-16.99v30.323zM9.12 351.846h16.99v-30.323H9.12v30.323z" fill="#C6E08E"/><path fill-rule="evenodd" clip-rule="evenodd" d="M186.163 822h98V504h-98v318z" fill="#D8E79F"/><path fill-rule="evenodd" clip-rule="evenodd" d="M129.163 618h98V302h-98v316z" fill="#D8E79F"/><path fill-rule="evenodd" clip-rule="evenodd" d="M475.163 295.808V830h-206V145l80.915 59.237v87.096h70.265v-35.657l54.82 40.132z" fill="#9FB563"/><path d="M338.378 412.165v58.221" stroke="#D8E79F" stroke-width="5.6"/><path fill-rule="evenodd" clip-rule="evenodd" d="M130.23 823.414h148.006V448.17H130.23v375.244z" fill="#CCD3B8"/><path fill-rule="evenodd" clip-rule="evenodd" d="M278.237 823.414h93.826V448.17h-93.826v375.244z" fill="#D8E79F"/><path fill-rule="evenodd" clip-rule="evenodd" d="M130.23 496.789h35.185v-17.465H130.23v17.465zM165.416 514.078H200.6v-17.464h-35.184v17.464zM200.6 496.789h35.184v-17.465H200.6v17.465z" fill="#9FB563"/><path fill-rule="evenodd" clip-rule="evenodd" d="M130.23 514.078h35.185v-17.464H130.23v17.464zM165.416 631.962H200.6v-17.466h-35.184v17.466zM290.297 514.078h27.259v-17.464h-27.259v17.464zM235.785 720.06h35.184v-17.465h-35.184v17.465z" fill="#C6E08E"/><path fill-rule="evenodd" clip-rule="evenodd" d="M235.785 531.544h35.184v-17.466h-35.184v17.466zM165.416 614.497H200.6v-17.465h-35.184v17.465zM235.785 631.962h35.184v-17.466h-35.184v17.466zM290.304 496.789h27.253v-17.465h-27.253v17.465zM344.81 514.254h27.253v-17.465H344.81v17.465zM290.3 581.668h27.253v-17.465H290.3v17.465zM200.6 720.06h35.184v-17.465H200.6v17.465zM130.23 764.86h35.185v-17.465H130.23v17.465zM165.416 782.325H200.6V764.86h-35.184v17.465zM130.23 531.544h35.185v-17.466H130.23v17.466zM652.383 810.481h131.634v-163.36H652.383v163.36z" fill="#9FB563"/><path fill-rule="evenodd" clip-rule="evenodd" d="M706.068 819.101h18.335V665.692h-18.335v153.409zM740.611 819.101h18.335V665.692h-18.335v153.409z" fill="#CCD3B8"/><path d="M635.485 397.509v82.711" stroke="#D8E79F" stroke-width="5.6"/><path fill-rule="evenodd" clip-rule="evenodd" d="M474.659 825.391h135.003V446.397H474.659v378.994z" fill="#D8E79F"/><path fill-rule="evenodd" clip-rule="evenodd" d="M492.244 814.768h21.126V470.377h-21.126v344.391zM531.597 814.768h21.127V470.377h-21.127v344.391zM570.952 814.768h21.126V470.377h-21.126v344.391zM609.663 825.391h85.582V446.397h-85.582v378.994z" fill="#9FB563"/><path fill-rule="evenodd" clip-rule="evenodd" d="M626.303 814.768h18.334V470.377h-18.334v344.391zM661.394 814.768h18.335V470.377h-18.335v344.391z" fill="#CCD3B8"/><path fill-rule="evenodd" clip-rule="evenodd" d="M661.394 657.401h18.335v-31.9h-18.335v31.9zM661.394 564.012h18.335v-31.901h-18.335v31.901zM626.303 564.012h18.334v-31.901h-18.334v31.901z" fill="#D8E79F"/><path fill-rule="evenodd" clip-rule="evenodd" d="M626.318 595.912h18.335v-31.901h-18.335v31.901zM706.068 747.545h18.335v-31.901h-18.335v31.901zM740.611 779.444h18.335v-31.9h-18.335v31.9zM626.318 689.3h18.335v-31.899h-18.335V689.3zM661.394 689.3h18.335v-31.899h-18.335V689.3z" fill="#D8E79F"/><path fill-rule="evenodd" clip-rule="evenodd" d="M357.646 601.955h9.554v-17.053h-9.554v17.053zM357.646 567.849h9.554v-17.052h-9.554v17.052z" fill="#CFDCB3"/><path fill-rule="evenodd" clip-rule="evenodd" d="M348.247 808.359h82.233V369.713h-82.233v438.646z" fill="#BEC8A2"/><path fill-rule="evenodd" clip-rule="evenodd" d="M430.48 808.359h52.13V369.713h-52.13v438.646z" fill="#DEECB6"/><path fill-rule="evenodd" clip-rule="evenodd" d="M348.247 359.597h82.233v-20.056h-82.233v20.056z" fill="#BEC8A2"/><path fill-rule="evenodd" clip-rule="evenodd" d="M363.153 351.61h33.177v-20.056h-33.177v20.056zM438.509 351.61h33.177v-20.056h-33.177v20.056z" fill="#BEC8A2"/><path fill-rule="evenodd" clip-rule="evenodd" d="M430.48 359.597h52.13v-20.056h-52.13v20.056z" fill="#DEECB6"/><path fill-rule="evenodd" clip-rule="evenodd" d="M340.656 369.713h91.524v-10.116h-91.524v10.116z" fill="#BEC8A2"/><path fill-rule="evenodd" clip-rule="evenodd" d="M432.181 369.713H490.2v-10.116h-58.019v10.116zM357.646 808.358h9.554V379.651h-9.554v428.707zM411.039 808.358h9.555V379.651h-9.555v428.707zM393.241 808.358h9.554V379.651h-9.554v428.707zM375.443 808.358h9.555V379.651h-9.555v428.707z" fill="#F1FFBA"/><path fill-rule="evenodd" clip-rule="evenodd" d="M375.443 584.902h9.555v-17.053h-9.555v17.053zM393.241 741.995h9.554v-17.053h-9.554v17.053zM393.241 724.942h9.554v-17.053h-9.554v17.053z" fill="#CFDCB3"/><path fill-rule="evenodd" clip-rule="evenodd" d="M411.039 673.739h9.555v-17.053h-9.555v17.053zM357.646 691.043h9.554V673.99h-9.554v17.053zM411.039 532.818h9.555v-17.053h-9.555v17.053zM357.646 506.018h9.554v-17.053h-9.554v17.053zM393.241 690.836h9.554v-17.053h-9.554v17.053z" fill="#DEECB6"/><path fill-rule="evenodd" clip-rule="evenodd" d="M357.646 761.592h9.554v-17.053h-9.554v17.053zM393.241 567.849h9.554v-17.052h-9.554v17.052zM357.646 619.008h9.554v-17.053h-9.554v17.053zM411.039 468.755h9.555v-17.053h-9.555v17.053zM357.646 442.251h9.554v-17.053h-9.554v17.053zM357.646 459.304h9.554v-17.053h-9.554v17.053zM393.241 550.795h9.554v-17.053h-9.554v17.053z" fill="#CFDCB3"/><path fill-rule="evenodd" clip-rule="evenodd" d="M2789 896h-23v-59h23v59z" fill="#9FB563"/><path fill-rule="evenodd" clip-rule="evenodd" d="M2956 898h-28v-91h28v91z" fill="#F1FFBA"/><path fill-rule="evenodd" clip-rule="evenodd" d="M2972 839h-28v-90h28v90z" fill="#F1FFBA"/><path fill-rule="evenodd" clip-rule="evenodd" d="M2873 747.151V900h60V704l-23.57 16.95v24.92h-20.46v-10.202L2873 747.151z" fill="#DEECB6"/><path d="M2912.3 780.469v16.682" stroke="#F1FFBA" stroke-width="5.6"/><path fill-rule="evenodd" clip-rule="evenodd" d="M2971.94 898.304h-42.41V790.786h42.41v107.518z" fill="#BEC8A2"/><path fill-rule="evenodd" clip-rule="evenodd" d="M2929.53 898.304h-26.88V790.786h26.88v107.518z" fill="#F1FFBA"/><path fill-rule="evenodd" clip-rule="evenodd" d="M2951.77 804.717h-10.08v-5.005h10.08v5.005z" fill="#DEECB6"/><path fill-rule="evenodd" clip-rule="evenodd" d="M2926.07 809.67h-7.81v-5.004h7.81v5.004zM2941.69 868.69h-10.08v-5.004h10.08v5.004z" fill="#CFDCB3"/><path fill-rule="evenodd" clip-rule="evenodd" d="M2941.69 814.675h-10.08v-5.004h10.08v5.004zM2941.69 843.447h-10.08v-5.004h10.08v5.004zM2926.07 804.717h-7.81v-5.005h7.81v5.005zM2910.45 809.721h-7.8v-5.004h7.8v5.004zM2926.07 829.037h-7.81v-5.004h7.81v5.004zM2951.77 868.69h-10.08v-5.004h10.08v5.004z" fill="#DEECB6"/><path fill-rule="evenodd" clip-rule="evenodd" d="M2822.33 894.598h-37.72v-46.807h37.72v46.807z" fill="#9FB563"/><path fill-rule="evenodd" clip-rule="evenodd" d="M2806.94 897.068h-5.25v-43.956h5.25v43.956zM2797.05 897.068h-5.26v-43.956h5.26v43.956z" fill="#CCD3B8"/><path d="M2827.17 776.27v23.699" stroke="#D8E79F" stroke-width="5.6"/><path fill-rule="evenodd" clip-rule="evenodd" d="M2873.25 898.87h-38.68V790.278h38.68V898.87z" fill="#D8E79F"/><path fill-rule="evenodd" clip-rule="evenodd" d="M2868.21 895.826h-6.05v-98.677h6.05v98.677zM2856.93 895.826h-6.05v-98.677h6.05v98.677zM2845.66 895.826h-6.06v-98.677h6.06v98.677zM2834.57 898.87h-24.53V790.278h24.53V898.87z" fill="#9FB563"/><path fill-rule="evenodd" clip-rule="evenodd" d="M2829.8 895.826h-5.25v-98.677h5.25v98.677zM2819.74 895.826h-5.25v-98.677h5.25v98.677z" fill="#CCD3B8"/><path fill-rule="evenodd" clip-rule="evenodd" d="M2819.74 850.736h-5.25v-9.14h5.25v9.14zM2819.74 823.978h-5.25v-9.141h5.25v9.141zM2829.8 823.978h-5.25v-9.141h5.25v9.141zM2829.79 833.118h-5.25v-9.14h5.25v9.14zM2806.94 876.565h-5.25v-9.14h5.25v9.14zM2797.05 885.705h-5.26v-9.14h5.26v9.14zM2829.79 859.876h-5.25v-9.14h5.25v9.14zM2819.74 859.876h-5.25v-9.14h5.25v9.14z" fill="#D8E79F"/><path fill-rule="evenodd" clip-rule="evenodd" d="M2764.35 897.854h-28.12v-39.706h28.12v39.706z" fill="#CCD3B8"/><path fill-rule="evenodd" clip-rule="evenodd" d="M2795.77 897.854h-31.42v-39.706h31.42v39.706z" fill="#C6E08E"/><path fill-rule="evenodd" clip-rule="evenodd" d="M2761.91 862.447h-31.14v-7.955h31.14v7.955z" fill="#D8E79F"/><path fill-rule="evenodd" clip-rule="evenodd" d="M2795.77 864.418h-59.54v-1.971h59.54v1.971z" fill="#9FB563"/><path fill-rule="evenodd" clip-rule="evenodd" d="M2795.77 867.978h-59.54v-1.971h59.54v1.971z" fill="#D8E79F"/><path fill-rule="evenodd" clip-rule="evenodd" d="M2801.56 862.447h-39.65v-7.955h39.65v7.955z" fill="#CCD3B8"/><path fill-rule="evenodd" clip-rule="evenodd" d="M2761.91 884.704h-31.14v-13.43h31.14v13.43z" fill="#D8E79F"/><path fill-rule="evenodd" clip-rule="evenodd" d="M2801.56 884.704h-39.65v-13.43h39.65v13.43zM2740.62 895.768h-38.26v-52.606h38.26v52.606z" fill="#CCD3B8"/><path fill-rule="evenodd" clip-rule="evenodd" d="M2702.36 895.768h-24.26v-52.606h24.26v52.606z" fill="#D8E79F"/><path fill-rule="evenodd" clip-rule="evenodd" d="M2740.62 881.144h-54.99v-4.538h54.99v4.538zM2740.62 873.32h-54.99v-4.538h54.99v4.538zM2740.62 865.495h-54.99v-4.537h54.99v4.537zM2740.62 857.671h-54.99v-4.537h54.99v4.537zM2740.62 849.847h-54.99v-4.538h54.99v4.538z" fill="#9FB563"/><path fill-rule="evenodd" clip-rule="evenodd" d="M2717.05 881.144h-8.09v-4.537h8.09v4.537zM2717.18 865.495h-8.1v-4.537h8.1v4.537zM2736.91 857.671h-8.1v-4.537h8.1v4.537zM2728.81 857.671h-8.09v-4.537h8.09v4.537z" fill="#C6E08E"/><path fill-rule="evenodd" clip-rule="evenodd" d="M2090 903h23v-59h-23v59z" fill="#9FB563"/><path fill-rule="evenodd" clip-rule="evenodd" d="M2055.97 901.532h37.71v-46.807h-37.71v46.807z" fill="#9FB563"/><path fill-rule="evenodd" clip-rule="evenodd" d="M2071.35 904.002h5.25v-43.956h-5.25v43.956zM2081.25 904.002h5.25v-43.956h-5.25v43.956z" fill="#CCD3B8"/><path d="M2051.12 783.204v23.699" stroke="#D8E79F" stroke-width="5.6"/><path fill-rule="evenodd" clip-rule="evenodd" d="M2005.04 905.804h38.69V797.212h-38.69v108.592z" fill="#D8E79F"/><path fill-rule="evenodd" clip-rule="evenodd" d="M2010.08 902.761h6.05v-98.678h-6.05v98.678zM2021.36 902.761h6.05v-98.678h-6.05v98.678zM2032.63 902.761h6.06v-98.678h-6.06v98.678zM2043.73 905.804h24.52V797.212h-24.52v108.592z" fill="#9FB563"/><path fill-rule="evenodd" clip-rule="evenodd" d="M2048.49 902.761h5.26v-98.678h-5.26v98.678zM2058.55 902.761h5.25v-98.678h-5.25v98.678z" fill="#CCD3B8"/><path fill-rule="evenodd" clip-rule="evenodd" d="M2058.55 857.67h5.25v-9.14h-5.25v9.14zM2058.55 830.912h5.25v-9.141h-5.25v9.141zM2048.49 830.912h5.26v-9.141h-5.26v9.141zM2048.5 840.052h5.25v-9.14h-5.25v9.14zM2071.35 883.499h5.25v-9.14h-5.25v9.14zM2048.5 866.811h5.25v-9.141h-5.25v9.141zM2058.55 866.811h5.25v-9.141h-5.25v9.141z" fill="#D8E79F"/><path fill-rule="evenodd" clip-rule="evenodd" d="M2113.94 904.788h28.12v-39.706h-28.12v39.706z" fill="#CCD3B8"/><path fill-rule="evenodd" clip-rule="evenodd" d="M2082.52 904.788h31.42v-39.706h-31.42v39.706z" fill="#C6E08E"/><path fill-rule="evenodd" clip-rule="evenodd" d="M2116.38 869.381h31.15v-7.955h-31.15v7.955z" fill="#D8E79F"/><path fill-rule="evenodd" clip-rule="evenodd" d="M2082.52 871.352h59.54v-1.971h-59.54v1.971z" fill="#9FB563"/><path fill-rule="evenodd" clip-rule="evenodd" d="M2082.52 874.912h59.54v-1.971h-59.54v1.971z" fill="#D8E79F"/><path fill-rule="evenodd" clip-rule="evenodd" d="M2076.73 869.381h39.65v-7.955h-39.65v7.955z" fill="#CCD3B8"/><path fill-rule="evenodd" clip-rule="evenodd" d="M2116.38 891.638h31.15v-13.43h-31.15v13.43z" fill="#D8E79F"/><path fill-rule="evenodd" clip-rule="evenodd" d="M2076.73 891.638h39.65v-13.43h-39.65v13.43zM2137.67 902.702h38.26v-52.606h-38.26v52.606z" fill="#CCD3B8"/><path fill-rule="evenodd" clip-rule="evenodd" d="M2175.93 902.702h24.26v-52.606h-24.26v52.606z" fill="#D8E79F"/><path fill-rule="evenodd" clip-rule="evenodd" d="M2137.67 880.254h54.99v-4.537h-54.99v4.537zM2137.67 872.429h54.99v-4.537h-54.99v4.537zM2137.67 864.605h54.99v-4.537h-54.99v4.537zM2137.67 856.781h54.99v-4.538h-54.99v4.538z" fill="#9FB563"/><path fill-rule="evenodd" clip-rule="evenodd" d="M2161.12 872.429h8.09v-4.537h-8.09v4.537zM2141.38 864.605h8.1v-4.537h-8.1v4.537zM2149.48 864.605h8.09v-4.537h-8.09v4.537z" fill="#C6E08E"/><path fill-rule="evenodd" clip-rule="evenodd" d="M2857 895h41V790h-41v105z" fill="#DEECB6"/><path fill-rule="evenodd" clip-rule="evenodd" d="M2437.47 704.971h8.65v-15.449h-8.65v15.449zM2437.47 674.073h8.65v-15.45h-8.65v15.45z" fill="#C6E08E"/><path fill-rule="evenodd" clip-rule="evenodd" d="M2428.95 891.963h74.5V494.57h-74.5v397.393z" fill="#CCD3B8"/><path fill-rule="evenodd" clip-rule="evenodd" d="M2503.45 891.963h47.23V494.57h-47.23v397.393z" fill="#9FB563"/><path fill-rule="evenodd" clip-rule="evenodd" d="M2428.95 485.405h74.5v-18.169h-74.5v18.169z" fill="#CCD3B8"/><path fill-rule="evenodd" clip-rule="evenodd" d="M2442.46 478.17h30.05V460h-30.05v18.17zM2510.73 478.17h30.05V460h-30.05v18.17z" fill="#CCD3B8"/><path fill-rule="evenodd" clip-rule="evenodd" d="M2503.45 485.405h47.23v-18.169h-47.23v18.169z" fill="#9FB563"/><path fill-rule="evenodd" clip-rule="evenodd" d="M2422.08 494.57h82.91v-9.165h-82.91v9.165z" fill="#CCD3B8"/><path fill-rule="evenodd" clip-rule="evenodd" d="M2504.99 494.57h52.57v-9.165h-52.57v9.165zM2437.47 891.963h8.65V503.575h-8.65v388.388zM2485.84 891.963h8.66V503.575h-8.66v388.388zM2469.72 891.963h8.65V503.575h-8.65v388.388zM2453.59 891.963h8.66V503.575h-8.66v388.388z" fill="#D8E79F"/><path fill-rule="evenodd" clip-rule="evenodd" d="M2453.59 689.522h8.66v-15.449h-8.66v15.449zM2469.72 831.84h8.65v-15.449h-8.65v15.449zM2469.72 816.391h8.65v-15.449h-8.65v15.449z" fill="#C6E08E"/><path fill-rule="evenodd" clip-rule="evenodd" d="M2485.84 770.003h8.66v-15.449h-8.66v15.449zM2437.47 785.68h8.65v-15.449h-8.65v15.449zM2485.84 642.336h8.66v-15.449h-8.66v15.449zM2437.47 618.056h8.65v-15.449h-8.65v15.449zM2469.72 785.493h8.65v-15.45h-8.65v15.45z" fill="#9FB563"/><path fill-rule="evenodd" clip-rule="evenodd" d="M2437.47 849.595h8.65v-15.449h-8.65v15.449zM2469.72 674.073h8.65v-15.45h-8.65v15.45zM2437.47 720.42h8.65v-15.449h-8.65v15.449zM2485.84 584.298h8.66v-15.449h-8.66v15.449zM2437.47 560.287h8.65v-15.45h-8.65v15.45z" fill="#C6E08E"/><path fill-rule="evenodd" clip-rule="evenodd" d="M2437.47 575.736h8.65v-15.45h-8.65v15.45zM2469.72 658.623h8.65v-15.449h-8.65v15.449z" fill="#C6E08E"/><path fill-rule="evenodd" clip-rule="evenodd" d="M2560 898h50V736h-50v162z" fill="#D8E79F"/><path fill-rule="evenodd" clip-rule="evenodd" d="M2531 794h50V633h-50v161z" fill="#D8E79F"/><path fill-rule="evenodd" clip-rule="evenodd" d="M2707 629.835V902h-105V553l41.24 30.181v44.374h35.82v-18.167l27.94 20.447z" fill="#9FB563"/><path d="M2637.47 689.355v29.663" stroke="#D8E79F" stroke-width="5.6"/><path fill-rule="evenodd" clip-rule="evenodd" d="M2531.42 898.883h75.41V707.699h-75.41v191.184z" fill="#CCD3B8"/><path fill-rule="evenodd" clip-rule="evenodd" d="M2606.83 898.883h47.8V707.699h-47.8v191.184z" fill="#D8E79F"/><path fill-rule="evenodd" clip-rule="evenodd" d="M2531.42 732.47h17.93v-8.898h-17.93v8.898zM2549.35 741.279h17.92v-8.898h-17.92v8.898zM2567.27 732.47h17.93v-8.898h-17.93v8.898z" fill="#9FB563"/><path fill-rule="evenodd" clip-rule="evenodd" d="M2531.42 741.279h17.93v-8.898h-17.93v8.898zM2549.35 801.34h17.92v-8.899h-17.92v8.899zM2612.97 741.279h13.89v-8.898h-13.89v8.898zM2585.2 846.225h17.93v-8.899h-17.93v8.899z" fill="#C6E08E"/><path fill-rule="evenodd" clip-rule="evenodd" d="M2585.2 750.177h17.93v-8.898h-17.93v8.898zM2549.35 792.441h17.92v-8.898h-17.92v8.898zM2585.2 801.34h17.93v-8.899h-17.93v8.899zM2612.98 732.47h13.88v-8.898h-13.88v8.898zM2640.75 741.368h13.88v-8.898h-13.88v8.898zM2612.98 775.715h13.88v-8.898h-13.88v8.898zM2567.27 846.225h17.93v-8.899h-17.93v8.899zM2531.42 869.05h17.93v-8.899h-17.93v8.899zM2549.35 877.948h17.92v-8.898h-17.92v8.898zM2531.42 750.177h17.93v-8.898h-17.93v8.898z" fill="#9FB563"/><path fill-rule="evenodd" clip-rule="evenodd" d="M2900.53 898.084h50.01V827.48h-50.01v70.604z" fill="#BEC8A2"/><path fill-rule="evenodd" clip-rule="evenodd" d="M2844.67 898.084h55.86V827.48h-55.86v70.604z" fill="#CFDCB3"/><path fill-rule="evenodd" clip-rule="evenodd" d="M2904.88 835.123h55.38v-14.144h-55.38v14.144z" fill="#F1FFBA"/><path fill-rule="evenodd" clip-rule="evenodd" d="M2844.67 838.629h105.88v-3.506h-105.88v3.506z" fill="#DEECB6"/><path fill-rule="evenodd" clip-rule="evenodd" d="M2844.67 844.959h105.88v-3.506h-105.88v3.506z" fill="#F1FFBA"/><path fill-rule="evenodd" clip-rule="evenodd" d="M2844.67 878.206h105.88V874.7h-105.88v3.506z" fill="#DEECB6"/><path fill-rule="evenodd" clip-rule="evenodd" d="M2834.38 835.123h70.5v-14.144h-70.5v14.144z" fill="#BEC8A2"/><path fill-rule="evenodd" clip-rule="evenodd" d="M2904.88 874.7h55.38v-23.88h-55.38v23.88z" fill="#F1FFBA"/><path fill-rule="evenodd" clip-rule="evenodd" d="M2834.38 874.7h70.5v-23.88h-70.5v23.88zM2942.74 894.374h68.03v-93.542h-68.03v93.542z" fill="#BEC8A2"/><path fill-rule="evenodd" clip-rule="evenodd" d="M2942.74 882.282h97.77v-8.068h-97.77v8.068zM2942.74 868.369h97.77v-8.068h-97.77v8.068zM2942.74 854.457h97.77v-8.068h-97.77v8.068zM2942.74 840.544h97.77v-8.068h-97.77v8.068zM2942.74 826.631h97.77v-8.068h-97.77v8.068zM2942.74 812.718h97.77v-8.068h-97.77v8.068z" fill="#DEECB6"/><path fill-rule="evenodd" clip-rule="evenodd" d="M2949.33 826.631h14.4v-8.068h-14.4v8.068z" fill="#CFDCB3"/><path fill-rule="evenodd" clip-rule="evenodd" d="M1708 899h-23v-60h23v60z" fill="#DEECB6"/><path fill-rule="evenodd" clip-rule="evenodd" d="M1944.67 791.385h-4.87v-8.688h4.87v8.688zM1944.67 774.009h-4.87v-8.689h4.87v8.689z" fill="#CFDCB3"/><path fill-rule="evenodd" clip-rule="evenodd" d="M1949.46 896.546h-41.9V673.06h41.9v223.486z" fill="#BEC8A2"/><path fill-rule="evenodd" clip-rule="evenodd" d="M1907.56 896.546H1881V673.06h26.56v223.486z" fill="#DEECB6"/><path fill-rule="evenodd" clip-rule="evenodd" d="M1949.46 667.906h-41.9v-10.219h41.9v10.219z" fill="#BEC8A2"/><path fill-rule="evenodd" clip-rule="evenodd" d="M1941.87 663.836h-16.91v-10.218h16.91v10.218zM1903.47 663.836h-16.9v-10.218h16.9v10.218z" fill="#BEC8A2"/><path fill-rule="evenodd" clip-rule="evenodd" d="M1907.56 667.906H1881v-10.219h26.56v10.219z" fill="#DEECB6"/><path fill-rule="evenodd" clip-rule="evenodd" d="M1953.33 673.06h-46.63v-5.154h46.63v5.154z" fill="#BEC8A2"/><path fill-rule="evenodd" clip-rule="evenodd" d="M1906.7 673.06h-29.56v-5.154h29.56v5.154zM1944.67 896.546h-4.87V678.124h4.87v218.422zM1917.47 896.546h-4.87V678.124h4.87v218.422zM1926.54 896.546h-4.87V678.124h4.87v218.422zM1935.6 896.546h-4.86V678.124h4.86v218.422z" fill="#F1FFBA"/><path fill-rule="evenodd" clip-rule="evenodd" d="M1935.6 782.697h-4.86v-8.688h4.86v8.688zM1926.54 862.734h-4.87v-8.688h4.87v8.688zM1926.54 854.046h-4.87v-8.689h4.87v8.689z" fill="#CFDCB3"/><path fill-rule="evenodd" clip-rule="evenodd" d="M1917.47 827.958h-4.87v-8.688h4.87v8.688zM1944.67 836.775h-4.87v-8.689h4.87v8.689zM1917.47 756.16h-4.87v-8.688h4.87v8.688zM1944.67 742.506h-4.87v-8.688h4.87v8.688zM1926.54 836.669h-4.87v-8.688h4.87v8.688z" fill="#DEECB6"/><path fill-rule="evenodd" clip-rule="evenodd" d="M1944.67 872.719h-4.87v-8.689h4.87v8.689zM1926.54 774.009h-4.87v-8.689h4.87v8.689zM1944.67 800.074h-4.87v-8.689h4.87v8.689zM1917.47 723.521h-4.87v-8.688h4.87v8.688zM1944.67 710.017h-4.87v-8.688h4.87v8.688zM1944.67 718.706h-4.87v-8.689h4.87v8.689zM1926.54 765.32h-4.87v-8.689h4.87v8.689z" fill="#CFDCB3"/><path fill-rule="evenodd" clip-rule="evenodd" d="M1876 900h-28v-91h28v91z" fill="#F1FFBA"/><path fill-rule="evenodd" clip-rule="evenodd" d="M1892 841h-28v-90h28v90z" fill="#F1FFBA"/><path fill-rule="evenodd" clip-rule="evenodd" d="M1793 749.151V902h59V706l-23.17 16.95v24.92h-20.13v-10.202l-15.7 11.483z" fill="#DEECB6"/><path d="M1832.19 782.603v16.682" stroke="#F1FFBA" stroke-width="5.6"/><path fill-rule="evenodd" clip-rule="evenodd" d="M1891.84 900.438h-42.41V792.92h42.41v107.518z" fill="#BEC8A2"/><path fill-rule="evenodd" clip-rule="evenodd" d="M1849.43 900.438h-26.89V792.92h26.89v107.518z" fill="#F1FFBA"/><path fill-rule="evenodd" clip-rule="evenodd" d="M1891.84 806.85h-10.09v-5.004h10.09v5.004zM1881.75 811.804h-10.08V806.8h10.08v5.004zM1871.67 806.85h-10.08v-5.004h10.08v5.004z" fill="#DEECB6"/><path fill-rule="evenodd" clip-rule="evenodd" d="M1891.84 811.804h-10.09V806.8h10.09v5.004zM1881.75 845.581h-10.08v-5.004h10.08v5.004zM1845.97 811.804h-7.81V806.8h7.81v5.004zM1861.59 870.824h-10.08v-5.005h10.08v5.005z" fill="#CFDCB3"/><path fill-rule="evenodd" clip-rule="evenodd" d="M1861.59 816.808h-10.08v-5.004h10.08v5.004zM1881.75 840.577h-10.08v-5.004h10.08v5.004zM1861.59 845.581h-10.08v-5.004h10.08v5.004zM1845.97 806.85h-7.81v-5.004h7.81v5.004zM1830.35 811.854h-7.81v-5.004h7.81v5.004zM1845.97 831.17h-7.81v-5.004h7.81v5.004zM1871.67 870.824h-10.08v-5.005h10.08v5.005zM1891.84 883.66h-10.09v-5.004h10.09v5.004zM1891.84 816.808h-10.09v-5.004h10.09v5.004zM1742.22 896.731h-37.71v-46.807h37.71v46.807z" fill="#DEECB6"/><path fill-rule="evenodd" clip-rule="evenodd" d="M1726.84 899.201h-5.25v-43.956h5.25v43.956zM1716.94 899.201h-5.25v-43.956h5.25v43.956z" fill="#BEC8A2"/><path d="M1747.07 778.404v23.699" stroke="#F1FFBA" stroke-width="5.6"/><path fill-rule="evenodd" clip-rule="evenodd" d="M1793.15 901.004h-38.69V792.411h38.69v108.593z" fill="#F1FFBA"/><path fill-rule="evenodd" clip-rule="evenodd" d="M1788.11 897.96h-6.05v-98.678h6.05v98.678zM1776.83 897.96h-6.05v-98.678h6.05v98.678zM1765.56 897.96h-6.06v-98.678h6.06v98.678zM1754.46 901.004h-24.52V792.411h24.52v108.593z" fill="#DEECB6"/><path fill-rule="evenodd" clip-rule="evenodd" d="M1749.7 897.96h-5.26v-98.678h5.26v98.678zM1739.64 897.96h-5.25v-98.678h5.25v98.678z" fill="#BEC8A2"/><path fill-rule="evenodd" clip-rule="evenodd" d="M1739.64 852.87h-5.25v-9.141h5.25v9.141zM1739.64 826.111h-5.25v-9.14h5.25v9.14zM1749.7 826.111h-5.26v-9.14h5.26v9.14zM1749.69 835.252h-5.25v-9.141h5.25v9.141zM1726.84 878.699h-5.25v-9.141h5.25v9.141zM1716.94 887.838h-5.25v-9.14h5.25v9.14zM1749.69 862.01h-5.25v-9.14h5.25v9.14zM1739.64 862.01h-5.25v-9.14h5.25v9.14z" fill="#F1FFBA"/><path fill-rule="evenodd" clip-rule="evenodd" d="M1684.25 899.988h-28.12v-39.706h28.12v39.706z" fill="#BEC8A2"/><path fill-rule="evenodd" clip-rule="evenodd" d="M1715.67 899.988h-31.42v-39.706h31.42v39.706z" fill="#CFDCB3"/><path fill-rule="evenodd" clip-rule="evenodd" d="M1681.81 864.58h-31.15v-7.954h31.15v7.954z" fill="#F1FFBA"/><path fill-rule="evenodd" clip-rule="evenodd" d="M1715.67 866.552h-59.54v-1.972h59.54v1.972z" fill="#DEECB6"/><path fill-rule="evenodd" clip-rule="evenodd" d="M1715.67 870.112h-59.54v-1.972h59.54v1.972z" fill="#F1FFBA"/><path fill-rule="evenodd" clip-rule="evenodd" d="M1721.46 864.58h-39.65v-7.954h39.65v7.954z" fill="#BEC8A2"/><path fill-rule="evenodd" clip-rule="evenodd" d="M1681.81 886.838h-31.15v-13.43h31.15v13.43z" fill="#F1FFBA"/><path fill-rule="evenodd" clip-rule="evenodd" d="M1721.46 886.838h-39.65v-13.43h39.65v13.43zM1660.52 897.902h-38.26v-52.606h38.26v52.606z" fill="#BEC8A2"/><path fill-rule="evenodd" clip-rule="evenodd" d="M1622.26 897.902H1598v-52.606h24.26v52.606z" fill="#F1FFBA"/><path fill-rule="evenodd" clip-rule="evenodd" d="M1660.52 883.277h-54.99v-4.537h54.99v4.537zM1660.52 875.453h-54.99v-4.537h54.99v4.537zM1660.52 867.629h-54.99v-4.538h54.99v4.538zM1660.52 859.804h-54.99v-4.537h54.99v4.537zM1660.52 851.98h-54.99v-4.537h54.99v4.537z" fill="#DEECB6"/><path fill-rule="evenodd" clip-rule="evenodd" d="M1636.95 883.277h-8.1v-4.537h8.1v4.537zM1637.07 867.629h-8.09v-4.538h8.09v4.538zM1656.81 859.804h-8.1v-4.537h8.1v4.537zM1648.71 859.804h-8.09v-4.537h8.09v4.537z" fill="#CFDCB3"/><path fill-rule="evenodd" clip-rule="evenodd" d="M1966 900h28v-91h-28v91z" fill="#F1FFBA"/><path fill-rule="evenodd" clip-rule="evenodd" d="M1949 841h28v-90h-28v90z" fill="#F1FFBA"/><path fill-rule="evenodd" clip-rule="evenodd" d="M2048 749.151V902h-59V706l23.17 16.95v24.92h20.13v-10.202l15.7 11.483z" fill="#DEECB6"/><path d="M2009.2 782.603v16.682" stroke="#F1FFBA" stroke-width="5.6"/><path fill-rule="evenodd" clip-rule="evenodd" d="M1949.56 900.438h42.41V792.92h-42.41v107.518z" fill="#BEC8A2"/><path fill-rule="evenodd" clip-rule="evenodd" d="M1991.97 900.438h26.88V792.92h-26.88v107.518z" fill="#F1FFBA"/><path fill-rule="evenodd" clip-rule="evenodd" d="M1949.56 806.85h10.08v-5.004h-10.08v5.004zM1959.64 811.804h10.08V806.8h-10.08v5.004zM1969.72 806.85h10.08v-5.004h-10.08v5.004z" fill="#DEECB6"/><path fill-rule="evenodd" clip-rule="evenodd" d="M1949.56 811.804h10.08V806.8h-10.08v5.004zM1959.64 845.581h10.08v-5.004h-10.08v5.004zM1995.42 811.804h7.81V806.8h-7.81v5.004zM1979.8 870.824h10.08v-5.005h-10.08v5.005z" fill="#CFDCB3"/><path fill-rule="evenodd" clip-rule="evenodd" d="M1979.8 816.808h10.08v-5.004h-10.08v5.004zM1959.64 840.577h10.08v-5.004h-10.08v5.004zM1979.8 845.581h10.08v-5.004h-10.08v5.004zM1995.42 806.85h7.81v-5.004h-7.81v5.004zM2011.04 811.854h7.81v-5.004h-7.81v5.004zM1995.42 831.17h7.81v-5.004h-7.81v5.004zM1969.72 870.824h10.08v-5.005h-10.08v5.005zM1949.56 883.66h10.08v-5.004h-10.08v5.004zM1949.56 816.808h10.08v-5.004h-10.08v5.004z" fill="#DEECB6"/><path fill-rule="evenodd" clip-rule="evenodd" d="M2020.96 900.217h-50.01v-70.604h50.01v70.604z" fill="#BEC8A2"/><path fill-rule="evenodd" clip-rule="evenodd" d="M2076.83 900.217h-55.87v-70.604h55.87v70.604z" fill="#CFDCB3"/><path fill-rule="evenodd" clip-rule="evenodd" d="M2016.61 837.257h-55.38v-14.144h55.38v14.144z" fill="#F1FFBA"/><path fill-rule="evenodd" clip-rule="evenodd" d="M2076.83 840.763h-105.88v-3.506h105.88v3.506z" fill="#DEECB6"/><path fill-rule="evenodd" clip-rule="evenodd" d="M2076.83 847.093h-105.88v-3.506h105.88v3.506z" fill="#F1FFBA"/><path fill-rule="evenodd" clip-rule="evenodd" d="M2076.83 880.339h-105.88v-3.505h105.88v3.505z" fill="#DEECB6"/><path fill-rule="evenodd" clip-rule="evenodd" d="M2087.11 837.257h-70.5v-14.144h70.5v14.144z" fill="#BEC8A2"/><path fill-rule="evenodd" clip-rule="evenodd" d="M2016.61 876.833h-55.38v-23.88h55.38v23.88z" fill="#F1FFBA"/><path fill-rule="evenodd" clip-rule="evenodd" d="M2087.11 876.833h-70.5v-23.88h70.5v23.88zM1978.76 896.507h-68.04v-93.541h68.04v93.541z" fill="#BEC8A2"/><path fill-rule="evenodd" clip-rule="evenodd" d="M1910.72 896.507h-43.13v-93.541h43.13v93.541z" fill="#F1FFBA"/><path fill-rule="evenodd" clip-rule="evenodd" d="M1978.76 884.416h-97.78v-8.068h97.78v8.068zM1978.76 870.503h-97.78v-8.068h97.78v8.068zM1978.76 856.59h-97.78v-8.068h97.78v8.068zM1978.76 842.677h-97.78v-8.068h97.78v8.068zM1978.76 828.764h-97.78v-8.067h97.78v8.067zM1978.76 814.852h-97.78v-8.068h97.78v8.068z" fill="#DEECB6"/><path fill-rule="evenodd" clip-rule="evenodd" d="M1936.85 884.416h-14.4v-8.068h14.4v8.068zM1936.85 870.503h-14.4v-8.068h14.4v8.068zM1951.25 884.416h-14.4v-8.068h14.4v8.068zM1937.07 842.677h-14.4v-8.068h14.4v8.068zM1972.16 828.764h-14.4v-8.067h14.4v8.067zM1957.76 828.764h-14.39v-8.067h14.39v8.067z" fill="#CFDCB3"/><path fill-rule="evenodd" clip-rule="evenodd" d="M2103 895h-41V790h41v105z" fill="#9FB563"/><path fill-rule="evenodd" clip-rule="evenodd" d="M2401 898h-51V736h51v162z" fill="#D8E79F"/><path fill-rule="evenodd" clip-rule="evenodd" d="M2429 794h-50V633h50v161z" fill="#D8E79F"/><path fill-rule="evenodd" clip-rule="evenodd" d="M2253 629.835V902h105V553l-41.24 30.181v44.374h-35.82v-18.167L2253 629.835z" fill="#9FB563"/><path d="M2322.73 689.355v29.663" stroke="#D8E79F" stroke-width="5.6"/><path fill-rule="evenodd" clip-rule="evenodd" d="M2428.78 898.883h-75.41V707.699h75.41v191.184z" fill="#CCD3B8"/><path fill-rule="evenodd" clip-rule="evenodd" d="M2353.37 898.883h-47.8V707.699h47.8v191.184z" fill="#D8E79F"/><path fill-rule="evenodd" clip-rule="evenodd" d="M2428.78 732.47h-17.93v-8.898h17.93v8.898zM2410.85 741.279h-17.92v-8.898h17.92v8.898zM2392.93 732.47H2375v-8.898h17.93v8.898z" fill="#9FB563"/><path fill-rule="evenodd" clip-rule="evenodd" d="M2428.78 741.279h-17.93v-8.898h17.93v8.898zM2410.85 801.34h-17.92v-8.899h17.92v8.899zM2347.23 741.279h-13.89v-8.898h13.89v8.898zM2375 846.225h-17.92v-8.899H2375v8.899z" fill="#C6E08E"/><path fill-rule="evenodd" clip-rule="evenodd" d="M2375 750.177h-17.92v-8.898H2375v8.898zM2410.85 792.441h-17.92v-8.898h17.92v8.898zM2375 801.34h-17.92v-8.899H2375v8.899zM2347.22 732.47h-13.88v-8.898h13.88v8.898zM2319.45 741.368h-13.88v-8.898h13.88v8.898zM2347.23 775.715h-13.89v-8.898h13.89v8.898zM2392.93 846.225H2375v-8.899h17.93v8.899zM2428.78 869.05h-17.93v-8.899h17.93v8.899zM2410.85 877.948h-17.92v-8.898h17.92v8.898zM2428.78 750.177h-17.93v-8.898h17.93v8.898zM2162.75 892.292h-67.07v-83.23h67.07v83.23z" fill="#9FB563"/><path fill-rule="evenodd" clip-rule="evenodd" d="M2135.4 896.685h-9.34v-78.161h9.34v78.161zM2117.8 896.685h-9.34v-78.161h9.34v78.161z" fill="#CCD3B8"/><path d="M2171.36 681.887v42.141" stroke="#D8E79F" stroke-width="5.6"/><path fill-rule="evenodd" clip-rule="evenodd" d="M2253.3 899.889h-68.79V706.796h68.79v193.093z" fill="#D8E79F"/><path fill-rule="evenodd" clip-rule="evenodd" d="M2244.34 894.477h-10.77V719.013h10.77v175.464zM2224.29 894.477h-10.77V719.013h10.77v175.464zM2204.24 894.477h-10.77V719.013h10.77v175.464zM2184.51 899.889h-43.6V706.796h43.6v193.093z" fill="#9FB563"/><path fill-rule="evenodd" clip-rule="evenodd" d="M2176.04 894.477h-9.34V719.013h9.34v175.464zM2158.16 894.477h-9.34V719.013h9.34v175.464z" fill="#CCD3B8"/><path fill-rule="evenodd" clip-rule="evenodd" d="M2158.16 814.3h-9.34v-16.253h9.34V814.3zM2158.16 766.719h-9.34v-16.253h9.34v16.253zM2176.04 766.719h-9.34v-16.253h9.34v16.253z" fill="#D8E79F"/><path fill-rule="evenodd" clip-rule="evenodd" d="M2176.03 782.972h-9.34v-16.253h9.34v16.253zM2135.4 860.227h-9.34v-16.253h9.34v16.253zM2117.8 876.48h-9.34v-16.253h9.34v16.253zM2176.03 830.552h-9.34V814.3h9.34v16.252zM2158.16 830.552h-9.34V814.3h9.34v16.252z" fill="#D8E79F"/><path fill-rule="evenodd" clip-rule="evenodd" d="M2059.67 898.084h-50.01V827.48h50.01v70.604z" fill="#CCD3B8"/><path fill-rule="evenodd" clip-rule="evenodd" d="M2115.54 898.084h-55.87V827.48h55.87v70.604z" fill="#C6E08E"/><path fill-rule="evenodd" clip-rule="evenodd" d="M2055.32 835.123h-55.38v-14.144h55.38v14.144z" fill="#D8E79F"/><path fill-rule="evenodd" clip-rule="evenodd" d="M2115.54 838.629h-105.88v-3.506h105.88v3.506z" fill="#9FB563"/><path fill-rule="evenodd" clip-rule="evenodd" d="M2115.54 844.959h-105.88v-3.506h105.88v3.506z" fill="#D8E79F"/><path fill-rule="evenodd" clip-rule="evenodd" d="M2115.54 878.206h-105.88V874.7h105.88v3.506z" fill="#9FB563"/><path fill-rule="evenodd" clip-rule="evenodd" d="M2125.82 835.123h-70.5v-14.144h70.5v14.144z" fill="#CCD3B8"/><path fill-rule="evenodd" clip-rule="evenodd" d="M2055.32 874.7h-55.38v-23.88h55.38v23.88z" fill="#D8E79F"/><path fill-rule="evenodd" clip-rule="evenodd" d="M2125.82 874.7h-70.5v-23.88h70.5v23.88z" fill="#CCD3B8"/><path fill-rule="evenodd" clip-rule="evenodd" d="M2797.45 892.292h67.07v-83.23h-67.07v83.23z" fill="#9FB563"/><path fill-rule="evenodd" clip-rule="evenodd" d="M2824.81 896.685h9.34v-78.161h-9.34v78.161zM2842.4 896.685h9.35v-78.161h-9.35v78.161z" fill="#CCD3B8"/><path d="M2788.84 681.887v42.141" stroke="#D8E79F" stroke-width="5.6"/><path fill-rule="evenodd" clip-rule="evenodd" d="M2706.9 899.889h68.79V706.796h-68.79v193.093z" fill="#D8E79F"/><path fill-rule="evenodd" clip-rule="evenodd" d="M2715.86 894.477h10.77V719.013h-10.77v175.464zM2735.91 894.477h10.77V719.013h-10.77v175.464zM2755.96 894.477h10.77V719.013h-10.77v175.464zM2775.69 899.889h43.6V706.796h-43.6v193.093z" fill="#9FB563"/><path fill-rule="evenodd" clip-rule="evenodd" d="M2784.17 894.477h9.34V719.013h-9.34v175.464zM2802.04 894.477h9.35V719.013h-9.35v175.464z" fill="#CCD3B8"/><path fill-rule="evenodd" clip-rule="evenodd" d="M2802.04 814.3h9.35v-16.253h-9.35V814.3zM2802.04 766.719h9.35v-16.253h-9.35v16.253zM2784.17 766.719h9.34v-16.253h-9.34v16.253z" fill="#D8E79F"/><path fill-rule="evenodd" clip-rule="evenodd" d="M2784.17 782.972h9.34v-16.253h-9.34v16.253zM2824.81 860.227h9.34v-16.253h-9.34v16.253zM2842.4 876.48h9.35v-16.253h-9.35v16.253zM2784.17 830.552h9.34V814.3h-9.34v16.252zM2802.04 830.552h9.35V814.3h-9.35v16.252z" fill="#D8E79F"/><path fill-rule="evenodd" clip-rule="evenodd" d="M2253.12 785.518h4.86v-8.688h-4.86v8.688zM2253.12 768.141h4.86v-8.688h-4.86v8.688z" fill="#CFDCB3"/><path fill-rule="evenodd" clip-rule="evenodd" d="M2248.33 890.679h41.89V667.193h-41.89v223.486z" fill="#BEC8A2"/><path fill-rule="evenodd" clip-rule="evenodd" d="M2290.22 890.679h26.56V667.193h-26.56v223.486z" fill="#DEECB6"/><path fill-rule="evenodd" clip-rule="evenodd" d="M2248.33 662.038h41.89V651.82h-41.89v10.218z" fill="#BEC8A2"/><path fill-rule="evenodd" clip-rule="evenodd" d="M2255.92 657.969h16.91v-10.218h-16.91v10.218zM2294.32 657.969h16.9v-10.218h-16.9v10.218z" fill="#BEC8A2"/><path fill-rule="evenodd" clip-rule="evenodd" d="M2290.22 662.038h26.56V651.82h-26.56v10.218z" fill="#DEECB6"/><path fill-rule="evenodd" clip-rule="evenodd" d="M2244.46 667.192h46.63v-5.154h-46.63v5.154z" fill="#BEC8A2"/><path fill-rule="evenodd" clip-rule="evenodd" d="M2291.09 667.192h29.56v-5.154h-29.56v5.154zM2253.12 890.679h4.86V672.257h-4.86v218.422zM2280.32 890.679h4.87V672.257h-4.87v218.422zM2271.25 890.679h4.87V672.257h-4.87v218.422zM2262.18 890.679h4.87V672.257h-4.87v218.422z" fill="#F1FFBA"/><path fill-rule="evenodd" clip-rule="evenodd" d="M2262.18 776.83h4.87v-8.689h-4.87v8.689zM2271.25 856.867h4.87v-8.688h-4.87v8.688zM2271.25 848.179h4.87v-8.689h-4.87v8.689z" fill="#CFDCB3"/><path fill-rule="evenodd" clip-rule="evenodd" d="M2280.32 822.091h4.87v-8.688h-4.87v8.688zM2253.12 830.907h4.86v-8.688h-4.86v8.688zM2280.32 750.293h4.87v-8.688h-4.87v8.688zM2253.12 736.639h4.86v-8.688h-4.86v8.688zM2271.25 830.802h4.87v-8.688h-4.87v8.688z" fill="#DEECB6"/><path fill-rule="evenodd" clip-rule="evenodd" d="M2253.12 866.852h4.86v-8.689h-4.86v8.689zM2271.25 768.141h4.87v-8.688h-4.87v8.688zM2253.12 794.206h4.86v-8.688h-4.86v8.688zM2280.32 717.654h4.87v-8.689h-4.87v8.689zM2253.12 704.15h4.86v-8.688h-4.86v8.688zM2253.12 712.838h4.86v-8.688h-4.86v8.688zM2271.25 759.453h4.87v-8.689h-4.87v8.689zM2647.29 786.051h4.87v-8.688h-4.87v8.688zM2647.29 768.675h4.87v-8.689h-4.87v8.689z" fill="#CFDCB3"/><path fill-rule="evenodd" clip-rule="evenodd" d="M2642.5 891.212h41.9V667.726h-41.9v223.486z" fill="#BEC8A2"/><path fill-rule="evenodd" clip-rule="evenodd" d="M2684.4 891.212h26.56V667.726h-26.56v223.486z" fill="#DEECB6"/><path fill-rule="evenodd" clip-rule="evenodd" d="M2642.5 662.572h41.9v-10.218h-41.9v10.218z" fill="#BEC8A2"/><path fill-rule="evenodd" clip-rule="evenodd" d="M2650.09 658.503H2667v-10.219h-16.91v10.219zM2688.49 658.503h16.9v-10.219h-16.9v10.219z" fill="#BEC8A2"/><path fill-rule="evenodd" clip-rule="evenodd" d="M2684.4 662.572h26.56v-10.218h-26.56v10.218z" fill="#DEECB6"/><path fill-rule="evenodd" clip-rule="evenodd" d="M2638.63 667.726h46.63v-5.154h-46.63v5.154z" fill="#BEC8A2"/><path fill-rule="evenodd" clip-rule="evenodd" d="M2685.26 667.726h29.56v-5.154h-29.56v5.154zM2647.29 891.212h4.87V672.79h-4.87v218.422zM2674.49 891.212h4.87V672.79h-4.87v218.422zM2665.42 891.212h4.87V672.79h-4.87v218.422zM2656.35 891.212h4.87V672.79h-4.87v218.422z" fill="#F1FFBA"/><path fill-rule="evenodd" clip-rule="evenodd" d="M2656.35 777.363h4.87v-8.688h-4.87v8.688zM2665.42 857.4h4.87v-8.688h-4.87v8.688zM2665.42 848.712h4.87v-8.688h-4.87v8.688z" fill="#CFDCB3"/><path fill-rule="evenodd" clip-rule="evenodd" d="M2674.49 822.624h4.87v-8.688h-4.87v8.688zM2647.29 831.441h4.87v-8.688h-4.87v8.688zM2674.49 750.827h4.87v-8.689h-4.87v8.689zM2647.29 737.172h4.87v-8.688h-4.87v8.688zM2665.42 831.335h4.87v-8.688h-4.87v8.688z" fill="#DEECB6"/><path fill-rule="evenodd" clip-rule="evenodd" d="M2647.29 867.385h4.87v-8.688h-4.87v8.688zM2665.42 768.675h4.87v-8.689h-4.87v8.689zM2647.29 794.74h4.87v-8.688h-4.87v8.688zM2674.49 718.187h4.87v-8.688h-4.87v8.688zM2647.29 704.684h4.87v-8.689h-4.87v8.689zM2647.29 713.372h4.87v-8.688h-4.87v8.688zM2665.42 759.986h4.87v-8.688h-4.87v8.688z" fill="#CFDCB3"/><path fill-rule="evenodd" clip-rule="evenodd" d="M1244 887h23v-59h-23v59z" fill="#DEECB6"/><path fill-rule="evenodd" clip-rule="evenodd" d="M1007.82 780.252h4.87v-8.689h-4.87v8.689zM1007.82 762.875h4.87v-8.688h-4.87v8.688z" fill="#CFDCB3"/><path fill-rule="evenodd" clip-rule="evenodd" d="M1003.03 885.412h41.9V661.926h-41.9v223.486z" fill="#BEC8A2"/><path fill-rule="evenodd" clip-rule="evenodd" d="M1044.93 885.412h26.56V661.926h-26.56v223.486z" fill="#DEECB6"/><path fill-rule="evenodd" clip-rule="evenodd" d="M1003.03 656.772h41.9v-10.218h-41.9v10.218z" fill="#BEC8A2"/><path fill-rule="evenodd" clip-rule="evenodd" d="M1010.63 652.703h16.9v-10.218h-16.9v10.218zM1049.02 652.703h16.91v-10.218h-16.91v10.218z" fill="#BEC8A2"/><path fill-rule="evenodd" clip-rule="evenodd" d="M1044.93 656.772h26.56v-10.218h-26.56v10.218z" fill="#DEECB6"/><path fill-rule="evenodd" clip-rule="evenodd" d="M999.167 661.926h46.633v-5.154h-46.633v5.154z" fill="#BEC8A2"/><path fill-rule="evenodd" clip-rule="evenodd" d="M1045.8 661.926h29.56v-5.154h-29.56v5.154zM1007.82 885.412h4.87V666.99h-4.87v218.422zM1035.03 885.412h4.86V666.99h-4.86v218.422zM1025.96 885.412h4.87V666.99h-4.87v218.422zM1016.89 885.412h4.87V666.99h-4.87v218.422z" fill="#F1FFBA"/><path fill-rule="evenodd" clip-rule="evenodd" d="M1016.89 771.563h4.87v-8.688h-4.87v8.688zM1025.96 851.601h4.87v-8.689h-4.87v8.689zM1025.96 842.912h4.87v-8.688h-4.87v8.688z" fill="#CFDCB3"/><path fill-rule="evenodd" clip-rule="evenodd" d="M1035.03 816.825h4.86v-8.689h-4.86v8.689zM1007.82 825.641h4.87v-8.688h-4.87v8.688zM1035.03 745.027h4.86v-8.688h-4.86v8.688zM1007.82 731.373h4.87v-8.689h-4.87v8.689zM1025.96 825.536h4.87v-8.689h-4.87v8.689z" fill="#DEECB6"/><path fill-rule="evenodd" clip-rule="evenodd" d="M1007.82 861.585h4.87v-8.688h-4.87v8.688zM1025.96 762.875h4.87v-8.688h-4.87v8.688zM1007.82 788.94h4.87v-8.688h-4.87v8.688zM1035.03 712.387h4.86v-8.688h-4.86v8.688zM1007.82 698.884h4.87v-8.689h-4.87v8.689zM1007.82 707.572h4.87v-8.688h-4.87v8.688zM1025.96 754.186h4.87v-8.688h-4.87v8.688z" fill="#CFDCB3"/><path fill-rule="evenodd" clip-rule="evenodd" d="M1077 889h28v-91h-28v91z" fill="#F1FFBA"/><path fill-rule="evenodd" clip-rule="evenodd" d="M1061 830h27v-90h-27v90z" fill="#F1FFBA"/><path fill-rule="evenodd" clip-rule="evenodd" d="M1159 738.151V891h-59V695l23.17 16.95v24.92h20.13v-10.202l15.7 11.483z" fill="#DEECB6"/><path d="M1120.3 771.469v16.682" stroke="#F1FFBA" stroke-width="5.6"/><path fill-rule="evenodd" clip-rule="evenodd" d="M1060.66 889.304h42.41V781.786h-42.41v107.518z" fill="#BEC8A2"/><path fill-rule="evenodd" clip-rule="evenodd" d="M1103.07 889.304h26.88V781.786h-26.88v107.518z" fill="#F1FFBA"/><path fill-rule="evenodd" clip-rule="evenodd" d="M1060.66 795.717h10.08v-5.005h-10.08v5.005zM1070.74 800.67h10.08v-5.004h-10.08v5.004zM1080.82 795.717h10.08v-5.005h-10.08v5.005z" fill="#DEECB6"/><path fill-rule="evenodd" clip-rule="evenodd" d="M1060.66 800.67h10.08v-5.004h-10.08v5.004zM1070.74 834.447h10.08v-5.004h-10.08v5.004zM1106.52 800.67h7.81v-5.004h-7.81v5.004zM1090.9 859.69h10.09v-5.004h-10.09v5.004z" fill="#CFDCB3"/><path fill-rule="evenodd" clip-rule="evenodd" d="M1090.9 805.675h10.09v-5.004h-10.09v5.004zM1070.74 829.443h10.08v-5.004h-10.08v5.004zM1090.9 834.447h10.09v-5.004h-10.09v5.004zM1106.53 795.717h7.8v-5.005h-7.8v5.005zM1122.14 800.721h7.81v-5.004h-7.81v5.004zM1106.52 820.037h7.81v-5.004h-7.81v5.004zM1080.82 859.69h10.08v-5.004h-10.08v5.004zM1060.66 872.526h10.08v-5.004h-10.08v5.004zM1070.74 877.531h10.08v-5.005h-10.08v5.005zM1060.66 805.675h10.08v-5.004h-10.08v5.004zM1210.27 885.598h37.72v-46.807h-37.72v46.807z" fill="#DEECB6"/><path fill-rule="evenodd" clip-rule="evenodd" d="M1225.65 888.068h5.26v-43.956h-5.26v43.956zM1235.55 888.068h5.25v-43.956h-5.25v43.956z" fill="#BEC8A2"/><path d="M1205.43 767.27v23.699" stroke="#F1FFBA" stroke-width="5.6"/><path fill-rule="evenodd" clip-rule="evenodd" d="M1159.35 889.87h38.68V781.278h-38.68V889.87z" fill="#F1FFBA"/><path fill-rule="evenodd" clip-rule="evenodd" d="M1164.39 886.826h6.05v-98.677h-6.05v98.677zM1175.66 886.826h6.06v-98.677h-6.06v98.677zM1186.94 886.826h6.05v-98.677h-6.05v98.677zM1198.03 889.87h24.52V781.278h-24.52V889.87z" fill="#DEECB6"/><path fill-rule="evenodd" clip-rule="evenodd" d="M1202.8 886.826h5.25v-98.677h-5.25v98.677zM1212.85 886.826h5.26v-98.677h-5.26v98.677z" fill="#BEC8A2"/><path fill-rule="evenodd" clip-rule="evenodd" d="M1212.85 841.736h5.26v-9.14h-5.26v9.14zM1212.85 814.978h5.26v-9.141h-5.26v9.141zM1202.8 814.978h5.25v-9.141h-5.25v9.141zM1202.8 824.118h5.26v-9.14h-5.26v9.14zM1225.65 867.565h5.26v-9.14h-5.26v9.14zM1235.55 876.705h5.25v-9.14h-5.25v9.14zM1202.8 850.876h5.26v-9.14h-5.26v9.14zM1212.85 850.876h5.26v-9.14h-5.26v9.14z" fill="#F1FFBA"/><path fill-rule="evenodd" clip-rule="evenodd" d="M1268.24 888.854h28.13v-39.706h-28.13v39.706z" fill="#BEC8A2"/><path fill-rule="evenodd" clip-rule="evenodd" d="M1236.82 888.854h31.42v-39.706h-31.42v39.706z" fill="#CFDCB3"/><path fill-rule="evenodd" clip-rule="evenodd" d="M1270.69 853.447h31.14v-7.955h-31.14v7.955z" fill="#F1FFBA"/><path fill-rule="evenodd" clip-rule="evenodd" d="M1236.82 855.418h59.55v-1.971h-59.55v1.971z" fill="#DEECB6"/><path fill-rule="evenodd" clip-rule="evenodd" d="M1236.82 858.978h59.55v-1.971h-59.55v1.971z" fill="#F1FFBA"/><path fill-rule="evenodd" clip-rule="evenodd" d="M1236.82 877.675h59.55v-1.971h-59.55v1.971z" fill="#DEECB6"/><path fill-rule="evenodd" clip-rule="evenodd" d="M1236.82 881.235h59.55v-1.972h-59.55v1.972z" fill="#F1FFBA"/><path fill-rule="evenodd" clip-rule="evenodd" d="M1231.04 853.447h39.65v-7.955h-39.65v7.955z" fill="#BEC8A2"/><path fill-rule="evenodd" clip-rule="evenodd" d="M1270.69 875.704h31.14v-13.43h-31.14v13.43z" fill="#F1FFBA"/><path fill-rule="evenodd" clip-rule="evenodd" d="M1231.04 875.704h39.65v-13.43h-39.65v13.43zM1291.98 886.768h38.26v-52.606h-38.26v52.606z" fill="#BEC8A2"/><path fill-rule="evenodd" clip-rule="evenodd" d="M1330.24 886.768h24.26v-52.606h-24.26v52.606z" fill="#F1FFBA"/><path fill-rule="evenodd" clip-rule="evenodd" d="M1291.98 879.968h54.98v-4.537h-54.98v4.537zM1291.98 872.144h54.98v-4.538h-54.98v4.538zM1291.98 864.32h54.98v-4.538h-54.98v4.538zM1291.98 856.495h54.98v-4.537h-54.98v4.537zM1291.98 848.671h54.98v-4.537h-54.98v4.537zM1291.98 840.847h54.98v-4.538h-54.98v4.538z" fill="#DEECB6"/><path fill-rule="evenodd" clip-rule="evenodd" d="M1315.54 879.968h8.1v-4.537h-8.1v4.537zM1315.54 872.144h8.1v-4.537h-8.1v4.537zM1307.45 879.968h8.09v-4.537h-8.09v4.537zM1315.42 856.495h8.1v-4.537h-8.1v4.537zM1295.69 848.671h8.09v-4.537h-8.09v4.537zM1303.78 848.671h8.1v-4.537h-8.1v4.537z" fill="#CFDCB3"/><path fill-rule="evenodd" clip-rule="evenodd" d="M820 887h-23v-59h23v59z" fill="#9FB563"/><path fill-rule="evenodd" clip-rule="evenodd" d="M987 889h-28v-91h28v91z" fill="#F1FFBA"/><path fill-rule="evenodd" clip-rule="evenodd" d="M1003 830h-28v-90h28v90z" fill="#F1FFBA"/><path fill-rule="evenodd" clip-rule="evenodd" d="M904 738.151V891h60V695l-23.568 16.95v24.92h-20.465v-10.202L904 738.151z" fill="#DEECB6"/><path d="M943.297 771.469v16.682" stroke="#F1FFBA" stroke-width="5.6"/><path fill-rule="evenodd" clip-rule="evenodd" d="M1002.94 889.304h-42.411V781.786h42.411v107.518z" fill="#BEC8A2"/><path fill-rule="evenodd" clip-rule="evenodd" d="M960.529 889.304h-26.884V781.786h26.884v107.518z" fill="#F1FFBA"/><path fill-rule="evenodd" clip-rule="evenodd" d="M1002.94 795.717h-10.085v-5.005h10.085v5.005zM992.855 800.67h-10.081v-5.004h10.081v5.004zM982.774 795.717h-10.081v-5.005h10.081v5.005z" fill="#DEECB6"/><path fill-rule="evenodd" clip-rule="evenodd" d="M1002.94 800.67h-10.085v-5.004h10.085v5.004zM992.855 834.447h-10.081v-5.004h10.081v5.004zM957.073 800.67h-7.81v-5.004h7.81v5.004zM972.693 859.69h-10.082v-5.004h10.082v5.004z" fill="#CFDCB3"/><path fill-rule="evenodd" clip-rule="evenodd" d="M972.693 805.675h-10.082v-5.004h10.082v5.004zM992.855 829.443h-10.081v-5.004h10.081v5.004zM972.693 834.447h-10.082v-5.004h10.082v5.004zM957.071 795.717h-7.808v-5.005h7.808v5.005zM941.454 800.721h-7.809v-5.004h7.809v5.004zM957.072 820.037h-7.808v-5.004h7.808v5.004zM982.774 859.69h-10.081v-5.004h10.081v5.004zM1002.94 872.526h-10.085v-5.004h10.085v5.004zM992.855 877.531h-10.081v-5.005h10.081v5.005zM1002.94 805.675h-10.085v-5.004h10.085v5.004z" fill="#DEECB6"/><path fill-rule="evenodd" clip-rule="evenodd" d="M853.326 885.598h-37.717v-46.807h37.717v46.807z" fill="#9FB563"/><path fill-rule="evenodd" clip-rule="evenodd" d="M837.943 888.068h-5.253v-43.956h5.253v43.956zM828.046 888.068h-5.254v-43.956h5.254v43.956z" fill="#CCD3B8"/><path d="M858.167 767.27v23.699" stroke="#D8E79F" stroke-width="5.6"/><path fill-rule="evenodd" clip-rule="evenodd" d="M904.249 889.87h-38.683V781.278h38.683V889.87z" fill="#D8E79F"/><path fill-rule="evenodd" clip-rule="evenodd" d="M899.21 886.826h-6.053v-98.677h6.053v98.677zM887.934 886.826h-6.053v-98.677h6.053v98.677zM876.658 886.826h-6.053v-98.677h6.053v98.677zM865.566 889.87h-24.522V781.278h24.522V889.87z" fill="#9FB563"/><path fill-rule="evenodd" clip-rule="evenodd" d="M860.798 886.826h-5.253v-98.677h5.253v98.677zM850.744 886.826h-5.254v-98.677h5.254v98.677z" fill="#CCD3B8"/><path fill-rule="evenodd" clip-rule="evenodd" d="M850.744 841.736h-5.254v-9.14h5.254v9.14zM850.744 814.978h-5.254v-9.141h5.254v9.141zM860.798 814.978h-5.253v-9.141h5.253v9.141zM860.794 824.118h-5.253v-9.14h5.253v9.14zM837.943 867.565h-5.253v-9.14h5.253v9.14zM828.046 876.705h-5.254v-9.14h5.254v9.14zM860.794 850.876h-5.253v-9.14h5.253v9.14zM850.744 850.876h-5.254v-9.14h5.254v9.14z" fill="#D8E79F"/><path fill-rule="evenodd" clip-rule="evenodd" d="M795.354 888.854h-28.125v-39.706h28.125v39.706z" fill="#CCD3B8"/><path fill-rule="evenodd" clip-rule="evenodd" d="M826.774 888.854h-31.42v-39.706h31.42v39.706z" fill="#C6E08E"/><path fill-rule="evenodd" clip-rule="evenodd" d="M792.909 853.447h-31.144v-7.955h31.144v7.955z" fill="#D8E79F"/><path fill-rule="evenodd" clip-rule="evenodd" d="M826.774 855.418h-59.545v-1.971h59.545v1.971z" fill="#9FB563"/><path fill-rule="evenodd" clip-rule="evenodd" d="M826.774 858.978h-59.545v-1.971h59.545v1.971z" fill="#D8E79F"/><path fill-rule="evenodd" clip-rule="evenodd" d="M826.774 877.675h-59.545v-1.971h59.545v1.971z" fill="#9FB563"/><path fill-rule="evenodd" clip-rule="evenodd" d="M826.774 881.235h-59.545v-1.972h59.545v1.972z" fill="#D8E79F"/><path fill-rule="evenodd" clip-rule="evenodd" d="M832.557 853.447h-39.648v-7.955h39.648v7.955z" fill="#CCD3B8"/><path fill-rule="evenodd" clip-rule="evenodd" d="M792.909 875.704h-31.144v-13.43h31.144v13.43z" fill="#D8E79F"/><path fill-rule="evenodd" clip-rule="evenodd" d="M832.557 875.704h-39.648v-13.43h39.648v13.43zM771.621 886.768h-38.264v-52.606h38.264v52.606z" fill="#CCD3B8"/><path fill-rule="evenodd" clip-rule="evenodd" d="M733.357 886.768h-24.256v-52.606h24.256v52.606z" fill="#D8E79F"/><path fill-rule="evenodd" clip-rule="evenodd" d="M771.621 879.968h-54.987v-4.537h54.987v4.537zM771.621 872.144h-54.987v-4.538h54.987v4.538zM771.621 864.32h-54.987v-4.538h54.987v4.538zM771.621 856.495h-54.987v-4.537h54.987v4.537zM771.621 848.671h-54.987v-4.537h54.987v4.537zM771.62 840.847h-54.987v-4.538h54.987v4.538z" fill="#9FB563"/><path fill-rule="evenodd" clip-rule="evenodd" d="M748.054 879.968h-8.098v-4.537h8.098v4.537zM748.054 872.144h-8.098v-4.537h8.098v4.537zM756.151 879.968h-8.097v-4.537h8.097v4.537zM748.176 856.495h-8.097v-4.537h8.097v4.537zM767.911 848.671h-8.098v-4.537h8.098v4.537z" fill="#C6E08E"/><path fill-rule="evenodd" clip-rule="evenodd" d="M759.814 848.671h-8.098v-4.537h8.098v4.537z" fill="#C6E08E"/><path fill-rule="evenodd" clip-rule="evenodd" d="M121 894h23v-59h-23v59z" fill="#9FB563"/><path fill-rule="evenodd" clip-rule="evenodd" d="M86.966 892.532h37.717v-46.807H86.966v46.807z" fill="#9FB563"/><path fill-rule="evenodd" clip-rule="evenodd" d="M102.348 895.002h5.253v-43.956h-5.253v43.956zM112.246 895.002h5.253v-43.956h-5.253v43.956z" fill="#CCD3B8"/><path d="M82.124 774.204v23.699" stroke="#D8E79F" stroke-width="5.6"/><path fill-rule="evenodd" clip-rule="evenodd" d="M36.043 896.804h38.682V788.212H36.043v108.592z" fill="#D8E79F"/><path fill-rule="evenodd" clip-rule="evenodd" d="M41.082 893.761h6.053v-98.678h-6.053v98.678zM52.358 893.761h6.053v-98.678h-6.053v98.678zM63.634 893.761h6.053v-98.678h-6.053v98.678zM74.725 896.804h24.522V788.212H74.725v108.592z" fill="#9FB563"/><path fill-rule="evenodd" clip-rule="evenodd" d="M79.493 893.761h5.253v-98.678h-5.253v98.678zM89.548 893.761H94.8v-98.678h-5.253v98.678z" fill="#CCD3B8"/><path fill-rule="evenodd" clip-rule="evenodd" d="M89.548 848.67H94.8v-9.14h-5.253v9.14zM89.548 821.912H94.8v-9.141h-5.253v9.141zM79.493 821.912h5.253v-9.141h-5.253v9.141zM79.498 831.052h5.253v-9.14h-5.253v9.14zM102.348 874.499h5.253v-9.14h-5.253v9.14zM112.246 883.639h5.253v-9.14h-5.253v9.14zM79.498 857.811h5.253v-9.141h-5.253v9.141zM89.548 857.811H94.8v-9.141h-5.253v9.141z" fill="#D8E79F"/><path fill-rule="evenodd" clip-rule="evenodd" d="M144.937 895.788h28.125v-39.706h-28.125v39.706z" fill="#CCD3B8"/><path fill-rule="evenodd" clip-rule="evenodd" d="M113.517 895.788h31.42v-39.706h-31.42v39.706z" fill="#C6E08E"/><path fill-rule="evenodd" clip-rule="evenodd" d="M147.383 860.381h31.143v-7.955h-31.143v7.955z" fill="#D8E79F"/><path fill-rule="evenodd" clip-rule="evenodd" d="M113.517 862.352h59.545v-1.971h-59.545v1.971z" fill="#9FB563"/><path fill-rule="evenodd" clip-rule="evenodd" d="M113.517 865.912h59.545v-1.971h-59.545v1.971z" fill="#D8E79F"/><path fill-rule="evenodd" clip-rule="evenodd" d="M107.734 860.381h39.649v-7.955h-39.649v7.955z" fill="#CCD3B8"/><path fill-rule="evenodd" clip-rule="evenodd" d="M147.383 882.638h31.143v-13.43h-31.143v13.43z" fill="#D8E79F"/><path fill-rule="evenodd" clip-rule="evenodd" d="M107.735 882.638h39.648v-13.43h-39.648v13.43zM168.67 893.702h38.264v-52.606H168.67v52.606z" fill="#CCD3B8"/><path fill-rule="evenodd" clip-rule="evenodd" d="M206.934 893.702h24.256v-52.606h-24.256v52.606z" fill="#D8E79F"/><path fill-rule="evenodd" clip-rule="evenodd" d="M168.671 879.078h54.986v-4.537h-54.986v4.537zM168.671 871.254h54.986v-4.537h-54.986v4.537zM168.671 863.429h54.986v-4.537h-54.986v4.537zM168.671 855.605h54.986v-4.537h-54.986v4.537zM168.671 847.781h54.986v-4.538h-54.986v4.538z" fill="#9FB563"/><path fill-rule="evenodd" clip-rule="evenodd" d="M192.237 879.078h8.098v-4.537h-8.098v4.537zM192.115 863.429h8.097v-4.537h-8.097v4.537zM172.38 855.605h8.098v-4.537h-8.098v4.537z" fill="#C6E08E"/><path fill-rule="evenodd" clip-rule="evenodd" d="M180.477 855.605h8.098v-4.537h-8.098v4.537z" fill="#C6E08E"/><path fill-rule="evenodd" clip-rule="evenodd" d="M888 886h41V781h-41v105z" fill="#DEECB6"/><path fill-rule="evenodd" clip-rule="evenodd" d="M468.469 695.971h8.656v-15.449h-8.656v15.449zM468.469 665.073h8.656v-15.45h-8.656v15.45z" fill="#C6E08E"/><path fill-rule="evenodd" clip-rule="evenodd" d="M459.954 882.963h74.5V485.57h-74.5v397.393z" fill="#CCD3B8"/><path fill-rule="evenodd" clip-rule="evenodd" d="M534.454 882.963h47.227V485.57h-47.227v397.393z" fill="#9FB563"/><path fill-rule="evenodd" clip-rule="evenodd" d="M459.954 476.405h74.5v-18.169h-74.5v18.169z" fill="#CCD3B8"/><path fill-rule="evenodd" clip-rule="evenodd" d="M473.458 469.17h30.057V451h-30.057v18.17zM541.728 469.17h30.056V451h-30.056v18.17z" fill="#CCD3B8"/><path fill-rule="evenodd" clip-rule="evenodd" d="M534.454 476.405h47.227v-18.169h-47.227v18.169z" fill="#9FB563"/><path fill-rule="evenodd" clip-rule="evenodd" d="M453.078 485.57h82.916v-9.165h-82.916v9.165z" fill="#CCD3B8"/><path fill-rule="evenodd" clip-rule="evenodd" d="M535.994 485.57h52.563v-9.165h-52.563v9.165zM468.469 882.963h8.656V494.575h-8.656v388.388zM516.841 882.963h8.656V494.575h-8.656v388.388zM500.717 882.963h8.656V494.575h-8.656v388.388zM484.593 882.963h8.656V494.575h-8.656v388.388z" fill="#D8E79F"/><path fill-rule="evenodd" clip-rule="evenodd" d="M484.593 680.522h8.656v-15.449h-8.656v15.449zM500.717 822.84h8.656v-15.449h-8.656v15.449zM500.717 807.391h8.656v-15.449h-8.656v15.449z" fill="#C6E08E"/><path fill-rule="evenodd" clip-rule="evenodd" d="M516.841 761.003h8.656v-15.449h-8.656v15.449zM468.469 776.68h8.656v-15.449h-8.656v15.449zM516.841 633.336h8.656v-15.449h-8.656v15.449zM468.469 609.056h8.656v-15.449h-8.656v15.449zM500.717 776.493h8.656v-15.45h-8.656v15.45z" fill="#9FB563"/><path fill-rule="evenodd" clip-rule="evenodd" d="M468.469 840.595h8.656v-15.449h-8.656v15.449zM500.717 665.073h8.656v-15.45h-8.656v15.45zM468.469 711.42h8.656v-15.449h-8.656v15.449zM516.841 575.298h8.656v-15.449h-8.656v15.449zM468.469 551.287h8.656v-15.45h-8.656v15.45z" fill="#C6E08E"/><path fill-rule="evenodd" clip-rule="evenodd" d="M468.469 566.736h8.656v-15.45h-8.656v15.45zM500.717 649.623h8.656v-15.449h-8.656v15.449z" fill="#C6E08E"/><path fill-rule="evenodd" clip-rule="evenodd" d="M591 889h50V727h-50v162z" fill="#D8E79F"/><path fill-rule="evenodd" clip-rule="evenodd" d="M562 785h50V624h-50v161z" fill="#D8E79F"/><path fill-rule="evenodd" clip-rule="evenodd" d="M738 620.835V893H633V544l41.243 30.181v44.374h35.815v-18.167L738 620.835z" fill="#9FB563"/><path d="M668.471 680.355v29.663" stroke="#D8E79F" stroke-width="5.6"/><path fill-rule="evenodd" clip-rule="evenodd" d="M562.421 889.883h75.408V698.699h-75.408v191.184z" fill="#CCD3B8"/><path fill-rule="evenodd" clip-rule="evenodd" d="M637.829 889.883h47.804V698.699h-47.804v191.184z" fill="#D8E79F"/><path fill-rule="evenodd" clip-rule="evenodd" d="M562.421 723.47h17.927v-8.898h-17.927v8.898z" fill="#9FB563"/><path fill-rule="evenodd" clip-rule="evenodd" d="M580.348 732.279h17.926v-8.898h-17.926v8.898zM598.274 723.47H616.2v-8.898h-17.926v8.898z" fill="#9FB563"/><path fill-rule="evenodd" clip-rule="evenodd" d="M562.421 732.279h17.927v-8.898h-17.927v8.898zM580.348 792.34h17.926v-8.899h-17.926v8.899zM643.974 732.279h13.888v-8.898h-13.888v8.898zM616.2 837.225h17.927v-8.899H616.2v8.899z" fill="#C6E08E"/><path fill-rule="evenodd" clip-rule="evenodd" d="M616.2 741.177h17.927v-8.898H616.2v8.898zM580.348 783.441h17.926v-8.898h-17.926v8.898zM616.2 792.34h17.927v-8.899H616.2v8.899zM643.977 723.47h13.885v-8.898h-13.885v8.898zM671.748 732.368h13.885v-8.898h-13.885v8.898zM643.975 766.715h13.885v-8.898h-13.885v8.898zM598.274 837.225H616.2v-8.899h-17.926v8.899zM562.421 860.05h17.927v-8.899h-17.927v8.899zM580.348 868.948h17.926v-8.898h-17.926v8.898zM562.421 741.177h17.927v-8.898h-17.927v8.898z" fill="#9FB563"/><path fill-rule="evenodd" clip-rule="evenodd" d="M931.535 889.084h50.01V818.48h-50.01v70.604z" fill="#BEC8A2"/><path fill-rule="evenodd" clip-rule="evenodd" d="M875.665 889.084h55.87V818.48h-55.87v70.604z" fill="#CFDCB3"/><path fill-rule="evenodd" clip-rule="evenodd" d="M935.883 826.123h55.378v-14.144h-55.378v14.144z" fill="#F1FFBA"/><path fill-rule="evenodd" clip-rule="evenodd" d="M875.665 829.629h105.88v-3.506h-105.88v3.506z" fill="#DEECB6"/><path fill-rule="evenodd" clip-rule="evenodd" d="M875.665 835.959h105.88v-3.506h-105.88v3.506z" fill="#F1FFBA"/><path fill-rule="evenodd" clip-rule="evenodd" d="M875.665 869.206h105.88V865.7h-105.88v3.506z" fill="#DEECB6"/><path fill-rule="evenodd" clip-rule="evenodd" d="M875.665 875.535h105.88v-3.505h-105.88v3.505z" fill="#F1FFBA"/><path fill-rule="evenodd" clip-rule="evenodd" d="M865.383 826.123h70.5v-14.144h-70.5v14.144z" fill="#BEC8A2"/><path fill-rule="evenodd" clip-rule="evenodd" d="M935.883 865.7h55.378v-23.88h-55.378v23.88z" fill="#F1FFBA"/><path fill-rule="evenodd" clip-rule="evenodd" d="M865.383 865.7h70.501v-23.88h-70.501v23.88zM973.737 885.374h68.033v-93.542h-68.033v93.542z" fill="#BEC8A2"/><path fill-rule="evenodd" clip-rule="evenodd" d="M1041.77 885.374h43.14v-93.542h-43.14v93.542z" fill="#F1FFBA"/><path fill-rule="evenodd" clip-rule="evenodd" d="M973.737 873.282h97.773v-8.068h-97.773v8.068zM973.737 859.369h97.773v-8.068h-97.773v8.068zM973.737 845.457h97.773v-8.068h-97.773v8.068zM973.737 831.544h97.773v-8.068h-97.773v8.068zM973.737 817.631h97.773v-8.068h-97.773v8.068zM973.737 803.718h97.773v-8.068h-97.773v8.068z" fill="#DEECB6"/><path fill-rule="evenodd" clip-rule="evenodd" d="M1015.64 873.282h14.4v-8.068h-14.4v8.068zM1015.64 859.369h14.4v-8.068h-14.4v8.068zM1001.24 873.282h14.4v-8.068h-14.4v8.068zM1015.43 831.544h14.39v-8.068h-14.39v8.068zM980.333 817.631h14.399v-8.068h-14.399v8.068z" fill="#CFDCB3"/><path fill-rule="evenodd" clip-rule="evenodd" d="M994.731 817.631h14.399v-8.068h-14.399v8.068z" fill="#CFDCB3"/><path fill-rule="evenodd" clip-rule="evenodd" d="M-3 891h28v-91H-3v91z" fill="#F1FFBA"/><path fill-rule="evenodd" clip-rule="evenodd" d="M-20 832H8v-90h-28v90z" fill="#F1FFBA"/><path fill-rule="evenodd" clip-rule="evenodd" d="M79 740.151V893H20V697l23.175 16.95v24.92h20.124v-10.202L79 740.151z" fill="#DEECB6"/><path d="M40.199 773.603v16.682" stroke="#F1FFBA" stroke-width="5.6"/><path fill-rule="evenodd" clip-rule="evenodd" d="M-19.442 891.438h42.408V783.92h-42.408v107.518z" fill="#BEC8A2"/><path fill-rule="evenodd" clip-rule="evenodd" d="M22.966 891.438H49.85V783.92H22.966v107.518z" fill="#F1FFBA"/><path fill-rule="evenodd" clip-rule="evenodd" d="M-9.36 802.804H.721V797.8H-9.36v5.004z" fill="#DEECB6"/><path fill-rule="evenodd" clip-rule="evenodd" d="M.721 797.85h10.082v-5.004H.72v5.004z" fill="#DEECB6"/><path fill-rule="evenodd" clip-rule="evenodd" d="M-9.36 836.581H.721v-5.004H-9.36v5.004zM26.422 802.804h7.81V797.8h-7.81v5.004zM10.803 861.824h10.081v-5.005H10.803v5.005z" fill="#CFDCB3"/><path fill-rule="evenodd" clip-rule="evenodd" d="M10.803 807.808h10.081v-5.004H10.803v5.004zM-9.36 831.577H.721v-5.004H-9.36v5.004zM10.803 836.581h10.081v-5.004H10.803v5.004zM26.424 797.85h7.809v-5.004h-7.809v5.004zM42.042 802.854h7.808v-5.004h-7.808v5.004zM26.423 822.17h7.809v-5.004h-7.81v5.004zM.721 861.824h10.082v-5.005H.72v5.005zM-9.36 879.664H.721v-5.004H-9.36v5.004z" fill="#DEECB6"/><path fill-rule="evenodd" clip-rule="evenodd" d="M51.96 891.217H1.95v-70.604h50.01v70.604z" fill="#BEC8A2"/><path fill-rule="evenodd" clip-rule="evenodd" d="M107.83 891.217H51.96v-70.604h55.87v70.604z" fill="#CFDCB3"/><path fill-rule="evenodd" clip-rule="evenodd" d="M47.612 828.257H-7.766v-14.144h55.378v14.144z" fill="#F1FFBA"/><path fill-rule="evenodd" clip-rule="evenodd" d="M107.83 831.763H1.95v-3.506h105.88v3.506z" fill="#DEECB6"/><path fill-rule="evenodd" clip-rule="evenodd" d="M107.83 838.093H1.95v-3.506h105.88v3.506z" fill="#F1FFBA"/><path fill-rule="evenodd" clip-rule="evenodd" d="M107.83 871.339H1.95v-3.505h105.88v3.505z" fill="#DEECB6"/><path fill-rule="evenodd" clip-rule="evenodd" d="M107.83 877.669H1.95v-3.506h105.88v3.506z" fill="#F1FFBA"/><path fill-rule="evenodd" clip-rule="evenodd" d="M118.112 828.257h-70.5v-14.144h70.5v14.144z" fill="#BEC8A2"/><path fill-rule="evenodd" clip-rule="evenodd" d="M47.612 867.833H-7.766v-23.88h55.378v23.88z" fill="#F1FFBA"/><path fill-rule="evenodd" clip-rule="evenodd" d="M118.112 867.833h-70.5v-23.88h70.5v23.88zM9.759 887.507H-58.28v-93.541H9.759v93.541z" fill="#BEC8A2"/><path fill-rule="evenodd" clip-rule="evenodd" d="M9.758 875.416h-97.774v-8.068H9.758v8.068zM9.758 861.503h-97.774v-8.068H9.758v8.068zM9.758 847.59h-97.774v-8.068H9.758v8.068zM9.758 833.677h-97.774v-8.068H9.758v8.068zM9.758 819.764h-97.774v-8.067H9.758v8.067zM9.758 805.852h-97.775v-8.068H9.758v8.068z" fill="#DEECB6"/><path fill-rule="evenodd" clip-rule="evenodd" d="M3.162 819.764h-14.398v-8.067H3.162v8.067z" fill="#CFDCB3"/><path fill-rule="evenodd" clip-rule="evenodd" d="M134 886H93V781h41v105z" fill="#9FB563"/><path fill-rule="evenodd" clip-rule="evenodd" d="M432 889h-51V727h51v162z" fill="#D8E79F"/><path fill-rule="evenodd" clip-rule="evenodd" d="M460 785h-50V624h50v161z" fill="#D8E79F"/><path fill-rule="evenodd" clip-rule="evenodd" d="M284 620.835V893h105V544l-41.243 30.181v44.374h-35.815v-18.167L284 620.835z" fill="#9FB563"/><path d="M353.731 680.355v29.663" stroke="#D8E79F" stroke-width="5.6"/><path fill-rule="evenodd" clip-rule="evenodd" d="M459.781 889.883h-75.408V698.699h75.408v191.184z" fill="#CCD3B8"/><path fill-rule="evenodd" clip-rule="evenodd" d="M384.373 889.883h-47.804V698.699h47.804v191.184z" fill="#D8E79F"/><path fill-rule="evenodd" clip-rule="evenodd" d="M459.78 723.47h-17.926v-8.898h17.926v8.898zM441.854 732.279h-17.926v-8.898h17.926v8.898zM423.928 723.47h-17.926v-8.898h17.926v8.898z" fill="#9FB563"/><path fill-rule="evenodd" clip-rule="evenodd" d="M459.78 732.279h-17.926v-8.898h17.926v8.898zM441.854 792.34h-17.926v-8.899h17.926v8.899zM378.228 732.279H364.34v-8.898h13.888v8.898zM406.001 837.225h-17.926v-8.899h17.926v8.899z" fill="#C6E08E"/><path fill-rule="evenodd" clip-rule="evenodd" d="M406.001 741.177h-17.926v-8.898h17.926v8.898zM441.854 783.441h-17.926v-8.898h17.926v8.898zM406.001 792.34h-17.926v-8.899h17.926v8.899zM378.224 723.47h-13.885v-8.898h13.885v8.898zM350.454 732.368h-13.885v-8.898h13.885v8.898zM378.226 766.715h-13.885v-8.898h13.885v8.898zM423.928 837.225h-17.926v-8.899h17.926v8.899zM459.78 860.05h-17.926v-8.899h17.926v8.899zM441.854 868.948h-17.926v-8.898h17.926v8.898zM459.78 741.177h-17.926v-8.898h17.926v8.898zM193.749 883.292h-67.067v-83.23h67.067v83.23z" fill="#9FB563"/><path fill-rule="evenodd" clip-rule="evenodd" d="M166.397 887.685h-9.342v-78.161h9.342v78.161zM148.797 887.685h-9.341v-78.161h9.341v78.161z" fill="#CCD3B8"/><path d="M202.358 672.887v42.141" stroke="#D8E79F" stroke-width="5.6"/><path fill-rule="evenodd" clip-rule="evenodd" d="M284.297 890.889h-68.782V697.796h68.782v193.093z" fill="#D8E79F"/><path fill-rule="evenodd" clip-rule="evenodd" d="M275.338 885.477h-10.764V710.013h10.764v175.464zM255.287 885.477h-10.763V710.013h10.763v175.464zM235.237 885.477h-10.764V710.013h10.764v175.464zM215.514 890.889h-43.603V697.796h43.603v193.093z" fill="#9FB563"/><path fill-rule="evenodd" clip-rule="evenodd" d="M207.036 885.477h-9.341V710.013h9.341v175.464zM189.157 885.477h-9.341V710.013h9.341v175.464z" fill="#CCD3B8"/><path fill-rule="evenodd" clip-rule="evenodd" d="M189.157 805.3h-9.341v-16.253h9.341V805.3zM189.157 757.719h-9.341v-16.253h9.341v16.253zM207.036 757.719h-9.341v-16.253h9.341v16.253z" fill="#D8E79F"/><path fill-rule="evenodd" clip-rule="evenodd" d="M207.028 773.972h-9.341v-16.253h9.341v16.253zM166.397 851.227h-9.342v-16.253h9.342v16.253zM148.797 867.48h-9.341v-16.253h9.341v16.253zM207.028 821.552h-9.341V805.3h9.341v16.252zM189.157 821.552h-9.341V805.3h9.341v16.252z" fill="#D8E79F"/><path fill-rule="evenodd" clip-rule="evenodd" d="M90.667 889.084h-50.01V818.48h50.01v70.604z" fill="#CCD3B8"/><path fill-rule="evenodd" clip-rule="evenodd" d="M146.536 889.084h-55.87V818.48h55.87v70.604z" fill="#C6E08E"/><path fill-rule="evenodd" clip-rule="evenodd" d="M86.318 826.123H30.94v-14.144h55.378v14.144z" fill="#D8E79F"/><path fill-rule="evenodd" clip-rule="evenodd" d="M146.536 829.629H40.656v-3.506h105.88v3.506z" fill="#9FB563"/><path fill-rule="evenodd" clip-rule="evenodd" d="M146.536 835.959H40.656v-3.506h105.88v3.506z" fill="#D8E79F"/><path fill-rule="evenodd" clip-rule="evenodd" d="M146.536 869.206H40.656V865.7h105.88v3.506z" fill="#9FB563"/><path fill-rule="evenodd" clip-rule="evenodd" d="M146.536 875.535H40.656v-3.505h105.88v3.505z" fill="#D8E79F"/><path fill-rule="evenodd" clip-rule="evenodd" d="M156.819 826.123H86.318v-14.144h70.501v14.144z" fill="#CCD3B8"/><path fill-rule="evenodd" clip-rule="evenodd" d="M86.318 865.7H30.94v-23.88h55.378v23.88z" fill="#D8E79F"/><path fill-rule="evenodd" clip-rule="evenodd" d="M156.818 865.7h-70.5v-23.88h70.5v23.88z" fill="#CCD3B8"/><path fill-rule="evenodd" clip-rule="evenodd" d="M828.453 883.292h67.066v-83.23h-67.066v83.23z" fill="#9FB563"/><path fill-rule="evenodd" clip-rule="evenodd" d="M855.805 887.685h9.341v-78.161h-9.341v78.161zM873.405 887.685h9.341v-78.161h-9.341v78.161z" fill="#CCD3B8"/><path d="M819.844 672.887v42.141" stroke="#D8E79F" stroke-width="5.6"/><path fill-rule="evenodd" clip-rule="evenodd" d="M737.904 890.889h68.783V697.796h-68.783v193.093z" fill="#D8E79F"/><path fill-rule="evenodd" clip-rule="evenodd" d="M746.864 885.477h10.764V710.013h-10.764v175.464zM766.914 885.477h10.764V710.013h-10.764v175.464zM786.965 885.477h10.763V710.013h-10.763v175.464zM806.688 890.889h43.603V697.796h-43.603v193.093z" fill="#9FB563"/><path fill-rule="evenodd" clip-rule="evenodd" d="M815.166 885.477h9.341V710.013h-9.341v175.464zM833.044 885.477h9.342V710.013h-9.342v175.464z" fill="#CCD3B8"/><path fill-rule="evenodd" clip-rule="evenodd" d="M833.044 805.3h9.342v-16.253h-9.342V805.3zM833.044 757.719h9.342v-16.253h-9.342v16.253zM815.166 757.719h9.341v-16.253h-9.341v16.253z" fill="#D8E79F"/><path fill-rule="evenodd" clip-rule="evenodd" d="M815.173 773.972h9.342v-16.253h-9.342v16.253zM855.805 851.227h9.341v-16.253h-9.341v16.253zM873.405 867.48h9.341v-16.253h-9.341v16.253zM815.173 821.552h9.342V805.3h-9.342v16.252zM833.044 821.552h9.342V805.3h-9.342v16.252z" fill="#D8E79F"/><path fill-rule="evenodd" clip-rule="evenodd" d="M284.117 776.518h4.867v-8.688h-4.867v8.688zM284.117 759.141h4.867v-8.688h-4.867v8.688z" fill="#CFDCB3"/><path fill-rule="evenodd" clip-rule="evenodd" d="M279.328 881.679h41.897V658.193h-41.897v223.486z" fill="#BEC8A2"/><path fill-rule="evenodd" clip-rule="evenodd" d="M321.225 881.679h26.56V658.193h-26.56v223.486z" fill="#DEECB6"/><path fill-rule="evenodd" clip-rule="evenodd" d="M279.328 653.038h41.897V642.82h-41.897v10.218z" fill="#BEC8A2"/><path fill-rule="evenodd" clip-rule="evenodd" d="M286.922 648.969h16.904v-10.218h-16.904v10.218zM325.316 648.969h16.903v-10.218h-16.903v10.218z" fill="#BEC8A2"/><path fill-rule="evenodd" clip-rule="evenodd" d="M321.225 653.038h26.56V642.82h-26.56v10.218z" fill="#DEECB6"/><path fill-rule="evenodd" clip-rule="evenodd" d="M275.461 658.192h46.63v-5.154h-46.63v5.154z" fill="#BEC8A2"/><path fill-rule="evenodd" clip-rule="evenodd" d="M322.091 658.192h29.561v-5.154h-29.561v5.154zM284.117 881.679h4.867V663.257h-4.867v218.422zM311.32 881.679h4.868V663.257h-4.868v218.422zM302.252 881.679h4.868V663.257h-4.868v218.422zM293.184 881.679h4.868V663.257h-4.868v218.422z" fill="#F1FFBA"/><path fill-rule="evenodd" clip-rule="evenodd" d="M293.184 767.83h4.868v-8.689h-4.868v8.689zM302.252 847.867h4.868v-8.688h-4.868v8.688zM302.252 839.179h4.868v-8.689h-4.868v8.689z" fill="#CFDCB3"/><path fill-rule="evenodd" clip-rule="evenodd" d="M311.32 813.091h4.868v-8.688h-4.868v8.688zM284.117 821.907h4.867v-8.688h-4.867v8.688zM311.32 741.293h4.868v-8.688h-4.868v8.688zM284.117 727.639h4.867v-8.688h-4.867v8.688zM302.252 821.802h4.868v-8.688h-4.868v8.688z" fill="#DEECB6"/><path fill-rule="evenodd" clip-rule="evenodd" d="M284.117 857.852h4.867v-8.689h-4.867v8.689zM302.252 759.141h4.868v-8.688h-4.868v8.688zM284.117 785.206h4.867v-8.688h-4.867v8.688zM311.32 708.654h4.868v-8.689h-4.868v8.689zM284.117 695.15h4.867v-8.688h-4.867v8.688zM284.117 703.838h4.867v-8.688h-4.867v8.688zM302.252 750.453h4.868v-8.689h-4.868v8.689zM678.287 777.051h4.868v-8.688h-4.868v8.688zM678.287 759.675h4.868v-8.689h-4.868v8.689z" fill="#CFDCB3"/><path fill-rule="evenodd" clip-rule="evenodd" d="M673.499 882.212h41.897V658.726h-41.897v223.486z" fill="#BEC8A2"/><path fill-rule="evenodd" clip-rule="evenodd" d="M715.396 882.212h26.559V658.726h-26.559v223.486z" fill="#DEECB6"/><path fill-rule="evenodd" clip-rule="evenodd" d="M673.499 653.572h41.897v-10.218h-41.897v10.218z" fill="#BEC8A2"/><path fill-rule="evenodd" clip-rule="evenodd" d="M681.093 649.503h16.903v-10.219h-16.903v10.219zM719.487 649.503h16.903v-10.219h-16.903v10.219z" fill="#BEC8A2"/><path fill-rule="evenodd" clip-rule="evenodd" d="M715.396 653.572h26.559v-10.218h-26.559v10.218z" fill="#DEECB6"/><path fill-rule="evenodd" clip-rule="evenodd" d="M669.631 658.726h46.631v-5.154h-46.631v5.154z" fill="#BEC8A2"/><path fill-rule="evenodd" clip-rule="evenodd" d="M716.262 658.726h29.56v-5.154h-29.56v5.154zM678.287 882.212h4.868V663.79h-4.868v218.422zM705.491 882.212h4.868V663.79h-4.868v218.422zM696.423 882.212h4.868V663.79h-4.868v218.422zM687.355 882.212h4.868V663.79h-4.868v218.422z" fill="#F1FFBA"/><path fill-rule="evenodd" clip-rule="evenodd" d="M687.355 768.363h4.868v-8.688h-4.868v8.688zM696.423 848.4h4.868v-8.688h-4.868v8.688zM696.423 839.712h4.868v-8.688h-4.868v8.688z" fill="#CFDCB3"/><path fill-rule="evenodd" clip-rule="evenodd" d="M705.491 813.624h4.868v-8.688h-4.868v8.688zM678.287 822.441h4.868v-8.688h-4.868v8.688zM705.491 741.827h4.868v-8.689h-4.868v8.689zM678.287 728.172h4.868v-8.688h-4.868v8.688zM696.423 822.335h4.868v-8.688h-4.868v8.688z" fill="#DEECB6"/><path fill-rule="evenodd" clip-rule="evenodd" d="M678.287 858.385h4.868v-8.688h-4.868v8.688zM696.423 759.675h4.868v-8.689h-4.868v8.689zM678.287 785.74h4.868v-8.688h-4.868v8.688zM705.491 709.187h4.868v-8.688h-4.868v8.688zM678.287 695.684h4.868v-8.689h-4.868v8.689zM678.287 704.372h4.868v-8.688h-4.868v8.688zM696.423 750.986h4.868v-8.688h-4.868v8.688z" fill="#CFDCB3"/></g><defs><clipPath id="clip0"><path fill="#fff" d="M0 0h2950v880H0z"/></clipPath></defs></svg>