<svg width="2950" height="880" fill="none" xmlns="http://www.w3.org/2000/svg"><g opacity=".7" clip-path="url(#clip0)"><path fill="#fff" d="M0 0h2950v880H0z"/><path fill-rule="evenodd" clip-rule="evenodd" d="M2201.94 719.033h-157.36V206.796h157.36v512.237z" fill="#FFECAA"/><path fill-rule="evenodd" clip-rule="evenodd" d="M2017.46 171.001v562.507h27.12V206.795h157.36v526.713h26.99V171.001h-211.47z" fill="#DED8BA"/><path fill-rule="evenodd" clip-rule="evenodd" d="M2228.93 757.458h-211.47v-71.809h211.47v71.809z" fill="#DED8BA"/><path fill-rule="evenodd" clip-rule="evenodd" d="M2005 733.508h157.62l39.32-47.857h-157.62L2005 733.508zM2057.45 685.649h-12.87V206.796h12.87v478.853zM2235.34 757.457h-6.41V171h6.41v586.457z" fill="#CAB670"/><path fill-rule="evenodd" clip-rule="evenodd" d="M2201.94 685.649h-152v-21.271h152v21.271zM2201.94 349.334h-151.98v-19.571h151.98v19.571z" fill="#BEB395"/><path fill-rule="evenodd" clip-rule="evenodd" d="M2162.62 733.508h39.32v-47.857l-39.32 47.857z" fill="#FFECAA"/><path fill-rule="evenodd" clip-rule="evenodd" d="M2422.26 641.54c0 117.852-69.83 170.74-155.63 170.74S2111 759.392 2111 641.54c0-219.53 84.93-424.54 155.63-424.54 70.7 0 155.63 205.01 155.63 424.54" fill="#F4EECA"/><path d="M2266.63 450.735v425.447" stroke="#CAB670" stroke-width="10.5" stroke-linecap="square"/><path d="M2301.47 687.987l35.91-39.578M2301.47 498.051l35.91-39.578M2237.38 688.016l-36.39-40.106M2234.83 594.272l-36.39-40.105" stroke="#CAB670" stroke-width="7" stroke-linecap="square"/><path fill-rule="evenodd" clip-rule="evenodd" d="M199.529 891.722H378.34v-50.444H199.529v50.444z" fill="#FFECAA"/><path fill-rule="evenodd" clip-rule="evenodd" d="M366.984 891.722h11.356v-50.444h-11.356v50.444z" fill="#C1BEAD"/><path fill-rule="evenodd" clip-rule="evenodd" d="M199.529 841.278H378.34v-12.411H199.529v12.411zM199.529 871.254h173.133v-6.204H199.529v6.204z" fill="#DED8BA"/><path fill-rule="evenodd" clip-rule="evenodd" d="M838.264 891.722h178.806v-50.444H838.264v50.444z" fill="#FFECAA"/><path fill-rule="evenodd" clip-rule="evenodd" d="M1005.72 891.722h11.35v-50.444h-11.35v50.444z" fill="#C1BEAD"/><path fill-rule="evenodd" clip-rule="evenodd" d="M838.264 841.278h178.806v-12.411H838.264v12.411zM838.264 871.254H1011.4v-6.204H838.264v6.204z" fill="#DED8BA"/><path fill-rule="evenodd" clip-rule="evenodd" d="M-115.686 891.722h178.81v-50.444h-178.81v50.444z" fill="#FFECAA"/><path fill-rule="evenodd" clip-rule="evenodd" d="M51.769 891.722h11.356v-50.444H51.769v50.444z" fill="#C1BEAD"/><path fill-rule="evenodd" clip-rule="evenodd" d="M-115.686 841.278h178.81v-12.411h-178.81v12.411zM-115.685 871.254H57.447v-6.204h-173.132v6.204z" fill="#DED8BA"/><path fill-rule="evenodd" clip-rule="evenodd" d="M210.266 689.917h157.361V177.68H210.266v512.237z" fill="#FFECAA"/><path fill-rule="evenodd" clip-rule="evenodd" d="M394.744 141.885v562.507h-27.118V177.679H210.263v526.713h-26.986V141.885h211.467z" fill="#DED8BA"/><path fill-rule="evenodd" clip-rule="evenodd" d="M183.279 728.341h211.469v-71.808H183.279v71.808z" fill="#DED8BA"/><path fill-rule="evenodd" clip-rule="evenodd" d="M407.207 704.392H249.586l-39.324-47.857h157.622l39.323 47.857zM354.753 656.533h12.874V177.68h-12.874v478.853zM176.866 728.341h6.411V141.884h-6.411v586.457z" fill="#CAB670"/><path fill-rule="evenodd" clip-rule="evenodd" d="M210.266 656.533h152.006v-21.272H210.266v21.272zM210.262 320.218h151.989v-19.572H210.262v19.572z" fill="#BEB395"/><path fill-rule="evenodd" clip-rule="evenodd" d="M249.586 704.392h-39.324v-47.857l39.324 47.857zM-104.264 689.917h157.36V177.68h-157.36v512.237z" fill="#FFECAA"/><path fill-rule="evenodd" clip-rule="evenodd" d="M80.214 141.885v562.507H53.096V177.679h-157.363v526.713h-26.986V141.885H80.214z" fill="#DED8BA"/><path fill-rule="evenodd" clip-rule="evenodd" d="M-131.25 728.341H80.218v-71.808H-131.25v71.808z" fill="#DED8BA"/><path fill-rule="evenodd" clip-rule="evenodd" d="M92.677 704.392H-64.945l-39.322-47.857h157.62l39.324 47.857zM40.223 656.533h12.873V177.68H40.224v478.853z" fill="#CAB670"/><path fill-rule="evenodd" clip-rule="evenodd" d="M-104.264 656.533H47.742v-21.272h-152.006v21.272zM-104.268 320.218h151.99v-19.572h-151.99v19.572z" fill="#BEB395"/><path fill-rule="evenodd" clip-rule="evenodd" d="M842.808 689.917h157.362V177.68H842.808v512.237z" fill="#FFECAA"/><path fill-rule="evenodd" clip-rule="evenodd" d="M1027.29 141.885v562.507h-27.12V177.679H842.806v526.713H815.82V141.885h211.47z" fill="#DED8BA"/><path fill-rule="evenodd" clip-rule="evenodd" d="M815.822 728.341h211.468v-71.808H815.822v71.808z" fill="#DED8BA"/><path fill-rule="evenodd" clip-rule="evenodd" d="M1039.75 704.392H882.128l-39.322-47.857h157.624l39.32 47.857zM987.297 656.533h12.873V177.68h-12.873v478.853zM809.409 728.341h6.411V141.884h-6.411v586.457z" fill="#CAB670"/><path fill-rule="evenodd" clip-rule="evenodd" d="M842.808 656.533h152.006v-21.272H842.808v21.272zM842.806 320.218h151.989v-19.572H842.806v19.572z" fill="#BEB395"/><path fill-rule="evenodd" clip-rule="evenodd" d="M882.128 704.392h-39.322v-47.857l39.322 47.857z" fill="#FFECAA"/><path d="M1054 764.704H-485" stroke="#D9D6BB" stroke-width="14" stroke-linecap="round"/><path fill-rule="evenodd" clip-rule="evenodd" d="M533.337 825.956h192.241V171.084H533.337v654.872z" fill="#DED8BA"/><path fill-rule="evenodd" clip-rule="evenodd" d="M533.337 825.956h192.241V171.084H533.337v654.872z" fill="#BEB395"/><path fill-rule="evenodd" clip-rule="evenodd" d="M533.339 744.286H647.98V171.088H533.339v573.198z" fill="#FFECAA"/><path fill-rule="evenodd" clip-rule="evenodd" d="M530.703 788.049H675.31v-46.691H530.703v46.691z" fill="#E9DD76"/><path fill-rule="evenodd" clip-rule="evenodd" d="M677.947 738.431H528.068V790.977h149.879V738.431zM533.34 785.122h139.335v-40.836H533.34v40.836z" fill="#FFECAA"/><path fill-rule="evenodd" clip-rule="evenodd" d="M530.703 828.885h171.826v-46.691H530.703v46.691z" fill="#BEB395"/><path fill-rule="evenodd" clip-rule="evenodd" d="M705.165 779.266H528.067V831.813H705.165v-52.547zM533.34 825.957h166.553v-40.836H533.34v40.836z" fill="#FFECAA"/><path fill-rule="evenodd" clip-rule="evenodd" d="M737.749 144.375v681.58h-12.171V171.084h-192.24v654.871h-12.162v-681.58h216.573z" fill="#fff"/><path fill-rule="evenodd" clip-rule="evenodd" d="M761.272 95.427v659.568h-23.524V135.97H521.176v619.025h-23.524V95.427h263.62z" fill="#DED8BA"/><path d="M660.939 504.553l-37.878 89.277 43.8 46.24 40.782-82.321" stroke="#FFECAA" stroke-width="9.1" stroke-linejoin="round"/><path fill-rule="evenodd" clip-rule="evenodd" d="M518.04 888.786h229.867v-59.901H518.04v59.901z" fill="#BEB395"/><path fill-rule="evenodd" clip-rule="evenodd" d="M515.404 891.714h235.14v-65.757h-235.14v65.757zm5.273-5.855h224.595v-54.047H520.677v54.047z" fill="#FFECAA"/><path fill-rule="evenodd" clip-rule="evenodd" d="M515.405 891.714h43.239v-65.757h-43.239v65.757z" fill="#FFECAA"/><path d="M708.522 556.773h-23.683l-46.706-51.244h23.686" stroke="#fff" stroke-width="8.4" stroke-linecap="round" stroke-linejoin="round"/><path fill-rule="evenodd" clip-rule="evenodd" d="M606.739 15l14.491 55.01h15.588L651.299 15h-44.56z" fill="#939A65"/><path fill-rule="evenodd" clip-rule="evenodd" d="M2912.42 506.99c0 119.13-70.56 185.592-162.45 185.592-91.89 0-162.44-66.462-162.44-185.592 0-250.827 103.68-539.99 162.44-539.99 58.77 0 162.45 289.163 162.45 539.99" fill="#CAB670"/><path d="M2749.97 329.791v549.861" stroke="#DED8BA" stroke-width="10.5" stroke-linecap="square"/><path d="M2794.53 612.574l35.92-39.578M2794.53 389.459l35.92-39.577" stroke="#DED8BA" stroke-width="7" stroke-linecap="square"/><path fill-rule="evenodd" clip-rule="evenodd" d="M2699.58 444.944c0 136.692-100.55 247.503-224.6 247.503-124.04 0-224.59-110.811-224.59-247.503 0-136.692 100.55-247.503 224.59-247.503 124.05 0 224.6 110.811 224.6 247.503" fill="#DED8BA"/><path d="M2474.98 396.958V879.65" stroke="#FFECAA" stroke-width="10.5" stroke-linecap="square"/><path d="M2528.24 613.53l35.91-39.578M2528.24 436.075l35.91-39.577M2421.73 528.852l-35.91-39.579M2421.73 440.124l-35.91-39.578" stroke="#FFECAA" stroke-width="8.4" stroke-linecap="square"/><path fill-rule="evenodd" clip-rule="evenodd" d="M2677.74 877.307l-404.97 2.345c-23.11-32.363-76.94-113.406-55.27-137.349 14.25-15.75 56.98 34.94 68.51 19.729 11.54-15.2-64.21-109.96-44.98-123.316 33.9-23.534 142.97 145.373 157.04 131.779 14.8-14.295-54.75-113.62-30.24-124.143 28.53-12.247 104.08 139.646 125.91 124.143 11.43-8.129-10.77-57.649 5.74-66.112 28.72-14.747 76.65 128.283 97.03 115.54 9.63-6.038-1.21-26.703 13.24-31.845 17.66-6.274 53.23 59.885 67.99 89.229M2870.7 823.158c-.59.874-18.57 27.313-20.83 51.662h-31.61c14.92-32.681 51.62-51.256 52.44-51.662" fill="#CAB670"/><path fill-rule="evenodd" clip-rule="evenodd" d="M1485.58 823.256c.59.874 18.57 27.313 20.83 51.661h31.61c-14.92-32.679-51.62-51.255-52.44-51.661M2154.21 825.231c.6.874 18.58 27.313 20.83 51.661h31.61c-14.92-32.679-51.62-51.255-52.44-51.661M2958.52 845c-.42.624-9.53 13.999-15.63 30.381H2920c16.72-19.356 37.9-30.08 38.52-30.381M1688.04 874.918h-33.48c-.2-26.509-12.55-61.021-12.55-61.021s36.74 33.064 46.03 61.021zM1698.1 874.918c8.09-18.876 8.58-34.083 8.58-34.083s15.89 19.024 22.65 34.083h-31.23zM2761.67 724.912c-.47 1.601-26.61 81.051-29.13 149.908h-42.21c2.52-31.095-10.06-68.644-10.06-68.644s22.45 18.988 28.26 46.083c0 0 17.43-86.374 53.14-127.347M2799.5 810.011s-24.69 36.112-31.29 64.809h-22.96c7.83-17.714 26.63-53.628 54.25-64.809" fill="#F5EEDA"/><path fill-rule="evenodd" clip-rule="evenodd" d="M2998.83 704.529c0 60.5-26.16 115.45-85.38 115.45-59.23 0-85.38-54.95-85.38-115.45 0-70.972 44.75-141.547 85.38-141.547 40.62 0 85.38 70.575 85.38 141.547z" fill="#DED8BA"/><path d="M2913.44 698.88v180.772" stroke="#F5EEDA" stroke-width="10.5" stroke-linecap="square"/><path d="M2942.94 719.116l24.49-26.534M2886.69 746.851l-29.9-29.762" stroke="#F5EEDA" stroke-width="6.3" stroke-linecap="square"/><path d="M1852.44 876.697s-31.95-79.118-80.15-116.813M1868.49 879.131s-5.23-119.712 34.27-163.619" stroke="#FFECAA" stroke-width="6.3" stroke-linecap="square"/><path fill-rule="evenodd" clip-rule="evenodd" d="M1872.91 712.511c0 14.838 10.92 26.867 24.38 26.867 13.47 0 24.38-12.029 24.38-26.867 0-14.838-10.91-26.867-24.38-26.867-13.46 0-24.38 12.029-24.38 26.867M1757.07 768.308c0 14.839 10.91 26.866 24.38 26.866 13.46 0 24.38-12.027 24.38-26.866s-10.92-26.867-24.38-26.867c-13.47 0-24.38 12.028-24.38 26.867" fill="#FFECAA"/><path d="M2307.48 869.52s-3.69-54.229 23.83-117.617M2292.08 875.06s-23.57-113.716-84.65-169.21" stroke="#FFECAA" stroke-width="6.3" stroke-linecap="square"/><path fill-rule="evenodd" clip-rule="evenodd" d="M2230.64 694.104c2.4 14.602-6.41 28.578-19.66 31.215-13.25 2.637-25.93-7.062-28.32-21.663-2.4-14.602 6.41-28.578 19.66-31.215 13.25-2.638 25.93 7.061 28.32 21.663M2361.96 727.195c2.39 14.602-6.41 28.578-19.66 31.215-13.25 2.637-25.93-7.062-28.33-21.663-2.39-14.602 6.41-28.578 19.66-31.215 13.25-2.638 25.94 7.062 28.33 21.663" fill="#FFECAA"/><path fill-rule="evenodd" clip-rule="evenodd" d="M1952.53 745.253c-.77 1.128-50.51 73.112-51.78 129.517h-40.17c5.38-18.364 28.7-85.549 91.95-129.517M1838.95 874.82h-32.01c-6.33-26.511-25.49-43.04-25.49-43.04s38.05 8.207 57.5 43.04" fill="#CAB670"/><path fill-rule="evenodd" clip-rule="evenodd" d="M2427.04 801.938c.7.974 15.68 38.953 13.9 74.953h52.76c1.01-19.678 12.33-47.841 12.33-47.841s-23.23 10.365-38.93 39.971c0 0-11.89-53.411-40.06-67.083M2344.35 818.96c-.63 1.337-13.33 25.585-16.67 53.933l-50.3 5.687c-3.43-25.201-10.82-39.231-10.82-39.231s21.12 6.767 32.39 26.558c0 0 13.07-30.448 45.4-46.947" fill="#F5EEDA"/><path d="M3044 875.066H0" stroke="#F5EEDA" stroke-width="14" stroke-linecap="round"/><path fill-rule="evenodd" clip-rule="evenodd" d="M2154 678.594C2154 753.22 2125.97 821 2062.5 821s-91.5-67.78-91.5-142.406c0-87.543 47.96-174.594 91.5-174.594s91.5 87.051 91.5 174.594" fill="#EBDD94"/><path d="M2062.5 663v213" stroke="#F5EEDA" stroke-width="10.5" stroke-linecap="square"/><path d="M2089 689l25-31M2036 752l-25-31M2036 690l-25-31" stroke="#F5EEDA" stroke-width="7" stroke-linecap="square"/></g><defs><clipPath id="clip0"><path fill="#fff" d="M0 0h2950v880H0z"/></clipPath></defs></svg>