<svg width="2950" height="880" fill="none" xmlns="http://www.w3.org/2000/svg"><g opacity=".7" clip-path="url(#clip0)"><path fill="#fff" d="M0 0h2950v880H0z"/><path fill-rule="evenodd" clip-rule="evenodd" d="M2618.54 49.686h-131.41v13.38c0 12.702 10.6 22.997 23.67 22.997h84.07c13.07 0 23.67-10.295 23.67-22.996V49.686z" fill="#BDD5BF"/><path fill-rule="evenodd" clip-rule="evenodd" d="M2639.82 52.992c98.43 0 177.92 77.479 177.92 172.674v509.998h12.6V225.666c0-102.494-85.47-185.274-190.52-185.274v12.6z" fill="#96BC99"/><path fill-rule="evenodd" clip-rule="evenodd" d="M2795.08 880.209H2853l-6.12-203.471h-45.69l-6.11 203.471zM2462 66.292h181.67V38.996C2643.67 26.295 2633.08 16 2620 16h-134.33C2472.6 16 2462 26.295 2462 38.996v27.296z" fill="#7F9381"/><path fill-rule="evenodd" clip-rule="evenodd" d="M336.459 49.686h131.408v13.38c0 12.702-10.598 22.997-23.671 22.997H360.13c-13.073 0-23.671-10.295-23.671-22.996V49.686z" fill="#BDD5BF"/><path d="M130.962 735.664V225.666c0-98.845 82.478-178.974 184.221-178.974" stroke="#96BC99" stroke-width="12.6"/><path fill-rule="evenodd" clip-rule="evenodd" d="M159.924 880.209H102l6.116-203.471h45.693l6.115 203.471zM493 66.292H311.327V38.996c0-12.701 10.598-22.996 23.671-22.996h134.331C482.402 16 493 26.295 493 38.996v27.296z" fill="#7F9381"/><path fill-rule="evenodd" clip-rule="evenodd" d="M2316.71 262.967l-697.77-6.789c-3.89-57.908 13.12-102.83 37.37-106.374 59.25-8.671 61.61 43.482 92.49 42.46 48.98-1.61 39.24-82.843 94.63-91.779 55.39-8.927 56.93 48 109.23 47.548 52.29-.453 107.89-108.776 182.08-84.911 53.86 17.329 28.34 78.24 69.93 119.244 41.59 41.003 97.23-20.034 111.42 37.974 3.59 14.667 3.46 29.011.62 42.627" fill="#A1C4A4"/><path fill-rule="evenodd" clip-rule="evenodd" d="M647.696 879.622h108.802V689.951H647.696v189.671z" fill="#859587"/><path fill-rule="evenodd" clip-rule="evenodd" d="M59.227 717.894h724.128v-27.943H59.227v27.943zM652.248 589.907H40.568L30.14 534h611.679l10.429 55.907zM666.794 667.888H55.114l-10.428-55.917h611.681l10.427 55.917z" fill="#83B187"/><path fill-rule="evenodd" clip-rule="evenodd" d="M40.567 589.907h-29.51L0 534h30.14l10.427 55.907zM55.114 667.888H26.477l-11.058-55.917h29.267l10.428 55.917z" fill="#859587"/><path fill-rule="evenodd" clip-rule="evenodd" d="M606.527 534l29.091 155.952h-35.106L571.421 534h35.106zM100.544 534l29.091 155.952H94.529L65.439 534h35.105zM168.029 879.622h26.857V689.951h-26.857v189.671z" fill="#606C61"/><path fill-rule="evenodd" clip-rule="evenodd" d="M194.885 717.95h26.856v-27.998h-26.856v27.998zM729.642 717.95h26.857v-27.998h-26.857v27.998zM756.499 879.622h26.856V689.951h-26.856v189.671z" fill="#606C61"/><path fill-rule="evenodd" clip-rule="evenodd" d="M59.228 879.622H168.03V689.951h-108.8v189.671zM2302.66 879.622h-108.8V689.951h108.8v189.671z" fill="#859587"/><path fill-rule="evenodd" clip-rule="evenodd" d="M2891.13 717.894H2167v-27.943h724.13v27.943zM2298.11 589.907h611.68L2920.21 534h-611.67l-10.43 55.907zM2283.56 667.888h611.68l10.43-55.917h-611.68l-10.43 55.917z" fill="#83B187"/><path fill-rule="evenodd" clip-rule="evenodd" d="M2909.79 589.907h29.51L2950.35 534h-30.13l-10.43 55.907zM2895.24 667.888h28.64l11.06-55.917h-29.27l-10.43 55.917z" fill="#859587"/><path fill-rule="evenodd" clip-rule="evenodd" d="M2343.83 534l-29.09 155.952h35.1L2378.93 534h-35.1zM2849.81 534l-29.09 155.952h35.11L2884.92 534h-35.11zM2782.33 879.622h-26.86V689.951h26.86v189.671zM2755.47 717.95h-26.86v-27.998h26.86v27.998zM2220.71 717.95h-26.85v-27.998h26.85v27.998zM2193.86 879.622H2167V689.951h26.86v189.671z" fill="#606C61"/><path fill-rule="evenodd" clip-rule="evenodd" d="M2891.13 879.622h-108.8V689.951h108.8v189.671z" fill="#859587"/><path fill-rule="evenodd" clip-rule="evenodd" d="M1328.7 351.811c-61.58 6.377-86.28 89.459-89.64 135.484l436.15 1.38c-5.82-35.675-34.18-64.645-53.77-69.389-26.14-6.33-40.2 38.09-69.3 24.907-29.1-13.187-1.48-80.584-41.9-92.692-26.85-8.048-110.5 60.227-121.45 61.311-41.82 4.154-8.94-66.3-60.09-61.001" fill="#D6E9D8"/><path fill-rule="evenodd" clip-rule="evenodd" d="M1031.78 143.567c-41.722 4.519-58.731 60.744-61.169 91.855l295.379-.553c-3.82-24.087-22.93-43.566-36.18-46.705-17.68-4.188-27.35 25.875-47.02 17.067-19.66-8.812-.72-54.448-28.06-62.492-18.16-5.346-75.04 41.073-82.46 41.843-28.33 2.95-5.83-44.77-40.49-41.015" fill="#BEC7BF"/><path fill-rule="evenodd" clip-rule="evenodd" d="M-99 880s54.764-76.489 119.424-74.777c64.66 1.711 63.5 28.792 108.68 28.745 45.18-.048 96.811-38.658 171.905-39.941 75.094-1.284 103.032 44.173 180.823 41.661 79.417-2.564 146.457 3.154 181.168 43.766M3014 880s-54.76-76.489-119.42-74.777c-64.66 1.711-63.5 28.792-108.68 28.745-45.18-.048-96.81-38.658-171.91-39.941-75.09-1.284-103.03 44.173-180.82 41.661-79.42-2.564-146.46 3.154-181.17 43.766" fill="#A9C7AB"/><path d="M1472 888s-34.67-78.567-87-116M1490.25 890s-5.76-118.528 37.75-162" stroke="#689672" stroke-width="6.3" stroke-linecap="square"/><path fill-rule="evenodd" clip-rule="evenodd" d="M1495 727.501c0 14.635 11.86 26.499 26.5 26.499s26.5-11.864 26.5-26.499c0-14.637-11.86-26.501-26.5-26.501s-26.5 11.864-26.5 26.501M1368 783.001c0 14.912 11.86 26.999 26.5 26.999s26.5-12.087 26.5-26.999c0-14.913-11.86-27.001-26.5-27.001s-26.5 12.088-26.5 27.001" fill="#689672"/><path fill-rule="evenodd" clip-rule="evenodd" d="M1582 757c-.85 1.123-55.48 72.82-56.88 129H1481c5.91-18.29 31.52-85.208 101-129M1458 886h-35.07c-6.93-26.486-27.93-43-27.93-43s41.7 8.2 63 43" fill="#5F7A5F"/></g><defs><clipPath id="clip0"><path fill="#fff" d="M0 0h2950v880H0z"/></clipPath></defs></svg>