<svg width="2950" height="880" fill="none" xmlns="http://www.w3.org/2000/svg"><g opacity=".7" clip-path="url(#clip0)"><path fill="#fff" d="M0 0h2950v880H0z"/><path fill-rule="evenodd" clip-rule="evenodd" d="M3006 890s-109.81-102.282-239.48-99.993c-129.66 2.289-127.33 38.502-217.93 38.438-90.59-.063-194.13-51.693-344.71-53.409-150.58-1.717-206.6 59.069-362.59 55.71-159.25-3.429-293.69 4.217-363.29 58.524" fill="#BB92B2"/><path fill-rule="evenodd" clip-rule="evenodd" d="M1844 902s-139.71-102.282-304.67-99.993c-164.96 2.289-162 38.502-277.27 38.438-115.26-.063-246.98-51.693-438.555-53.409-191.578-1.717-262.855 59.069-461.312 55.71C159.585 839.317-11.445 846.963-100 901.27" fill="#BB92B2"/><path fill-rule="evenodd" clip-rule="evenodd" d="M399.856 541.278h16.228v-28.965h-16.228v28.965zM399.856 483.348h16.228v-28.964h-16.228v28.964z" fill="#F7E8F6"/><path fill-rule="evenodd" clip-rule="evenodd" d="M383.893 891.855h139.673V146.813H383.893v745.042z" fill="#DBACD6"/><path fill-rule="evenodd" clip-rule="evenodd" d="M523.565 891.855h88.543V146.813h-88.543v745.042z" fill="#F1D5F1"/><path fill-rule="evenodd" clip-rule="evenodd" d="M383.893 129.63h139.673V95.565H383.893v34.065z" fill="#DBACD6"/><path fill-rule="evenodd" clip-rule="evenodd" d="M409.21 116.065h56.351V82H409.21v34.065zM537.204 116.065h56.35V82h-56.35v34.065z" fill="#DBACD6"/><path fill-rule="evenodd" clip-rule="evenodd" d="M523.565 129.63h88.543V95.565h-88.543v34.065z" fill="#F1D5F1"/><path fill-rule="evenodd" clip-rule="evenodd" d="M371 146.813h155.453V129.63H371v17.183z" fill="#DBACD6"/><path fill-rule="evenodd" clip-rule="evenodd" d="M526.454 146.813H625V129.63h-98.546v17.183zM399.856 891.854h16.228V163.695h-16.228v728.159zM490.545 891.854h16.229V163.695h-16.229v728.159zM460.316 891.854h16.228V163.695h-16.228v728.159zM430.086 891.854h16.228V163.695h-16.228v728.159z" fill="#ECBDED"/><path fill-rule="evenodd" clip-rule="evenodd" d="M430.086 512.313h16.228v-28.964h-16.228v28.964zM460.316 779.135h16.228v-28.964h-16.228v28.964zM460.316 750.171h16.228v-28.965h-16.228v28.965z" fill="#F7E8F6"/><path fill-rule="evenodd" clip-rule="evenodd" d="M490.545 663.202h16.229v-28.965h-16.229v28.965zM399.856 692.593h16.228v-28.965h-16.228v28.965zM490.545 423.848h16.229v-28.965h-16.229v28.965zM399.856 378.328h16.228v-28.965h-16.228v28.965zM460.316 692.241h16.228v-28.964h-16.228v28.964z" fill="#F1D5F1"/><path fill-rule="evenodd" clip-rule="evenodd" d="M399.856 812.421h16.228v-28.964h-16.228v28.964zM460.316 483.348h16.228v-28.964h-16.228v28.964zM399.856 570.242h16.228v-28.965h-16.228v28.965zM490.545 315.037h16.229v-28.965h-16.229v28.965zM399.856 270.02h16.228v-28.965h-16.228v28.965zM399.856 298.984h16.228V270.02h-16.228v28.964zM460.316 454.382h16.228v-28.964h-16.228v28.964zM2610.86 578.278h16.22v-28.965h-16.22v28.965zM2610.86 520.348h16.22v-28.964h-16.22v28.964z" fill="#F7E8F6"/><path fill-rule="evenodd" clip-rule="evenodd" d="M2594.89 928.855h139.68V183.813h-139.68v745.042z" fill="#DBACD6"/><path fill-rule="evenodd" clip-rule="evenodd" d="M2734.57 928.855h88.54V183.813h-88.54v745.042z" fill="#F1D5F1"/><path fill-rule="evenodd" clip-rule="evenodd" d="M2594.89 166.63h139.68v-34.065h-139.68v34.065z" fill="#DBACD6"/><path fill-rule="evenodd" clip-rule="evenodd" d="M2620.21 153.065h56.35V119h-56.35v34.065zM2748.2 153.065h56.35V119h-56.35v34.065z" fill="#DBACD6"/><path fill-rule="evenodd" clip-rule="evenodd" d="M2734.57 166.63h88.54v-34.065h-88.54v34.065z" fill="#F1D5F1"/><path fill-rule="evenodd" clip-rule="evenodd" d="M2582 183.813h155.45V166.63H2582v17.183z" fill="#DBACD6"/><path fill-rule="evenodd" clip-rule="evenodd" d="M2737.45 183.813H2836V166.63h-98.55v17.183zM2610.86 928.854h16.22V200.695h-16.22v728.159zM2701.55 928.854h16.22V200.695h-16.22v728.159zM2671.32 928.854h16.22V200.695h-16.22v728.159zM2641.09 928.854h16.22V200.695h-16.22v728.159z" fill="#ECBDED"/><path fill-rule="evenodd" clip-rule="evenodd" d="M2641.09 549.313h16.22v-28.964h-16.22v28.964zM2671.32 816.135h16.22v-28.964h-16.22v28.964zM2671.32 787.171h16.22v-28.965h-16.22v28.965z" fill="#F7E8F6"/><path fill-rule="evenodd" clip-rule="evenodd" d="M2701.55 700.202h16.22v-28.965h-16.22v28.965zM2610.86 729.593h16.22v-28.965h-16.22v28.965zM2701.55 460.848h16.22v-28.965h-16.22v28.965zM2610.86 415.328h16.22v-28.965h-16.22v28.965zM2671.32 729.241h16.22v-28.964h-16.22v28.964z" fill="#F1D5F1"/><path fill-rule="evenodd" clip-rule="evenodd" d="M2610.86 849.421h16.22v-28.964h-16.22v28.964zM2671.32 520.348h16.22v-28.964h-16.22v28.964zM2610.86 607.242h16.22v-28.965h-16.22v28.965zM2701.55 352.037h16.22v-28.965h-16.22v28.965zM2610.86 307.02h16.22v-28.965h-16.22v28.965zM2610.86 335.984h16.22V307.02h-16.22v28.964zM2671.32 491.382h16.22v-28.964h-16.22v28.964z" fill="#F7E8F6"/><path d="M1472.95 587v49.101" stroke="#ECBDED" stroke-width="5.6"/><path fill-rule="evenodd" clip-rule="evenodd" d="M1305 933.828h119.42V617.365H1305v316.463z" fill="#DBACD6"/><path fill-rule="evenodd" clip-rule="evenodd" d="M1424.42 933.828h75.7V617.365h-75.7v316.463z" fill="#ECBDED"/><path fill-rule="evenodd" clip-rule="evenodd" d="M1305 658.368h28.39v-14.73H1305v14.73zM1333.39 672.948h28.39V658.22h-28.39v14.728z" fill="#F1D5F1"/><path fill-rule="evenodd" clip-rule="evenodd" d="M1361.78 658.368h28.39v-14.73h-28.39v14.73z" fill="#F1D5F1"/><path fill-rule="evenodd" clip-rule="evenodd" d="M1305 672.948h28.39V658.22H1305v14.728zM1333.39 772.366h28.39v-14.729h-28.39v14.729zM1434.15 672.948h22V658.22h-22v14.728zM1390.17 846.664h28.39v-14.73h-28.39v14.73z" fill="#F7E8F6"/><path fill-rule="evenodd" clip-rule="evenodd" d="M1390.17 687.678h28.39v-14.729h-28.39v14.729zM1333.39 757.636h28.39v-14.728h-28.39v14.728zM1390.17 772.366h28.39v-14.729h-28.39v14.729zM1434.16 658.368h21.99v-14.73h-21.99v14.73zM1478.13 673.096h21.99v-14.728h-21.99v14.728zM1434.15 729.95h21.99v-14.729h-21.99v14.729zM1361.78 846.664h28.39v-14.73h-28.39v14.73zM1305 884.445h28.39v-14.729H1305v14.729zM1305 687.678h28.39v-14.729H1305v14.729zM2458.78 892.421h82.05V790.593h-82.05v101.828z" fill="#F1D5F1"/><path fill-rule="evenodd" clip-rule="evenodd" d="M2492.25 897.795h11.42v-95.627h-11.42v95.627zM2513.78 897.795h11.43v-95.627h-11.43v95.627z" fill="#DBACD6"/><path d="M2448.25 635v51.557" stroke="#ECBDED" stroke-width="5.6"/><path fill-rule="evenodd" clip-rule="evenodd" d="M2348 901.715h84.15V665.474H2348v236.241z" fill="#ECBDED"/><path fill-rule="evenodd" clip-rule="evenodd" d="M2358.96 895.094h13.17V680.421h-13.17v214.673zM2383.49 895.094h13.17V680.421h-13.17v214.673zM2408.02 895.094h13.17V680.421h-13.17v214.673zM2432.15 901.715h53.35V665.474h-53.35v236.241z" fill="#F1D5F1"/><path fill-rule="evenodd" clip-rule="evenodd" d="M2442.53 895.094h11.42V680.421h-11.42v214.673zM2464.4 895.094h11.43V680.421h-11.43v214.673z" fill="#DBACD6"/><path fill-rule="evenodd" clip-rule="evenodd" d="M2464.4 797.001h11.43v-19.885h-11.43v19.885zM2464.4 738.788h11.43v-19.885h-11.43v19.885zM2442.53 738.788h11.42v-19.885h-11.42v19.885zM2442.54 758.672h11.42v-19.884h-11.42v19.884zM2492.25 853.191h11.42v-19.885h-11.42v19.885zM2513.78 873.075h11.43V853.19h-11.43v19.885zM2442.54 816.885h11.42V797h-11.42v19.885z" fill="#ECBDED"/><path fill-rule="evenodd" clip-rule="evenodd" d="M2464.4 816.885h11.43V797h-11.43v19.885z" fill="#ECBDED"/><path fill-rule="evenodd" clip-rule="evenodd" d="M2090 902.374h109.38V752H2090v150.374z" fill="#DBACD6"/><path fill-rule="evenodd" clip-rule="evenodd" d="M2199.38 902.374h69.33V752h-69.33v150.374z" fill="#ECBDED"/><path fill-rule="evenodd" clip-rule="evenodd" d="M2090 882.936h157.18v-12.97H2090v12.97zM2090 860.57h157.18v-12.969H2090v12.969zM2090 838.205h157.18v-12.97H2090v12.97zM2090 815.839h157.18v-12.97H2090v12.97zM2090 793.473h157.18v-12.969H2090v12.969zM2090 771.108h157.18v-12.97H2090v12.97z" fill="#F1D5F1"/><path fill-rule="evenodd" clip-rule="evenodd" d="M2157.37 882.936h23.14v-12.97h-23.14v12.97zM2157.37 860.57h23.14v-12.969h-23.14v12.969zM2134.22 882.936h23.15v-12.97h-23.15v12.97zM2157.02 815.839h23.14v-12.97h-23.14v12.97zM2100.6 793.473h23.15v-12.969h-23.15v12.969zM2123.75 793.473h23.15v-12.969h-23.15v12.969z" fill="#F7E8F6"/><path fill-rule="evenodd" clip-rule="evenodd" d="M1843.57 902.33h113.07V742.698h-113.07V902.33z" fill="#DBACD6"/><path fill-rule="evenodd" clip-rule="evenodd" d="M1717.25 902.33h126.32V742.698h-126.32V902.33z" fill="#F7E8F6"/><path fill-rule="evenodd" clip-rule="evenodd" d="M1853.4 759.979h125.2V728h-125.2v31.979z" fill="#ECBDED"/><path fill-rule="evenodd" clip-rule="evenodd" d="M1717.25 767.906h239.39v-7.927h-239.39v7.927z" fill="#F1D5F1"/><path fill-rule="evenodd" clip-rule="evenodd" d="M1717.25 782.217h239.39v-7.925h-239.39v7.925z" fill="#ECBDED"/><path fill-rule="evenodd" clip-rule="evenodd" d="M1717.25 857.387h239.39v-7.927h-239.39v7.927z" fill="#F1D5F1"/><path fill-rule="evenodd" clip-rule="evenodd" d="M1717.25 871.697h239.39v-7.926h-239.39v7.926z" fill="#ECBDED"/><path fill-rule="evenodd" clip-rule="evenodd" d="M1694 759.979h159.4V728H1694v31.979z" fill="#DBACD6"/><path fill-rule="evenodd" clip-rule="evenodd" d="M1853.4 849.46h125.2v-53.992h-125.2v53.992z" fill="#ECBDED"/><path fill-rule="evenodd" clip-rule="evenodd" d="M1694 849.46h159.4v-53.992H1694v53.992z" fill="#DBACD6"/><path d="M236.945 570v49.101" stroke="#ECBDED" stroke-width="5.6"/><path fill-rule="evenodd" clip-rule="evenodd" d="M69 916.828h119.42V600.365H69v316.463z" fill="#DBACD6"/><path fill-rule="evenodd" clip-rule="evenodd" d="M188.42 916.828h75.704V600.365H188.42v316.463z" fill="#ECBDED"/><path fill-rule="evenodd" clip-rule="evenodd" d="M69 641.368h28.39v-14.73H69v14.73zM97.39 655.948h28.388V641.22H97.39v14.728z" fill="#F1D5F1"/><path fill-rule="evenodd" clip-rule="evenodd" d="M125.778 641.368h28.388v-14.73h-28.388v14.73z" fill="#F1D5F1"/><path fill-rule="evenodd" clip-rule="evenodd" d="M69 655.948h28.39V641.22H69v14.728zM97.39 755.366h28.388v-14.729H97.39v14.729zM198.151 655.948h21.994V641.22h-21.994v14.728zM154.167 829.664h28.389v-14.73h-28.389v14.73z" fill="#F7E8F6"/><path fill-rule="evenodd" clip-rule="evenodd" d="M154.167 670.678h28.389v-14.729h-28.389v14.729zM97.39 740.636h28.388v-14.728H97.39v14.728zM154.167 755.366h28.389v-14.729h-28.389v14.729zM198.156 641.368h21.989v-14.73h-21.989v14.73zM242.135 656.096h21.989v-14.728h-21.989v14.728zM198.153 712.95h21.989v-14.729h-21.989v14.729zM125.778 829.664h28.388v-14.73h-28.388v14.73zM69 867.445h28.39v-14.729H69v14.729zM97.39 882.175h28.388v-14.73H97.39v14.73zM69 670.678h28.39v-14.729H69v14.729zM1222.78 881.421h82.05V779.593h-82.05v101.828z" fill="#F1D5F1"/><path fill-rule="evenodd" clip-rule="evenodd" d="M1256.25 880.795h11.42v-95.627h-11.42v95.627zM1277.78 880.795h11.43v-95.627h-11.43v95.627z" fill="#DBACD6"/><path d="M1212.25 618v51.557" stroke="#ECBDED" stroke-width="5.6"/><path fill-rule="evenodd" clip-rule="evenodd" d="M1112 884.715h84.15V648.474H1112v236.241z" fill="#ECBDED"/><path fill-rule="evenodd" clip-rule="evenodd" d="M1122.96 878.094h13.17V663.421h-13.17v214.673zM1147.49 878.094h13.17V663.421h-13.17v214.673zM1172.02 878.094h13.17V663.421h-13.17v214.673zM1196.15 884.715h53.35V648.474h-53.35v236.241z" fill="#F1D5F1"/><path fill-rule="evenodd" clip-rule="evenodd" d="M1206.53 878.094h11.42V663.421h-11.42v214.673zM1228.4 878.094h11.43V663.421h-11.43v214.673z" fill="#DBACD6"/><path fill-rule="evenodd" clip-rule="evenodd" d="M1228.4 780.001h11.43v-19.885h-11.43v19.885zM1228.4 721.788h11.43v-19.885h-11.43v19.885zM1206.53 721.788h11.42v-19.885h-11.42v19.885zM1206.54 741.672h11.42v-19.884h-11.42v19.884zM1256.25 836.191h11.42v-19.885h-11.42v19.885zM1277.78 856.075h11.43V836.19h-11.43v19.885zM1206.54 799.885h11.42V780h-11.42v19.885z" fill="#ECBDED"/><path fill-rule="evenodd" clip-rule="evenodd" d="M1228.4 799.885h11.43V780h-11.43v19.885z" fill="#ECBDED"/><path fill-rule="evenodd" clip-rule="evenodd" d="M854 885.374h109.375V735H854v150.374z" fill="#DBACD6"/><path fill-rule="evenodd" clip-rule="evenodd" d="M963.375 885.374h69.335V735h-69.335v150.374z" fill="#ECBDED"/><path fill-rule="evenodd" clip-rule="evenodd" d="M854 865.936h157.18v-12.97H854v12.97zM854 843.57h157.18v-12.969H854v12.969zM854 821.205h157.18v-12.97H854v12.97zM854 798.839h157.18v-12.97H854v12.97zM854 776.473h157.18v-12.969H854v12.969zM854 754.108h157.18v-12.97H854v12.97z" fill="#F1D5F1"/><path fill-rule="evenodd" clip-rule="evenodd" d="M921.366 865.936h23.147v-12.97h-23.147v12.97zM921.366 843.57h23.147v-12.969h-23.147v12.969z" fill="#F7E8F6"/><path fill-rule="evenodd" clip-rule="evenodd" d="M898.22 865.936h23.147v-12.97H898.22v12.97zM921.017 798.839h23.146v-12.97h-23.146v12.97zM864.604 776.473h23.147v-12.969h-23.147v12.969z" fill="#F7E8F6"/><path fill-rule="evenodd" clip-rule="evenodd" d="M887.75 776.473h23.146v-12.969H887.75v12.969z" fill="#F7E8F6"/><path fill-rule="evenodd" clip-rule="evenodd" d="M607.565 885.33h113.072V725.698H607.565V885.33z" fill="#DBACD6"/><path fill-rule="evenodd" clip-rule="evenodd" d="M481.247 885.33h126.318V725.698H481.247V885.33z" fill="#F7E8F6"/><path fill-rule="evenodd" clip-rule="evenodd" d="M617.398 742.979h125.206V711H617.398v31.979z" fill="#ECBDED"/><path fill-rule="evenodd" clip-rule="evenodd" d="M481.247 750.906h239.39v-7.927h-239.39v7.927z" fill="#F1D5F1"/><path fill-rule="evenodd" clip-rule="evenodd" d="M481.247 765.217h239.39v-7.925h-239.39v7.925z" fill="#ECBDED"/><path fill-rule="evenodd" clip-rule="evenodd" d="M481.247 840.387h239.39v-7.927h-239.39v7.927z" fill="#F1D5F1"/><path fill-rule="evenodd" clip-rule="evenodd" d="M481.247 854.697h239.39v-7.926h-239.39v7.926z" fill="#ECBDED"/><path fill-rule="evenodd" clip-rule="evenodd" d="M458 742.979h159.398V711H458v31.979z" fill="#DBACD6"/><path fill-rule="evenodd" clip-rule="evenodd" d="M617.398 832.46h125.206v-53.992H617.398v53.992z" fill="#ECBDED"/><path fill-rule="evenodd" clip-rule="evenodd" d="M458 832.46h159.399v-53.992H458v53.992z" fill="#DBACD6"/><path fill-rule="evenodd" clip-rule="evenodd" d="M2083 217.021c.61.137 39.68 8.782 56.56 28.876l14.64-14.193c-7.31-4.788-35.36-21.018-71.2-14.683" fill="#ECBDED"/><path fill-rule="evenodd" clip-rule="evenodd" d="M2195 215.195c-.61.16-39.38 10.288-55.62 31.014l-15.07-13.627c7.15-5.063 34.67-22.353 70.69-17.387M2244 198.786c.93.19 60.62 12.176 86.4 40.038l22.36-19.68c-11.16-6.638-54.01-29.143-108.76-20.358" fill="#ECBDED"/><path fill-rule="evenodd" clip-rule="evenodd" d="M2415.08 196.253c-.92.222-60.16 14.266-84.96 43.003l-23.02-18.894c10.92-7.021 52.96-30.994 107.98-24.109M2127 316.071c1.17.246 75.82 15.71 108.08 51.656l27.96-25.39c-13.96-8.565-67.56-37.599-136.04-26.266" fill="#ECBDED"/><path fill-rule="evenodd" clip-rule="evenodd" d="M2341 312.804c-1.16.286-75.25 18.405-106.28 55.48l-28.8-24.376c13.67-9.058 66.26-39.988 135.08-31.104M576 321.021c.61.137 39.682 8.782 56.563 28.876l14.635-14.193c-7.305-4.788-35.356-21.018-71.198-14.683" fill="#ECBDED"/><path fill-rule="evenodd" clip-rule="evenodd" d="M688 319.195c-.605.16-39.383 10.288-55.622 31.014l-15.072-13.627c7.15-5.063 34.675-22.353 70.694-17.387M737 302.786c.932.19 60.616 12.176 86.402 40.038l22.354-19.68c-11.158-6.638-54.007-29.143-108.756-20.358" fill="#ECBDED"/><path fill-rule="evenodd" clip-rule="evenodd" d="M908.083 300.253c-.925.222-60.159 14.266-84.965 43.003l-23.022-18.894c10.922-7.021 52.966-30.994 107.987-24.109M620 420.071c1.166.246 75.822 15.71 108.076 51.656l27.962-25.39c-13.957-8.565-67.554-37.599-136.038-26.266" fill="#ECBDED"/><path fill-rule="evenodd" clip-rule="evenodd" d="M834 416.804c-1.157.286-75.249 18.405-106.279 55.48l-28.797-24.376c13.662-9.058 66.253-39.988 135.076-31.104" fill="#ECBDED"/></g><defs><clipPath id="clip0"><path fill="#fff" d="M0 0h2950v880H0z"/></clipPath></defs></svg>