<svg width="2950" height="880" fill="none" xmlns="http://www.w3.org/2000/svg"><g opacity=".7" clip-path="url(#clip0)"><path fill="#fff" d="M0 0h2950v880H0z"/><path fill-rule="evenodd" clip-rule="evenodd" d="M149.465 602.256h148.248V167.389H149.465v434.867z" fill="#A9C6BB"/><path fill-rule="evenodd" clip-rule="evenodd" d="M323.259 137v477.545h-25.547V167.388h-148.25v447.157h-25.423V137h199.22z" fill="#BAF0ED"/><path fill-rule="evenodd" clip-rule="evenodd" d="M124.042 634.877h199.221v-60.962H124.042v60.962z" fill="#BAF0ED"/><path fill-rule="evenodd" clip-rule="evenodd" d="M335 614.545H186.508l-37.046-40.628h148.493L335 614.545zM285.584 573.915h12.128V167.389h-12.128v406.526zM118 634.877h6.039V137H118v497.877z" fill="#A2C6B0"/><path fill-rule="evenodd" clip-rule="evenodd" d="M149.465 573.914h143.202v-18.058H149.465v18.058zM149.462 288.398h143.186v-16.616H149.462v16.616z" fill="#ADE1C2"/><path fill-rule="evenodd" clip-rule="evenodd" d="M466.465 602.256h148.248V167.389H466.465v434.867z" fill="#A9C6BB"/><path fill-rule="evenodd" clip-rule="evenodd" d="M640.259 137v477.545h-25.547V167.388h-148.25v447.157h-25.423V137h199.22z" fill="#BAF0ED"/><path fill-rule="evenodd" clip-rule="evenodd" d="M441.042 634.877h199.221v-60.962H441.042v60.962z" fill="#BAF0ED"/><path fill-rule="evenodd" clip-rule="evenodd" d="M652 614.545H503.508l-37.046-40.628h148.493L652 614.545zM602.584 573.915h12.128V167.389h-12.128v406.526zM435 634.877h6.039V137H435v497.877z" fill="#A2C6B0"/><path fill-rule="evenodd" clip-rule="evenodd" d="M466.465 573.914h143.202v-18.058H466.465v18.058zM466.462 288.398h143.186v-16.616H466.462v16.616z" fill="#ADE1C2"/><path fill-rule="evenodd" clip-rule="evenodd" d="M783.465 602.256h148.248V167.389H783.465v434.867z" fill="#A9C6BB"/><path fill-rule="evenodd" clip-rule="evenodd" d="M957.259 137v477.545h-25.547V167.388h-148.25v447.157h-25.423V137h199.22z" fill="#BAF0ED"/><path fill-rule="evenodd" clip-rule="evenodd" d="M758.042 634.877h199.221v-60.962H758.042v60.962z" fill="#BAF0ED"/><path fill-rule="evenodd" clip-rule="evenodd" d="M969 614.545H820.508l-37.046-40.628h148.493L969 614.545zM919.584 573.915h12.128V167.389h-12.128v406.526zM752 634.877h6.039V137H752v497.877z" fill="#A2C6B0"/><path fill-rule="evenodd" clip-rule="evenodd" d="M783.465 573.914h143.202v-18.058H783.465v18.058zM783.462 288.398h143.186v-16.616H783.462v16.616z" fill="#ADE1C2"/><path fill-rule="evenodd" clip-rule="evenodd" d="M2804.53 602.256h-148.24V167.389h148.24v434.867z" fill="#A9C6BB"/><path fill-rule="evenodd" clip-rule="evenodd" d="M2630.74 137v477.545h25.55V167.388h148.25v447.157h25.42V137h-199.22z" fill="#BAF0ED"/><path fill-rule="evenodd" clip-rule="evenodd" d="M2829.96 634.877h-199.22v-60.962h199.22v60.962z" fill="#BAF0ED"/><path fill-rule="evenodd" clip-rule="evenodd" d="M2619 614.545h148.49l37.05-40.628h-148.5L2619 614.545zM2668.42 573.915h-12.13V167.389h12.13v406.526zM2836 634.877h-6.04V137h6.04v497.877z" fill="#A2C6B0"/><path fill-rule="evenodd" clip-rule="evenodd" d="M2804.53 573.914h-143.2v-18.058h143.2v18.058zM2804.54 288.398h-143.19v-16.616h143.19v16.616z" fill="#ADE1C2"/><path fill-rule="evenodd" clip-rule="evenodd" d="M2487.53 602.256h-148.24V167.389h148.24v434.867z" fill="#A9C6BB"/><path fill-rule="evenodd" clip-rule="evenodd" d="M2313.74 137v477.545h25.55V167.388h148.25v447.157h25.42V137h-199.22z" fill="#BAF0ED"/><path fill-rule="evenodd" clip-rule="evenodd" d="M2512.96 634.877h-199.22v-60.962h199.22v60.962z" fill="#BAF0ED"/><path fill-rule="evenodd" clip-rule="evenodd" d="M2302 614.545h148.49l37.05-40.628h-148.5L2302 614.545zM2351.42 573.915h-12.13V167.389h12.13v406.526zM2519 634.877h-6.04V137h6.04v497.877z" fill="#A2C6B0"/><path fill-rule="evenodd" clip-rule="evenodd" d="M2487.53 573.914h-143.2v-18.058h143.2v18.058zM2487.54 288.398h-143.19v-16.616h143.19v16.616z" fill="#ADE1C2"/><path fill-rule="evenodd" clip-rule="evenodd" d="M2170.53 602.256h-148.24V167.389h148.24v434.867z" fill="#A9C6BB"/><path fill-rule="evenodd" clip-rule="evenodd" d="M1996.74 137v477.545h25.55V167.388h148.25v447.157h25.42V137h-199.22z" fill="#BAF0ED"/><path fill-rule="evenodd" clip-rule="evenodd" d="M2195.96 634.877h-199.22v-60.962h199.22v60.962z" fill="#BAF0ED"/><path fill-rule="evenodd" clip-rule="evenodd" d="M1985 614.545h148.49l37.05-40.628h-148.5L1985 614.545zM2034.42 573.915h-12.13V167.389h12.13v406.526zM2202 634.877h-6.04V137h6.04v497.877z" fill="#A2C6B0"/><path fill-rule="evenodd" clip-rule="evenodd" d="M2170.53 573.914h-143.2v-18.058h143.2v18.058zM2170.54 288.398h-143.19v-16.616h143.19v16.616z" fill="#ADE1C2"/><path fill-rule="evenodd" clip-rule="evenodd" d="M411.853 769.433c0 21.48-17.413 38.894-38.894 38.894-21.48 0-38.894-17.414-38.894-38.894 0-21.481 17.414-38.893 38.894-38.893 21.481 0 38.894 17.412 38.894 38.893" fill="#95C4AD"/><path clip-rule="evenodd" d="M411.853 769.433c0 21.48-17.413 38.894-38.894 38.894-21.48 0-38.894-17.414-38.894-38.894 0-21.481 17.414-38.893 38.894-38.893 21.481 0 38.894 17.412 38.894 38.893z" stroke="#75AE9A" stroke-width="11.2"/><path fill-rule="evenodd" clip-rule="evenodd" d="M728.83 769.435c0 10.376-8.411 18.789-18.789 18.789-10.377 0-18.789-8.413-18.789-18.789 0-10.378 8.412-18.789 18.789-18.789 10.378 0 18.789 8.411 18.789 18.789" fill="#95C4AD"/><path clip-rule="evenodd" d="M728.83 769.435c0 10.376-8.411 18.789-18.789 18.789-10.377 0-18.789-8.413-18.789-18.789 0-10.378 8.412-18.789 18.789-18.789 10.378 0 18.789 8.411 18.789 18.789z" stroke="#75AE9A" stroke-width="11.2"/><path clip-rule="evenodd" d="M479.918 769.433c0 59.071-47.888 106.959-106.959 106.959-59.071 0-106.959-47.888-106.959-106.959 0-59.072 47.888-106.959 106.959-106.959 59.071 0 106.959 47.887 106.959 106.959zM817 769.433c0 59.071-47.888 106.959-106.959 106.959-59.071 0-106.959-47.888-106.959-106.959 0-59.072 47.888-106.959 106.959-106.959 59.071 0 106.959 47.887 106.959 106.959z" stroke="#BCBDBC" stroke-width="7.7"/><path d="M457.635 592.386l52.06 177.05 164.628-142.83-207.774-2.213-93.59 145.043h136.736" stroke="#95C4AD" stroke-width="8.4" stroke-linejoin="bevel"/><path d="M590.118 562h64.823l55.101 208.752" stroke="#95C4AD" stroke-width="8.4"/><path fill-rule="evenodd" clip-rule="evenodd" d="M492.62 603.042l-62.023 6.619c-6.694.715-12.585-3.933-12.585-9.93v-6.619c0-5.522 5.034-10 11.245-10h62.023c6.21 0 11.244 4.478 11.244 10 0 5.063-4.253 9.326-9.904 9.93" fill="#75AE9A"/><path d="M512.43 769.435v47.199h-19.397 38.805" stroke="#75AE9A" stroke-width="9.1"/><path fill-rule="evenodd" clip-rule="evenodd" d="M2542.15 769.433c0 21.48 17.41 38.894 38.89 38.894s38.89-17.414 38.89-38.894c0-21.481-17.41-38.893-38.89-38.893s-38.89 17.412-38.89 38.893" fill="#95C4AD"/><path clip-rule="evenodd" d="M2542.15 769.433c0 21.48 17.41 38.894 38.89 38.894s38.89-17.414 38.89-38.894c0-21.481-17.41-38.893-38.89-38.893s-38.89 17.412-38.89 38.893z" stroke="#75AE9A" stroke-width="11.2"/><path fill-rule="evenodd" clip-rule="evenodd" d="M2225.17 769.435c0 10.376 8.41 18.789 18.79 18.789 10.38 0 18.79-8.413 18.79-18.789 0-10.378-8.41-18.789-18.79-18.789-10.38 0-18.79 8.411-18.79 18.789" fill="#95C4AD"/><path clip-rule="evenodd" d="M2225.17 769.435c0 10.376 8.41 18.789 18.79 18.789 10.38 0 18.79-8.413 18.79-18.789 0-10.378-8.41-18.789-18.79-18.789-10.38 0-18.79 8.411-18.79 18.789z" stroke="#75AE9A" stroke-width="11.2"/><path clip-rule="evenodd" d="M2474.08 769.433c0 59.071 47.89 106.959 106.96 106.959 59.07 0 106.96-47.888 106.96-106.959 0-59.072-47.89-106.959-106.96-106.959-59.07 0-106.96 47.887-106.96 106.959zM2137 769.433c0 59.071 47.89 106.959 106.96 106.959 59.07 0 106.96-47.888 106.96-106.959 0-59.072-47.89-106.959-106.96-106.959-59.07 0-106.96 47.887-106.96 106.959z" stroke="#BCBDBC" stroke-width="7.7"/><path d="M2496.37 592.386l-52.07 177.05-164.62-142.83 207.77-2.213 93.59 145.043H2444.3" stroke="#95C4AD" stroke-width="8.4" stroke-linejoin="bevel"/><path d="M2363.88 562h-64.82l-55.1 208.752" stroke="#95C4AD" stroke-width="8.4"/><path fill-rule="evenodd" clip-rule="evenodd" d="M2461.38 603.042l62.02 6.619c6.7.715 12.59-3.933 12.59-9.93v-6.619c0-5.522-5.04-10-11.25-10h-62.02c-6.21 0-11.24 4.478-11.24 10 0 5.063 4.25 9.326 9.9 9.93" fill="#75AE9A"/><path d="M2441.57 769.435v47.199h19.4-38.81" stroke="#75AE9A" stroke-width="9.1"/><path fill-rule="evenodd" clip-rule="evenodd" d="M1496.93 671.259c2.74 20.503-6.59 37.991-6.59 37.991s-13.77-15.754-16.52-36.258c-2.74-20.504 6.59-37.992 6.59-37.992s13.77 15.755 16.52 36.259" fill="#6AA287"/><path fill-rule="evenodd" clip-rule="evenodd" d="M1492.91 684.652c12.28 18.445 11.83 37.272 11.83 37.272s-20.34-11.077-32.61-29.522-11.83-37.273-11.83-37.273 20.34 11.078 32.61 29.523" fill="#6AA287"/><path fill-rule="evenodd" clip-rule="evenodd" d="M1508.32 673.488c-3.26 20.462-17.43 36.019-17.43 36.019s-8.89-17.616-5.63-38.077c3.26-20.462 17.43-36.019 17.43-36.019s8.89 17.616 5.63 38.077" fill="#6AA287"/><path fill-rule="evenodd" clip-rule="evenodd" d="M1518.54 688.31c-10.27 19.118-29.37 31.375-29.37 31.375s-2.44-18.742 7.83-37.86 29.36-31.374 29.36-31.374 2.45 18.741-7.82 37.859" fill="#6AA287"/><path fill-rule="evenodd" clip-rule="evenodd" d="M1589.92 749.319c0 40.515-43.19 73.36-96.46 73.36-53.27 0-96.46-32.845-96.46-73.36s43.19-73.359 96.46-73.359c53.27 0 96.46 32.844 96.46 73.359" fill="#A2C6B0"/><path fill-rule="evenodd" clip-rule="evenodd" d="M1553.21 880.091h-109.72c-16.84 0-30.49-15.069-30.49-33.658v-5.8c0-18.588 13.65-33.657 30.49-33.657h109.72c16.83 0 30.48 15.069 30.48 33.657v5.8c0 18.589-13.65 33.658-30.48 33.658" fill="#D6FFE6"/><path d="M1438.34 697.551l-17.78-15.212M1413 776.259l-16 12.098M1459.51 769.66l27.62 4.947M1530.13 695.077l16.67-22.617M1560.58 719.685l18.22-12.811M1564.13 785.876l17.34 12.268" stroke="#A9C6BB" stroke-width="6.3"/><path d="M1467.53 724.752l-8.25-21.052M1546.44 747.711l-19.82 10.361M1450.55 735.67l-18.87-13.783" stroke="#fff" stroke-width="6.3"/><path d="M1413 836.188l34.14 14.692 34.14-14.692 34.13 14.692 34.14-14.692 34.14 14.692" stroke="#A9C6BB" stroke-width="6.3"/><path fill-rule="evenodd" clip-rule="evenodd" d="M37.79 329.097c9.928 13.522 9.569 27.324 9.569 27.324s-16.456-8.121-26.384-21.642c-9.928-13.522-9.568-27.324-9.568-27.324s16.455 8.121 26.383 21.642" fill="#A2C6B0"/><path fill-rule="evenodd" clip-rule="evenodd" d="M50.254 320.913c-2.637 15-14.101 26.404-14.101 26.404s-7.19-12.914-4.552-27.913C34.236 304.405 45.7 293 45.7 293s7.19 12.913 4.553 27.913" fill="#A2C6B0"/><path fill-rule="evenodd" clip-rule="evenodd" d="M58.521 331.779c-8.308 14.015-23.758 23-23.758 23s-1.979-13.739 6.329-27.755c8.308-14.015 23.757-22.999 23.757-22.999s1.98 13.739-6.328 27.754" fill="#A2C6B0"/><path fill-rule="evenodd" clip-rule="evenodd" d="M38.23 503.836c-21.1 0-38.366-17.27-38.366-38.378V362.501c0-21.109 17.265-38.38 38.366-38.38 21.102 0 38.366 17.271 38.366 38.38v102.957c0 21.108-17.264 38.378-38.366 38.378" fill="#D6FFE6"/><path fill-rule="evenodd" clip-rule="evenodd" d="M38.23 812.913c-21.1 0-38.366-17.271-38.366-38.378V525.431c0-21.108 17.265-38.379 38.366-38.379 21.102 0 38.366 17.271 38.366 38.379v249.104c0 21.107-17.264 38.378-38.366 38.378" fill="#D6FFE6"/><path fill-rule="evenodd" clip-rule="evenodd" d="M47.949 594.583v10.916c0 11.908-9.65 21.56-21.553 21.56h-72.71c-38.687 0-70.049-31.373-70.049-70.073v-49.359c0-16.053 13.009-29.067 29.058-29.067 16.048 0 29.057 13.014 29.057 29.067v42.265c0 12.775 10.353 23.13 23.123 23.13h61.52c11.904 0 21.554 9.654 21.554 21.561M32.428 715.123v9.904c0 10.802 8.754 19.56 19.553 19.56h65.964c35.098 0 63.552-28.463 63.552-63.573v-44.78c0-14.564-11.803-26.371-26.362-26.371-14.56 0-26.363 11.807-26.363 26.371v38.344c0 11.59-9.392 20.985-20.977 20.985H51.981c-10.799 0-19.553 8.757-19.553 19.56" fill="#D6FFE6"/><path fill-rule="evenodd" clip-rule="evenodd" d="M88.67 881.279H.683c-22.733 0-41.333-18.607-41.333-41.347v-80.647h170.653v80.647c0 22.74-18.599 41.347-41.333 41.347" fill="#BAF0ED"/><path d="M130.002 802.269H-7.502M130.003 835.241H-9.821" stroke="#D6FFE6" stroke-width="6.3"/><path d="M50.835 524.919l17.782-9.825M30.148 592.466L17.257 579.57M72.3 645.172l17.189-9.723M23.703 681.471l-12.297-13.616M100.538 702.587l-10.436-12.889M139.211 645.172l-15.96-15.229M175.224 674.663l14.733-10.831M164.788 617.643l6.139-15.352M65.056 445.706l19.52-12.282M11.405 359.737l-11.54-12.42M70.458 353.527l14.733-13.44M29.383 421.143l-17.977-10.439M8.458 478.56l-18.28-6.45" stroke="#A9D8BC" stroke-width="6.3"/><path d="M47.95 392.897l17.107-12.281M35.878 555.622l-15.756-10.336M49.022 710.979l4.863-21.281M140.438 710.979l13.506-8.392" stroke="#fff" stroke-width="6.3"/><path fill-rule="evenodd" clip-rule="evenodd" d="M2911.79 330.097c9.93 13.522 9.57 27.324 9.57 27.324s-16.46-8.121-26.38-21.642c-9.93-13.522-9.57-27.324-9.57-27.324s16.45 8.121 26.38 21.642" fill="#A2C6B0"/><path fill-rule="evenodd" clip-rule="evenodd" d="M2924.25 321.913c-2.63 15-14.1 26.404-14.1 26.404s-7.19-12.914-4.55-27.913c2.64-14.999 14.1-26.404 14.1-26.404s7.19 12.913 4.55 27.913" fill="#A2C6B0"/><path fill-rule="evenodd" clip-rule="evenodd" d="M2932.52 332.779c-8.31 14.015-23.76 23-23.76 23s-1.98-13.739 6.33-27.755c8.31-14.015 23.76-22.999 23.76-22.999s1.98 13.739-6.33 27.754" fill="#A2C6B0"/><path fill-rule="evenodd" clip-rule="evenodd" d="M2912.23 504.836c-21.1 0-38.37-17.27-38.37-38.378V363.501c0-21.109 17.27-38.38 38.37-38.38 21.1 0 38.37 17.271 38.37 38.38v102.957c0 21.108-17.27 38.378-38.37 38.378" fill="#D6FFE6"/><path fill-rule="evenodd" clip-rule="evenodd" d="M2912.23 813.913c-21.1 0-38.37-17.271-38.37-38.378V526.431c0-21.108 17.27-38.379 38.37-38.379 21.1 0 38.37 17.271 38.37 38.379v249.104c0 21.107-17.27 38.378-38.37 38.378" fill="#D6FFE6"/><path fill-rule="evenodd" clip-rule="evenodd" d="M2921.95 595.583v10.916c0 11.908-9.65 21.56-21.55 21.56h-72.71c-38.69 0-70.05-31.373-70.05-70.073v-49.359c0-16.053 13.01-29.067 29.05-29.067 16.05 0 29.06 13.014 29.06 29.067v42.265c0 12.775 10.35 23.13 23.13 23.13h61.52c11.9 0 21.55 9.654 21.55 21.561M2906.43 716.123v9.904c0 10.802 8.75 19.56 19.55 19.56h65.97c35.09 0 63.55-28.463 63.55-63.573v-44.78c0-14.564-11.81-26.371-26.37-26.371s-26.36 11.807-26.36 26.371v38.344c0 11.59-9.39 20.985-20.98 20.985h-55.81c-10.8 0-19.55 8.757-19.55 19.56" fill="#D6FFE6"/><path fill-rule="evenodd" clip-rule="evenodd" d="M2962.67 882.279h-87.99c-22.73 0-41.33-18.607-41.33-41.347v-80.647H3004v80.647c0 22.74-18.6 41.347-41.33 41.347" fill="#BAF0ED"/><path d="M3004 803.269h-137.5M3004 836.241h-139.82" stroke="#D6FFE6" stroke-width="6.3"/><path d="M2763.37 525.217L2747 512.526M2807.57 497.058l13.5-9.006M2807.98 551.915l17.59-7.983M2790.54 580.57l-17.66-12.281M2843.17 581.798l8.43-13.509M2924.83 525.919l17.79-9.825M2904.15 593.466l-12.89-12.896M2946.3 646.172l17.19-9.723M2897.7 682.471l-12.29-13.616M2939.06 446.706l19.52-12.282M2885.41 360.737l-11.55-12.42M2944.46 354.527l14.73-13.44M2903.38 422.143l-17.97-10.439M2882.46 479.56l-18.28-6.45" stroke="#A9D8BC" stroke-width="6.3"/><path d="M2921.95 393.897l17.11-12.281M2909.88 556.622l-15.76-10.336M2923.02 711.979l4.86-21.281M2834.25 606.975l-19.93-6.14" stroke="#fff" stroke-width="6.3"/></g><defs><clipPath id="clip0"><path fill="#fff" d="M0 0h2950v880H0z"/></clipPath></defs></svg>