<svg width="2950" height="880" fill="none" xmlns="http://www.w3.org/2000/svg"><g opacity=".7" clip-path="url(#clip0)"><path fill="#fff" d="M0 0h2950v880H0z"/><path fill-rule="evenodd" clip-rule="evenodd" d="M918 873.91h157.86V678H918v195.91z" fill="#EEA277"/><path fill-rule="evenodd" clip-rule="evenodd" d="M982.519 872.172h21.991V688.194h-21.991v183.978zM1023.95 872.172h21.98V688.194h-21.98v183.978z" fill="#DDBC9D"/><path d="M897.872 366.574v99.192" stroke="#E8D7C8" stroke-width="5.6"/><path fill-rule="evenodd" clip-rule="evenodd" d="M705 879.715h161.903V425.204H705v454.511z" fill="#E8D7C8"/><path fill-rule="evenodd" clip-rule="evenodd" d="M726.089 866.976h25.336V453.962h-25.336v413.014zM773.284 866.976h25.337V453.962h-25.337v413.014zM820.48 866.976h25.336V453.962H820.48v413.014zM866.905 879.715H969.54V425.204H866.905v454.511z" fill="#EEA277"/><path fill-rule="evenodd" clip-rule="evenodd" d="M886.861 866.976h21.987V453.962h-21.987v413.014zM928.944 866.976h21.988V453.962h-21.988v413.014z" fill="#DDBC9D"/><path fill-rule="evenodd" clip-rule="evenodd" d="M928.944 678.252h21.988v-38.257h-21.988v38.257zM928.944 566.254h21.988v-38.257h-21.988v38.257zM886.861 566.254h21.987v-38.257h-21.987v38.257zM886.879 604.511h21.988v-38.257h-21.988v38.257zM982.519 786.357h21.991V748.1h-21.991v38.257zM1023.95 824.613h21.98v-38.256h-21.98v38.256zM886.879 716.507h21.988v-38.256h-21.988v38.256z" fill="#E8D7C8"/><path fill-rule="evenodd" clip-rule="evenodd" d="M928.944 716.507h21.988v-38.256h-21.988v38.256z" fill="#E8D7C8"/><path fill-rule="evenodd" clip-rule="evenodd" d="M1254.71 869.374h-109.37V719h109.37v150.374z" fill="#DDBC9D"/><path fill-rule="evenodd" clip-rule="evenodd" d="M1145.34 869.374H1076V719h69.34v150.374z" fill="#E8D7C8"/><path fill-rule="evenodd" clip-rule="evenodd" d="M1254.71 849.936h-157.18v-12.969h157.18v12.969zM1254.71 827.57h-157.18v-12.969h157.18v12.969zM1254.71 805.205h-157.18v-12.97h157.18v12.97zM1254.71 782.839h-157.18v-12.97h157.18v12.97zM1254.71 760.473h-157.18v-12.969h157.18v12.969zM1254.71 738.108h-157.18v-12.97h157.18v12.97z" fill="#EEA277"/><path fill-rule="evenodd" clip-rule="evenodd" d="M1187.34 849.936h-23.14v-12.97h23.14v12.97zM1187.34 827.57h-23.14v-12.969h23.14v12.969zM1210.49 849.936h-23.15v-12.97h23.15v12.97zM1187.69 782.839h-23.14v-12.97h23.14v12.97zM1244.11 760.473h-23.15v-12.969h23.15v12.969z" fill="#FFEBE0"/><path fill-rule="evenodd" clip-rule="evenodd" d="M1220.96 760.473h-23.14v-12.969h23.14v12.969z" fill="#FFEBE0"/><path clip-rule="evenodd" d="M810.952 804.854v62.594h-62.593v-62.594h62.593z" stroke="#EEA277" stroke-width="8.55"/><path d="M748.359 804.854l62.593 62.594M748.359 867.448l62.593-62.594" stroke="#EEA277" stroke-width="8.55"/><path clip-rule="evenodd" d="M685.765 804.854v62.594h-62.593v-62.594h62.593z" stroke="#EEA277" stroke-width="8.55"/><path d="M623.172 804.854l62.593 62.594M623.172 867.448l62.593-62.594" stroke="#EEA277" stroke-width="8.55"/><path clip-rule="evenodd" d="M748.359 804.854v62.594h-62.594v-62.594h62.594z" stroke="#EEA277" stroke-width="8.55"/><path d="M685.765 804.854l62.593 62.594M685.765 867.448l62.593-62.594M685.765 742.26v62.593h-62.593V742.26zM623.172 742.26l62.593 62.594M623.172 804.854l62.593-62.594" stroke="#EEA277" stroke-width="8.55"/><path clip-rule="evenodd" d="M529.972 804.844v62.594h-62.593v-62.594h62.593z" stroke="#EEA277" stroke-width="8.55"/><path d="M467.379 804.854l62.593 62.594M467.379 867.448l62.593-62.594" stroke="#EEA277" stroke-width="8.55"/><path d="M548.596 452.042l-78.885 78.875M548.888 451.74l79.47 79.47M548.888 249.252v203.202" stroke="#EEA277" stroke-width="5.7" stroke-linecap="round"/><path fill="#EEA277" d="M573.082 256.185h-48.379v-24.889h48.379z"/><path fill-rule="evenodd" clip-rule="evenodd" d="M548.888 224.993c11.69 0 21.167-9.476 21.167-21.166s-9.477-21.167-21.167-21.167c-11.689 0-21.166 9.477-21.166 21.167 0 11.69 9.477 21.166 21.166 21.166z" fill="#EEA277"/><path d="M69.564 196.61L246.852 41M549.602 178.105L246.852 41" stroke="#EEA277" stroke-width="5.7" stroke-linecap="round"/><path stroke="#EEA277" stroke-width="8.55" d="M278.153 812.592H215.56v-62.593h62.593zM278.144 750.008l-62.593 62.593M215.551 750.008l62.593 62.593M278.153 687.405H215.56v-62.593h62.593zM278.144 624.821l-62.593 62.593M215.551 624.821l62.593 62.593"/><path stroke="#EEA277" stroke-width="8.55" d="M278.153 749.999H215.56v-62.593h62.593zM278.144 687.415l-62.593 62.593M215.551 687.415l62.593 62.593"/><path fill="#EEA277" d="M294.71 310.629h-95.715v-74.933h95.715z"/><path stroke="#EEA277" stroke-width="8.55" d="M278.153 624.812H215.56v-62.593h62.593zM278.144 562.228l-62.593 62.593M215.551 562.228l62.593 62.593M278.153 499.625H215.56v-62.593h62.593zM278.144 437.031l-62.593 62.594M215.551 437.031l62.593 62.594M278.153 562.219H215.56v-62.593h62.593zM278.144 499.625l-62.593 62.603M215.551 499.625l62.593 62.603M278.153 437.031H215.56v-62.593h62.593zM278.144 374.439l-62.593 62.593M215.551 374.439l62.593 62.593M278.153 311.845H215.56v-62.593h62.593zM278.144 249.252l-62.593 62.593M215.551 249.252l62.593 62.593"/><path stroke="#EEA277" stroke-width="8.55" d="M278.153 374.439H215.56v-62.593h62.593zM278.144 311.845l-62.593 62.594M215.551 311.845l62.593 62.594"/><path fill="#EEA277" d="M374.179 873.805H119.534v-61.212h254.645z"/><rect x="665.258" y="690.324" width="231.32" height="166.303" rx="15.789" transform="rotate(-180 665.258 690.324)" fill="#EAC1A3"/><path fill-rule="evenodd" clip-rule="evenodd" d="M665.258 563.408H433.937v-24.185c0-8.396 6.807-15.203 15.203-15.203h200.924c8.396 0 15.203 6.807 15.203 15.203v24.185h-.009z" fill="#EEA277"/><path fill="#EEA277" d="M321.629 311.525H172.074v-35.207h149.555zM336.813 224.49H32.966v-27.807h303.847z"/><path fill="#EAC1A3" d="M174.636 210.577h-59.895v-28.722h59.895zM102.264 210.577H42.369v-28.722h59.895z"/><path d="M246.852 177.118V41M306.143 164.184L246.852 41M187.561 164.184L246.852 41" stroke="#EEA277" stroke-width="7.6" stroke-linecap="round"/><path fill="#EEA277" d="M309.83 250.815H183.875V157.35H309.83z"/><path fill="#EEA277" d="M309.83 233.573h-66.582v-58.989h66.582z"/><path clip-rule="evenodd" d="M713.572 231.296l-53.19-53.19v53.19h53.19z" stroke="#EEA277" stroke-width="6.65" stroke-linejoin="round"/><path clip-rule="evenodd" d="M602.792 178.106v53.199h-53.199v-53.199h53.199z" stroke="#EEA277" stroke-width="6.65"/><path d="M549.602 178.106l53.199 53.19M549.602 231.296l53.199-53.19" stroke="#EEA277" stroke-width="6.65"/><path clip-rule="evenodd" d="M655.992 178.106v53.199h-53.2v-53.199h53.2z" stroke="#EEA277" stroke-width="6.65"/><path d="M602.801 178.106l53.19 53.19M602.801 231.296l53.19-53.19" stroke="#EEA277" stroke-width="6.65"/><path clip-rule="evenodd" d="M549.602 178.106v53.199h-53.199v-53.199h53.199z" stroke="#EEA277" stroke-width="6.65"/><path d="M496.403 178.106l53.199 53.19M496.403 231.296l53.199-53.19" stroke="#EEA277" stroke-width="6.65"/><path clip-rule="evenodd" d="M443.212 178.106v53.199h-53.199v-53.199h53.199z" stroke="#EEA277" stroke-width="6.65"/><path d="M390.013 178.106l53.199 53.19M390.013 231.296l53.199-53.19" stroke="#EEA277" stroke-width="6.65"/><path clip-rule="evenodd" d="M496.403 178.096v53.2h-53.2v-53.2h53.2z" stroke="#EEA277" stroke-width="6.65"/><path d="M443.212 178.106l53.191 53.19M443.212 231.296l53.191-53.19" stroke="#EEA277" stroke-width="6.65"/><path clip-rule="evenodd" d="M390.013 178.106v53.199h-53.2v-53.199h53.2z" stroke="#EEA277" stroke-width="6.65"/><path d="M336.813 178.106l53.2 53.19M336.813 231.296l53.2-53.19" stroke="#EEA277" stroke-width="6.65"/><path fill-rule="evenodd" clip-rule="evenodd" d="M642.216 553.822c5.744 0 10.4-4.656 10.4-10.4 0-5.744-4.656-10.401-10.4-10.401-5.744 0-10.4 4.657-10.4 10.401s4.656 10.4 10.4 10.4zM609.314 553.822c5.744 0 10.4-4.656 10.4-10.4 0-5.744-4.656-10.401-10.4-10.401-5.744 0-10.4 4.657-10.4 10.401s4.656 10.4 10.4 10.4zM576.421 553.822c5.744 0 10.4-4.656 10.4-10.4 0-5.744-4.656-10.401-10.4-10.401-5.744 0-10.4 4.657-10.4 10.401s4.656 10.4 10.4 10.4zM548.893 470.639l-18.9-18.899 18.9-18.9 18.899 18.9-18.899 18.899zM1602 879.348H0z" fill="#F0F0EF"/><path d="M1602 879.348H0" stroke="#EAC1A3" stroke-width="19" stroke-linecap="round"/><path fill-rule="evenodd" clip-rule="evenodd" d="M1700 872.374h109.38V722H1700v150.374z" fill="#DDBC9D"/><path fill-rule="evenodd" clip-rule="evenodd" d="M1809.38 872.374h69.33V722h-69.33v150.374z" fill="#E8D7C8"/><path fill-rule="evenodd" clip-rule="evenodd" d="M1700 852.936h157.18v-12.969H1700v12.969zM1700 830.57h157.18v-12.969H1700v12.969zM1700 808.205h157.18v-12.97H1700v12.97zM1700 785.839h157.18v-12.97H1700v12.97zM1700 763.473h157.18v-12.969H1700v12.969zM1700 741.108h157.18v-12.97H1700v12.97z" fill="#EEA277"/><path fill-rule="evenodd" clip-rule="evenodd" d="M1767.37 852.936h23.14v-12.97h-23.14v12.97zM1767.37 830.57h23.14v-12.969h-23.14v12.969z" fill="#FFEBE0"/><path fill-rule="evenodd" clip-rule="evenodd" d="M1744.22 852.936h23.15v-12.97h-23.15v12.97zM1767.02 785.839h23.14v-12.97h-23.14v12.97zM1710.6 763.473h23.15v-12.969h-23.15v12.969zM1733.75 763.473h23.15v-12.969h-23.15v12.969z" fill="#FFEBE0"/><path fill-rule="evenodd" clip-rule="evenodd" d="M2032 873.91h-157.86V678H2032v195.91z" fill="#EEA277"/><path fill-rule="evenodd" clip-rule="evenodd" d="M1967.48 872.172h-21.99V688.194h21.99v183.978zM1926.05 872.172h-21.98V688.194h21.98v183.978z" fill="#DDBC9D"/><path d="M2052.13 366.574v99.192" stroke="#E8D7C8" stroke-width="5.6"/><path fill-rule="evenodd" clip-rule="evenodd" d="M2245 879.715h-161.9V425.204H2245v454.511z" fill="#E8D7C8"/><path fill-rule="evenodd" clip-rule="evenodd" d="M2223.91 866.976h-25.34V453.962h25.34v413.014zM2176.72 866.976h-25.34V453.962h25.34v413.014zM2129.52 866.976h-25.34V453.962h25.34v413.014zM2083.09 879.715h-102.63V425.204h102.63v454.511z" fill="#EEA277"/><path fill-rule="evenodd" clip-rule="evenodd" d="M2063.14 866.976h-21.99V453.962h21.99v413.014zM2021.06 866.976h-21.99V453.962h21.99v413.014z" fill="#DDBC9D"/><path fill-rule="evenodd" clip-rule="evenodd" d="M2021.06 678.252h-21.99v-38.257h21.99v38.257zM2021.06 566.254h-21.99v-38.257h21.99v38.257zM2063.14 566.254h-21.99v-38.257h21.99v38.257zM2063.12 604.511h-21.99v-38.257h21.99v38.257zM1967.48 786.357h-21.99V748.1h21.99v38.257zM1926.05 824.613h-21.98v-38.256h21.98v38.256zM2063.12 716.507h-21.99v-38.256h21.99v38.256z" fill="#E8D7C8"/><path fill-rule="evenodd" clip-rule="evenodd" d="M2021.06 716.507h-21.99v-38.256h21.99v38.256z" fill="#E8D7C8"/><path clip-rule="evenodd" d="M2139.05 804.854v62.594h62.59v-62.594h-62.59z" stroke="#EEA277" stroke-width="8.55"/><path d="M2201.64 804.854l-62.59 62.594M2201.64 867.448l-62.59-62.594" stroke="#EEA277" stroke-width="8.55"/><path clip-rule="evenodd" d="M2264.23 804.854v62.594h62.6v-62.594h-62.6z" stroke="#EEA277" stroke-width="8.55"/><path d="M2326.83 804.854l-62.6 62.594M2326.83 867.448l-62.6-62.594" stroke="#EEA277" stroke-width="8.55"/><path clip-rule="evenodd" d="M2201.64 804.854v62.594h62.6v-62.594h-62.6z" stroke="#EEA277" stroke-width="8.55"/><path d="M2264.23 804.854l-62.59 62.594M2264.23 867.448l-62.59-62.594M2264.23 742.26v62.593h62.593V742.26zM2326.83 742.26l-62.6 62.594M2326.83 804.854l-62.6-62.594" stroke="#EEA277" stroke-width="8.55"/><path clip-rule="evenodd" d="M2420.03 804.844v62.594h62.59v-62.594h-62.59z" stroke="#EEA277" stroke-width="8.55"/><path d="M2482.62 804.854l-62.59 62.594M2482.62 867.448l-62.59-62.594" stroke="#EEA277" stroke-width="8.55"/><path d="M2401.4 452.042l78.89 78.875M2401.11 451.74l-79.47 79.47M2401.11 249.252v203.202" stroke="#EEA277" stroke-width="5.7" stroke-linecap="round"/><path fill="#EEA277" d="M2376.92 256.185h48.379v-24.889h-48.379z"/><path fill-rule="evenodd" clip-rule="evenodd" d="M2401.11 224.993c-11.69 0-21.16-9.476-21.16-21.166s9.47-21.167 21.16-21.167 21.17 9.477 21.17 21.167c0 11.69-9.48 21.166-21.17 21.166z" fill="#EEA277"/><path d="M2880.44 196.61L2703.15 41M2400.4 178.105L2703.15 41" stroke="#EEA277" stroke-width="5.7" stroke-linecap="round"/><path stroke="#EEA277" stroke-width="8.55" d="M2671.85 812.592h62.593v-62.593h-62.593zM2671.86 750.008l62.59 62.593M2734.45 750.008l-62.59 62.593M2671.85 687.405h62.593v-62.593h-62.593zM2671.86 624.821l62.59 62.593M2734.45 624.821l-62.59 62.593"/><path stroke="#EEA277" stroke-width="8.55" d="M2671.85 749.999h62.593v-62.593h-62.593zM2671.86 687.415l62.59 62.593M2734.45 687.415l-62.59 62.593"/><path fill="#EEA277" d="M2655.29 310.629h95.715v-74.933h-95.715z"/><path stroke="#EEA277" stroke-width="8.55" d="M2671.85 624.812h62.593v-62.593h-62.593zM2671.86 562.228l62.59 62.593M2734.45 562.228l-62.59 62.593M2671.85 499.625h62.593v-62.593h-62.593zM2671.86 437.031l62.59 62.594M2734.45 437.031l-62.59 62.594M2671.85 562.219h62.593v-62.593h-62.593zM2671.86 499.625l62.59 62.603M2734.45 499.625l-62.59 62.603M2671.85 437.031h62.593v-62.593h-62.593zM2671.86 374.439l62.59 62.593M2734.45 374.439l-62.59 62.593M2671.85 311.845h62.593v-62.593h-62.593zM2671.86 249.252l62.59 62.593M2734.45 249.252l-62.59 62.593"/><path stroke="#EEA277" stroke-width="8.55" d="M2671.85 374.439h62.593v-62.593h-62.593zM2671.86 311.845l62.59 62.594M2734.45 311.845l-62.59 62.594"/><path fill="#EEA277" d="M2575.82 873.805h254.645v-61.212H2575.82z"/><rect width="231.32" height="166.303" rx="15.789" transform="matrix(1 0 0 -1 2284.74 690.324)" fill="#EAC1A3"/><path fill-rule="evenodd" clip-rule="evenodd" d="M2284.74 563.408h231.32v-24.185c0-8.396-6.8-15.203-15.2-15.203h-200.92c-8.4 0-15.21 6.807-15.21 15.203v24.185h.01z" fill="#EEA277"/><path fill="#EEA277" d="M2628.37 311.525h149.555v-35.207H2628.37zM2613.19 224.49h303.847v-27.807H2613.19z"/><path fill="#EAC1A3" d="M2775.36 210.577h59.895v-28.722h-59.895zM2847.74 210.577h59.895v-28.722h-59.895z"/><path d="M2703.15 177.118V41M2643.86 164.184L2703.15 41M2762.44 164.184L2703.15 41" stroke="#EEA277" stroke-width="7.6" stroke-linecap="round"/><path fill="#EEA277" d="M2640.17 250.815h125.955V157.35H2640.17z"/><path fill="#EEA277" d="M2640.17 233.573h66.582v-58.989h-66.582z"/><path clip-rule="evenodd" d="M2236.43 231.296l53.19-53.19v53.19h-53.19z" stroke="#EEA277" stroke-width="6.65" stroke-linejoin="round"/><path clip-rule="evenodd" d="M2347.21 178.106v53.199h53.2v-53.199h-53.2z" stroke="#EEA277" stroke-width="6.65"/><path d="M2400.4 178.106l-53.2 53.19M2400.4 231.296l-53.2-53.19" stroke="#EEA277" stroke-width="6.65"/><path clip-rule="evenodd" d="M2294.01 178.106v53.199h53.2v-53.199h-53.2z" stroke="#EEA277" stroke-width="6.65"/><path d="M2347.2 178.106l-53.19 53.19M2347.2 231.296l-53.19-53.19" stroke="#EEA277" stroke-width="6.65"/><path clip-rule="evenodd" d="M2400.4 178.106v53.199h53.2v-53.199h-53.2z" stroke="#EEA277" stroke-width="6.65"/><path d="M2453.6 178.106l-53.2 53.19M2453.6 231.296l-53.2-53.19" stroke="#EEA277" stroke-width="6.65"/><path clip-rule="evenodd" d="M2506.79 178.106v53.199h53.2v-53.199h-53.2z" stroke="#EEA277" stroke-width="6.65"/><path d="M2559.99 178.106l-53.2 53.19M2559.99 231.296l-53.2-53.19" stroke="#EEA277" stroke-width="6.65"/><path clip-rule="evenodd" d="M2453.6 178.096v53.2h53.2v-53.2h-53.2z" stroke="#EEA277" stroke-width="6.65"/><path d="M2506.79 178.106l-53.19 53.19M2506.79 231.296l-53.19-53.19" stroke="#EEA277" stroke-width="6.65"/><path clip-rule="evenodd" d="M2559.99 178.106v53.199h53.2v-53.199h-53.2z" stroke="#EEA277" stroke-width="6.65"/><path d="M2613.19 178.106l-53.2 53.19M2613.19 231.296l-53.2-53.19" stroke="#EEA277" stroke-width="6.65"/><path fill-rule="evenodd" clip-rule="evenodd" d="M2307.78 553.822c-5.74 0-10.4-4.656-10.4-10.4 0-5.744 4.66-10.401 10.4-10.401 5.75 0 10.4 4.657 10.4 10.401s-4.65 10.4-10.4 10.4zM2340.69 553.822c-5.75 0-10.4-4.656-10.4-10.4 0-5.744 4.65-10.401 10.4-10.401 5.74 0 10.4 4.657 10.4 10.401s-4.66 10.4-10.4 10.4zM2373.58 553.822c-5.74 0-10.4-4.656-10.4-10.4 0-5.744 4.66-10.401 10.4-10.401s10.4 4.657 10.4 10.401-4.66 10.4-10.4 10.4zM2401.11 470.639l18.9-18.899-18.9-18.9-18.9 18.9 18.9 18.899zM1348 879.348h1602z" fill="#F0F0EF"/><path d="M1348 879.348h1602" stroke="#EAC1A3" stroke-width="19" stroke-linecap="round"/></g><defs><clipPath id="clip0"><path fill="#fff" d="M0 0h2950v880H0z"/></clipPath></defs></svg>