<svg width="2950" height="880" fill="none" xmlns="http://www.w3.org/2000/svg"><g opacity=".7" clip-path="url(#clip0)"><path fill="#fff" d="M0 0h2950v880H0z"/><path fill-rule="evenodd" clip-rule="evenodd" d="M176.022 880.877h143.831V737H176.022v143.877z" fill="#94C1DF"/><path fill-rule="evenodd" clip-rule="evenodd" d="M231.093 880.715H89.023v-279.47L231.093 509v371.715z" fill="#A5D8FA"/><path fill-rule="evenodd" clip-rule="evenodd" d="M269.338 881.187h27.372V493.604h-27.372v387.583z" fill="#94C1DF"/><path fill-rule="evenodd" clip-rule="evenodd" d="M296.71 881.187h75.511V493.604H296.71v387.583z" fill="#A5D8FA"/><path fill-rule="evenodd" clip-rule="evenodd" d="M737.022 881h35V562h-35v319z" fill="#94C1DF"/><path fill-rule="evenodd" clip-rule="evenodd" d="M768.022 881h97V562h-97v319zM890.022 880.949h85.67V673h-85.67v207.949zM23.023 881.378h38.089V664h-38.09v217.378z" fill="#A5D8FA"/><path fill-rule="evenodd" clip-rule="evenodd" d="M-29 881.296h49.864V663.919H-29v217.377z" fill="#94C1DF"/><path fill-rule="evenodd" clip-rule="evenodd" d="M407.022 881.233h75.511V508h-75.511v373.233z" fill="#A5D8FA"/><path fill-rule="evenodd" clip-rule="evenodd" d="M408.15 881.233h26.939V508H408.15v373.233zM463.103 552.581h26.939v-32.906h-26.939v32.906z" fill="#94C1DF"/><path fill-rule="evenodd" clip-rule="evenodd" d="M502.022 880.985h110.784V594H502.022v286.985z" fill="#A5D8FA"/><path fill-rule="evenodd" clip-rule="evenodd" d="M487.022 881.233h33.649V508h-33.649v373.233z" fill="#A5D8FA"/><path fill-rule="evenodd" clip-rule="evenodd" d="M521.022 881.155h26.938V566h-26.938v315.155z" fill="#94C1DF"/><path fill-rule="evenodd" clip-rule="evenodd" d="M633.022 881.386h42.65V429h-42.65v452.386z" fill="#A5D8FA"/><path fill-rule="evenodd" clip-rule="evenodd" d="M601.022 881.387h39.155V429h-39.155v452.387zM664.022 881.386h39.155V429h-39.155v452.386z" fill="#A5D8FA"/><path fill-rule="evenodd" clip-rule="evenodd" d="M647.083 801.829h10.48V456.25h-10.48v345.579zM613.848 826.596h10.479V481.018h-10.479v345.578zM680.318 826.596h10.48V481.018h-10.48v345.578zM2747.67 881.877h-143.83V738h143.83v143.877z" fill="#94C1DF"/><path fill-rule="evenodd" clip-rule="evenodd" d="M2692.6 881.715h142.07v-279.47L2692.6 510v371.715z" fill="#A5D8FA"/><path fill-rule="evenodd" clip-rule="evenodd" d="M2654.35 882.187h-27.37V494.604h27.37v387.583z" fill="#94C1DF"/><path fill-rule="evenodd" clip-rule="evenodd" d="M2626.98 882.187h-75.51V494.604h75.51v387.583z" fill="#A5D8FA"/><path fill-rule="evenodd" clip-rule="evenodd" d="M2186.67 882h-35V563h35v319z" fill="#94C1DF"/><path fill-rule="evenodd" clip-rule="evenodd" d="M2155.67 882h-97V563h97v319zM2033.67 881.949H1948V674h85.67v207.949zM2900.67 882.378h-38.09V665h38.09v217.378z" fill="#A5D8FA"/><path fill-rule="evenodd" clip-rule="evenodd" d="M2952.69 882.296h-49.86V664.919h49.86v217.377z" fill="#94C1DF"/><path fill-rule="evenodd" clip-rule="evenodd" d="M2516.67 882.233h-75.51V509h75.51v373.233z" fill="#A5D8FA"/><path fill-rule="evenodd" clip-rule="evenodd" d="M2515.54 882.233h-26.94V509h26.94v373.233zM2460.59 553.581h-26.94v-32.906h26.94v32.906z" fill="#94C1DF"/><path fill-rule="evenodd" clip-rule="evenodd" d="M2421.67 881.985h-110.78V595h110.78v286.985z" fill="#A5D8FA"/><path fill-rule="evenodd" clip-rule="evenodd" d="M2436.67 882.233h-33.65V509h33.65v373.233z" fill="#A5D8FA"/><path fill-rule="evenodd" clip-rule="evenodd" d="M2402.67 882.155h-26.94V567h26.94v315.155z" fill="#94C1DF"/><path fill-rule="evenodd" clip-rule="evenodd" d="M2290.67 882.386h-42.65V430h42.65v452.386z" fill="#A5D8FA"/><path fill-rule="evenodd" clip-rule="evenodd" d="M2322.67 882.387h-39.16V430h39.16v452.387zM2259.67 882.386h-39.16V430h39.16v452.386z" fill="#A5D8FA"/><path fill-rule="evenodd" clip-rule="evenodd" d="M2276.61 802.829h-10.48V457.25h10.48v345.579zM2309.84 827.596h-10.48V482.018h10.48v345.578zM2243.37 827.596h-10.48V482.018h10.48v345.578z" fill="#94C1DF"/><path fill-rule="evenodd" clip-rule="evenodd" d="M2902.22 252.83l-681.24-6.628c-3.8-56.536 12.8-100.393 36.48-103.853 57.85-8.466 60.15 42.451 90.3 41.454 47.82-1.572 38.31-80.88 92.39-89.605 54.08-8.715 55.58 46.863 106.64 46.422 51.05-.442 105.33-106.199 177.77-82.9 52.58 16.919 27.66 76.387 68.27 116.419 40.6 40.032 94.93-19.559 108.78 37.075 3.5 14.319 3.38 28.323.61 41.616M1489.85 215.223l344.91.882c1.75-30.895-6.78-54.99-18.78-57.039-29.32-5.013-30.33 22.819-45.6 22.074-24.22-1.176-19.64-44.487-47.04-49.616-27.41-5.124-28.01 25.262-53.86 24.683-25.85-.58-53.65-58.777-90.25-46.514-26.58 8.905-13.79 41.593-34.23 63.218-20.44 21.624-48.12-11.325-54.97 19.556-1.73 7.808-1.63 15.468-.18 22.756" fill="#B9DEF5"/><path fill-rule="evenodd" clip-rule="evenodd" d="M1046.25 62.456l161.49.732c.8-14.705-3.22-26.183-8.84-27.17-13.73-2.412-14.18 10.836-21.33 10.467-11.34-.581-9.24-21.195-22.07-23.661-12.84-2.464-13.09 12-25.2 11.7-12.1-.299-25.17-28.027-42.3-22.223-12.43 4.215-6.41 19.787-15.96 30.063-9.55 10.275-22.55-5.435-25.72 9.26-.81 3.715-.75 7.36-.07 10.832" fill="#91BBD7"/><path fill-rule="evenodd" clip-rule="evenodd" d="M-82.199 213.691l812.889-7.909c4.535-67.462-15.282-119.795-43.531-123.924-69.028-10.102-71.779 50.656-107.752 49.466-57.059-1.876-45.715-96.511-110.245-106.921-64.53-10.4-66.324 55.919-127.246 55.393-60.923-.528-125.692-126.723-212.121-98.92C67.043 1.063 96.782 72.023 48.331 119.791-.119 167.56-64.946 96.453-81.479 164.031c-4.178 17.087-4.03 33.797-.72 49.66" fill="#B9DEF5"/><path fill-rule="evenodd" clip-rule="evenodd" d="M2996.78 427.719l-192.69.873c-.95-17.547 3.84-31.243 10.55-32.419 16.38-2.879 16.92 12.928 25.45 12.489 13.53-.694 11.02-25.291 26.34-28.234 15.31-2.94 15.62 14.319 30.06 13.962 14.44-.357 30.03-33.445 50.47-26.518 14.84 5.029 7.66 23.61 19.05 35.872 11.4 12.261 26.9-6.485 30.7 11.049.95 4.433.89 8.784.07 12.926" fill="#95C8E9"/><path fill-rule="evenodd" clip-rule="evenodd" d="M151.887 480.816l-411.566 1.051c-2.097-36.864 8.09-65.617 22.405-68.061 34.981-5.982 36.195 27.228 54.413 26.339 28.896-1.403 23.429-53.084 56.133-59.204 32.704-6.114 33.418 30.144 64.266 29.453 30.849-.692 64.013-70.136 107.693-55.502 31.714 10.625 16.448 49.63 40.84 75.434 24.392 25.804 57.424-13.513 65.597 23.336 2.065 9.317 1.941 18.457.219 27.154" fill="#94C5E6"/><path fill-rule="evenodd" clip-rule="evenodd" d="M1421.83 783.021c0 31.111-20.31 48.468-46.75 48.468-26.45 0-46.75-17.357-46.75-48.468 0-65.505 29.84-141.021 46.75-141.021s46.75 75.516 46.75 141.021" fill="#AEC5D5"/><path d="M1375.08 736.744v143.599" stroke="#B9DEF5" stroke-width="10.5" stroke-linecap="square"/><path d="M1387.9 810.594l10.34-10.336M1387.9 752.327l10.34-10.335" stroke="#B9DEF5" stroke-width="7" stroke-linecap="square"/><path fill-rule="evenodd" clip-rule="evenodd" d="M1360.58 766.817c0 35.698-28.94 64.636-64.64 64.636-35.69 0-64.63-28.938-64.63-64.636 0-35.698 28.94-64.637 64.63-64.637 35.7 0 64.64 28.939 64.64 64.637" fill="#B9DEF5"/><path d="M1295.94 754.285v126.058" stroke="#99C9E9" stroke-width="10.5" stroke-linecap="square"/><path d="M1311.27 810.845l10.33-10.336M1311.27 764.501l10.33-10.336M1280.62 788.73l-10.34-10.336M1280.62 765.559l-10.34-10.336" stroke="#99C9E9" stroke-width="8.4" stroke-linecap="square"/><path fill-rule="evenodd" clip-rule="evenodd" d="M1206.14 819.065c0 30.777-20.1 44.589-44.79 44.589-24.69 0-44.79-13.812-44.79-44.589 0-57.331 24.45-110.871 44.79-110.871 20.35 0 44.79 53.54 44.79 110.871" fill="#B9DEF5"/><path d="M1161.35 769.235v111.108" stroke="#AEC5D5" stroke-width="10.5" stroke-linecap="square"/><path d="M1171.38 831.195l10.33-10.336M1171.38 781.592l10.33-10.336M1152.93 831.202l-10.47-10.473M1152.2 806.721l-10.47-10.474" stroke="#AEC5D5" stroke-width="7" stroke-linecap="square"/><path fill-rule="evenodd" clip-rule="evenodd" d="M1354.29 879.731l-116.54.612c-6.65-8.452-22.14-29.616-15.9-35.869 4.1-4.113 16.39 9.125 19.71 5.152 3.32-3.969-18.48-28.716-12.94-32.204 9.75-6.146 41.14 37.965 45.19 34.415 4.26-3.734-15.76-29.673-8.7-32.421 8.21-3.198 29.95 36.469 36.23 32.421 3.29-2.123-3.1-15.056 1.65-17.266 8.27-3.851 22.06 33.502 27.92 30.174 2.78-1.577-.34-6.974 3.82-8.317 5.08-1.638 15.31 15.639 19.56 23.303M1409.82 864.806c-.17.228-5.34 7.133-5.99 13.492h-9.1c4.29-8.535 14.85-13.386 15.09-13.492" fill="#AEC5D5"/><path fill-rule="evenodd" clip-rule="evenodd" d="M1005.87 865.932c.18.228 5.35 7.133 6 13.491h9.1c-4.3-8.534-14.86-13.385-15.1-13.491M1203.63 866.131c.17.228 5.35 7.133 6 13.492h9.09c-4.29-8.535-14.85-13.386-15.09-13.492M1439.74 870.364c-.12.163-2.74 3.656-4.5 7.934h-6.58c4.81-5.055 10.9-7.856 11.08-7.934M1064.14 879.424h-9.64c-.05-6.923-3.61-15.936-3.61-15.936s10.58 8.635 13.25 15.936zM1067.03 879.423c2.33-4.929 2.47-8.901 2.47-8.901s4.57 4.969 6.52 8.901h-8.99zM1378.44 839.148c-.13.418-7.65 21.167-8.38 39.149h-12.14c.72-8.12-2.9-17.926-2.9-17.926s6.46 4.959 8.13 12.035c0 0 5.02-22.558 15.29-33.258M1389.33 861.373s-7.11 9.431-9 16.925h-6.61c2.25-4.626 7.66-14.005 15.61-16.925" fill="#A8D3F0"/><path fill-rule="evenodd" clip-rule="evenodd" d="M1446.69 834.609c0 15.8-7.53 30.15-24.57 30.15s-24.57-14.35-24.57-30.15c0-18.535 12.88-36.966 24.57-36.966s24.57 18.431 24.57 36.966z" fill="#B9DEF5"/><path d="M1422.12 833.134v47.209" stroke="#A8D3F0" stroke-width="10.5" stroke-linecap="square"/><path d="M1430.61 838.419l7.05-6.93M1414.42 845.662l-8.6-7.773" stroke="#A8D3F0" stroke-width="6.3" stroke-linecap="square"/><path d="M1116.79 878.788s-9.19-20.662-23.07-30.506M1121.41 879.424s-1.51-31.264 9.86-42.73" stroke="#99C9E9" stroke-width="6.3" stroke-linecap="square"/><path fill-rule="evenodd" clip-rule="evenodd" d="M1122.68 836.694a7.016 7.016 0 1014.03 0 7.015 7.015 0 10-14.03 0M1089.34 851.265c0 3.875 3.15 7.016 7.02 7.016a7.016 7.016 0 100-14.032c-3.87 0-7.02 3.141-7.02 7.016" fill="#99C9E9"/><path d="M1247.74 877.697s-1.06-14.162 6.86-30.716M1243.31 879.144s-6.78-29.697-24.36-44.19" stroke="#99C9E9" stroke-width="6.3" stroke-linecap="square"/><path fill-rule="evenodd" clip-rule="evenodd" d="M1225.63 831.886a7.017 7.017 0 11-13.81 2.493 7.017 7.017 0 0113.81-2.493M1263.42 840.528a7.017 7.017 0 11-13.81 2.493 7.017 7.017 0 0113.81-2.493" fill="#99C9E9"/><path fill-rule="evenodd" clip-rule="evenodd" d="M1145.6 844.461c-.23.294-14.54 19.093-14.91 33.824h-11.56c1.55-4.796 8.26-22.342 26.47-33.824M1112.91 878.298h-9.21c-1.82-6.924-7.34-11.24-7.34-11.24s10.95 2.143 16.55 11.24" fill="#AEC5D5"/><path fill-rule="evenodd" clip-rule="evenodd" d="M1282.15 860.047c.2.255 4.51 10.173 4 19.575h15.18c.29-5.139 3.55-12.494 3.55-12.494s-6.69 2.707-11.21 10.439c0 0-3.42-13.949-11.52-17.52M1258.35 864.493c-.18.349-3.84 6.682-4.8 14.085l-14.47 1.485c-.99-6.582-3.12-10.245-3.12-10.245s6.08 1.767 9.33 6.935c0 0 3.76-7.951 13.06-12.26" fill="#A8D3F0"/><path fill-rule="evenodd" clip-rule="evenodd" d="M1065.38 814.037c0 25.19-10.42 48.069-34.01 48.069-23.59 0-34.007-22.879-34.007-48.069 0-29.55 17.827-58.934 34.007-58.934 16.18 0 34.01 29.384 34.01 58.934" fill="#B9DEF5"/><path d="M1031.37 808.604v71.739" stroke="#A8D3F0" stroke-width="10.5" stroke-linecap="square"/><path d="M1041.26 817.354l9.21-10.336M1021.48 838.592l-9.2-10.336M1021.48 817.779l-9.2-10.336" stroke="#A8D3F0" stroke-width="7" stroke-linecap="square"/><path d="M1459.69 880.343H984" stroke="#A8D3F0" stroke-width="14" stroke-linecap="round"/><path fill-rule="evenodd" clip-rule="evenodd" d="M1503.87 783.021c0 31.111 20.3 48.468 46.74 48.468 26.45 0 46.75-17.357 46.75-48.468 0-65.505-29.84-141.021-46.75-141.021s-46.74 75.516-46.74 141.021" fill="#AEC5D5"/><path d="M1550.61 736.744v143.599" stroke="#B9DEF5" stroke-width="10.5" stroke-linecap="square"/><path d="M1537.79 810.594l-10.33-10.336M1537.79 752.327l-10.33-10.335" stroke="#B9DEF5" stroke-width="7" stroke-linecap="square"/><path fill-rule="evenodd" clip-rule="evenodd" d="M1565.12 766.817c0 35.698 28.93 64.636 64.63 64.636 35.69 0 64.63-28.938 64.63-64.636 0-35.698-28.94-64.637-64.63-64.637-35.7 0-64.63 28.939-64.63 64.637" fill="#B9DEF5"/><path d="M1629.75 754.285v126.058" stroke="#99C9E9" stroke-width="10.5" stroke-linecap="square"/><path d="M1614.42 810.845l-10.33-10.336M1614.42 764.501l-10.33-10.336M1645.07 788.73l10.34-10.336M1645.07 765.559l10.34-10.336" stroke="#99C9E9" stroke-width="8.4" stroke-linecap="square"/><path fill-rule="evenodd" clip-rule="evenodd" d="M1719.55 819.065c0 30.777 20.1 44.589 44.79 44.589 24.69 0 44.79-13.812 44.79-44.589 0-57.331-24.44-110.871-44.79-110.871-20.34 0-44.79 53.54-44.79 110.871" fill="#B9DEF5"/><path d="M1764.34 769.235v111.108" stroke="#AEC5D5" stroke-width="10.5" stroke-linecap="square"/><path d="M1754.32 831.195l-10.34-10.336M1754.32 781.592l-10.34-10.336M1772.76 831.202l10.47-10.473M1773.49 806.721l10.48-10.474" stroke="#AEC5D5" stroke-width="7" stroke-linecap="square"/><path fill-rule="evenodd" clip-rule="evenodd" d="M1571.4 879.731l116.54.612c6.65-8.452 22.14-29.616 15.91-35.869-4.11-4.113-16.4 9.125-19.72 5.152-3.32-3.969 18.48-28.716 12.94-32.204-9.75-6.146-41.14 37.965-45.19 34.415-4.26-3.734 15.76-29.673 8.71-32.421-8.22-3.198-29.96 36.469-36.24 32.421-3.29-2.123 3.1-15.056-1.65-17.266-8.27-3.851-22.06 33.502-27.92 30.174-2.78-1.577.34-6.974-3.81-8.317-5.09-1.638-15.32 15.639-19.57 23.303M1515.87 864.806c.17.228 5.35 7.133 6 13.492h9.09c-4.29-8.535-14.85-13.386-15.09-13.492" fill="#AEC5D5"/><path fill-rule="evenodd" clip-rule="evenodd" d="M1919.82 865.932c-.17.228-5.35 7.133-6 13.491h-9.09c4.29-8.534 14.85-13.385 15.09-13.491M1722.06 866.131c-.17.228-5.35 7.133-6 13.492h-9.09c4.29-8.535 14.85-13.386 15.09-13.492M1485.95 870.364c.12.163 2.74 3.656 4.5 7.934h6.59c-4.82-5.055-10.91-7.856-11.09-7.934M1861.55 879.424h9.64c.06-6.923 3.61-15.936 3.61-15.936s-10.57 8.635-13.25 15.936zM1858.66 879.423c-2.33-4.929-2.47-8.901-2.47-8.901s-4.57 4.969-6.52 8.901h8.99zM1547.25 839.148c.13.418 7.65 21.167 8.38 39.149h12.15c-.73-8.12 2.89-17.926 2.89-17.926s-6.46 4.959-8.13 12.035c0 0-5.01-22.558-15.29-33.258M1536.36 861.373s7.11 9.431 9.01 16.925h6.6c-2.25-4.626-7.66-14.005-15.61-16.925" fill="#A8D3F0"/><path fill-rule="evenodd" clip-rule="evenodd" d="M1479 834.609c0 15.8 7.53 30.15 24.57 30.15s24.57-14.35 24.57-30.15c0-18.535-12.88-36.966-24.57-36.966S1479 816.074 1479 834.609z" fill="#B9DEF5"/><path d="M1503.57 833.134v47.209" stroke="#A8D3F0" stroke-width="10.5" stroke-linecap="square"/><path d="M1495.08 838.419l-7.04-6.93M1511.27 845.662l8.61-7.773" stroke="#A8D3F0" stroke-width="6.3" stroke-linecap="square"/><path d="M1808.9 878.788s9.19-20.662 23.07-30.506M1804.28 879.424s1.51-31.264-9.86-42.73" stroke="#99C9E9" stroke-width="6.3" stroke-linecap="square"/><path fill-rule="evenodd" clip-rule="evenodd" d="M1803.01 836.694a7.016 7.016 0 11-14.03 0 7.015 7.015 0 1114.03 0M1836.35 851.265a7.016 7.016 0 11-14.032 0 7.016 7.016 0 0114.032 0" fill="#99C9E9"/><path d="M1677.95 877.697s1.06-14.162-6.85-30.716M1682.38 879.144s6.79-29.697 24.36-44.19" stroke="#99C9E9" stroke-width="6.3" stroke-linecap="square"/><path fill-rule="evenodd" clip-rule="evenodd" d="M1700.06 831.886a7.017 7.017 0 0013.81 2.495 7.013 7.013 0 00-5.65-8.152 7.021 7.021 0 00-8.16 5.657M1662.27 840.528c-.68 3.814 1.85 7.463 5.66 8.152a7.017 7.017 0 008.15-5.657 7.012 7.012 0 00-5.65-8.152 7.021 7.021 0 00-8.16 5.657" fill="#99C9E9"/><path fill-rule="evenodd" clip-rule="evenodd" d="M1780.1 844.461c.22.294 14.53 19.093 14.9 33.824h11.56c-1.55-4.796-8.26-22.342-26.46-33.824M1812.78 878.298h9.21c1.83-6.924 7.34-11.24 7.34-11.24s-10.95 2.143-16.55 11.24" fill="#AEC5D5"/><path fill-rule="evenodd" clip-rule="evenodd" d="M1643.54 860.047c-.2.255-4.51 10.173-4 19.575h-15.18c-.29-5.139-3.55-12.494-3.55-12.494s6.69 2.707 11.21 10.439c0 0 3.42-13.949 11.52-17.52M1667.34 864.493c.18.349 3.84 6.682 4.8 14.085l14.47 1.485c.99-6.582 3.12-10.245 3.12-10.245s-6.08 1.767-9.32 6.935c0 0-3.76-7.951-13.07-12.26" fill="#A8D3F0"/><path fill-rule="evenodd" clip-rule="evenodd" d="M1860.31 814.037c0 25.19 10.42 48.069 34.01 48.069 23.59 0 34.01-22.879 34.01-48.069 0-29.55-17.83-58.934-34.01-58.934s-34.01 29.384-34.01 58.934" fill="#B9DEF5"/><path d="M1894.32 808.604v71.739" stroke="#A8D3F0" stroke-width="10.5" stroke-linecap="square"/><path d="M1884.43 817.354l-9.21-10.336M1904.21 838.592l9.21-10.336M1904.21 817.779l9.21-10.336" stroke="#A8D3F0" stroke-width="7" stroke-linecap="square"/><path d="M1466 880.343h475.69" stroke="#A8D3F0" stroke-width="14" stroke-linecap="round"/></g><defs><clipPath id="clip0"><path fill="#fff" d="M0 0h2950v880H0z"/></clipPath></defs></svg>