<svg width="2950" height="880" fill="none" xmlns="http://www.w3.org/2000/svg"><g opacity=".7" clip-path="url(#clip0)"><path fill="#fff" d="M0 0h2950v880H0z"/><path d="M2675.72-112V28.415" stroke="#DBDC91" stroke-width="5.6"/><path fill-rule="evenodd" clip-rule="evenodd" d="M3156 879.832h-341.51V-25.164H3156v904.996z" fill="#CCCD87"/><path fill-rule="evenodd" clip-rule="evenodd" d="M2814.49 879.832H2598V-25.164h216.49v904.996z" fill="#DBDC91"/><path fill-rule="evenodd" clip-rule="evenodd" d="M2993.63 92.093h-81.18V49.971h81.18v42.122z" fill="#AFB069"/><path fill-rule="evenodd" clip-rule="evenodd" d="M2786.67 133.789h-62.9v-42.12h62.9v42.12zM2912.45 630.565h-81.19v-42.122h81.19v42.122z" fill="#D5D6A7"/><path fill-rule="evenodd" clip-rule="evenodd" d="M2912.45 175.913h-81.19v-42.122h81.19v42.122zM2912.45 418.096h-81.19v-42.122h81.19v42.122zM2786.65 92.093h-62.88V49.971h62.88v42.122zM2660.88 134.211H2598v-42.12h62.88v42.12zM2786.66 296.796h-62.89v-42.12h62.89v42.12zM2993.63 630.565h-81.18v-42.122h81.18v42.122z" fill="#AFB069"/><path d="M274.277-112V28.415" stroke="#DBDC91" stroke-width="5.6"/><path fill-rule="evenodd" clip-rule="evenodd" d="M-206 879.832h341.507V-25.164H-206v904.996z" fill="#CCCD87"/><path fill-rule="evenodd" clip-rule="evenodd" d="M135.507 879.832H352V-25.164H135.507v904.996z" fill="#DBDC91"/><path fill-rule="evenodd" clip-rule="evenodd" d="M-43.63 92.093h81.183V49.971H-43.63v42.122z" fill="#AFB069"/><path fill-rule="evenodd" clip-rule="evenodd" d="M163.335 133.789h62.898v-42.12h-62.898v42.12zM37.554 630.565h81.185v-42.122H37.554v42.122z" fill="#D5D6A7"/><path fill-rule="evenodd" clip-rule="evenodd" d="M37.554 175.913h81.185v-42.122H37.554v42.122zM37.554 418.096h81.185v-42.122H37.554v42.122zM163.351 92.093h62.883V49.971h-62.883v42.122zM289.118 134.211H352v-42.12h-62.882v42.12zM163.343 296.796h62.882v-42.12h-62.882v42.12zM-43.63 630.565h81.183v-42.122H-43.63v42.122z" fill="#AFB069"/><path fill-rule="evenodd" clip-rule="evenodd" d="M21 880s89.261-305.957 194.652-299.11c105.392 6.847 103.5 115.171 177.14 114.981 73.639-.189 157.794-154.629 280.191-159.764C795.38 530.972 840.918 712.8 967.71 702.753c129.44-10.258 238.71 12.615 295.29 175.062" fill="#AAAB7E"/><path fill-rule="evenodd" clip-rule="evenodd" d="M612.787 876.445l-453.027.779c-34.228-29.336-86.427-111.596-62.8-134.366 15.541-14.979 76.135 38.424 88.71 23.958 12.576-14.457-71.534-101.57-40.695-119.288 37.464-21.524 159.343 139.24 174.692 126.311 16.139-13.594-39.219-87.35-15.505-103.22 28.137-18.831 89.605 118.251 113.402 103.507 12.469-7.73-17.139-54.088.855-62.136 31.317-14.026 83.576 122 105.794 109.881 10.507-5.742-1.312-25.395 14.442-30.286 19.253-5.967 58.037 56.953 74.132 84.86" fill="#CCCD87"/><path fill-rule="evenodd" clip-rule="evenodd" d="M410.912 296.61h89.45v9.378c0 8.902-7.214 16.118-16.113 16.118h-57.224c-8.899 0-16.113-7.216-16.113-16.118v-9.378z" fill="#AAAB7E"/><path d="M271.028 777.404V419.952c0-69.279 56.144-125.441 125.401-125.441" stroke="#B2B38D" stroke-width="12.6"/><path fill-rule="evenodd" clip-rule="evenodd" d="M290.743 878.714h-39.429l4.163-142.611h31.103l4.163 142.611zM517.47 308.249H393.804v-19.131c0-8.902 7.214-16.118 16.113-16.118h91.44c8.899 0 16.113 7.216 16.113 16.118v19.131z" fill="#8F8F50"/><path fill-rule="evenodd" clip-rule="evenodd" d="M943.617 879.813h78.563V742.858h-78.563v136.955z" fill="#AFB069"/><path fill-rule="evenodd" clip-rule="evenodd" d="M518.701 763.034h522.869v-20.176H518.701v20.176zM946.904 670.619H505.228l-7.53-40.369h441.676l7.53 40.369zM957.408 726.927H515.731l-7.53-40.376h441.677l7.53 40.376z" fill="#D8D99D"/><path fill-rule="evenodd" clip-rule="evenodd" d="M505.227 670.619h-21.308l-7.984-40.369h21.763l7.529 40.369zM515.731 726.927h-20.678l-7.985-40.376h21.134l7.529 40.376z" fill="#AFB069"/><path fill-rule="evenodd" clip-rule="evenodd" d="M913.89 630.25l21.006 112.608h-25.349L888.541 630.25h25.349zM548.535 630.25l21.006 112.608h-25.35L523.186 630.25h25.349zM597.264 879.813h19.392V742.858h-19.392v136.955z" fill="#DBDC91"/><path fill-rule="evenodd" clip-rule="evenodd" d="M616.655 763.075h19.393v-20.217h-19.393v20.217zM1002.79 763.075h19.39v-20.217h-19.39v20.217zM1022.18 879.813h19.39V742.858h-19.39v136.955z" fill="#DBDC91"/><path fill-rule="evenodd" clip-rule="evenodd" d="M518.702 879.813h78.562V742.858h-78.562v136.955z" fill="#AFB069"/><path d="M1739 875.5H0" stroke="#CCCD87" stroke-width="14" stroke-linecap="round"/><path fill-rule="evenodd" clip-rule="evenodd" d="M2928 877s-85.6-303.289-186.66-296.501c-101.06 6.787-99.25 114.166-169.87 113.978-70.61-.188-151.31-153.281-268.68-158.371-117.37-5.09-161.04 175.153-282.63 165.193-124.12-10.169-228.91 12.505-283.16 173.535" fill="#AAAB7E"/><path fill-rule="evenodd" clip-rule="evenodd" d="M2336.79 873.445l453.02.779c34.23-29.336 86.43-111.596 62.8-134.366-15.54-14.979-76.13 38.424-88.71 23.958-12.57-14.457 71.54-101.57 40.7-119.288-37.47-21.524-159.34 139.24-174.69 126.311-16.14-13.594 39.22-87.35 15.5-103.22-28.13-18.831-89.6 118.251-113.4 103.507-12.47-7.73 17.14-54.088-.86-62.136-31.31-14.026-83.57 122-105.79 109.881-10.51-5.742 1.31-25.395-14.44-30.286-19.25-5.967-58.04 56.953-74.13 84.86" fill="#CCCD87"/><path fill-rule="evenodd" clip-rule="evenodd" d="M2538.66 293.61h-89.45v9.378c0 8.902 7.22 16.118 16.12 16.118h57.22c8.9 0 16.11-7.216 16.11-16.118v-9.378z" fill="#AAAB7E"/><path d="M2678.55 774.404V416.952c0-69.279-56.15-125.441-125.41-125.441" stroke="#B2B28D" stroke-width="12.6"/><path fill-rule="evenodd" clip-rule="evenodd" d="M2658.83 875.714h39.43l-4.16-142.611h-31.11l-4.16 142.611zM2432.1 305.249h123.67v-19.131c0-8.902-7.21-16.118-16.11-16.118h-91.44c-8.9 0-16.12 7.216-16.12 16.118v19.131z" fill="#8F8F50"/><path fill-rule="evenodd" clip-rule="evenodd" d="M2005.96 876.813h-78.57V739.858h78.57v136.955z" fill="#AFB069"/><path fill-rule="evenodd" clip-rule="evenodd" d="M2430.87 760.034H1908v-20.176h522.87v20.176zM2002.67 667.619h441.68l7.53-40.369H2010.2l-7.53 40.369zM1992.17 723.927h441.67l7.53-40.376H1999.7l-7.53 40.376z" fill="#D8D99D"/><path fill-rule="evenodd" clip-rule="evenodd" d="M2444.35 667.619h21.3l7.99-40.369h-21.76l-7.53 40.369zM2433.84 723.927h20.68l7.99-40.376h-21.14l-7.53 40.376z" fill="#AFB069"/><path fill-rule="evenodd" clip-rule="evenodd" d="M2035.68 627.25l-21 112.608h25.35l21-112.608h-25.35zM2401.04 627.25l-21.01 112.608h25.35l21.01-112.608h-25.35zM2352.31 876.813h-19.39V739.858h19.39v136.955zM2332.92 760.075h-19.39v-20.217h19.39v20.217zM1946.79 760.075h-19.4v-20.217h19.4v20.217z" fill="#DBDC91"/><path fill-rule="evenodd" clip-rule="evenodd" d="M1927.39 876.813H1908V739.858h19.39v136.955z" fill="#DBDC91"/><path fill-rule="evenodd" clip-rule="evenodd" d="M2430.87 876.813h-78.56V739.858h78.56v136.955z" fill="#AFB069"/><path d="M1724 875.673h1225.57" stroke="#CCCD87" stroke-width="14" stroke-linecap="round"/><path fill-rule="evenodd" clip-rule="evenodd" d="M534 90c.932.19 60.616 12.176 86.402 40.038l22.354-19.68C631.598 103.72 588.749 81.215 534 90" fill="#A3AA79"/><path fill-rule="evenodd" clip-rule="evenodd" d="M705.083 87.467c-.925.222-60.159 14.266-84.965 43.003l-23.022-18.894c10.922-7.021 52.966-30.994 107.987-24.11" fill="#A3AA79"/><path fill-rule="evenodd" clip-rule="evenodd" d="M680 4.706c.605.124 39.328 7.9 56.058 25.977l14.504-12.768C743.322 13.608 715.522-.993 680 4.706" fill="#5B744F"/><path fill-rule="evenodd" clip-rule="evenodd" d="M791 3.063c-.6.144-39.031 9.256-55.126 27.9l-14.937-12.258C728.023 14.15 755.302-1.405 791 3.063M435 28.86c.36.074 23.384 4.698 33.332 15.447l8.624-7.592c-4.305-2.561-20.835-11.243-41.956-7.854" fill="#5B744F"/><path fill-rule="evenodd" clip-rule="evenodd" d="M501 27.883c-.357.086-23.208 5.504-32.778 16.59l-8.881-7.289c4.213-2.708 20.433-11.957 41.659-9.3" fill="#5B744F"/><path fill-rule="evenodd" clip-rule="evenodd" d="M856.554 490.149c.617.126 40.137 8.062 57.212 26.511l14.802-13.031c-7.388-4.395-35.761-19.297-72.014-13.48" fill="#B6BB80"/><path fill-rule="evenodd" clip-rule="evenodd" d="M969.838 488.472c-.612.147-39.834 9.446-56.26 28.474l-15.244-12.51c7.232-4.649 35.072-20.524 71.504-15.964" fill="#B6BB80"/><path fill-rule="evenodd" clip-rule="evenodd" d="M953.23 433.671c.4.081 26.041 5.231 37.119 17.201l9.604-8.455c-4.794-2.852-23.202-12.52-46.723-8.746" fill="#5B744F"/><path fill-rule="evenodd" clip-rule="evenodd" d="M1026.73 432.582c-.4.096-25.85 6.129-36.503 18.475l-9.891-8.117c4.693-3.016 22.754-13.316 46.394-10.358M791 449.665c.238.049 15.484 3.11 22.071 10.228l5.71-5.027c-2.85-1.696-13.795-7.445-27.781-5.201" fill="#5B744F"/><path fill-rule="evenodd" clip-rule="evenodd" d="M834.702 449.018c-.236.056-15.367 3.644-21.704 10.985l-5.88-4.827c2.79-1.793 13.53-7.917 27.584-6.158" fill="#5B744F"/><path fill-rule="evenodd" clip-rule="evenodd" d="M2244 165c.93.19 60.62 12.176 86.4 40.038l22.36-19.68C2341.6 178.72 2298.75 156.215 2244 165" fill="#939F62"/><path fill-rule="evenodd" clip-rule="evenodd" d="M2415.08 162.467c-.92.222-60.16 14.266-84.96 43.003l-23.02-18.894c10.92-7.021 52.96-30.994 107.98-24.109" fill="#939F62"/><path fill-rule="evenodd" clip-rule="evenodd" d="M2390 79.706c.6.124 39.33 7.9 56.06 25.977l14.5-12.768c-7.24-4.307-35.04-18.908-70.56-13.209" fill="#5B744F"/><path fill-rule="evenodd" clip-rule="evenodd" d="M2501 78.063c-.6.144-39.03 9.256-55.13 27.901l-14.93-12.259c7.08-4.555 34.36-20.11 70.06-15.642M2145 103.861c.36.073 23.38 4.697 33.33 15.445l8.63-7.591c-4.31-2.561-20.84-11.243-41.96-7.854" fill="#5B744F"/><path fill-rule="evenodd" clip-rule="evenodd" d="M2211 102.883c-.36.086-23.21 5.504-32.78 16.59l-8.88-7.289c4.21-2.708 20.43-11.957 41.66-9.301" fill="#5B744F"/></g><defs><clipPath id="clip0"><path fill="#fff" d="M0 0h2950v880H0z"/></clipPath></defs></svg>