<svg width="2950" height="880" fill="none" xmlns="http://www.w3.org/2000/svg"><g opacity=".7" clip-path="url(#clip0)"><path fill="#fff" d="M0 0h2950v880H0z"/><path fill-rule="evenodd" clip-rule="evenodd" d="M1427.31 765.423c-.31.42-7.06 9.419-11.59 20.441h-16.97c12.4-13.023 28.1-20.239 28.56-20.441M1564 763.423c.31.42 7.06 9.419 11.59 20.441h16.97c-12.4-13.023-28.1-20.239-28.56-20.441M1680.31 765.423c-.31.42-7.06 9.419-11.59 20.441h-16.97c12.4-13.023 28.1-20.239 28.56-20.441" fill="#5D7B6D"/><path fill-rule="evenodd" clip-rule="evenodd" d="M1603.22 751.104c-.44.588-13.77 18.377-15.44 34.76h-23.44c11.07-21.989 38.27-34.487 38.88-34.76" fill="#73A08B"/><path fill-rule="evenodd" clip-rule="evenodd" d="M1072 754.518c.44.587 13.77 18.377 15.44 34.759h23.44c-11.06-21.988-38.27-34.486-38.88-34.759M1522.38 685c-.35 1.078-19.72 54.535-21.6 100.864h-31.29c1.87-20.922-7.46-46.186-7.46-46.186s16.65 12.776 20.95 31.006c0 0 12.92-58.116 39.4-85.684" fill="#5D7B6D"/><path fill-rule="evenodd" clip-rule="evenodd" d="M1522.38 685c-.35 1.078-19.72 54.535-21.6 100.864h-31.29c1.87-20.922-7.46-46.186-7.46-46.186s16.65 12.776 20.95 31.006c0 0 12.92-58.116 39.4-85.684M1550.43 742.259s-18.31 24.297-23.2 43.605h-17.02c5.81-11.918 19.74-36.082 40.22-43.605M1274.29 738.845c.51.655 11.62 26.209 10.3 50.431h39.12c.74-13.24 9.14-32.189 9.14-32.189s-17.22 6.974-28.87 26.894c0 0-8.81-35.937-29.69-45.136M1212.97 750.298c-.47.899-9.88 17.214-12.36 36.288l-37.29 3.826c-2.54-16.956-8.02-26.396-8.02-26.396s15.66 4.553 24.01 17.869c0 0 9.69-20.486 33.66-31.587" fill="#5D7B6D"/><path fill-rule="evenodd" clip-rule="evenodd" d="M1958.22 751.104c-.44.588-13.77 18.377-15.44 34.76h-23.44c11.07-21.989 38.27-34.487 38.88-34.76" fill="#73A08B"/><path fill-rule="evenodd" clip-rule="evenodd" d="M1427 754.518c.44.587 13.77 18.377 15.44 34.759h23.44c-11.06-21.988-38.27-34.486-38.88-34.759M1877.38 685c-.35 1.078-19.72 54.535-21.6 100.864h-31.29c1.87-20.922-7.46-46.186-7.46-46.186s16.65 12.776 20.95 31.006c0 0 12.92-58.116 39.4-85.684M1905.43 742.259s-18.31 24.297-23.2 43.605h-17.02c5.81-11.918 19.74-36.082 40.22-43.605M1629.29 738.845c.51.655 11.62 26.209 10.3 50.431h39.12c.74-13.24 9.14-32.189 9.14-32.189s-17.22 6.974-28.87 26.894c0 0-8.81-35.937-29.69-45.136M1567.97 750.298c-.47.899-9.88 17.214-12.36 36.288l-37.29 3.826c-2.54-16.956-8.02-26.396-8.02-26.396s15.66 4.553 24.01 17.869c0 0 9.69-20.486 33.66-31.587" fill="#5D7B6D"/><path fill-rule="evenodd" clip-rule="evenodd" d="M1350.22 751.104c-.44.588-13.77 18.377-15.44 34.76h-23.44c11.07-21.989 38.27-34.487 38.88-34.76" fill="#73A08B"/><path fill-rule="evenodd" clip-rule="evenodd" d="M1269.38 685c-.35 1.078-19.72 54.535-21.6 100.864h-31.29c1.87-20.922-7.46-46.186-7.46-46.186s16.65 12.776 20.95 31.006c0 0 12.92-58.116 39.4-85.684M1297.43 742.259s-18.31 24.297-23.2 43.605h-17.02c5.81-11.918 19.74-36.082 40.22-43.605M1021.29 738.845c.51.655 11.62 26.209 10.3 50.431h39.12c.74-13.24 9.14-32.189 9.14-32.189s-17.22 6.974-28.87 26.894c0 0-8.81-35.937-29.69-45.136" fill="#5D7B6D"/><path fill-rule="evenodd" clip-rule="evenodd" d="M1641.09 749.104c.44.588 13.77 18.377 15.44 34.76h23.44c-11.07-21.989-38.28-34.487-38.88-34.76" fill="#73A08B"/><path fill-rule="evenodd" clip-rule="evenodd" d="M1721.92 683c.35 1.078 19.73 54.535 21.6 100.864h31.3c-1.87-20.922 7.46-46.186 7.46-46.186s-16.65 12.776-20.96 31.006c0 0-12.92-58.116-39.4-85.684M1693.88 740.259s18.3 24.297 23.2 43.605h17.02c-5.81-11.918-19.75-36.082-40.22-43.605M1970.02 736.845c-.52.655-11.62 26.209-10.3 50.431h-39.12c-.75-13.24-9.14-32.189-9.14-32.189s17.22 6.974 28.86 26.894c0 0 8.82-35.937 29.7-45.136" fill="#5D7B6D"/><path fill-rule="evenodd" clip-rule="evenodd" d="M1030.09 757.104c.44.588 13.77 18.377 15.44 34.76h23.44c-11.07-21.989-38.28-34.487-38.88-34.76" fill="#73A08B"/><path fill-rule="evenodd" clip-rule="evenodd" d="M1561.31 760.518c-.44.587-13.77 18.377-15.45 34.759h-23.43c11.06-21.988 38.27-34.486 38.88-34.759M1110.92 691c.35 1.078 19.73 54.535 21.6 100.864h31.3c-1.87-20.922 7.46-46.186 7.46-46.186s-16.65 12.776-20.96 31.006c0 0-12.92-58.116-39.4-85.684M1082.88 748.259s18.3 24.297 23.2 43.605h17.02c-5.81-11.918-19.75-36.082-40.22-43.605M1359.02 744.845c-.52.655-11.62 26.209-10.3 50.431h-39.12c-.75-13.24-9.14-32.189-9.14-32.189s17.22 6.974 28.86 26.894c0 0 8.82-35.937 29.7-45.136M1420.34 756.298c.46.899 9.88 17.214 12.36 36.288l37.29 3.826c2.54-16.956 8.02-26.396 8.02-26.396s-15.66 4.553-24.02 17.869c0 0-9.68-20.486-33.65-31.587" fill="#5D7B6D"/><path fill-rule="evenodd" clip-rule="evenodd" d="M2 880h2944V780H2v100z" fill="#73A08B"/><path fill-rule="evenodd" clip-rule="evenodd" d="M2035.31 695.423c-.31.42-7.06 9.419-11.59 20.441h-16.97c12.4-13.023 28.1-20.239 28.56-20.441M819 684.518c.441.587 13.772 18.377 15.444 34.759h23.435c-11.063-21.988-38.27-34.486-38.879-34.759M959.97 680.298c-.465.899-9.879 17.214-12.359 36.288l-37.291 3.826c-2.54-16.956-8.023-26.396-8.023-26.396s15.659 4.553 24.018 17.869c0 0 9.687-20.486 33.655-31.587M2172.31 682.518c-.44.587-13.77 18.377-15.45 34.759h-23.43c11.06-21.988 38.27-34.486 38.88-34.759M2031.34 678.298c.46.899 9.88 17.214 12.36 36.288l37.29 3.826c2.54-16.956 8.02-26.396 8.02-26.396s-15.66 4.553-24.02 17.869c0 0-9.68-20.486-33.65-31.587M953 701.423c.307.42 7.061 9.419 11.588 20.441h16.97c-12.4-13.023-28.097-20.239-28.558-20.441" fill="#5D7B6D"/><path d="M99.81 397.533h692.472M99.81 330.475h692.472M238.391 332.313l-52.842 67.058-52.842-67.058" stroke="#6CA88B" stroke-width="13.3" stroke-linejoin="bevel"/><path d="M343.867 332.313l-52.849 67.058-52.841-67.058" stroke="#6CA88B" stroke-width="13.3" stroke-linejoin="bevel"/><path d="M449.336 332.313l-52.842 67.058-52.848-67.058" stroke="#6CA88B" stroke-width="13.3" stroke-linejoin="bevel"/><path d="M554.805 332.313l-52.841 67.058-52.842-67.058" stroke="#6CA88B" stroke-width="13.3" stroke-linejoin="bevel"/><path d="M660.274 332.313l-52.841 67.058-52.842-67.058" stroke="#6CA88B" stroke-width="13.3" stroke-linejoin="bevel"/><path d="M765.751 332.313l-52.849 67.058-52.842-67.058" stroke="#6CA88B" stroke-width="13.3" stroke-linejoin="bevel"/><path d="M7.66 397.533h692.47M7.66 330.475h692.47" stroke="#BFFCDF" stroke-width="13.3"/><path d="M146.239 332.313l-52.842 67.058-52.848-67.058" stroke="#BFFCDF" stroke-width="13.3" stroke-linejoin="bevel"/><path d="M251.708 332.313l-52.841 67.058-52.849-67.058" stroke="#BFFCDF" stroke-width="13.3" stroke-linejoin="bevel"/><path d="M357.177 332.313l-52.841 67.058-52.842-67.058" stroke="#BFFCDF" stroke-width="13.3" stroke-linejoin="bevel"/><path d="M462.647 332.313l-52.842 67.058-52.842-67.058" stroke="#BFFCDF" stroke-width="13.3" stroke-linejoin="bevel"/><path d="M568.123 332.313l-52.849 67.058-52.841-67.058" stroke="#BFFCDF" stroke-width="13.3" stroke-linejoin="bevel"/><path d="M673.592 332.313l-52.842 67.058-52.841-67.058" stroke="#BFFCDF" stroke-width="13.3" stroke-linejoin="bevel"/><path fill-rule="evenodd" clip-rule="evenodd" d="M887.34 863.245c36.874 0 66.767-29.911 66.767-66.809 0-36.898-29.893-66.81-66.767-66.81-36.874 0-66.766 29.912-66.766 66.81s29.892 66.809 66.766 66.809z" fill="#BFE0D1"/><path fill="#BFE0D1" d="M861.651 729.619h25.689v133.626h-25.689z"/><path fill-rule="evenodd" clip-rule="evenodd" d="M861.651 863.245c36.874 0 66.767-29.911 66.767-66.809 0-36.898-29.893-66.81-66.767-66.81-36.874 0-66.766 29.912-66.766 66.81s29.892 66.809 66.766 66.809zM389.308 863.245c36.874 0 66.766-29.911 66.766-66.809 0-36.898-29.892-66.81-66.766-66.81-36.875 0-66.767 29.912-66.767 66.81s29.892 66.809 66.767 66.809z" fill="#BFE0D1"/><path fill="#BFE0D1" d="M363.619 729.619h25.689v133.626h-25.689z"/><path fill-rule="evenodd" clip-rule="evenodd" d="M363.619 863.245c36.874 0 66.766-29.911 66.766-66.809 0-36.898-29.892-66.81-66.766-66.81-36.875 0-66.767 29.912-66.767 66.81s29.892 66.809 66.767 66.809z" fill="#BFE0D1"/><path fill="#6CA88B" d="M-10.153 402.756h368.856v375.29H-10.153z"/><path fill-rule="evenodd" clip-rule="evenodd" d="M878.324 439.722v301.33H653.329V402.763h200.576l24.419 36.959z" fill="#BFE0D1"/><path fill="#BFE0D1" d="M356.86 402.756h225.001v375.29H356.86z"/><path fill="#BFFCDF" d="M373.919 463.196h110.654v314.857H373.919zM183.402 451.473h145.566v196.146H183.402zM12.443 451.473h145.566v196.146H12.443z"/><path fill="#A2C9B7" d="M12.443 423.011h24.895v8.601H12.443zM183.402 423.011h24.895v8.601h-24.895z"/><path fill="#BFE0D1" d="M183.402 451.473h145.566v18.853H183.402zM12.443 451.473h145.566v18.853H12.443z"/><path fill-rule="evenodd" clip-rule="evenodd" d="M775.513 439.757v338.289H531.139V402.763h122.19l24.419 36.959.021.035h97.744z" fill="#6CA88B"/><path fill="#BFE0D1" d="M775.513 439.757h225.001v338.289H775.513z"/><path fill="#A2C9B7" d="M-23.063 763.781h1038.33v34.645H-23.063z"/><path fill-rule="evenodd" clip-rule="evenodd" d="M68.005 798.453c0-55.149 40.456-99.859 90.364-99.859 49.907 0 90.371 44.683 90.371 99.859" fill="#6CA88B"/><path fill-rule="evenodd" clip-rule="evenodd" d="M183.913 863.418c36.874 0 66.766-29.912 66.766-66.81 0-36.897-29.892-66.809-66.766-66.809-36.874 0-66.767 29.912-66.767 66.809 0 36.898 29.893 66.81 66.767 66.81z" fill="#BFE0D1"/><path fill="#BFE0D1" d="M158.224 729.799h25.689v133.626h-25.689z"/><path fill-rule="evenodd" clip-rule="evenodd" d="M158.224 863.418c36.874 0 66.766-29.912 66.766-66.81 0-36.897-29.892-66.809-66.766-66.809-36.874 0-66.767 29.912-66.767 66.809 0 36.898 29.893 66.81 66.767 66.81z" fill="#6CA88B"/><path d="M68.005 798.453c0-52.986 40.456-95.935 90.364-95.935 49.907 0 90.371 42.921 90.371 95.935" stroke="#A2C9B7" stroke-width="26.6"/><path fill-rule="evenodd" clip-rule="evenodd" d="M158.224 835.999c21.741 0 39.365-17.636 39.365-39.391s-17.624-39.39-39.365-39.39c-21.741 0-39.366 17.635-39.366 39.39s17.625 39.391 39.366 39.391z" fill="#A2C9B7"/><path fill-rule="evenodd" clip-rule="evenodd" d="M158.224 810.763c7.812 0 14.146-6.337 14.146-14.155 0-7.817-6.334-14.155-14.146-14.155-7.813 0-14.146 6.338-14.146 14.155 0 7.818 6.333 14.155 14.146 14.155zM565.265 798.239c0-52.98 40.463-95.935 90.37-95.935 49.908 0 90.371 42.955 90.371 95.935" fill="#6CA88B"/><path fill-rule="evenodd" clip-rule="evenodd" d="M681.946 863.245c36.874 0 66.766-29.911 66.766-66.809 0-36.898-29.892-66.81-66.766-66.81-36.875 0-66.767 29.912-66.767 66.81s29.892 66.809 66.767 66.809z" fill="#BFE0D1"/><path fill="#BFE0D1" d="M656.257 729.619h25.689v133.626h-25.689z"/><path fill-rule="evenodd" clip-rule="evenodd" d="M656.257 863.245c36.874 0 66.766-29.911 66.766-66.809 0-36.898-29.892-66.81-66.766-66.81-36.875 0-66.767 29.912-66.767 66.81s29.892 66.809 66.767 66.809z" fill="#6CA88B"/><path d="M565.265 798.232c0-55.149 40.463-99.859 90.37-99.859 49.908 0 90.371 44.71 90.371 99.859" stroke="#A2C9B7" stroke-width="26.6"/><path fill-rule="evenodd" clip-rule="evenodd" d="M656.257 835.826c21.74 0 39.365-17.635 39.365-39.39s-17.625-39.391-39.365-39.391c-21.741 0-39.366 17.636-39.366 39.391s17.625 39.39 39.366 39.39z" fill="#A2C9B7"/><path fill-rule="evenodd" clip-rule="evenodd" d="M656.257 810.591c7.812 0 14.145-6.338 14.145-14.155 0-7.818-6.333-14.155-14.145-14.155-7.813 0-14.146 6.337-14.146 14.155 0 7.817 6.333 14.155 14.146 14.155z" fill="#6CA88B"/><path d="M12.443 627.668h145.56M12.443 604.725h145.56M158.003 581.783H12.443M12.443 558.848h145.56M158.003 535.905H12.443M12.443 512.963h145.56M158.003 490.021H12.443M183.402 627.668h145.566M183.402 604.725h145.566M328.968 581.783H183.402" stroke="#A2C9B7" stroke-width="5.7"/><path d="M803.079 684.812h176.227M803.079 666.858h176.227M979.306 648.897H803.079" stroke="#6CA88B" stroke-width="8.55"/><path d="M183.402 558.848h145.566M328.968 535.905H183.402M183.402 512.963h145.566M328.968 490.021H183.402" stroke="#A2C9B7" stroke-width="5.7"/><path fill-rule="evenodd" clip-rule="evenodd" d="M248.394 673.773h80.574v57.062h-42.789l-37.785-57.062zM32.036 731.194c11.382 0 20.608-9.232 20.608-20.621 0-11.388-9.226-20.621-20.608-20.621-11.381 0-20.608 9.233-20.608 20.621 0 11.389 9.227 20.621 20.608 20.621z" fill="#BFFCDF"/><path fill-rule="evenodd" clip-rule="evenodd" d="M404.379 517.764c9.814 0 17.77-7.961 17.77-17.781 0-9.821-7.956-17.782-17.77-17.782-9.815 0-17.771 7.961-17.771 17.782 0 9.82 7.956 17.781 17.771 17.781zM405.028 743.788c8.906 0 16.127-7.225 16.127-16.138 0-8.912-7.221-16.137-16.127-16.137-8.907 0-16.128 7.225-16.128 16.137 0 8.913 7.221 16.138 16.128 16.138zM454.804 517.764c9.814 0 17.77-7.961 17.77-17.781 0-9.821-7.956-17.782-17.77-17.782s-17.77 7.961-17.77 17.782c0 9.82 7.956 17.781 17.77 17.781zM397.965 557.791c6.245 0 11.308-5.067 11.308-11.316 0-6.249-5.063-11.316-11.308-11.316-6.246 0-11.309 5.067-11.309 11.316 0 6.249 5.063 11.316 11.309 11.316zM430.074 557.791c6.246 0 11.309-5.067 11.309-11.316 0-6.249-5.063-11.316-11.309-11.316-6.245 0-11.308 5.067-11.308 11.316 0 6.249 5.063 11.316 11.308 11.316zM460.437 725.419c4.663 0 8.444-3.783 8.444-8.449s-3.781-8.449-8.444-8.449-8.443 3.783-8.443 8.449 3.78 8.449 8.443 8.449zM441.148 746.517c4.663 0 8.444-3.783 8.444-8.449s-3.781-8.449-8.444-8.449-8.443 3.783-8.443 8.449 3.78 8.449 8.443 8.449zM462.191 557.791c6.245 0 11.308-5.067 11.308-11.316 0-6.249-5.063-11.316-11.308-11.316-6.246 0-11.308 5.067-11.308 11.316 0 6.249 5.062 11.316 11.308 11.316zM390.364 576.547h79v61.22h-79v-61.22zm74.858 57.075v-52.93h-70.716v52.93h70.716zM390.364 647.618h35.044v50.755h-35.044v-50.755zm30.901 46.61v-42.465h-26.759v42.465h26.759zM434.293 647.618h35.071v50.755h-35.071v-50.755zm30.929 46.61v-42.465h-26.787v42.465h26.787z" fill="#6CA88B"/><path d="M484.58 466.505h46.559" stroke="#BFFCDF" stroke-width="7.6"/><path fill="#BFFCDF" d="M803.977 468.806H979.43v152.182H803.977z"/><path fill-rule="evenodd" clip-rule="evenodd" d="M799.503 464.315h184.428v161.163H799.503V464.315zm175.439 152.182V473.296H808.478v143.201h166.464z" fill="#6CA88B"/><path fill="#BFFCDF" d="M669.719 468.806h72.718v152.182h-72.718z"/><path fill-rule="evenodd" clip-rule="evenodd" d="M665.231 464.315h81.7v161.163h-81.7V464.315zm72.725 152.182V473.296h-63.75v143.201h63.75z" fill="#BFE0D1"/><path fill="#BFFCDF" d="M568.827 468.806h72.718v152.182h-72.718z"/><path fill-rule="evenodd" clip-rule="evenodd" d="M564.346 464.315h81.693v161.163h-81.693V464.315zm72.718 152.182V473.296h-63.743v143.201h63.743z" fill="#BFE0D1"/><path fill="#BFFCDF" d="M775.513 708.231h225.001v55.556H775.513z"/><path fill="#A2C9B7" d="M791.84 722.117h54.202v27.778H791.84zM712.902 641.822h33.09v11.599h-33.09zM929.709 722.117h54.202v27.778h-54.202z"/><path d="M565.265 443.832h-15.679v203.793h18.537" stroke="#BFE0D1" stroke-width="12.35"/><path fill-rule="evenodd" clip-rule="evenodd" d="M976.344 439.757H765.751v-42.479h203.102l7.491 42.479z" fill="#BFFCDF"/><path fill-rule="evenodd" clip-rule="evenodd" d="M880.823 439.757h-12.061l-7.491-42.479h12.061l7.491 42.479z" fill="#BFE0D1"/><path fill-rule="evenodd" clip-rule="evenodd" d="M773.317 439.757H721.96l7.491-42.479h36.376l7.49 42.479z" fill="#6CA88B"/><path d="M2858.46 399.533h-692.47M2858.46 332.475h-692.47M2719.88 334.313l52.84 67.058 52.84-67.058" stroke="#6CA88B" stroke-width="13.3" stroke-linejoin="bevel"/><path d="M2614.4 334.313l52.85 67.058 52.84-67.058" stroke="#6CA88B" stroke-width="13.3" stroke-linejoin="bevel"/><path d="M2508.93 334.313l52.84 67.058 52.85-67.058" stroke="#6CA88B" stroke-width="13.3" stroke-linejoin="bevel"/><path d="M2403.46 334.313l52.84 67.058 52.85-67.058" stroke="#6CA88B" stroke-width="13.3" stroke-linejoin="bevel"/><path d="M2297.99 334.313l52.84 67.058 52.85-67.058" stroke="#6CA88B" stroke-width="13.3" stroke-linejoin="bevel"/><path d="M2192.52 334.313l52.85 67.058 52.84-67.058" stroke="#6CA88B" stroke-width="13.3" stroke-linejoin="bevel"/><path d="M2950.61 399.533h-692.47M2950.61 332.475h-692.47" stroke="#BFFCDF" stroke-width="13.3"/><path d="M2812.03 334.313l52.84 67.058 52.85-67.058" stroke="#BFFCDF" stroke-width="13.3" stroke-linejoin="bevel"/><path d="M2706.56 334.313l52.84 67.058 52.85-67.058" stroke="#BFFCDF" stroke-width="13.3" stroke-linejoin="bevel"/><path d="M2601.09 334.313l52.84 67.058 52.84-67.058" stroke="#BFFCDF" stroke-width="13.3" stroke-linejoin="bevel"/><path d="M2495.62 334.313l52.84 67.058 52.84-67.058" stroke="#BFFCDF" stroke-width="13.3" stroke-linejoin="bevel"/><path d="M2390.14 334.313l52.85 67.058 52.84-67.058" stroke="#BFFCDF" stroke-width="13.3" stroke-linejoin="bevel"/><path d="M2284.68 334.313l52.84 67.058 52.84-67.058" stroke="#BFFCDF" stroke-width="13.3" stroke-linejoin="bevel"/><path fill-rule="evenodd" clip-rule="evenodd" d="M2070.93 865.245c-36.88 0-66.77-29.911-66.77-66.809 0-36.898 29.89-66.81 66.77-66.81 36.87 0 66.76 29.912 66.76 66.81s-29.89 66.809-66.76 66.809z" fill="#BFE0D1"/><path fill="#BFE0D1" d="M2096.62 731.619h-25.689v133.626h25.689z"/><path fill-rule="evenodd" clip-rule="evenodd" d="M2096.62 865.245c-36.88 0-66.77-29.911-66.77-66.809 0-36.898 29.89-66.81 66.77-66.81 36.87 0 66.76 29.912 66.76 66.81s-29.89 66.809-66.76 66.809zM2568.96 865.245c-36.87 0-66.77-29.911-66.77-66.809 0-36.898 29.9-66.81 66.77-66.81s66.77 29.912 66.77 66.81-29.9 66.809-66.77 66.809z" fill="#BFE0D1"/><path fill="#BFE0D1" d="M2594.65 731.619h-25.689v133.626h25.689z"/><path fill-rule="evenodd" clip-rule="evenodd" d="M2594.65 865.245c-36.88 0-66.77-29.911-66.77-66.809 0-36.898 29.89-66.81 66.77-66.81 36.87 0 66.77 29.912 66.77 66.81s-29.9 66.809-66.77 66.809z" fill="#BFE0D1"/><path fill="#6CA88B" d="M2968.42 404.756h-368.856v375.29h368.856z"/><path fill-rule="evenodd" clip-rule="evenodd" d="M2079.94 441.722v301.33h225V404.763h-200.58l-24.42 36.959z" fill="#BFE0D1"/><path fill="#BFE0D1" d="M2601.41 404.756h-225.001v375.29h225.001z"/><path fill="#BFFCDF" d="M2584.35 465.196h-110.654v314.857h110.654zM2774.87 453.473h-145.566v196.146h145.566zM2945.82 453.473h-145.566v196.146h145.566z"/><path fill="#A2C9B7" d="M2945.82 425.011h-24.895v8.601h24.895zM2774.87 425.011h-24.895v8.601h24.895z"/><path fill="#BFE0D1" d="M2774.87 453.473h-145.566v18.853h145.566zM2945.82 453.473h-145.566v18.853h145.566z"/><path fill-rule="evenodd" clip-rule="evenodd" d="M2182.75 441.757v338.289h244.38V404.763h-122.19l-24.42 36.959-.02.035h-97.75z" fill="#6CA88B"/><path fill="#BFE0D1" d="M2182.75 441.757h-225.001v338.289h225.001z"/><path fill="#A2C9B7" d="M2981.33 765.781H1943v34.645h1038.33z"/><path fill-rule="evenodd" clip-rule="evenodd" d="M2890.26 800.453c0-55.149-40.45-99.859-90.36-99.859s-90.37 44.683-90.37 99.859" fill="#6CA88B"/><path fill-rule="evenodd" clip-rule="evenodd" d="M2774.35 865.418c-36.87 0-66.76-29.912-66.76-66.81 0-36.897 29.89-66.809 66.76-66.809 36.88 0 66.77 29.912 66.77 66.809 0 36.898-29.89 66.81-66.77 66.81z" fill="#BFE0D1"/><path fill="#BFE0D1" d="M2800.04 731.799h-25.689v133.626h25.689z"/><path fill-rule="evenodd" clip-rule="evenodd" d="M2800.04 865.418c-36.87 0-66.76-29.912-66.76-66.81 0-36.897 29.89-66.809 66.76-66.809 36.88 0 66.77 29.912 66.77 66.809 0 36.898-29.89 66.81-66.77 66.81z" fill="#6CA88B"/><path d="M2890.26 800.453c0-52.986-40.45-95.935-90.36-95.935s-90.37 42.921-90.37 95.935" stroke="#A2C9B7" stroke-width="26.6"/><path fill-rule="evenodd" clip-rule="evenodd" d="M2800.04 837.999c-21.74 0-39.36-17.636-39.36-39.391s17.62-39.39 39.36-39.39 39.37 17.635 39.37 39.39-17.63 39.391-39.37 39.391z" fill="#A2C9B7"/><path fill-rule="evenodd" clip-rule="evenodd" d="M2800.04 812.763c-7.81 0-14.14-6.337-14.14-14.155 0-7.817 6.33-14.155 14.14-14.155 7.82 0 14.15 6.338 14.15 14.155 0 7.818-6.33 14.155-14.15 14.155zM2393 800.239c0-52.98-40.46-95.935-90.37-95.935-49.91 0-90.37 42.955-90.37 95.935" fill="#6CA88B"/><path fill-rule="evenodd" clip-rule="evenodd" d="M2276.32 865.245c-36.87 0-66.76-29.911-66.76-66.809 0-36.898 29.89-66.81 66.76-66.81 36.88 0 66.77 29.912 66.77 66.81s-29.89 66.809-66.77 66.809z" fill="#BFE0D1"/><path fill="#BFE0D1" d="M2302.01 731.619h-25.689v133.626h25.689z"/><path fill-rule="evenodd" clip-rule="evenodd" d="M2302.01 865.245c-36.87 0-66.77-29.911-66.77-66.809 0-36.898 29.9-66.81 66.77-66.81 36.88 0 66.77 29.912 66.77 66.81s-29.89 66.809-66.77 66.809z" fill="#6CA88B"/><path d="M2393 800.232c0-55.149-40.46-99.859-90.37-99.859-49.91 0-90.37 44.71-90.37 99.859" stroke="#A2C9B7" stroke-width="26.6"/><path fill-rule="evenodd" clip-rule="evenodd" d="M2302.01 837.826c-21.74 0-39.36-17.635-39.36-39.39s17.62-39.391 39.36-39.391 39.37 17.636 39.37 39.391-17.63 39.39-39.37 39.39z" fill="#A2C9B7"/><path fill-rule="evenodd" clip-rule="evenodd" d="M2302.01 812.591c-7.81 0-14.15-6.338-14.15-14.155 0-7.818 6.34-14.155 14.15-14.155 7.81 0 14.15 6.337 14.15 14.155 0 7.817-6.34 14.155-14.15 14.155z" fill="#6CA88B"/><path d="M2945.82 629.668h-145.56M2945.82 606.725h-145.56M2800.26 583.783h145.56M2945.82 560.848h-145.56M2800.26 537.905h145.56M2945.82 514.963h-145.56M2800.26 492.021h145.56M2774.87 629.668H2629.3M2774.87 606.725H2629.3M2629.3 583.783h145.57" stroke="#A2C9B7" stroke-width="5.7"/><path d="M2155.19 686.812h-176.23M2155.19 668.858h-176.23M1978.96 650.897h176.23" stroke="#6CA88B" stroke-width="8.55"/><path d="M2774.87 560.848H2629.3M2629.3 537.905h145.57M2774.87 514.963H2629.3M2629.3 492.021h145.57" stroke="#A2C9B7" stroke-width="5.7"/><path fill-rule="evenodd" clip-rule="evenodd" d="M2709.87 675.773h-80.57v57.062h42.79l37.78-57.062zM2926.23 733.194c-11.38 0-20.61-9.232-20.61-20.621 0-11.388 9.23-20.621 20.61-20.621 11.38 0 20.61 9.233 20.61 20.621 0 11.389-9.23 20.621-20.61 20.621z" fill="#BFFCDF"/><path fill-rule="evenodd" clip-rule="evenodd" d="M2553.89 519.764c-9.82 0-17.77-7.961-17.77-17.781 0-9.821 7.95-17.782 17.77-17.782 9.81 0 17.77 7.961 17.77 17.782 0 9.82-7.96 17.781-17.77 17.781zM2553.24 745.788c-8.91 0-16.13-7.225-16.13-16.138 0-8.912 7.22-16.137 16.13-16.137s16.13 7.225 16.13 16.137c0 8.913-7.22 16.138-16.13 16.138zM2503.46 519.764c-9.81 0-17.77-7.961-17.77-17.781 0-9.821 7.96-17.782 17.77-17.782 9.82 0 17.77 7.961 17.77 17.782 0 9.82-7.95 17.781-17.77 17.781zM2560.3 559.791c-6.24 0-11.31-5.067-11.31-11.316 0-6.249 5.07-11.316 11.31-11.316 6.25 0 11.31 5.067 11.31 11.316 0 6.249-5.06 11.316-11.31 11.316zM2528.19 559.791c-6.24 0-11.31-5.067-11.31-11.316 0-6.249 5.07-11.316 11.31-11.316 6.25 0 11.31 5.067 11.31 11.316 0 6.249-5.06 11.316-11.31 11.316zM2497.83 727.419c-4.66 0-8.44-3.783-8.44-8.449s3.78-8.449 8.44-8.449 8.44 3.783 8.44 8.449-3.78 8.449-8.44 8.449zM2517.12 748.517c-4.66 0-8.44-3.783-8.44-8.449s3.78-8.449 8.44-8.449 8.44 3.783 8.44 8.449-3.78 8.449-8.44 8.449zM2496.08 559.791c-6.25 0-11.31-5.067-11.31-11.316 0-6.249 5.06-11.316 11.31-11.316 6.24 0 11.31 5.067 11.31 11.316 0 6.249-5.07 11.316-11.31 11.316zM2567.9 578.547h-79v61.22h79v-61.22zm-74.85 57.075v-52.93h70.71v52.93h-70.71zM2567.9 649.618h-35.04v50.755h35.04v-50.755zm-30.9 46.61v-42.465h26.76v42.465H2537zM2523.97 649.618h-35.07v50.755h35.07v-50.755zm-30.92 46.61v-42.465h26.78v42.465h-26.78z" fill="#6CA88B"/><path d="M2473.69 468.505h-46.56" stroke="#BFFCDF" stroke-width="7.6"/><path fill="#BFFCDF" d="M2154.29 470.806h-175.453v152.182h175.453z"/><path fill-rule="evenodd" clip-rule="evenodd" d="M2158.76 466.315h-184.42v161.163h184.42V466.315zm-175.44 152.182V475.296h166.47v143.201h-166.47z" fill="#6CA88B"/><path fill="#BFFCDF" d="M2288.55 470.806h-72.718v152.182h72.718z"/><path fill-rule="evenodd" clip-rule="evenodd" d="M2293.04 466.315h-81.7v161.163h81.7V466.315zm-72.73 152.182V475.296h63.75v143.201h-63.75z" fill="#BFE0D1"/><path fill="#BFFCDF" d="M2389.44 470.806h-72.718v152.182h72.718z"/><path fill-rule="evenodd" clip-rule="evenodd" d="M2393.92 466.315h-81.69v161.163h81.69V466.315zm-72.72 152.182V475.296h63.75v143.201h-63.75z" fill="#BFE0D1"/><path fill="#BFFCDF" d="M2182.75 710.231h-225.001v55.556h225.001z"/><path fill="#A2C9B7" d="M2166.43 724.117h-54.202v27.778h54.202zM2245.37 643.822h-33.09v11.599h33.09zM2028.56 724.117h-54.202v27.778h54.202z"/><path d="M2393 445.832h15.68v203.793h-18.54" stroke="#BFE0D1" stroke-width="12.35"/><path fill-rule="evenodd" clip-rule="evenodd" d="M1981.92 441.757h210.6v-42.479h-203.11l-7.49 42.479z" fill="#BFFCDF"/><path fill-rule="evenodd" clip-rule="evenodd" d="M2077.44 441.757h12.07l7.49-42.479h-12.06l-7.5 42.479z" fill="#BFE0D1"/><path fill-rule="evenodd" clip-rule="evenodd" d="M2184.95 441.757h51.36l-7.49-42.479h-36.38l-7.49 42.479z" fill="#6CA88B"/><path fill-rule="evenodd" clip-rule="evenodd" d="M3002.08 170.831l-681.24-6.629c-3.79-56.536 12.81-100.393 36.49-103.853 57.85-8.466 60.15 42.452 90.3 41.454 47.82-1.572 38.31-80.88 92.39-89.605 54.08-8.715 55.58 46.863 106.64 46.422 51.05-.442 105.33-106.199 177.76-82.9 52.59 16.919 27.67 76.387 68.27 116.419 40.61 40.032 94.93-19.56 108.79 37.075 3.5 14.319 3.38 28.323.6 41.617" fill="#A2DABF"/><path fill-rule="evenodd" clip-rule="evenodd" d="M2028.37 256.577l222.58 1.486c1.05-20.627-4.52-36.74-12.27-38.139-18.93-3.424-19.51 15.159-29.37 14.622-15.63-.848-12.78-29.759-30.48-33.255-17.7-3.494-18.01 16.796-34.69 16.342-16.69-.454-34.78-39.39-58.37-31.296-17.13 5.878-8.79 27.74-21.92 42.127-13.14 14.388-31.09-7.687-35.43 12.917-1.09 5.21-1.01 10.325-.05 15.196" fill="#78B799"/><path fill-rule="evenodd" clip-rule="evenodd" d="M-82.216 170.83l681.239-6.628c3.799-56.536-12.808-100.393-36.482-103.853-57.849-8.466-60.154 42.451-90.301 41.454-47.818-1.572-38.311-80.88-92.39-89.605-54.079-8.715-55.583 46.863-106.638 46.422-51.056-.442-105.336-106.199-177.767-82.9C42.855-7.36 67.779 52.108 27.175 92.14s-94.932-19.56-108.787 37.075c-3.502 14.319-3.378 28.323-.604 41.616" fill="#A9E2C7"/><path fill-rule="evenodd" clip-rule="evenodd" d="M1037.84 242.933l-344.914.881c-1.759-30.894 6.779-54.99 18.776-57.039 29.315-5.012 30.333 22.819 45.6 22.074 24.216-1.176 19.635-44.487 47.042-49.616 27.408-5.124 28.006 25.262 53.858 24.683 25.852-.579 53.646-58.777 90.252-46.513 26.577 8.904 13.784 41.592 34.225 63.217 20.441 21.625 48.121-11.325 54.971 19.557 1.73 7.808 1.63 15.467.19 22.756" fill="#BDDBCD"/></g><defs><clipPath id="clip0"><path fill="#fff" d="M0 0h2950v880H0z"/></clipPath></defs></svg>