<svg width="2950" height="880" fill="none" xmlns="http://www.w3.org/2000/svg"><g opacity=".7" clip-path="url(#clip0)"><path fill="#fff" fill-opacity=".7" d="M0 0h2950v880H0z"/><path fill-rule="evenodd" clip-rule="evenodd" d="M191.949 867.641h122.804v-294.44H191.949v294.44z" fill="#C3E4FF"/><path fill-rule="evenodd" clip-rule="evenodd" d="M121.616 679.316H244.42V384.875H121.616v294.441z" fill="#C3E4FF"/><path fill-rule="evenodd" clip-rule="evenodd" d="M-156.168 869.886h297.969V699.632h-297.969v170.254z" fill="#AAD5FF"/><path d="M340.109 220.615v68.558" stroke="#C3E4FF" stroke-width="5.6"/><path fill-rule="evenodd" clip-rule="evenodd" d="M796.049 871.325h165.426V486.324H796.049v385.001z" fill="#AAD5FF"/><path fill-rule="evenodd" clip-rule="evenodd" d="M883.579 683.83h142.481V412.105H883.579V683.83z" fill="#AAD5FF"/><path fill-rule="evenodd" clip-rule="evenodd" d="M921.359 420.354h63.949V399.64h-63.949v20.714zM555.295 378.808v496.24H295.701V238.715l101.967 55.028v80.908h88.546v-33.123l69.081 37.28z" fill="#AAD5FF"/><path d="M684.242 393.346v67.669" stroke="#C3E4FF" stroke-width="5.6"/><path fill-rule="evenodd" clip-rule="evenodd" d="M370.296 871.325h223.235V435.194H370.296v436.131z" fill="#D6EEFF"/><path fill-rule="evenodd" clip-rule="evenodd" d="M593.531 871.325h141.517V435.194H593.531v436.131z" fill="#C3E4FF"/><path fill-rule="evenodd" clip-rule="evenodd" d="M370.298 491.701h53.068v-20.3h-53.068v20.3zM423.366 511.796h53.067v-20.298h-53.067v20.298zM476.434 491.701h53.067v-20.3h-53.067v20.3z" fill="#AAD5FF"/><path fill-rule="evenodd" clip-rule="evenodd" d="M370.298 511.796h53.068v-20.298h-53.068v20.298zM423.366 648.808h53.067v-20.3h-53.067v20.3zM611.722 511.796h41.115v-20.298h-41.115v20.298zM529.501 751.2h53.069v-20.3h-53.069v20.3z" fill="#E8F6FF"/><path fill-rule="evenodd" clip-rule="evenodd" d="M529.501 532.095h53.069v-20.299h-53.069v20.299zM423.366 628.508h53.067V608.21h-53.067v20.298zM529.501 648.808h53.069v-20.3h-53.069v20.3zM611.732 491.701h41.105v-20.3h-41.105v20.3zM693.943 511.999h41.105v-20.298h-41.105v20.298zM611.727 590.352h41.104v-20.298h-41.104v20.298zM476.434 751.2h53.067v-20.3h-53.067v20.3zM370.298 803.269h53.068V782.97h-53.068v20.299zM423.366 823.569h53.067v-20.3h-53.067v20.3zM370.298 532.095h53.068v-20.299h-53.068v20.299z" fill="#AAD5FF"/><path fill-rule="evenodd" clip-rule="evenodd" d="M-93.765 871.326H92.758V137.812H-93.765v733.514z" fill="#D6EEFF"/><path fill-rule="evenodd" clip-rule="evenodd" d="M92.757 871.326H211V137.812H92.757v733.514z" fill="#AAD5FF"/><path fill-rule="evenodd" clip-rule="evenodd" d="M-93.765 120.893H92.758V87.355H-93.765v33.538z" fill="#D6EEFF"/><path fill-rule="evenodd" clip-rule="evenodd" d="M-59.956 107.538h75.253V74h-75.253v33.538zM110.971 107.538h75.251V74h-75.251v33.538z" fill="#D6EEFF"/><path fill-rule="evenodd" clip-rule="evenodd" d="M92.757 120.893H211V87.355H92.757v33.538z" fill="#AAD5FF"/><path fill-rule="evenodd" clip-rule="evenodd" d="M-110.983 137.81H96.614v-16.917h-207.597v16.917z" fill="#D6EEFF"/><path fill-rule="evenodd" clip-rule="evenodd" d="M96.615 137.81h131.601v-16.917h-131.6v16.917zM48.661 871.324h21.673V154.431H48.66v716.893zM8.292 871.324h21.671V154.431H8.292v716.893z" fill="#C3E4FF"/><path fill-rule="evenodd" clip-rule="evenodd" d="M8.292 760.35h21.671v-28.517H8.292v28.517zM8.292 731.833h21.671v-28.516H8.292v28.516z" fill="#E8F6FF"/><path fill-rule="evenodd" clip-rule="evenodd" d="M48.661 646.21h21.673v-28.516H48.66v28.516zM48.661 410.559h21.673v-28.517H48.66v28.517zM8.292 674.8h21.671v-28.516H8.292V674.8z" fill="#AAD5FF"/><path fill-rule="evenodd" clip-rule="evenodd" d="M8.292 469.138h21.671v-28.516H8.292v28.516zM48.661 303.431h21.673v-28.517H48.66v28.517z" fill="#E8F6FF"/><path fill-rule="evenodd" clip-rule="evenodd" d="M8.292 440.622h21.671v-28.517H8.292v28.517z" fill="#E8F6FF"/><path fill-rule="evenodd" clip-rule="evenodd" d="M1269.84 867.641h153.38V727.308h-153.38v140.333z" fill="#AAD5FF"/><path fill-rule="evenodd" clip-rule="evenodd" d="M1332.39 875.047h21.37V743.261h-21.37v131.786zM1372.64 875.047h21.37V743.261h-21.37v131.786z" fill="#D6EEFF"/><path d="M1250.15 512.878v71.053" stroke="#C3E4FF" stroke-width="5.6"/><path fill-rule="evenodd" clip-rule="evenodd" d="M1062.75 880.451h157.31V554.876h-157.31v325.575z" fill="#C3E4FF"/><path fill-rule="evenodd" clip-rule="evenodd" d="M1083.24 871.325h24.62V575.476h-24.62v295.849zM1129.1 871.325h24.62V575.476h-24.62v295.849zM1174.95 871.325h24.62V575.476h-24.62v295.849zM1220.06 880.451h99.72V554.876h-99.72v325.575z" fill="#AAD5FF"/><path fill-rule="evenodd" clip-rule="evenodd" d="M1239.45 871.325h21.36V575.476h-21.36v295.849zM1280.34 871.325h21.36V575.476h-21.36v295.849z" fill="#D6EEFF"/><path fill-rule="evenodd" clip-rule="evenodd" d="M1280.34 736.138h21.36v-27.404h-21.36v27.404zM1280.34 655.913h21.36v-27.405h-21.36v27.405zM1239.45 655.913h21.36v-27.405h-21.36v27.405zM1239.47 683.317h21.36v-27.404h-21.36v27.404zM1332.39 813.577h21.37v-27.405h-21.37v27.405zM1372.64 840.98h21.37v-27.404h-21.37v27.404zM1239.47 763.542h21.36v-27.404h-21.36v27.404zM1280.34 763.542h21.36v-27.404h-21.36v27.404z" fill="#C3E4FF"/><path fill-rule="evenodd" clip-rule="evenodd" d="M920.372 871.325h211.368V651.33H920.372v219.995z" fill="#D6EEFF"/><path fill-rule="evenodd" clip-rule="evenodd" d="M684.242 871.325h236.131V651.33H684.242v219.995z" fill="#E8F6FF"/><path fill-rule="evenodd" clip-rule="evenodd" d="M938.752 675.146h234.058v-44.072H938.752v44.072z" fill="#C3E4FF"/><path fill-rule="evenodd" clip-rule="evenodd" d="M684.242 686.07h447.498v-10.924H684.242v10.924z" fill="#AAD5FF"/><path fill-rule="evenodd" clip-rule="evenodd" d="M684.242 705.793h447.498V694.87H684.242v10.923z" fill="#C3E4FF"/><path fill-rule="evenodd" clip-rule="evenodd" d="M684.242 809.388h447.498v-10.924H684.242v10.924z" fill="#AAD5FF"/><path fill-rule="evenodd" clip-rule="evenodd" d="M684.242 829.11h447.498v-10.924H684.242v10.924z" fill="#C3E4FF"/><path fill-rule="evenodd" clip-rule="evenodd" d="M640.785 675.146h297.969v-44.072H640.785v44.072z" fill="#D6EEFF"/><path fill-rule="evenodd" clip-rule="evenodd" d="M938.752 798.464h234.058v-74.409H938.752v74.409z" fill="#C3E4FF"/><path fill-rule="evenodd" clip-rule="evenodd" d="M640.785 798.464h297.969v-74.409H640.785v74.409z" fill="#D6EEFF"/><path d="M1448 873.927H-842.999" stroke="#D6EEFF" stroke-width="14" stroke-linecap="round"/><path fill-rule="evenodd" clip-rule="evenodd" d="M1531.35 867.164H1421V682.715L1531.35 609v258.164zM1928.12 591.612h-110.35V407.163l110.35-73.715v258.164z" fill="#AAD5FF"/><path fill-rule="evenodd" clip-rule="evenodd" d="M2482.95 866.466h122.8V545.008h-122.8v321.458z" fill="#C3E4FF"/><path fill-rule="evenodd" clip-rule="evenodd" d="M2412.62 660.859h122.8V339.401h-122.8v321.458z" fill="#C3E4FF"/><path fill-rule="evenodd" clip-rule="evenodd" d="M1860.61 871.214h297.97V538.738h-297.97v332.476z" fill="#AAD5FF"/><path fill-rule="evenodd" clip-rule="evenodd" d="M1645.61 865.956h297.97V533.478h-297.97v332.478z" fill="#AAD5FF"/><path fill-rule="evenodd" clip-rule="evenodd" d="M1452.44 870.487h297.97V757.262h-297.97v113.225zM2134.83 868.916h297.97V683.04h-297.97v185.876z" fill="#AAD5FF"/><path d="M2631.11 160.068v74.849" stroke="#C3E4FF" stroke-width="5.6"/><path fill-rule="evenodd" clip-rule="evenodd" d="M2846.29 332.778v541.774H2586.7V179.829l101.97 60.078v88.332h88.54v-36.163l69.08 40.702z" fill="#AAD5FF"/><path fill-rule="evenodd" clip-rule="evenodd" d="M2661.3 870.488h223.23V394.337H2661.3v476.151z" fill="#D6EEFF"/><path fill-rule="evenodd" clip-rule="evenodd" d="M2884.53 870.488h141.52V394.337h-141.52v476.151z" fill="#C3E4FF"/><path fill-rule="evenodd" clip-rule="evenodd" d="M2661.3 456.029h53.07v-22.162h-53.07v22.162z" fill="#AAD5FF"/><path fill-rule="evenodd" clip-rule="evenodd" d="M2714.37 477.968h53.06v-22.161h-53.06v22.161zM2767.43 456.029h53.07v-22.162h-53.07v22.162z" fill="#AAD5FF"/><path fill-rule="evenodd" clip-rule="evenodd" d="M2661.3 477.968h53.07v-22.161h-53.07v22.161zM2714.37 627.552h53.06V605.39h-53.06v22.162zM2902.72 477.968h41.12v-22.161h-41.12v22.161zM2820.5 739.34h53.07v-22.162h-53.07v22.162z" fill="#E8F6FF"/><path fill-rule="evenodd" clip-rule="evenodd" d="M2820.5 500.13h53.07v-22.162h-53.07v22.162zM2714.37 605.39h53.06v-22.161h-53.06v22.161zM2820.5 627.552h53.07V605.39h-53.07v22.162zM2902.73 456.029h41.11v-22.162h-41.11v22.162zM2902.73 563.732h41.1v-22.161h-41.1v22.161zM2767.43 739.34h53.07v-22.162h-53.07v22.162zM2661.3 796.187h53.07v-22.162h-53.07v22.162zM2714.37 818.349h53.06v-22.162h-53.06v22.162zM2661.3 500.13h53.07v-22.162h-53.07v22.162z" fill="#AAD5FF"/><path fill-rule="evenodd" clip-rule="evenodd" d="M2218.55 493.663h21.67V462.53h-21.67v31.133zM2218.55 431.396h21.67v-31.133h-21.67v31.133z" fill="#E8F6FF"/><path fill-rule="evenodd" clip-rule="evenodd" d="M2197.23 870.488h186.53V69.667h-186.53v800.821z" fill="#D6EEFF"/><path fill-rule="evenodd" clip-rule="evenodd" d="M2383.76 870.488H2502V69.667h-118.24v800.821z" fill="#AAD5FF"/><path fill-rule="evenodd" clip-rule="evenodd" d="M2197.23 51.196h186.53V14.58h-186.53v36.616z" fill="#D6EEFF"/><path fill-rule="evenodd" clip-rule="evenodd" d="M2231.04 36.615h75.26V0h-75.26v36.615zM2401.97 36.615h75.25V0h-75.25v36.615z" fill="#D6EEFF"/><path fill-rule="evenodd" clip-rule="evenodd" d="M2383.76 51.196H2502V14.58h-118.24v36.616z" fill="#AAD5FF"/><path fill-rule="evenodd" clip-rule="evenodd" d="M2180.02 69.665h207.59V51.196h-207.59v18.469z" fill="#D6EEFF"/><path fill-rule="evenodd" clip-rule="evenodd" d="M2387.62 69.665h131.6V51.196h-131.6v18.469zM2218.55 870.487h21.67V87.811h-21.67v782.676zM2339.66 870.487h21.67V87.811h-21.67v782.676zM2299.29 870.487h21.67V87.811h-21.67v782.676zM2258.92 870.487h21.67V87.811h-21.67v782.676z" fill="#C3E4FF"/><path fill-rule="evenodd" clip-rule="evenodd" d="M2258.92 462.53h21.67v-31.133h-21.67v31.133zM2299.29 749.329h21.67v-31.133h-21.67v31.133z" fill="#E8F6FF"/><path fill-rule="evenodd" clip-rule="evenodd" d="M2299.29 718.196h21.67v-31.133h-21.67v31.133z" fill="#E8F6FF"/><path fill-rule="evenodd" clip-rule="evenodd" d="M2339.66 624.716h21.67v-31.133h-21.67v31.133zM2218.55 656.307h21.67v-31.133h-21.67v31.133zM2339.66 367.441h21.67v-31.133h-21.67v31.133zM2218.55 318.513h21.67V287.38h-21.67v31.133zM2299.29 655.93h21.67v-31.133h-21.67v31.133z" fill="#AAD5FF"/><path fill-rule="evenodd" clip-rule="evenodd" d="M2218.55 785.107h21.67v-31.133h-21.67v31.133zM2299.29 431.396h21.67v-31.133h-21.67v31.133zM2218.55 524.796h21.67v-31.133h-21.67v31.133zM2339.66 250.484h21.67V219.35h-21.67v31.134zM2218.55 202.097h21.67v-31.133h-21.67v31.133z" fill="#E8F6FF"/><path fill-rule="evenodd" clip-rule="evenodd" d="M2218.55 233.23h21.67v-31.133h-21.67v31.133zM2299.29 400.263h21.67V369.13h-21.67v31.133z" fill="#E8F6FF"/><path d="M2018.92 406.974v61.47" stroke="#C3E4FF" stroke-width="5.6"/><path fill-rule="evenodd" clip-rule="evenodd" d="M1783.05 493.663h66.01V448.3h-66.01v45.363z" fill="#C3E4FF"/><path fill-rule="evenodd" clip-rule="evenodd" d="M1719.46 870.487h236.19V468.443h-236.19v402.044z" fill="#D6EEFF"/><path fill-rule="evenodd" clip-rule="evenodd" d="M1743.61 870.487h27.37V488.302h-27.37v382.185zM1794.59 870.487h27.37V488.302h-27.37v382.185zM1845.57 870.487h27.37V488.302h-27.37v382.185zM1896.56 870.487h27.37V488.302h-27.37v382.185z" fill="#AAD5FF"/><path fill-rule="evenodd" clip-rule="evenodd" d="M1980.61 493.663h66.01V448.3h-66.01v45.363z" fill="#C3E4FF"/><path fill-rule="evenodd" clip-rule="evenodd" d="M1955.65 870.487h149.73V468.443h-149.73v402.044z" fill="#C3E4FF"/><path fill-rule="evenodd" clip-rule="evenodd" d="M2006.06 870.488h27.37V601.063h-27.37v269.425zM2057.05 870.488h27.37V601.063h-27.37v269.425zM1538.34 873.328h204.45V647.074h-204.45v226.254z" fill="#D6EEFF"/><path fill-rule="evenodd" clip-rule="evenodd" d="M1742.79 873.328h129.62V647.074h-129.62v226.254z" fill="#C3E4FF"/><path fill-rule="evenodd" clip-rule="evenodd" d="M1538.34 844.081h293.82v-19.515h-293.82v19.515zM1538.34 810.429h293.82v-19.515h-293.82v19.515zM1538.34 776.778h293.82v-19.515h-293.82v19.515zM1538.34 743.126h293.82v-19.515h-293.82v19.515zM1538.34 709.474h293.82V689.96h-293.82v19.514zM1538.34 675.823h293.82v-19.515h-293.82v19.515z" fill="#AAD5FF"/><path fill-rule="evenodd" clip-rule="evenodd" d="M1664.27 844.081h43.27v-19.515h-43.27v19.515zM1664.27 810.429h43.27v-19.515h-43.27v19.515zM1621 844.081h43.27v-19.515H1621v19.515zM1663.61 743.126h43.27v-19.515h-43.27v19.515zM1558.16 709.473h43.27V689.96h-43.27v19.513zM1601.43 709.473h43.27V689.96h-43.27v19.513z" fill="#E8F6FF"/><path fill-rule="evenodd" clip-rule="evenodd" d="M2931.78 656.307h297.97v-48.116h-297.97v48.116zM2931.78 790.941h297.97v-81.237h-297.97v81.237z" fill="#D6EEFF"/><path d="M3735 874H1444" stroke="#D6EEFF" stroke-width="14" stroke-linecap="round"/></g><defs><clipPath id="clip0"><path fill="#fff" d="M0 0h2950v880H0z"/></clipPath></defs></svg>