<svg width="2950" height="880" fill="none" xmlns="http://www.w3.org/2000/svg"><g opacity=".7" clip-path="url(#clip0)"><path fill="#fff" d="M0 0h2950v880H0z"/><path fill-rule="evenodd" clip-rule="evenodd" d="M2624.38 784c.57.759 37.45 49.192 38.4 87.143h29.78c-3.99-12.355-21.28-57.56-68.18-87.143M2708.6 871.177h23.72c4.7-17.837 18.91-28.958 18.91-28.958s-28.22 5.522-42.63 28.958" fill="#F0CCCC"/><path fill-rule="evenodd" clip-rule="evenodd" d="M2272.57 824.158c-.52.655-11.63 26.209-10.31 50.432h-39.12c-.74-13.241-9.14-32.19-9.14-32.19s17.22 6.974 28.87 26.894c0 0 8.81-35.937 29.7-45.136M2333.88 835.611c.47.9 9.88 17.215 12.36 36.288l37.29 3.827c2.54-16.957 8.02-26.396 8.02-26.396s-15.66 4.553-24.01 17.869c0 0-9.69-20.487-33.66-31.588" fill="#F38282"/><path fill-rule="evenodd" clip-rule="evenodd" d="M238.594 122h19.814v8.93l-17.603 7.488L238.594 122z" fill="#F0CCCC"/><path fill-rule="evenodd" clip-rule="evenodd" d="M447.187 222.931v10.926h-82.068l-126.52-61.215-126.519 61.215H30v-10.926L238.599 122l208.588 100.931zM43.522 250.169h92.397v-16.31H43.522v16.31z" fill="#F0CCCC"/><path fill-rule="evenodd" clip-rule="evenodd" d="M60.467 300.297h64.249v-50.129h-64.25v50.129z" fill="#F0CCCC"/><path fill-rule="evenodd" clip-rule="evenodd" d="M65.338 879.881h50.677V250.168H65.338v629.713z" fill="#F0CCCC"/><path fill-rule="evenodd" clip-rule="evenodd" d="M427.411 228.809v9.149h-68.723l-105.949-51.262-105.947 51.262H78.058v-9.149l174.681-84.52 174.672 84.52z" fill="#F38282"/><path fill-rule="evenodd" clip-rule="evenodd" d="M59.306 250.169h93.978v-16.31H59.306v16.31z" fill="#F38282"/><path fill-rule="evenodd" clip-rule="evenodd" d="M467 222.931v10.926h-82.068l-126.52-61.215-126.519 61.215h-82.08v-10.926L258.412 122 467 222.931zM80.792 879.881h51.006V250.168H80.792v629.713z" fill="#F39C9C"/><path fill-rule="evenodd" clip-rule="evenodd" d="M348.654 250.169h92.397v-16.31h-92.397v16.31z" fill="#F0CCCC"/><path fill-rule="evenodd" clip-rule="evenodd" d="M365.598 300.297h64.249v-50.129h-64.249v50.129z" fill="#F0CCCC"/><path fill-rule="evenodd" clip-rule="evenodd" d="M370.47 879.881h50.675V250.168H370.47v629.713z" fill="#F0CCCC"/><path fill-rule="evenodd" clip-rule="evenodd" d="M151.792 784.666h202.14V406.585h-202.14v378.081z" fill="#F39C9C"/><path fill-rule="evenodd" clip-rule="evenodd" d="M172.017 775.924h76.787V428.216h-76.787v347.708z" fill="#F0CCCC"/><path fill-rule="evenodd" clip-rule="evenodd" d="M167.96 779.985h84.903v-355.83H167.96v355.83zm8.116-8.123h68.67V432.277h-68.67v339.585z" fill="#E76D6D"/><path fill-rule="evenodd" clip-rule="evenodd" d="M256.922 775.924h76.787V428.216h-76.787v347.708z" fill="#F0CCCC"/><path fill-rule="evenodd" clip-rule="evenodd" d="M252.863 779.985h84.904v-355.83h-84.904v355.83zm8.116-8.123h68.671V432.277h-68.671v339.585z" fill="#E76D6D"/><path fill-rule="evenodd" clip-rule="evenodd" d="M151.792 372.595h202.14v-98.798h-202.14v98.798z" fill="#F39C9C"/><path fill-rule="evenodd" clip-rule="evenodd" d="M146.411 372.595h5.381v-98.798h-5.381v98.798zM146.411 779.985h5.381V406.584h-5.381v373.401z" fill="#F0CCCC"/><path fill-rule="evenodd" clip-rule="evenodd" d="M164.991 361.507h175.743v-76.62H164.991v76.62z" fill="#F38282"/><path fill-rule="evenodd" clip-rule="evenodd" d="M223.681 387.717h58.361v-30.245h-58.361v30.245z" fill="#F39C9C"/><path fill-rule="evenodd" clip-rule="evenodd" d="M295.315 618.515c-10.115 0-18.343-8.162-18.343-18.193 0-10.032 8.228-18.193 18.343-18.193 10.114 0 18.342 8.161 18.342 18.193 0 10.031-8.228 18.193-18.342 18.193" fill="#F0CCCC"/><path fill-rule="evenodd" clip-rule="evenodd" d="M295.315 577.165c-12.87 0-23.303 10.367-23.303 23.157s10.433 23.157 23.303 23.157c12.87 0 23.302-10.367 23.302-23.157s-10.432-23.157-23.302-23.157m0 9.927c7.38 0 13.382 5.934 13.382 13.229 0 7.295-6.002 13.23-13.382 13.23s-13.383-5.935-13.383-13.23c0-7.295 6.003-13.229 13.383-13.229" fill="#E76D6D"/><path fill-rule="evenodd" clip-rule="evenodd" d="M295.316 602.707c-1.372 0-2.487-1.081-2.487-2.409 0-1.33 1.115-2.411 2.487-2.411 1.37 0 2.485 1.081 2.485 2.411 0 1.328-1.115 2.409-2.485 2.409" fill="#F0CCCC"/><path fill-rule="evenodd" clip-rule="evenodd" d="M295.314 592.923c-4.113 0-7.446 3.302-7.446 7.374 0 4.073 3.333 7.374 7.446 7.374 4.113 0 7.446-3.301 7.446-7.374 0-4.072-3.333-7.374-7.446-7.374" fill="#E76D6D"/><path fill-rule="evenodd" clip-rule="evenodd" d="M210.41 618.357c-10.114 0-18.342-8.126-18.342-18.114 0-9.988 8.228-18.114 18.342-18.114 10.114 0 18.343 8.126 18.343 18.114 0 9.988-8.229 18.114-18.343 18.114" fill="#F0CCCC"/><path fill-rule="evenodd" clip-rule="evenodd" d="M210.411 577.165c-12.87 0-23.303 10.332-23.303 23.078 0 12.745 10.433 23.077 23.303 23.077 12.87 0 23.302-10.332 23.302-23.077 0-12.746-10.432-23.078-23.302-23.078m0 9.927c7.379 0 13.382 5.899 13.382 13.15s-6.003 13.15-13.382 13.15c-7.38 0-13.383-5.899-13.383-13.15s6.003-13.15 13.383-13.15" fill="#E76D6D"/><path fill-rule="evenodd" clip-rule="evenodd" d="M210.411 602.707c-1.372 0-2.487-1.081-2.487-2.409 0-1.33 1.115-2.411 2.487-2.411 1.371 0 2.485 1.081 2.485 2.411 0 1.328-1.114 2.409-2.485 2.409" fill="#F0CCCC"/><path fill-rule="evenodd" clip-rule="evenodd" d="M210.411 592.923c-4.112 0-7.446 3.302-7.446 7.374 0 4.073 3.334 7.374 7.446 7.374s7.445-3.301 7.445-7.374c0-4.072-3.333-7.374-7.445-7.374" fill="#E76D6D"/><path fill-rule="evenodd" clip-rule="evenodd" d="M364.436 250.169h93.979v-16.31h-93.979v16.31z" fill="#F38282"/><path fill-rule="evenodd" clip-rule="evenodd" d="M385.923 879.881h51.006V250.168h-51.006v629.713z" fill="#F39C9C"/><path fill-rule="evenodd" clip-rule="evenodd" d="M381.949 300.297h58.954v-50.129h-58.954v50.129z" fill="#F39C9C"/><path fill-rule="evenodd" clip-rule="evenodd" d="M106.295 879.88h307.818v-49.948H106.295v49.948z" fill="#D97676"/><path fill-rule="evenodd" clip-rule="evenodd" d="M126.077 829.933h262.822v-49.948H126.077v49.948z" fill="#D97676"/><path fill-rule="evenodd" clip-rule="evenodd" d="M134.298 879.88h292.833v-49.948H134.298v49.948z" fill="#F0CCCC"/><path fill-rule="evenodd" clip-rule="evenodd" d="M149.74 829.933h257.101v-49.948H149.74v49.948z" fill="#F38282"/><path fill-rule="evenodd" clip-rule="evenodd" d="M76.816 300.297h58.956v-50.129H76.816v50.129z" fill="#F39C9C"/><path fill-rule="evenodd" clip-rule="evenodd" d="M76.67 271.397h59.249v-10.175h-59.25v10.175zM381.803 271.397h59.249v-10.175h-59.249v10.175z" fill="#F38282"/><path fill-rule="evenodd" clip-rule="evenodd" d="M583.642 705.775h146.884v-11.107H583.642v11.107z" fill="#F39C9C"/><path fill-rule="evenodd" clip-rule="evenodd" d="M678.367 261l-18.162 83.84h-19.551L622.482 261h55.885z" fill="#F0CCCC"/><path fill-rule="evenodd" clip-rule="evenodd" d="M685.027 261l-18.162 83.84h-19.55L629.142 261h55.885z" fill="#F5A2A2"/><path fill-rule="evenodd" clip-rule="evenodd" d="M728.81 409.645v258.586h-12.922V411.385c0-36.47-29.541-66.033-65.983-66.033-36.441 0-65.982 29.563-65.982 66.033v256.846H571V409.645c0-43.609 35.33-78.965 78.905-78.965 43.576 0 78.905 35.356 78.905 78.965" fill="#F0CCCC"/><path fill-rule="evenodd" clip-rule="evenodd" d="M723.067 410.717v256.847H591.102V410.717c0-36.469 29.541-66.032 65.982-66.032s65.983 29.563 65.983 66.032" fill="#F0CCCC"/><path fill-rule="evenodd" clip-rule="evenodd" d="M646.005 344.684h-.487c-36.307 0-65.739 29.455-65.739 65.788v257.095h131.965V410.472c0-36.333-29.431-65.788-65.739-65.788" fill="#D97676"/><path fill-rule="evenodd" clip-rule="evenodd" d="M735.989 408.977v258.587h-12.922V410.717c0-36.469-29.542-66.033-65.983-66.033-36.442 0-65.983 29.564-65.983 66.033v256.847h-12.922V408.977c0-43.609 35.33-78.964 78.905-78.964s78.905 35.355 78.905 78.964" fill="#F5A2A2"/><path fill-rule="evenodd" clip-rule="evenodd" d="M591.102 444.232h125.624v-13.188H591.102v13.188z" fill="#F38282"/><path fill-rule="evenodd" clip-rule="evenodd" d="M630.978 626.461c2.66 18.013-6.38 33.377-6.38 33.377s-13.351-13.841-16.01-31.854c-2.659-18.014 6.38-33.378 6.38-33.378s13.351 13.841 16.01 31.855" fill="#F5A2A2"/><path fill-rule="evenodd" clip-rule="evenodd" d="M627.088 638.228c11.893 16.205 11.462 32.745 11.462 32.745s-19.712-9.732-31.604-25.936c-11.893-16.205-11.463-32.746-11.463-32.746s19.713 9.732 31.605 25.937" fill="#F5A2A2"/><path fill-rule="evenodd" clip-rule="evenodd" d="M642.018 628.42c-3.159 17.976-16.892 31.644-16.892 31.644s-8.611-15.477-5.453-33.453c3.159-17.976 16.893-31.644 16.893-31.644s8.611 15.477 5.452 33.453" fill="#F5A2A2"/><path fill-rule="evenodd" clip-rule="evenodd" d="M651.922 641.442c-9.952 16.796-28.459 27.563-28.459 27.563s-2.372-16.465 7.581-33.261c9.952-16.796 28.459-27.563 28.459-27.563s2.372 16.465-7.581 33.261M686.604 626.83c2.807 16.225-6.734 30.064-6.734 30.064s-14.091-12.468-16.897-28.692c-2.806-16.225 6.734-30.063 6.734-30.063s14.09 12.467 16.897 28.691" fill="#F5A2A2"/><path fill-rule="evenodd" clip-rule="evenodd" d="M683.263 640.813c12.551 14.596 12.096 29.494 12.096 29.494s-20.804-8.766-33.355-23.362c-12.551-14.595-12.097-29.494-12.097-29.494s20.804 8.765 33.356 23.362" fill="#F5A2A2"/><path fill-rule="evenodd" clip-rule="evenodd" d="M699.105 627.039c-3.333 16.191-17.827 28.502-17.827 28.502s-9.089-13.94-5.754-30.131c3.333-16.191 17.827-28.503 17.827-28.503s9.089 13.941 5.754 30.132" fill="#F5A2A2"/><path fill-rule="evenodd" clip-rule="evenodd" d="M709.557 638.768c-10.503 15.129-30.035 24.827-30.035 24.827s-2.502-14.831 8.001-29.959c10.503-15.129 30.036-24.826 30.036-24.826s2.502 14.829-8.002 29.958" fill="#F5A2A2"/><path fill-rule="evenodd" clip-rule="evenodd" d="M591.102 667.314h138.536v-32.217H591.102v32.217z" fill="#D97676"/><path fill-rule="evenodd" clip-rule="evenodd" d="M591.102 667.314h15.566v-32.217h-15.566v32.217z" fill="#AE4141"/><path fill-rule="evenodd" clip-rule="evenodd" d="M578.179 694.667h157.81v-27.355h-157.81v27.355z" fill="#F39C9C"/><path fill-rule="evenodd" clip-rule="evenodd" d="M571 694.667h7.179v-27.355H571v27.355zM576.463 705.775h7.179v-11.107h-7.179v11.107z" fill="#F0CCCC"/><path fill-rule="evenodd" clip-rule="evenodd" d="M578.179 698.392h152.347v-3.724H578.179v3.724zM591.102 672.01h131.965v-4.697H591.102v4.697z" fill="#F38282"/><path fill-rule="evenodd" clip-rule="evenodd" d="M793.71 705.775h146.884v-11.107H793.71v11.107z" fill="#F39C9C"/><path fill-rule="evenodd" clip-rule="evenodd" d="M888.434 261l-18.161 83.84h-19.55L832.55 261h55.884z" fill="#F0CCCC"/><path fill-rule="evenodd" clip-rule="evenodd" d="M895.094 261l-18.161 83.84h-19.551L839.21 261h55.884z" fill="#F5A2A2"/><path fill-rule="evenodd" clip-rule="evenodd" d="M938.878 409.645v258.586h-12.922V411.385c0-36.47-29.541-66.033-65.982-66.033-36.443 0-65.984 29.563-65.984 66.033v256.846h-12.922V409.645c0-43.609 35.33-78.965 78.906-78.965 43.575 0 78.904 35.356 78.904 78.965" fill="#F0CCCC"/><path fill-rule="evenodd" clip-rule="evenodd" d="M933.135 410.717v256.847H801.169V410.717c0-36.469 29.541-66.032 65.984-66.032 36.441 0 65.982 29.563 65.982 66.032" fill="#F0CCCC"/><path fill-rule="evenodd" clip-rule="evenodd" d="M856.074 344.684h-.488c-36.307 0-65.74 29.455-65.74 65.788v257.095h131.966V410.472c0-36.333-29.432-65.788-65.738-65.788" fill="#D97676"/><path fill-rule="evenodd" clip-rule="evenodd" d="M946.057 408.977v258.587h-12.922V410.717c0-36.469-29.541-66.033-65.983-66.033-36.442 0-65.983 29.564-65.983 66.033v256.847h-12.922V408.977c0-43.609 35.33-78.964 78.905-78.964 43.576 0 78.905 35.355 78.905 78.964" fill="#F5A2A2"/><path fill-rule="evenodd" clip-rule="evenodd" d="M801.17 444.232h125.625v-13.188H801.17v13.188z" fill="#F38282"/><path fill-rule="evenodd" clip-rule="evenodd" d="M841.047 626.461c2.659 18.013-6.381 33.377-6.381 33.377s-13.351-13.841-16.01-31.854c-2.66-18.014 6.38-33.378 6.38-33.378s13.351 13.841 16.011 31.855" fill="#F5A2A2"/><path fill-rule="evenodd" clip-rule="evenodd" d="M837.156 638.228c11.892 16.205 11.462 32.745 11.462 32.745s-19.713-9.732-31.605-25.936c-11.892-16.205-11.461-32.746-11.461-32.746s19.712 9.732 31.604 25.937" fill="#F5A2A2"/><path fill-rule="evenodd" clip-rule="evenodd" d="M852.086 628.42c-3.159 17.976-16.892 31.644-16.892 31.644s-8.611-15.477-5.453-33.453c3.16-17.976 16.893-31.644 16.893-31.644s8.612 15.477 5.452 33.453" fill="#F5A2A2"/><path fill-rule="evenodd" clip-rule="evenodd" d="M861.99 641.442c-9.953 16.796-28.46 27.563-28.46 27.563s-2.371-16.465 7.582-33.261c9.952-16.796 28.459-27.563 28.459-27.563s2.371 16.465-7.581 33.261M896.672 626.83c2.806 16.225-6.735 30.064-6.735 30.064s-14.09-12.468-16.897-28.692c-2.806-16.225 6.735-30.063 6.735-30.063s14.09 12.467 16.897 28.691" fill="#F5A2A2"/><path fill-rule="evenodd" clip-rule="evenodd" d="M893.33 640.813c12.552 14.596 12.097 29.494 12.097 29.494s-20.804-8.766-33.355-23.362c-12.551-14.595-12.096-29.494-12.096-29.494s20.803 8.765 33.354 23.362" fill="#F5A2A2"/><path fill-rule="evenodd" clip-rule="evenodd" d="M909.174 627.039c-3.335 16.191-17.829 28.502-17.829 28.502s-9.088-13.94-5.754-30.131c3.333-16.191 17.827-28.503 17.827-28.503s9.089 13.941 5.756 30.132" fill="#F5A2A2"/><path fill-rule="evenodd" clip-rule="evenodd" d="M919.626 638.768c-10.504 15.129-30.036 24.827-30.036 24.827s-2.502-14.831 8.001-29.959c10.503-15.129 30.036-24.826 30.036-24.826s2.503 14.829-8.001 29.958" fill="#F5A2A2"/><path fill-rule="evenodd" clip-rule="evenodd" d="M801.169 667.314h138.537v-32.217H801.169v32.217z" fill="#D97676"/><path fill-rule="evenodd" clip-rule="evenodd" d="M801.169 667.314h15.567v-32.217h-15.567v32.217z" fill="#AE4141"/><path fill-rule="evenodd" clip-rule="evenodd" d="M788.247 694.667h157.809v-27.355H788.247v27.355z" fill="#F39C9C"/><path fill-rule="evenodd" clip-rule="evenodd" d="M781.068 694.667h7.179v-27.355h-7.179v27.355zM786.531 705.775h7.179v-11.107h-7.179v11.107z" fill="#F0CCCC"/><path fill-rule="evenodd" clip-rule="evenodd" d="M788.248 698.392h152.346v-3.724H788.248v3.724zM801.169 672.01h131.966v-4.697H801.169v4.697z" fill="#F38282"/><path fill-rule="evenodd" clip-rule="evenodd" d="M2711.46 122h-19.81v8.93l17.6 7.488 2.21-16.418z" fill="#F0CCCC"/><path fill-rule="evenodd" clip-rule="evenodd" d="M2502.87 222.931v10.926h82.07l126.52-61.215 126.52 61.215h82.08v-10.926L2711.46 122l-208.59 100.931zM2906.53 250.169h-92.39v-16.31h92.39v16.31z" fill="#F0CCCC"/><path fill-rule="evenodd" clip-rule="evenodd" d="M2889.59 300.297h-64.25v-50.129h64.25v50.129z" fill="#F0CCCC"/><path fill-rule="evenodd" clip-rule="evenodd" d="M2884.72 879.881h-50.68V250.168h50.68v629.713z" fill="#F0CCCC"/><path fill-rule="evenodd" clip-rule="evenodd" d="M2522.65 228.809v9.149h68.72l105.95-51.262 105.94 51.262H2872v-9.149l-174.68-84.52-174.67 84.52z" fill="#F38282"/><path fill-rule="evenodd" clip-rule="evenodd" d="M2890.75 250.169h-93.98v-16.31h93.98v16.31z" fill="#F38282"/><path fill-rule="evenodd" clip-rule="evenodd" d="M2483.06 222.931v10.926h82.06l126.52-61.215 126.52 61.215h82.08v-10.926L2691.64 122l-208.58 100.931zM2869.26 879.881h-51V250.168h51v629.713z" fill="#F39C9C"/><path fill-rule="evenodd" clip-rule="evenodd" d="M2601.4 250.169h-92.39v-16.31h92.39v16.31z" fill="#F0CCCC"/><path fill-rule="evenodd" clip-rule="evenodd" d="M2584.46 300.297h-64.25v-50.129h64.25v50.129z" fill="#F0CCCC"/><path fill-rule="evenodd" clip-rule="evenodd" d="M2579.59 879.881h-50.68V250.168h50.68v629.713z" fill="#F0CCCC"/><path fill-rule="evenodd" clip-rule="evenodd" d="M2798.26 784.666h-202.14V406.585h202.14v378.081z" fill="#F39C9C"/><path fill-rule="evenodd" clip-rule="evenodd" d="M2778.04 775.924h-76.79V428.216h76.79v347.708z" fill="#F0CCCC"/><path fill-rule="evenodd" clip-rule="evenodd" d="M2782.1 779.985h-84.91v-355.83h84.91v355.83zm-8.12-8.123h-68.67V432.277h68.67v339.585z" fill="#E76D6D"/><path fill-rule="evenodd" clip-rule="evenodd" d="M2693.13 775.924h-76.78V428.216h76.78v347.708z" fill="#F0CCCC"/><path fill-rule="evenodd" clip-rule="evenodd" d="M2697.19 779.985h-84.9v-355.83h84.9v355.83zm-8.11-8.123h-68.67V432.277h68.67v339.585z" fill="#E76D6D"/><path fill-rule="evenodd" clip-rule="evenodd" d="M2798.26 372.595h-202.14v-98.798h202.14v98.798z" fill="#F39C9C"/><path fill-rule="evenodd" clip-rule="evenodd" d="M2803.65 372.595h-5.39v-98.798h5.39v98.798zM2803.65 779.985h-5.39V406.584h5.39v373.401z" fill="#F0CCCC"/><path fill-rule="evenodd" clip-rule="evenodd" d="M2785.07 361.507h-175.75v-76.62h175.75v76.62z" fill="#F38282"/><path fill-rule="evenodd" clip-rule="evenodd" d="M2726.38 387.717h-58.37v-30.245h58.37v30.245z" fill="#F39C9C"/><path fill-rule="evenodd" clip-rule="evenodd" d="M2654.74 618.515c10.12 0 18.34-8.162 18.34-18.193 0-10.032-8.22-18.193-18.34-18.193-10.11 0-18.34 8.161-18.34 18.193 0 10.031 8.23 18.193 18.34 18.193" fill="#F0CCCC"/><path fill-rule="evenodd" clip-rule="evenodd" d="M2654.74 577.165c12.87 0 23.3 10.367 23.3 23.157s-10.43 23.157-23.3 23.157c-12.87 0-23.3-10.367-23.3-23.157s10.43-23.157 23.3-23.157m0 9.927c-7.38 0-13.38 5.934-13.38 13.229 0 7.295 6 13.23 13.38 13.23 7.38 0 13.38-5.935 13.38-13.23 0-7.295-6-13.229-13.38-13.229" fill="#E76D6D"/><path fill-rule="evenodd" clip-rule="evenodd" d="M2654.74 602.707c1.37 0 2.49-1.081 2.49-2.409 0-1.33-1.12-2.411-2.49-2.411s-2.48 1.081-2.48 2.411c0 1.328 1.11 2.409 2.48 2.409" fill="#F0CCCC"/><path fill-rule="evenodd" clip-rule="evenodd" d="M2654.74 592.923c4.12 0 7.45 3.302 7.45 7.374 0 4.073-3.33 7.374-7.45 7.374-4.11 0-7.44-3.301-7.44-7.374 0-4.072 3.33-7.374 7.44-7.374" fill="#E76D6D"/><path fill-rule="evenodd" clip-rule="evenodd" d="M2739.65 618.357c10.11 0 18.34-8.126 18.34-18.114 0-9.988-8.23-18.114-18.34-18.114-10.12 0-18.35 8.126-18.35 18.114 0 9.988 8.23 18.114 18.35 18.114" fill="#F0CCCC"/><path fill-rule="evenodd" clip-rule="evenodd" d="M2739.65 577.165c12.87 0 23.3 10.332 23.3 23.078 0 12.745-10.43 23.077-23.3 23.077-12.87 0-23.31-10.332-23.31-23.077 0-12.746 10.44-23.078 23.31-23.078m0 9.927c-7.38 0-13.39 5.899-13.39 13.15s6.01 13.15 13.39 13.15c7.38 0 13.38-5.899 13.38-13.15s-6-13.15-13.38-13.15" fill="#E76D6D"/><path fill-rule="evenodd" clip-rule="evenodd" d="M2739.65 602.707c1.37 0 2.48-1.081 2.48-2.409 0-1.33-1.11-2.411-2.48-2.411-1.38 0-2.49 1.081-2.49 2.411 0 1.328 1.11 2.409 2.49 2.409" fill="#F0CCCC"/><path fill-rule="evenodd" clip-rule="evenodd" d="M2739.65 592.923c4.11 0 7.44 3.302 7.44 7.374 0 4.073-3.33 7.374-7.44 7.374-4.12 0-7.45-3.301-7.45-7.374 0-4.072 3.33-7.374 7.45-7.374" fill="#E76D6D"/><path fill-rule="evenodd" clip-rule="evenodd" d="M2585.62 250.169h-93.98v-16.31h93.98v16.31z" fill="#F38282"/><path fill-rule="evenodd" clip-rule="evenodd" d="M2564.13 879.881h-51V250.168h51v629.713z" fill="#F39C9C"/><path fill-rule="evenodd" clip-rule="evenodd" d="M2568.11 300.297h-58.96v-50.129h58.96v50.129z" fill="#F39C9C"/><path fill-rule="evenodd" clip-rule="evenodd" d="M2843.76 879.88h-307.82v-49.948h307.82v49.948z" fill="#D97676"/><path fill-rule="evenodd" clip-rule="evenodd" d="M2823.98 829.933h-262.82v-49.948h262.82v49.948z" fill="#D97676"/><path fill-rule="evenodd" clip-rule="evenodd" d="M2815.76 879.88h-292.83v-49.948h292.83v49.948z" fill="#F0CCCC"/><path fill-rule="evenodd" clip-rule="evenodd" d="M2800.32 829.933h-257.1v-49.948h257.1v49.948z" fill="#F38282"/><path fill-rule="evenodd" clip-rule="evenodd" d="M2873.24 300.297h-58.96v-50.129h58.96v50.129z" fill="#F39C9C"/><path fill-rule="evenodd" clip-rule="evenodd" d="M2873.39 271.397h-59.25v-10.175h59.25v10.175zM2568.25 271.397H2509v-10.175h59.25v10.175z" fill="#F38282"/><path fill-rule="evenodd" clip-rule="evenodd" d="M2366.41 705.775h-146.88v-11.107h146.88v11.107z" fill="#F39C9C"/><path fill-rule="evenodd" clip-rule="evenodd" d="M2271.69 261l18.16 83.84h19.55l18.17-83.84h-55.88z" fill="#F0CCCC"/><path fill-rule="evenodd" clip-rule="evenodd" d="M2265.03 261l18.16 83.84h19.55l18.17-83.84h-55.88z" fill="#F5A2A2"/><path fill-rule="evenodd" clip-rule="evenodd" d="M2221.25 409.645v258.586h12.92V411.385c0-36.47 29.54-66.033 65.98-66.033 36.44 0 65.98 29.563 65.98 66.033v256.846h12.93V409.645c0-43.609-35.33-78.965-78.91-78.965-43.57 0-78.9 35.356-78.9 78.965" fill="#F0CCCC"/><path fill-rule="evenodd" clip-rule="evenodd" d="M2226.99 410.717v256.847h131.97V410.717c0-36.469-29.55-66.032-65.99-66.032s-65.98 29.563-65.98 66.032" fill="#F0CCCC"/><path fill-rule="evenodd" clip-rule="evenodd" d="M2304.05 344.684h.49c36.31 0 65.74 29.455 65.74 65.788v257.095h-131.97V410.472c0-36.333 29.43-65.788 65.74-65.788" fill="#D97676"/><path fill-rule="evenodd" clip-rule="evenodd" d="M2214.07 408.977v258.587h12.92V410.717c0-36.469 29.54-66.033 65.98-66.033 36.44 0 65.99 29.564 65.99 66.033v256.847h12.92V408.977c0-43.609-35.33-78.964-78.91-78.964-43.57 0-78.9 35.355-78.9 78.964" fill="#F5A2A2"/><path fill-rule="evenodd" clip-rule="evenodd" d="M2358.95 444.232h-125.62v-13.188h125.62v13.188z" fill="#F38282"/><path fill-rule="evenodd" clip-rule="evenodd" d="M2319.08 626.461c-2.66 18.013 6.38 33.377 6.38 33.377s13.35-13.841 16.01-31.854c2.66-18.014-6.38-33.378-6.38-33.378s-13.35 13.841-16.01 31.855" fill="#F5A2A2"/><path fill-rule="evenodd" clip-rule="evenodd" d="M2322.97 638.228c-11.89 16.205-11.46 32.745-11.46 32.745s19.71-9.732 31.6-25.936c11.89-16.205 11.46-32.746 11.46-32.746s-19.71 9.732-31.6 25.937" fill="#F5A2A2"/><path fill-rule="evenodd" clip-rule="evenodd" d="M2308.04 628.42c3.16 17.976 16.89 31.644 16.89 31.644s8.61-15.477 5.45-33.453c-3.16-17.976-16.89-31.644-16.89-31.644s-8.61 15.477-5.45 33.453" fill="#F5A2A2"/><path fill-rule="evenodd" clip-rule="evenodd" d="M2298.13 641.442c9.96 16.796 28.46 27.563 28.46 27.563s2.38-16.465-7.58-33.261c-9.95-16.796-28.46-27.563-28.46-27.563s-2.37 16.465 7.58 33.261M2263.45 626.83c-2.8 16.225 6.74 30.064 6.74 30.064s14.09-12.468 16.89-28.692c2.81-16.225-6.73-30.063-6.73-30.063s-14.09 12.467-16.9 28.691" fill="#F5A2A2"/><path fill-rule="evenodd" clip-rule="evenodd" d="M2266.79 640.813c-12.55 14.596-12.09 29.494-12.09 29.494s20.8-8.766 33.35-23.362c12.55-14.595 12.1-29.494 12.1-29.494s-20.8 8.765-33.36 23.362" fill="#F5A2A2"/><path fill-rule="evenodd" clip-rule="evenodd" d="M2250.95 627.039c3.33 16.191 17.83 28.502 17.83 28.502s9.09-13.94 5.75-30.131c-3.33-16.191-17.82-28.503-17.82-28.503s-9.09 13.941-5.76 30.132" fill="#F5A2A2"/><path fill-rule="evenodd" clip-rule="evenodd" d="M2240.5 638.768c10.5 15.129 30.03 24.827 30.03 24.827s2.51-14.831-8-29.959c-10.5-15.129-30.03-24.826-30.03-24.826s-2.5 14.829 8 29.958" fill="#F5A2A2"/><path fill-rule="evenodd" clip-rule="evenodd" d="M2358.96 667.314h-138.54v-32.217h138.54v32.217z" fill="#D97676"/><path fill-rule="evenodd" clip-rule="evenodd" d="M2358.96 667.314h-15.57v-32.217h15.57v32.217z" fill="#AE4141"/><path fill-rule="evenodd" clip-rule="evenodd" d="M2371.88 694.667h-157.81v-27.355h157.81v27.355z" fill="#F39C9C"/><path fill-rule="evenodd" clip-rule="evenodd" d="M2379.06 694.667h-7.18v-27.355h7.18v27.355zM2373.59 705.775h-7.18v-11.107h7.18v11.107z" fill="#F0CCCC"/><path fill-rule="evenodd" clip-rule="evenodd" d="M2371.88 698.392h-152.35v-3.724h152.35v3.724zM2358.96 672.01h-131.97v-4.697h131.97v4.697z" fill="#F38282"/><path fill-rule="evenodd" clip-rule="evenodd" d="M2156.35 705.775h-146.89v-11.107h146.89v11.107z" fill="#F39C9C"/><path fill-rule="evenodd" clip-rule="evenodd" d="M2061.62 261l18.16 83.84h19.55l18.18-83.84h-55.89z" fill="#F0CCCC"/><path fill-rule="evenodd" clip-rule="evenodd" d="M2054.96 261l18.16 83.84h19.55l18.18-83.84h-55.89z" fill="#F5A2A2"/><path fill-rule="evenodd" clip-rule="evenodd" d="M2011.18 409.645v258.586h12.92V411.385c0-36.47 29.54-66.033 65.98-66.033 36.45 0 65.99 29.563 65.99 66.033v256.846h12.92V409.645c0-43.609-35.33-78.965-78.91-78.965-43.57 0-78.9 35.356-78.9 78.965" fill="#F0CCCC"/><path fill-rule="evenodd" clip-rule="evenodd" d="M2016.92 410.717v256.847h131.97V410.717c0-36.469-29.54-66.032-65.99-66.032-36.44 0-65.98 29.563-65.98 66.032" fill="#F0CCCC"/><path fill-rule="evenodd" clip-rule="evenodd" d="M2093.98 344.684h.49c36.31 0 65.74 29.455 65.74 65.788v257.095h-131.97V410.472c0-36.333 29.44-65.788 65.74-65.788" fill="#D97676"/><path fill-rule="evenodd" clip-rule="evenodd" d="M2004 408.977v258.587h12.92V410.717c0-36.469 29.54-66.033 65.98-66.033 36.45 0 65.99 29.564 65.99 66.033v256.847h12.92V408.977c0-43.609-35.33-78.964-78.91-78.964-43.57 0-78.9 35.355-78.9 78.964" fill="#F5A2A2"/><path fill-rule="evenodd" clip-rule="evenodd" d="M2148.89 444.232h-125.63v-13.188h125.63v13.188z" fill="#F38282"/><path fill-rule="evenodd" clip-rule="evenodd" d="M2109.01 626.461c-2.66 18.013 6.38 33.377 6.38 33.377s13.35-13.841 16.01-31.854c2.66-18.014-6.38-33.378-6.38-33.378s-13.35 13.841-16.01 31.855" fill="#F5A2A2"/><path fill-rule="evenodd" clip-rule="evenodd" d="M2112.9 638.228c-11.89 16.205-11.46 32.745-11.46 32.745s19.71-9.732 31.6-25.936c11.9-16.205 11.46-32.746 11.46-32.746s-19.71 9.732-31.6 25.937" fill="#F5A2A2"/><path fill-rule="evenodd" clip-rule="evenodd" d="M2097.97 628.42c3.16 17.976 16.89 31.644 16.89 31.644s8.61-15.477 5.46-33.453c-3.16-17.976-16.9-31.644-16.9-31.644s-8.61 15.477-5.45 33.453" fill="#F5A2A2"/><path fill-rule="evenodd" clip-rule="evenodd" d="M2088.07 641.442c9.95 16.796 28.46 27.563 28.46 27.563s2.37-16.465-7.58-33.261c-9.96-16.796-28.46-27.563-28.46-27.563s-2.38 16.465 7.58 33.261M2053.38 626.83c-2.8 16.225 6.74 30.064 6.74 30.064s14.09-12.468 16.9-28.692c2.8-16.225-6.74-30.063-6.74-30.063s-14.09 12.467-16.9 28.691" fill="#F5A2A2"/><path fill-rule="evenodd" clip-rule="evenodd" d="M2056.73 640.813c-12.55 14.596-12.1 29.494-12.1 29.494s20.8-8.766 33.35-23.362c12.56-14.595 12.1-29.494 12.1-29.494s-20.8 8.765-33.35 23.362" fill="#F5A2A2"/><path fill-rule="evenodd" clip-rule="evenodd" d="M2040.88 627.039c3.34 16.191 17.83 28.502 17.83 28.502s9.09-13.94 5.76-30.131c-3.34-16.191-17.83-28.503-17.83-28.503s-9.09 13.941-5.76 30.132" fill="#F5A2A2"/><path fill-rule="evenodd" clip-rule="evenodd" d="M2030.43 638.768c10.5 15.129 30.04 24.827 30.04 24.827s2.5-14.831-8-29.959c-10.51-15.129-30.04-24.826-30.04-24.826s-2.5 14.829 8 29.958" fill="#F5A2A2"/><path fill-rule="evenodd" clip-rule="evenodd" d="M2148.89 667.314h-138.54v-32.217h138.54v32.217z" fill="#D97676"/><path fill-rule="evenodd" clip-rule="evenodd" d="M2148.89 667.314h-15.57v-32.217h15.57v32.217z" fill="#AE4141"/><path fill-rule="evenodd" clip-rule="evenodd" d="M2161.81 694.667H2004v-27.355h157.81v27.355z" fill="#F39C9C"/><path fill-rule="evenodd" clip-rule="evenodd" d="M2168.99 694.667h-7.18v-27.355h7.18v27.355zM2163.53 705.775h-7.18v-11.107h7.18v11.107z" fill="#F0CCCC"/><path fill-rule="evenodd" clip-rule="evenodd" d="M2161.81 698.392h-152.35v-3.724h152.35v3.724zM2148.89 672.01h-131.97v-4.697h131.97v4.697z" fill="#F38282"/><path fill-rule="evenodd" clip-rule="evenodd" d="M2043.09 839.681c-.45.588-13.78 18.377-15.45 34.76h-23.43c11.06-21.989 38.27-34.487 38.88-34.76" fill="#F0CCCC"/><path fill-rule="evenodd" clip-rule="evenodd" d="M1002.36 842.582c.44.588 13.77 18.377 15.44 34.759h23.44c-11.07-21.987-38.27-34.486-38.88-34.759M1511.86 843.095c.44.588 13.77 18.377 15.45 34.759h23.43c-11.06-21.988-38.27-34.486-38.88-34.759M2120.17 854c-.31.42-7.06 9.419-11.59 20.441h-16.97c12.4-13.023 28.1-20.239 28.56-20.441M1152.47 877.342h-24.83c-.14-17.837-9.3-41.058-9.3-41.058s27.24 22.247 34.13 41.058zM1159.93 877.342c6-12.701 6.36-22.933 6.36-22.933s11.78 12.8 16.79 22.933h-23.15zM1962.25 773.577c-.35 1.078-19.73 54.535-21.6 100.864h-31.29c1.86-20.921-7.47-46.186-7.47-46.186s16.65 12.776 20.96 31.007c0 0 12.92-58.117 39.4-85.685M1990.29 830.836s-18.3 24.297-23.19 43.606h-17.03c5.81-11.919 19.75-36.083 40.22-43.606" fill="#F38282"/><path d="M1288.12 875.704s-23.68-53.233-59.43-78.597M1300.02 877.342s-3.88-80.547 25.41-110.089" stroke="#D97676" stroke-width="6.3" stroke-linecap="square"/><path fill-rule="evenodd" clip-rule="evenodd" d="M1303.3 767.252c0 9.984 8.09 18.077 18.08 18.077 9.98 0 18.07-8.093 18.07-18.077 0-9.984-8.09-18.077-18.07-18.077-9.99 0-18.08 8.093-18.08 18.077M1217.41 804.794c0 9.984 8.09 18.077 18.08 18.077 9.98 0 18.07-8.093 18.07-18.077 0-9.984-8.09-18.077-18.07-18.077-9.99 0-18.08 8.093-18.08 18.077" fill="#D97676"/><path d="M1625.5 872.894s-2.74-36.487 17.66-79.137M1614.08 876.621s-17.47-76.512-62.76-113.85" stroke="#D97676" stroke-width="6.3" stroke-linecap="square"/><path fill-rule="evenodd" clip-rule="evenodd" d="M1568.53 754.867c1.78 9.825-4.75 19.228-14.57 21.002-9.83 1.775-19.23-4.751-21-14.575-1.78-9.825 4.75-19.228 14.57-21.003 9.82-1.775 19.23 4.751 21 14.576M1665.89 777.132c1.78 9.825-4.75 19.228-14.57 21.003-9.83 1.774-19.23-4.752-21.01-14.577-1.77-9.824 4.76-19.228 14.58-21.002 9.82-1.775 19.23 4.751 21 14.576" fill="#D97676"/><path fill-rule="evenodd" clip-rule="evenodd" d="M1362.34 787.264c-.58.758-37.46 49.192-38.4 87.143h-29.78c3.98-12.356 21.28-57.56 68.18-87.143M1278.12 874.441h-23.73c-4.69-17.837-18.9-28.959-18.9-28.959s28.21 5.523 42.63 28.959" fill="#F0CCCC"/><path fill-rule="evenodd" clip-rule="evenodd" d="M1714.15 827.422c.52.655 11.63 26.209 10.3 50.431h39.12c.75-13.24 9.14-32.189 9.14-32.189s-17.22 6.974-28.86 26.894c0 0-8.82-35.937-29.7-45.136M1652.83 838.875c-.46.899-9.88 17.215-12.36 36.288l-37.29 3.826c-2.54-16.956-8.02-26.396-8.02-26.396s15.66 4.553 24.02 17.869c0 0 9.68-20.486 33.65-31.587" fill="#F38282"/><path d="M2959 873.5H0" stroke="#F38282" stroke-width="14" stroke-linecap="round"/><path fill-rule="evenodd" clip-rule="evenodd" d="M552.847 781c-.574.759-37.452 49.192-38.397 87.143h-29.782c3.989-12.355 21.28-57.56 68.179-87.143M468.63 868.177h-23.729C440.208 850.34 426 839.219 426 839.219s28.215 5.522 42.63 28.958" fill="#F0CCCC"/><path fill-rule="evenodd" clip-rule="evenodd" d="M904.66 821.158c.519.655 11.627 26.209 10.306 50.432h39.116c.746-13.241 9.144-32.19 9.144-32.19s-17.225 6.974-28.868 26.894c0 0-8.812-35.937-29.698-45.136M843.345 832.611c-.465.9-9.879 17.215-12.359 36.288l-37.291 3.827c-2.54-16.957-8.023-26.396-8.023-26.396s15.659 4.553 24.018 17.869c0 0 9.687-20.487 33.655-31.588" fill="#F38282"/></g><defs><clipPath id="clip0"><path fill="#fff" d="M0 0h2950v880H0z"/></clipPath></defs></svg>