<svg width="2950" height="880" fill="none" xmlns="http://www.w3.org/2000/svg"><g opacity=".7" clip-path="url(#clip0)"><path fill="#fff" d="M0 0h2950v880H0z"/><path fill-rule="evenodd" clip-rule="evenodd" d="M191 876h143V647H191v229z" fill="#D5C5B3"/><path fill-rule="evenodd" clip-rule="evenodd" d="M253 876H111V585.038L253 489v387z" fill="#F9F2EA"/><path fill-rule="evenodd" clip-rule="evenodd" d="M291 876h28V446h-28v430z" fill="#D5C5B3"/><path fill-rule="evenodd" clip-rule="evenodd" d="M319 876h75V446h-75v430z" fill="#F9F2EA"/><path fill-rule="evenodd" clip-rule="evenodd" d="M758 877h35V514h-35v363z" fill="#D5C5B3"/><path fill-rule="evenodd" clip-rule="evenodd" d="M793 877h97V514h-97v363zM915 877h86V628h-86v249zM1001 875h86V688h-86v187zM1856 875h86V688h-86v187zM43 876h38V600H43v276z" fill="#F9F2EA"/><path fill-rule="evenodd" clip-rule="evenodd" d="M-7 878h50V616H-7v262z" fill="#D5C5B3"/><path fill-rule="evenodd" clip-rule="evenodd" d="M433.778 877.814h75.511V504.581h-75.511v373.233z" fill="#F9F2EA"/><path fill-rule="evenodd" clip-rule="evenodd" d="M434.906 877.814h26.939V504.581h-26.939v373.233zM485.081 504.58h26.938v-32.905h-26.938v32.905z" fill="#D5C5B3"/><path fill-rule="evenodd" clip-rule="evenodd" d="M526 876h111V561H526v315z" fill="#F9F2EA"/><path fill-rule="evenodd" clip-rule="evenodd" d="M509 876h34V472h-34v404z" fill="#F9F2EA"/><path fill-rule="evenodd" clip-rule="evenodd" d="M542.938 876.653h26.937V561.498h-26.937v315.155z" fill="#D5C5B3"/><path fill-rule="evenodd" clip-rule="evenodd" d="M654 878h42V372h-42v506z" fill="#F9F2EA"/><path fill-rule="evenodd" clip-rule="evenodd" d="M620 876h39V415h-39v461zM688 878h39V407h-39v471z" fill="#F9F2EA"/><path fill-rule="evenodd" clip-rule="evenodd" d="M669.061 753.829h10.479v-345.58h-10.479v345.58zM635.826 778.596h10.479V433.018h-10.479v345.578zM702.296 778.596h10.48V433.018h-10.48v345.578zM276.912 294.609h89.45v9.379c0 8.902-7.214 16.117-16.113 16.117h-57.224c-8.899 0-16.113-7.215-16.113-16.117v-9.379z" fill="#D5C5B3"/><path d="M137.028 775.404V417.952c0-69.279 56.144-125.44 125.401-125.44" stroke="#A08C7A" stroke-width="12.6"/><path fill-rule="evenodd" clip-rule="evenodd" d="M156.743 876.714h-39.429l4.163-142.61h31.103l4.163 142.61zM383.47 306.249H259.804v-19.131c0-8.902 7.214-16.118 16.113-16.118h91.44c8.899 0 16.113 7.216 16.113 16.118v19.131z" fill="#7A4F0F"/><path d="M1091.57 876.673H-134" stroke="#696058" stroke-width="14" stroke-linecap="round"/><path fill-rule="evenodd" clip-rule="evenodd" d="M2751.57 878h-143V649h143v229z" fill="#D5C5B3"/><path fill-rule="evenodd" clip-rule="evenodd" d="M2689.57 878h142V587.038l-142-96.038v387z" fill="#F9F2EA"/><path fill-rule="evenodd" clip-rule="evenodd" d="M2651.57 878h-28V448h28v430z" fill="#D5C5B3"/><path fill-rule="evenodd" clip-rule="evenodd" d="M2623.57 878h-75V448h75v430z" fill="#F9F2EA"/><path fill-rule="evenodd" clip-rule="evenodd" d="M2184.57 879h-35V516h35v363z" fill="#D5C5B3"/><path fill-rule="evenodd" clip-rule="evenodd" d="M2149.57 879h-97V516h97v363zM2027.57 879h-86V630h86v249zM2899.57 878h-38V602h38v276z" fill="#F9F2EA"/><path fill-rule="evenodd" clip-rule="evenodd" d="M2949.57 880h-50V618h50v262z" fill="#D5C5B3"/><path fill-rule="evenodd" clip-rule="evenodd" d="M2508.8 879.814h-75.51V506.581h75.51v373.233z" fill="#F9F2EA"/><path fill-rule="evenodd" clip-rule="evenodd" d="M2507.67 879.814h-26.94V506.581h26.94v373.233zM2457.49 506.58h-26.94v-32.905h26.94v32.905z" fill="#D5C5B3"/><path fill-rule="evenodd" clip-rule="evenodd" d="M2416.57 878h-111V563h111v315z" fill="#F9F2EA"/><path fill-rule="evenodd" clip-rule="evenodd" d="M2433.57 878h-34V474h34v404z" fill="#F9F2EA"/><path fill-rule="evenodd" clip-rule="evenodd" d="M2399.64 878.653h-26.94V563.498h26.94v315.155z" fill="#D5C5B3"/><path fill-rule="evenodd" clip-rule="evenodd" d="M2288.57 880h-42V374h42v506z" fill="#F9F2EA"/><path fill-rule="evenodd" clip-rule="evenodd" d="M2322.57 878h-39V417h39v461zM2254.57 880h-39V409h39v471z" fill="#F9F2EA"/><path fill-rule="evenodd" clip-rule="evenodd" d="M2273.51 755.829h-10.48v-345.58h10.48v345.58zM2306.75 780.596h-10.48V435.018h10.48v345.578zM2240.28 780.596h-10.48V435.018h10.48v345.578zM2665.66 296.609h-89.45v9.379c0 8.902 7.22 16.117 16.11 16.117h57.23c8.9 0 16.11-7.215 16.11-16.117v-9.379z" fill="#D5C5B3"/><path d="M2805.54 777.404V419.952c0-69.279-56.14-125.44-125.4-125.44" stroke="#A08C7A" stroke-width="12.6"/><path fill-rule="evenodd" clip-rule="evenodd" d="M2785.83 878.714h39.43l-4.16-142.61h-31.11l-4.16 142.61zM2559.1 308.249h123.67v-19.131c0-8.902-7.21-16.118-16.11-16.118h-91.44c-8.9 0-16.12 7.216-16.12 16.118v19.131z" fill="#7A4F0F"/><path d="M1082 876.668h1885.57" stroke="#696058" stroke-width="14" stroke-linecap="round"/><path fill-rule="evenodd" clip-rule="evenodd" d="M1228 789.585c0 25.895-12.41 49.415-40.5 49.415s-40.5-23.52-40.5-49.415c0-30.378 21.23-60.585 40.5-60.585s40.5 30.207 40.5 60.585z" fill="#E8DACE"/><path d="M1187 789v78" stroke="#927D6B" stroke-width="5.5" stroke-linecap="square"/><path d="M1201 796l12-11" stroke="#927D6B" stroke-width="4.3" stroke-linecap="square"/><path d="M1175 808l-15-13" stroke="#927D6B" stroke-width="3.3" stroke-linecap="square"/><path fill-rule="evenodd" clip-rule="evenodd" d="M1796 789.585c0 25.895-12.41 49.415-40.5 49.415s-40.5-23.52-40.5-49.415c0-30.378 21.23-60.585 40.5-60.585s40.5 30.207 40.5 60.585z" fill="#E8DACE"/><path d="M1755 789v78" stroke="#927D6B" stroke-width="5.5" stroke-linecap="square"/><path d="M1769 796l12-11" stroke="#927D6B" stroke-width="4.3" stroke-linecap="square"/><path d="M1743 808l-15-13" stroke="#927D6B" stroke-width="3.3" stroke-linecap="square"/></g><defs><clipPath id="clip0"><path fill="#fff" d="M0 0h2950v880H0z"/></clipPath></defs></svg>