<svg width="2950" height="880" fill="none" xmlns="http://www.w3.org/2000/svg"><g opacity=".7" clip-path="url(#clip0)"><path fill="#fff" d="M0 0h2950v880H0z"/><path fill-rule="evenodd" clip-rule="evenodd" d="M161.083 402.135h251.935c0 33.384-27.058 60.446-60.435 60.446H221.518c-33.376 0-60.435-27.062-60.435-60.446" fill="#DEDEDE"/><path fill-rule="evenodd" clip-rule="evenodd" d="M161.083 761.751h251.935v3.307c0 7.786-6.311 14.099-14.096 14.099H175.179c-7.785 0-14.096-6.313-14.096-14.099v-3.307z" fill="#A6BCAC"/><path fill-rule="evenodd" clip-rule="evenodd" d="M555.721 634.763H18.381c0-32.889 26.657-59.55 59.54-59.55h418.26c32.883 0 59.54 26.661 59.54 59.55" fill="#A3ABA4"/><path fill-rule="evenodd" clip-rule="evenodd" d="M79.49 634.763h415.121c0 43.407-35.182 78.596-78.582 78.596H158.072c-43.399 0-78.582-35.189-78.582-78.596" fill="#DEDEDE"/><path fill-rule="evenodd" clip-rule="evenodd" d="M415.446 575.22h-256.79c47.831-.279 86.528-50.59 86.528-112.638h83.734c0 62.048 38.698 112.359 86.528 112.638M371.206 341.687H202.897c47.83-.204 60.707-37.096 60.707-82.596h46.894c0 45.5 12.877 82.392 60.708 82.596" fill="#A6BCAC"/><path fill-rule="evenodd" clip-rule="evenodd" d="M451.522 402.136H122.58c0-33.385 27.059-60.448 60.438-60.448h208.067c33.378 0 60.437 27.063 60.437 60.448z" fill="#A3ABA4"/><path fill-rule="evenodd" clip-rule="evenodd" d="M682.288 880.411h-790.474l-3.873-79.094h798.22l-3.873 79.094z" fill="#A6BCAC"/><path fill-rule="evenodd" clip-rule="evenodd" d="M693.936 801.317h-813.77c-10.032 0-18.166-8.134-18.166-18.17v-4.262h850.103v4.262c0 10.036-8.133 18.17-18.167 18.17M-106.141 854.772h786.384c10.033 0 18.167 8.134 18.167 18.17v4.262h-822.718v-4.262c0-10.036 8.134-18.17 18.167-18.17" fill="#BAD3B6"/><path d="M22.1 634.971v100.535M22.1 750.999v22.496M65.938 634.971v100.535M65.938 750.584v22.911M111.863 714.78v22.911M198.163 469.643v48.22M373.939 466.737v20.399M89.632 692.047v72.93M43.801 634.971v32.893M43.801 684.821v80.155M173.7 565.417V484.6M173.7 474.059v-22.462M126.949 568.834v-84.235M126.949 471.966v-22.698M126.949 440.231V401.87M150.557 561.948v-20.675M150.557 530.373V465.34M150.557 454.181V401.87M484.096 747.476v23.717M484.096 693.334v43.422M528.515 634.763v44.647M528.515 689.191v85.474M552.521 634.763v65.555M552.521 716.883v55.115M506.084 634.763v32.894M461.137 712.065v32.894M506.084 678.161v87.181M423.729 401.207v61.374M423.729 474.824v35.084M423.729 519.309v36.932M447.462 401.207v52.879M447.462 464.919V497.9M447.462 509.573v52.375M400.121 460.617v40.226M400.121 511.587v50.361M180.147 296.538v37.86M180.147 266.143v17.031M180.147 195.626v59.166M200.348 260.737v63.577M373.167 233.453v77.39M200.348 230.342v17.032M185.271 117.097a56.152 56.152 0 00-5.125 23.51v38.277M202.756 95.602a54.805 54.805 0 00-9.822 9.286M287.051 178.884v-38.277c0-30.353-24.053-55.187-53.452-55.187h-.001a51.592 51.592 0 00-22.843 5.326M393.955 252.517v81.88M393.955 195.626v32.834M353.764 254.792v32.834M393.955 161.329v19.992M220.337 254.447V274.44M384.193 108.909c6.145 8.985 9.762 19.926 9.762 31.698M287.051 178.884v-38.277c0-30.353 24.054-55.187 53.452-55.187 11.382 0 21.962 3.722 30.656 10.045M242.246 187.199v-14.774c0-11.715-9.284-21.3-20.632-21.3-3.149 0-6.14.739-8.817 2.056M333.384 187.199v-14.774c0-11.715 9.284-21.3 20.631-21.3 4.394 0 8.477 1.436 11.832 3.877M227.348 119.217a32.96 32.96 0 00-12.552 3.341" stroke="#B1AEAE" stroke-width="5.6"/><path d="M263.553 178.884v-24.461c0-15.247-9.495-28.313-22.68-33.208M316.251 133.283c6.249-8.565 16.175-14.129 27.298-14.129 7.274 0 14.035 2.379 19.591 6.419M309.39 178.884v-24.461c0-3.869.612-7.597 1.739-11.087M259.526 26.08C251.836 19.665 242.99 16 233.599 16v0M287.051 151.125V95.787c0-22.082-6.091-42.143-15.887-56.626M329.103 17.839a36.497 36.497 0 0111.4-1.839M287.051 151.125V95.787c0-30.874 11.905-57.797 29.202-71.047" stroke="#B1AEAE" stroke-width="5.6"/><path fill-rule="evenodd" clip-rule="evenodd" d="M370.531 216.423H203.57c0-20.732 16.805-37.54 37.532-37.54h91.896c20.729 0 37.533 16.808 37.533 37.54" fill="#A3ABA4"/><path fill-rule="evenodd" clip-rule="evenodd" d="M380.812 762.026H193.29c0-26.878 21.785-48.667 48.658-48.667h90.206c26.873 0 48.658 21.789 48.658 48.667M220.337 216.423h133.427c0 23.565-19.099 42.668-42.66 42.668h-48.106c-23.56 0-42.661-19.103-42.661-42.668" fill="#DEDEDE"/><path d="M18.38 634.763h537.34" stroke="#A6BCAC" stroke-width="10.5"/><path d="M-110.014 821.022c30.571 0 30.571 11.858 61.142 11.858 30.572 0 30.572-11.858 61.143-11.858 30.572 0 30.572 11.858 61.144 11.858 30.574 0 30.574-11.858 61.147-11.858 30.575 0 30.575 11.858 61.149 11.858 30.573 0 30.573-11.858 61.147-11.858 30.574 0 30.574 11.858 61.148 11.858 30.575 0 30.575-11.858 61.148-11.858 30.573 0 30.573 11.858 61.147 11.858 30.574 0 30.574-11.858 61.148-11.858 30.575 0 30.575 11.858 61.15 11.858 30.577 0 30.577-11.858 61.154-11.858 30.576 0 30.576 11.858 61.154 11.858" stroke="#B1AEAE" stroke-width="10.5" stroke-linecap="square"/><path d="M30.707 596.615c28.99 0 28.99 12.57 57.979 12.57 28.988 0 28.988-12.57 57.976-12.57 28.99 0 28.99 12.57 57.979 12.57 28.988 0 28.988-12.57 57.977-12.57 28.987 0 28.987 12.57 57.976 12.57 28.99 0 28.99-12.57 57.978-12.57 28.99 0 28.99 12.57 57.979 12.57 28.992 0 28.992-12.57 57.985-12.57 28.994 0 28.994 12.57 57.985 12.57M122.581 402.135h328.941M445.352 375.285c-26.454 0-26.454-11.86-52.908-11.86-26.455 0-26.455 11.86-52.909 11.86-26.455 0-26.455-11.86-52.911-11.86-26.456 0-26.456 11.86-52.911 11.86-26.458 0-26.458-11.859-52.917-11.859-26.458 0-26.458 11.859-52.917 11.859M203.572 216.42l166.96-.003" stroke="#A6BCAC" stroke-width="10.5"/><path fill-rule="evenodd" clip-rule="evenodd" d="M1207.88 698.257c0 68.074-55.18 123.258-123.24 123.258s-123.232-55.184-123.232-123.258c0-68.072 55.172-123.257 123.232-123.257s123.24 55.185 123.24 123.257" fill="#89A484"/><path fill-rule="evenodd" clip-rule="evenodd" d="M1046.25 569.658c0 103.641-84.004 187.659-187.626 187.659C755.003 757.317 671 673.299 671 569.658 671 466.017 755.003 382 858.624 382c103.622 0 187.626 84.017 187.626 187.658" fill="#DFE8DE"/><path d="M858.624 533.275v345.797M903.111 562.934l30.003-30.007M814.137 633.277l-30.002-30.007M814.137 566.004l-30.002-30.007" stroke="#87B59A" stroke-width="10.5" stroke-linecap="square"/><path d="M1084.72 705.292V874.32" stroke="#BAD3B6" stroke-width="10.5" stroke-linecap="square"/><path d="M1115.11 724.214l25.23-24.811M1057.16 750.147l-30.81-27.828" stroke="#BAD3B6" stroke-width="6.3" stroke-linecap="square"/><path fill-rule="evenodd" clip-rule="evenodd" d="M814.293 825.031c-.628.823-14.039 32.986-12.444 63.473h-47.231c-.9-16.666-11.04-27.964-11.04-27.964s20.799-3.772 34.856 21.298c0 0 10.641-45.231 35.859-56.807" fill="#BAD3B6"/><path fill-rule="evenodd" clip-rule="evenodd" d="M753.752 823.827c.777.824 17.375 32.987 15.4 63.474h58.456c1.114-16.665 13.663-40.514 13.663-40.514s-25.74 8.777-43.139 33.848c0 0-13.169-45.231-44.38-56.808M1122.21 847.67c-.47.643-14.58 20.111-16.35 38.038h-24.81c11.72-24.062 40.51-37.739 41.16-38.038M999.001 883.826h-37.102C961.681 857.167 948 822.462 948 822.462s40.711 33.25 51.001 61.364M1010.15 883.827c8.97-18.984 9.5-34.276 9.5-34.276s17.6 19.131 25.1 34.276h-34.6z" fill="#BAD3B6"/><path fill-rule="evenodd" clip-rule="evenodd" d="M2784.79 397.135h-251.93c0 33.384 27.06 60.446 60.44 60.446h131.06c33.38 0 60.43-27.062 60.43-60.446" fill="#DEDEDE"/><path fill-rule="evenodd" clip-rule="evenodd" d="M2784.79 756.751h-251.93v3.307c0 7.786 6.31 14.099 14.1 14.099h223.74c7.78 0 14.09-6.313 14.09-14.099v-3.307z" fill="#A6BCAC"/><path fill-rule="evenodd" clip-rule="evenodd" d="M2390.16 629.763h537.34c0-32.889-26.66-59.55-59.54-59.55H2449.7c-32.89 0-59.54 26.661-59.54 59.55" fill="#A3ABA4"/><path fill-rule="evenodd" clip-rule="evenodd" d="M2866.39 629.763h-415.12c0 43.407 35.18 78.596 78.58 78.596h257.96c43.4 0 78.58-35.189 78.58-78.596" fill="#DEDEDE"/><path fill-rule="evenodd" clip-rule="evenodd" d="M2530.43 570.22h256.79c-47.83-.279-86.53-50.59-86.53-112.638h-83.73c0 62.048-38.7 112.359-86.53 112.638M2574.67 336.687h168.31c-47.83-.204-60.71-37.096-60.71-82.596h-46.89c0 45.5-12.88 82.392-60.71 82.596" fill="#A6BCAC"/><path fill-rule="evenodd" clip-rule="evenodd" d="M2494.36 397.136h328.94c0-33.385-27.06-60.448-60.44-60.448h-208.07c-33.37 0-60.43 27.063-60.43 60.448z" fill="#A3ABA4"/><path fill-rule="evenodd" clip-rule="evenodd" d="M2263.59 875.411h790.47l3.88-79.094h-798.22l3.87 79.094z" fill="#A6BCAC"/><path fill-rule="evenodd" clip-rule="evenodd" d="M2251.94 796.317h813.77c10.03 0 18.17-8.134 18.17-18.17v-4.262h-850.1v4.262c0 10.036 8.13 18.17 18.16 18.17M3052.02 849.772h-786.38c-10.04 0-18.17 8.134-18.17 18.17v4.262h822.72v-4.262c0-10.036-8.14-18.17-18.17-18.17" fill="#BAD3B6"/><path d="M2923.78 629.971v100.535M2923.78 745.999v22.496M2879.94 629.971v100.535M2879.94 745.584v22.911M2834.02 709.78v22.911M2747.72 464.643v48.22M2571.94 461.737v20.399M2856.25 687.047v72.93M2902.08 629.971v32.893M2902.08 679.821v80.155M2772.18 560.417V479.6M2772.18 469.059v-22.462M2818.93 563.834v-84.235M2818.93 466.966v-22.698M2818.93 435.231V396.87M2795.32 556.948v-20.675M2795.32 525.373V460.34M2795.32 449.181V396.87M2461.78 742.476v23.717M2461.78 688.334v43.422M2417.36 629.763v44.647M2417.36 684.191v85.474M2393.36 629.763v65.555M2393.36 711.883v55.115M2439.79 629.763v32.894M2484.74 707.065v32.894M2439.79 673.161v87.181M2522.15 396.207v61.374M2522.15 469.824v35.084M2522.15 514.309v36.932M2498.42 396.207v52.879M2498.42 459.919V492.9M2498.42 504.573v52.375M2545.76 455.617v40.226M2545.76 506.587v50.361M2765.73 291.538v37.86M2765.73 261.143v17.031M2765.73 190.626v59.166M2745.53 255.737v63.577M2572.71 228.453v77.39M2745.53 225.342v17.032M2760.61 112.097a56.225 56.225 0 015.12 23.51v38.277M2743.12 90.602a54.346 54.346 0 019.82 9.286M2658.83 173.884v-38.277c0-30.353 24.05-55.187 53.45-55.187h0c8.16 0 15.91 1.913 22.84 5.326M2551.92 247.517v81.88M2551.92 190.626v32.834M2592.11 249.792v32.834M2551.92 156.329v19.992M2725.54 249.447V269.44M2561.69 103.909c-6.15 8.985-9.77 19.926-9.77 31.698M2658.83 173.884v-38.277c0-30.353-24.06-55.187-53.45-55.187-11.39 0-21.97 3.722-30.66 10.045M2703.63 182.199v-14.774c0-11.715 9.29-21.3 20.63-21.3 3.15 0 6.14.739 8.82 2.056M2612.49 182.199v-14.774c0-11.715-9.28-21.3-20.63-21.3-4.39 0-8.47 1.436-11.83 3.877M2718.53 114.217a32.98 32.98 0 0112.55 3.341" stroke="#B1AEAE" stroke-width="5.6"/><path d="M2682.33 173.884v-24.461c0-15.247 9.49-28.313 22.68-33.208M2629.63 128.283c-6.25-8.565-16.18-14.129-27.3-14.129-7.27 0-14.04 2.379-19.59 6.419M2636.49 173.884v-24.461c0-3.869-.61-7.597-1.74-11.087M2686.35 21.08c7.69-6.416 16.54-10.08 25.93-10.08v0M2658.83 146.125V90.787c0-22.082 6.09-42.143 15.88-56.626M2616.78 12.839a36.558 36.558 0 00-11.4-1.839" stroke="#B1AEAE" stroke-width="5.6"/><path d="M2658.83 146.125V90.787c0-30.874-11.91-57.797-29.2-71.047" stroke="#B1AEAE" stroke-width="5.6"/><path fill-rule="evenodd" clip-rule="evenodd" d="M2575.35 211.423h166.96c0-20.732-16.81-37.54-37.53-37.54h-91.9c-20.73 0-37.53 16.808-37.53 37.54" fill="#A3ABA4"/><path fill-rule="evenodd" clip-rule="evenodd" d="M2565.07 757.026h187.52c0-26.878-21.79-48.667-48.66-48.667h-90.21c-26.87 0-48.65 21.789-48.65 48.667M2725.54 211.423h-133.43c0 23.565 19.1 42.668 42.66 42.668h48.11c23.56 0 42.66-19.103 42.66-42.668" fill="#DEDEDE"/><path d="M2927.5 629.763h-537.34" stroke="#A6BCAC" stroke-width="10.5"/><path d="M3055.89 816.022c-30.57 0-30.57 11.858-61.14 11.858s-30.57-11.858-61.14-11.858-30.57 11.858-61.15 11.858c-30.57 0-30.57-11.858-61.14-11.858-30.58 0-30.58 11.858-61.15 11.858-30.58 0-30.58-11.858-61.15-11.858s-30.57 11.858-61.15 11.858c-30.57 0-30.57-11.858-61.15-11.858-30.57 0-30.57 11.858-61.14 11.858-30.58 0-30.58-11.858-61.15-11.858-30.58 0-30.58 11.858-61.15 11.858-30.58 0-30.58-11.858-61.15-11.858-30.58 0-30.58 11.858-61.16 11.858" stroke="#B1AEAE" stroke-width="10.5" stroke-linecap="square"/><path d="M2915.17 591.615c-28.99 0-28.99 12.57-57.98 12.57s-28.99-12.57-57.97-12.57c-28.99 0-28.99 12.57-57.98 12.57s-28.99-12.57-57.98-12.57-28.99 12.57-57.98 12.57-28.99-12.57-57.97-12.57c-28.99 0-28.99 12.57-57.98 12.57s-28.99-12.57-57.99-12.57c-28.99 0-28.99 12.57-57.98 12.57M2823.3 397.135h-328.94M2500.53 370.285c26.45 0 26.45-11.86 52.9-11.86 26.46 0 26.46 11.86 52.91 11.86 26.46 0 26.46-11.86 52.91-11.86 26.46 0 26.46 11.86 52.92 11.86 26.45 0 26.45-11.859 52.91-11.859 26.46 0 26.46 11.859 52.92 11.859M2742.31 211.42l-166.96-.003" stroke="#A6BCAC" stroke-width="10.5"/><path fill-rule="evenodd" clip-rule="evenodd" d="M1738 693.257c0 68.074 55.17 123.258 123.24 123.258 68.06 0 123.23-55.184 123.23-123.258 0-68.072-55.17-123.257-123.23-123.257-68.07 0-123.24 55.185-123.24 123.257" fill="#89A484"/><path fill-rule="evenodd" clip-rule="evenodd" d="M1899.63 564.658c0 103.641 84 187.659 187.62 187.659 103.63 0 187.63-84.018 187.63-187.659 0-103.641-84-187.658-187.63-187.658-103.62 0-187.62 84.017-187.62 187.658" fill="#DFE8DE"/><path d="M2087.25 528.275v345.797M2042.77 557.934l-30.01-30.007M2131.74 628.277l30-30.007M2131.74 561.004l30-30.007" stroke="#87B59A" stroke-width="10.5" stroke-linecap="square"/><path d="M1861.15 700.292V869.32" stroke="#BAD3B6" stroke-width="10.5" stroke-linecap="square"/><path d="M1830.77 719.214l-25.23-24.811M1888.72 745.147l30.81-27.828" stroke="#BAD3B6" stroke-width="6.3" stroke-linecap="square"/><path fill-rule="evenodd" clip-rule="evenodd" d="M2131.59 820.031c.62.823 14.03 32.986 12.44 63.473h47.23c.9-16.666 11.04-27.964 11.04-27.964s-20.8-3.772-34.86 21.298c0 0-10.64-45.231-35.85-56.807" fill="#BAD3B6"/><path fill-rule="evenodd" clip-rule="evenodd" d="M2192.13 818.827c-.78.824-17.38 32.987-15.4 63.474h-58.46c-1.11-16.665-13.66-40.514-13.66-40.514s25.74 8.777 43.14 33.848c0 0 13.17-45.231 44.38-56.808M1823.67 842.67c.47.643 14.58 20.111 16.35 38.038h24.8c-11.71-24.062-40.51-37.739-41.15-38.038M1946.88 878.826h37.1c.22-26.659 13.9-61.364 13.9-61.364s-40.71 33.25-51 61.364M1935.73 878.827c-8.97-18.984-9.51-34.276-9.51-34.276s-17.6 19.131-25.09 34.276h34.6z" fill="#BAD3B6"/><path d="M2951 874.843H-1" stroke="#BAD3B6" stroke-width="14" stroke-linecap="round"/><path fill-rule="evenodd" clip-rule="evenodd" d="M1807.32 826.22c.66.879 20.58 27.466 23.08 51.951h35.02c-16.53-32.863-57.19-51.543-58.1-51.951" fill="#BAD3B6"/><path fill-rule="evenodd" clip-rule="evenodd" d="M1897.99 840.133c-.46.643-14.57 20.111-16.34 38.037h-24.81c11.71-24.061 40.51-37.739 41.15-38.037M1553.41 842.208c-.47.643-14.58 20.111-16.35 38.038h-24.81c11.71-24.063 40.51-37.739 41.16-38.038M1181.15 840.324c-.46.643-14.57 20.111-16.34 38.037H1140c11.71-24.061 40.51-37.739 41.15-38.037M1430.2 878.364h-37.1c-.22-26.659-13.9-61.364-13.9-61.364s40.71 33.25 51 61.364M1441.35 878.364c8.96-18.983 9.5-34.275 9.5-34.275s17.6 19.13 25.1 34.275h-34.6z" fill="#BAD3B6"/></g><defs><clipPath id="clip0"><path fill="#fff" d="M0 0h2950v880H0z"/></clipPath></defs></svg>