<svg width="2950" height="880" fill="none" xmlns="http://www.w3.org/2000/svg"><g opacity=".7" clip-path="url(#clip0)"><path fill="#fff" d="M0 0h2950v880H0z"/><path fill-rule="evenodd" clip-rule="evenodd" d="M-107 886s96.016-348.649 209.385-340.846c113.367 7.803 111.333 131.241 190.546 131.024 79.212-.215 169.736-176.205 301.397-182.056 131.66-5.852 180.645 201.348 317.033 189.899C1050.6 672.332 1168.14 698.396 1229 883.51" fill="#E9D3F7"/><path fill-rule="evenodd" clip-rule="evenodd" d="M2260 886.129s-85.6-153.983-186.68-150.537c-101.07 3.446-99.26 57.964-169.88 57.868-70.62-.095-151.33-77.822-268.72-80.406-117.38-2.585-161.05 88.926-282.65 83.87-124.14-5.163-228.93 6.349-283.19 88.105" fill="#E9D3F7"/><path fill-rule="evenodd" clip-rule="evenodd" d="M176 498.5C176 628.563 281.437 734 411.5 734S647 628.563 647 498.5C647 368.436 541.563 263 411.5 263S176 368.436 176 498.5" fill="#C1A7DB"/><path d="M411.5 453v459" stroke="#948496" stroke-width="10.5" stroke-linecap="square"/><path d="M356 659l-38-38M356 490l-38-37M467 578l38-37M467 494l38-38" stroke="#926F95" stroke-width="8.4" stroke-linecap="square"/><path fill-rule="evenodd" clip-rule="evenodd" d="M-47 557.509C-47 670.798 27.05 734 123.5 734c96.449 0 170.5-63.202 170.5-176.491C294 318.983 185.178 44 123.5 44S-47 318.983-47 557.509" fill="#AA8ADD"/><path d="M123.5 389v523" stroke="#C1A7DB" stroke-width="10.5" stroke-linecap="square"/><path d="M77 658l-38-38M77 446l-38-38M169 491l38-38" stroke="#C1A7DB" stroke-width="7" stroke-linecap="square"/><path fill-rule="evenodd" clip-rule="evenodd" d="M1096.04 885.564h78.57V748.608h-78.57v136.956z" fill="#906F93"/><path fill-rule="evenodd" clip-rule="evenodd" d="M671.129 768.785H1194v-20.177H671.129v20.177zM1099.33 676.369H657.655L650.126 636H1091.8l7.53 40.369zM1109.84 732.677H668.159l-7.53-40.376h441.681l7.53 40.376z" fill="#C294CA"/><path fill-rule="evenodd" clip-rule="evenodd" d="M657.655 676.369h-21.308L628.363 636h21.763l7.529 40.369zM668.159 732.677h-20.678l-7.985-40.376h21.133l7.53 40.376z" fill="#906F93"/><path fill-rule="evenodd" clip-rule="evenodd" d="M1066.32 636l21 112.608h-25.35l-21-112.608h25.35zM700.962 636l21.006 112.608h-25.349L675.614 636h25.348zM749.692 885.564h19.392V748.608h-19.392v136.956z" fill="#AA8ADD"/><path fill-rule="evenodd" clip-rule="evenodd" d="M769.083 768.825h19.392v-20.217h-19.392v20.217zM1155.22 768.825h19.39v-20.217h-19.39v20.217z" fill="#AA8ADD"/><path fill-rule="evenodd" clip-rule="evenodd" d="M1174.61 885.564H1194V748.608h-19.39v136.956z" fill="#AA8ADD"/><path fill-rule="evenodd" clip-rule="evenodd" d="M671.129 885.564h78.563V748.608h-78.563v136.956z" fill="#906F93"/><path fill-rule="evenodd" clip-rule="evenodd" d="M733.976 143.139h114.185v11.972c0 11.363-9.209 20.574-20.569 20.574h-73.048c-11.36 0-20.568-9.211-20.568-20.574v-11.972z" fill="#E9D3F7"/><path d="M555.41 756.885V300.589c0-88.437 71.669-160.129 160.078-160.129" stroke="#C294CA" stroke-width="12.6"/><path fill-rule="evenodd" clip-rule="evenodd" d="M580.577 886.209h-50.333l5.315-182.045h39.704l5.314 182.045zM870 157.997H712.137v-24.423c0-11.363 9.209-20.574 20.569-20.574h116.725c11.36 0 20.569 9.211 20.569 20.574v24.423z" fill="#90779B"/><path fill-rule="evenodd" clip-rule="evenodd" d="M2513.43 185.03h77.23V64.824h-77.23V185.03z" fill="#F5E0FF"/><path fill-rule="evenodd" clip-rule="evenodd" d="M2463.49 185.03h64.6V64.824h-64.6V185.03z" fill="#AA8ADD"/><path fill-rule="evenodd" clip-rule="evenodd" d="M2510.5 64.823h93.84V47h-93.84v17.823z" fill="#F5E0FF"/><path fill-rule="evenodd" clip-rule="evenodd" d="M2449.8 64.823h83.83V47h-83.83v17.823z" fill="#AA8ADD"/><path fill-rule="evenodd" clip-rule="evenodd" d="M2128 429.416h451.02l225.5-298.251h-451.01L2128 429.416z" fill="#B899BB"/><path fill-rule="evenodd" clip-rule="evenodd" d="M3030.32 429.416h-451.01L2353.8 131.165h451.01l225.51 298.251z" fill="#B899BB"/><path d="M2764.3 131.165l225.52 298.251M2704.74 131.165l225.51 298.251M2645.17 131.165l225.51 298.251M2585.6 131.165l225.51 298.251M2526.03 131.165l225.52 298.251M2406.9 131.165l225.51 298.251M2466.46 131.165l225.52 298.251" stroke="#AA8ADD" stroke-width="9.1"/><path fill-rule="evenodd" clip-rule="evenodd" d="M2160.34 902.19h425.38V429.413h-425.38V902.19zM2585.72 429.412h-425.38l212.69-281.3 212.69 281.3z" fill="#AA8ADD"/><path fill-rule="evenodd" clip-rule="evenodd" d="M2239.26 489.704c-13.16 0-23.83 12.247-23.83 27.353v296.399h47.66V517.057c0-15.106-10.67-27.353-23.83-27.353M2519.49 489.704c-13.15 0-23.82 12.247-23.82 27.353v296.399h47.65V517.057c0-15.106-10.67-27.353-23.83-27.353M2585.72 902.19h425.38V429.413h-425.38V902.19z" fill="#F5E0FF"/><path fill-rule="evenodd" clip-rule="evenodd" d="M2669.93 801.241h106.7v-256.62h-106.7v256.62z" fill="#AA8ADD"/><path fill-rule="evenodd" clip-rule="evenodd" d="M2670.62 807.529h113.45v-.362h-113.45v.362z" fill="#B899BB"/><path fill-rule="evenodd" clip-rule="evenodd" d="M2665.45 813.455h123.78V801.24h-123.78v12.215z" fill="#C1A7DB"/><path fill-rule="evenodd" clip-rule="evenodd" d="M2665.45 813.457h12.1v-12.215h-12.1v12.215z" fill="#AA8ADD"/><path fill-rule="evenodd" clip-rule="evenodd" d="M2822.36 807.529h113.46v-.362h-113.46v.362z" fill="#B899BB"/><path fill-rule="evenodd" clip-rule="evenodd" d="M2817.2 813.455h123.78V801.24H2817.2v12.215z" fill="#C1A7DB"/><path fill-rule="evenodd" clip-rule="evenodd" d="M2817.2 813.457h12.1v-12.215h-12.1v12.215zM2819.93 801.241h106.69v-256.62h-106.69v256.62z" fill="#AA8ADD"/><path fill-rule="evenodd" clip-rule="evenodd" d="M2680.91 795.314h96.37V550.548h-96.37v244.766z" fill="#B899BB"/><path fill-rule="evenodd" clip-rule="evenodd" d="M2675.75 801.241h106.7v-256.62h-106.7v256.62zm10.32-11.854h86.05V556.474h-86.05v232.913z" fill="#C1A7DB"/><path fill-rule="evenodd" clip-rule="evenodd" d="M2301.88 897.695h142.29V519.162h-142.29v378.533z" fill="#F5E0FF"/><path fill-rule="evenodd" clip-rule="evenodd" d="M2214.24 807.53V517.058c0-11.815 8.38-21.427 18.67-21.427 10.29 0 18.66 9.612 18.66 21.427V807.53h-37.33z" fill="#B899BB"/><path fill-rule="evenodd" clip-rule="evenodd" d="M2232.91 489.704c-13.16 0-23.83 12.247-23.83 27.353v296.399h47.66V517.057c0-15.106-10.67-27.353-23.83-27.353m0 11.853c7.44 0 13.5 6.953 13.5 15.5v284.546h-27V517.057c0-8.547 6.05-15.5 13.5-15.5" fill="#C1A7DB"/><path fill-rule="evenodd" clip-rule="evenodd" d="M2494.48 807.53V517.058c0-11.815 8.37-21.427 18.66-21.427 10.29 0 18.67 9.612 18.67 21.427V807.53h-37.33z" fill="#B899BB"/><path fill-rule="evenodd" clip-rule="evenodd" d="M2513.14 489.704c-13.16 0-23.83 12.247-23.83 27.353v296.399h47.66V517.057c0-15.106-10.67-27.353-23.83-27.353m0 11.853c7.45 0 13.5 6.953 13.5 15.5v284.546h-27V517.057c0-8.547 6.06-15.5 13.5-15.5" fill="#C1A7DB"/><path fill-rule="evenodd" clip-rule="evenodd" d="M2830.9 795.314h96.38V550.548h-96.38v244.766z" fill="#B899BB"/><path fill-rule="evenodd" clip-rule="evenodd" d="M2825.74 801.241h106.7v-256.62h-106.7v256.62zm10.33-11.854h86.04V556.474h-86.04v232.913z" fill="#C1A7DB"/><path fill-rule="evenodd" clip-rule="evenodd" d="M2895.34 429.416h-193.87l96.94-128.204 96.93 128.204z" fill="#F5E0FF"/><path fill-rule="evenodd" clip-rule="evenodd" d="M2845.82 448.184c0 30.058-21.23 54.426-47.41 54.426-26.19 0-47.41-24.368-47.41-54.426 0-30.059 21.22-54.426 47.41-54.426 26.18 0 47.41 24.367 47.41 54.426" fill="#B899BB"/><path clip-rule="evenodd" d="M2845.82 448.184c0 30.058-21.23 54.426-47.41 54.426-26.19 0-47.41-24.368-47.41-54.426 0-30.059 21.22-54.426 47.41-54.426 26.18 0 47.41 24.367 47.41 54.426z" stroke="#C1A7DB" stroke-width="9.1"/><path d="M2680.7 672.931h98.03M2729.1 552.723v121.313M2879.09 551.116v245.036M2830.63 672.931h97.24M2755.51 448.183h89.7M2798.41 393.758V502.61" stroke="#C1A7DB" stroke-width="9.1"/><path fill-rule="evenodd" clip-rule="evenodd" d="M2421.91 330.155c0 30.995-21.89 56.121-48.89 56.121-26.99 0-48.88-25.126-48.88-56.121s21.89-56.121 48.88-56.121c27 0 48.89 25.126 48.89 56.121" fill="#B899BB"/><path clip-rule="evenodd" d="M2421.91 330.155c0 30.995-21.89 56.121-48.89 56.121-26.99 0-48.88-25.126-48.88-56.121s21.89-56.121 48.88-56.121c27 0 48.89 25.126 48.89 56.121z" stroke="#C1A7DB" stroke-width="9.1"/><path d="M2326.96 330.154h92.49M2373.02 274.033v112.243M2215.67 559.701h32.75M2217.38 623.292h29.33M2217.38 686.883h29.33M2215.67 750.474h32.75M2496.04 559.701h32.74M2497.75 623.292h29.32M2497.75 686.883h29.32M2496.04 750.474h32.74" stroke="#C1A7DB" stroke-width="9.1"/><path fill-rule="evenodd" clip-rule="evenodd" d="M2334.35 745.622h77.4v-85.415h-77.4v85.415z" fill="#B899BB"/><path fill-rule="evenodd" clip-rule="evenodd" d="M2330.77 749.725h84.56v-93.621h-84.56v93.621zm7.15-8.206h70.26v-77.208h-70.26v77.208zM2345.71 778.247h54.63v-15.179h-54.63v15.179z" fill="#C1A7DB"/><path fill-rule="evenodd" clip-rule="evenodd" d="M2334.35 636.382h77.4v-85.414h-77.4v85.414z" fill="#B899BB"/><path fill-rule="evenodd" clip-rule="evenodd" d="M2330.77 640.485h84.56v-93.62h-84.56v93.62zm7.15-8.206h70.26v-77.207h-70.26v77.207z" fill="#C1A7DB"/><path fill-rule="evenodd" clip-rule="evenodd" d="M2324.83 713.801c0 4.332-3.06 7.844-6.84 7.844-3.77 0-6.83-3.512-6.83-7.844 0-4.333 3.06-7.844 6.83-7.844 3.78 0 6.84 3.511 6.84 7.844" fill="#B899BB"/><path d="M2128 433.975l225.8-298.251 225.51 298.251M2699.78 429.413l98.69-130.355 98.56 130.355" stroke="#C1A7DB" stroke-width="11.2" stroke-linejoin="bevel"/><path d="M2585.72 448.795h-425.38M2160.34 432.084h425.38M2160.34 465.507h425.38" stroke="#C1A7DB" stroke-width="4.9"/><path fill-rule="evenodd" clip-rule="evenodd" d="M2344.64 893.505h56.77V831.41h-56.77v62.095z" fill="#B899BB"/><path fill-rule="evenodd" clip-rule="evenodd" d="M2357.63 833.937h30.79v-5.05h-30.79v5.05z" fill="#C1A7DB"/></g><defs><clipPath id="clip0"><path fill="#fff" d="M0 0h2950v880H0z"/></clipPath></defs></svg>