<svg width="2950" height="880" fill="none" xmlns="http://www.w3.org/2000/svg"><g opacity=".7" clip-path="url(#clip0)"><path fill="#fff" d="M0 0h2950v880H0z"/><path fill-rule="evenodd" clip-rule="evenodd" d="M2950 880s-109.81-102.282-239.48-99.993c-129.66 2.289-127.33 38.502-217.93 38.438-90.59-.063-194.13-51.693-344.71-53.409-150.58-1.717-206.6 59.069-362.59 55.71-159.25-3.429-293.69 4.217-363.29 58.524" fill="#6196E4"/><path fill-rule="evenodd" clip-rule="evenodd" d="M0 871s114.918-207.233 250.603-202.595c135.685 4.638 133.25 78.009 228.057 77.88 94.806-.129 203.149-104.735 360.729-108.213 157.578-3.478 216.201 119.679 379.441 112.874 166.65-6.948 307.33 8.545 380.17 118.574" fill="#6196E4"/><path clip-rule="evenodd" d="M2252.87 827.45v44.041h48.01V827.45h-48.01z" stroke="#9CC8FE" stroke-width="8.55"/><path d="M2300.88 827.45l-48.01 44.041M2300.88 871.491l-48.01-44.041" stroke="#9CC8FE" stroke-width="8.55"/><path clip-rule="evenodd" d="M2348.9 827.45v44.041h48.02V827.45h-48.02z" stroke="#9CC8FE" stroke-width="8.55"/><path d="M2396.92 827.45l-48.02 44.041M2396.92 871.491l-48.02-44.041" stroke="#9CC8FE" stroke-width="8.55"/><path clip-rule="evenodd" d="M2300.88 827.45v44.041h48.02V827.45h-48.02z" stroke="#9CC8FE" stroke-width="8.55"/><path d="M2348.9 827.45l-48.01 44.041M2348.9 871.491l-48.01-44.041M2348.9 783.408v44.041h48.02v-44.041zM2396.92 783.408l-48.02 44.041M2396.92 827.449l-48.02-44.041" stroke="#9CC8FE" stroke-width="8.55"/><path clip-rule="evenodd" d="M2468.42 827.443v44.041h48.02v-44.041h-48.02z" stroke="#9CC8FE" stroke-width="8.55"/><path d="M2516.44 827.45l-48.02 44.041M2516.44 871.491l-48.02-44.041" stroke="#9CC8FE" stroke-width="8.55"/><path d="M2454.14 579.21l60.51 55.497M2453.91 578.998l-60.96 55.915M2453.91 436.526V579.5" stroke="#9CC8FE" stroke-width="5.7" stroke-linecap="round"/><path fill="#3568B1" d="M2435.35 441.405h37.115v-17.512h-37.115z"/><path fill-rule="evenodd" clip-rule="evenodd" d="M2453.91 419.458c-8.97 0-16.24-6.667-16.24-14.892s7.27-14.893 16.24-14.893c8.97 0 16.24 6.668 16.24 14.893 0 8.225-7.27 14.892-16.24 14.892z" fill="#3568B1"/><path d="M2821.63 399.488L2685.62 290M2453.36 386.468L2685.62 290" stroke="#9CC8FE" stroke-width="5.7" stroke-linecap="round"/><path stroke="#9CC8FE" stroke-width="8.55" d="M2661.61 832.895h48.02v-44.041h-48.02zM2661.62 788.86l48.02 44.041M2709.64 788.86l-48.02 44.041M2661.61 744.813h48.02v-44.041h-48.02zM2661.62 700.778l48.02 44.041M2709.64 700.778l-48.02 44.041"/><path stroke="#9CC8FE" stroke-width="8.55" d="M2661.61 788.853h48.02v-44.041h-48.02zM2661.62 744.819l48.02 44.041M2709.64 744.819l-48.02 44.041"/><path fill="#3568B1" d="M2648.91 479.711h73.429v-52.723h-73.429z"/><path stroke="#9CC8FE" stroke-width="8.55" d="M2661.61 700.771h48.02V656.73h-48.02zM2661.62 656.737l48.02 44.041M2709.64 656.737l-48.02 44.041M2661.61 612.689h48.02v-44.041h-48.02zM2661.62 568.649l48.02 44.041M2709.64 568.649l-48.02 44.041"/><path stroke="#9CC8FE" stroke-width="8.55" d="M2661.61 656.731h48.02V612.69h-48.02zM2661.62 612.689l48.02 44.048M2709.64 612.689l-48.02 44.048M2661.61 568.649h48.02v-44.041h-48.02zM2661.62 524.608l48.02 44.041M2709.64 524.608l-48.02 44.041M2661.61 480.567h48.02v-44.041h-48.02zM2661.62 436.526l48.02 44.041M2709.64 436.526l-48.02 44.041"/><path stroke="#9CC8FE" stroke-width="8.55" d="M2661.61 524.608h48.02v-44.041h-48.02zM2661.62 480.567l48.02 44.041M2709.64 480.567l-48.02 44.041"/><path fill="#9CC8FE" d="M2587.94 875.963h195.355v-43.069H2587.94z"/><rect width="177.461" height="117.011" rx="15.789" transform="matrix(1 0 0 -1 2364.64 746.866)" fill="#C5E3FF"/><path fill-rule="evenodd" clip-rule="evenodd" d="M2364.64 657.567h177.46v-17.016c0-5.908-5.22-10.697-11.66-10.697h-154.15c-6.44 0-11.66 4.789-11.66 10.697v17.016h.01z" fill="#9CC8FE"/><path fill="#9CC8FE" d="M2628.26 480.343h114.733v-24.772H2628.26z"/><path fill="#3568B1" d="M2616.61 419.104h233.101v-19.565H2616.61z"/><path fill="#C5E3FF" d="M2741.03 409.315h45.949v-20.209h-45.949zM2796.55 409.315h45.949v-20.209h-45.949z"/><path d="M2685.62 385.773V290M2640.14 376.672L2685.62 290M2731.11 376.672L2685.62 290" stroke="#3568B1" stroke-width="7.6" stroke-linecap="round"/><path fill="#9CC8FE" d="M2637.31 437.627h96.629v-65.762h-96.629z"/><path fill="#3568B1" d="M2637.31 425.495h51.079V383.99h-51.079z"/><path clip-rule="evenodd" d="M2327.57 423.893l40.81-37.425v37.425h-40.81z" stroke="#9CC8FE" stroke-width="6.65" stroke-linejoin="round"/><path clip-rule="evenodd" d="M2412.56 386.468v37.431h40.81v-37.431h-40.81z" stroke="#9CC8FE" stroke-width="6.65"/><path d="M2453.36 386.468l-40.81 37.425M2453.36 423.893l-40.81-37.425" stroke="#9CC8FE" stroke-width="6.65"/><path clip-rule="evenodd" d="M2371.75 386.468v37.431h40.81v-37.431h-40.81z" stroke="#9CC8FE" stroke-width="6.65"/><path d="M2412.55 386.468l-40.8 37.425M2412.55 423.893l-40.8-37.425" stroke="#9CC8FE" stroke-width="6.65"/><path clip-rule="evenodd" d="M2453.36 386.468v37.431h40.82v-37.431h-40.82z" stroke="#9CC8FE" stroke-width="6.65"/><path d="M2494.18 386.468l-40.82 37.425M2494.18 423.893l-40.82-37.425" stroke="#9CC8FE" stroke-width="6.65"/><path clip-rule="evenodd" d="M2534.98 386.468v37.431h40.82v-37.431h-40.82z" stroke="#9CC8FE" stroke-width="6.65"/><path d="M2575.8 386.468l-40.82 37.425M2575.8 423.893l-40.82-37.425" stroke="#9CC8FE" stroke-width="6.65"/><path clip-rule="evenodd" d="M2494.18 386.461v37.431h40.81v-37.431h-40.81z" stroke="#9CC8FE" stroke-width="6.65"/><path d="M2534.98 386.468l-40.8 37.425M2534.98 423.893l-40.8-37.425" stroke="#9CC8FE" stroke-width="6.65"/><path clip-rule="evenodd" d="M2575.8 386.468v37.431h40.81v-37.431h-40.81z" stroke="#9CC8FE" stroke-width="6.65"/><path d="M2616.61 386.468l-40.81 37.425M2616.61 423.893l-40.81-37.425" stroke="#9CC8FE" stroke-width="6.65"/><path fill-rule="evenodd" clip-rule="evenodd" d="M2382.31 650.823c-4.4 0-7.98-3.276-7.98-7.318 0-4.041 3.58-7.317 7.98-7.317 4.41 0 7.98 3.276 7.98 7.317 0 4.042-3.57 7.318-7.98 7.318zM2407.56 650.823c-4.41 0-7.98-3.276-7.98-7.318 0-4.041 3.57-7.317 7.98-7.317 4.4 0 7.97 3.276 7.97 7.317 0 4.042-3.57 7.318-7.97 7.318zM2432.79 650.823c-4.41 0-7.98-3.276-7.98-7.318 0-4.041 3.57-7.317 7.98-7.317s7.98 3.276 7.98 7.317c0 4.042-3.57 7.318-7.98 7.318zM2453.91 592.295l14.5-13.298-14.5-13.297-14.5 13.297 14.5 13.298z" fill="#184F81"/><path clip-rule="evenodd" d="M2006.16 871.458v-36.974h-40.31v36.974h40.31z" stroke="#C5E3FF" stroke-width="6.65"/><path d="M2006.16 871.458l-40.31-36.974M2006.16 834.484l-40.31 36.974" stroke="#C5E3FF" stroke-width="6.65"/><path clip-rule="evenodd" d="M2128.9 871.452v-36.975h-40.31v36.975h40.31z" stroke="#C5E3FF" stroke-width="6.65"/><path d="M2128.9 871.458l-40.31-36.974M2128.9 834.484l-40.31 36.974" stroke="#C5E3FF" stroke-width="6.65"/><path clip-rule="evenodd" d="M2046.49 871.458v-36.974h-40.32v36.974h40.32z" stroke="#C5E3FF" stroke-width="6.65"/><path d="M2046.49 871.458l-40.33-36.974M2046.49 834.484l-40.33 36.974" stroke="#C5E3FF" stroke-width="6.65"/><path d="M2020.41 626.81l-50.81 46.596M2020.6 626.636l51.19 46.944M2020.6 507.019v120.036" stroke="#C5E3FF" stroke-width="4.75" stroke-linecap="round"/><path fill="#9CC8FE" d="M2036.18 496.412h-31.164v14.706h31.164z"/><path fill-rule="evenodd" clip-rule="evenodd" d="M2020.6 492.686c-7.53 0-13.64-5.599-13.64-12.505 0-6.907 6.11-12.505 13.64-12.505s13.63 5.598 13.63 12.505c0 6.906-6.1 12.505-13.63 12.505z" fill="#9CC8FE"/><path d="M1711.86 475.914l114.2-91.924M2021.06 464.986l-195-80.996" stroke="#C5E3FF" stroke-width="4.75" stroke-linecap="round"/><path stroke="#C5E3FF" stroke-width="6.65" d="M1846.21 802.832h-40.315v36.974h40.315zM1846.21 802.832l-40.31 36.974M1805.9 802.832l40.31 36.974M1846.21 728.876h-40.315v36.974h40.315zM1846.21 728.876l-40.31 36.975M1805.9 728.876l40.31 36.975M1846.21 765.851h-40.315v36.974h40.315zM1846.21 765.851l-40.31 36.981M1805.9 765.851l40.31 36.981"/><path fill="#9CC8FE" d="M1856.88 499.006h-61.654v44.266h61.654z"/><path stroke="#C5E3FF" stroke-width="6.65" d="M1846.21 691.903h-40.315v36.974h40.315zM1846.21 691.903l-40.31 36.974M1805.9 691.903l40.31 36.974M1846.21 617.948h-40.315v36.974h40.315zM1846.21 617.948l-40.31 36.975M1805.9 617.948l40.31 36.975"/><path stroke="#C5E3FF" stroke-width="6.65" d="M1846.21 654.922h-40.315v36.974h40.315zM1846.21 654.922l-40.31 36.981M1805.9 654.922l40.31 36.981M1846.21 580.967h-40.315v36.974h40.315zM1846.21 580.967l-40.31 36.981M1805.9 580.967l40.31 36.981"/><path stroke="#9CC8FE" stroke-width="6.65" d="M1846.21 507.019h-40.315v36.974h40.315zM1846.21 507.019l-40.31 36.974M1805.9 507.019l40.31 36.974"/><path stroke="#C5E3FF" stroke-width="6.65" d="M1846.21 543.993h-40.315v36.974h40.315zM1846.21 543.993l-40.31 36.974M1805.9 543.993l40.31 36.974"/><path fill="#C5E3FF" d="M1908.06 839.806h-164.016v36.157h164.016zM2092.61 669.332h-143.097v94.35h143.097zM1874.22 523h-96.327v20.801h96.327z"/><path fill="#9CC8FE" d="M1884.01 475.959h-195.713v16.424h195.713z"/><path fill="#C5E3FF" d="M1779.54 467.206h-38.581v16.965h38.581zM1732.93 467.206h-38.581v16.965h38.581z"/><path d="M1826.06 464.407V383.99M1864.25 456.761l-38.19-72.771M1787.87 456.761l38.19-72.771" stroke="#9CC8FE" stroke-width="5.7" stroke-linecap="round"/><path fill="#C5E3FF" d="M1866.62 452.726h-81.127v55.214h81.127z"/><path fill="#9CC8FE" d="M1866.62 462.907h-42.89v34.844h42.89z"/><path clip-rule="evenodd" d="M2126.68 496.412l-34.27-31.426v31.426h34.27z" stroke="#C5E3FF" stroke-width="4.75" stroke-linejoin="round"/><path clip-rule="evenodd" d="M2021.06 464.986v31.426h34.27v-31.426h-34.27z" stroke="#C5E3FF" stroke-width="4.75"/><path d="M2021.06 464.986l34.26 31.426M2021.06 496.412l34.26-31.426" stroke="#C5E3FF" stroke-width="4.75"/><path clip-rule="evenodd" d="M2055.32 464.979v31.427h34.27v-31.427h-34.27z" stroke="#C5E3FF" stroke-width="4.75"/><path d="M2055.32 464.986l34.27 31.426M2055.32 496.412l34.27-31.426" stroke="#C5E3FF" stroke-width="4.75"/><path clip-rule="evenodd" d="M1986.8 464.986v31.426h34.26v-31.426h-34.26z" stroke="#C5E3FF" stroke-width="4.75"/><path d="M1986.8 464.986l34.26 31.426M1986.8 496.412l34.26-31.426" stroke="#C5E3FF" stroke-width="4.75"/><path clip-rule="evenodd" d="M1918.27 464.986v31.426h34.26v-31.426h-34.26z" stroke="#C5E3FF" stroke-width="4.75"/><path d="M1918.27 464.986l34.26 31.426M1918.27 496.412l34.26-31.426" stroke="#C5E3FF" stroke-width="4.75"/><path clip-rule="evenodd" d="M1952.53 464.986v31.426h34.27v-31.426h-34.27z" stroke="#C5E3FF" stroke-width="4.75"/><path d="M1952.53 464.986l34.27 31.426M1952.53 496.412l34.27-31.426" stroke="#C5E3FF" stroke-width="4.75"/><path clip-rule="evenodd" d="M1884 464.979v31.427h34.27v-31.427H1884z" stroke="#C5E3FF" stroke-width="4.75"/><path d="M1884.01 464.986l34.26 31.426M1884.01 496.412l34.26-31.426" stroke="#C5E3FF" stroke-width="4.75"/><path fill-rule="evenodd" clip-rule="evenodd" d="M2032.77 626.634l-12.17-11.163-12.17 11.163 12.17 11.164 12.17-11.164z" fill="#184F81"/><path fill-rule="evenodd" clip-rule="evenodd" d="M2092.61 743.545l-48.13-46.976-44.07 43.976-28.82-23.581-22.08 22.249v24.469h143.1v-20.137zM1990.35 703.558c-7.07 0-12.8-5.259-12.8-11.746 0-6.486 5.73-11.745 12.8-11.745 7.08 0 12.81 5.259 12.81 11.745 0 6.487-5.73 11.746-12.81 11.746z" fill="#9CC8FE"/><path fill-rule="evenodd" clip-rule="evenodd" d="M1646 879.863h1229z" fill="#184F81"/><path d="M1646 879.863h1229" stroke="#C5E3FF" stroke-width="19" stroke-linecap="round"/><path clip-rule="evenodd" d="M892.452 801.548v65.682h-68.884v-65.682h68.884z" stroke="#9CC8FE" stroke-width="8.55"/><path d="M823.568 801.548l68.884 65.682M823.568 867.23l68.884-65.682" stroke="#9CC8FE" stroke-width="8.55"/><path clip-rule="evenodd" d="M754.684 801.548v65.682H685.8v-65.682h68.884z" stroke="#9CC8FE" stroke-width="8.55"/><path d="M685.8 801.548l68.884 65.682M685.8 867.23l68.884-65.682" stroke="#9CC8FE" stroke-width="8.55"/><path clip-rule="evenodd" d="M823.568 801.548v65.682h-68.884v-65.682h68.884z" stroke="#9CC8FE" stroke-width="8.55"/><path d="M754.684 801.548l68.884 65.682M754.684 867.23l68.884-65.682M754.684 735.865v65.682H685.8v-65.682zM685.8 735.865l68.884 65.682M685.8 801.547l68.884-65.682" stroke="#9CC8FE" stroke-width="8.55"/><path clip-rule="evenodd" d="M583.234 801.538v65.682H514.35v-65.682h68.884z" stroke="#9CC8FE" stroke-width="8.55"/><path d="M514.35 801.548l68.884 65.682M514.35 867.23l68.884-65.682" stroke="#9CC8FE" stroke-width="8.55"/><path d="M603.729 431.326l-86.812 82.767M604.051 431.01l87.457 83.391M604.051 218.528v213.23" stroke="#9CC8FE" stroke-width="5.7" stroke-linecap="round"/><path fill="#3568B1" d="M630.677 225.804h-53.241v-26.117h53.241z"/><path fill-rule="evenodd" clip-rule="evenodd" d="M604.051 193.073c12.865 0 23.294-9.945 23.294-22.211 0-12.267-10.429-22.211-23.294-22.211-12.864 0-23.293 9.944-23.293 22.211 0 12.266 10.429 22.211 23.293 22.211z" fill="#3568B1"/><path d="M76.555 163.289L271.66 0M604.837 143.871L271.661 0" stroke="#9CC8FE" stroke-width="5.7" stroke-linecap="round"/><path stroke="#9CC8FE" stroke-width="8.55" d="M306.108 809.668h-68.884v-65.682h68.884zM306.097 743.996l-68.884 65.682M237.213 743.996l68.884 65.682M306.108 678.304h-68.884v-65.682h68.884zM306.097 612.631l-68.884 65.682M237.213 612.631l68.884 65.682"/><path stroke="#9CC8FE" stroke-width="8.55" d="M306.108 743.986h-68.884v-65.682h68.884zM306.097 678.313l-68.884 65.682M237.213 678.313l68.884 65.682"/><path fill="#3568B1" d="M324.328 282.934H218.994v-78.631h105.334z"/><path stroke="#9CC8FE" stroke-width="8.55" d="M306.108 612.621h-68.884v-65.682h68.884zM306.097 546.948l-68.884 65.682M237.213 546.948l68.884 65.682M306.108 481.257h-68.884v-65.682h68.884zM306.097 415.575l-68.884 65.682M237.213 415.575l68.884 65.682"/><path stroke="#9CC8FE" stroke-width="8.55" d="M306.108 546.939h-68.884v-65.682h68.884zM306.097 481.257l-68.884 65.692M237.213 481.257l68.884 65.692M306.108 415.575h-68.884v-65.682h68.884zM306.097 349.893l-68.884 65.682M237.213 349.893l68.884 65.682M306.108 284.211h-68.884v-65.682h68.884zM306.097 218.528l-68.884 65.683M237.213 218.528l68.884 65.683"/><path stroke="#9CC8FE" stroke-width="8.55" d="M306.108 349.893h-68.884v-65.682h68.884zM306.097 284.211l-68.884 65.682M237.213 284.211l68.884 65.682"/><path fill="#9CC8FE" d="M411.784 873.901H131.547v-64.233h280.237z"/><rect x="732.115" y="681.366" width="254.568" height="174.51" rx="15.789" transform="rotate(-180 732.115 681.366)" fill="#C5E3FF"/><path fill-rule="evenodd" clip-rule="evenodd" d="M732.115 548.187H477.548v-25.378c0-8.811 7.49-15.953 16.73-15.953h221.117c9.24 0 16.73 7.142 16.73 15.953v25.378h-.01z" fill="#9CC8FE"/><path fill="#9CC8FE" d="M353.953 283.875H189.368v-36.944h164.585z"/><path fill="#3568B1" d="M370.663 192.545H36.279v-29.179h334.384z"/><path fill="#C5E3FF" d="M192.187 177.945h-65.914v-30.139h65.914zM112.542 177.945H46.628v-30.139h65.914z"/><path d="M271.66 142.835V0M336.911 129.262L271.661 0M206.41 129.262L271.66 0" stroke="#3568B1" stroke-width="7.6" stroke-linecap="round"/><path fill="#9CC8FE" d="M340.967 220.169H202.353v-98.077h138.614z"/><path fill="#3568B1" d="M340.967 202.076h-73.273v-61.9h73.273z"/><path clip-rule="evenodd" d="M785.286 199.687l-58.536-55.815v55.815h58.536z" stroke="#9CC8FE" stroke-width="6.65" stroke-linejoin="round"/><path clip-rule="evenodd" d="M663.372 143.872v55.824h-58.546v-55.824h58.546z" stroke="#9CC8FE" stroke-width="6.65"/><path d="M604.836 143.872l58.546 55.815M604.836 199.687l58.546-55.815" stroke="#9CC8FE" stroke-width="6.65"/><path clip-rule="evenodd" d="M721.918 143.872v55.824h-58.546v-55.824h58.546z" stroke="#9CC8FE" stroke-width="6.65"/><path d="M663.382 143.872l58.536 55.815M663.382 199.687l58.536-55.815" stroke="#9CC8FE" stroke-width="6.65"/><path clip-rule="evenodd" d="M604.836 143.872v55.824h-58.545v-55.824h58.545z" stroke="#9CC8FE" stroke-width="6.65"/><path d="M546.291 143.872l58.545 55.815M546.291 199.687l58.545-55.815" stroke="#9CC8FE" stroke-width="6.65"/><path clip-rule="evenodd" d="M487.755 143.872v55.824h-58.546v-55.824h58.546z" stroke="#9CC8FE" stroke-width="6.65"/><path d="M429.209 143.872l58.546 55.815M429.209 199.687l58.546-55.815" stroke="#9CC8FE" stroke-width="6.65"/><path clip-rule="evenodd" d="M546.291 143.861v55.825h-58.546v-55.825h58.546z" stroke="#9CC8FE" stroke-width="6.65"/><path d="M487.755 143.872l58.536 55.815M487.755 199.687l58.536-55.815" stroke="#9CC8FE" stroke-width="6.65"/><path clip-rule="evenodd" d="M429.209 143.872v55.824h-58.546v-55.824h58.546z" stroke="#9CC8FE" stroke-width="6.65"/><path d="M370.663 143.872l58.546 55.815M370.663 199.687l58.546-55.815" stroke="#9CC8FE" stroke-width="6.65"/><path fill-rule="evenodd" clip-rule="evenodd" d="M706.758 538.128c6.322 0 11.446-4.886 11.446-10.913 0-6.028-5.124-10.914-11.446-10.914-6.321 0-11.445 4.886-11.445 10.914 0 6.027 5.124 10.913 11.445 10.913zM670.55 538.128c6.321 0 11.445-4.886 11.445-10.913 0-6.028-5.124-10.914-11.445-10.914-6.321 0-11.446 4.886-11.446 10.914 0 6.027 5.125 10.913 11.446 10.913zM634.351 538.128c6.321 0 11.446-4.886 11.446-10.913 0-6.028-5.125-10.914-11.446-10.914s-11.445 4.886-11.445 10.914c0 6.027 5.124 10.913 11.445 10.913zM604.056 450.84l-20.799-19.832 20.799-19.832 20.799 19.832-20.799 19.832z" fill="#184F81"/><path clip-rule="evenodd" d="M1246.34 867.183v-55.144h57.84v55.144h-57.84z" stroke="#C5E3FF" stroke-width="6.65"/><path d="M1246.34 867.182l57.84-55.143M1246.34 812.039l57.84 55.143" stroke="#C5E3FF" stroke-width="6.65"/><path clip-rule="evenodd" d="M1070.27 867.173V812.03h57.84v55.143h-57.84z" stroke="#C5E3FF" stroke-width="6.65"/><path d="M1070.27 867.182l57.84-55.143M1070.27 812.039l57.84 55.143" stroke="#C5E3FF" stroke-width="6.65"/><path clip-rule="evenodd" d="M1188.5 867.183v-55.144h57.83v55.144h-57.83z" stroke="#C5E3FF" stroke-width="6.65"/><path d="M1188.5 867.182l57.84-55.143M1188.5 812.039l57.84 55.143" stroke="#C5E3FF" stroke-width="6.65"/><path d="M1225.91 502.316l72.88 69.493M1225.64 502.057l-73.44 70.011M1225.64 323.66v179.02" stroke="#C5E3FF" stroke-width="4.75" stroke-linecap="round"/><path fill="#9CC8FE" d="M1203.28 307.842h44.705v21.933h-44.705z"/><path fill-rule="evenodd" clip-rule="evenodd" d="M1225.64 302.284c10.8 0 19.56-8.35 19.56-18.65 0-10.3-8.76-18.65-19.56-18.65-10.8 0-19.56 8.35-19.56 18.65 0 10.3 8.76 18.65 19.56 18.65z" fill="#9CC8FE"/><path d="M1668.52 277.271l-163.81-137.095M1224.97 260.972l279.74-120.796" stroke="#C5E3FF" stroke-width="4.75" stroke-linecap="round"/><path stroke="#C5E3FF" stroke-width="6.65" d="M1475.8 764.833h57.831v55.143H1475.8zM1475.8 764.833l57.83 55.144M1533.63 764.833l-57.83 55.144M1475.8 654.538h57.831v55.143H1475.8zM1475.8 654.538l57.83 55.143M1533.63 654.538l-57.83 55.143M1475.8 709.681h57.831v55.143H1475.8zM1475.8 709.681l57.83 55.152M1533.63 709.681l-57.83 55.152"/><path fill="#9CC8FE" d="M1460.49 311.71h88.443v66.018h-88.443z"/><path stroke="#C5E3FF" stroke-width="6.65" d="M1475.8 599.395h57.831v55.143H1475.8zM1475.8 599.395l57.83 55.143M1533.63 599.395l-57.83 55.143M1475.8 489.099h57.831v55.143H1475.8zM1475.8 489.099l57.83 55.143M1533.63 489.099l-57.83 55.143M1475.8 544.242h57.831v55.143H1475.8zM1475.8 544.242l57.83 55.152M1533.63 544.242l-57.83 55.152M1475.8 433.946h57.831v55.143H1475.8zM1475.8 433.946l57.83 55.153M1533.63 433.946l-57.83 55.153"/><path stroke="#9CC8FE" stroke-width="6.65" d="M1475.8 323.66h57.831v55.143H1475.8zM1475.8 323.66l57.83 55.143M1533.63 323.66l-57.83 55.143"/><path stroke="#C5E3FF" stroke-width="6.65" d="M1475.8 378.804h57.831v55.143H1475.8zM1475.8 378.804l57.83 55.143M1533.63 378.804l-57.83 55.143"/><path fill="#C5E3FF" d="M1387.07 819.977h235.281v53.924H1387.07zM1122.34 565.733h205.273v140.713H1122.34zM1435.62 347.493h138.181v31.022H1435.62z"/><path fill="#9CC8FE" d="M1421.58 277.338h280.75v24.495h-280.75z"/><path fill="#C5E3FF" d="M1571.44 264.284h55.345v25.302h-55.345zM1638.3 264.284h55.345v25.302H1638.3z"/><path d="M1504.71 260.108V140.176M1449.93 248.706l54.78-108.53M1559.49 248.706l-54.78-108.53" stroke="#9CC8FE" stroke-width="5.7" stroke-linecap="round"/><path fill="#C5E3FF" d="M1446.52 242.688h116.377v82.345H1446.52z"/><path fill="#9CC8FE" d="M1446.52 257.872h61.526v51.966h-61.526z"/><path clip-rule="evenodd" d="M1073.47 307.842l49.15-46.869v46.869h-49.15z" stroke="#C5E3FF" stroke-width="4.75" stroke-linejoin="round"/><path clip-rule="evenodd" d="M1224.97 260.973v46.869h-49.15v-46.869h49.15z" stroke="#C5E3FF" stroke-width="4.75"/><path d="M1224.97 260.973l-49.14 46.869M1224.97 307.842l-49.14-46.869" stroke="#C5E3FF" stroke-width="4.75"/><path clip-rule="evenodd" d="M1175.83 260.963v46.869h-49.15v-46.869h49.15z" stroke="#C5E3FF" stroke-width="4.75"/><path d="M1175.83 260.973l-49.15 46.869M1175.83 307.842l-49.15-46.869" stroke="#C5E3FF" stroke-width="4.75"/><path clip-rule="evenodd" d="M1274.13 260.973v46.869h-49.16v-46.869h49.16z" stroke="#C5E3FF" stroke-width="4.75"/><path d="M1274.13 260.973l-49.16 46.869M1274.13 307.842l-49.16-46.869" stroke="#C5E3FF" stroke-width="4.75"/><path clip-rule="evenodd" d="M1372.44 260.973v46.869h-49.16v-46.869h49.16z" stroke="#C5E3FF" stroke-width="4.75"/><path d="M1372.44 260.973l-49.16 46.869M1372.44 307.842l-49.16-46.869" stroke="#C5E3FF" stroke-width="4.75"/><path clip-rule="evenodd" d="M1323.28 260.973v46.869h-49.15v-46.869h49.15z" stroke="#C5E3FF" stroke-width="4.75"/><path d="M1323.28 260.973l-49.15 46.869M1323.28 307.842l-49.15-46.869" stroke="#C5E3FF" stroke-width="4.75"/><path clip-rule="evenodd" d="M1421.59 260.963v46.869h-49.15v-46.869h49.15z" stroke="#C5E3FF" stroke-width="4.75"/><path d="M1421.58 260.973l-49.14 46.869M1421.58 307.842l-49.14-46.869" stroke="#C5E3FF" stroke-width="4.75"/><path fill-rule="evenodd" clip-rule="evenodd" d="M1208.18 502.053l17.46-16.649 17.46 16.649-17.46 16.649-17.46-16.649z" fill="#184F81"/><path fill-rule="evenodd" clip-rule="evenodd" d="M1122.34 676.413l69.04-70.059 63.22 65.586 41.34-35.169 31.67 33.182v36.493h-205.27v-30.033zM1269.02 616.778c10.15 0 18.38-7.843 18.38-17.518 0-9.674-8.23-17.517-18.38-17.517-10.14 0-18.37 7.843-18.37 17.517 0 9.675 8.23 17.518 18.37 17.518z" fill="#9CC8FE"/><path fill-rule="evenodd" clip-rule="evenodd" d="M1763 879.718H0z" fill="#184F81"/><path d="M1763 879.718H0" stroke="#C5E3FF" stroke-width="19" stroke-linecap="round"/></g><defs><clipPath id="clip0"><path fill="#fff" d="M0 0h2950v880H0z"/></clipPath></defs></svg>