<svg width="2950" height="880" fill="none" xmlns="http://www.w3.org/2000/svg"><g opacity=".7" clip-path="url(#clip0)"><path fill="#fff" d="M0 0h2950v880H0z"/><path fill-rule="evenodd" clip-rule="evenodd" d="M1576 900s-37.59-86.273-81.97-84.342c-44.38 1.931-43.58 32.476-74.59 32.422-31.01-.054-66.45-43.602-117.99-45.05-51.54-1.448-70.71 49.824-124.1 46.99-54.51-2.892-100.53 3.558-124.35 49.364" fill="#88660E"/><path fill-rule="evenodd" clip-rule="evenodd" d="M1532 926s30.26-107.619 65.98-105.21c35.73 2.408 35.08 40.511 60.05 40.444 24.96-.067 53.48-54.39 94.97-56.196 41.49-1.807 56.93 62.151 99.91 58.616 43.87-3.608 80.91 4.438 100.09 61.577" fill="#88660E"/><path fill="#BC9E51" d="M1037.02 210.175h-52.675v24.092h52.675z"/><path fill-rule="evenodd" clip-rule="evenodd" d="M1010.68 204.07c-12.729 0-23.047-9.172-23.047-20.486 0-11.315 10.318-20.487 23.047-20.487 12.73 0 23.05 9.172 23.05 20.487 0 11.314-10.32 20.486-23.05 20.486z" fill="#BC9E51"/><path d="M488.841 176.594L681.856 26M1011.46 158.691L681.855 26" stroke="#CFCFB2" stroke-width="4.75" stroke-linecap="round"/><path stroke="#CFCFB2" stroke-width="6.65" d="M715.921 712.167h-68.142v60.573h68.142zM715.921 712.167l-68.142 60.572M647.779 712.167l68.142 60.572M715.921 591.009h-68.142v60.573h68.142zM715.921 591.009l-68.142 60.573M647.779 591.009l68.142 60.573M715.921 651.582h-68.142v60.573h68.142zM715.921 651.582l-68.142 60.584M647.779 651.582l68.142 60.584"/><path fill="#BC9E51" d="M733.962 214.424H629.751v72.519h104.211z"/><path stroke="#CFCFB2" stroke-width="6.65" d="M715.921 530.437h-68.142v60.573h68.142zM715.921 530.437l-68.142 60.573M647.779 530.437l68.142 60.573M715.921 409.281h-68.142v60.573h68.142zM715.921 409.281l-68.142 60.573M647.779 409.281l68.142 60.573"/><path stroke="#CFCFB2" stroke-width="6.65" d="M715.921 469.853h-68.142v60.573h68.142zM715.921 469.853l-68.142 60.583M647.779 469.853l68.142 60.583M715.921 348.697h-68.142v60.573h68.142zM715.921 348.697l-68.142 60.584M647.779 348.697l68.142 60.584"/><path stroke="#BC9E51" stroke-width="6.65" d="M715.921 227.552h-68.142v60.573h68.142zM715.921 227.552l-68.142 60.572M647.779 227.552l68.142 60.572"/><path stroke="#CFCFB2" stroke-width="6.65" d="M715.921 288.124h-68.142v60.573h68.142zM715.921 288.124l-68.142 60.573M647.779 288.124l68.142 60.573"/><path fill="#CFCFB2" d="M820.464 772.739H543.236v59.234h277.228zM763.258 253.732H600.441v34.077h162.817z"/><path fill="#BC9E51" d="M779.804 176.667H449v26.907h330.804z"/><path fill="#CFCFB2" d="M603.229 162.328h-65.212v27.793h65.212zM524.448 162.328h-65.212v27.793h65.212z"/><path d="M681.856 157.742V26M746.404 145.216L681.856 26M617.308 145.216L681.856 26" stroke="#BC9E51" stroke-width="5.7" stroke-linecap="round"/><path fill="#CFCFB2" d="M750.413 138.605H613.287v90.454h137.126z"/><path fill="#BC9E51" d="M750.413 155.285h-72.495v57.083h72.495z"/><path clip-rule="evenodd" d="M1189.98 210.175l-57.91-51.484v51.484h57.91z" stroke="#CFCFB2" stroke-width="4.75" stroke-linejoin="round"/><path clip-rule="evenodd" d="M1011.46 158.691v51.484h57.92v-51.484h-57.92z" stroke="#CFCFB2" stroke-width="4.75"/><path d="M1011.46 158.691l57.91 51.484M1011.46 210.175l57.91-51.484" stroke="#CFCFB2" stroke-width="4.75"/><path clip-rule="evenodd" d="M1069.37 158.68v51.485h57.92V158.68h-57.92z" stroke="#CFCFB2" stroke-width="4.75"/><path d="M1069.37 158.691l57.92 51.484M1069.37 210.175l57.92-51.484" stroke="#CFCFB2" stroke-width="4.75"/><path clip-rule="evenodd" d="M953.545 158.691v51.484h57.915v-51.484h-57.915z" stroke="#CFCFB2" stroke-width="4.75"/><path d="M953.544 158.691l57.916 51.484M953.544 210.175l57.916-51.484" stroke="#CFCFB2" stroke-width="4.75"/><path clip-rule="evenodd" d="M837.71 158.691v51.484h57.917v-51.484H837.71z" stroke="#CFCFB2" stroke-width="4.75"/><path d="M837.71 158.691l57.917 51.484M837.71 210.175l57.917-51.484" stroke="#CFCFB2" stroke-width="4.75"/><path clip-rule="evenodd" d="M895.627 158.691v51.484h57.918v-51.484h-57.918z" stroke="#CFCFB2" stroke-width="4.75"/><path d="M895.627 158.691l57.918 51.484M895.627 210.175l57.918-51.484" stroke="#CFCFB2" stroke-width="4.75"/><path clip-rule="evenodd" d="M779.792 158.68v51.485h57.918V158.68h-57.918z" stroke="#CFCFB2" stroke-width="4.75"/><path d="M779.804 158.691l57.906 51.484M779.804 210.175l57.906-51.484" stroke="#CFCFB2" stroke-width="4.75"/><path d="M493.603 210v95.395" stroke="#BFA185" stroke-width="5.6"/><path fill-rule="evenodd" clip-rule="evenodd" d="M223 883.828h192.415V268.995H223v614.833z" fill="#DBC7A9"/><path fill-rule="evenodd" clip-rule="evenodd" d="M415.415 883.828h121.979V268.995H415.415v614.833z" fill="#BFA185"/><path fill-rule="evenodd" clip-rule="evenodd" d="M223.001 348.655h45.742v-28.617h-45.742v28.617zM268.743 376.983h45.741v-28.615h-45.741v28.615zM314.484 348.655h45.741v-28.617h-45.741v28.617z" fill="#C1BAA2"/><path fill-rule="evenodd" clip-rule="evenodd" d="M223.001 376.983h45.742v-28.615h-45.742v28.615zM268.743 570.135h45.741v-28.617h-45.741v28.617zM431.094 376.983h35.439v-28.615h-35.439v28.615zM360.226 714.483h45.742v-28.617h-45.742v28.617z" fill="#E4CEAB"/><path fill-rule="evenodd" clip-rule="evenodd" d="M360.226 405.601h45.742v-28.617h-45.742v28.617zM268.743 541.518h45.741v-28.616h-45.741v28.616zM360.226 570.135h45.742v-28.617h-45.742v28.617zM431.104 348.655h35.429v-28.617h-35.429v28.617zM501.964 377.271h35.43v-28.615h-35.43v28.615zM431.099 487.728h35.43v-28.616h-35.43v28.616zM314.484 714.483h45.741v-28.617h-45.741v28.617zM223.001 787.886h45.742v-28.617h-45.742v28.617zM268.743 816.503h45.741v-28.617h-45.741v28.617zM223.001 405.601h45.742v-28.617h-45.742v28.617z" fill="#C1BAA2"/><path fill-rule="evenodd" clip-rule="evenodd" d="M18.492 529.972h18.272v-28.964H18.492v28.964zM18.492 472.043h18.272v-28.964H18.492v28.964z" fill="#E4CEAB"/><path fill-rule="evenodd" clip-rule="evenodd" d="M.517 880.549h157.27V135.508H.517v745.041z" fill="#DBC7A9"/><path fill-rule="evenodd" clip-rule="evenodd" d="M157.786 880.549h99.698V135.508h-99.698v745.041z" fill="#C1BAA2"/><path fill-rule="evenodd" clip-rule="evenodd" d="M.517 118.325h157.27V84.26H.517v34.065z" fill="#DBC7A9"/><path fill-rule="evenodd" clip-rule="evenodd" d="M29.024 104.76h63.45V70.695h-63.45v34.065zM173.143 104.76h63.449V70.695h-63.449v34.065z" fill="#DBC7A9"/><path fill-rule="evenodd" clip-rule="evenodd" d="M157.786 118.325h99.698V84.26h-99.698v34.065z" fill="#C1BAA2"/><path fill-rule="evenodd" clip-rule="evenodd" d="M-14 135.508h175.038v-17.183H-14v17.183z" fill="#DBC7A9"/><path fill-rule="evenodd" clip-rule="evenodd" d="M161.039 135.508H272v-17.183H161.039v17.183zM18.492 880.549h18.272V152.39H18.492v728.159zM120.606 880.549h18.274V152.39h-18.274v728.159zM86.568 880.549h18.272V152.39H86.568v728.159zM52.53 880.549h18.272V152.39H52.53v728.159z" fill="#BFA185"/><path fill-rule="evenodd" clip-rule="evenodd" d="M52.53 501.008h18.272v-28.965H52.53v28.965zM86.568 767.83h18.272v-28.965H86.568v28.965zM86.568 738.865h18.272v-28.964H86.568v28.964z" fill="#E4CEAB"/><path fill-rule="evenodd" clip-rule="evenodd" d="M120.606 651.897h18.274v-28.965h-18.274v28.965zM18.492 681.288h18.272v-28.965H18.492v28.965zM120.606 412.543h18.274v-28.965h-18.274v28.965zM18.492 367.023h18.272v-28.965H18.492v28.965zM86.568 680.936h18.272v-28.964H86.568v28.964z" fill="#C1BAA2"/><path fill-rule="evenodd" clip-rule="evenodd" d="M18.492 801.116h18.272v-28.965H18.492v28.965zM86.568 472.043h18.272v-28.964H86.568v28.964zM18.492 558.937h18.272v-28.964H18.492v28.964zM120.606 303.732h18.274v-28.965h-18.274v28.965zM18.492 258.715h18.272V229.75H18.492v28.965z" fill="#E4CEAB"/><path fill-rule="evenodd" clip-rule="evenodd" d="M18.492 287.679h18.272v-28.965H18.492v28.965zM86.568 443.078h18.272v-28.965H86.568v28.965z" fill="#E4CEAB"/><path fill-rule="evenodd" clip-rule="evenodd" d="M656.448 889.33h170.438V648.708H656.448V889.33z" fill="#DBC7A9"/><path fill-rule="evenodd" clip-rule="evenodd" d="M466.042 889.33h190.406V648.708H466.042V889.33z" fill="#E4CEAB"/><path fill-rule="evenodd" clip-rule="evenodd" d="M671.269 674.757H860v-48.204H671.269v48.204z" fill="#BFA185"/><path fill-rule="evenodd" clip-rule="evenodd" d="M466.042 686.705h360.845v-11.948H466.042v11.948z" fill="#C1BAA2"/><path fill-rule="evenodd" clip-rule="evenodd" d="M466.042 708.278h360.845v-11.947H466.042v11.947z" fill="#BFA185"/><path fill-rule="evenodd" clip-rule="evenodd" d="M466.042 821.585h360.845v-11.948H466.042v11.948z" fill="#C1BAA2"/><path fill-rule="evenodd" clip-rule="evenodd" d="M466.042 843.156h360.845v-11.948H466.042v11.948z" fill="#BFA185"/><path fill-rule="evenodd" clip-rule="evenodd" d="M431 674.757h240.27v-48.204H431v48.204z" fill="#DBC7A9"/><path fill-rule="evenodd" clip-rule="evenodd" d="M671.269 809.636H860v-81.384H671.269v81.384z" fill="#BFA185"/><path fill-rule="evenodd" clip-rule="evenodd" d="M431 809.636h240.27v-81.384H431v81.384z" fill="#DBC7A9"/><path fill="#BC9E51" d="M1926.96 211.175h52.675v24.092h-52.675z"/><path fill-rule="evenodd" clip-rule="evenodd" d="M1953.3 205.07c12.73 0 23.05-9.172 23.05-20.486 0-11.315-10.32-20.487-23.05-20.487-12.72 0-23.04 9.172-23.04 20.487 0 11.314 10.32 20.486 23.04 20.486z" fill="#BC9E51"/><path d="M2475.14 177.594L2282.13 27M1952.52 159.691L2282.13 27" stroke="#CFCFB2" stroke-width="4.75" stroke-linecap="round"/><path stroke="#CFCFB2" stroke-width="6.65" d="M2248.06 713.167h68.142v60.573h-68.142zM2248.06 713.167l68.14 60.572M2316.2 713.167l-68.14 60.572M2248.06 592.009h68.142v60.573h-68.142zM2248.06 592.009l68.14 60.573M2316.2 592.009l-68.14 60.573M2248.06 652.582h68.142v60.573h-68.142zM2248.06 652.582l68.14 60.584M2316.2 652.582l-68.14 60.584"/><path fill="#BC9E51" d="M2230.02 215.424h104.211v72.519H2230.02z"/><path stroke="#CFCFB2" stroke-width="6.65" d="M2248.06 531.437h68.142v60.573h-68.142zM2248.06 531.437l68.14 60.573M2316.2 531.437l-68.14 60.573M2248.06 410.281h68.142v60.573h-68.142zM2248.06 410.281l68.14 60.573M2316.2 410.281l-68.14 60.573"/><path stroke="#CFCFB2" stroke-width="6.65" d="M2248.06 470.853h68.142v60.573h-68.142zM2248.06 470.853l68.14 60.583M2316.2 470.853l-68.14 60.583M2248.06 349.697h68.142v60.573h-68.142zM2248.06 349.697l68.14 60.584M2316.2 349.697l-68.14 60.584"/><path stroke="#BC9E51" stroke-width="6.65" d="M2248.06 228.552h68.142v60.573h-68.142zM2248.06 228.552l68.14 60.572M2316.2 228.552l-68.14 60.572"/><path stroke="#CFCFB2" stroke-width="6.65" d="M2248.06 289.124h68.142v60.573h-68.142zM2248.06 289.124l68.14 60.573M2316.2 289.124l-68.14 60.573"/><path fill="#CFCFB2" d="M2143.52 773.739h277.228v59.234H2143.52zM2200.72 254.732h162.817v34.077H2200.72z"/><path fill="#BC9E51" d="M2184.18 177.667h330.804v26.907H2184.18z"/><path fill="#CFCFB2" d="M2360.75 163.328h65.212v27.793h-65.212zM2439.53 163.328h65.212v27.793h-65.212z"/><path d="M2282.13 158.742V27M2217.58 146.216L2282.13 27M2346.67 146.216L2282.13 27" stroke="#BC9E51" stroke-width="5.7" stroke-linecap="round"/><path fill="#CFCFB2" d="M2213.57 139.605h137.126v90.454H2213.57z"/><path fill="#BC9E51" d="M2213.57 156.285h72.495v57.083h-72.495z"/><path clip-rule="evenodd" d="M1774 211.175l57.92-51.484v51.484H1774z" stroke="#CFCFB2" stroke-width="4.75" stroke-linejoin="round"/><path clip-rule="evenodd" d="M1952.52 159.691v51.484h-57.92v-51.484h57.92z" stroke="#CFCFB2" stroke-width="4.75"/><path d="M1952.52 159.691l-57.9 51.484M1952.52 211.175l-57.9-51.484" stroke="#CFCFB2" stroke-width="4.75"/><path clip-rule="evenodd" d="M1894.62 159.68v51.485h-57.92V159.68h57.92z" stroke="#CFCFB2" stroke-width="4.75"/><path d="M1894.61 159.691l-57.91 51.484M1894.61 211.175l-57.91-51.484" stroke="#CFCFB2" stroke-width="4.75"/><path clip-rule="evenodd" d="M2010.44 159.691v51.484h-57.92v-51.484h57.92z" stroke="#CFCFB2" stroke-width="4.75"/><path d="M2010.44 159.691l-57.92 51.484M2010.44 211.175l-57.92-51.484" stroke="#CFCFB2" stroke-width="4.75"/><path clip-rule="evenodd" d="M2126.27 159.691v51.484h-57.91v-51.484h57.91z" stroke="#CFCFB2" stroke-width="4.75"/><path d="M2126.27 159.691l-57.91 51.484M2126.27 211.175l-57.91-51.484" stroke="#CFCFB2" stroke-width="4.75"/><path clip-rule="evenodd" d="M2068.36 159.691v51.484h-57.92v-51.484h57.92z" stroke="#CFCFB2" stroke-width="4.75"/><path d="M2068.36 159.691l-57.92 51.484M2068.36 211.175l-57.92-51.484" stroke="#CFCFB2" stroke-width="4.75"/><path clip-rule="evenodd" d="M2184.19 159.68v51.485h-57.92V159.68h57.92z" stroke="#CFCFB2" stroke-width="4.75"/><path d="M2184.18 159.691l-57.91 51.484M2184.18 211.175l-57.91-51.484" stroke="#CFCFB2" stroke-width="4.75"/><path d="M2470.38 211v95.395" stroke="#BFA185" stroke-width="5.6"/><path fill-rule="evenodd" clip-rule="evenodd" d="M2740.98 884.828h-192.41V269.995h192.41v614.833z" fill="#DBC7A9"/><path fill-rule="evenodd" clip-rule="evenodd" d="M2548.57 884.828h-121.98V269.995h121.98v614.833z" fill="#BFA185"/><path fill-rule="evenodd" clip-rule="evenodd" d="M2740.98 349.655h-45.74v-28.617h45.74v28.617zM2695.24 377.983h-45.74v-28.615h45.74v28.615zM2649.5 349.655h-45.74v-28.617h45.74v28.617z" fill="#C1BAA2"/><path fill-rule="evenodd" clip-rule="evenodd" d="M2740.98 377.983h-45.74v-28.615h45.74v28.615zM2695.24 571.135h-45.74v-28.617h45.74v28.617zM2532.89 377.983h-35.44v-28.615h35.44v28.615zM2603.76 715.483h-45.74v-28.617h45.74v28.617z" fill="#E4CEAB"/><path fill-rule="evenodd" clip-rule="evenodd" d="M2603.76 406.601h-45.74v-28.617h45.74v28.617zM2695.24 542.518h-45.74v-28.616h45.74v28.616zM2603.76 571.135h-45.74v-28.617h45.74v28.617zM2532.88 349.655h-35.43v-28.617h35.43v28.617zM2462.02 378.271h-35.43v-28.615h35.43v28.615zM2532.88 488.728h-35.43v-28.616h35.43v28.616zM2649.5 715.483h-45.74v-28.617h45.74v28.617zM2740.98 788.886h-45.74v-28.617h45.74v28.617zM2695.24 817.503h-45.74v-28.617h45.74v28.617zM2740.98 406.601h-45.74v-28.617h45.74v28.617z" fill="#C1BAA2"/><path fill-rule="evenodd" clip-rule="evenodd" d="M2936.64 530.972h-17.63v-28.964h17.63v28.964zM2936.64 473.043h-17.63v-28.964h17.63v28.964z" fill="#E4CEAB"/><path fill-rule="evenodd" clip-rule="evenodd" d="M2953.99 881.549h-151.78V136.508h151.78v745.041z" fill="#DBC7A9"/><path fill-rule="evenodd" clip-rule="evenodd" d="M2802.21 881.549h-96.22V136.508h96.22v745.041z" fill="#C1BAA2"/><path fill-rule="evenodd" clip-rule="evenodd" d="M2953.99 119.325h-151.78V85.26h151.78v34.065z" fill="#DBC7A9"/><path fill-rule="evenodd" clip-rule="evenodd" d="M2926.48 105.76h-61.24V71.695h61.24v34.065zM2787.39 105.76h-61.24V71.695h61.24v34.065z" fill="#DBC7A9"/><path fill-rule="evenodd" clip-rule="evenodd" d="M2802.21 119.325h-96.22V85.26h96.22v34.065z" fill="#C1BAA2"/><path fill-rule="evenodd" clip-rule="evenodd" d="M2968 136.508h-168.93v-17.183H2968v17.183z" fill="#DBC7A9"/><path fill-rule="evenodd" clip-rule="evenodd" d="M2799.07 136.508h-107.09v-17.183h107.09v17.183zM2936.64 881.549h-17.63V153.39h17.63v728.159zM2838.09 881.549h-17.63V153.39h17.63v728.159zM2870.94 881.549h-17.63V153.39h17.63v728.159zM2903.79 881.549h-17.63V153.39h17.63v728.159z" fill="#BFA185"/><path fill-rule="evenodd" clip-rule="evenodd" d="M2903.79 502.008h-17.63v-28.965h17.63v28.965zM2870.94 768.83h-17.63v-28.965h17.63v28.965zM2870.94 739.865h-17.63v-28.964h17.63v28.964z" fill="#E4CEAB"/><path fill-rule="evenodd" clip-rule="evenodd" d="M2838.09 652.897h-17.63v-28.965h17.63v28.965zM2936.64 682.288h-17.63v-28.965h17.63v28.965zM2838.09 413.543h-17.63v-28.965h17.63v28.965zM2936.64 368.023h-17.63v-28.965h17.63v28.965zM2870.94 681.936h-17.63v-28.964h17.63v28.964z" fill="#C1BAA2"/><path fill-rule="evenodd" clip-rule="evenodd" d="M2936.64 802.116h-17.63v-28.965h17.63v28.965zM2870.94 473.043h-17.63v-28.964h17.63v28.964zM2936.64 559.937h-17.63v-28.964h17.63v28.964zM2838.09 304.732h-17.63v-28.965h17.63v28.965zM2936.64 259.715h-17.63V230.75h17.63v28.965z" fill="#E4CEAB"/><path fill-rule="evenodd" clip-rule="evenodd" d="M2936.64 288.679h-17.63v-28.965h17.63v28.965zM2870.94 444.078h-17.63v-28.965h17.63v28.965z" fill="#E4CEAB"/><path fill-rule="evenodd" clip-rule="evenodd" d="M2307.53 890.329H2137.1V649.708h170.43v240.621z" fill="#DBC7A9"/><path fill-rule="evenodd" clip-rule="evenodd" d="M2497.94 890.329h-190.41V649.708h190.41v240.621z" fill="#E4CEAB"/><path fill-rule="evenodd" clip-rule="evenodd" d="M2292.71 675.757h-188.73v-48.204h188.73v48.204z" fill="#BFA185"/><path fill-rule="evenodd" clip-rule="evenodd" d="M2497.94 687.705H2137.1v-11.948h360.84v11.948z" fill="#C1BAA2"/><path fill-rule="evenodd" clip-rule="evenodd" d="M2497.94 709.277H2137.1v-11.946h360.84v11.946z" fill="#BFA185"/><path fill-rule="evenodd" clip-rule="evenodd" d="M2497.94 822.585H2137.1v-11.948h360.84v11.948z" fill="#C1BAA2"/><path fill-rule="evenodd" clip-rule="evenodd" d="M2497.94 844.156H2137.1v-11.948h360.84v11.948z" fill="#BFA185"/><path fill-rule="evenodd" clip-rule="evenodd" d="M2532.98 675.757h-240.27v-48.204h240.27v48.204z" fill="#DBC7A9"/><path fill-rule="evenodd" clip-rule="evenodd" d="M2292.71 810.636h-188.73v-81.385h188.73v81.385z" fill="#BFA185"/><path fill-rule="evenodd" clip-rule="evenodd" d="M2532.98 810.636h-240.27v-81.385h240.27v81.385z" fill="#DBC7A9"/><path fill-rule="evenodd" clip-rule="evenodd" d="M2166.36 902.049l-300.26 1.578c-17.13-21.775-57.04-76.304-40.98-92.414 10.57-10.597 42.25 23.509 50.8 13.275 8.55-10.227-47.61-73.986-33.35-82.972 25.13-15.835 106 97.813 116.43 88.666 10.98-9.618-40.59-76.448-22.42-83.528 21.16-8.24 77.17 93.959 93.35 83.528 8.48-5.47-7.98-38.789 4.26-44.482 21.29-9.923 56.83 86.313 71.94 77.739 7.14-4.062-.9-17.967 9.82-21.427 13.09-4.221 39.46 40.293 50.41 60.037" fill="#BFA185"/><path d="M1891.84 896.81s-2.74-36.487 17.66-79.137M1880.42 900.537s-17.47-76.512-62.76-113.851" stroke="#C1BAA2" stroke-width="6.3" stroke-linecap="square"/><path fill-rule="evenodd" clip-rule="evenodd" d="M1834.87 778.783c1.77 9.825-4.75 19.228-14.58 21.002-9.82 1.775-19.22-4.751-21-14.575-1.77-9.825 4.75-19.228 14.58-21.003 9.82-1.775 19.22 4.751 21 14.576M1932.23 801.048c1.77 9.825-4.75 19.228-14.58 21.003-9.82 1.774-19.22-4.752-21-14.576-1.77-9.825 4.75-19.228 14.58-21.003 9.82-1.775 19.22 4.752 21 14.576" fill="#C1BAA2"/><path fill-rule="evenodd" clip-rule="evenodd" d="M1980.48 851.338c.52.655 11.63 26.209 10.31 50.431h39.12c.74-13.24 9.14-32.189 9.14-32.189s-17.22 6.974-28.87 26.894c0 0-8.81-35.937-29.7-45.136M1919.17 862.791c-.47.899-9.88 17.215-12.36 36.288l-37.29 3.826c-2.54-16.956-8.02-26.396-8.02-26.396s15.65 4.553 24.01 17.869c0 0 9.69-20.486 33.66-31.587" fill="#DBC7A9"/><path fill-rule="evenodd" clip-rule="evenodd" d="M807 884.049l300.25 1.578c17.14-21.775 57.05-76.304 40.98-92.414-10.56-10.597-42.24 23.509-50.79 13.275-8.55-10.227 47.61-73.986 33.35-82.972-25.13-15.835-106 97.813-116.44 88.666-10.97-9.618 40.6-76.448 22.43-83.528-21.16-8.24-77.174 93.959-93.355 83.528-8.48-5.47 7.981-38.789-4.255-44.482-21.296-9.923-56.831 86.313-71.94 77.739-7.144-4.062.893-17.967-9.82-21.427-13.092-4.221-39.465 40.293-50.41 60.037" fill="#BFA185"/><path d="M1081.52 878.81s2.74-36.487-17.66-79.137M1092.94 882.537s17.47-76.512 62.76-113.851" stroke="#C1BAA2" stroke-width="6.3" stroke-linecap="square"/><path fill-rule="evenodd" clip-rule="evenodd" d="M1138.49 760.783c-1.78 9.825 4.75 19.228 14.57 21.002 9.83 1.775 19.23-4.751 21.01-14.575 1.77-9.825-4.76-19.228-14.58-21.003-9.82-1.775-19.23 4.751-21 14.576M1041.13 783.048c-1.77 9.825 4.75 19.228 14.57 21.003 9.83 1.774 19.23-4.752 21.01-14.576 1.77-9.825-4.76-19.228-14.58-21.003-9.82-1.775-19.23 4.752-21 14.576" fill="#C1BAA2"/><path fill-rule="evenodd" clip-rule="evenodd" d="M992.872 833.338c-.519.655-11.627 26.209-10.306 50.431H943.45c-.746-13.24-9.143-32.189-9.143-32.189s17.225 6.974 28.867 26.894c0 0 8.812-35.937 29.698-45.136M1054.19 844.791c.46.899 9.88 17.215 12.36 36.288l37.29 3.826c2.54-16.956 8.02-26.396 8.02-26.396s-15.66 4.553-24.02 17.869c0 0-9.68-20.486-33.65-31.587" fill="#DBC7A9"/><path d="M1291.68 878.894s2.74-36.487-17.66-79.137M1303.1 882.621s17.47-76.512 62.76-113.851" stroke="#C1BAA2" stroke-width="6.3" stroke-linecap="square"/><path fill-rule="evenodd" clip-rule="evenodd" d="M1348.65 760.867c-1.77 9.825 4.75 19.228 14.58 21.002 9.82 1.775 19.22-4.751 21-14.575 1.77-9.825-4.75-19.228-14.58-21.003-9.82-1.775-19.23 4.751-21 14.576M1251.29 783.132c-1.77 9.825 4.75 19.228 14.58 21.003 9.82 1.774 19.22-4.752 21-14.576 1.77-9.825-4.75-19.228-14.58-21.003-9.82-1.775-19.22 4.752-21 14.576" fill="#C1BAA2"/><path fill-rule="evenodd" clip-rule="evenodd" d="M1264.35 844.875c.46.899 9.88 17.215 12.36 36.288l37.29 3.826c2.54-16.956 8.02-26.396 8.02-26.396s-15.66 4.553-24.01 17.869c0 0-9.69-20.486-33.66-31.587" fill="#DBC7A9"/><path d="M1605.84 879.894s-2.74-36.487 17.66-79.137M1594.42 883.621s-17.47-76.512-62.76-113.851" stroke="#C1BAA2" stroke-width="6.3" stroke-linecap="square"/><path fill-rule="evenodd" clip-rule="evenodd" d="M1548.87 761.867c1.77 9.825-4.75 19.228-14.58 21.002-9.82 1.775-19.22-4.751-21-14.575-1.77-9.825 4.75-19.228 14.58-21.003 9.82-1.775 19.22 4.751 21 14.576M1646.23 784.132c1.77 9.825-4.75 19.228-14.58 21.003-9.82 1.774-19.22-4.752-21-14.576-1.77-9.825 4.75-19.228 14.58-21.003 9.82-1.775 19.22 4.752 21 14.576" fill="#C1BAA2"/><path fill-rule="evenodd" clip-rule="evenodd" d="M1633.17 845.875c-.47.899-9.88 17.215-12.36 36.288l-37.29 3.826c-2.54-16.956-8.02-26.396-8.02-26.396s15.65 4.553 24.01 17.869c0 0 9.69-20.486 33.66-31.587" fill="#DBC7A9"/></g><defs><clipPath id="clip0"><path fill="#fff" d="M0 0h2950v880H0z"/></clipPath></defs></svg>