<svg width="2950" height="880" fill="none" xmlns="http://www.w3.org/2000/svg"><g opacity=".7" clip-path="url(#clip0)"><path fill="#fff" d="M0 0h2950v880H0z"/><path fill-rule="evenodd" clip-rule="evenodd" d="M2746.48 209.691l-812.89-7.909c-4.54-67.462 15.28-119.795 43.53-123.924 69.03-10.102 71.78 50.656 107.75 49.466 57.06-1.876 45.72-96.511 110.25-106.921 64.53-10.4 66.32 55.919 127.24 55.393 60.92-.528 125.69-126.723 212.12-98.92 62.76 20.187 33.02 91.148 81.47 138.916 48.45 47.768 113.27-23.339 129.81 44.239 4.18 17.087 4.03 33.797.72 49.66" fill="#E1D4BC" fill-opacity=".65"/><path fill-rule="evenodd" clip-rule="evenodd" d="M2665 618.342C2665 707.988 2606.58 758 2530.5 758S2396 707.988 2396 618.342C2396 429.595 2481.85 212 2530.5 212c48.65 0 134.5 217.595 134.5 406.342" fill="#C9AB7E"/><path d="M2530.5 485v413" stroke="#7D7363" stroke-width="10.5" stroke-linecap="square"/><path d="M2568 697l30-29M2568 530l30-30M2503 697l-30-29M2503 530l-30-30" stroke="#7D7363" stroke-width="7" stroke-linecap="square"/><mask id="a" maskUnits="userSpaceOnUse" x="2568" y="-17" width="406" height="806"><path fill-rule="evenodd" clip-rule="evenodd" d="M2568-16.917h406v805.285h-406V-16.917z" fill="#fff"/></mask><g mask="url(#a)"><path fill-rule="evenodd" clip-rule="evenodd" d="M2612.14 443.42c-6.29-18.842-40.78-15.652-40.79-68.191 0-79.108 108.94-70.079 115.36-129.683 6.43-59.605-63.58-58.18-65.75-108.453-2.16-50.275 51.07-154.01 131.83-154.01 63.68 0 10.94 80.043 62.33 115.837 51.4 35.794 110.1-10.062 139.15 46.224 40.02 77.533-62.31 170.648-52.22 230.085 10.1 59.437 70.09 45.384 71.92 110.691 1.84 65.308-85.3 76.801-77.09 132.801 5.17 35.301 60.32 23.515 63.21 93.122 2.45 58.936-187.02 131.861-329.35 11.932-142.33-119.927 5.42-208.441-18.6-280.355" fill="#B18F5A"/></g><path d="M2768.5 300v580" stroke="#7D7363" stroke-width="10.5" stroke-linecap="square"/><path d="M2824 671l39-37M2813 468l37-38M2722 677l-37-39M2732 554l-37-38M2813 366l37-38M2714 366l-38-38" stroke="#7D7363" stroke-width="8.4" stroke-linecap="square"/><path fill-rule="evenodd" clip-rule="evenodd" d="M2533.97 881.049l-300.25 1.578c-17.14-21.775-57.05-76.304-40.98-92.414 10.56-10.597 42.24 23.509 50.79 13.275 8.55-10.227-47.61-73.986-33.35-82.972 25.13-15.835 106 97.813 116.44 88.666 10.97-9.618-40.6-76.448-22.43-83.528 21.16-8.24 77.17 93.959 93.36 83.528 8.47-5.47-7.99-38.789 4.25-44.482 21.3-9.923 56.83 86.313 71.94 77.739 7.14-4.062-.89-17.967 9.82-21.427 13.09-4.221 39.46 40.293 50.41 60.037" fill="#B18F5A"/><path fill-rule="evenodd" clip-rule="evenodd" d="M2348.1 827.338c.52.655 11.62 26.209 10.3 50.431h39.12c.75-13.24 9.14-32.189 9.14-32.189s-17.22 6.974-28.86 26.894c0 0-8.82-35.937-29.7-45.136M2286.78 838.791c-.46.899-9.88 17.215-12.36 36.288l-37.29 3.826c-2.54-16.956-8.02-26.396-8.02-26.396s15.66 4.553 24.02 17.869c0 0 9.68-20.486 33.65-31.587" fill="#E1DDBC"/><path fill-rule="evenodd" clip-rule="evenodd" d="M1791.96 879.564h-78.57V742.608h78.57v136.956z" fill="#6D441E"/><path fill-rule="evenodd" clip-rule="evenodd" d="M2216.87 762.785H1694v-20.177h522.87v20.177zM1788.67 670.369h441.67l7.53-40.369H1796.2l-7.53 40.369zM1778.16 726.677h441.68l7.53-40.376h-441.68l-7.53 40.376z" fill="#C19778"/><path fill-rule="evenodd" clip-rule="evenodd" d="M2230.34 670.369h21.31l7.99-40.369h-21.77l-7.53 40.369zM2219.84 726.677h20.68l7.98-40.376h-21.13l-7.53 40.376z" fill="#6D441E"/><path fill-rule="evenodd" clip-rule="evenodd" d="M1821.68 630l-21 112.608h25.35l21-112.608h-25.35zM2187.04 630l-21.01 112.608h25.35L2212.39 630h-25.35zM2138.31 879.564h-19.39V742.608h19.39v136.956zM2118.92 762.825h-19.4v-20.217h19.4v20.217zM1732.78 762.825h-19.39v-20.217h19.39v20.217z" fill="#DDBC8A"/><path fill-rule="evenodd" clip-rule="evenodd" d="M1713.39 879.564H1694V742.608h19.39v136.956z" fill="#DDBC8A"/><path fill-rule="evenodd" clip-rule="evenodd" d="M2216.87 879.564h-78.56V742.608h78.56v136.956z" fill="#6D441E"/><path fill-rule="evenodd" clip-rule="evenodd" d="M2748 883.872L2534.76 885c-12.17-15.57-40.52-54.56-29.11-66.08 7.51-7.577 30.01 16.81 36.08 9.492 6.07-7.312-33.81-52.903-23.69-59.328 17.85-11.322 75.28 69.94 82.7 63.4 7.79-6.877-28.83-54.664-15.93-59.726 15.03-5.892 54.81 67.184 66.3 59.726 6.02-3.911-5.67-27.736 3.02-31.807 15.13-7.095 40.36 61.718 51.09 55.587 5.08-2.905-.63-12.847 6.98-15.321 9.3-3.018 28.03 28.811 35.8 42.929" fill="#B18F5A"/><path fill-rule="evenodd" clip-rule="evenodd" d="M2616 847c.37.468 8.34 18.709 7.39 36h28.05c.54-9.451 6.56-22.978 6.56-22.978s-12.35 4.978-20.7 19.198c0 0-6.32-25.653-21.3-32.22M2572 856c-.33.628-7.02 12.016-8.79 25.329L2536.7 884c-1.8-11.836-5.7-18.425-5.7-18.425s11.13 3.178 17.07 12.473c0 0 6.89-14.299 23.93-22.048" fill="#E1DDBC"/><path fill-rule="evenodd" clip-rule="evenodd" d="M2671 883.679L2945.17 885c15.65-18.232 52.09-63.887 37.42-77.375-9.65-8.873-38.58 19.683-46.38 11.114-7.81-8.563 43.47-61.946 30.45-69.47-22.95-13.258-96.79 81.896-106.32 74.238-10.02-8.053 37.07-64.008 20.48-69.936-19.32-6.899-70.47 78.669-85.25 69.936-7.74-4.58 7.29-32.477-3.88-37.244-19.45-8.308-51.9 72.268-65.69 65.089-6.53-3.401.81-15.043-8.97-17.94-11.95-3.534-36.04 33.736-46.03 50.267" fill="#B18F5A"/><path fill-rule="evenodd" clip-rule="evenodd" d="M2841 841c-.48.546-10.72 21.827-9.5 42h-36.07c-.69-11.027-8.43-26.808-8.43-26.808s15.88 5.808 26.62 22.398c0 0 8.12-29.929 27.38-37.59M2897 851c.43.74 9.08 14.162 11.36 29.852l34.27 3.148c2.33-13.949 7.37-21.715 7.37-21.715s-14.39 3.746-22.07 14.7c0 0-8.9-16.853-30.93-25.985" fill="#E1DDBC"/><path fill-rule="evenodd" clip-rule="evenodd" d="M187.383 188.888h-74.907V72.289h74.907v116.599z" fill="#FFF5E0"/><path fill-rule="evenodd" clip-rule="evenodd" d="M235.829 188.888H173.16V72.289h62.669v116.599z" fill="#DDBC8A"/><path fill-rule="evenodd" clip-rule="evenodd" d="M190.231 72.289h-91.03V55h91.03v17.289z" fill="#FFF5E0"/><path fill-rule="evenodd" clip-rule="evenodd" d="M249.104 72.289h-81.317V55h81.317v17.289z" fill="#DDBC8A"/><path fill-rule="evenodd" clip-rule="evenodd" d="M561.252 425.943H123.766L-94.974 136.64h437.479l218.747 289.303z" fill="#C0816D"/><path fill-rule="evenodd" clip-rule="evenodd" d="M-314 425.943h437.486L342.225 136.64H-95.254L-314 425.943z" fill="#C0816D"/><path d="M1.819 136.64l-218.747 289.303M59.6 136.64l-218.748 289.303M117.38 136.64l-218.747 289.303M175.161 136.64L-43.586 425.943M290.723 136.64L71.975 425.943M232.942 136.64L14.195 425.943" stroke="#DDBC8A" stroke-width="9.1"/><path fill-rule="evenodd" clip-rule="evenodd" d="M529.886 884.533H117.268V425.939h412.618v458.594zM117.268 425.939h412.618L323.578 153.078l-206.31 272.861z" fill="#DDBC8A"/><path fill-rule="evenodd" clip-rule="evenodd" d="M453.328 484.422c12.765 0 23.112 11.88 23.112 26.533v287.506h-46.225V510.955c0-14.653 10.348-26.533 23.113-26.533M181.502 484.422c12.765 0 23.113 11.88 23.113 26.533v287.506H158.39V510.955c0-14.653 10.348-26.533 23.112-26.533M117.268 884.533h-412.619V425.939h412.619v458.594z" fill="#FFF5E0"/><path fill-rule="evenodd" clip-rule="evenodd" d="M35.577 786.612H-67.92V537.691H35.576v248.921z" fill="#DDBC8A"/><path fill-rule="evenodd" clip-rule="evenodd" d="M34.915 792.712h-110.05v-.352h110.05v.352z" fill="#C0816D"/><path fill-rule="evenodd" clip-rule="evenodd" d="M39.923 798.46H-80.143v-11.848H39.923v11.848z" fill="#EEDCC0"/><path fill-rule="evenodd" clip-rule="evenodd" d="M39.922 798.462H28.188v-11.848h11.734v11.848z" fill="#DDBC8A"/><path fill-rule="evenodd" clip-rule="evenodd" d="M24.928 780.864h-93.48V543.441h93.48v237.423z" fill="#C0816D"/><path fill-rule="evenodd" clip-rule="evenodd" d="M29.936 786.612H-73.56V537.691H29.936v248.921zM19.92 775.114h-83.465V549.188H19.92v225.926z" fill="#EEDCC0"/><path fill-rule="evenodd" clip-rule="evenodd" d="M392.584 880.173H254.571V512.996h138.013v367.177z" fill="#FFF5E0"/><path fill-rule="evenodd" clip-rule="evenodd" d="M477.595 792.713V510.955c0-11.46-8.121-20.784-18.104-20.784-9.983 0-18.105 9.324-18.105 20.784v281.758h36.209z" fill="#C0816D"/><path fill-rule="evenodd" clip-rule="evenodd" d="M459.491 484.422c12.765 0 23.112 11.88 23.112 26.533v287.506h-46.224V510.955c0-14.653 10.348-26.533 23.112-26.533m0 11.498c-7.222 0-13.097 6.744-13.097 15.035v276.009h26.194V510.955c0-8.291-5.875-15.035-13.097-15.035" fill="#EEDCC0"/><path fill-rule="evenodd" clip-rule="evenodd" d="M205.77 792.713V510.955c0-11.46-8.121-20.784-18.104-20.784-9.983 0-18.105 9.324-18.105 20.784v281.758h36.209z" fill="#C0816D"/><path fill-rule="evenodd" clip-rule="evenodd" d="M187.666 484.422c12.764 0 23.112 11.88 23.112 26.533v287.506h-46.225V510.955c0-14.653 10.348-26.533 23.113-26.533m0 11.498c-7.222 0-13.097 6.744-13.097 15.035v276.009h26.193V510.955c0-8.291-5.875-15.035-13.096-15.035" fill="#EEDCC0"/><path fill-rule="evenodd" clip-rule="evenodd" d="M-183.068 425.943H4.985l-94.027-124.357-94.026 124.357z" fill="#FFF5E0"/><path d="M25.13 662.152h-95.09" stroke="#EEDCC0" stroke-width="9.1"/><path fill-rule="evenodd" clip-rule="evenodd" d="M276.159 329.659c0 30.066 21.23 54.439 47.419 54.439 26.189 0 47.42-24.373 47.42-54.439 0-30.065-21.231-54.437-47.42-54.437s-47.419 24.372-47.419 54.437" fill="#C0816D"/><path clip-rule="evenodd" d="M276.159 329.659c0 30.066 21.23 54.439 47.419 54.439 26.189 0 47.42-24.373 47.42-54.439 0-30.065-21.231-54.437-47.42-54.437s-47.419 24.372-47.419 54.437z" stroke="#EEDCC0" stroke-width="9.1"/><path d="M368.264 329.659h-89.716M323.578 275.222v108.875M476.212 552.319h-31.765M474.553 614.002h-28.446M474.553 675.685h-28.446M476.212 737.369h-31.765M204.257 552.319h-31.764M202.598 614.002h-28.446M202.598 675.685h-28.446M204.257 737.369h-31.764" stroke="#EEDCC0" stroke-width="9.1"/><path fill-rule="evenodd" clip-rule="evenodd" d="M361.096 732.662H286.01V649.81h75.086v82.852z" fill="#C0816D"/><path fill-rule="evenodd" clip-rule="evenodd" d="M364.562 736.642h-82.02V645.83h82.02v90.812zm-6.934-7.96h-68.152V653.79h68.152v74.892zM350.073 764.308h-52.991v-14.724h52.991v14.724z" fill="#EEDCC0"/><path fill-rule="evenodd" clip-rule="evenodd" d="M361.096 626.7H286.01v-82.851h75.086V626.7z" fill="#C0816D"/><path fill-rule="evenodd" clip-rule="evenodd" d="M364.562 630.68h-82.02v-90.811h82.02v90.811zm-6.934-7.96h-68.152v-74.891h68.152v74.891z" fill="#EEDCC0"/><path fill-rule="evenodd" clip-rule="evenodd" d="M370.33 701.796c0 4.202 2.967 7.609 6.628 7.609 3.66 0 6.627-3.407 6.627-7.609 0-4.203-2.967-7.609-6.627-7.609-3.661 0-6.628 3.406-6.628 7.609" fill="#C0816D"/><path d="M561.252 430.365L342.225 141.062l-218.74 289.303M6.624 425.94l-95.73-126.444-95.602 126.444" stroke="#EEDCC0" stroke-width="11.2" stroke-linejoin="bevel"/><path d="M117.268 444.741h412.618M529.887 428.531H117.268M529.887 460.951H117.268" stroke="#EEDCC0" stroke-width="4.9"/><path fill-rule="evenodd" clip-rule="evenodd" d="M351.11 876.109h-55.065v-60.232h55.065v60.232z" fill="#C0816D"/><path fill-rule="evenodd" clip-rule="evenodd" d="M338.512 818.327h-29.869v-4.898h29.869v4.898z" fill="#EEDCC0"/><path fill-rule="evenodd" clip-rule="evenodd" d="M642.03 889.049l300.253 1.578c17.139-21.775 57.047-76.304 40.981-92.414-10.568-10.597-42.244 23.509-50.796 13.275-8.552-10.227 47.61-73.986 33.35-82.972-25.133-15.835-105.998 97.813-116.435 88.666-10.974-9.618 40.595-76.448 22.425-83.528-21.156-8.24-77.172 93.959-93.354 83.528-8.479-5.47 7.981-38.789-4.254-44.482-21.296-9.923-56.832 86.313-71.94 77.739-7.145-4.062.892-17.967-9.82-21.427-13.093-4.221-39.465 40.293-50.41 60.037" fill="#B18F5A"/><path fill-rule="evenodd" clip-rule="evenodd" d="M827.902 835.338c-.519.655-11.627 26.209-10.306 50.431H778.48c-.746-13.24-9.144-32.189-9.144-32.189s17.225 6.974 28.868 26.894c0 0 8.812-35.937 29.698-45.136" fill="#E1DDBC"/><path fill-rule="evenodd" clip-rule="evenodd" d="M428 891.872L641.242 893c12.172-15.57 40.515-54.56 29.105-66.08-7.506-7.577-30.003 16.81-36.076 9.492-6.074-7.312 33.813-52.903 23.685-59.328-17.849-11.322-75.28 69.94-82.693 63.4-7.793-6.877 28.831-54.664 15.927-59.726-15.026-5.892-54.808 67.184-66.3 59.726-6.022-3.911 5.668-27.736-3.022-31.807-15.124-7.095-40.362 61.718-51.092 55.587-5.074-2.905.634-12.847-6.975-15.321-9.298-3.018-28.028 28.811-35.801 42.929" fill="#B18F5A"/><path fill-rule="evenodd" clip-rule="evenodd" d="M560 855c-.372.468-8.338 18.709-7.391 36h-28.052c-.535-9.451-6.557-22.978-6.557-22.978s12.353 4.978 20.702 19.198c0 0 6.32-25.653 21.298-32.22M604 864c.331.628 7.023 12.016 8.786 25.329l26.51 2.671c1.806-11.836 5.704-18.425 5.704-18.425s-11.132 3.178-17.074 12.473c0 0-6.887-14.299-23.926-22.048" fill="#E1DDBC"/><path fill-rule="evenodd" clip-rule="evenodd" d="M505 891.679L230.832 893c-15.65-18.232-52.091-63.887-37.421-77.375 9.651-8.873 38.575 19.683 46.384 11.114 7.809-8.563-43.474-61.946-30.453-69.47 22.949-13.258 96.789 81.896 106.319 74.238 10.021-8.053-37.068-64.008-20.477-69.936 19.319-6.899 70.468 78.669 85.244 69.936 7.742-4.58-7.288-32.477 3.885-37.244 19.445-8.308 51.894 72.268 65.689 65.089 6.524-3.401-.814-15.043 8.968-17.94 11.954-3.534 36.036 33.736 46.03 50.267" fill="#8E6D4E"/><path fill-rule="evenodd" clip-rule="evenodd" d="M335 849c.479.546 10.72 21.827 9.502 42h36.068c.687-11.027 8.43-26.808 8.43-26.808S373.118 870 362.383 886.59c0 0-8.125-29.929-27.383-37.59" fill="#9B836D"/><path fill-rule="evenodd" clip-rule="evenodd" d="M1061.16 164.816l411.57 1.051c2.1-36.865-8.09-65.617-22.41-68.062-34.98-5.98-36.19 27.229-54.41 26.34-28.9-1.403-23.43-53.084-56.13-59.204-32.71-6.114-33.42 30.144-64.27 29.453-30.85-.692-64.01-70.136-107.69-55.503-31.72 10.626-16.45 49.63-40.84 75.435-24.39 25.804-57.43-13.514-65.6 23.336-2.06 9.317-1.94 18.456-.22 27.154M775.266 242.852l192.697.874c.949-17.547-3.847-31.243-10.552-32.42-16.383-2.879-16.922 12.929-25.452 12.49-13.531-.695-11.018-25.291-26.336-28.234-15.317-2.941-15.619 14.319-30.063 13.962-14.444-.357-30.034-33.445-50.472-26.519-14.839 5.03-7.656 23.611-19.053 35.872-11.397 12.262-26.899-6.484-30.692 11.05-.958 4.433-.892 8.784-.077 12.925" fill="#E1DDBC"/><path fill-rule="evenodd" clip-rule="evenodd" d="M847 882H607c68.203-.289 86.565-52.549 86.565-117h66.868c0 64.451 18.363 116.711 86.567 117" fill="#B67224"/><path d="M574.5 818v53M574.5 774v25M574.5 674v85M603.5 767v90M849.5 728v110M603.5 723v25M582 562c-4.487 10.171-7 21.527-7 33.485V650M607 531c-5.179 4.021-9.885 8.729-14 14M727 650v-54.468C727 552.338 692.637 517 650.636 517h-.001A73.934 73.934 0 00618 524.579M879.5 755v116M879.5 674v47M822 759v46M879.5 625v28M632 757v29M866 550c8.183 12.755 13 28.288 13 45M727 650v-54.468C727 552.338 761.319 517 803.263 517c16.238 0 31.333 5.296 43.737 14.294M663 661v-20.886C663 623.551 649.759 610 633.576 610A28.611 28.611 0 00621 612.906M793 661v-20.886C793 623.551 806.442 610 822.87 610c6.361 0 12.273 2.03 17.13 5.48M642 565c-6.402.412-12.481 2.165-18 5" stroke="#796348" stroke-width="5.6"/><path d="M694 650v-34.781c0-21.679-13.397-40.259-32-47.219M769 585c8.795-12.124 22.767-20 38.424-20 10.239 0 19.755 3.368 27.576 9.087M759 650v-34.406c0-5.442.704-10.685 2-15.594M688 432c-10.975-8.912-23.599-14-37-14v0M727 610v-78.586c0-31.357-8.817-59.847-23-80.414M786 421c5.483-1.964 11.171-3 17-3M727 610v-78.814c0-43.97 17.123-82.314 42-101.186" stroke="#796348" stroke-width="5.6"/><path fill-rule="evenodd" clip-rule="evenodd" d="M846 704H608c0-29.822 23.955-54 53.502-54h130.995C822.046 650 846 674.178 846 704" fill="#CFBF95"/><path fill-rule="evenodd" clip-rule="evenodd" d="M632 704h190c0 33.689-27.197 61-60.749 61h-68.502C659.199 765 632 737.689 632 704" fill="#FFE7AA"/></g><defs><clipPath id="clip0"><path fill="#fff" d="M0 0h2950v880H0z"/></clipPath></defs></svg>