<svg width="2950" height="880" fill="none" xmlns="http://www.w3.org/2000/svg"><g opacity=".7" clip-path="url(#clip0)"><path fill="#fff" d="M0 0h2950v880H0z"/><path fill-rule="evenodd" clip-rule="evenodd" d="M2853.95 430.238h49.18v-76.556h-49.18v76.556z" fill="#D9D8D9"/><path fill-rule="evenodd" clip-rule="evenodd" d="M2822.14 430.238h41.15v-76.556h-41.15v76.556z" fill="#E5CEE6"/><path fill-rule="evenodd" clip-rule="evenodd" d="M2852.08 353.682h59.77v-11.351h-59.77v11.351z" fill="#D9D8D9"/><path fill-rule="evenodd" clip-rule="evenodd" d="M2813.43 353.682h53.39v-11.351h-53.39v11.351z" fill="#E5CEE6"/><path fill-rule="evenodd" clip-rule="evenodd" d="M2608.48 585.882h287.24l143.62-189.949H2752.1l-143.62 189.949z" fill="#D493CE"/><path fill-rule="evenodd" clip-rule="evenodd" d="M3183.15 585.882H2895.9l-143.61-189.949h287.23l143.63 189.949z" fill="#D493CE"/><path d="M2937.85 395.933l143.62 189.949M2899.91 395.933l143.63 189.949M2861.98 395.933l143.62 189.949M2786.1 395.933l143.63 189.949M2824.04 395.933l143.62 189.949" stroke="#E5CEE6" stroke-width="9.1"/><path fill-rule="evenodd" clip-rule="evenodd" d="M2629.07 886.981h270.92V585.88h-270.92v301.101zM2899.99 585.88h-270.92l135.46-179.153 135.46 179.153z" fill="#E5CEE6"/><path fill-rule="evenodd" clip-rule="evenodd" d="M2679.34 624.278c-8.38 0-15.18 7.8-15.18 17.421v188.769h30.35V641.699c0-9.621-6.79-17.421-15.17-17.421M2857.81 624.278c-8.38 0-15.17 7.8-15.17 17.421v188.769h30.35V641.699c0-9.621-6.8-17.421-15.18-17.421M2899.99 886.981h270.91V585.88h-270.91v301.101zM2719.22 884.118h90.62V643.039h-90.62v241.079z" fill="#D9D8D9"/><path fill-rule="evenodd" clip-rule="evenodd" d="M2663.41 826.695V641.7c0-7.524 5.33-13.646 11.88-13.646 6.56 0 11.89 6.122 11.89 13.646v184.995h-23.77z" fill="#D493CE"/><path fill-rule="evenodd" clip-rule="evenodd" d="M2675.29 624.278c-8.38 0-15.17 7.8-15.17 17.421v188.769h30.35V641.699c0-9.621-6.8-17.421-15.18-17.421m0 7.548c4.74 0 8.6 4.428 8.6 9.872v181.22h-17.2v-181.22c0-5.444 3.86-9.872 8.6-9.872" fill="#A572A0"/><path fill-rule="evenodd" clip-rule="evenodd" d="M2841.88 826.695V641.7c0-7.524 5.33-13.646 11.89-13.646 6.55 0 11.88 6.122 11.88 13.646v184.995h-23.77z" fill="#D493CE"/><path fill-rule="evenodd" clip-rule="evenodd" d="M2853.77 624.278c-8.39 0-15.18 7.8-15.18 17.421v188.769h30.35V641.699c0-9.621-6.79-17.421-15.17-17.421m0 7.548c4.74 0 8.6 4.428 8.6 9.872v181.22h-17.2v-181.22c0-5.444 3.85-9.872 8.6-9.872" fill="#A572A0"/><path fill-rule="evenodd" clip-rule="evenodd" d="M2795.66 522.666c0 19.74-13.94 35.743-31.13 35.743-17.2 0-31.14-16.003-31.14-35.743 0-19.74 13.94-35.742 31.14-35.742 17.19 0 31.13 16.002 31.13 35.742" fill="#D493CE"/><path clip-rule="evenodd" d="M2795.66 522.666c0 19.74-13.94 35.743-31.13 35.743-17.2 0-31.14-16.003-31.14-35.743 0-19.74 13.94-35.742 31.14-35.742 17.19 0 31.13 16.002 31.13 35.742z" stroke="#A572A0" stroke-width="9.1"/><path d="M2735.19 522.665h58.9M2764.53 486.922v71.485M2664.31 668.858h20.86M2665.4 709.357h18.68M2665.4 749.857h18.68M2664.31 790.357h20.86M2842.87 668.858h20.86M2843.96 709.357h18.68M2843.96 749.857h18.68M2842.87 790.357h20.86" stroke="#A572A0" stroke-width="9.1"/><path fill-rule="evenodd" clip-rule="evenodd" d="M2739.9 787.266h49.3v-54.398h-49.3v54.398z" fill="#D493CE"/><path fill-rule="evenodd" clip-rule="evenodd" d="M2737.62 789.88h53.85v-59.625h-53.85v59.625zm4.55-5.225h44.75v-49.173h-44.75v49.173zM2747.13 808.044h34.8v-9.668h-34.8v9.668z" fill="#A572A0"/><path fill-rule="evenodd" clip-rule="evenodd" d="M2739.9 717.695h49.3v-54.398h-49.3v54.398z" fill="#D493CE"/><path fill-rule="evenodd" clip-rule="evenodd" d="M2737.62 720.307h53.85v-59.624h-53.85v59.624zm4.55-5.225h44.75v-49.171h-44.75v49.171z" fill="#A572A0"/><path fill-rule="evenodd" clip-rule="evenodd" d="M2733.83 767c0 2.759-1.95 4.996-4.35 4.996-2.4 0-4.35-2.237-4.35-4.996 0-2.759 1.95-4.995 4.35-4.995 2.4 0 4.35 2.236 4.35 4.995" fill="#D493CE"/><path d="M2608.48 588.786l143.81-189.949 143.61 189.949" stroke="#A572A0" stroke-width="11.2" stroke-linejoin="bevel"/><path d="M2899.99 598.224h-270.92M2629.07 587.582h270.92M2629.07 608.868h270.92" stroke="#A572A0" stroke-width="4.9"/><path fill-rule="evenodd" clip-rule="evenodd" d="M2746.45 881.45h36.16v-39.547h-36.16v39.547z" fill="#D493CE"/><path fill-rule="evenodd" clip-rule="evenodd" d="M2754.72 843.511h19.62v-3.216h-19.62v3.216z" fill="#A572A0"/><path fill-rule="evenodd" clip-rule="evenodd" d="M2872.33 130.794h30.84V82.782h-30.84v48.012z" fill="#F2E5F2"/><path fill-rule="evenodd" clip-rule="evenodd" d="M2852.38 130.794h25.8V82.782h-25.8v48.012z" fill="#EDDFED"/><path fill-rule="evenodd" clip-rule="evenodd" d="M2871.16 82.782h37.48v-7.12h-37.48v7.12z" fill="#F2E5F2"/><path fill-rule="evenodd" clip-rule="evenodd" d="M2846.91 82.782h33.49v-7.12h-33.49v7.12z" fill="#EDDFED"/><path fill-rule="evenodd" clip-rule="evenodd" d="M2718.38 228.407h180.14l90.08-119.127h-180.15l-90.07 119.127z" fill="#D6A8D1"/><path fill-rule="evenodd" clip-rule="evenodd" d="M3078.78 228.407h-180.14l-90.07-119.127h180.14l90.07 119.127z" fill="#D6A8D1"/><path d="M2948.74 109.28l90.07 119.127M2924.95 109.28l90.07 119.127M2901.15 109.28l90.08 119.127M2877.36 109.28l90.08 119.127M2829.78 109.28l90.07 119.127M2853.57 109.28l90.07 119.127" stroke="#EDDFED" stroke-width="9.1"/><path fill-rule="evenodd" clip-rule="evenodd" d="M2731.29 417.243h169.91V228.406h-169.91v188.837zM2901.2 228.406h-169.91l84.96-112.357 84.95 112.357z" fill="#EDDFED"/><path fill-rule="evenodd" clip-rule="evenodd" d="M2762.82 252.488c-5.26 0-9.52 4.891-9.52 10.925v118.388h19.04V263.413c0-6.034-4.27-10.925-9.52-10.925M2874.75 252.488c-5.26 0-9.52 4.891-9.52 10.925v118.388h19.04V263.413c0-6.034-4.26-10.925-9.52-10.925M2901.2 417.243h169.91V228.406H2901.2v188.837z" fill="#F2E5F2"/><path fill-rule="evenodd" clip-rule="evenodd" d="M2934.84 376.922h42.62V274.423h-42.62v102.499z" fill="#EDDFED"/><path fill-rule="evenodd" clip-rule="evenodd" d="M2935.11 379.434h45.32v-.145h-45.32v.145z" fill="#D6A8D1"/><path fill-rule="evenodd" clip-rule="evenodd" d="M2933.05 381.801h49.44v-4.879h-49.44v4.879z" fill="#BE9BBB"/><path fill-rule="evenodd" clip-rule="evenodd" d="M2933.05 381.801h4.83v-4.879h-4.83v4.879z" fill="#EDDFED"/><path fill-rule="evenodd" clip-rule="evenodd" d="M2939.22 374.555h38.5V276.79h-38.5v97.765z" fill="#D6A8D1"/><path fill-rule="evenodd" clip-rule="evenodd" d="M2937.16 376.922h42.62V274.423h-42.62v102.499zm4.12-4.735h34.37v-93.031h-34.37v93.031z" fill="#BE9BBB"/><path fill-rule="evenodd" clip-rule="evenodd" d="M2787.83 415.448h56.83V264.254h-56.83v151.194z" fill="#F2E5F2"/><path fill-rule="evenodd" clip-rule="evenodd" d="M2752.83 379.435V263.414c0-4.719 3.34-8.558 7.45-8.558s7.46 3.839 7.46 8.558v116.021h-14.91z" fill="#D6A8D1"/><path fill-rule="evenodd" clip-rule="evenodd" d="M2760.28 252.488c-5.26 0-9.52 4.891-9.52 10.925v118.388h19.04V263.413c0-6.034-4.26-10.925-9.52-10.925m0 4.734c2.97 0 5.39 2.777 5.39 6.191v113.653h-10.78V263.413c0-3.414 2.42-6.191 5.39-6.191" fill="#BE9BBB"/><path fill-rule="evenodd" clip-rule="evenodd" d="M2864.76 379.435V263.414c0-4.719 3.34-8.558 7.45-8.558s7.46 3.839 7.46 8.558v116.021h-14.91z" fill="#D6A8D1"/><path fill-rule="evenodd" clip-rule="evenodd" d="M2872.21 252.488c-5.25 0-9.52 4.891-9.52 10.925v118.388h19.04V263.413c0-6.034-4.26-10.925-9.52-10.925m0 4.734c2.98 0 5.39 2.777 5.39 6.191v113.653h-10.78V263.413c0-3.414 2.42-6.191 5.39-6.191" fill="#BE9BBB"/><path fill-rule="evenodd" clip-rule="evenodd" d="M3024.87 228.408h-77.43l38.71-51.207 38.72 51.207z" fill="#F2E5F2"/><path d="M2939.14 325.672h39.16" stroke="#BE9BBB" stroke-width="9.1"/><path fill-rule="evenodd" clip-rule="evenodd" d="M2835.77 188.761c0 12.38-8.74 22.416-19.52 22.416-10.79 0-19.53-10.036-19.53-22.416s8.74-22.416 19.53-22.416c10.78 0 19.52 10.036 19.52 22.416" fill="#D6A8D1"/><path clip-rule="evenodd" d="M2835.77 188.761c0 12.38-8.74 22.416-19.52 22.416-10.79 0-19.53-10.036-19.53-22.416s8.74-22.416 19.53-22.416c10.78 0 19.52 10.036 19.52 22.416z" stroke="#BE9BBB" stroke-width="9.1"/><path d="M2797.85 188.761h36.94M2816.25 166.344v44.832M2753.4 280.446h13.08M2754.08 305.845h11.71M2754.08 331.245h11.71M2753.4 356.645h13.08M2865.38 280.446h13.08M2866.06 305.845h11.72M2866.06 331.245h11.72M2865.38 356.645h13.08" stroke="#BE9BBB" stroke-width="9.1"/><path fill-rule="evenodd" clip-rule="evenodd" d="M2800.8 354.706h30.92V320.59h-30.92v34.116z" fill="#D6A8D1"/><path fill-rule="evenodd" clip-rule="evenodd" d="M2799.37 356.346h33.77v-37.394h-33.77v37.394zm2.86-3.278h28.06V322.23h-28.06v30.838zM2805.34 367.738h21.82v-6.063h-21.82v6.063z" fill="#BE9BBB"/><path fill-rule="evenodd" clip-rule="evenodd" d="M2800.8 311.074h30.92v-34.116h-30.92v34.116z" fill="#D6A8D1"/><path fill-rule="evenodd" clip-rule="evenodd" d="M2799.37 312.713h33.77v-37.394h-33.77v37.394zm2.86-3.278h28.06v-30.838h-28.06v30.838z" fill="#BE9BBB"/><path fill-rule="evenodd" clip-rule="evenodd" d="M2797 341.997c0 1.73-1.23 3.133-2.73 3.133-1.51 0-2.73-1.403-2.73-3.133 0-1.731 1.22-3.133 2.73-3.133 1.5 0 2.73 1.402 2.73 3.133" fill="#D6A8D1"/><path d="M2718.38 230.229l90.19-119.128 90.07 119.128M2946.76 228.406l39.42-52.066 39.37 52.066" stroke="#BE9BBB" stroke-width="11.2" stroke-linejoin="bevel"/><path d="M2901.2 236.148h-169.91M2731.29 229.473h169.91M2731.29 242.823h169.91" stroke="#BE9BBB" stroke-width="4.9"/><path fill-rule="evenodd" clip-rule="evenodd" d="M2804.91 413.775h22.67v-24.802h-22.67v24.802z" fill="#D6A8D1"/><path fill-rule="evenodd" clip-rule="evenodd" d="M2810.1 389.981h12.3v-2.017h-12.3v2.017z" fill="#BE9BBB"/><path fill-rule="evenodd" clip-rule="evenodd" d="M2585.46 112.208h30.84V64.196h-30.84v48.012z" fill="#EFEAEF"/><path fill-rule="evenodd" clip-rule="evenodd" d="M2565.51 112.208h25.8V64.196h-25.8v48.012z" fill="#E5D9E6"/><path fill-rule="evenodd" clip-rule="evenodd" d="M2584.28 64.196h37.49v-7.12h-37.49v7.12z" fill="#EFEAEF"/><path fill-rule="evenodd" clip-rule="evenodd" d="M2560.04 64.196h33.49v-7.12h-33.49v7.12z" fill="#E5D9E6"/><path fill-rule="evenodd" clip-rule="evenodd" d="M2431.51 209.821h180.14l90.07-119.127h-180.14l-90.07 119.127z" fill="#D9ACD4"/><path fill-rule="evenodd" clip-rule="evenodd" d="M2791.91 209.821h-180.14L2521.7 90.694h180.14l90.07 119.127z" fill="#D9ACD4"/><path d="M2685.66 90.694l90.08 119.127M2661.87 90.694l90.07 119.127M2638.08 90.694l90.07 119.127M2614.28 90.694l90.08 119.127M2590.49 90.694l90.07 119.127M2542.91 90.694l90.07 119.127M2566.7 90.694l90.07 119.127" stroke="#E5D9E6" stroke-width="9.1"/><path fill-rule="evenodd" clip-rule="evenodd" d="M2444.42 398.657h169.91V209.82h-169.91v188.837zM2614.33 209.82h-169.91l84.96-112.357 84.95 112.357z" fill="#E5D9E6"/><path fill-rule="evenodd" clip-rule="evenodd" d="M2475.95 233.902c-5.26 0-9.52 4.891-9.52 10.925v118.388h19.04V244.827c0-6.034-4.27-10.925-9.52-10.925M2587.88 233.902c-5.26 0-9.52 4.891-9.52 10.925v118.388h19.04V244.827c0-6.034-4.26-10.925-9.52-10.925M2614.33 398.657h169.91V209.82h-169.91v188.837z" fill="#EFEAEF"/><path fill-rule="evenodd" clip-rule="evenodd" d="M2647.97 358.336h42.61V255.837h-42.61v102.499z" fill="#E5D9E6"/><path fill-rule="evenodd" clip-rule="evenodd" d="M2648.24 360.848h45.32v-.145h-45.32v.145z" fill="#D9ACD4"/><path fill-rule="evenodd" clip-rule="evenodd" d="M2646.18 363.215h49.44v-4.879h-49.44v4.879z" fill="#B18FAE"/><path fill-rule="evenodd" clip-rule="evenodd" d="M2646.18 363.216h4.83v-4.879h-4.83v4.879z" fill="#E5D9E6"/><path fill-rule="evenodd" clip-rule="evenodd" d="M2708.85 360.848h45.32v-.145h-45.32v.145z" fill="#D9ACD4"/><path fill-rule="evenodd" clip-rule="evenodd" d="M2706.79 363.215h49.44v-4.879h-49.44v4.879z" fill="#B18FAE"/><path fill-rule="evenodd" clip-rule="evenodd" d="M2706.79 363.216h4.83v-4.879h-4.83v4.879zM2707.88 358.336h42.61V255.837h-42.61v102.499z" fill="#E5D9E6"/><path fill-rule="evenodd" clip-rule="evenodd" d="M2652.35 355.969h38.5v-97.765h-38.5v97.765z" fill="#D9ACD4"/><path fill-rule="evenodd" clip-rule="evenodd" d="M2650.29 358.336h42.62V255.837h-42.62v102.499zm4.12-4.735h34.37v-93.03h-34.37v93.03z" fill="#B18FAE"/><path fill-rule="evenodd" clip-rule="evenodd" d="M2500.96 396.862h56.83V245.668h-56.83v151.194z" fill="#EFEAEF"/><path fill-rule="evenodd" clip-rule="evenodd" d="M2465.96 360.849V244.828c0-4.719 3.34-8.558 7.45-8.558s7.46 3.839 7.46 8.558v116.021h-14.91z" fill="#D9ACD4"/><path fill-rule="evenodd" clip-rule="evenodd" d="M2473.41 233.902c-5.26 0-9.52 4.891-9.52 10.925v118.388h19.04V244.827c0-6.034-4.26-10.925-9.52-10.925m0 4.734c2.97 0 5.39 2.777 5.39 6.191V358.48h-10.78V244.827c0-3.414 2.42-6.191 5.39-6.191" fill="#B18FAE"/><path fill-rule="evenodd" clip-rule="evenodd" d="M2577.89 360.849V244.828c0-4.719 3.34-8.558 7.45-8.558s7.46 3.839 7.46 8.558v116.021h-14.91z" fill="#D9ACD4"/><path fill-rule="evenodd" clip-rule="evenodd" d="M2585.34 233.902c-5.25 0-9.52 4.891-9.52 10.925v118.388h19.04V244.827c0-6.034-4.26-10.925-9.52-10.925m0 4.734c2.98 0 5.39 2.777 5.39 6.191V358.48h-10.78V244.827c0-3.414 2.42-6.191 5.39-6.191" fill="#B18FAE"/><path fill-rule="evenodd" clip-rule="evenodd" d="M2712.26 355.969h38.5v-97.765h-38.5v97.765z" fill="#D9ACD4"/><path fill-rule="evenodd" clip-rule="evenodd" d="M2710.2 358.336h42.62V255.837h-42.62v102.499zm4.12-4.735h34.37v-93.03h-34.37v93.03z" fill="#B18FAE"/><path fill-rule="evenodd" clip-rule="evenodd" d="M2738 209.822h-77.44l38.72-51.207 38.72 51.207z" fill="#EFEAEF"/><path fill-rule="evenodd" clip-rule="evenodd" d="M2718.22 217.318c0 12.006-8.48 21.739-18.94 21.739s-18.93-9.733-18.93-21.739 8.47-21.739 18.93-21.739c10.46 0 18.94 9.733 18.94 21.739" fill="#D9ACD4"/><path clip-rule="evenodd" d="M2718.22 217.318c0 12.006-8.48 21.739-18.94 21.739s-18.93-9.733-18.93-21.739 8.47-21.739 18.93-21.739c10.46 0 18.94 9.733 18.94 21.739z" stroke="#B18FAE" stroke-width="9.1"/><path d="M2652.27 307.086h39.15M2671.6 259.073v48.455M2731.51 258.431v97.873M2712.15 307.086h38.84M2682.15 217.317h35.82M2699.28 195.579v43.478" stroke="#B18FAE" stroke-width="9.1"/><path fill-rule="evenodd" clip-rule="evenodd" d="M2548.9 170.175c0 12.38-8.74 22.416-19.52 22.416-10.79 0-19.53-10.036-19.53-22.416s8.74-22.416 19.53-22.416c10.78 0 19.52 10.036 19.52 22.416" fill="#D9ACD4"/><path clip-rule="evenodd" d="M2548.9 170.175c0 12.38-8.74 22.416-19.52 22.416-10.79 0-19.53-10.036-19.53-22.416s8.74-22.416 19.53-22.416c10.78 0 19.52 10.036 19.52 22.416z" stroke="#B18FAE" stroke-width="9.1"/><path d="M2510.98 170.175h36.94M2529.38 147.758v44.833M2466.53 261.86h13.08M2467.21 287.259h11.71M2467.21 312.659h11.71M2466.53 338.059h13.08M2578.51 261.86h13.08M2579.19 287.259h11.72M2579.19 312.659h11.72M2578.51 338.059h13.08" stroke="#B18FAE" stroke-width="9.1"/><path fill-rule="evenodd" clip-rule="evenodd" d="M2513.93 336.121h30.92v-34.117h-30.92v34.117z" fill="#D9ACD4"/><path fill-rule="evenodd" clip-rule="evenodd" d="M2512.5 337.76h33.77v-37.394h-33.77v37.394zm2.86-3.278h28.06v-30.838h-28.06v30.838zM2518.47 349.152h21.82v-6.063h-21.82v6.063z" fill="#B18FAE"/><path fill-rule="evenodd" clip-rule="evenodd" d="M2513.93 292.488h30.92v-34.116h-30.92v34.116z" fill="#D9ACD4"/><path fill-rule="evenodd" clip-rule="evenodd" d="M2512.5 294.127h33.77v-37.394h-33.77v37.394zm2.86-3.278h28.06v-30.838h-28.06v30.838z" fill="#B18FAE"/><path fill-rule="evenodd" clip-rule="evenodd" d="M2510.12 323.411c0 1.73-1.22 3.133-2.72 3.133-1.51 0-2.73-1.403-2.73-3.133 0-1.731 1.22-3.133 2.73-3.133 1.5 0 2.72 1.402 2.72 3.133" fill="#D9ACD4"/><path d="M2431.51 211.643l90.19-119.128 90.07 119.128M2659.89 209.82l39.42-52.066 39.37 52.066" stroke="#B18FAE" stroke-width="11.2" stroke-linejoin="bevel"/><path d="M2614.33 217.562h-169.91M2444.42 210.888h169.91M2444.42 224.237h169.91" stroke="#B18FAE" stroke-width="4.9"/><path fill-rule="evenodd" clip-rule="evenodd" d="M2518.04 395.189h22.67v-24.802h-22.67v24.802z" fill="#D9ACD4"/><path fill-rule="evenodd" clip-rule="evenodd" d="M2523.23 371.395h12.3v-2.017h-12.3v2.017z" fill="#B18FAE"/><path fill-rule="evenodd" clip-rule="evenodd" d="M2330.91 241.502h30.85v-48.013h-30.85v48.013z" fill="#EFEAEF"/><path fill-rule="evenodd" clip-rule="evenodd" d="M2310.96 241.502h25.81v-48.013h-25.81v48.013z" fill="#E5D9E6"/><path fill-rule="evenodd" clip-rule="evenodd" d="M2329.74 193.49h37.48v-7.12h-37.48v7.12z" fill="#EFEAEF"/><path fill-rule="evenodd" clip-rule="evenodd" d="M2305.5 193.49h33.48v-7.12h-33.48v7.12z" fill="#E5D9E6"/><path fill-rule="evenodd" clip-rule="evenodd" d="M2176.96 339.115h180.15l90.07-119.128h-180.14l-90.08 119.128z" fill="#D9ACD4"/><path fill-rule="evenodd" clip-rule="evenodd" d="M2537.37 339.115h-180.15l-90.07-119.128h180.14l90.08 119.128z" fill="#D9ACD4"/><path d="M2431.11 219.987l90.08 119.128M2407.32 219.987l90.08 119.128M2383.53 219.987l90.07 119.128M2359.74 219.987l90.07 119.128M2335.94 219.987l90.08 119.128M2288.36 219.987l90.07 119.128M2312.15 219.987l90.08 119.128" stroke="#E5D9E6" stroke-width="9.1"/><path fill-rule="evenodd" clip-rule="evenodd" d="M2189.88 527.951h169.9V339.114h-169.9v188.837zM2359.78 339.114h-169.9l84.95-112.357 84.95 112.357z" fill="#E5D9E6"/><path fill-rule="evenodd" clip-rule="evenodd" d="M2221.4 363.195c-5.25 0-9.52 4.892-9.52 10.926v118.388h19.04V374.121c0-6.034-4.26-10.926-9.52-10.926M2333.33 363.195c-5.25 0-9.51 4.892-9.51 10.926v118.388h19.03V374.121c0-6.034-4.26-10.926-9.52-10.926M2359.78 527.951h169.91V339.114h-169.91v188.837z" fill="#EFEAEF"/><path fill-rule="evenodd" clip-rule="evenodd" d="M2393.42 487.63h42.62v-102.5h-42.62v102.5z" fill="#E5D9E6"/><path fill-rule="evenodd" clip-rule="evenodd" d="M2393.69 490.142h45.32v-.145h-45.32v.145z" fill="#D9ACD4"/><path fill-rule="evenodd" clip-rule="evenodd" d="M2391.63 492.508h49.44v-4.878h-49.44v4.878z" fill="#B18FAE"/><path fill-rule="evenodd" clip-rule="evenodd" d="M2391.63 492.509h4.83v-4.879h-4.83v4.879z" fill="#E5D9E6"/><path fill-rule="evenodd" clip-rule="evenodd" d="M2454.3 490.142h45.32v-.145h-45.32v.145z" fill="#D9ACD4"/><path fill-rule="evenodd" clip-rule="evenodd" d="M2452.24 492.508h49.44v-4.878h-49.44v4.878z" fill="#B18FAE"/><path fill-rule="evenodd" clip-rule="evenodd" d="M2452.24 492.509h4.83v-4.879h-4.83v4.879zM2453.33 487.63h42.62v-102.5h-42.62v102.5z" fill="#E5D9E6"/><path fill-rule="evenodd" clip-rule="evenodd" d="M2397.81 485.263h38.49v-97.765h-38.49v97.765z" fill="#D9ACD4"/><path fill-rule="evenodd" clip-rule="evenodd" d="M2395.74 487.63h42.62v-102.5h-42.62v102.5zm4.13-4.736h34.37v-93.03h-34.37v93.03z" fill="#B18FAE"/><path fill-rule="evenodd" clip-rule="evenodd" d="M2246.41 526.156h56.83V374.961h-56.83v151.195z" fill="#EFEAEF"/><path fill-rule="evenodd" clip-rule="evenodd" d="M2211.41 490.142v-116.02c0-4.719 3.34-8.558 7.45-8.558s7.46 3.839 7.46 8.558v116.02h-14.91z" fill="#D9ACD4"/><path fill-rule="evenodd" clip-rule="evenodd" d="M2218.86 363.195c-5.25 0-9.51 4.892-9.51 10.926v118.388h19.03V374.121c0-6.034-4.26-10.926-9.52-10.926m0 4.734c2.98 0 5.4 2.778 5.4 6.192v113.653h-10.79V374.121c0-3.414 2.42-6.192 5.39-6.192" fill="#B18FAE"/><path fill-rule="evenodd" clip-rule="evenodd" d="M2323.34 490.142v-116.02c0-4.719 3.34-8.558 7.45-8.558 4.12 0 7.46 3.839 7.46 8.558v116.02h-14.91z" fill="#D9ACD4"/><path fill-rule="evenodd" clip-rule="evenodd" d="M2330.79 363.195c-5.25 0-9.51 4.892-9.51 10.926v118.388h19.03V374.121c0-6.034-4.26-10.926-9.52-10.926m0 4.734c2.98 0 5.4 2.778 5.4 6.192v113.653h-10.79V374.121c0-3.414 2.42-6.192 5.39-6.192" fill="#B18FAE"/><path fill-rule="evenodd" clip-rule="evenodd" d="M2457.72 485.263h38.49v-97.765h-38.49v97.765z" fill="#D9ACD4"/><path fill-rule="evenodd" clip-rule="evenodd" d="M2455.65 487.63h42.62v-102.5h-42.62v102.5zm4.13-4.736h34.37v-93.03h-34.37v93.03z" fill="#B18FAE"/><path fill-rule="evenodd" clip-rule="evenodd" d="M2483.45 339.115h-77.43l38.72-51.207 38.71 51.207z" fill="#EFEAEF"/><path fill-rule="evenodd" clip-rule="evenodd" d="M2463.67 346.612c0 12.006-8.48 21.738-18.93 21.738-10.46 0-18.94-9.732-18.94-21.738s8.48-21.739 18.94-21.739c10.45 0 18.93 9.733 18.93 21.739" fill="#D9ACD4"/><path clip-rule="evenodd" d="M2463.67 346.612c0 12.006-8.48 21.738-18.93 21.738-10.46 0-18.94-9.732-18.94-21.738s8.48-21.739 18.94-21.739c10.45 0 18.93 9.733 18.93 21.739z" stroke="#B18FAE" stroke-width="9.1"/><path d="M2397.72 436.38h39.16M2417.05 388.367v48.455M2476.96 387.725v97.873M2457.61 436.38h38.83M2427.6 346.611h35.83M2444.74 324.873v43.477" stroke="#B18FAE" stroke-width="9.1"/><path fill-rule="evenodd" clip-rule="evenodd" d="M2294.36 299.469c0 12.38-8.75 22.416-19.53 22.416-10.78 0-19.53-10.036-19.53-22.416s8.75-22.416 19.53-22.416c10.78 0 19.53 10.036 19.53 22.416" fill="#D9ACD4"/><path clip-rule="evenodd" d="M2294.36 299.469c0 12.38-8.75 22.416-19.53 22.416-10.78 0-19.53-10.036-19.53-22.416s8.75-22.416 19.53-22.416c10.78 0 19.53 10.036 19.53 22.416z" stroke="#B18FAE" stroke-width="9.1"/><path d="M2256.43 299.468h36.94M2274.83 277.052v44.832M2211.98 391.154h13.08M2212.66 416.553h11.71M2212.66 441.953h11.71M2211.98 467.353h13.08M2323.96 391.154h13.08M2324.65 416.553h11.71M2324.65 441.953h11.71M2323.96 467.353h13.08" stroke="#B18FAE" stroke-width="9.1"/><path fill-rule="evenodd" clip-rule="evenodd" d="M2259.38 465.414h30.92v-34.116h-30.92v34.116z" fill="#D9ACD4"/><path fill-rule="evenodd" clip-rule="evenodd" d="M2257.95 467.054h33.78V429.66h-33.78v37.394zm2.86-3.277h28.06v-30.839h-28.06v30.839zM2263.92 478.445h21.82v-6.063h-21.82v6.063z" fill="#B18FAE"/><path fill-rule="evenodd" clip-rule="evenodd" d="M2259.38 421.782h30.92v-34.116h-30.92v34.116z" fill="#D9ACD4"/><path fill-rule="evenodd" clip-rule="evenodd" d="M2257.95 423.421h33.78v-37.394h-33.78v37.394zm2.86-3.278h28.06v-30.838h-28.06v30.838z" fill="#B18FAE"/><path fill-rule="evenodd" clip-rule="evenodd" d="M2255.58 452.704c0 1.731-1.22 3.133-2.73 3.133s-2.73-1.402-2.73-3.133c0-1.73 1.22-3.133 2.73-3.133s2.73 1.403 2.73 3.133" fill="#D9ACD4"/><path d="M2176.96 340.936l90.19-119.127 90.07 119.127M2405.34 339.114l39.42-52.067 39.37 52.067" stroke="#B18FAE" stroke-width="11.2" stroke-linejoin="bevel"/><path d="M2359.78 346.856h-169.9M2189.88 340.181h169.9M2189.88 353.53h169.9" stroke="#B18FAE" stroke-width="4.9"/><path fill-rule="evenodd" clip-rule="evenodd" d="M2263.49 524.483h22.68v-24.802h-22.68v24.802z" fill="#D9ACD4"/><path fill-rule="evenodd" clip-rule="evenodd" d="M2268.68 500.689h12.3v-2.017h-12.3v2.017z" fill="#B18FAE"/><path fill-rule="evenodd" clip-rule="evenodd" d="M2193.67 497.997h50.63v-67.302h-50.63v67.302z" fill="#D9D8D9"/><path fill-rule="evenodd" clip-rule="evenodd" d="M2160.93 497.997h42.36v-67.302h-42.36v67.302z" fill="#E5CEE6"/><path fill-rule="evenodd" clip-rule="evenodd" d="M2191.75 430.695h61.52v-9.98h-61.52v9.98z" fill="#D9D8D9"/><path fill-rule="evenodd" clip-rule="evenodd" d="M2151.96 430.695h54.96v-9.98h-54.96v9.98z" fill="#E5CEE6"/><path fill-rule="evenodd" clip-rule="evenodd" d="M1941 634.828h295.67l147.83-166.989h-295.66L1941 634.828z" fill="#D2AFCF"/><path fill-rule="evenodd" clip-rule="evenodd" d="M2532.53 634.828h-295.67l-147.83-166.989h295.66l147.84 166.989z" fill="#D2AFCF"/><path d="M2358.14 467.839l147.83 166.989M2319.09 467.839l147.83 166.989M2280.03 467.839l147.84 166.989M2240.98 467.839l147.84 166.989M2201.93 467.839l147.84 166.989M2123.83 467.839l147.84 166.989M2162.88 467.839l147.84 166.989" stroke="#E5CEE6" stroke-width="9.1"/><path fill-rule="evenodd" clip-rule="evenodd" d="M1962.2 899.533h278.86V634.827H1962.2v264.706zM2241.06 634.826H1962.2l139.43-157.499 139.43 157.499z" fill="#E5CEE6"/><path fill-rule="evenodd" clip-rule="evenodd" d="M2013.94 668.584c-8.63 0-15.62 6.857-15.62 15.315v165.952h31.24V683.899c0-8.458-6.99-15.315-15.62-15.315M2197.65 668.584c-8.63 0-15.62 6.857-15.62 15.315v165.952h31.24V683.899c0-8.458-7-15.315-15.62-15.315M2241.06 899.533h278.86V634.827h-278.86v264.706z" fill="#D9D8D9"/><path fill-rule="evenodd" clip-rule="evenodd" d="M2296.27 843.013h69.95V699.332h-69.95v143.681z" fill="#E5CEE6"/><path fill-rule="evenodd" clip-rule="evenodd" d="M2296.72 846.532h74.37v-.202h-74.37v.202z" fill="#D2AFCF"/><path fill-rule="evenodd" clip-rule="evenodd" d="M2293.33 849.85h81.15v-6.84h-81.15v6.84z" fill="#A572A0"/><path fill-rule="evenodd" clip-rule="evenodd" d="M2293.33 849.851h7.93v-6.839h-7.93v6.839z" fill="#E5CEE6"/><path fill-rule="evenodd" clip-rule="evenodd" d="M2396.2 846.532h74.37v-.202h-74.37v.202z" fill="#D2AFCF"/><path fill-rule="evenodd" clip-rule="evenodd" d="M2392.81 849.85h81.15v-6.84h-81.15v6.84z" fill="#A572A0"/><path fill-rule="evenodd" clip-rule="evenodd" d="M2392.81 849.851h7.93v-6.839h-7.93v6.839z" fill="#E5CEE6"/><path fill-rule="evenodd" clip-rule="evenodd" d="M2394.6 843.013h69.95V699.332h-69.95v143.681z" fill="#E5CEE6"/><path fill-rule="evenodd" clip-rule="evenodd" d="M2303.47 839.693h63.17V702.649h-63.17v137.044z" fill="#D2AFCF"/><path fill-rule="evenodd" clip-rule="evenodd" d="M2300.08 843.013h69.95V699.332h-69.95v143.681zm6.77-6.638h56.41V705.968h-56.41v130.407z" fill="#A572A0"/><path fill-rule="evenodd" clip-rule="evenodd" d="M2054.99 897.017h93.28v-211.94h-93.28v211.94z" fill="#D9D8D9"/><path fill-rule="evenodd" clip-rule="evenodd" d="M1997.54 846.533V683.899c0-6.615 5.49-11.997 12.23-11.997 6.75 0 12.24 5.382 12.24 11.997v162.634h-24.47z" fill="#D2AFCF"/><path fill-rule="evenodd" clip-rule="evenodd" d="M2009.77 668.584c-8.62 0-15.62 6.857-15.62 15.315v165.952h31.24V683.899c0-8.458-6.99-15.315-15.62-15.315m0 6.636c4.88 0 8.86 3.893 8.86 8.678v159.316h-17.71V683.898c0-4.785 3.97-8.678 8.85-8.678" fill="#A572A0"/><path fill-rule="evenodd" clip-rule="evenodd" d="M2181.25 846.533V683.899c0-6.615 5.49-11.997 12.23-11.997 6.75 0 12.24 5.382 12.24 11.997v162.634h-24.47z" fill="#D2AFCF"/><path fill-rule="evenodd" clip-rule="evenodd" d="M2193.48 668.584c-8.62 0-15.62 6.857-15.62 15.315v165.952h31.24V683.899c0-8.458-6.99-15.315-15.62-15.315m0 6.636c4.88 0 8.85 3.893 8.85 8.678v159.316h-17.7V683.898c0-4.785 3.97-8.678 8.85-8.678" fill="#A572A0"/><path fill-rule="evenodd" clip-rule="evenodd" d="M2401.8 839.693h63.17V702.649h-63.17v137.044z" fill="#D2AFCF"/><path fill-rule="evenodd" clip-rule="evenodd" d="M2398.41 843.013h69.95V699.332h-69.95v143.681zm6.77-6.638h56.41V705.968h-56.41v130.407z" fill="#A572A0"/><path fill-rule="evenodd" clip-rule="evenodd" d="M2444.04 634.829h-127.09l63.54-71.781 63.55 71.781z" fill="#D9D8D9"/><path fill-rule="evenodd" clip-rule="evenodd" d="M2411.57 645.336c0 16.83-13.91 30.473-31.08 30.473-17.16 0-31.08-13.643-31.08-30.473 0-16.829 13.92-30.472 31.08-30.472 17.17 0 31.08 13.643 31.08 30.472" fill="#D2AFCF"/><path clip-rule="evenodd" d="M2411.57 645.336c0 16.83-13.91 30.473-31.08 30.473-17.16 0-31.08-13.643-31.08-30.473 0-16.829 13.92-30.472 31.08-30.472 17.17 0 31.08 13.643 31.08 30.472z" stroke="#A572A0" stroke-width="9.1"/><path d="M2303.33 771.171h64.27M2335.06 703.867v67.923M2433.39 702.969v137.195M2401.62 771.171h63.74M2352.37 645.337h58.8M2380.49 614.864v60.945" stroke="#A572A0" stroke-width="9.1"/><path fill-rule="evenodd" clip-rule="evenodd" d="M2133.68 579.253c0 17.354-14.35 31.422-32.05 31.422-17.7 0-32.05-14.068-32.05-31.422s14.35-31.422 32.05-31.422c17.7 0 32.05 14.068 32.05 31.422" fill="#D2AFCF"/><path clip-rule="evenodd" d="M2133.68 579.253c0 17.354-14.35 31.422-32.05 31.422-17.7 0-32.05-14.068-32.05-31.422s14.35-31.422 32.05-31.422c17.7 0 32.05 14.068 32.05 31.422z" stroke="#A572A0" stroke-width="9.1"/><path d="M2071.43 579.252h60.63M2101.63 547.831v62.844M1998.47 707.775h21.47M1999.59 743.379h19.23M1999.59 778.984h19.23M1998.47 814.588h21.47M2182.27 707.775h21.47M2183.39 743.379h19.23M2183.39 778.984h19.23M2182.27 814.588h21.47" stroke="#A572A0" stroke-width="9.1"/><path fill-rule="evenodd" clip-rule="evenodd" d="M2076.27 811.871h50.75v-47.823h-50.75v47.823z" fill="#D2AFCF"/><path fill-rule="evenodd" clip-rule="evenodd" d="M2073.93 814.168h55.43V761.75h-55.43v52.418zm4.69-4.594h46.06v-43.228h-46.06v43.228zM2083.72 830.138h35.82v-8.499h-35.82v8.499z" fill="#A572A0"/><path fill-rule="evenodd" clip-rule="evenodd" d="M2076.27 750.709h50.75v-47.823h-50.75v47.823z" fill="#D2AFCF"/><path fill-rule="evenodd" clip-rule="evenodd" d="M2073.93 753.006h55.43v-52.417h-55.43v52.417zm4.69-4.595h46.06v-43.228h-46.06v43.228z" fill="#A572A0"/><path fill-rule="evenodd" clip-rule="evenodd" d="M2070.03 794.055c0 2.425-2 4.391-4.48 4.391-2.47 0-4.48-1.966-4.48-4.391 0-2.426 2.01-4.392 4.48-4.392 2.48 0 4.48 1.966 4.48 4.392" fill="#D2AFCF"/><path d="M1941 637.382l148.03-166.99 147.83 166.99M2315.84 634.827l64.69-72.985 64.62 72.985" stroke="#A572A0" stroke-width="11.2" stroke-linejoin="bevel"/><path d="M2241.06 645.679H1962.2M1962.2 636.322h278.86M1962.2 655.035h278.86" stroke="#A572A0" stroke-width="4.9"/><path fill-rule="evenodd" clip-rule="evenodd" d="M2083.02 894.671h37.22v-34.767h-37.22v34.767z" fill="#D2AFCF"/><path fill-rule="evenodd" clip-rule="evenodd" d="M2091.54 861.318h20.18v-2.828h-20.18v2.828z" fill="#A572A0"/><path fill-rule="evenodd" clip-rule="evenodd" d="M2651.62 328.503h-60.53v-94.222h60.53v94.222z" fill="#E8BFE6"/><path fill-rule="evenodd" clip-rule="evenodd" d="M2690.77 328.503h-50.65v-94.222h50.65v94.222z" fill="#E5CEE6"/><path fill-rule="evenodd" clip-rule="evenodd" d="M2653.92 234.281h-73.56V220.31h73.56v13.971z" fill="#E8BFE6"/><path fill-rule="evenodd" clip-rule="evenodd" d="M2701.49 234.281h-65.71V220.31h65.71v13.971z" fill="#E5CEE6"/><path fill-rule="evenodd" clip-rule="evenodd" d="M2953.74 520.064h-353.53l-176.76-233.782h353.52l176.77 233.782z" fill="#D493CE"/><path fill-rule="evenodd" clip-rule="evenodd" d="M2246.46 520.064h353.52l176.76-233.782h-353.52l-176.76 233.782z" fill="#D493CE"/><path d="M2454.97 286.282l-176.76 233.782M2501.67 286.282L2324.9 520.064M2548.36 286.282l-176.77 233.782M2595.05 286.282l-176.77 233.782M2641.74 286.282l-176.77 233.782M2735.12 286.282l-176.76 233.782M2688.43 286.282l-176.76 233.782" stroke="#E5CEE6" stroke-width="9.1"/><path fill-rule="evenodd" clip-rule="evenodd" d="M2928.39 890.644h-333.43V520.061h333.43v370.583zM2594.96 520.061h333.43l-166.72-220.495-166.71 220.495z" fill="#E5CEE6"/><path fill-rule="evenodd" clip-rule="evenodd" d="M2866.52 567.32c10.32 0 18.68 9.6 18.68 21.441V821.09h-37.35V588.761c0-11.841 8.36-21.441 18.67-21.441M2646.87 567.32c10.31 0 18.67 9.6 18.67 21.441V821.09h-37.35V588.761c0-11.841 8.36-21.441 18.68-21.441M2594.96 890.644h-333.43V520.061h333.43v370.583z" fill="#E8BFE6"/><path fill-rule="evenodd" clip-rule="evenodd" d="M2528.94 811.515h-83.63V610.366h83.63v201.149z" fill="#E5CEE6"/><path fill-rule="evenodd" clip-rule="evenodd" d="M2528.41 816.444h-88.93v-.283h88.93v.283z" fill="#D493CE"/><path fill-rule="evenodd" clip-rule="evenodd" d="M2532.46 821.09h-97.03v-9.575h97.03v9.575z" fill="#A572A0"/><path fill-rule="evenodd" clip-rule="evenodd" d="M2532.46 821.091h-9.49v-9.575h9.49v9.575z" fill="#E5CEE6"/><path fill-rule="evenodd" clip-rule="evenodd" d="M2409.46 816.444h-88.93v-.283h88.93v.283z" fill="#D493CE"/><path fill-rule="evenodd" clip-rule="evenodd" d="M2413.51 821.09h-97.02v-9.575h97.02v9.575z" fill="#A572A0"/><path fill-rule="evenodd" clip-rule="evenodd" d="M2413.51 821.091h-9.48v-9.575h9.48v9.575zM2411.37 811.515h-83.63V610.366h83.63v201.149z" fill="#E5CEE6"/><path fill-rule="evenodd" clip-rule="evenodd" d="M2520.34 806.87h-75.54V615.012h75.54V806.87z" fill="#D493CE"/><path fill-rule="evenodd" clip-rule="evenodd" d="M2524.39 811.515h-83.64V610.366h83.64v201.149zm-8.1-9.291h-67.44V619.657h67.44v182.567z" fill="#A572A0"/><path fill-rule="evenodd" clip-rule="evenodd" d="M2817.44 887.121h-111.53V590.41h111.53v296.711z" fill="#E8BFE6"/><path fill-rule="evenodd" clip-rule="evenodd" d="M2886.13 816.446V588.762c0-9.261-6.56-16.796-14.63-16.796-8.06 0-14.63 7.535-14.63 16.796v227.684h29.26z" fill="#D493CE"/><path fill-rule="evenodd" clip-rule="evenodd" d="M2871.5 567.32c10.32 0 18.68 9.6 18.68 21.441V821.09h-37.35V588.761c0-11.841 8.36-21.441 18.67-21.441m0 9.29c-5.83 0-10.58 5.45-10.58 12.15v223.039h21.17V588.76c0-6.7-4.75-12.15-10.59-12.15" fill="#A572A0"/><path fill-rule="evenodd" clip-rule="evenodd" d="M2666.48 816.446V588.762c0-9.261-6.57-16.796-14.63-16.796-8.07 0-14.63 7.535-14.63 16.796v227.684h29.26z" fill="#D493CE"/><path fill-rule="evenodd" clip-rule="evenodd" d="M2651.85 567.32c10.31 0 18.67 9.6 18.67 21.441V821.09h-37.35V588.761c0-11.841 8.36-21.441 18.68-21.441m0 9.29c-5.84 0-10.59 5.45-10.59 12.15v223.039h21.17V588.76c0-6.7-4.75-12.15-10.58-12.15" fill="#A572A0"/><path fill-rule="evenodd" clip-rule="evenodd" d="M2402.77 806.87h-75.54V615.012h75.54V806.87z" fill="#D493CE"/><path fill-rule="evenodd" clip-rule="evenodd" d="M2406.82 811.515h-83.64V610.366h83.64v201.149zm-8.1-9.291h-67.45V619.657h67.45v182.567z" fill="#A572A0"/><path fill-rule="evenodd" clip-rule="evenodd" d="M2352.26 520.064h151.96l-75.98-100.491-75.98 100.491z" fill="#E8BFE6"/><path fill-rule="evenodd" clip-rule="evenodd" d="M2391.08 534.775c0 23.561 16.64 42.661 37.16 42.661 20.53 0 37.16-19.1 37.16-42.661s-16.63-42.662-37.16-42.662c-20.52 0-37.16 19.101-37.16 42.662" fill="#D493CE"/><path clip-rule="evenodd" d="M2391.08 534.775c0 23.561 16.64 42.661 37.16 42.661 20.53 0 37.16-19.1 37.16-42.661s-16.63-42.662-37.16-42.662c-20.52 0-37.16 19.101-37.16 42.662z" stroke="#A572A0" stroke-width="9.1"/><path d="M2520.5 710.94h-76.84M2482.57 616.717v95.091M2365 615.458v192.069M2402.98 710.94h-76.21M2461.87 534.775h-70.31M2428.24 492.113v85.323" stroke="#A572A0" stroke-width="9.1"/><path fill-rule="evenodd" clip-rule="evenodd" d="M2723.36 442.259c0 24.295 17.15 43.991 38.31 43.991 21.17 0 38.32-19.696 38.32-43.991 0-24.295-17.15-43.99-38.32-43.99-21.16 0-38.31 19.695-38.31 43.99" fill="#D493CE"/><path clip-rule="evenodd" d="M2723.36 442.259c0 24.295 17.15 43.991 38.31 43.991 21.17 0 38.32-19.696 38.32-43.991 0-24.295-17.15-43.99-38.32-43.99-21.16 0-38.31 19.695-38.31 43.99z" stroke="#A572A0" stroke-width="9.1"/><path d="M2797.78 442.258h-72.49M2761.67 398.268v87.981M2885.02 622.187h-25.67M2883.67 672.032h-22.98M2883.67 721.877h-22.98M2885.02 771.723h-25.67M2665.25 622.187h-25.67M2663.91 672.032h-22.98M2663.91 721.877h-22.98M2665.25 771.723h-25.67" stroke="#A572A0" stroke-width="9.1"/><path fill-rule="evenodd" clip-rule="evenodd" d="M2791.99 767.919h-60.67v-66.952h60.67v66.952z" fill="#D493CE"/><path fill-rule="evenodd" clip-rule="evenodd" d="M2794.79 771.135h-66.28v-73.383h66.28v73.383zm-5.6-6.432h-55.07v-60.519h55.07v60.519zM2783.08 793.492h-42.82v-11.898h42.82v11.898z" fill="#A572A0"/><path fill-rule="evenodd" clip-rule="evenodd" d="M2791.99 682.293h-60.67v-66.951h60.67v66.951z" fill="#D493CE"/><path fill-rule="evenodd" clip-rule="evenodd" d="M2794.79 685.509h-66.28v-73.383h66.28v73.383zm-5.6-6.432h-55.07v-60.519h55.07v60.519z" fill="#A572A0"/><path fill-rule="evenodd" clip-rule="evenodd" d="M2799.45 742.977c0 3.395 2.4 6.148 5.36 6.148 2.96 0 5.35-2.753 5.35-6.148 0-3.396-2.39-6.149-5.35-6.149-2.96 0-5.36 2.753-5.36 6.149" fill="#D493CE"/><path d="M2953.74 523.638l-177-233.782-176.76 233.782M2505.55 520.061l-77.36-102.177-77.25 102.177" stroke="#A572A0" stroke-width="11.2" stroke-linejoin="bevel"/><path d="M2594.96 535.254h333.43M2928.39 522.155h-333.43M2928.39 548.353h-333.43" stroke="#A572A0" stroke-width="4.9"/><path fill-rule="evenodd" clip-rule="evenodd" d="M2783.92 883.837h-44.5v-48.673h44.5v48.673z" fill="#D493CE"/><path fill-rule="evenodd" clip-rule="evenodd" d="M2773.74 837.144h-24.13v-3.958h24.13v3.958z" fill="#A572A0"/><path fill-rule="evenodd" clip-rule="evenodd" d="M149.195 426.161h-49.182v-76.556h49.182v76.556z" fill="#D9D8D9"/><path fill-rule="evenodd" clip-rule="evenodd" d="M181.003 426.161h-41.146v-76.556h41.146v76.556z" fill="#E5CEE6"/><path fill-rule="evenodd" clip-rule="evenodd" d="M151.065 349.605H91.297v-11.351h59.768v11.351z" fill="#D9D8D9"/><path fill-rule="evenodd" clip-rule="evenodd" d="M189.719 349.605h-53.39v-11.351h53.39v11.351z" fill="#E5CEE6"/><path fill-rule="evenodd" clip-rule="evenodd" d="M394.667 581.805H107.426L-36.193 391.856h287.237l143.623 189.949z" fill="#D493CE"/><path fill-rule="evenodd" clip-rule="evenodd" d="M-180 581.805h287.242L250.86 391.856H-36.377L-180 581.805z" fill="#D493CE"/><path d="M27.358 391.856l-143.623 189.949M65.296 391.856L-78.328 581.805M103.233 391.856L-40.391 581.805M141.171 391.856L-2.453 581.805M217.045 391.856L73.421 581.805M179.108 391.856L35.484 581.805" stroke="#E5CEE6" stroke-width="9.1"/><path fill-rule="evenodd" clip-rule="evenodd" d="M374.074 882.903H103.159v-301.1h270.915v301.1zM103.159 581.803h270.915L238.617 402.65 103.159 581.803z" fill="#E5CEE6"/><path fill-rule="evenodd" clip-rule="evenodd" d="M323.807 620.201c8.382 0 15.175 7.8 15.175 17.421v188.769h-30.349V637.622c0-9.621 6.794-17.421 15.174-17.421M145.334 620.201c8.381 0 15.175 7.8 15.175 17.421v188.769h-30.35V637.622c0-9.621 6.794-17.421 15.175-17.421M103.159 882.903h-270.915v-301.1h270.915v301.1z" fill="#D9D8D9"/><path fill-rule="evenodd" clip-rule="evenodd" d="M49.523 818.611H-18.43V655.177h67.953v163.434z" fill="#E5CEE6"/><path fill-rule="evenodd" clip-rule="evenodd" d="M49.089 822.617h-72.257v-.23H49.09v.23z" fill="#D493CE"/><path fill-rule="evenodd" clip-rule="evenodd" d="M52.377 826.391h-78.833v-7.78h78.833v7.78z" fill="#A572A0"/><path fill-rule="evenodd" clip-rule="evenodd" d="M52.376 826.392h-7.704v-7.78h7.704v7.78z" fill="#E5CEE6"/><path fill-rule="evenodd" clip-rule="evenodd" d="M42.532 814.837h-61.378V658.951h61.377v155.886z" fill="#D493CE"/><path fill-rule="evenodd" clip-rule="evenodd" d="M45.82 818.611h-67.953V655.177h67.952v163.434zm-6.577-7.549h-54.8V662.725h54.8v148.337z" fill="#A572A0"/><path fill-rule="evenodd" clip-rule="evenodd" d="M283.925 880.041h-90.616V638.962h90.616v241.079z" fill="#D9D8D9"/><path fill-rule="evenodd" clip-rule="evenodd" d="M339.741 822.618V637.623c0-7.524-5.332-13.646-11.887-13.646-6.554 0-11.887 6.122-11.887 13.646v184.995h23.774z" fill="#D493CE"/><path fill-rule="evenodd" clip-rule="evenodd" d="M327.854 620.201c8.381 0 15.175 7.8 15.175 17.421v188.769h-30.35V637.622c0-9.621 6.795-17.421 15.175-17.421m0 7.548c-4.742 0-8.599 4.428-8.599 9.872v181.22h17.198v-181.22c0-5.444-3.857-9.872-8.599-9.872" fill="#A572A0"/><path fill-rule="evenodd" clip-rule="evenodd" d="M161.268 822.618V637.623c0-7.524-5.333-13.646-11.887-13.646-6.555 0-11.887 6.122-11.887 13.646v184.995h23.774z" fill="#D493CE"/><path fill-rule="evenodd" clip-rule="evenodd" d="M149.381 620.201c8.381 0 15.175 7.8 15.175 17.421v188.769h-30.35V637.622c0-9.621 6.794-17.421 15.175-17.421m0 7.548c-4.742 0-8.599 4.428-8.599 9.872v181.22h17.198v-181.22c0-5.444-3.858-9.872-8.599-9.872" fill="#A572A0"/><path fill-rule="evenodd" clip-rule="evenodd" d="M-94.033 581.806h123.47l-61.735-81.65-61.735 81.65z" fill="#D9D8D9"/><path clip-rule="evenodd" d="M-62.492 593.758c0 19.144 13.518 34.663 30.194 34.663s30.194-15.519 30.194-34.663c0-19.143-13.518-34.662-30.194-34.662s-30.194 15.519-30.194 34.662z" stroke="#A572A0" stroke-width="9.1"/><path d="M42.663 736.894h-62.432M11.842 660.337v77.261" stroke="#A572A0" stroke-width="9.1"/><path fill-rule="evenodd" clip-rule="evenodd" d="M207.483 518.589c0 19.74 13.939 35.743 31.134 35.743s31.135-16.003 31.135-35.743c0-19.74-13.94-35.742-31.135-35.742s-31.134 16.002-31.134 35.742" fill="#D493CE"/><path clip-rule="evenodd" d="M207.483 518.589c0 19.74 13.939 35.743 31.134 35.743s31.135-16.003 31.135-35.743c0-19.74-13.94-35.742-31.135-35.742s-31.134 16.002-31.134 35.742z" stroke="#A572A0" stroke-width="9.1"/><path d="M267.957 518.588h-58.905M238.617 482.845v71.485M338.833 664.781h-20.856M337.743 705.28h-18.677M337.743 745.779h-18.677M338.833 786.28h-20.856M160.274 664.781h-20.856M159.185 705.28h-18.677M159.185 745.779h-18.677M160.274 786.28h-20.856" stroke="#A572A0" stroke-width="9.1"/><path fill-rule="evenodd" clip-rule="evenodd" d="M263.25 783.189h-49.299v-54.398h49.299v54.398z" fill="#D493CE"/><path fill-rule="evenodd" clip-rule="evenodd" d="M265.526 785.802h-53.852v-59.624h53.852v59.624zm-4.553-5.225h-44.746v-49.172h44.746v49.172zM256.013 803.967h-34.792v-9.668h34.792v9.668z" fill="#A572A0"/><path fill-rule="evenodd" clip-rule="evenodd" d="M263.25 713.617h-49.299v-54.398h49.299v54.398z" fill="#D493CE"/><path fill-rule="evenodd" clip-rule="evenodd" d="M265.526 716.23h-53.852v-59.624h53.852v59.624zm-4.553-5.225h-44.746v-49.171h44.746v49.171z" fill="#A572A0"/><path fill-rule="evenodd" clip-rule="evenodd" d="M269.313 762.923c0 2.759 1.949 4.996 4.352 4.996 2.403 0 4.351-2.237 4.351-4.996 0-2.759-1.948-4.996-4.351-4.996s-4.352 2.237-4.352 4.996" fill="#D493CE"/><path d="M394.667 584.709L250.86 394.76 107.242 584.709M30.513 581.802l-62.853-83.019-62.77 83.019" stroke="#A572A0" stroke-width="11.2" stroke-linejoin="bevel"/><path d="M103.159 594.147h270.915M374.074 583.505H103.159M374.074 604.79H103.159" stroke="#A572A0" stroke-width="4.9"/><path fill-rule="evenodd" clip-rule="evenodd" d="M256.694 877.373H220.54v-39.547h36.154v39.547z" fill="#D493CE"/><path fill-rule="evenodd" clip-rule="evenodd" d="M248.422 839.434h-19.611v-3.216h19.611v3.216z" fill="#A572A0"/><path fill-rule="evenodd" clip-rule="evenodd" d="M130.818 126.717H99.973V78.705h30.845v48.012z" fill="#F2E5F2"/><path fill-rule="evenodd" clip-rule="evenodd" d="M150.767 126.717h-25.806V78.705h25.806v48.012z" fill="#EDDFED"/><path fill-rule="evenodd" clip-rule="evenodd" d="M131.991 78.705H94.507v-7.12h37.484v7.12z" fill="#F2E5F2"/><path fill-rule="evenodd" clip-rule="evenodd" d="M156.233 78.705h-33.484v-7.12h33.484v7.12z" fill="#EDDFED"/><path fill-rule="evenodd" clip-rule="evenodd" d="M284.768 224.33H104.622L14.551 105.203h180.142l90.075 119.127z" fill="#D6A8D1"/><path fill-rule="evenodd" clip-rule="evenodd" d="M-75.639 224.33h180.146l90.071-119.127H14.435L-75.639 224.33z" fill="#D6A8D1"/><path d="M30.615 105.203L-59.46 224.33M54.407 105.203L-35.666 224.33M78.2 105.203L-11.875 224.33M101.993 105.203L11.918 224.33M125.785 105.203L35.711 224.33M173.371 105.203L83.296 224.33M149.578 105.203L59.503 224.33" stroke="#EDDFED" stroke-width="9.1"/><path fill-rule="evenodd" clip-rule="evenodd" d="M271.852 413.166H101.946V224.329h169.906v188.837zM101.946 224.329h169.906L186.9 111.972l-84.954 112.357z" fill="#EDDFED"/><path fill-rule="evenodd" clip-rule="evenodd" d="M240.327 248.411c5.256 0 9.517 4.891 9.517 10.925v118.388H230.81V259.336c0-6.034 4.261-10.925 9.517-10.925M128.397 248.411c5.256 0 9.517 4.891 9.517 10.925v118.388h-19.035V259.336c0-6.034 4.262-10.925 9.518-10.925M101.947 413.166H-67.96V224.329h169.907v188.837z" fill="#F2E5F2"/><path fill-rule="evenodd" clip-rule="evenodd" d="M68.308 372.845H25.691V270.346h42.617v102.499z" fill="#EDDFED"/><path fill-rule="evenodd" clip-rule="evenodd" d="M68.036 375.357H22.719v-.145h45.317v.145z" fill="#D6A8D1"/><path fill-rule="evenodd" clip-rule="evenodd" d="M70.098 377.724h-49.44v-4.879h49.44v4.879z" fill="#BE9BBB"/><path fill-rule="evenodd" clip-rule="evenodd" d="M70.097 377.725h-4.831v-4.879h4.831v4.879z" fill="#EDDFED"/><path fill-rule="evenodd" clip-rule="evenodd" d="M7.424 375.357h-45.316v-.145H7.425v.145z" fill="#D6A8D1"/><path fill-rule="evenodd" clip-rule="evenodd" d="M9.486 377.724h-49.44v-4.879h49.44v4.879z" fill="#BE9BBB"/><path fill-rule="evenodd" clip-rule="evenodd" d="M9.486 377.725H4.655v-4.879h4.831v4.879zM8.398 372.845h-42.617V270.346H8.398v102.499z" fill="#EDDFED"/><path fill-rule="evenodd" clip-rule="evenodd" d="M63.923 370.478H25.43v-97.765h38.493v97.765z" fill="#D6A8D1"/><path fill-rule="evenodd" clip-rule="evenodd" d="M65.985 372.845H23.368V270.346h42.617v102.499zm-4.124-4.735H27.492v-93.03h34.37v93.03z" fill="#BE9BBB"/><path fill-rule="evenodd" clip-rule="evenodd" d="M215.315 411.371h-56.83V260.177h56.83v151.194z" fill="#F2E5F2"/><path fill-rule="evenodd" clip-rule="evenodd" d="M250.32 375.358V259.337c0-4.719-3.344-8.558-7.455-8.558-4.111 0-7.455 3.839-7.455 8.558v116.021h14.91z" fill="#D6A8D1"/><path fill-rule="evenodd" clip-rule="evenodd" d="M242.865 248.411c5.256 0 9.517 4.891 9.517 10.925v118.388h-19.034V259.336c0-6.034 4.261-10.925 9.517-10.925m0 4.734c-2.974 0-5.393 2.777-5.393 6.191V372.99h10.786V259.336c0-3.414-2.419-6.191-5.393-6.191" fill="#BE9BBB"/><path fill-rule="evenodd" clip-rule="evenodd" d="M138.389 375.358V259.337c0-4.719-3.344-8.558-7.455-8.558-4.11 0-7.455 3.839-7.455 8.558v116.021h14.91z" fill="#D6A8D1"/><path fill-rule="evenodd" clip-rule="evenodd" d="M130.934 248.411c5.257 0 9.517 4.891 9.517 10.925v118.388h-19.034V259.336c0-6.034 4.261-10.925 9.517-10.925m0 4.734c-2.973 0-5.393 2.777-5.393 6.191V372.99h10.786V259.336c0-3.414-2.419-6.191-5.393-6.191" fill="#BE9BBB"/><path fill-rule="evenodd" clip-rule="evenodd" d="M4.013 370.478H-34.48v-97.765H4.013v97.765z" fill="#D6A8D1"/><path fill-rule="evenodd" clip-rule="evenodd" d="M6.075 372.845h-42.617V270.346H6.075v102.499zm-4.124-4.735h-34.37v-93.03h34.37v93.03z" fill="#BE9BBB"/><path fill-rule="evenodd" clip-rule="evenodd" d="M-21.724 224.331H55.71l-38.718-51.207-38.717 51.207z" fill="#F2E5F2"/><path fill-rule="evenodd" clip-rule="evenodd" d="M-1.943 231.827c0 12.006 8.478 21.739 18.936 21.739 10.459 0 18.937-9.733 18.937-21.739s-8.478-21.739-18.937-21.739c-10.458 0-18.936 9.733-18.936 21.739" fill="#D6A8D1"/><path clip-rule="evenodd" d="M-1.943 231.827c0 12.006 8.478 21.739 18.936 21.739 10.459 0 18.937-9.733 18.937-21.739s-8.478-21.739-18.937-21.739c-10.458 0-18.936 9.733-18.936 21.739z" stroke="#BE9BBB" stroke-width="9.1"/><path d="M64.006 321.595H24.851M44.676 273.582v48.455M4.122 321.595h-38.837M34.128 231.827H-1.7M16.993 210.088v43.478" stroke="#BE9BBB" stroke-width="9.1"/><path fill-rule="evenodd" clip-rule="evenodd" d="M167.373 184.684c0 12.38 8.743 22.416 19.527 22.416s19.526-10.036 19.526-22.416-8.742-22.416-19.526-22.416c-10.784 0-19.527 10.036-19.527 22.416" fill="#D6A8D1"/><path clip-rule="evenodd" d="M167.373 184.684c0 12.38 8.743 22.416 19.527 22.416s19.526-10.036 19.526-22.416-8.742-22.416-19.526-22.416c-10.784 0-19.527 10.036-19.527 22.416z" stroke="#BE9BBB" stroke-width="9.1"/><path d="M205.3 184.684h-36.942M186.9 162.268V207.1M249.75 276.369h-13.079M249.067 301.769h-11.713M249.067 327.168h-11.713M249.75 352.568h-13.079M137.766 276.369h-13.08M137.083 301.769H125.37M137.083 327.168H125.37M137.766 352.568h-13.08" stroke="#BE9BBB" stroke-width="9.1"/><path fill-rule="evenodd" clip-rule="evenodd" d="M202.349 350.63H171.43v-34.117h30.919v34.117z" fill="#D6A8D1"/><path fill-rule="evenodd" clip-rule="evenodd" d="M203.776 352.269h-33.774v-37.394h33.774v37.394zm-2.855-3.278h-28.064v-30.838h28.064v30.838zM197.81 363.661h-21.821v-6.063h21.821v6.063z" fill="#BE9BBB"/><path fill-rule="evenodd" clip-rule="evenodd" d="M202.349 306.997H171.43v-34.116h30.919v34.116z" fill="#D6A8D1"/><path fill-rule="evenodd" clip-rule="evenodd" d="M203.776 308.636h-33.774v-37.394h33.774v37.394zm-2.855-3.277h-28.064V274.52h28.064v30.839z" fill="#BE9BBB"/><path fill-rule="evenodd" clip-rule="evenodd" d="M206.151 337.92c0 1.73 1.222 3.133 2.729 3.133 1.507 0 2.729-1.403 2.729-3.133 0-1.731-1.222-3.133-2.729-3.133-1.507 0-2.729 1.402-2.729 3.133" fill="#D6A8D1"/><path d="M284.768 226.152l-90.19-119.128-90.071 119.128M56.386 224.329l-39.419-52.066-39.367 52.066" stroke="#BE9BBB" stroke-width="11.2" stroke-linejoin="bevel"/><path d="M101.946 232.071h169.906M271.852 225.397H101.946M271.852 238.746H101.946" stroke="#BE9BBB" stroke-width="4.9"/><path fill-rule="evenodd" clip-rule="evenodd" d="M198.237 409.698h-22.675v-24.802h22.675v24.802z" fill="#D6A8D1"/><path fill-rule="evenodd" clip-rule="evenodd" d="M193.049 385.904H180.75v-2.017h12.299v2.017z" fill="#BE9BBB"/><path fill-rule="evenodd" clip-rule="evenodd" d="M417.688 108.131h-30.844V60.119h30.844v48.012z" fill="#EFEAEF"/><path fill-rule="evenodd" clip-rule="evenodd" d="M437.637 108.131h-25.805V60.119h25.805v48.012z" fill="#E5D9E6"/><path fill-rule="evenodd" clip-rule="evenodd" d="M418.861 60.12h-37.484V53h37.484v7.12z" fill="#EFEAEF"/><path fill-rule="evenodd" clip-rule="evenodd" d="M443.104 60.12H409.62V53h33.484v7.12z" fill="#E5D9E6"/><path fill-rule="evenodd" clip-rule="evenodd" d="M571.638 205.745H391.493L301.421 86.617h180.143l90.074 119.128z" fill="#D9ACD4"/><path fill-rule="evenodd" clip-rule="evenodd" d="M211.232 205.745h180.145l90.071-119.128H301.306l-90.074 119.128z" fill="#D9ACD4"/><path d="M317.485 86.617l-90.074 119.128M341.278 86.617l-90.074 119.128M365.071 86.617l-90.075 119.128M388.863 86.617l-90.074 119.128M412.656 86.617l-90.074 119.128M460.241 86.617l-90.074 119.128M436.448 86.617l-90.074 119.128" stroke="#E5D9E6" stroke-width="9.1"/><path fill-rule="evenodd" clip-rule="evenodd" d="M558.723 394.581H388.817V205.743h169.906v188.838zM388.817 205.743h169.906L473.77 93.386l-84.953 112.357z" fill="#E5D9E6"/><path fill-rule="evenodd" clip-rule="evenodd" d="M527.198 229.825c5.256 0 9.517 4.892 9.517 10.925v118.388h-19.034V240.75c0-6.033 4.261-10.925 9.517-10.925M415.267 229.825c5.256 0 9.517 4.892 9.517 10.925v118.388H405.75V240.75c0-6.033 4.261-10.925 9.517-10.925M388.817 394.581H218.911V205.743h169.906v188.838z" fill="#EFEAEF"/><path fill-rule="evenodd" clip-rule="evenodd" d="M355.179 354.259h-42.617V251.76h42.617v102.499z" fill="#E5D9E6"/><path fill-rule="evenodd" clip-rule="evenodd" d="M354.906 356.771H309.59v-.144h45.316v.144z" fill="#D9ACD4"/><path fill-rule="evenodd" clip-rule="evenodd" d="M356.969 359.138h-49.441v-4.879h49.441v4.879z" fill="#B18FAE"/><path fill-rule="evenodd" clip-rule="evenodd" d="M356.968 359.139h-4.832v-4.879h4.832v4.879z" fill="#E5D9E6"/><path fill-rule="evenodd" clip-rule="evenodd" d="M294.295 356.771h-45.316v-.144h45.316v.144z" fill="#D9ACD4"/><path fill-rule="evenodd" clip-rule="evenodd" d="M296.357 359.138h-49.44v-4.879h49.44v4.879z" fill="#B18FAE"/><path fill-rule="evenodd" clip-rule="evenodd" d="M296.357 359.139h-4.832v-4.879h4.832v4.879zM295.269 354.259h-42.618V251.76h42.618v102.499z" fill="#E5D9E6"/><path fill-rule="evenodd" clip-rule="evenodd" d="M350.794 351.892h-38.493v-97.765h38.493v97.765z" fill="#D9ACD4"/><path fill-rule="evenodd" clip-rule="evenodd" d="M352.856 354.259h-42.617V251.76h42.617v102.499zm-4.124-4.735h-34.369v-93.03h34.369v93.03z" fill="#B18FAE"/><path fill-rule="evenodd" clip-rule="evenodd" d="M502.185 392.785h-56.83V241.591h56.83v151.194z" fill="#EFEAEF"/><path fill-rule="evenodd" clip-rule="evenodd" d="M537.191 356.772V240.751c0-4.719-3.345-8.558-7.455-8.558-4.111 0-7.455 3.839-7.455 8.558v116.021h14.91z" fill="#D9ACD4"/><path fill-rule="evenodd" clip-rule="evenodd" d="M529.736 229.825c5.256 0 9.517 4.892 9.517 10.925v118.388h-19.034V240.75c0-6.033 4.261-10.925 9.517-10.925m0 4.734c-2.974 0-5.393 2.777-5.393 6.191v113.654h10.786V240.75c0-3.414-2.42-6.191-5.393-6.191" fill="#B18FAE"/><path fill-rule="evenodd" clip-rule="evenodd" d="M425.26 356.772V240.751c0-4.719-3.344-8.558-7.455-8.558-4.111 0-7.455 3.839-7.455 8.558v116.021h14.91z" fill="#D9ACD4"/><path fill-rule="evenodd" clip-rule="evenodd" d="M417.805 229.825c5.256 0 9.517 4.892 9.517 10.925v118.388h-19.034V240.75c0-6.033 4.261-10.925 9.517-10.925m0 4.734c-2.974 0-5.393 2.777-5.393 6.191v113.654h10.786V240.75c0-3.414-2.419-6.191-5.393-6.191" fill="#B18FAE"/><path fill-rule="evenodd" clip-rule="evenodd" d="M290.884 351.892H252.39v-97.765h38.494v97.765z" fill="#D9ACD4"/><path fill-rule="evenodd" clip-rule="evenodd" d="M292.946 354.259h-42.618V251.76h42.618v102.499zm-4.125-4.735h-34.369v-93.03h34.369v93.03z" fill="#B18FAE"/><path fill-rule="evenodd" clip-rule="evenodd" d="M265.146 205.745h77.436l-38.718-51.207-38.718 51.207z" fill="#EFEAEF"/><path fill-rule="evenodd" clip-rule="evenodd" d="M284.927 213.241c0 12.006 8.479 21.739 18.937 21.739 10.458 0 18.937-9.733 18.937-21.739s-8.479-21.739-18.937-21.739c-10.458 0-18.937 9.733-18.937 21.739" fill="#D9ACD4"/><path clip-rule="evenodd" d="M284.927 213.241c0 12.006 8.479 21.739 18.937 21.739 10.458 0 18.937-9.733 18.937-21.739s-8.479-21.739-18.937-21.739c-10.458 0-18.937 9.733-18.937 21.739z" stroke="#B18FAE" stroke-width="9.1"/><path d="M350.877 303.009h-39.155M331.547 254.996v48.455M271.637 254.355v97.872M290.993 303.009h-38.838M320.999 213.241h-35.827M303.864 191.502v43.478" stroke="#B18FAE" stroke-width="9.1"/><path fill-rule="evenodd" clip-rule="evenodd" d="M454.244 166.098c0 12.38 8.742 22.416 19.526 22.416 10.784 0 19.527-10.036 19.527-22.416s-8.743-22.416-19.527-22.416-19.526 10.036-19.526 22.416" fill="#D9ACD4"/><path clip-rule="evenodd" d="M454.244 166.098c0 12.38 8.742 22.416 19.526 22.416 10.784 0 19.527-10.036 19.527-22.416s-8.743-22.416-19.527-22.416-19.526 10.036-19.526 22.416z" stroke="#B18FAE" stroke-width="9.1"/><path d="M492.171 166.098h-36.943M473.77 143.682v44.832M536.621 257.783h-13.08M535.938 283.183h-11.714M535.938 308.582h-11.714M536.621 333.983h-13.08M424.637 257.783h-13.08M423.954 283.183h-11.713M423.954 308.582h-11.713M424.637 333.983h-13.08" stroke="#B18FAE" stroke-width="9.1"/><path fill-rule="evenodd" clip-rule="evenodd" d="M489.219 332.044h-30.918v-34.117h30.918v34.117z" fill="#D9ACD4"/><path fill-rule="evenodd" clip-rule="evenodd" d="M490.646 333.683h-33.773v-37.394h33.773v37.394zm-2.855-3.277h-28.063v-30.839h28.063v30.839zM484.68 345.075h-21.82v-6.063h21.82v6.063z" fill="#B18FAE"/><path fill-rule="evenodd" clip-rule="evenodd" d="M489.219 288.411h-30.918v-34.116h30.918v34.116z" fill="#D9ACD4"/><path fill-rule="evenodd" clip-rule="evenodd" d="M490.646 290.05h-33.773v-37.394h33.773v37.394zm-2.855-3.277h-28.063v-30.839h28.063v30.839z" fill="#B18FAE"/><path fill-rule="evenodd" clip-rule="evenodd" d="M493.021 319.334c0 1.73 1.222 3.133 2.73 3.133 1.507 0 2.728-1.403 2.728-3.133 0-1.731-1.221-3.133-2.728-3.133-1.508 0-2.73 1.402-2.73 3.133" fill="#D9ACD4"/><path d="M571.638 207.566L481.449 88.438l-90.072 119.128M343.256 205.743l-39.418-52.066-39.367 52.066" stroke="#B18FAE" stroke-width="11.2" stroke-linejoin="bevel"/><path d="M388.817 213.485h169.906M558.723 206.811H388.817M558.723 220.16H388.817" stroke="#B18FAE" stroke-width="4.9"/><path fill-rule="evenodd" clip-rule="evenodd" d="M485.107 391.112h-22.674V366.31h22.674v24.802z" fill="#D9ACD4"/><path fill-rule="evenodd" clip-rule="evenodd" d="M479.92 367.318h-12.3v-2.016h12.3v2.016z" fill="#B18FAE"/><path fill-rule="evenodd" clip-rule="evenodd" d="M672.235 237.424h-30.844v-48.012h30.844v48.012z" fill="#EFEAEF"/><path fill-rule="evenodd" clip-rule="evenodd" d="M692.184 237.424h-25.805v-48.012h25.805v48.012z" fill="#E5D9E6"/><path fill-rule="evenodd" clip-rule="evenodd" d="M673.408 189.412h-37.484v-7.119h37.484v7.119z" fill="#EFEAEF"/><path fill-rule="evenodd" clip-rule="evenodd" d="M697.65 189.412h-33.483v-7.119h33.483v7.119z" fill="#E5D9E6"/><path fill-rule="evenodd" clip-rule="evenodd" d="M826.185 335.038H646.04L555.968 215.91h180.143l90.074 119.128z" fill="#D9ACD4"/><path fill-rule="evenodd" clip-rule="evenodd" d="M465.779 335.038h180.145l90.071-119.128H555.853l-90.074 119.128z" fill="#D9ACD4"/><path d="M572.032 215.91l-90.074 119.128M595.825 215.91L505.75 335.038M619.617 215.91l-90.074 119.128M643.41 215.91l-90.074 119.128M667.203 215.91l-90.075 119.128M714.788 215.91l-90.074 119.128M690.995 215.91l-90.074 119.128" stroke="#E5D9E6" stroke-width="9.1"/><path fill-rule="evenodd" clip-rule="evenodd" d="M813.27 523.873H643.364V335.036H813.27v188.837zM643.364 335.036H813.27l-84.953-112.357-84.953 112.357z" fill="#E5D9E6"/><path fill-rule="evenodd" clip-rule="evenodd" d="M781.745 359.118c5.256 0 9.517 4.892 9.517 10.925v118.388h-19.034V370.043c0-6.033 4.261-10.925 9.517-10.925M669.814 359.118c5.256 0 9.517 4.892 9.517 10.925v118.388h-19.034V370.043c0-6.033 4.261-10.925 9.517-10.925M643.364 523.873H473.458V335.036h169.906v188.837z" fill="#EFEAEF"/><path fill-rule="evenodd" clip-rule="evenodd" d="M609.725 483.552h-42.617V381.053h42.617v102.499z" fill="#E5D9E6"/><path fill-rule="evenodd" clip-rule="evenodd" d="M609.453 486.064h-45.316v-.145h45.316v.145z" fill="#D9ACD4"/><path fill-rule="evenodd" clip-rule="evenodd" d="M611.515 488.431h-49.44v-4.879h49.44v4.879z" fill="#B18FAE"/><path fill-rule="evenodd" clip-rule="evenodd" d="M611.515 488.432h-4.832v-4.879h4.832v4.879z" fill="#E5D9E6"/><path fill-rule="evenodd" clip-rule="evenodd" d="M548.842 486.064h-45.316v-.145h45.316v.145z" fill="#D9ACD4"/><path fill-rule="evenodd" clip-rule="evenodd" d="M550.904 488.431h-49.44v-4.879h49.44v4.879z" fill="#B18FAE"/><path fill-rule="evenodd" clip-rule="evenodd" d="M550.904 488.432h-4.832v-4.879h4.832v4.879zM549.815 483.552h-42.617V381.053h42.617v102.499z" fill="#E5D9E6"/><path fill-rule="evenodd" clip-rule="evenodd" d="M605.341 481.185h-38.493V383.42h38.493v97.765z" fill="#D9ACD4"/><path fill-rule="evenodd" clip-rule="evenodd" d="M607.403 483.552h-42.617V381.053h42.617v102.499zm-4.125-4.735H568.91v-93.03h34.368v93.03z" fill="#B18FAE"/><path fill-rule="evenodd" clip-rule="evenodd" d="M756.732 522.078h-56.83V370.884h56.83v151.194z" fill="#EFEAEF"/><path fill-rule="evenodd" clip-rule="evenodd" d="M791.738 486.065V370.044c0-4.719-3.345-8.558-7.455-8.558-4.111 0-7.456 3.839-7.456 8.558v116.021h14.911z" fill="#D9ACD4"/><path fill-rule="evenodd" clip-rule="evenodd" d="M784.283 359.118c5.256 0 9.517 4.892 9.517 10.925v118.388h-19.035V370.043c0-6.033 4.262-10.925 9.518-10.925m0 4.734c-2.974 0-5.393 2.777-5.393 6.191v113.653h10.786V370.043c0-3.414-2.42-6.191-5.393-6.191" fill="#B18FAE"/><path fill-rule="evenodd" clip-rule="evenodd" d="M679.807 486.065V370.044c0-4.719-3.344-8.558-7.455-8.558-4.111 0-7.455 3.839-7.455 8.558v116.021h14.91z" fill="#D9ACD4"/><path fill-rule="evenodd" clip-rule="evenodd" d="M672.352 359.118c5.256 0 9.517 4.892 9.517 10.925v118.388h-19.034V370.043c0-6.033 4.261-10.925 9.517-10.925m0 4.734c-2.974 0-5.393 2.777-5.393 6.191v113.653h10.786V370.043c0-3.414-2.419-6.191-5.393-6.191" fill="#B18FAE"/><path fill-rule="evenodd" clip-rule="evenodd" d="M545.43 481.185h-38.493V383.42h38.493v97.765z" fill="#D9ACD4"/><path fill-rule="evenodd" clip-rule="evenodd" d="M547.492 483.552h-42.617V381.053h42.617v102.499zm-4.124-4.735h-34.369v-93.03h34.369v93.03z" fill="#B18FAE"/><path fill-rule="evenodd" clip-rule="evenodd" d="M519.693 335.038h77.435l-38.717-51.207-38.718 51.207z" fill="#EFEAEF"/><path fill-rule="evenodd" clip-rule="evenodd" d="M539.474 342.534c0 12.006 8.479 21.739 18.937 21.739 10.458 0 18.936-9.733 18.936-21.739s-8.478-21.739-18.936-21.739-18.937 9.733-18.937 21.739" fill="#D9ACD4"/><path clip-rule="evenodd" d="M539.474 342.534c0 12.006 8.479 21.739 18.937 21.739 10.458 0 18.936-9.733 18.936-21.739s-8.478-21.739-18.936-21.739-18.937 9.733-18.937 21.739z" stroke="#B18FAE" stroke-width="9.1"/><path d="M605.424 432.302h-39.155M586.094 384.289v48.455M526.184 383.648v97.872M545.54 432.302h-38.838M575.545 342.534h-35.827M558.411 320.795v43.478" stroke="#B18FAE" stroke-width="9.1"/><path fill-rule="evenodd" clip-rule="evenodd" d="M708.791 295.391c0 12.38 8.742 22.416 19.526 22.416 10.784 0 19.527-10.036 19.527-22.416s-8.743-22.416-19.527-22.416-19.526 10.036-19.526 22.416" fill="#D9ACD4"/><path clip-rule="evenodd" d="M708.791 295.391c0 12.38 8.742 22.416 19.526 22.416 10.784 0 19.527-10.036 19.527-22.416s-8.743-22.416-19.527-22.416-19.526 10.036-19.526 22.416z" stroke="#B18FAE" stroke-width="9.1"/><path d="M746.718 295.391h-36.943M728.317 272.975v44.832M791.168 387.076h-13.08M790.485 412.476h-11.714M790.485 437.875h-11.714M791.168 463.275h-13.08M679.184 387.076h-13.08M678.5 412.476h-11.713M678.5 437.875h-11.713M679.184 463.275h-13.08" stroke="#B18FAE" stroke-width="9.1"/><path fill-rule="evenodd" clip-rule="evenodd" d="M743.766 461.337h-30.919V427.22h30.919v34.117z" fill="#D9ACD4"/><path fill-rule="evenodd" clip-rule="evenodd" d="M745.193 462.976H711.42v-37.394h33.773v37.394zm-2.855-3.277h-28.063v-30.838h28.063v30.838zM739.227 474.368h-21.82v-6.063h21.82v6.063z" fill="#B18FAE"/><path fill-rule="evenodd" clip-rule="evenodd" d="M743.766 417.704h-30.919v-34.116h30.919v34.116z" fill="#D9ACD4"/><path fill-rule="evenodd" clip-rule="evenodd" d="M745.193 419.343H711.42v-37.394h33.773v37.394zm-2.855-3.278h-28.063v-30.838h28.063v30.838z" fill="#B18FAE"/><path fill-rule="evenodd" clip-rule="evenodd" d="M747.568 448.627c0 1.73 1.222 3.133 2.73 3.133 1.507 0 2.728-1.403 2.728-3.133 0-1.731-1.221-3.133-2.728-3.133-1.508 0-2.73 1.402-2.73 3.133" fill="#D9ACD4"/><path d="M826.185 336.859l-90.19-119.128-90.071 119.128M597.803 335.036l-39.418-52.066-39.367 52.066" stroke="#B18FAE" stroke-width="11.2" stroke-linejoin="bevel"/><path d="M643.364 342.778H813.27M813.27 336.104H643.364M813.27 349.453H643.364" stroke="#B18FAE" stroke-width="4.9"/><path fill-rule="evenodd" clip-rule="evenodd" d="M739.654 520.405H716.98v-24.802h22.674v24.802z" fill="#D9ACD4"/><path fill-rule="evenodd" clip-rule="evenodd" d="M734.467 496.611h-12.3v-2.017h12.3v2.017z" fill="#B18FAE"/><path fill-rule="evenodd" clip-rule="evenodd" d="M809.472 493.921h-50.625v-67.303h50.625v67.303z" fill="#D9D8D9"/><path fill-rule="evenodd" clip-rule="evenodd" d="M842.214 493.921H799.86v-67.303h42.354v67.303z" fill="#E5CEE6"/><path fill-rule="evenodd" clip-rule="evenodd" d="M811.397 426.618h-61.521v-9.979h61.521v9.979z" fill="#D9D8D9"/><path fill-rule="evenodd" clip-rule="evenodd" d="M851.186 426.618h-54.957v-9.979h54.957v9.979z" fill="#E5CEE6"/><path fill-rule="evenodd" clip-rule="evenodd" d="M1062.15 630.752H766.478l-147.832-166.99h295.663l147.841 166.99z" fill="#D2AFCF"/><path fill-rule="evenodd" clip-rule="evenodd" d="M470.62 630.752h295.669l147.831-166.99H618.457L470.62 630.752z" fill="#D2AFCF"/><path d="M645.011 463.762l-147.837 166.99M684.062 463.762l-147.838 166.99M723.112 463.762l-147.837 166.99M762.162 463.762l-147.837 166.99M801.212 463.762l-147.837 166.99M879.313 463.762l-147.837 166.99M840.263 463.762l-147.838 166.99" stroke="#E5CEE6" stroke-width="9.1"/><path fill-rule="evenodd" clip-rule="evenodd" d="M1040.95 895.456H762.086V630.75h278.864v264.706zM762.086 630.75h278.864l-139.432-157.5-139.432 157.5z" fill="#E5CEE6"/><path fill-rule="evenodd" clip-rule="evenodd" d="M989.208 664.507c8.627 0 15.622 6.857 15.622 15.315v165.953h-31.243V679.822c0-8.458 6.994-15.315 15.621-15.315M805.498 664.507c8.627 0 15.62 6.857 15.62 15.315v165.953h-31.24V679.822c0-8.458 6.994-15.315 15.62-15.315M762.086 895.456H483.223V630.75h278.863v264.706z" fill="#D9D8D9"/><path fill-rule="evenodd" clip-rule="evenodd" d="M706.876 838.936H636.93V695.255h69.946v143.681z" fill="#E5CEE6"/><path fill-rule="evenodd" clip-rule="evenodd" d="M706.429 842.456h-74.376v-.203h74.376v.203z" fill="#D2AFCF"/><path fill-rule="evenodd" clip-rule="evenodd" d="M709.814 845.773h-81.145v-6.839h81.145v6.839z" fill="#A572A0"/><path fill-rule="evenodd" clip-rule="evenodd" d="M709.813 845.775h-7.93v-6.84h7.93v6.84z" fill="#E5CEE6"/><path fill-rule="evenodd" clip-rule="evenodd" d="M606.949 842.456h-74.376v-.203h74.376v.203z" fill="#D2AFCF"/><path fill-rule="evenodd" clip-rule="evenodd" d="M610.333 845.773h-81.144v-6.839h81.144v6.839z" fill="#A572A0"/><path fill-rule="evenodd" clip-rule="evenodd" d="M610.333 845.775h-7.93v-6.84h7.93v6.84z" fill="#E5CEE6"/><path fill-rule="evenodd" clip-rule="evenodd" d="M608.547 838.936H538.6V695.255h69.947v143.681z" fill="#E5CEE6"/><path fill-rule="evenodd" clip-rule="evenodd" d="M699.679 835.616h-63.177V698.572h63.177v137.044z" fill="#D2AFCF"/><path fill-rule="evenodd" clip-rule="evenodd" d="M703.064 838.936h-69.946V695.255h69.946v143.681zm-6.769-6.638h-56.409V701.891h56.409v130.407z" fill="#A572A0"/><path fill-rule="evenodd" clip-rule="evenodd" d="M948.155 892.94h-93.274V681h93.274v211.94z" fill="#D9D8D9"/><path fill-rule="evenodd" clip-rule="evenodd" d="M1005.61 842.457V679.822c0-6.615-5.49-11.996-12.237-11.996s-12.236 5.381-12.236 11.996v162.635h24.473z" fill="#D2AFCF"/><path fill-rule="evenodd" clip-rule="evenodd" d="M993.373 664.507c8.627 0 15.617 6.857 15.617 15.315v165.953h-31.237V679.822c0-8.458 6.993-15.315 15.62-15.315m0 6.636c-4.881 0-8.852 3.893-8.852 8.679v159.316h17.699V679.822c0-4.786-3.967-8.679-8.847-8.679" fill="#A572A0"/><path fill-rule="evenodd" clip-rule="evenodd" d="M821.899 842.457V679.822c0-6.615-5.489-11.996-12.236-11.996-6.746 0-12.235 5.381-12.235 11.996v162.635h24.471z" fill="#D2AFCF"/><path fill-rule="evenodd" clip-rule="evenodd" d="M809.664 664.507c8.627 0 15.62 6.857 15.62 15.315v165.953h-31.241V679.822c0-8.458 6.994-15.315 15.621-15.315m0 6.636c-4.881 0-8.852 3.893-8.852 8.679v159.316h17.703V679.822c0-4.786-3.971-8.679-8.851-8.679" fill="#A572A0"/><path fill-rule="evenodd" clip-rule="evenodd" d="M601.35 835.616h-63.178V698.572h63.178v137.044z" fill="#D2AFCF"/><path fill-rule="evenodd" clip-rule="evenodd" d="M604.735 838.936h-69.947V695.255h69.947v143.681zm-6.769-6.638h-56.409V701.891h56.409v130.407z" fill="#A572A0"/><path fill-rule="evenodd" clip-rule="evenodd" d="M559.108 630.752h127.093l-63.546-71.781-63.547 71.781z" fill="#D9D8D9"/><path fill-rule="evenodd" clip-rule="evenodd" d="M591.574 641.26c0 16.829 13.916 30.473 31.08 30.473 17.166 0 31.081-13.644 31.081-30.473 0-16.83-13.915-30.473-31.081-30.473-17.164 0-31.08 13.643-31.08 30.473" fill="#D2AFCF"/><path clip-rule="evenodd" d="M591.574 641.26c0 16.829 13.916 30.473 31.08 30.473 17.166 0 31.081-13.644 31.081-30.473 0-16.83-13.915-30.473-31.081-30.473-17.164 0-31.08 13.643-31.08 30.473z" stroke="#A572A0" stroke-width="9.1"/><path d="M699.816 767.094h-64.265M668.09 699.791v67.923M569.761 698.892v137.195M601.529 767.094h-63.743M650.777 641.26h-58.802M622.654 610.787v60.946" stroke="#A572A0" stroke-width="9.1"/><path fill-rule="evenodd" clip-rule="evenodd" d="M869.47 575.176c0 17.354 14.349 31.423 32.048 31.423 17.7 0 32.048-14.069 32.048-31.423s-14.348-31.422-32.048-31.422c-17.699 0-32.048 14.068-32.048 31.422" fill="#D2AFCF"/><path clip-rule="evenodd" d="M869.47 575.176c0 17.354 14.349 31.423 32.048 31.423 17.7 0 32.048-14.069 32.048-31.423s-14.348-31.422-32.048-31.422c-17.699 0-32.048 14.068-32.048 31.422z" stroke="#A572A0" stroke-width="9.1"/><path d="M931.719 575.175h-60.634M901.518 543.754v62.845M1004.67 703.698h-21.464M1003.55 739.302h-19.223M1003.55 774.907h-19.223M1004.67 810.511h-21.464M820.877 703.698h-21.468M819.755 739.302H800.53M819.755 774.907H800.53M820.877 810.511h-21.468" stroke="#A572A0" stroke-width="9.1"/><path fill-rule="evenodd" clip-rule="evenodd" d="M926.874 807.794h-50.746v-47.823h50.746v47.823z" fill="#D2AFCF"/><path fill-rule="evenodd" clip-rule="evenodd" d="M929.216 810.091h-55.431v-52.418h55.431v52.418zm-4.686-4.593h-46.059v-43.229h46.059v43.229zM919.424 826.061h-35.813v-8.499h35.813v8.499z" fill="#A572A0"/><path fill-rule="evenodd" clip-rule="evenodd" d="M926.874 746.632h-50.746v-47.823h50.746v47.823z" fill="#D2AFCF"/><path fill-rule="evenodd" clip-rule="evenodd" d="M929.216 748.929h-55.431v-52.417h55.431v52.417zm-4.686-4.595h-46.059v-43.228h46.059v43.228z" fill="#A572A0"/><path fill-rule="evenodd" clip-rule="evenodd" d="M933.115 789.978c0 2.425 2.005 4.392 4.479 4.392s4.479-1.967 4.479-4.392c0-2.426-2.005-4.392-4.479-4.392s-4.479 1.966-4.479 4.392" fill="#D2AFCF"/><path d="M1062.15 633.305l-148.03-166.99-147.832 166.99M687.309 630.751l-64.697-72.985L558 630.751" stroke="#A572A0" stroke-width="11.2" stroke-linejoin="bevel"/><path d="M762.086 641.603h278.864M1040.95 632.245H762.086M1040.95 650.959H762.086" stroke="#A572A0" stroke-width="4.9"/><path fill-rule="evenodd" clip-rule="evenodd" d="M920.125 890.594H882.91v-34.767h37.215v34.767z" fill="#D2AFCF"/><path fill-rule="evenodd" clip-rule="evenodd" d="M911.611 857.241h-20.187v-2.827h20.187v2.827z" fill="#A572A0"/><path fill-rule="evenodd" clip-rule="evenodd" d="M351.529 324.427h60.532v-94.223h-60.532v94.223z" fill="#E8BFE6"/><path fill-rule="evenodd" clip-rule="evenodd" d="M312.381 324.427h50.641v-94.223h-50.641v94.223z" fill="#E5CEE6"/><path fill-rule="evenodd" clip-rule="evenodd" d="M349.228 230.204h73.56v-13.971h-73.56v13.971z" fill="#E8BFE6"/><path fill-rule="evenodd" clip-rule="evenodd" d="M301.654 230.204h65.71v-13.971h-65.71v13.971z" fill="#E5CEE6"/><path fill-rule="evenodd" clip-rule="evenodd" d="M49.411 515.987h353.526l176.761-233.782h-353.52L49.411 515.987z" fill="#D493CE"/><path fill-rule="evenodd" clip-rule="evenodd" d="M756.69 515.987H403.163L226.404 282.205h353.52L756.69 515.987z" fill="#D493CE"/><path d="M548.173 282.205l176.766 233.782M501.481 282.205l176.766 233.782M454.789 282.205l176.767 233.782M408.097 282.205l176.767 233.782M361.406 282.205l176.766 233.782M268.022 282.205l176.766 233.782M314.714 282.205L491.48 515.987" stroke="#E5CEE6" stroke-width="9.1"/><path fill-rule="evenodd" clip-rule="evenodd" d="M74.757 886.568h333.431V515.984H74.757v370.584zM408.188 515.984H74.757l166.715-220.495 166.716 220.495z" fill="#E5CEE6"/><path fill-rule="evenodd" clip-rule="evenodd" d="M136.623 563.243c-10.315 0-18.677 9.6-18.677 21.441v232.33H155.3v-232.33c0-11.841-8.362-21.441-18.677-21.441M356.281 563.243c-10.315 0-18.677 9.6-18.677 21.441v232.33h37.354v-232.33c0-11.841-8.362-21.441-18.677-21.441M408.188 886.568H741.62V515.984H408.188v370.584z" fill="#E8BFE6"/><path fill-rule="evenodd" clip-rule="evenodd" d="M474.202 807.439h83.633V606.29h-83.633v201.149z" fill="#E5CEE6"/><path fill-rule="evenodd" clip-rule="evenodd" d="M474.736 812.368h88.931v-.284h-88.931v.284z" fill="#D493CE"/><path fill-rule="evenodd" clip-rule="evenodd" d="M470.689 817.013h97.024v-9.575h-97.024v9.575z" fill="#A572A0"/><path fill-rule="evenodd" clip-rule="evenodd" d="M470.69 817.014h9.482v-9.574h-9.482v9.574z" fill="#E5CEE6"/><path fill-rule="evenodd" clip-rule="evenodd" d="M593.683 812.368h88.93v-.284h-88.93v.284z" fill="#D493CE"/><path fill-rule="evenodd" clip-rule="evenodd" d="M589.636 817.013h97.023v-9.575h-97.023v9.575z" fill="#A572A0"/><path fill-rule="evenodd" clip-rule="evenodd" d="M589.637 817.014h9.482v-9.574h-9.482v9.574zM591.772 807.439h83.634V606.29h-83.634v201.149z" fill="#E5CEE6"/><path fill-rule="evenodd" clip-rule="evenodd" d="M482.807 802.793h75.54V610.935h-75.54v191.858z" fill="#D493CE"/><path fill-rule="evenodd" clip-rule="evenodd" d="M478.76 807.439h83.634V606.29H478.76v201.149zm8.093-9.292h67.448V615.58h-67.448v182.567z" fill="#A572A0"/><path fill-rule="evenodd" clip-rule="evenodd" d="M185.709 883.044h111.526v-296.71H185.709v296.71z" fill="#E8BFE6"/><path fill-rule="evenodd" clip-rule="evenodd" d="M117.013 812.369V584.685c0-9.261 6.563-16.795 14.63-16.795s14.63 7.534 14.63 16.795v227.684h-29.26z" fill="#D493CE"/><path fill-rule="evenodd" clip-rule="evenodd" d="M131.643 563.243c-10.316 0-18.677 9.6-18.677 21.441v232.33h37.353v-232.33c0-11.841-8.362-21.441-18.676-21.441m0 9.29c5.835 0 10.583 5.451 10.583 12.15v223.039h-21.167V584.683c0-6.699 4.748-12.15 10.584-12.15" fill="#A572A0"/><path fill-rule="evenodd" clip-rule="evenodd" d="M336.671 812.369V584.685c0-9.261 6.563-16.795 14.63-16.795s14.63 7.534 14.63 16.795v227.684h-29.26z" fill="#D493CE"/><path fill-rule="evenodd" clip-rule="evenodd" d="M351.301 563.243c-10.315 0-18.677 9.6-18.677 21.441v232.33h37.353v-232.33c0-11.841-8.362-21.441-18.676-21.441m0 9.29c5.836 0 10.583 5.451 10.583 12.15v223.039h-21.167V584.683c0-6.699 4.748-12.15 10.584-12.15" fill="#A572A0"/><path fill-rule="evenodd" clip-rule="evenodd" d="M600.377 802.793h75.542V610.935h-75.542v191.858z" fill="#D493CE"/><path fill-rule="evenodd" clip-rule="evenodd" d="M596.331 807.439h83.634V606.29h-83.634v201.149zm8.093-9.292h67.448V615.58h-67.448v182.567z" fill="#A572A0"/><path fill-rule="evenodd" clip-rule="evenodd" d="M650.885 515.987H498.923l75.981-100.491 75.981 100.491z" fill="#E8BFE6"/><path fill-rule="evenodd" clip-rule="evenodd" d="M612.066 530.698c0 23.561-16.638 42.661-37.162 42.661-20.524 0-37.162-19.1-37.162-42.661s16.638-42.661 37.162-42.661c20.524 0 37.162 19.1 37.162 42.661" fill="#D493CE"/><path clip-rule="evenodd" d="M612.066 530.698c0 23.561-16.638 42.661-37.162 42.661-20.524 0-37.162-19.1-37.162-42.661s16.638-42.661 37.162-42.661c20.524 0 37.162 19.1 37.162 42.661z" stroke="#A572A0" stroke-width="9.1"/><path d="M482.644 706.864h76.84M520.577 612.641v95.09M638.148 611.381v192.07M600.163 706.864h76.217M541.278 530.698h70.309M574.904 488.037v85.322" stroke="#A572A0" stroke-width="9.1"/><path fill-rule="evenodd" clip-rule="evenodd" d="M279.791 438.182c0 24.295-17.156 43.991-38.319 43.991-21.163 0-38.32-19.696-38.32-43.991 0-24.295 17.157-43.99 38.32-43.99s38.319 19.695 38.319 43.99" fill="#D493CE"/><path clip-rule="evenodd" d="M279.791 438.182c0 24.295-17.156 43.991-38.319 43.991-21.163 0-38.32-19.696-38.32-43.991 0-24.295 17.157-43.99 38.32-43.99s38.319 19.695 38.319 43.99z" stroke="#A572A0" stroke-width="9.1"/><path d="M205.362 438.182h72.498M241.472 394.191v87.981M118.131 618.11h25.668M119.471 667.955h22.987M119.471 717.801h22.987M118.131 767.646h25.668M337.893 618.11h25.669M339.234 667.955h22.987M339.234 717.801h22.987M337.893 767.646h25.669" stroke="#A572A0" stroke-width="9.1"/><path fill-rule="evenodd" clip-rule="evenodd" d="M211.154 763.842h60.676v-66.951h-60.676v66.951z" fill="#D493CE"/><path fill-rule="evenodd" clip-rule="evenodd" d="M208.354 767.059h66.278v-73.384h-66.278v73.384zm5.602-6.433h55.073v-60.519h-55.073v60.519zM220.062 789.415h42.821v-11.898h-42.821v11.898z" fill="#A572A0"/><path fill-rule="evenodd" clip-rule="evenodd" d="M211.154 678.216h60.676v-66.951h-60.676v66.951z" fill="#D493CE"/><path fill-rule="evenodd" clip-rule="evenodd" d="M208.354 681.432h66.278v-73.383h-66.278v73.383zm5.602-6.432h55.073v-60.518h-55.073V675z" fill="#A572A0"/><path fill-rule="evenodd" clip-rule="evenodd" d="M203.693 738.9c0 3.396-2.399 6.149-5.356 6.149-2.958 0-5.356-2.753-5.356-6.149s2.398-6.148 5.356-6.148c2.957 0 5.356 2.752 5.356 6.148" fill="#D493CE"/><path d="M49.411 519.561l176.993-233.782 176.76 233.782M497.598 515.985l77.358-102.178 77.255 102.178" stroke="#A572A0" stroke-width="11.2" stroke-linejoin="bevel"/><path d="M408.188 531.178H74.757M74.757 518.079h333.431M74.757 544.277h333.431" stroke="#A572A0" stroke-width="4.9"/><path fill-rule="evenodd" clip-rule="evenodd" d="M219.224 879.76h44.497v-48.673h-44.497v48.673z" fill="#D493CE"/><path fill-rule="evenodd" clip-rule="evenodd" d="M229.404 833.067h24.137v-3.958h-24.137v3.958z" fill="#A572A0"/><path fill-rule="evenodd" clip-rule="evenodd" d="M1998 879.728l-271.76.272c-20.54-10.256-51.85-39.016-37.68-46.976 9.33-5.237 45.68 13.433 53.22 8.375 7.54-5.054-42.91-35.51-24.41-41.704 22.47-7.526 95.58 48.68 104.79 44.16 9.68-4.753-23.52-30.539-9.3-36.087 16.88-6.584 53.75 41.342 68.03 36.187 7.48-2.702-10.28-18.91.51-21.724 18.79-4.903 50.14 42.654 63.47 38.417 6.3-2.008-.79-8.879 8.66-10.589 11.55-2.086 34.81 19.912 44.47 29.669" fill="#BFB0C6"/><path fill-rule="evenodd" clip-rule="evenodd" d="M1755 883.765l-235.3.235c-17.77-8.864-44.89-33.717-32.61-40.597 8.07-4.526 39.54 11.609 46.07 7.239 6.53-4.368-37.15-30.688-21.14-36.042 19.46-6.503 82.76 42.07 90.74 38.164 8.38-4.108-20.37-26.392-8.06-31.187 14.62-5.69 46.54 35.728 58.9 31.273 6.48-2.335-8.9-16.342.45-18.773 16.26-4.238 43.41 36.86 54.95 33.199 5.45-1.735-.69-7.673 7.5-9.151 10-1.802 30.14 17.208 38.5 25.64" fill="#E9D4F2"/><path fill-rule="evenodd" clip-rule="evenodd" d="M974 882.728l271.76.272c20.54-10.256 51.85-39.016 37.68-46.976-9.33-5.237-45.68 13.433-53.22 8.375-7.54-5.054 42.91-35.51 24.41-41.704-22.47-7.526-95.58 48.68-104.79 44.16-9.68-4.753 23.52-30.539 9.3-36.087-16.88-6.584-53.75 41.342-68.03 36.187-7.48-2.702 10.28-18.91-.51-21.724-18.79-4.903-50.14 42.654-63.47 38.417-6.3-2.008.79-8.879-8.66-10.589-11.55-2.086-34.815 19.912-44.47 29.669" fill="#BFB0C6"/><path fill-rule="evenodd" clip-rule="evenodd" d="M1240 884.755l231.82.245c17.52-9.243 44.23-35.162 32.14-42.337-7.95-4.72-38.96 12.107-45.39 7.549-6.44-4.555 36.6-32.003 20.82-37.586-19.17-6.782-81.54 43.873-89.39 39.799-8.26-4.284 20.07-27.523 7.93-32.523-14.4-5.934-45.85 37.259-58.03 32.613-6.38-2.435 8.77-17.042-.44-19.578-16.02-4.419-42.77 38.441-54.13 34.622-5.38-1.809.67-8.002-7.4-9.543-9.85-1.88-29.69 17.945-37.93 26.739" fill="#E9D4F2"/></g><defs><clipPath id="clip0"><path fill="#fff" d="M0 0h2950v880H0z"/></clipPath></defs></svg>