<svg width="2950" height="880" fill="none" xmlns="http://www.w3.org/2000/svg"><g opacity=".7" clip-path="url(#clip0)"><path fill="#fff" d="M0 0h2950v880H0z"/><path fill-rule="evenodd" clip-rule="evenodd" d="M817.362 754.335c0 14.457-11.719 26.177-26.177 26.177-14.457 0-26.177-11.72-26.177-26.177 0-14.458 11.72-26.177 26.177-26.177 14.458 0 26.177 11.719 26.177 26.177" fill="#EDA3B0"/><path clip-rule="evenodd" d="M817.362 754.335c0 14.457-11.719 26.177-26.177 26.177-14.457 0-26.177-11.72-26.177-26.177 0-14.458 11.72-26.177 26.177-26.177 14.458 0 26.177 11.719 26.177 26.177z" stroke="#F9C4D4" stroke-width="11.2"/><path fill-rule="evenodd" clip-rule="evenodd" d="M1030.7 754.335c0 6.984-5.66 12.646-12.65 12.646-6.98 0-12.64-5.662-12.64-12.646 0-6.984 5.66-12.646 12.64-12.646 6.99 0 12.65 5.662 12.65 12.646" fill="#EDA3B0"/><path clip-rule="evenodd" d="M1030.7 754.335c0 6.984-5.66 12.646-12.65 12.646-6.98 0-12.64-5.662-12.64-12.646 0-6.984 5.66-12.646 12.64-12.646 6.99 0 12.65 5.662 12.65 12.646z" stroke="#F9C4D4" stroke-width="11.2"/><path clip-rule="evenodd" d="M863.172 754.334c0 39.757-32.231 71.988-71.988 71.988s-71.987-32.231-71.987-71.988c0-39.758 32.23-71.987 71.987-71.987s71.988 32.229 71.988 71.987zM1090.04 754.334c0 39.757-32.23 71.988-71.99 71.988-39.753 0-71.984-32.231-71.984-71.988 0-39.758 32.231-71.987 71.984-71.987 39.76 0 71.99 32.229 71.99 71.987z" stroke="#FFD5D7" stroke-width="7.7"/><path d="M848.174 635.174l35.039 119.161 110.801-96.129-139.84-1.49-62.99 97.619h92.029" stroke="#EDA3B0" stroke-width="8.4" stroke-linejoin="bevel"/><path d="M937.341 614.724h43.629l37.08 140.498" stroke="#EDA3B0" stroke-width="8.4"/><path fill-rule="evenodd" clip-rule="evenodd" d="M871.72 642.346l-41.743 4.455c-4.505.481-8.471-2.647-8.471-6.683v-4.455c0-3.716 3.389-6.73 7.569-6.73h41.744c4.18 0 7.568 3.014 7.568 6.73 0 3.408-2.863 6.277-6.667 6.683" fill="#F9C4D4"/><path d="M885.054 754.335v31.766h-13.055 26.118" stroke="#F9C4D4" stroke-width="9.1"/><mask id="a" maskUnits="userSpaceOnUse" x="-69" y="121" width="1544" height="875"><path fill-rule="evenodd" clip-rule="evenodd" d="M-69 995.319h1544V121H-69v874.319z" fill="#fff"/></mask><g mask="url(#a)"><path fill-rule="evenodd" clip-rule="evenodd" d="M934.205 621.267h28.903v-13.224h-28.903v13.224zM64.992 478.773h25.336v-60.612H64.992v60.612zM117.474 714.996h326.437V158.942H117.474v556.054zM89.834 138.008h380.08v-17.009H89.834v17.009zM101.773 158.942h356.202v-20.934H101.773v20.934zM117.475 752.721h70.533v-37.724h-70.533v37.724zM117.474 790.445h97.483v-37.724h-97.483v37.724zM117.474 828.171h124.432v-37.725H117.474v37.725z" fill="#F9C4D4"/><path fill-rule="evenodd" clip-rule="evenodd" d="M130.932 714.996h326.437V158.942H130.932v556.054z" fill="#FDC5C5"/><path fill-rule="evenodd" clip-rule="evenodd" d="M206.49 700.605h175.321v-399.05H206.49v399.05z" fill="#F9C4D4"/><path fill-rule="evenodd" clip-rule="evenodd" d="M147.87 646.962h42.522V248.565H147.87v398.397zM403.072 714.996h74.716v-37.725h-74.716v37.725zM397.908 646.962h42.522V248.565h-42.522v398.397zM230.696 442.125h52.988V326.989h-52.988v115.136zm6.973-6.973h39.042v-101.19h-39.042v101.19zM230.696 505.58h52.988v-39.905h-52.988v39.905zm6.973-6.973h39.042v-25.959h-39.042v25.959zM230.696 659.391h52.988V546.872h-52.988v112.519zm6.973-6.973h39.042v-98.573h-39.042v98.573zM304.617 442.125h52.989V326.989h-52.989v115.136zm6.973-6.973h39.043v-101.19H311.59v101.19zM304.617 505.58h52.989v-39.905h-52.989v39.905zm6.973-6.973h39.043v-25.959H311.59v25.959zM304.617 659.391h52.989V546.872h-52.989v112.519zm6.973-6.973h39.043v-98.573H311.59v98.573z" fill="#EDA3B0"/><path fill-rule="evenodd" clip-rule="evenodd" d="M206.49 700.605h175.321v-25.514H206.49v25.514z" fill="#FFD5D7"/><path fill-rule="evenodd" clip-rule="evenodd" d="M261.442 531.171h65.418V519.24h-65.418v11.931z" fill="#EDA3B0"/><path fill-rule="evenodd" clip-rule="evenodd" d="M209.977 284.003h168.347V237.66H209.977v46.343z" fill="#FFD5D7"/><path fill-rule="evenodd" clip-rule="evenodd" d="M206.49 287.488h175.321v-53.315H206.49v53.315zm6.974-6.972h161.374v-39.37H213.464v39.37z" fill="#EDA3B0"/><path fill-rule="evenodd" clip-rule="evenodd" d="M130.932 222.455h326.437v-9.434H130.932v9.434z" fill="#F9C4D4"/><path fill-rule="evenodd" clip-rule="evenodd" d="M113.924 138.008h380.079v-17.009H113.924v17.009z" fill="#FDC5C5"/><path fill-rule="evenodd" clip-rule="evenodd" d="M125.862 158.942h356.202v-20.934H125.862v20.934z" fill="#EDA3B0"/><path fill-rule="evenodd" clip-rule="evenodd" d="M141.562 213.021h326.437v-54.079H141.562v54.079z" fill="#FDC5C5"/><path fill-rule="evenodd" clip-rule="evenodd" d="M141.563 714.996h74.717v-37.725h-74.717v37.725zM168.512 752.721h336.226v-37.724H168.512v37.724z" fill="#EDA3B0"/><path fill-rule="evenodd" clip-rule="evenodd" d="M195.461 790.445h336.226v-37.724H195.461v37.724z" fill="#FDC5C5"/><path fill-rule="evenodd" clip-rule="evenodd" d="M222.41 828.171h336.226v-37.725H222.41v37.725z" fill="#EDA3B0"/><path fill-rule="evenodd" clip-rule="evenodd" d="M117.475 213.021h35.266v-54.079h-35.266v54.079zM117.475 714.996h35.266v-37.725h-35.266v37.725z" fill="#F9C4D4"/><path d="M294.151 237.151v46.85M251.957 237.98v44.915M336.259 237.98v44.915" stroke="#EDA3B0" stroke-width="5.6"/><path fill-rule="evenodd" clip-rule="evenodd" d="M242.905 525.574c0 5.342-4.331 9.674-9.674 9.674-5.344 0-9.674-4.332-9.674-9.674a9.673 9.673 0 019.674-9.674 9.674 9.674 0 019.674 9.674" fill="#EDA3B0"/><path fill-rule="evenodd" clip-rule="evenodd" d="M70.503 478.773H95.84v-60.612H70.503v60.612z" fill="#FDC5C5"/><path fill-rule="evenodd" clip-rule="evenodd" d="M90.818 438.555a7.646 7.646 0 11-15.293 0 7.646 7.646 0 0115.293 0" fill="#EDA3B0"/><path d="M1526 836.895H-60.283" stroke="#EDA3B0" stroke-width="14" stroke-linecap="round"/><path fill-rule="evenodd" clip-rule="evenodd" d="M856.034 546.092h72.749V220.66h-72.749v325.432z" fill="#EDA3B0"/><path fill-rule="evenodd" clip-rule="evenodd" d="M642.19 559.868h26.474V217.003H642.19v342.865z" fill="#F9C4D4"/><path fill-rule="evenodd" clip-rule="evenodd" d="M628.158 572.759h225.348v-12.892H628.158v12.892z" fill="#F9C4D4"/><path fill-rule="evenodd" clip-rule="evenodd" d="M638.489 582.175h204.686v-9.416H638.489v9.416zM629.353 217.002h224.703v-19.493H629.353v19.493zM621.496 197.509h240.415v-12.824H621.496v12.824z" fill="#F9C4D4"/><path fill-rule="evenodd" clip-rule="evenodd" d="M615.47 184.685h252.468v-13.85H615.47v13.85z" fill="#F9C4D4"/><path fill-rule="evenodd" clip-rule="evenodd" d="M655.265 559.868h26.474V217.003h-26.474v342.865zM833.047 559.868h26.474V217.003h-26.474v342.865z" fill="#FDC5C5"/><path fill-rule="evenodd" clip-rule="evenodd" d="M685.225 556.381h144.336V220.489H685.225v335.892z" fill="#FFD5D7"/><path fill-rule="evenodd" clip-rule="evenodd" d="M681.739 559.867h151.308V217.001H681.739v342.866zm6.973-6.973h137.362V223.975H688.712v328.919z" fill="#EDA3B0"/><path d="M685.721 379.934h143.345" stroke="#EDA3B0" stroke-width="8.4"/><path d="M685.721 459.569h143.345M685.721 303.311h143.345M735.44 220.662v334.471M779.347 555.133V220.662" stroke="#EDA3B0" stroke-width="5.6"/><path d="M684.645 543.94h145.498" stroke="#EDA3B0" stroke-width="14.7"/><path fill-rule="evenodd" clip-rule="evenodd" d="M576.416 546.092h72.748V220.66h-72.748v325.432z" fill="#EDA3B0"/><path fill-rule="evenodd" clip-rule="evenodd" d="M570.712 546.092h5.704V220.66h-5.704v325.432z" fill="#F9C4D4"/><path fill-rule="evenodd" clip-rule="evenodd" d="M644.719 572.759h225.348v-12.892H644.719v12.892z" fill="#FDC5C5"/><path fill-rule="evenodd" clip-rule="evenodd" d="M655.05 582.175h204.686v-9.416H655.05v9.416z" fill="#EDA3B0"/><path fill-rule="evenodd" clip-rule="evenodd" d="M645.042 217.002h224.703v-19.493H645.042v19.493z" fill="#FDC5C5"/><path fill-rule="evenodd" clip-rule="evenodd" d="M637.185 197.509H877.6v-12.824H637.185v12.824z" fill="#EDA3B0"/><path fill-rule="evenodd" clip-rule="evenodd" d="M631.159 184.685h252.469v-13.85H631.159v13.85z" fill="#FDC5C5"/><path d="M1018.05 682.348v143.975M946.066 754.335h143.974M967.151 703.433l101.809 101.805M967.151 805.237l101.809-101.806M778.069 683.522l25.901 141.625M720.207 767.285l141.625-25.901M731.79 713.42l118.459 81.83M750.104 813.564l81.831-118.459" stroke="#EDA3B0" stroke-width="1.4"/></g><path fill-rule="evenodd" clip-rule="evenodd" d="M2132.64 754.335c0 14.457 11.72 26.177 26.18 26.177 14.45 0 26.17-11.72 26.17-26.177 0-14.458-11.72-26.177-26.17-26.177-14.46 0-26.18 11.719-26.18 26.177" fill="#EDA3B0"/><path clip-rule="evenodd" d="M2132.64 754.335c0 14.457 11.72 26.177 26.18 26.177 14.45 0 26.17-11.72 26.17-26.177 0-14.458-11.72-26.177-26.17-26.177-14.46 0-26.18 11.719-26.18 26.177z" stroke="#F9C4D4" stroke-width="11.2"/><path fill-rule="evenodd" clip-rule="evenodd" d="M1919.3 754.335c0 6.984 5.66 12.646 12.65 12.646 6.98 0 12.64-5.662 12.64-12.646 0-6.984-5.66-12.646-12.64-12.646-6.99 0-12.65 5.662-12.65 12.646" fill="#EDA3B0"/><path clip-rule="evenodd" d="M1919.3 754.335c0 6.984 5.66 12.646 12.65 12.646 6.98 0 12.64-5.662 12.64-12.646 0-6.984-5.66-12.646-12.64-12.646-6.99 0-12.65 5.662-12.65 12.646z" stroke="#F9C4D4" stroke-width="11.2"/><path clip-rule="evenodd" d="M2086.83 754.334c0 39.757 32.23 71.988 71.99 71.988 39.75 0 71.98-32.231 71.98-71.988 0-39.758-32.23-71.987-71.98-71.987-39.76 0-71.99 32.229-71.99 71.987zM1859.96 754.334c0 39.757 32.23 71.988 71.99 71.988 39.75 0 71.98-32.231 71.98-71.988 0-39.758-32.23-71.987-71.98-71.987-39.76 0-71.99 32.229-71.99 71.987z" stroke="#FFD5D7" stroke-width="7.7"/><path d="M2101.83 635.174l-35.04 119.161-110.8-96.129 139.84-1.49 62.99 97.619h-92.03" stroke="#EDA3B0" stroke-width="8.4" stroke-linejoin="bevel"/><path d="M2012.66 614.724h-43.63l-37.08 140.498" stroke="#EDA3B0" stroke-width="8.4"/><path fill-rule="evenodd" clip-rule="evenodd" d="M2078.28 642.346l41.74 4.455c4.51.481 8.47-2.647 8.47-6.683v-4.455c0-3.716-3.38-6.73-7.56-6.73h-41.75c-4.18 0-7.57 3.014-7.57 6.73 0 3.408 2.87 6.277 6.67 6.683" fill="#F9C4D4"/><path d="M2064.95 754.335v31.766H2078h-26.12" stroke="#F9C4D4" stroke-width="9.1"/><mask id="b" maskUnits="userSpaceOnUse" x="1475" y="121" width="1544" height="875"><path fill-rule="evenodd" clip-rule="evenodd" d="M3019 995.319H1475V121h1544v874.319z" fill="#fff"/></mask><g mask="url(#b)"><path fill-rule="evenodd" clip-rule="evenodd" d="M2015.8 621.267h-28.91v-13.224h28.91v13.224zM2885.01 478.773h-25.34v-60.612h25.34v60.612zM2832.53 714.996h-326.44V158.942h326.44v556.054zM2860.17 138.008h-380.08v-17.009h380.08v17.009zM2848.23 158.942h-356.21v-20.934h356.21v20.934zM2832.53 752.721h-70.54v-37.724h70.54v37.724zM2832.53 790.445h-97.49v-37.724h97.49v37.724zM2832.53 828.171h-124.44v-37.725h124.44v37.725z" fill="#F9C4D4"/><path fill-rule="evenodd" clip-rule="evenodd" d="M2819.07 714.996h-326.44V158.942h326.44v556.054z" fill="#FDC5C5"/><path fill-rule="evenodd" clip-rule="evenodd" d="M2743.51 700.605h-175.32v-399.05h175.32v399.05z" fill="#F9C4D4"/><path fill-rule="evenodd" clip-rule="evenodd" d="M2802.13 646.962h-42.52V248.565h42.52v398.397zM2546.93 714.996h-74.72v-37.725h74.72v37.725zM2552.09 646.962h-42.52V248.565h42.52v398.397zM2719.3 442.125h-52.98V326.989h52.98v115.136zm-6.97-6.973h-39.04v-101.19h39.04v101.19zM2719.3 505.58h-52.98v-39.905h52.98v39.905zm-6.97-6.973h-39.04v-25.959h39.04v25.959zM2719.3 659.391h-52.98V546.872h52.98v112.519zm-6.97-6.973h-39.04v-98.573h39.04v98.573zM2645.38 442.125h-52.99V326.989h52.99v115.136zm-6.97-6.973h-39.04v-101.19h39.04v101.19zM2645.38 505.58h-52.99v-39.905h52.99v39.905zm-6.97-6.973h-39.04v-25.959h39.04v25.959zM2645.38 659.391h-52.99V546.872h52.99v112.519zm-6.97-6.973h-39.04v-98.573h39.04v98.573z" fill="#EDA3B0"/><path fill-rule="evenodd" clip-rule="evenodd" d="M2743.51 700.605h-175.32v-25.514h175.32v25.514z" fill="#FFD5D7"/><path fill-rule="evenodd" clip-rule="evenodd" d="M2688.56 531.171h-65.42V519.24h65.42v11.931z" fill="#EDA3B0"/><path fill-rule="evenodd" clip-rule="evenodd" d="M2740.02 284.003h-168.34V237.66h168.34v46.343z" fill="#FFD5D7"/><path fill-rule="evenodd" clip-rule="evenodd" d="M2743.51 287.488h-175.32v-53.315h175.32v53.315zm-6.97-6.972h-161.38v-39.37h161.38v39.37z" fill="#EDA3B0"/><path fill-rule="evenodd" clip-rule="evenodd" d="M2819.07 222.455h-326.44v-9.434h326.44v9.434z" fill="#F9C4D4"/><path fill-rule="evenodd" clip-rule="evenodd" d="M2836.08 138.008H2456v-17.009h380.08v17.009z" fill="#FDC5C5"/><path fill-rule="evenodd" clip-rule="evenodd" d="M2824.14 158.942h-356.2v-20.934h356.2v20.934z" fill="#EDA3B0"/><path fill-rule="evenodd" clip-rule="evenodd" d="M2808.44 213.021H2482v-54.079h326.44v54.079z" fill="#FDC5C5"/><path fill-rule="evenodd" clip-rule="evenodd" d="M2808.44 714.996h-74.72v-37.725h74.72v37.725zM2781.49 752.721h-336.23v-37.724h336.23v37.724z" fill="#EDA3B0"/><path fill-rule="evenodd" clip-rule="evenodd" d="M2754.54 790.445h-336.23v-37.724h336.23v37.724z" fill="#FDC5C5"/><path fill-rule="evenodd" clip-rule="evenodd" d="M2727.59 828.171h-336.23v-37.725h336.23v37.725z" fill="#EDA3B0"/><path fill-rule="evenodd" clip-rule="evenodd" d="M2832.53 213.021h-35.27v-54.079h35.27v54.079zM2832.53 714.996h-35.27v-37.725h35.27v37.725z" fill="#F9C4D4"/><path d="M2655.85 237.151v46.85M2698.04 237.98v44.915M2613.74 237.98v44.915" stroke="#EDA3B0" stroke-width="5.6"/><path fill-rule="evenodd" clip-rule="evenodd" d="M2707.1 525.574c0 5.342 4.33 9.674 9.67 9.674s9.67-4.332 9.67-9.674c0-5.343-4.33-9.674-9.67-9.674s-9.67 4.331-9.67 9.674" fill="#EDA3B0"/><path fill-rule="evenodd" clip-rule="evenodd" d="M2879.5 478.773h-25.34v-60.612h25.34v60.612z" fill="#FDC5C5"/><path fill-rule="evenodd" clip-rule="evenodd" d="M2859.18 438.555c0 4.223 3.43 7.646 7.65 7.646 4.22 0 7.64-3.423 7.64-7.646a7.643 7.643 0 00-7.64-7.646c-4.22 0-7.65 3.423-7.65 7.646" fill="#EDA3B0"/><path d="M1461 836.895h1549.28" stroke="#EDA3B0" stroke-width="14" stroke-linecap="round"/><path fill-rule="evenodd" clip-rule="evenodd" d="M2093.97 546.092h-72.75V220.66h72.75v325.432z" fill="#EDA3B0"/><path fill-rule="evenodd" clip-rule="evenodd" d="M2307.81 559.868h-26.47V217.003h26.47v342.865z" fill="#F9C4D4"/><path fill-rule="evenodd" clip-rule="evenodd" d="M2321.84 572.759h-225.35v-12.892h225.35v12.892z" fill="#F9C4D4"/><path fill-rule="evenodd" clip-rule="evenodd" d="M2311.51 582.175h-204.68v-9.416h204.68v9.416zM2320.65 217.002h-224.71v-19.493h224.71v19.493zM2328.5 197.509h-240.41v-12.824h240.41v12.824z" fill="#F9C4D4"/><path fill-rule="evenodd" clip-rule="evenodd" d="M2334.53 184.685h-252.47v-13.85h252.47v13.85z" fill="#F9C4D4"/><path fill-rule="evenodd" clip-rule="evenodd" d="M2294.74 559.868h-26.48V217.003h26.48v342.865zM2116.95 559.868h-26.47V217.003h26.47v342.865z" fill="#FDC5C5"/><path fill-rule="evenodd" clip-rule="evenodd" d="M2264.77 556.381h-144.33V220.489h144.33v335.892z" fill="#FFD5D7"/><path fill-rule="evenodd" clip-rule="evenodd" d="M2268.26 559.867h-151.31V217.001h151.31v342.866zm-6.97-6.973h-137.36V223.975h137.36v328.919z" fill="#EDA3B0"/><path d="M2264.28 379.934h-143.35" stroke="#EDA3B0" stroke-width="8.4"/><path d="M2264.28 459.569h-143.35M2264.28 303.311h-143.35M2214.56 220.662v334.471M2170.65 555.133V220.662" stroke="#EDA3B0" stroke-width="5.6"/><path d="M2265.35 543.94h-145.49" stroke="#EDA3B0" stroke-width="14.7"/><path fill-rule="evenodd" clip-rule="evenodd" d="M2373.58 546.092h-72.74V220.66h72.74v325.432z" fill="#EDA3B0"/><path fill-rule="evenodd" clip-rule="evenodd" d="M2379.29 546.092h-5.71V220.66h5.71v325.432z" fill="#F9C4D4"/><path fill-rule="evenodd" clip-rule="evenodd" d="M2305.28 572.759h-225.35v-12.892h225.35v12.892z" fill="#FDC5C5"/><path fill-rule="evenodd" clip-rule="evenodd" d="M2294.95 582.175h-204.69v-9.416h204.69v9.416z" fill="#EDA3B0"/><path fill-rule="evenodd" clip-rule="evenodd" d="M2304.96 217.002h-224.7v-19.493h224.7v19.493z" fill="#FDC5C5"/><path fill-rule="evenodd" clip-rule="evenodd" d="M2312.81 197.509H2072.4v-12.824h240.41v12.824z" fill="#EDA3B0"/><path fill-rule="evenodd" clip-rule="evenodd" d="M2318.84 184.685h-252.47v-13.85h252.47v13.85z" fill="#FDC5C5"/><path d="M1931.95 682.348v143.975M2003.93 754.335h-143.97M1982.85 703.433l-101.81 101.805M1982.85 805.237l-101.81-101.806M2171.93 683.522l-25.9 141.625M2229.79 767.285l-141.62-25.901M2218.21 713.42l-118.46 81.83M2199.9 813.564l-81.84-118.459" stroke="#EDA3B0" stroke-width="1.4"/></g></g><defs><clipPath id="clip0"><path fill="#fff" d="M0 0h2950v880H0z"/></clipPath></defs></svg>