<svg xmlns="http://www.w3.org/2000/svg" id="Слой_1" x="0" y="0" version="1.1" viewBox="0 0 1800 340"><style>.st1{fill:#908cc5}.st2{fill:#382e53}.st3{fill:#f1f1f1}.st4{fill:#ffd24d}.st5{opacity:.7}.st6{fill:none;stroke:#fff;stroke-width:.5;stroke-miterlimit:10}.st7{fill:#fff}.st8{fill:#fda953}.st9{fill:#f66d52}.st10{opacity:.9}.st11{fill:none;stroke:#fda953;stroke-width:.5;stroke-linecap:round;stroke-miterlimit:10}.st12{fill:#d5cee9}.st13,.st15{fill:none;stroke:#b0add9;stroke-width:.75;stroke-miterlimit:10}.st15{opacity:.5;stroke:#fda953;stroke-width:.5;stroke-linecap:round;enable-background:new}.st16{fill:#d15576}.st17,.st18{fill:none;stroke:#f1f1f1;stroke-width:.5;stroke-miterlimit:10}.st18{stroke:#5fae50;stroke-width:.75}.st19{fill:#f66c52}.st20{fill:#fa9155}.st21{fill:#90c74f}.st22{fill:none;stroke:#5fae50;stroke-miterlimit:10}.st29{fill:#55588e}.st30{fill:#586bac}.st31{fill:#6f72b5}.st32{fill:#8885c2}.st33{fill:#575d96}</style><path id="Слой_3" fill="#f6dbcd" d="M0 0h1800v348H0z"/><path d="M163.51 153.67h71.01v110.68h-71.01z" class="st1"/><path d="M212.54 188.89h9.3v-19.66c0-1.88-1.52-3.4-3.4-3.4h-2.5c-1.88 0-3.4 1.52-3.4 3.4v19.66z" class="st2"/><path d="M214.23 187.42h5.92V170.3c0-1.19-.97-2.16-2.16-2.16h-1.59c-1.19 0-2.16.97-2.16 2.16l-.01 17.12z" class="st3"/><path d="M194.58 188.89h9.3v-19.66c0-1.88-1.52-3.4-3.4-3.4h-2.5c-1.88 0-3.4 1.52-3.4 3.4v19.66zm-17.86 0h9.3v-19.66c0-1.88-1.52-3.4-3.4-3.4h-2.5c-1.88 0-3.4 1.52-3.4 3.4v19.66zm35.82 42.14h9.3v-19.66c0-1.88-1.52-3.4-3.4-3.4h-2.5c-1.88 0-3.4 1.52-3.4 3.4v19.66zm-17.86.1h9.3v-19.66c0-1.88-1.52-3.4-3.4-3.4h-2.5c-1.88 0-3.4 1.52-3.4 3.4v19.66zm-17.8.11h9.3v-19.66c0-1.88-1.52-3.4-3.4-3.4h-2.5c-1.88 0-3.4 1.52-3.4 3.4v19.66z" class="st2"/><path d="M163.51 153.68h71.01v3.35h-71.01zm0 42.75h71.01v2.1h-71.01z" class="st4"/><path d="M163.51 247.58h71.01v16.77h-71.01zm-2.97-92.99h77c1.16 0 1.95-1.18 1.49-2.24l-11.88-27.26h-55.47l-12.61 27.23c-.49 1.06.29 2.27 1.47 2.27z" class="st2"/><g class="st5"><path d="M225.22 113.29c-1.64 0-1.64-4-3.27-4-1.64 0-1.64 4-3.27 4-1.64 0-1.64-4-3.27-4-1.64 0-1.64 4-3.27 4-1.64 0-1.64-4-3.27-4-1.64 0-1.64 4-3.28 4s-1.64-4-3.27-4c-1.64 0-1.64 4-3.28 4s-1.64-4-3.28-4-1.64 4-3.28 4-1.64-4-3.27-4c-1.64 0-1.64 4-3.28 4s-1.64-4-3.28-4-1.64 4-3.28 4-1.64-4-3.28-4-1.64 4-3.28 4m54.52 8.81c-1.79 0-1.79-4-3.59-4s-1.8 4-3.59 4-1.79-4-3.59-4-1.8 4-3.59 4-1.79-4-3.59-4-1.8 4-3.59 4c-1.8 0-1.8-4-3.59-4-1.8 0-1.8 4-3.59 4-1.8 0-1.8-4-3.59-4-1.8 0-1.8 4-3.59 4-1.8 0-1.8-4-3.59-4-1.8 0-1.8 4-3.59 4-1.8 0-1.8-4-3.59-4-1.8 0-1.8 4-3.59 4-1.8 0-1.8-4-3.6-4s-1.8 4-3.6 4m59.15 8.38c-1.9 0-1.9-4-3.8-4s-1.9 4-3.8 4-1.9-4-3.8-4-1.9 4-3.8 4-1.9-4-3.8-4-1.9 4-3.8 4-1.9-4-3.8-4-1.9 4-3.8 4-1.9-4-3.8-4-1.9 4-3.8 4-1.9-4-3.8-4-1.9 4-3.8 4-1.9-4-3.8-4-1.9 4-3.81 4-1.91-4-3.81-4c-1.91 0-1.91 4-3.81 4" class="st6" transform="translate(0 21)"/></g><path d="M201.92 138.43l6.44 4.64c1.3.93 2.06 2.43 2.06 4.03v8.64H187.6v-8.64c0-1.6.77-3.1 2.06-4.03l6.44-4.64c1.75-1.25 4.09-1.25 5.82 0z" class="st4"/><path d="M201.92 140.07l4.75 3.42c1.3.93 2.06 2.43 2.06 4.03v6.98h-19.44v-6.98c0-1.6.77-3.1 2.06-4.03l4.75-3.42c1.75-1.25 4.09-1.25 5.82 0z" class="st1"/><path d="M180.55 129.36h6.09c.54 0 .97-.44.97-.97v-15.38h-8.03v15.38c-.01.53.43.97.97.97z" class="st2"/><ellipse cx="199.02" cy="146.95" class="st2" rx="2.86" ry="3.79"/><ellipse cx="199.02" cy="146.95" class="st3" rx="2.11" ry="2.79"/><path d="M179.84 115.53h7.93c.85 0 1.53-.69 1.53-1.53v-1.13c0-.85-.69-1.53-1.53-1.53h-7.93c-.85 0-1.53.69-1.53 1.53V114c0 .84.68 1.53 1.53 1.53z" class="st4"/><path d="M196.27 187.63h5.92v-17.12c0-1.19-.97-2.16-2.16-2.16h-1.59c-1.19 0-2.16.97-2.16 2.16l-.01 17.12zm-17.86.21h5.92v-17.12c0-1.19-.97-2.16-2.16-2.16h-1.59c-1.19 0-2.16.97-2.16 2.16l-.01 17.12zm35.82 41.3h5.92v-17.12c0-1.19-.97-2.16-2.16-2.16h-1.59c-1.19 0-2.16.97-2.16 2.16l-.01 17.12zm-17.86.1h5.92v-17.12c0-1.19-.97-2.16-2.16-2.16h-1.59c-1.19 0-2.16.97-2.16 2.16l-.01 17.12zm-17.8.11h5.92v-17.12c0-1.19-.97-2.16-2.16-2.16h-1.59c-1.19 0-2.16.97-2.16 2.16l-.01 17.12z" class="st3"/><path d="M129.62 93h86.99c5.06 0 8.12-5.63 5.33-9.85-4.54-6.86-12.63-13.63-25.3-6.64 0 0-19.49-29.98-38.97-3 0 0-18.74-14.24-27.73 6.74 0 0-.26 0-.71.02-8.21.47-7.83 12.73.39 12.73zm419.49 14h54.77c8.54 0 11.41-11.87 3.6-15.32-1.48-.66-3.22-.93-5.26-.63-2.68.39-5.38-.63-7.15-2.67-5.88-6.77-19.32-18.37-31.46-.77-1.76 2.55-4.87 3.86-7.93 3.38-2.29-.36-5.12-.52-8.05-.02-9.69 1.66-8.34 16.03 1.48 16.03zm388.65 27h59.16c5.69 0 9.07-6.41 5.82-11.07-2.11-3.02-5.55-4.9-11.15-2.59 0 0-7.23-9.64-12.86-3.21 0 0-22.91-23.71-32.95 4.02 0 0-3.91-1.46-8.5-1.25-9.09.43-8.62 14.1.48 14.1zm282.32-16.37h51.38c2.58 0 4.29-2.67 3.21-5.02-2.08-4.53-6.51-10.03-15.25-6.91 0 0-19.38-21.37-30.81 5.96 0 0-3.71-1.38-7.87-1.08-4.48.32-5.15 7.05-.66 7.05zm214.79-5.63h69.59c5.73 0 6.18-8.63.46-9.03-2.33-.16-2.55.57-6.34 2.82 0 0-2.76-16.57-13.81-8.98 0 0-19.68-28.65-35.21-3.45 0 0-18.99-3.11-18.99 11.39.01 2.64 1.67 7.25 4.3 7.25z" class="st7"/><path d="M234.07 175.61h77.52v89.19h-77.52z" class="st8"/><path d="M234.07 175.6h77.52v5.31h-77.52zm0 37.17h77.52v5.31h-77.52z" class="st4"/><path d="M247.87 186.22h16.99v16.99h-16.99z" class="st9"/><path d="M249.47 187.82h13.8v13.8h-13.8z" class="st3"/><path d="M280.79 186.22h16.99v16.99h-16.99z" class="st9"/><path d="M282.39 187.82h13.8v13.8h-13.8z" class="st3"/><path d="M247.87 227.64h16.99v16.99h-16.99z" class="st9"/><path d="M249.47 229.23h13.8v13.8h-13.8z" class="st3"/><path d="M280.79 227.64h16.99v16.99h-16.99z" class="st9"/><path d="M282.39 229.23h13.8v13.8h-13.8z" class="st3"/><path d="M311.59 175.6h-81.34c-.89 0-1.43-.97-.97-1.73l14.39-23.76h67.92v25.49z" class="st9"/><path d="M234.07 250.47h77.52v14.33h-77.52z" class="st4"/><path d="M255.84 186.76h1.06v15.93h-1.06z" class="st9"/><path d="M248.4 192.06h15.93v1.06H248.4zm40.36-5.3h1.06v15.93h-1.06z" class="st9"/><path d="M281.32 192.07h15.93v1.06h-15.93zm7.44 36.09h1.06v15.93h-1.06z" class="st9"/><path d="M281.33 233.48h15.93v1.06h-15.93zm-25.49-5.32h1.06v15.93h-1.06z" class="st9"/><path d="M248.41 233.48h15.93v1.06h-15.93z" class="st9"/><g class="st10"><path d="M237.79 147.3c2.92 0 2.92 4 5.84 4s2.92-4 5.84-4 2.92 4 5.83 4c2.92 0 2.92-4 5.84-4s2.92 4 5.84 4 2.92-4 5.84-4 2.92 4 5.84 4 2.92-4 5.84-4 2.92 4 5.84 4 2.92-4 5.84-4 2.92 4 5.85 4 2.92-4 5.85-4" class="st11" transform="translate(0 21)"/></g><g class="st10"><path d="M242.03 138.8c2.74 0 2.74 4 5.48 4s2.74-4 5.48-4 2.74 4 5.48 4 2.74-4 5.48-4 2.74 4 5.49 4c2.74 0 2.74-4 5.49-4 2.74 0 2.74 4 5.49 4 2.74 0 2.74-4 5.49-4 2.74 0 2.74 4 5.48 4s2.74-4 5.49-4 2.75 4 5.49 4c2.75 0 2.75-4 5.49-4" class="st11" transform="translate(0 21)"/></g><g class="st10"><path d="M246.28 131.37c2.52 0 2.52 4 5.04 4s2.52-4 5.04-4 2.52 4 5.04 4 2.52-4 5.04-4 2.52 4 5.04 4 2.52-4 5.04-4 2.52 4 5.04 4 2.52-4 5.05-4c2.52 0 2.52 4 5.04 4s2.52-4 5.05-4 2.53 4 5.05 4c2.53 0 2.53-4 5.05-4" class="st11" transform="translate(0 21)"/></g><path d="M260.14 157.02h-8.5c-.48 0-.87-.39-.87-.87v-11.34h10.24v11.34c0 .48-.39.87-.87.87z" class="st4"/><path d="M261.53 145.34h-11.28c-.42 0-.75-.47-.67-.99.49-3.17 3.13-5.6 6.31-5.6 3.18 0 5.82 2.43 6.31 5.6.08.52-.25.99-.67.99z" class="st9"/><path d="M311.59 128.74h110.44v135.54H311.59z" class="st1"/><path d="M311.59 128.74h110.44v2.65H311.59zm0 44.48h110.44v2.65H311.59zm0 38.12h110.44v2.65H311.59zm0 39.18h110.44v14.3H311.59z" class="st12"/><path d="M325.92 141.98h10.62v22.24h-10.62z" class="st2"/><path d="M327.65 144.1h7.17v18h-7.17z" class="st3"/><path d="M362.29 142.51h10.62v22.24h-10.62zm37.04 0h10.62v22.24h-10.62zm-45.27 87.89h28.67v34.42h-28.67z" class="st2"/><path d="M368.4 231.46v33.88m-14.34-33.35v32.82m28.67-32.82v32.82" class="st13"/><path fill="#f67353" d="M425.77 128.74h-119c-.8 0-1.41-.74-1.24-1.52l6.71-32.52c.24-1.14 1.24-1.96 2.41-1.96h103.24c1.17 0 2.17.82 2.41 1.96l6.71 32.52c.17.78-.43 1.52-1.24 1.52zm-40.98 106.95H352c-.86 0-1.52-.78-1.37-1.63l2.49-14.26h30.55l2.49 14.26c.15.86-.5 1.63-1.37 1.63z"/><g class="st10"><path d="M324.86 75.03c3.49 0 3.49 4 6.99 4 3.49 0 3.49-4 6.99-4s3.5 4 6.99 4 3.49-4 6.99-4c3.49 0 3.49 4 6.99 4 3.49 0 3.49-4 6.99-4 3.49 0 3.49 4 6.99 4s3.5-4 6.99-4 3.49 4 6.99 4 3.5-4 6.99-4c3.5 0 3.5 4 7 4s3.5-4 7-4" class="st11" transform="translate(0 21)"/></g><g class="st10"><path d="M321.68 83.5c3.72 0 3.72 4 7.43 4 3.72 0 3.72-4 7.43-4 3.72 0 3.72 4 7.43 4s3.71-4 7.43-4 3.72 4 7.43 4c3.72 0 3.72-4 7.43-4 3.72 0 3.72 4 7.43 4 3.72 0 3.72-4 7.43-4 3.72 0 3.72 4 7.44 4s3.72-4 7.43-4c3.72 0 3.72 4 7.44 4s3.72-4 7.44-4" class="st11" transform="translate(0 21)"/></g><g class="st10"><path d="M320.61 91.97c3.8 0 3.8 4 7.61 4 3.8 0 3.8-4 7.61-4 3.8 0 3.8 4 7.61 4 3.8 0 3.8-4 7.6-4s3.8 4 7.61 4c3.8 0 3.8-4 7.61-4 3.8 0 3.8 4 7.61 4s3.81-4 7.61-4c3.81 0 3.81 4 7.61 4 3.81 0 3.81-4 7.61-4 3.81 0 3.81 4 7.62 4s3.81-4 7.62-4" class="st11" transform="translate(0 21)"/></g><g class="st10"><path d="M319.02 100.45c3.94 0 3.94 4 7.87 4 3.94 0 3.94-4 7.87-4 3.94 0 3.94 4 7.88 4s3.94-4 7.87-4c3.94 0 3.94 4 7.87 4s3.94-4 7.87-4c3.94 0 3.94 4 7.87 4 3.94 0 3.94-4 7.88-4s3.94 4 7.88 4 3.94-4 7.88-4 3.94 4 7.88 4 3.94-4 7.88-4" class="st11" transform="translate(0 21)"/></g><path d="M401.1 101.74h-10.71c-.56 0-1.02-.46-1.02-1.02V84.27h12.74v16.46c0 .55-.45 1.01-1.01 1.01z" class="st1"/><path d="M402.45 84.27h-13.41c-1.28 0-2.32-1.04-2.32-2.32v-1.71c0-1.28 1.04-2.32 2.32-2.32h13.41c1.28 0 2.32 1.04 2.32 2.32v1.71c0 1.28-1.04 2.32-2.32 2.32zm-20.09 44.47h2.68c0-9.36-7.6-16.94-16.99-16.94-9.39 0-16.99 7.58-16.99 16.94h31.3z" class="st2"/><path d="M353.73 128.74c.41-7.53 6.66-13.5 14.31-13.5s13.9 5.97 14.31 13.5h-28.62z" class="st1"/><ellipse cx="368.04" cy="122.92" class="st3" rx="3.19" ry="3.18"/><path d="M364.02 144.1h7.17v18h-7.17zm37.03.53h7.17v18h-7.17z" class="st3"/><path d="M325.92 182.22h10.62v22.24h-10.62z" class="st2"/><path d="M327.65 184.34h7.17v18h-7.17z" class="st3"/><path d="M362.29 182.75h10.62v22.24h-10.62zm37.04 0h10.62v22.24h-10.62z" class="st2"/><path d="M364.02 184.34h7.17v18h-7.17zm37.03.52h7.17v18h-7.17z" class="st3"/><path d="M325.92 222.46h10.62v22.24h-10.62z" class="st2"/><path d="M327.65 224.57h7.17v18h-7.17z" class="st3"/><path d="M399.33 222.99h10.62v22.24h-10.62z" class="st2"/><path d="M401.05 225.1h7.17v18h-7.17z" class="st3"/><path d="M356.72 222.46l-1.6 9m8.49-6.36l-.51 6.42m7.53-8.53l.32 8.54m7.81-8.52l1.04 8.49" class="st15"/><path d="M326.45 147.8h9.56v1.06h-9.56zm36.64.53h9.56v1.06h-9.56zm37.16 0h9.56v1.06h-9.56zm-73.8 39.71h9.56v1.06h-9.56zm36.64.53h9.56v1.06h-9.56zm37.16 0h9.56v1.06h-9.56zm-73.8 39.71h9.56v1.06h-9.56zm73.8.53h9.56v1.06h-9.56z" class="st2"/><path d="M731.59 128.74H872v135.54H731.59z" class="st16"/><path d="M731.59 128.74H872v3.37H731.59zm0 44.48H872v3.37H731.59zm0 38.12H872v3.37H731.59zm0 39.18H872v14.3H731.59z" class="st12"/><path d="M876.41 128.74H727.1c-1.01 0-1.76-.74-1.56-1.52l8.42-32.52c.3-1.14 1.56-1.96 3.02-1.96h129.53c1.47 0 2.73.82 3.02 1.96l8.42 32.52c.22.78-.53 1.52-1.54 1.52z" class="st1"/><path d="M742.86 75.03c4.67 0 4.67 4 9.34 4s4.67-4 9.34-4 4.67 4 9.34 4 4.67-4 9.34-4 4.67 4 9.34 4 4.67-4 9.34-4 4.67 4 9.34 4 4.67-4 9.34-4 4.67 4 9.35 4c4.67 0 4.67-4 9.34-4 4.68 0 4.68 4 9.35 4 4.68 0 4.68-4 9.35-4M739.68 83.5c4.93 0 4.93 4 9.86 4s4.93-4 9.86-4 4.93 4 9.86 4 4.93-4 9.86-4 4.93 4 9.86 4 4.93-4 9.86-4 4.93 4 9.86 4 4.93-4 9.86-4 4.93 4 9.86 4 4.93-4 9.86-4 4.93 4 9.87 4c4.93 0 4.93-4 9.87-4M738.61 91.97c5.14 0 5.14 4 10.28 4s5.14-4 10.28-4 5.14 4 10.28 4 5.14-4 10.28-4 5.14 4 10.28 4 5.14-4 10.28-4 5.14 4 10.28 4 5.14-4 10.28-4 5.14 4 10.29 4c5.14 0 5.14-4 10.28-4s5.14 4 10.29 4 5.14-4 10.29-4M737.02 100.45c5.29 0 5.29 4 10.58 4s5.29-4 10.58-4 5.29 4 10.58 4 5.29-4 10.58-4 5.29 4 10.58 4 5.29-4 10.58-4 5.29 4 10.58 4 5.29-4 10.58-4 5.29 4 10.58 4 5.29-4 10.58-4 5.29 4 10.59 4c5.29 0 5.29-4 10.59-4" class="st17" transform="translate(0 21)"/><path d="M856.1 101.74h-10.71c-.56 0-1.02-.46-1.02-1.02V84.27h12.74v16.46c0 .55-.45 1.01-1.01 1.01z" class="st12"/><path d="M857.45 84.27h-13.41c-1.28 0-2.32-1.04-2.32-2.32v-1.71c0-1.28 1.04-2.32 2.32-2.32h13.41c1.28 0 2.32 1.04 2.32 2.32v1.71c0 1.28-1.04 2.32-2.32 2.32z" class="st2"/><path d="M741.56 208.9h28.67v34.42h-28.67z" class="st2" transform="translate(0 21)"/><path d="M755.9 208.96v33.88m-14.34-32.35v32.82m28.67-32.82v32.82" class="st13" transform="translate(0 21)"/><path d="M772.29 214.19H739.5c-.86 0-1.52-.78-1.37-1.63l2.49-14.26h30.55l2.49 14.26c.15.86-.5 1.63-1.37 1.63z" class="st1" transform="translate(0 21)"/><path d="M744.22 200.96l-1.6 9m8.49-6.36l-.51 6.42m7.53-8.53l.32 8.54m7.81-8.52l1.04 8.49" class="st15" transform="translate(0 21)"/><path d="M744.92 120.98H767v22.24h-22.08z" class="st2" transform="translate(0 21)"/><path d="M746.65 123.1H765v18h-18.35z" class="st3" transform="translate(0 21)"/><path d="M745.45 126.8H767v1.06h-21.55z" class="st2" transform="translate(0 21)"/><path d="M755.69 121.01h1.06v21.1h-1.06zM837.92 120.98H860v22.24h-22.08z" class="st2" transform="translate(0 21)"/><path d="M839.65 123.1H858v18h-18.35z" class="st3" transform="translate(0 21)"/><path d="M838.45 126.8H860v1.06h-21.55z" class="st2" transform="translate(0 21)"/><path d="M848.69 121.01h1.06v21.1h-1.06zM744.92 161.98H767v22.24h-22.08z" class="st2" transform="translate(0 21)"/><path d="M746.65 164.1H765v18h-18.35z" class="st3" transform="translate(0 21)"/><path d="M745.45 167.8H767v1.06h-21.55z" class="st2" transform="translate(0 21)"/><path d="M755.69 162.01h1.06v21.1h-1.06zM775.92 200.98H798v22.24h-22.08z" class="st2" transform="translate(0 21)"/><path d="M777.65 203.1H796v18h-18.35z" class="st3" transform="translate(0 21)"/><path d="M776.45 206.8H798v1.06h-21.55z" class="st2" transform="translate(0 21)"/><path d="M786.69 201.01h1.06v21.1h-1.06zM775.92 161.98H798v22.24h-22.08z" class="st2" transform="translate(0 21)"/><path d="M777.65 164.1H796v18h-18.35z" class="st3" transform="translate(0 21)"/><path d="M776.45 167.8H798v1.06h-21.55z" class="st2" transform="translate(0 21)"/><path d="M786.69 162.01h1.06v21.1h-1.06zM806.92 161.98H829v22.24h-22.08z" class="st2" transform="translate(0 21)"/><path d="M808.65 164.1H827v18h-18.35z" class="st3" transform="translate(0 21)"/><path d="M807.45 167.8H829v1.06h-21.55z" class="st2" transform="translate(0 21)"/><path d="M817.69 162.01h1.06v21.1h-1.06zM837.92 161.98H860v22.24h-22.08z" class="st2" transform="translate(0 21)"/><path d="M839.65 164.1H858v18h-18.35z" class="st3" transform="translate(0 21)"/><path d="M838.45 167.8H860v1.06h-21.55z" class="st2" transform="translate(0 21)"/><path d="M848.69 162.01h1.06v21.1h-1.06zM806.92 200.98H829v22.24h-22.08z" class="st2" transform="translate(0 21)"/><path d="M808.65 203.1H827v18h-18.35z" class="st3" transform="translate(0 21)"/><path d="M807.45 206.8H829v1.06h-21.55z" class="st2" transform="translate(0 21)"/><path d="M817.69 201.01h1.06v21.1h-1.06zM837.92 200.98H860v22.24h-22.08z" class="st2" transform="translate(0 21)"/><path d="M839.65 203.1H858v18h-18.35z" class="st3" transform="translate(0 21)"/><path d="M838.45 206.8H860v1.06h-21.55z" class="st2" transform="translate(0 21)"/><path d="M848.69 201.01h1.06v21.1h-1.06z" class="st2" transform="translate(0 21)"/><path d="M775.92 141.98H798v22.24h-22.08z" class="st2"/><path d="M777.65 144.1H796v18h-18.35z" class="st3"/><path d="M776.45 147.8H798v1.06h-21.55zm30.47-5.82H829v22.24h-22.08z" class="st2"/><path d="M808.65 144.1H827v18h-18.35z" class="st3"/><path d="M807.45 147.8H829v1.06h-21.55z" class="st2"/><path d="M422.02 143.99h77.52v99.82h-77.52z" class="st4" transform="translate(0 21)"/><path d="M433.7 153.54h10.62v22.3H433.7z" class="st9" transform="translate(0 21)"/><path d="M435.3 155.14h7.43v19.11h-7.43z" class="st3" transform="translate(0 21)"/><path d="M458.13 153.54h10.62v22.3h-10.62zm24.42 0h10.62v22.3h-10.62zm18.24-9.55h-78.76v-5.31h78.76c1.07 0 1.94.87 1.94 1.94v1.43c0 1.07-.87 1.94-1.94 1.94z" class="st9" transform="translate(0 21)"/><path d="M476.18 121.69h12.74v16.99h-12.74z" class="st4" transform="translate(0 21)"/><path d="M490.51 127h-15.93v-3.95c0-1.63 1.32-2.95 2.95-2.95h10.02c1.63 0 2.95 1.32 2.95 2.95l.01 3.95zm10.66 61.58h-79.15v-4.25h79.15c.86 0 1.55.69 1.55 1.55v1.14c.01.87-.69 1.56-1.55 1.56zm-1.1 38.76v14.87c0 .53-.19 1.02-.53 1.39-.05.07-.13.15-.2.2h-77.32v-18.58h75.92c.64 0 1.21.29 1.59.73.35.37.54.86.54 1.39z" class="st9" transform="translate(0 21)"/><path d="M459.72 155.14h7.43v19.11h-7.43zm24.42 0h7.43v19.11h-7.43z" class="st3" transform="translate(0 21)"/><path d="M433.7 197.08h10.62v22.3H433.7z" class="st9" transform="translate(0 21)"/><path d="M435.3 198.67h7.43v19.11h-7.43z" class="st3" transform="translate(0 21)"/><path d="M458.13 197.08h10.62v22.3h-10.62zm24.42 0h10.62v22.3h-10.62z" class="st9" transform="translate(0 21)"/><path d="M459.72 198.67h7.43v19.11h-7.43zm24.42 0h7.43v19.11h-7.43z" class="st3" transform="translate(0 21)"/><path d="M434.23 158.32h9.56v1.06h-9.56zm24.43 0h9.56v1.06h-9.56zm24.42 0h9.56v1.06h-9.56zm-48.85 43.54h9.56v1.06h-9.56zm24.43 0h9.56v1.06h-9.56zm24.42 0h9.56v1.06h-9.56z" class="st9" transform="translate(0 21)"/><g><path d="M1146.46 161.49h69.89v80.42h-69.89z" class="st8" transform="translate(0 21)"/><path d="M1146.46 161.48h69.89v4.79h-69.89zm0 33.51h69.89v4.79h-69.89z" class="st4" transform="translate(0 21)"/><path d="M1188.59 171.05h15.32v15.32h-15.32z" class="st9" transform="translate(0 21)"/><path d="M1190.02 172.49h12.45v12.45h-12.45z" class="st3" transform="translate(0 21)"/><path d="M1158.91 171.05h15.32v15.32h-15.32z" class="st9" transform="translate(0 21)"/><path d="M1160.34 172.49h12.45v12.45h-12.45z" class="st3" transform="translate(0 21)"/><path d="M1188.59 208.39h15.32v15.32h-15.32z" class="st9" transform="translate(0 21)"/><path d="M1190.02 209.83h12.45v12.45h-12.45z" class="st3" transform="translate(0 21)"/><path d="M1158.91 208.39h15.32v15.32h-15.32z" class="st9" transform="translate(0 21)"/><path d="M1160.34 209.83h12.45v12.45h-12.45z" class="st3" transform="translate(0 21)"/><path d="M1146.46 161.48h73.33c.8 0 1.29-.87.88-1.56l-12.97-21.42h-61.24v22.98z" class="st9" transform="translate(0 21)"/><path d="M1146.94 228.98h68.93v13.4h-68.93z" class="st4" transform="translate(0 21)"/><path d="M1195.77 171.53h.96v14.36h-.96z" class="st9" transform="translate(0 21)"/><path d="M1189.06 176.33h14.36v.96h-14.36zm-22.97-4.8h.96v14.36h-.96z" class="st9" transform="translate(0 21)"/><path d="M1159.38 176.33h14.36v.96h-14.36zm6.71 32.54h.96v14.36h-.96z" class="st9" transform="translate(0 21)"/><path d="M1159.38 213.67h14.36v.96h-14.36zm36.39-4.8h.96v14.36h-.96z" class="st9" transform="translate(0 21)"/><path d="M1189.06 213.67h14.36v.96h-14.36z" class="st9" transform="translate(0 21)"/><g class="st10"><path d="M1213 158.69c-2.63 0-2.63-4-5.26-4s-2.63 4-5.26 4-2.63-4-5.26-4-2.63 4-5.26 4-2.63-4-5.27-4c-2.63 0-2.63 4-5.27 4-2.63 0-2.63-4-5.27-4-2.63 0-2.63 4-5.27 4-2.63 0-2.63-4-5.26-4s-2.63 4-5.27 4-2.64-4-5.27-4c-2.64 0-2.64 4-5.27 4" class="st11" transform="translate(0 21)"/></g><g class="st10"><path d="M1209.17 151.04c-2.47 0-2.47-4-4.94-4s-2.47 4-4.94 4-2.47-4-4.94-4-2.47 4-4.94 4-2.47-4-4.95-4c-2.47 0-2.47 4-4.95 4s-2.47-4-4.95-4c-2.47 0-2.47 4-4.95 4-2.47 0-2.47-4-4.95-4-2.47 0-2.47 4-4.95 4s-2.48-4-4.95-4-2.48 4-4.95 4" class="st11" transform="translate(0 21)"/></g><g class="st10"><path d="M1205.34 144.33c-2.27 0-2.27-4-4.54-4s-2.27 4-4.55 4c-2.27 0-2.27-4-4.54-4s-2.27 4-4.55 4c-2.27 0-2.27-4-4.55-4-2.27 0-2.27 4-4.55 4s-2.27-4-4.55-4c-2.27 0-2.27 4-4.55 4-2.27 0-2.27-4-4.55-4s-2.28 4-4.55 4c-2.28 0-2.28-4-4.55-4-2.28 0-2.28 4-4.55 4" class="st11" transform="translate(0 21)"/></g><path d="M1192.93 144.73h7.49c.48 0 .87-.39.87-.87v-10.14h-9.23v10.14c0 .48.39.87.87.87z" class="st4" transform="translate(0 21)"/><path d="M1191.59 134.2h10.17c.38 0 .67-.43.6-.89-.44-2.86-2.83-5.05-5.69-5.05s-5.25 2.19-5.69 5.05c-.06.46.23.89.61.89z" class="st9" transform="translate(0 21)"/></g><g transform="translate(0 21)"><path fill="none" stroke="#000" stroke-miterlimit="10" d="M1023.79 236.4h-22.81v-13.34c0-3.04 2.46-5.5 5.5-5.5h11.81c3.04 0 5.5 2.46 5.5 5.5v13.34z"/><path fill="#fca053" d="M989.08 178.88h78.34v63.47h-78.34z"/><path d="M989.08 178.88h78.34v3.47h-78.34z" class="st4"/><path d="M1024.88 209.91h-9.52v-12.78c0-2.02 1.64-3.66 3.66-3.66h2.2c2.02 0 3.66 1.64 3.66 3.66v12.78z" class="st16"/><path d="M1024.88 209.91h-9.52v-12.78c0-2.02 1.64-3.66 3.66-3.66h2.2c2.02 0 3.66 1.64 3.66 3.66v12.78zm-15.87 0h-9.52v-12.78c0-2.02 1.64-3.66 3.66-3.66h2.2c2.02 0 3.66 1.64 3.66 3.66v12.78z" class="st16"/><path d="M1007.57 208.89h-6.63v-11.85c0-1.41 1.14-2.55 2.55-2.55h1.53c1.41 0 2.55 1.14 2.55 2.55v11.85zm15.86 0h-6.63v-11.85c0-1.41 1.14-2.55 2.55-2.55h1.53c1.41 0 2.55 1.14 2.55 2.55v11.85z" class="st7"/><path d="M1024.88 233.71h-9.52v-12.78c0-2.02 1.64-3.66 3.66-3.66h2.2c2.02 0 3.66 1.64 3.66 3.66v12.78z" class="st16"/><path d="M1023.43 232.69h-6.63v-11.85c0-1.41 1.14-2.55 2.55-2.55h1.53c1.41 0 2.55 1.14 2.55 2.55v11.85z" class="st7"/><path d="M1009.01 233.71h-9.52v-12.78c0-2.02 1.64-3.66 3.66-3.66h2.2c2.02 0 3.66 1.64 3.66 3.66v12.78z" class="st16"/><path d="M1007.57 232.69h-6.63v-11.85c0-1.41 1.14-2.55 2.55-2.55h1.53c1.41 0 2.55 1.14 2.55 2.55v11.85z" class="st7"/><path d="M1040.6 209.91h-9.52v-12.78c0-2.02 1.64-3.66 3.66-3.66h2.2c2.02 0 3.66 1.64 3.66 3.66v12.78zm15.64 0h-9.52v-12.78c0-2.02 1.64-3.66 3.66-3.66h2.2c2.02 0 3.66 1.64 3.66 3.66v12.78zm2.14 32.44h-24.79V227.1c0-5.27 4.27-9.53 9.53-9.53h5.72c5.27 0 9.53 4.27 9.53 9.53v15.25h.01z" class="st16"/><path d="M1056.39 240.87h-20.83v-8.43c0-6.85 3.57-12.4 10.41-12.4 6.85 0 10.41 5.55 10.41 12.4l.01 8.43z" class="st4"/><path d="M1068.15 179.88H988.4c-1.15 0-1.99-1.1-1.68-2.21l11.73-39.08c.33-1.1 1.34-1.85 2.48-1.85h55.6c1.17 0 2.19.78 2.5 1.9l10.82 39.06c.28 1.1-.56 2.18-1.7 2.18z" class="st16"/><g class="st5"><path d="M1006.44 140.69c1.59 0 1.59 4 3.18 4s1.59-4 3.19-4c1.59 0 1.59 4 3.18 4s1.59-4 3.19-4c1.59 0 1.59 4 3.19 4 1.59 0 1.59-4 3.19-4 1.59 0 1.59 4 3.19 4 1.59 0 1.59-4 3.19-4 1.59 0 1.59 4 3.18 4s1.59-4 3.19-4c1.59 0 1.59 4 3.19 4 1.59 0 1.59-4 3.19-4s1.6 4 3.19 4 1.6-4 3.19-4m-48.6 12.39c1.87 0 1.87 4 3.75 4s1.88-4 3.75-4c1.88 0 1.88 4 3.75 4 1.88 0 1.88-4 3.75-4 1.88 0 1.88 4 3.75 4 1.88 0 1.88-4 3.75-4 1.88 0 1.88 4 3.75 4s1.88-4 3.75-4 1.88 4 3.75 4c1.88 0 1.88-4 3.75-4 1.88 0 1.88 4 3.75 4 1.88 0 1.88-4 3.76-4s1.88 4 3.76 4 1.88-4 3.76-4m-55.51 14.88c2.09 0 2.09 4 4.17 4 2.09 0 2.09-4 4.18-4s2.09 4 4.17 4c2.09 0 2.09-4 4.18-4s2.09 4 4.18 4 2.09-4 4.18-4 2.09 4 4.18 4 2.09-4 4.18-4 2.09 4 4.18 4 2.09-4 4.18-4 2.09 4 4.18 4 2.09-4 4.18-4 2.09 4 4.19 4c2.09 0 2.09-4 4.19-4" class="st6"/></g><path d="M1022.48 156.87l-3.32 2.41c-3.3 2.4-4.68 6.64-3.42 10.52l3.38 10.4h17.77l3.38-10.4c1.26-3.88-.12-8.12-3.42-10.52l-3.32-2.41c-3.29-2.39-7.76-2.39-11.05 0z" class="st4"/><circle cx="1028.01" cy="166.49" r="5.95" class="st16" transform="matrix(.2298 -.9732 .9732 .2298 629.7853 1128.748)"/><path d="M1028.01 162.28c2.33 0 4.21 1.88 4.21 4.21s-1.88 4.21-4.21 4.21-4.21-1.88-4.21-4.21 1.88-4.21 4.21-4.21zm11.14 46.61h-6.63v-11.85c0-1.41 1.14-2.55 2.55-2.55h1.53c1.41 0 2.55 1.14 2.55 2.55v11.85zm15.65 0h-6.63v-11.85c0-1.41 1.14-2.55 2.55-2.55h1.53c1.41 0 2.55 1.14 2.55 2.55v11.85z" class="st7"/><path d="M1045.36 218.06h.99v23.8h-.99z" class="st16"/><path fill="none" stroke="#d15576" stroke-miterlimit="10" stroke-width=".5" d="M1040.65 219.54v21.82m9.92-21.32v21.82"/><path d="M999.49 199.71h9.42v.5h-9.42zm23.8-33.72h9.42v.5h-9.42z" class="st16"/><path d="M1027.76 161.53h.5v9.42h-.5zm-12.4 38.18h9.42v.5h-9.42zm-15.87 23.8h9.42v.5h-9.42zm15.87 0h9.42v.5h-9.42zm15.87-23.8h8.93v.5h-8.93zm15.87 0h8.43v.5h-8.43zm-42.89.49z" class="st16"/><circle cx="1047.59" cy="231.44" r=".5" class="st16"/></g><g transform="translate(0 21)"><path d="M1068.42 111.54h83.3v130.9h-83.3z" class="st4"/><path d="M1094.21 153.19h-10.91v-23.08c0-2.32 1.88-4.2 4.2-4.2h2.52c2.32 0 4.2 1.88 4.2 4.2l-.01 23.08z" class="st16"/><path d="M1092.23 151.46h-6.94v-20.14c0-1.47 1.2-2.67 2.67-2.67h1.6c1.47 0 2.67 1.2 2.67 2.67v20.14z" class="st3"/><path d="M1115.28 153.19h-10.91v-23.08c0-2.32 1.88-4.2 4.2-4.2h2.52c2.32 0 4.2 1.88 4.2 4.2l-.01 23.08zm20.95 0h-10.91v-23.08c0-2.32 1.88-4.2 4.2-4.2h2.52c2.32 0 4.2 1.88 4.2 4.2l-.01 23.08zm-42.02 49.84h-10.91v-23.08c0-2.32 1.88-4.2 4.2-4.2h2.52c2.32 0 4.2 1.88 4.2 4.2l-.01 23.08zm20.95.12h-10.91v-23.08c0-2.32 1.88-4.2 4.2-4.2h2.52c2.32 0 4.2 1.88 4.2 4.2l-.01 23.08zm20.89.12h-10.91V180.2c0-2.32 1.88-4.2 4.2-4.2h2.52c2.32 0 4.2 1.88 4.2 4.2l-.01 23.07zm-67.63-91.73h83.3v3.97h-83.3zm0 50.58h83.3v2.48h-83.3zm0 60.49h83.3v19.83h-83.3z" class="st16"/><path d="M1155.21 112.63h-90.34c-1.37 0-2.29-1.4-1.74-2.65l13.94-32.24h65.07l14.79 32.2c.58 1.25-.34 2.69-1.72 2.69z" class="st20"/><g class="st5"><path d="M1079.33 84.25c1.92 0 1.92 4 3.84 4s1.92-4 3.84-4 1.92 4 3.84 4 1.92-4 3.84-4 1.92 4 3.84 4 1.92-4 3.84-4 1.92 4 3.84 4 1.92-4 3.84-4 1.92 4 3.84 4 1.92-4 3.84-4 1.92 4 3.84 4 1.92-4 3.84-4 1.92 4 3.84 4 1.92-4 3.84-4c1.93 0 1.93 4 3.85 4 1.93 0 1.93-4 3.85-4m-63.94 10.42c2.11 0 2.11 4 4.21 4 2.11 0 2.11-4 4.21-4s2.1 4 4.21 4 2.11-4 4.21-4c2.11 0 2.11 4 4.21 4 2.11 0 2.11-4 4.21-4 2.11 0 2.11 4 4.21 4 2.11 0 2.11-4 4.21-4 2.11 0 2.11 4 4.22 4s2.11-4 4.22-4 2.11 4 4.22 4 2.11-4 4.21-4c2.11 0 2.11 4 4.22 4s2.11-4 4.22-4 2.11 4 4.22 4 2.11-4 4.22-4m-69.41 9.91c2.23 0 2.23 4 4.46 4s2.23-4 4.46-4 2.23 4 4.46 4 2.23-4 4.46-4 2.23 4 4.46 4 2.23-4 4.46-4 2.23 4 4.46 4 2.23-4 4.46-4 2.23 4 4.46 4 2.23-4 4.46-4 2.23 4 4.46 4 2.23-4 4.46-4 2.23 4 4.46 4 2.23-4 4.47-4c2.23 0 2.23 4 4.47 4 2.23 0 2.23-4 4.47-4" class="st6"/></g><path d="M1107.16 93.16l-8.42 6.12c-1.29.93-2.05 2.43-2.05 4.02V114h26.78v-10.7c0-1.59-.76-3.08-2.05-4.02l-8.42-6.12c-1.75-1.27-4.1-1.27-5.84 0z" class="st16"/><path d="M1107.16 95.09l-6.44 4.68c-1.29.93-2.05 2.43-2.05 4.02v8.74h22.81v-8.74c0-1.59-.76-3.08-2.05-4.02l-6.44-4.68c-1.74-1.26-4.09-1.26-5.83 0z" class="st4"/><path d="M1131.91 82.78h-7.48c-.54 0-.97-.44-.97-.97V63.45h9.42v18.37c0 .53-.43.96-.97.96z" class="st16"/><ellipse cx="1110.08" cy="103.59" class="st16" rx="3.36" ry="4.48"/><ellipse cx="1110.08" cy="103.59" class="st3" rx="2.48" ry="3.31"/><path d="M1132.47 66.42h-9.08c-1.05 0-1.91-.85-1.91-1.91v-1.14c0-1.05.85-1.91 1.91-1.91h9.08c1.05 0 1.91.85 1.91 1.91v1.14c-.01 1.06-.86 1.91-1.91 1.91z" class="st20"/><path d="M1113.3 151.71h-6.94v-20.14c0-1.47 1.2-2.67 2.67-2.67h1.6c1.47 0 2.67 1.2 2.67 2.67v20.14zm20.95.24h-6.94v-20.14c0-1.47 1.2-2.67 2.67-2.67h1.6c1.47 0 2.67 1.2 2.67 2.67v20.14zm-42.02 48.84h-6.94v-20.14c0-1.47 1.2-2.67 2.67-2.67h1.6c1.47 0 2.67 1.2 2.67 2.67v20.14zm20.94.13h-6.94v-20.14c0-1.47 1.2-2.67 2.67-2.67h1.6c1.47 0 2.67 1.2 2.67 2.67v20.14zm20.89.12h-6.94V180.9c0-1.47 1.2-2.67 2.67-2.67h1.6c1.47 0 2.67 1.2 2.67 2.67v20.14z" class="st3"/></g><g transform="translate(0 21)"><path d="M993.53 242.4c-5.02 3.45-10.41 4.19-16.3 4.23-.23.01-.46.01-.7.01h-19.82c-4.33 0-7.96.75-11.54-2.25l-.06-.06c-.6-.5-1.17-1.03-1.62-1.67-3.12-4.36 1.02-11.86 6.58-9.52 2.28.95 4.33 5.02 6.58 1.86 1.21-1.69 2.35-3.1 3.44-4.28 11.6-12.59 16.66 1.81 21.44-2.14 2.83-2.34 6.58-3.92 10.16-2.31 6.15 2.77 7.51 12.24 1.84 16.13z" class="st21"/><linearGradient id="SVGID_1_" x1="959.8813" x2="1008.0363" y1="100.4247" y2="117.1198" gradientTransform="matrix(1 0 0 -1 0 342)" gradientUnits="userSpaceOnUse"><stop offset="0" stop-color="#90c74f" stop-opacity=".1"/><stop offset=".1259" stop-color="#81bf4f" stop-opacity=".2438"/><stop offset=".3663" stop-color="#6ab350" stop-opacity=".5182"/><stop offset=".5924" stop-color="#5cac50" stop-opacity=".7765"/><stop offset=".7882" stop-color="#57a950"/></linearGradient><path fill="url(#SVGID_1_)" d="M993.53 242.4c-5.02 3.45-10.41 4.19-16.3 4.23.08-.19.18-.39.28-.57 1.77-3.07 5.36-4.53 7.97-6.92.71-.66 1.4-1.51 1.31-2.48-.13-1.19-1.45-1.94-2.65-1.96s-2.34.47-3.51.76c-4.05.98-8.61-.77-10.97-4.21-.31-.46-.6-.95-1.06-1.26-.38-.25-.84-.35-1.3-.42-1.91-.28-3.89-.06-5.71.58-.41.15-.96.4-1.52.56 11.6-12.59 16.66 1.81 21.44-2.14 2.83-2.34 6.58-3.92 10.16-2.31 6.17 2.78 7.53 12.25 1.86 16.14z"/></g><g transform="translate(0 21)"><path d="M1286.46 176.06s4.08 21.41 13.25 17.33l-2.04 8.16s-7.14-3.06-14.27-24.47l3.06-1.02z" class="st20"/><path d="M1299.76 171.39c0 2.25-10.26 66.24-16.42 72.98h16.42s-3.08-24.7 6.16-68.49l-6.16-4.49z" class="st20"/><path d="M1360 153.96c-.02 7-3.87 14.66-10.7 17.62-3.21 1.39-6.9.63-9.71 2.76-3.72 2.85-2.16 6.88-3.62 10.69-1.04 2.74-2.64 4.48-4.58 5.52-4.39 2.37-10.51 1.12-15.72-.16-4.27-1.06-6.84-4.72-10.94-6.2-3.16-1.14-6.6-.99-9.94-.86-.74.03-1.49.06-2.22.07-12.69.24-25.09-8.22-29.49-20.12-1.93-5.22-2.12-11.8 1.9-15.64 1.57-1.51 3.62-2.43 5.16-3.97 5.15-5.14-2.03-9.41-3.44-13.99-2.77-9.02 14.7-16.45 21.5-14.2 2.21.74 7.09.44 9.07-.76 5.01-3.07.11-4.13-1.33-7.88-1.07-2.82 1.98-5.94 5.53-8.41 2.74-1.91 5.77-3.43 7.4-4.12 5.44-2.3 11.52-2.98 17.36-2.07 11.88 1.86 22.02 10.24 25.61 21.77 1.7 5.46 2.65 10.46-2.12 14.85-1.82 1.68-7.75 5.15-4.71 8.18 2.69 2.69 6.64 2.54 9.87 4.34 4.84 2.7 5.15 7.4 5.12 12.58z" class="st21"/><linearGradient id="SVGID_2_" x1="1282.6978" x2="1381.2297" y1="204.1329" y2="194.4778" gradientTransform="matrix(1 0 0 -1 0 342)" gradientUnits="userSpaceOnUse"><stop offset="0" stop-color="#90c74f" stop-opacity=".1"/><stop offset=".1259" stop-color="#81bf4f" stop-opacity=".2438"/><stop offset=".3663" stop-color="#6ab350" stop-opacity=".5182"/><stop offset=".5924" stop-color="#5cac50" stop-opacity=".7765"/><stop offset=".7882" stop-color="#57a950"/></linearGradient><path fill="url(#SVGID_2_)" d="M1360 153.96c-.02 7-3.87 14.66-10.7 17.62-3.21 1.39-6.9.63-9.71 2.76-3.72 2.85-2.16 6.88-3.62 10.69-1.04 2.74-2.64 4.48-4.58 5.52-4.39 2.37-10.51 1.12-15.72-.16-4.27-1.06-6.84-4.72-10.94-6.2-3.16-1.14-6.6-.99-9.94-.86-.27-1.44-.28-2.91.03-4.34 1.45-6.76 9.24-10.24 16.14-10.32 5.14-.06 10.96.94 14.84-2.43 3.12-2.69 3.72-7.57 2.13-11.38-1.58-3.8-4.96-6.63-8.66-8.46-2.12-1.05-4.41-1.87-6.14-3.48-3.5-3.27-3.28-9.65.42-12.7 2.62-2.15 6.34-2.59 8.95-4.75 3.88-3.21 4.09-9.24 2.31-13.96-2.39-6.33-7.83-11.43-14.31-13.39-2.11-.64-5.55-.17-9.04.3 2.74-1.91 5.77-3.43 7.4-4.12 5.44-2.3 11.52-2.98 17.36-2.07 11.88 1.86 22.02 10.24 25.61 21.77 1.7 5.46 2.65 10.46-2.12 14.85-1.82 1.68-7.75 5.15-4.71 8.18 2.69 2.69 6.64 2.54 9.87 4.34 4.85 2.71 5.16 7.41 5.13 12.59z"/></g><g transform="translate(0 21)"><path d="M139.58 190.36s-4.63 17.31-11.91 13.42l1.18 6.81s6.04-2.08 13.18-19.21l-2.45-1.02z" class="st20"/><path d="M128.96 185.73c-.14 1.84 4.43 54.94 9.07 60.84l-13.46-.99s4.01-20.07-.93-56.54l5.32-3.31z" class="st20"/><path d="M80.61 167.81c-.4 5.74 2.3 12.26 7.72 15.09 2.55 1.33 5.62.93 7.79 2.85 2.88 2.56 1.36 5.77 2.32 8.99.69 2.31 1.9 3.83 3.42 4.8 3.46 2.2 8.55 1.55 12.9.81 3.57-.61 5.89-3.46 9.34-4.43 2.66-.75 5.47-.41 8.2-.1.61.07 1.22.14 1.82.19 10.39.96 21.07-5.23 25.4-14.73 1.89-4.16 2.45-9.55-.61-12.94-1.2-1.33-2.82-2.21-3.99-3.56-3.91-4.52 2.23-7.59 3.66-11.26 2.82-7.23-11.07-14.38-16.78-12.94-1.86.48-5.84-.07-7.39-1.17-3.92-2.82.16-3.39 1.56-6.38 1.05-2.25-1.26-4.99-4.03-7.23-2.13-1.73-4.53-3.16-5.82-3.82-4.33-2.22-9.27-3.13-14.11-2.74-9.85.81-18.67 7.07-22.31 16.31-1.72 4.38-2.8 8.42.85 12.31 1.4 1.49 6.04 4.69 3.37 6.99-2.37 2.05-5.6 1.68-8.35 2.97-4.14 1.91-4.68 5.74-4.96 9.99z" class="st21"/><linearGradient id="SVGID_3_" x1="1355.1904" x2="1436.2133" y1="137.3301" y2="129.3907" gradientTransform="rotate(-175.789 750.48018868 170.44980634)" gradientUnits="userSpaceOnUse"><stop offset="0" stop-color="#90c74f" stop-opacity=".1"/><stop offset=".1259" stop-color="#81bf4f" stop-opacity=".2438"/><stop offset=".3663" stop-color="#6ab350" stop-opacity=".5182"/><stop offset=".5924" stop-color="#5cac50" stop-opacity=".7765"/><stop offset=".7882" stop-color="#57a950"/></linearGradient><path fill="url(#SVGID_3_)" d="M80.61 167.81c-.4 5.74 2.3 12.26 7.72 15.09 2.55 1.33 5.62.93 7.79 2.85 2.88 2.56 1.36 5.77 2.32 8.99.69 2.31 1.9 3.83 3.42 4.8 3.46 2.2 8.55 1.55 12.9.81 3.57-.61 5.89-3.46 9.34-4.43 2.66-.75 5.47-.41 8.2-.1.3-1.16.4-2.37.24-3.56-.78-5.63-6.96-8.95-12.61-9.43-4.21-.36-9.04.11-12.03-2.88-2.4-2.39-2.6-6.44-1.06-9.46 1.52-3.02 4.47-5.14 7.61-6.42 1.8-.73 3.73-1.26 5.24-2.48 3.06-2.47 3.27-7.72.42-10.44-2.02-1.92-5.04-2.5-7.05-4.43-2.99-2.87-2.8-7.82-1.06-11.58 2.34-5.05 7.11-8.9 12.54-10.12 1.77-.4 4.56.19 7.4.79-2.13-1.73-4.53-3.16-5.82-3.82-4.33-2.22-9.27-3.13-14.11-2.74-9.85.81-18.67 7.07-22.31 16.31-1.72 4.38-2.8 8.42.85 12.31 1.4 1.49 6.04 4.69 3.37 6.99-2.37 2.05-5.6 1.68-8.35 2.97-4.14 1.9-4.68 5.73-4.96 9.98z"/></g><g><path d="M1617.83 238.22h-16.33V101.87l16.33-13.02z" class="st29" transform="translate(0 21)"/><path d="M1644.36 238.22h-26.53V88.85l26.53 23.98z" class="st30" transform="translate(0 21)"/><path d="M1617.83 97.76h-8.17V77.2l8.17-8.22z" class="st29" transform="translate(0 21)"/><path d="M1630.75 103.24h-12.92V68.98l12.92 12.34z" class="st30" transform="translate(0 21)"/><path d="M1608.64 238.22h-3.74v-98.66l3.74-2.75zm6.8 0h-3.74v-76.05l3.74-2.74z" class="st31" transform="translate(0 21)"/><path d="M1628.05 131.41l-3.76-2.94V117.5l3.76 3.4zm6.44 5.1l-3.75-2.94V122.6l3.75 3.41zm-6.44 13.46l-3.76-3.41v-10.97l3.76 3.4z" class="st12" transform="translate(0 21)"/></g><g><path d="M1629.5 238.59h27.14v-84.6l-27.14 15.39z" class="st29" transform="translate(0 21)"/><path d="M1681 238.59h-24.36v-84.6l24.36 22.38z" class="st30" transform="translate(0 21)"/><path d="M1641.44 183.58l-4.98 2.23V175.8l4.98-2.23zm9.05-3.49l-4.99 2.22V172.3l4.99-2.22zm-9.05 21.67l-4.98 2.22v-10.01l4.98-2.22zm9.05-3.5l-4.99 2.23v-10.01l4.99-2.23z" class="st31" transform="translate(0 21)"/><path d="M1667.08 238.59h-5.57v-59.43l5.57 5.6zm10.44.7h-5.57V187.9l5.57 4.84z" class="st3" transform="translate(0 21)"/></g><g><path d="M1531.47 170.44h44.95V238h-44.95zm6.22-24.38h32.5v24.38h-32.5z" class="st32" transform="translate(0 21)"/><path d="M1537.69 168.7h32.5v1.74h-32.5z" class="st33" transform="translate(0 21)"/><path d="M1542.88 127.25h22.13v18.81h-22.13z" class="st32" transform="translate(0 21)"/><path d="M1542.88 144.32h22.13v1.74h-22.13zm10.14-17.07h-3.67l3.67-45.27 5.05 45.27z" class="st33" transform="translate(0 21)"/><path d="M1547.49 134.22h3.46v6.27h-3.46zm8.99 0h3.46v6.27h-3.46zm-13.14 16.72h3.46v6.27h-3.46zm8.99 0h3.46v6.27h-3.46zm8.3 0h3.46v6.27h-3.46zm-17.29 9.88h3.46v5.44h-3.46zm8.99 0h3.46v5.44h-3.46zm8.3 0h3.46v5.44h-3.46zm-21.44 15.19h3.46v6.27h-3.46zm8.99 0h3.46v6.27h-3.46zm8.3 0h3.46v6.27h-3.46zm-17.29 9.88h3.46v5.44h-3.46zm8.99 0h3.46v5.44h-3.46zm8.3 0h3.46v5.44h-3.46zm8.3-9.88h3.46v6.27h-3.46zm0 9.88h3.46v5.44h-3.46zm-25.59 8.93h3.46v6.27h-3.46zm8.99 0h3.46v6.27h-3.46zm8.3 0h3.46v6.27h-3.46zm-17.29 9.88h3.46v5.44h-3.46zm8.99 0h3.46v5.44h-3.46zm8.3 0h3.46v5.44h-3.46zm8.3-9.88h3.46v6.27h-3.46zm0 9.88h3.46v5.44h-3.46zm-25.59 9.62h3.46v6.27h-3.46zm8.99 0h3.46v6.27h-3.46zm8.3 0h3.46v6.27h-3.46zm-17.29 9.88h3.46v5.44h-3.46zm8.99 0h3.46v5.44h-3.46zm8.3 0h3.46v5.44h-3.46zm8.3-9.88h3.46v6.27h-3.46zm0 9.88h3.46v5.44h-3.46z" class="st3" transform="translate(0 21)"/><path d="M1531.58 232.43h44.95V238h-44.95z" class="st33" transform="translate(0 21)"/><path d="M1534.23 173.57h-2.77v-5.8c0-.64.52-1.17 1.17-1.17h.43c.64 0 1.17.52 1.17 1.17v5.8zm6.23-24.38h-2.77v-5.8c0-.64.52-1.17 1.17-1.17h.43c.64 0 1.17.52 1.17 1.17v5.8zm5.18-18.11h-2.77v-5.8c0-.64.52-1.17 1.17-1.17h.43c.64 0 1.17.52 1.17 1.17v5.8zm19.37 0h-2.77v-5.8c0-.64.52-1.17 1.17-1.17h.43c.64 0 1.17.52 1.17 1.17v5.8zm5.18 18.11h-2.77v-5.8c0-.64.52-1.17 1.17-1.17h.43c.64 0 1.17.52 1.17 1.17v5.8zm6.23 24.38h-2.77v-5.8c0-.64.52-1.17 1.17-1.17h.43c.64 0 1.17.52 1.17 1.17v5.8z" class="st32" transform="translate(0 21)"/></g><g><path d="M1431.64 151.98H1514v85.7h-82.36zm20.68-17.73h50.97v17.73h-50.97z" class="st12" transform="translate(0 21)"/><path d="M1470.05 151.98h3.69v85.7h-3.69zm21.42 0h3.69v85.7h-3.69zm-43.58 0h3.69v85.7h-3.69z" class="st1" transform="translate(0 21)"/><path d="M1436.81 158.63h5.91v5.91h-5.91zm0 20.69h5.91v5.91h-5.91zm0 20.68h5.91v5.91h-5.91zm.37 16.62h5.91v5.91h-5.91zm20.31-57.99h5.91v5.91h-5.91zm2.96-18.47h5.91v5.91h-5.91zm14.77 0h5.91v5.91h-5.91zm13.3 0h5.91v5.91h-5.91zm-31.03 39.16h5.91v5.91h-5.91zm0 20.68h5.91v5.91h-5.91zm.37 16.62h5.91v5.91h-5.91zm21.79-57.99h5.91v5.91h-5.91zm0 20.69h5.91v5.91h-5.91zm0 20.68h5.91v5.91h-5.91zm.37 16.62h5.91v5.91h-5.91zm21.79-57.99h5.91v5.91h-5.91zm0 20.69h5.91v5.91h-5.91zm0 20.68h5.91v5.91h-5.91zm.37 16.62h5.91v5.91h-5.91z" class="st3" transform="translate(0 21)"/><path d="M1443.83 167.13h-8.12c-.41 0-.74-.33-.74-.74s.33-.74.74-.74h8.12c.41 0 .74.33.74.74 0 .4-.33.74-.74.74zm0-9.61h-8.12c-.41 0-.74-.33-.74-.74s.33-.74.74-.74h8.12c.41 0 .74.33.74.74s-.33.74-.74.74zm23.64-8.86h-8.12c-.41 0-.74-.33-.74-.74s.33-.74.74-.74h8.12c.41 0 .74.33.74.74-.01.41-.34.74-.74.74zm0-9.61h-8.12c-.41 0-.74-.33-.74-.74s.33-.74.74-.74h8.12c.41 0 .74.33.74.74-.01.41-.34.74-.74.74zm14.77 9.61h-8.12c-.41 0-.74-.33-.74-.74s.33-.74.74-.74h8.12c.41 0 .74.33.74.74s-.33.74-.74.74zm0-9.61h-8.12c-.41 0-.74-.33-.74-.74s.33-.74.74-.74h8.12c.41 0 .74.33.74.74s-.33.74-.74.74zm13.29 9.61h-8.12c-.41 0-.74-.33-.74-.74s.33-.74.74-.74h8.12c.41 0 .74.33.74.74s-.33.74-.74.74zm0-9.61h-8.12c-.41 0-.74-.33-.74-.74s.33-.74.74-.74h8.12c.41 0 .74.33.74.74s-.33.74-.74.74zm-31.02 28.08h-8.12c-.41 0-.74-.33-.74-.74s.33-.74.74-.74h8.12c.41 0 .74.33.74.74 0 .4-.33.74-.74.74zm0-9.61h-8.12c-.41 0-.74-.33-.74-.74s.33-.74.74-.74h8.12c.41 0 .74.33.74.74s-.33.74-.74.74zm22.16 9.61h-8.12c-.41 0-.74-.33-.74-.74s.33-.74.74-.74h8.12c.41 0 .74.33.74.74 0 .4-.33.74-.74.74zm0-9.61h-8.12c-.41 0-.74-.33-.74-.74s.33-.74.74-.74h8.12c.41 0 .74.33.74.74s-.33.74-.74.74zm0 30.29h-8.12c-.41 0-.74-.33-.74-.74s.33-.74.74-.74h8.12c.41 0 .74.33.74.74s-.33.74-.74.74zm0-9.6h-8.12c-.41 0-.74-.33-.74-.74s.33-.74.74-.74h8.12c.41 0 .74.33.74.74s-.33.74-.74.74zm22.16 9.6h-8.12c-.41 0-.74-.33-.74-.74s.33-.74.74-.74h8.12c.41 0 .74.33.74.74s-.33.74-.74.74zm0-9.6h-8.12c-.41 0-.74-.33-.74-.74s.33-.74.74-.74h8.12c.41 0 .74.33.74.74s-.33.74-.74.74zm0-11.08h-8.12c-.41 0-.74-.33-.74-.74s.33-.74.74-.74h8.12c.41 0 .74.33.74.74 0 .4-.33.74-.74.74zm0-9.61h-8.12c-.41 0-.74-.33-.74-.74s.33-.74.74-.74h8.12c.41 0 .74.33.74.74s-.33.74-.74.74zm-65 30.29h-8.12c-.41 0-.74-.33-.74-.74s.33-.74.74-.74h8.12c.41 0 .74.33.74.74s-.33.74-.74.74zm0-9.6h-8.12c-.41 0-.74-.33-.74-.74s.33-.74.74-.74h8.12c.41 0 .74.33.74.74s-.33.74-.74.74zm20.68 9.6h-8.12c-.41 0-.74-.33-.74-.74s.33-.74.74-.74h8.12c.41 0 .74.33.74.74s-.33.74-.74.74zm0-9.6h-8.12c-.41 0-.74-.33-.74-.74s.33-.74.74-.74h8.12c.41 0 .74.33.74.74s-.33.74-.74.74zm-20.68 30.29h-8.12c-.41 0-.74-.33-.74-.74s.33-.74.74-.74h8.12c.41 0 .74.33.74.74s-.33.74-.74.74zm0-9.61h-8.12c-.41 0-.74-.33-.74-.74s.33-.74.74-.74h8.12c.41 0 .74.33.74.74s-.33.74-.74.74zm20.68 9.61h-8.12c-.41 0-.74-.33-.74-.74s.33-.74.74-.74h8.12c.41 0 .74.33.74.74s-.33.74-.74.74zm0-9.61h-8.12c-.41 0-.74-.33-.74-.74s.33-.74.74-.74h8.12c.41 0 .74.33.74.74s-.33.74-.74.74zm22.16 9.61h-8.12c-.41 0-.74-.33-.74-.74s.33-.74.74-.74h8.12c.41 0 .74.33.74.74s-.33.74-.74.74zm0-9.61h-8.12c-.41 0-.74-.33-.74-.74s.33-.74.74-.74h8.12c.41 0 .74.33.74.74s-.33.74-.74.74zm22.16 9.61h-8.12c-.41 0-.74-.33-.74-.74s.33-.74.74-.74h8.12c.41 0 .74.33.74.74s-.33.74-.74.74zm0-9.61h-8.12c-.41 0-.74-.33-.74-.74s.33-.74.74-.74h8.12c.41 0 .74.33.74.74s-.33.74-.74.74z" class="st1" transform="translate(0 21)"/></g><g><path d="M1517.4 264.13s-10.24-2.35-11.06 11.68" class="st18" transform="translate(-43.770412 7.868877)"/><path d="M1518.96 257.85s2.58-1.42 4.57-.63c4.63 1.83 2.45 8.84 2.45 8.84l-7.02-8.21z" class="st8" transform="translate(-43.770412 7.868877)"/><path d="M1519.68 254.92c-2.51-1.98-11.24 1.45-7.63 10.32 3.02 7.43 14.39 6.13 15.54 2.35 1.19-3.93-3.12-8.79-7.49-9 0-.01.3-3.1-.42-3.67z" class="st4" transform="translate(-43.770412 7.868877)"/><path d="M1503.57 259.32c.36-5.91-9.61 5.82 2.61 18 3.21 3.21-2.87-13.69-2.61-18z" class="st21" transform="translate(-43.770412 7.868877)"/><path d="M1506.96 276.86c2.85-2.47 3.75-10.35 6.34-7.75 5.3 5.33-9.65 10.61-6.34 7.75z" class="st21" transform="translate(-43.770412 7.868877)"/></g><g><path d="M1421.03 254.85s-7.83 3.09-2.1 12.75" class="st18" transform="translate(21.885204 14.434439)"/><path d="M1419.25 249.99s1.07-2.11 2.74-2.49c3.88-.89 5.58 4.74 5.58 4.74l-8.32-2.25z" class="st8" transform="translate(21.885204 14.434439)"/><path d="M1418.42 247.72c-2.55-.17-6.79 6.06-.44 10.29 5.32 3.55 12.27-2.47 11.33-5.5-.97-3.14-6-4.4-8.98-2.56 0 0-1.18-2.19-1.91-2.23z" class="st4" transform="translate(21.885204 14.434439)"/><path d="M1409.73 257.94c-2.41-4.08-3.76 8.21 9.78 10.73 3.56.66-8.03-7.76-9.78-10.73z" class="st21" transform="translate(21.885204 14.434439)"/><path d="M1419.81 268.01c.78-2.93-2.14-8.55.73-8 5.9 1.12-1.64 11.4-.73 8z" class="st21" transform="translate(21.885204 14.434439)"/></g><g transform="translate(0 21)"><path d="M1408.01 211.35c-.69.47-1.53.74-2.45.74h-13.85c-.92 0-1.76-.27-2.45-.74-1.69-1.14-2.5-3.42-1.58-5.51l9.76-22.16c.12-.29.33-.5.57-.62.63-.35 1.5-.14 1.84.62l9.76 22.16c.92 2.09.1 4.36-1.6 5.51z" class="st21"/><path d="M1410.12 226.76c-.25.05-.51.08-.78.08h-21.39c-.27 0-.53-.03-.78-.08-2.14-.47-3.43-2.85-2.49-4.99l4.59-10.43 5.34-12.13c.89-2.01 2.87-2.87 4.71-2.6 1.39.22 2.69 1.08 3.36 2.6l5.34 12.13 4.59 10.43c.94 2.14-.36 4.52-2.49 4.99z" class="st21"/><path d="M1408.94 241.97h-20.61c-3.7 0-6.18-3.83-4.68-7.25l3.51-7.96 6.46-14.67.98-2.23c1.3-2.94 4.98-3.42 7.05-1.46.41.39.76.88 1.02 1.46l.98 2.23 6.46 14.67 3.51 7.96c1.51 3.42-.97 7.25-4.68 7.25z" class="st21"/><linearGradient id="SVGID_4_" x1="1388.2665" x2="1423.2601" y1="124.9216" y2="135.2023" gradientTransform="matrix(1 0 0 -1 0 342)" gradientUnits="userSpaceOnUse"><stop offset="0" stop-color="#90c74f" stop-opacity=".1"/><stop offset=".1259" stop-color="#81bf4f" stop-opacity=".2438"/><stop offset=".3663" stop-color="#6ab350" stop-opacity=".5182"/><stop offset=".5924" stop-color="#5cac50" stop-opacity=".7765"/><stop offset=".7882" stop-color="#57a950"/></linearGradient><path fill="url(#SVGID_4_)" d="M1408.94 241.97h-19.19c.1-.28.27-.54.46-.76 2.64-3.12 7.6-2.5 11.19-4.43 1.89-1.02 2.87-2.73 2.09-4.82-.33-.88-1.33-1.66-1.43-2.61-.17-1.59 1.39-1.16 1.56-2.49 0-.02.01-.04.01-.07.04-.51-.14-1.01-.31-1.5-1.16-3.17-2.6-6.55-3.38-9.83-.35-1.08-.67-2.3-.47-3.36.08-.43.25-.83.53-1.17.5-.63 1.34-1.02 1.58-1.78.07-.21.09-.45.09-.73.01-1.53-.82-3.9-1.05-5.08-.42-2.14-.83-4.29-1.25-6.44-.02-.09-.03-.18-.04-.27-.07-.35-.13-.7-.18-1.06-.61-4.14-.41-8.36-1.13-12.51.63-.35 1.5-.14 1.84.62l9.76 22.16c.92 2.09.11 4.37-1.59 5.51l4.59 10.43c.94 2.13-.35 4.52-2.49 4.99l3.51 7.96c1.49 3.41-.99 7.24-4.7 7.24z"/></g><g transform="translate(0 21)"><path d="M1534.92 257.26c-4.04 4.6-11.3 2.76-16.62 2.76h-14.05c-4.41 0-9.39.59-13.52-1.29-.19-.09-.37-.18-.55-.29-3.33-1.86-3.15-6.65.13-8.66.38-.23.8-.41 1.23-.39 1.09.05 1.57 1.17 2.73.81 1.12-.34 1.58-2.19 2.15-3.01 1.29-1.88 2.96-2.79 5.01-2.46.43.06.87.19 1.33.37 1.41.55 4.23 3.24 5.71 1.65 2.81-3.01 6.43-5.08 10.44-3.14 1.48.72 2.76 1.82 3.97 2.91 1.17 1.04 1.91 3.1 3.55 3.51 1.81.45 3.62-1.29 5.56-1.13 4.75.39 5.82 5.07 2.93 8.36z" class="st21"/><linearGradient id="SVGID_5_" x1="1501.4203" x2="1553.2104" y1="90.3807" y2="90.3807" gradientTransform="matrix(1 0 0 -1 0 342)" gradientUnits="userSpaceOnUse"><stop offset="0" stop-color="#90c74f" stop-opacity=".1"/><stop offset=".1259" stop-color="#81bf4f" stop-opacity=".2438"/><stop offset=".3663" stop-color="#6ab350" stop-opacity=".5182"/><stop offset=".5924" stop-color="#5cac50" stop-opacity=".7765"/><stop offset=".7882" stop-color="#57a950"/></linearGradient><path fill="url(#SVGID_5_)" d="M1534.92 257.26c-4.04 4.6-11.3 2.76-16.62 2.76h-6.88c0-.04.01-.06.01-.1.16-1.13 1.43-1.67 2.51-2.02 1.91-.61 3.56-.66 5.51-1 .83-.15 1.7-.55 2.05-1.32 1.15-2.61-4.26-1.11-3.69-4.17.13-.65.54-1.25.55-1.91.05-1.97-4.28-1.23-5.36-.93-1.91.54-3.88 1.04-5.86.87-2.52-.21-5.42-2-5.72-4.71.43.06.87.19 1.33.37 1.41.55 4.23 3.24 5.71 1.65 2.81-3.01 6.43-5.08 10.44-3.14 1.48.72 2.76 1.82 3.97 2.91 1.17 1.04 1.91 3.1 3.55 3.51 1.81.45 3.62-1.29 5.56-1.13 4.76.39 5.83 5.07 2.94 8.36z"/></g><g transform="translate(0 21)"><path d="M286.19 253.83c5.57 6.33 15.56 3.81 22.89 3.81h19.35c6.07 0 12.93.81 18.61-1.77.26-.12.5-.25.75-.39 4.58-2.56 4.34-9.15-.18-11.92-.52-.32-1.1-.57-1.7-.54-1.5.07-2.17 1.61-3.76 1.11-1.54-.47-2.18-3.02-2.96-4.15-1.77-2.59-4.08-3.84-6.9-3.39-.59.09-1.19.26-1.84.51-1.95.76-5.83 4.46-7.86 2.28-3.87-4.15-8.86-7-14.38-4.32-2.03.99-3.79 2.51-5.47 4-1.61 1.43-2.62 4.26-4.89 4.83-2.49.62-4.99-1.77-7.66-1.55-6.5.51-7.98 6.95-4 11.49z" class="st21"/><linearGradient id="SVGID_6_" x1="1555.0054" x2="1626.3268" y1="95.9348" y2="95.9348" gradientTransform="rotate(180 943.6577 171)" gradientUnits="userSpaceOnUse"><stop offset="0" stop-color="#90c74f" stop-opacity=".1"/><stop offset=".1259" stop-color="#81bf4f" stop-opacity=".2438"/><stop offset=".3663" stop-color="#6ab350" stop-opacity=".5182"/><stop offset=".5924" stop-color="#5cac50" stop-opacity=".7765"/><stop offset=".7882" stop-color="#57a950"/></linearGradient><path fill="url(#SVGID_6_)" d="M286.19 253.83c5.57 6.33 15.56 3.81 22.89 3.81h9.47c0-.05-.01-.09-.01-.14-.22-1.55-1.97-2.3-3.46-2.78-2.64-.84-4.9-.91-7.59-1.38-1.15-.21-2.34-.75-2.82-1.82-1.58-3.6 5.86-1.53 5.08-5.74-.17-.9-.74-1.72-.76-2.64-.07-2.71 5.9-1.69 7.38-1.28 2.64.74 5.35 1.43 8.07 1.19 3.47-.28 7.47-2.76 7.87-6.48-.59.09-1.19.26-1.84.51-1.95.76-5.83 4.46-7.86 2.28-3.87-4.15-8.86-7-14.38-4.32-2.03.99-3.79 2.51-5.47 4-1.61 1.43-2.62 4.26-4.89 4.83-2.49.62-4.99-1.77-7.66-1.55-6.52.53-8 6.97-4.02 11.51z"/></g><g transform="translate(0 21)"><path d="M1092.85 270.65c7.62 8.67 21.3 5.21 31.34 5.21h26.5c8.31 0 17.71 1.11 25.48-2.43.35-.17.69-.34 1.03-.54 6.27-3.51 5.94-12.53-.25-16.33-.71-.44-1.5-.78-2.33-.74-2.06.1-2.97 2.21-5.14 1.52-2.11-.64-2.99-4.13-4.05-5.68-2.43-3.54-5.58-5.26-9.44-4.64-.81.12-1.64.35-2.51.69-2.66 1.05-7.98 6.11-10.76 3.12-5.3-5.68-12.13-9.58-19.68-5.92-2.78 1.35-5.19 3.44-7.49 5.48-2.21 1.96-3.59 5.84-6.7 6.61-3.41.84-6.83-2.43-10.49-2.13-8.93.75-10.96 9.58-5.51 15.78z" class="st21"/><linearGradient id="SVGID_7_" x1="731.3356" x2="828.9813" y1="81.9867" y2="81.9867" gradientTransform="rotate(180 943.6577 171)" gradientUnits="userSpaceOnUse"><stop offset="0" stop-color="#90c74f" stop-opacity=".1"/><stop offset=".1259" stop-color="#81bf4f" stop-opacity=".2438"/><stop offset=".3663" stop-color="#6ab350" stop-opacity=".5182"/><stop offset=".5924" stop-color="#5cac50" stop-opacity=".7765"/><stop offset=".7882" stop-color="#57a950"/></linearGradient><path fill="url(#SVGID_7_)" d="M1092.85 270.65c7.62 8.67 21.3 5.21 31.34 5.21h12.97c0-.07-.02-.12-.02-.19-.3-2.13-2.7-3.15-4.74-3.81-3.61-1.15-6.71-1.25-10.39-1.89-1.57-.29-3.2-1.03-3.86-2.5-2.16-4.92 8.03-2.09 6.95-7.86-.24-1.23-1.01-2.36-1.05-3.61-.1-3.71 8.08-2.31 10.1-1.75 3.61 1.01 7.32 1.96 11.05 1.64 4.76-.39 10.22-3.78 10.78-8.87-.81.12-1.64.35-2.51.69-2.66 1.05-7.98 6.11-10.76 3.12-5.3-5.68-12.13-9.58-19.68-5.92-2.78 1.35-5.19 3.44-7.49 5.48-2.21 1.96-3.59 5.84-6.7 6.61-3.41.84-6.83-2.43-10.49-2.13-8.92.75-10.95 9.58-5.5 15.78z"/></g><g transform="translate(0 21)"><path d="M1598.91 229.38c-.89.58-1.95.91-3.13.91h-21.36c-1.18 0-2.24-.34-3.13-.91-2.4-1.53-3.53-4.77-2.11-7.64l13.62-27.48c.02-.05.05-.1.09-.15 1.01-1.75 3.58-1.69 4.49.15l13.64 27.48c1.42 2.87.3 6.11-2.11 7.64z" class="st21"/><path d="M1601.79 249.07c-.71.31-1.51.48-2.36.48h-28.66c-.85 0-1.65-.18-2.36-.48-2.93-1.3-4.46-4.91-2.89-8.06l5.76-11.62 8.56-17.26c1.15-2.32 3.43-3.39 5.63-3.26 1.95.12 3.85 1.21 4.86 3.26l8.56 17.26 5.77 11.62c1.58 3.15.05 6.76-2.87 8.06z" class="st21"/><path d="M1602.31 269.29h-34.42c-4.37 0-7.21-4.63-5.26-8.56l5.78-11.66 9.3-18.78 2.13-4.28c1.77-3.58 6.24-4.22 8.99-1.93.6.51 1.11 1.14 1.51 1.93l2.13 4.28 9.32 18.78 5.78 11.66c1.95 3.93-.89 8.56-5.26 8.56z" class="st21"/><linearGradient id="SVGID_8_" x1="1569.8544" x2="1621.2279" y1="108.2498" y2="114.0145" gradientTransform="matrix(1 0 0 -1 0 342)" gradientUnits="userSpaceOnUse"><stop offset="0" stop-color="#90c74f" stop-opacity=".1"/><stop offset=".1259" stop-color="#81bf4f" stop-opacity=".2438"/><stop offset=".3663" stop-color="#6ab350" stop-opacity=".5182"/><stop offset=".5924" stop-color="#5cac50" stop-opacity=".7765"/><stop offset=".7882" stop-color="#57a950"/></linearGradient><path fill="url(#SVGID_8_)" d="M1602.31 269.29h-27.85c.74-1.77 2.28-3.33 3.95-4.33 2.73-1.63 5.92-2.37 8.58-4.12 2.66-1.74 4.78-5.11 3.58-8.08-.44-1.07-1.28-2.15-1.68-3.21-.27-.73-.36-1.44.02-2.13s1.13-1.08 1.71-1.62c2.37-2.25 1.09-6.25-.62-9.05-1.21-2-2.62-4.24-2.84-6.46-.1-.89-.01-1.78.37-2.65.33-.74.83-1.37 1.09-2.14.16-.46.22-.94.21-1.43-.02-1.04-.36-2.11-.68-3.12-1.25-3.98-2.03-8.03-2.68-12.1-.8-4.93-1.44-9.89-2.59-14.74 1.01-1.75 3.58-1.69 4.49.15l13.64 27.48c1.42 2.87.29 6.11-2.12 7.64l5.77 11.62c1.56 3.15.03 6.77-2.89 8.06l5.78 11.66c1.97 3.94-.87 8.57-5.24 8.57z"/></g><g transform="translate(0 21)"><path d="M512.49 224.86c-.82.53-1.79.83-2.87.83h-19.58c-1.08 0-2.05-.31-2.87-.83-2.2-1.39-3.24-4.34-1.93-6.95l12.49-25.01c.02-.05.05-.09.08-.14.93-1.59 3.28-1.54 4.12.14l12.5 25.01c1.3 2.61.27 5.56-1.94 6.95z" class="st21"/><path d="M515.13 242.77c-.65.28-1.38.44-2.16.44H486.7c-.78 0-1.51-.16-2.16-.44-2.69-1.18-4.09-4.47-2.65-7.34l5.28-10.58 7.85-15.71c1.05-2.11 3.14-3.09 5.16-2.97 1.79.11 3.53 1.1 4.46 2.97l7.85 15.71 5.29 10.58c1.43 2.87.03 6.16-2.65 7.34z" class="st21"/><path d="M515.61 261.17h-31.54c-4.01 0-6.61-4.21-4.82-7.79l5.3-10.61 8.53-17.09 1.95-3.9c1.62-3.26 5.72-3.84 8.24-1.76.55.46 1.02 1.04 1.38 1.76l1.95 3.9 8.54 17.09 5.3 10.61c1.78 3.58-.83 7.79-4.83 7.79z" class="st21"/><linearGradient id="SVGID_9_" x1="485.8835" x2="532.9629" y1="113.1575" y2="118.4404" gradientTransform="matrix(1 0 0 -1 0 342)" gradientUnits="userSpaceOnUse"><stop offset="0" stop-color="#90c74f" stop-opacity=".1"/><stop offset=".1259" stop-color="#81bf4f" stop-opacity=".2438"/><stop offset=".3663" stop-color="#6ab350" stop-opacity=".5182"/><stop offset=".5924" stop-color="#5cac50" stop-opacity=".7765"/><stop offset=".7882" stop-color="#57a950"/></linearGradient><path fill="url(#SVGID_9_)" d="M515.61 261.17h-25.52c.68-1.61 2.09-3.03 3.62-3.94 2.5-1.48 5.43-2.16 7.87-3.75 2.44-1.58 4.38-4.65 3.28-7.35-.4-.97-1.17-1.96-1.54-2.92-.25-.66-.33-1.31.02-1.94.35-.63 1.04-.98 1.57-1.47 2.17-2.05 1-5.69-.57-8.24-1.11-1.82-2.4-3.86-2.6-5.88-.09-.81-.01-1.62.34-2.41.3-.67.76-1.25 1-1.95.15-.42.2-.86.19-1.3-.02-.95-.33-1.92-.62-2.84-1.15-3.62-1.86-7.31-2.46-11.01-.73-4.49-1.32-9-2.37-13.42.93-1.59 3.28-1.54 4.12.14l12.5 25.01c1.3 2.61.27 5.56-1.94 6.95l5.29 10.58c1.43 2.87.03 6.16-2.65 7.34l5.3 10.61c1.78 3.58-.83 7.79-4.83 7.79z"/></g><g transform="translate(0 21)"><path d="M243.29 242.66c-.85.55-1.85.86-2.96.86h-20.19c-1.11 0-2.11-.32-2.96-.86-2.27-1.43-3.34-4.47-1.99-7.16l12.88-25.78c.02-.05.05-.09.08-.14.96-1.64 3.38-1.59 4.25.14l12.89 25.78c1.34 2.68.28 5.73-2 7.16z" class="st21"/><path d="M246.01 261.13c-.67.29-1.42.45-2.23.45H216.7c-.8 0-1.56-.16-2.23-.45-2.77-1.22-4.22-4.61-2.73-7.57l5.44-10.91 8.09-16.2c1.08-2.18 3.24-3.19 5.32-3.06 1.85.11 3.64 1.13 4.6 3.06l8.09 16.2 5.45 10.91c1.49 2.96.04 6.36-2.72 7.57z" class="st21"/><path d="M246.51 280.1h-32.53c-4.13 0-6.81-4.34-4.97-8.03l5.46-10.94 8.79-17.62 2.01-4.02c1.67-3.36 5.9-3.96 8.49-1.81.57.47 1.05 1.07 1.42 1.81l2.01 4.02 8.8 17.62 5.46 10.94c1.87 3.69-.82 8.03-4.94 8.03z" class="st21"/><linearGradient id="SVGID_10_" x1="215.859" x2="264.4037" y1="95.2255" y2="100.6728" gradientTransform="matrix(1 0 0 -1 0 342)" gradientUnits="userSpaceOnUse"><stop offset="0" stop-color="#90c74f" stop-opacity=".1"/><stop offset=".1259" stop-color="#81bf4f" stop-opacity=".2438"/><stop offset=".3663" stop-color="#6ab350" stop-opacity=".5182"/><stop offset=".5924" stop-color="#5cac50" stop-opacity=".7765"/><stop offset=".7882" stop-color="#57a950"/></linearGradient><path fill="url(#SVGID_10_)" d="M246.51 280.1h-26.32c.7-1.66 2.15-3.12 3.73-4.06 2.58-1.53 5.6-2.23 8.11-3.87 2.52-1.63 4.52-4.79 3.38-7.58-.41-1-1.21-2.02-1.59-3.01-.26-.68-.34-1.35.02-2s1.07-1.01 1.62-1.52c2.24-2.11 1.03-5.87-.59-8.49-1.14-1.88-2.47-3.98-2.68-6.06-.09-.84-.01-1.67.35-2.48.31-.69.78-1.29 1.03-2.01.15-.43.21-.89.2-1.34-.02-.98-.34-1.98-.64-2.93-1.19-3.73-1.92-7.54-2.54-11.35-.75-4.63-1.36-9.28-2.44-13.83.96-1.64 3.38-1.59 4.25.14l12.89 25.78c1.34 2.69.28 5.73-2 7.16l5.45 10.91c1.47 2.96.03 6.35-2.73 7.57l5.46 10.94c1.85 3.69-.84 8.03-4.96 8.03z"/></g><g transform="translate(0 21)"><path d="M912.65 216.74c-.8.52-1.76.81-2.81.81h-19.2c-1.06 0-2.01-.3-2.81-.81-2.16-1.36-3.18-4.26-1.89-6.81l12.25-24.52c.02-.05.05-.09.08-.14.91-1.56 3.22-1.51 4.04.14l12.26 24.52c1.26 2.55.25 5.44-1.92 6.81z" class="st21"/><path d="M915.24 234.31c-.64.27-1.35.43-2.12.43h-25.76c-.76 0-1.48-.16-2.12-.43-2.64-1.16-4.01-4.38-2.6-7.2l5.18-10.37 7.7-15.4c1.03-2.07 3.08-3.03 5.06-2.91 1.75.11 3.46 1.08 4.37 2.91l7.7 15.4 5.19 10.37c1.4 2.81.03 6.04-2.6 7.2z" class="st21"/><path d="M915.71 252.35h-30.93c-3.93 0-6.48-4.13-4.73-7.64l5.2-10.4 8.36-16.76 1.91-3.82c1.59-3.2 5.61-3.77 8.08-1.73.54.45 1 1.02 1.35 1.73l1.91 3.82 8.37 16.76 5.2 10.4c1.76 3.51-.8 7.64-4.72 7.64z" class="st21"/><linearGradient id="SVGID_11_" x1="886.5641" x2="932.7332" y1="121.3392" y2="126.52" gradientTransform="matrix(1 0 0 -1 0 342)" gradientUnits="userSpaceOnUse"><stop offset="0" stop-color="#90c74f" stop-opacity=".1"/><stop offset=".1259" stop-color="#81bf4f" stop-opacity=".2438"/><stop offset=".3663" stop-color="#6ab350" stop-opacity=".5182"/><stop offset=".5924" stop-color="#5cac50" stop-opacity=".7765"/><stop offset=".7882" stop-color="#57a950"/></linearGradient><path fill="url(#SVGID_11_)" d="M915.71 252.35h-25.03c.67-1.58 2.05-2.97 3.55-3.86 2.45-1.45 5.32-2.12 7.72-3.68 2.39-1.55 4.29-4.56 3.22-7.21-.39-.95-1.15-1.92-1.51-2.86-.25-.65-.32-1.28.02-1.9s1.02-.96 1.54-1.44c2.13-2.01.98-5.58-.56-8.08-1.09-1.78-2.35-3.78-2.55-5.77-.09-.79-.01-1.59.33-2.36.29-.66.75-1.23.98-1.91.15-.41.2-.84.19-1.27-.02-.93-.32-1.88-.61-2.78-1.13-3.55-1.82-7.17-2.41-10.79-.72-4.4-1.29-8.82-2.32-13.16.91-1.56 3.22-1.51 4.04.14l12.26 24.52c1.27 2.56.26 5.45-1.9 6.81l5.19 10.37c1.4 2.81.03 6.04-2.6 7.2l5.2 10.4c1.73 3.5-.83 7.63-4.75 7.63z"/></g><g transform="translate(0 21)"><path d="M1696.36 248.73c-3.78 5.35-12.06 3.78-17.65 3.78-2.15 0-4.95.29-7.93.47-5.67.36-12.03.36-15.91-2.69-1.02-.8-1.87-1.82-2.49-3.09-1.78-3.64-1.87-9.32 3.16-10.02 1.62-.23 3.42.65 5.14.99 1.41.28 2.77.18 3.89-1.22 3.7-4.66 9.12-9.92 15.59-9.03 3.26.45 6 2.19 7.58 5.14 1.46 2.71.83 6.63 4.58 7.4 1.94.39 3.7-.43 5.02 1.46 1.34 1.9.24 5.09-.98 6.81z" class="st21"/><linearGradient id="SVGID_12_" x1="1666.3113" x2="1703.2987" y1="98.2204" y2="105.9693" gradientTransform="matrix(1 0 0 -1 0 342)" gradientUnits="userSpaceOnUse"><stop offset="0" stop-color="#90c74f" stop-opacity=".1"/><stop offset=".1259" stop-color="#81bf4f" stop-opacity=".2438"/><stop offset=".3663" stop-color="#6ab350" stop-opacity=".5182"/><stop offset=".5924" stop-color="#5cac50" stop-opacity=".7765"/><stop offset=".7882" stop-color="#57a950"/></linearGradient><path fill="url(#SVGID_12_)" d="M1696.36 248.73c-3.78 5.35-12.06 3.78-17.65 3.78-2.15 0-4.95.29-7.93.47.18-1.32 1.35-2.46 2.63-2.96 1.53-.59 3.22-.55 4.83-.84 1.03-.18 2.1-.54 2.72-1.37.62-.84.54-2.26-.39-2.73-.3-.15-.65-.19-.89-.43-.68-.69.38-1.67 1.06-2.36 1.43-1.45 1.17-4.07-.26-5.52-1.42-1.46-3.67-1.86-5.66-1.45-2.09.42-3.93 1.6-5.82 2.59-1.89.99-4.01 1.81-6.11 1.45-.8-.14-1.54-.57-2.21-1.18 1.41.28 2.77.18 3.89-1.22 3.7-4.66 9.12-9.92 15.59-9.03 3.26.45 6 2.19 7.58 5.14 1.46 2.71.83 6.63 4.58 7.4 1.94.39 3.7-.43 5.02 1.46 1.34 1.89.24 5.08-.98 6.8z"/></g><g transform="translate(0 21)"><path d="M114.52 240.65c.09 1.61.75 3.13 1.54 4.53 3.09 5.44 8.09 8.12 14.2 8.54 3.27.22 6.57.27 9.88.24 4.92-.04 9.86-.24 14.72-.24 5.17 0 15.65 1.53 20.27-2.46 1.7-1.48 2.61-3.7 2.16-7.04-.59-4.37-4.85-8.1-9.17-5.62-2.32 1.33-4.28 5.04-6.7 1.67-1.41-1.97-2.75-3.62-4.02-4.99-13.38-14.47-19.21 2.13-24.73-2.43-7.15-5.91-18.75-2.81-18.15 7.8z" class="st21"/><linearGradient id="SVGID_13_" x1="1451.7817" x2="1484.609" y1="93.1008" y2="109.6755" gradientTransform="rotate(180 802.1712 171)" gradientUnits="userSpaceOnUse"><stop offset="0" stop-color="#90c74f" stop-opacity=".1"/><stop offset=".1259" stop-color="#81bf4f" stop-opacity=".2438"/><stop offset=".3663" stop-color="#6ab350" stop-opacity=".5182"/><stop offset=".5924" stop-color="#5cac50" stop-opacity=".7765"/><stop offset=".7882" stop-color="#57a950"/></linearGradient><path fill="url(#SVGID_13_)" d="M114.52 240.65c.09 1.61.75 3.13 1.54 4.53 3.09 5.44 8.09 8.12 14.2 8.54 3.27.22 6.57.27 9.88.24-.91-1.04-1.91-2.01-2.97-2.88-1.82-1.49-3.86-2.85-4.95-4.93-1.08-2.09-.67-5.18 1.51-6.07 3.58-1.45 7.45 4.17 10.86 2.35 1.32-.7 1.88-2.25 2.67-3.52 1.88-3.04 5.99-4.69 9.47-3.93.2.04.42.15.67.29-13.38-14.47-19.21 2.13-24.73-2.43-7.15-5.9-18.75-2.8-18.15 7.81z"/></g><g><path d="M1461.62 269.98s12.18-.09 9.64 16.01" class="st22" transform="translate(-1284.784424 5.816642)"/><path d="M1461.41 262.47s-2.57-2.26-5.03-1.86c-5.7.91-4.96 9.41-4.96 9.41l9.99-7.55z" class="st8" transform="translate(-1284.784424 5.816642)"/><path d="M1461.32 258.96c3.34-1.62 12.37 4.46 6.1 13.61-5.26 7.66-17.82 3.33-18.19-1.24-.38-4.75 5.72-9.18 10.71-8.32 0 0 .42-3.58 1.38-4.05z" class="st4" transform="translate(-1284.784424 5.816642)"/><path d="M1478.48 268c1.06-6.79 9.45 9-7.41 19.75-4.44 2.82 6.64-14.8 7.41-19.75z" class="st21" transform="translate(-1284.784424 5.816642)"/><path d="M1470.3 287.02c-2.62-3.51-1.69-12.67-5.26-10.37-7.33 4.71 8.3 14.45 5.26 10.37z" class="st21" transform="translate(-1284.784424 5.816642)"/></g><g transform="translate(5 21)"><path d="M145.79 257.94s-1.84 5.98.74 11.35m-5.87-3.97s5.63 3.53 5.99 6.04" class="st18"/><path d="M137.97 259.42c-4.39-.46-10.2 2.61-5.42 6.03 2.25 1.61 2.89 6.57 7.4.99 3.88-4.81 2.21-6.59-1.98-7.02z" class="st19"/><path d="M150.91 252.3c-.91-3.8-3.93-4.84-7.91-1.88-5.3 3.96-.67 4.63.85 7.31 2.25 3.95 8.54.69 7.06-5.43z" class="st20"/><path d="M150.17 260.06c-1.19-.77-6.87 6.96-2.76 12.02.85 1.05-.81-.54 1.79-4.54 2.19-3.36 2.41-6.55.97-7.48z" class="st21"/><path d="M138.86 271.77c-1.57 2.55 3.4-.87 8.54.7 1.92.58-4.74-6.87-8.54-.7z" class="st21"/><circle cx="145.73" cy="254.18" r=".97" class="st4"/><circle cx="136.33" cy="263.18" r=".97" class="st4"/></g><g><path fill="none" stroke="#5fae50" stroke-miterlimit="10" stroke-width="2" d="M537.453623 260.583495s13.48-3.07 14.56 15.26"/><path d="M629.51 258.73s-3.39-1.86-6.02-.82c-6.09 2.39-3.22 11.56-3.22 11.56l9.24-10.74z" class="st8" transform="translate(-94.106377 -6.356505)"/><path d="M628.56 254.9c3.31-2.59 14.79 1.89 10.05 13.48-3.97 9.71-18.94 8.01-20.46 3.07-1.57-5.13 4.11-11.49 9.86-11.76 0 0-.4-4.05.55-4.79z" class="st4" transform="translate(-94.106377 -6.356505)"/><path d="M649.76 260.66c-.47-7.73 12.65 7.6-3.43 23.53-4.23 4.18 3.78-17.9 3.43-23.53z" class="st21" transform="translate(-94.106377 -6.356505)"/><path d="M645.3 283.57c-3.76-3.23-4.94-13.52-8.34-10.13-6.98 6.98 12.71 13.88 8.34 10.13z" class="st21" transform="translate(-94.106377 -6.356505)"/></g><g transform="translate(20 21)"><path d="M1050.22 258.05s-.19 10.74 5.25 11.91" class="st22"/><path d="M1049.85 245.08c3.5-2.88 9.84-2.99 9.47 4.51s-7.87 15.08-15.84 13.55-8.35-5.02-7.4-8.77c1.63-6.41 7.95-4.49 13.77-9.29z" class="st16"/><ellipse cx="1048.87" cy="253.74" class="st4" rx="3.02" ry="1.51" transform="rotate(-37.16 1048.86690647 253.71669208)"/><path d="M1055.83 270.44c1.14-2.3-3.51-2.64-8.1-3.7-8.72-2.02 5.71 8.54 8.1 3.7z" class="st21"/><path d="M1056.01 270.18c-1.23 3.96-.27-17.83 7.47-14.61 3.83 1.59-3.85 2.91-7.47 14.61z" class="st21"/></g><g transform="translate(0 21)"><path d="M1720.27 226.37c-.79.51-1.73.8-2.78.8h-18.93c-1.04 0-1.98-.3-2.78-.8-2.13-1.34-3.13-4.2-1.87-6.72l12.08-24.19c.02-.05.05-.09.08-.14.9-1.54 3.17-1.49 3.98.14l12.09 24.19c1.26 2.52.26 5.38-1.87 6.72z" class="st21"/><path d="M1722.82 243.7c-.63.27-1.33.43-2.09.43h-25.4c-.75 0-1.46-.15-2.09-.43-2.6-1.14-3.96-4.32-2.56-7.1l5.11-10.23 7.59-15.19c1.02-2.04 3.04-2.99 4.99-2.87 1.73.11 3.41 1.06 4.31 2.87l7.59 15.19 5.12 10.23c1.37 2.78.02 5.96-2.57 7.1z" class="st21"/><path d="M1723.28 261.49h-30.51c-3.88 0-6.39-4.07-4.66-7.53l5.13-10.26 8.25-16.53 1.89-3.77c1.57-3.15 5.53-3.71 7.97-1.7.53.44.99 1.01 1.33 1.7l1.89 3.77 8.26 16.53 5.13 10.26c1.72 3.46-.81 7.53-4.68 7.53z" class="st21"/><linearGradient id="SVGID_14_" x1="1694.5333" x2="1740.0693" y1="111.7854" y2="116.8951" gradientTransform="matrix(1 0 0 -1 0 342)" gradientUnits="userSpaceOnUse"><stop offset="0" stop-color="#90c74f" stop-opacity=".1"/><stop offset=".1259" stop-color="#81bf4f" stop-opacity=".2438"/><stop offset=".3663" stop-color="#6ab350" stop-opacity=".5182"/><stop offset=".5924" stop-color="#5cac50" stop-opacity=".7765"/><stop offset=".7882" stop-color="#57a950"/></linearGradient><path fill="url(#SVGID_14_)" d="M1723.28 261.49h-24.69c.66-1.56 2.02-2.93 3.5-3.81 2.42-1.43 5.25-2.09 7.61-3.63 2.36-1.53 4.24-4.5 3.17-7.11-.39-.94-1.13-1.9-1.49-2.82-.24-.64-.32-1.27.02-1.88s1.01-.95 1.52-1.42c2.1-1.98.97-5.5-.55-7.97-1.07-1.76-2.32-3.73-2.51-5.69-.09-.78-.01-1.57.33-2.33.29-.65.73-1.21.97-1.89.14-.41.19-.83.18-1.26-.02-.92-.32-1.86-.6-2.75-1.11-3.5-1.8-7.07-2.38-10.65-.71-4.34-1.28-8.7-2.29-12.98.9-1.54 3.17-1.49 3.98.14l12.09 24.19c1.26 2.52.26 5.38-1.88 6.72l5.12 10.23c1.38 2.78.03 5.96-2.56 7.1l5.13 10.26c1.73 3.48-.8 7.55-4.67 7.55z"/></g><path d="M818.71 129H786.3v-14.47c0-2.5 2.03-4.53 4.53-4.53h23.35c2.5 0 4.53 2.03 4.53 4.53V129z" class="st2"/><path d="M816 129.41h-27v-12.3c0-2.5 2.03-4.53 4.53-4.53h17.94c2.5 0 4.53 2.03 4.53 4.53v12.3z" class="st12"/><circle cx="802" cy="121" r="5" class="st2"/><circle cx="802" cy="121" r="4" class="st3"/><path d="M786.69 142.01h1.06v21.1h-1.06zm31 0h1.06v21.1h-1.06z" class="st2"/><g><path d="M686.16 122.2h6.77v19.18h-6.77z" class="st1" transform="translate(0 21)"/><path d="M683.9 121.07h11.28v3.38H683.9z" class="st9" transform="translate(0 21)"/><path d="M622.97 122.2h6.77v19.18h-6.77z" class="st1" transform="translate(0 21)"/><path d="M609.06 134.36h98.66V243h-98.66z" class="st9" transform="translate(0 21)"/><path d="M615.48 142.79h7.49v15.51h-7.49zm25.95 0h7.49v15.51h-7.49zm25.96 0h7.49v15.51h-7.49zm25.95 0h7.49v15.51h-7.49zm-77.86 25.95h7.49v15.51h-7.49zm25.95 0h7.49v15.51h-7.49zm25.96 0h7.49v15.51h-7.49zm25.95 0h7.49v15.51h-7.49zm-80.11 26.5h7.49v7.49h-7.49zm.47 21.07h7.49v7.49h-7.49zm25.75-21.07h7.49v7.49h-7.49zm.46 21.07h7.49v7.49h-7.49zm27.63-21.07h7.49v7.49h-7.49zm.47 21.07h7.49v7.49h-7.49zm27.62-21.07h7.49v7.49h-7.49zm.47 21.07h7.49v7.49h-7.49z" class="st3" transform="translate(0 21)"/><path d="M608.18 231.64H708.6v11.28H608.18z" class="st1" transform="translate(0 21)"/><path d="M620.72 121.07H632v3.38h-11.28z" class="st9" transform="translate(0 21)"/></g><g transform="translate(0 21)"><path d="M874.81 252.21C869.26 258.52 859.3 256 852 256h-19.29c-6.05 0-12.89.81-18.55-1.77-.26-.12-.5-.25-.75-.39-4.57-2.55-4.32-9.12.18-11.88.52-.32 1.09-.56 1.69-.54 1.5.07 2.16 1.61 3.74 1.1 1.53-.47 2.17-3.01 2.95-4.14 1.77-2.58 4.06-3.83 6.87-3.38.59.09 1.19.26 1.83.5 1.94.76 5.81 4.44 7.83 2.27 3.85-4.14 8.83-6.97 14.33-4.31 2.03.98 3.78 2.5 5.45 3.99 1.61 1.42 2.61 4.25 4.87 4.81 2.48.61 4.97-1.77 7.64-1.55 6.51.56 7.99 6.98 4.02 11.5z" class="st21"/><linearGradient id="SVGID_15_" x1="-190.9296" x2="-119.8528" y1="97.5397" y2="97.5397" gradientTransform="matrix(1 0 0 -1 1019.7897 342)" gradientUnits="userSpaceOnUse"><stop offset="0" stop-color="#90c74f" stop-opacity=".1"/><stop offset=".1259" stop-color="#81bf4f" stop-opacity=".2438"/><stop offset=".3663" stop-color="#6ab350" stop-opacity=".5182"/><stop offset=".5924" stop-color="#5cac50" stop-opacity=".7765"/><stop offset=".7882" stop-color="#57a950"/></linearGradient><path fill="url(#SVGID_15_)" d="M874.81 252.21C869.26 258.52 859.3 256 852 256h-9.44c0-.05.01-.09.01-.14.22-1.55 1.96-2.3 3.45-2.77 2.63-.83 4.89-.91 7.56-1.37 1.14-.21 2.33-.75 2.81-1.82 1.57-3.58-5.84-1.52-5.06-5.72.17-.9.74-1.72.76-2.63.07-2.7-5.88-1.68-7.35-1.28-2.63.74-5.33 1.42-8.04 1.19-3.46-.28-7.44-2.75-7.84-6.46.59.09 1.19.26 1.83.5 1.94.76 5.81 4.44 7.83 2.27 3.85-4.14 8.83-6.97 14.33-4.31 2.03.98 3.78 2.5 5.45 3.99 1.61 1.42 2.61 4.25 4.87 4.81 2.48.61 4.97-1.77 7.64-1.55 6.49.56 7.97 6.98 4 11.5z"/></g><g transform="translate(0 21)"><path d="M719.13 253.16c-4.43 6.28-14.15 4.43-20.7 4.43-2.53 0-5.81.34-9.3.56-6.66.42-14.11.42-18.66-3.16-1.2-.94-2.19-2.13-2.92-3.62-2.09-4.27-2.19-10.94 3.71-11.75 1.9-.26 4.02.76 6.03 1.16 1.66.33 3.25.22 4.56-1.43 4.34-5.47 10.7-11.64 18.29-10.59 3.82.53 7.04 2.57 8.9 6.03 1.71 3.18.97 7.78 5.38 8.69 2.28.46 4.34-.51 5.89 1.71 1.54 2.21.25 5.95-1.18 7.97z" class="st21"/><linearGradient id="SVGID_16_" x1="683.8721" x2="727.2681" y1="94.645" y2="103.7366" gradientTransform="matrix(1 0 0 -1 0 342)" gradientUnits="userSpaceOnUse"><stop offset="0" stop-color="#90c74f" stop-opacity=".1"/><stop offset=".1259" stop-color="#81bf4f" stop-opacity=".2438"/><stop offset=".3663" stop-color="#6ab350" stop-opacity=".5182"/><stop offset=".5924" stop-color="#5cac50" stop-opacity=".7765"/><stop offset=".7882" stop-color="#57a950"/></linearGradient><path fill="url(#SVGID_16_)" d="M719.13 253.16c-4.43 6.28-14.15 4.43-20.7 4.43-2.53 0-5.81.34-9.3.56.21-1.55 1.58-2.89 3.09-3.47 1.8-.7 3.77-.65 5.67-.98 1.21-.22 2.46-.63 3.19-1.61s.64-2.65-.46-3.2c-.35-.18-.77-.23-1.05-.51-.8-.81.45-1.96 1.25-2.77 1.68-1.7 1.37-4.77-.31-6.48-1.67-1.71-4.31-2.18-6.64-1.7-2.45.49-4.62 1.88-6.83 3.04-2.22 1.16-4.71 2.12-7.16 1.7-.94-.16-1.81-.67-2.59-1.39 1.66.33 3.25.22 4.56-1.43 4.34-5.47 10.7-11.64 18.29-10.59 3.82.53 7.04 2.57 8.9 6.03 1.71 3.18.97 7.78 5.38 8.69 2.28.46 4.34-.51 5.89 1.71 1.54 2.21.25 5.95-1.18 7.97z"/></g><g transform="translate(0 21)"><path d="M604.34 228.02c-.65.42-1.43.66-2.29.66h-15.63c-.86 0-1.64-.25-2.29-.66-1.76-1.11-2.59-3.46-1.54-5.55l9.97-19.96c.02-.04.04-.07.06-.11.74-1.27 2.62-1.23 3.29.11l9.98 19.96c1.04 2.08.22 4.44-1.55 5.55z" class="st21"/><path d="M606.45 242.32c-.52.22-1.1.35-1.72.35h-20.96c-.62 0-1.2-.13-1.72-.35-2.15-.94-3.26-3.57-2.11-5.86l4.21-8.44 6.26-12.54c.84-1.68 2.51-2.47 4.12-2.37 1.43.09 2.82.88 3.56 2.37l6.26 12.54 4.22 8.44c1.14 2.29.02 4.91-2.12 5.86z" class="st21"/><path d="M606.83 257h-25.18c-3.2 0-5.28-3.36-3.85-6.22l4.23-8.47 6.81-13.64 1.56-3.11c1.29-2.6 4.56-3.06 6.58-1.4.44.37.81.83 1.1 1.4l1.56 3.11 6.82 13.64 4.23 8.47c1.42 2.86-.67 6.22-3.86 6.22z" class="st21"/><linearGradient id="SVGID_17_" x1="583.1081" x2="620.6864" y1="110.8023" y2="115.019" gradientTransform="matrix(1 0 0 -1 0 342)" gradientUnits="userSpaceOnUse"><stop offset="0" stop-color="#90c74f" stop-opacity=".1"/><stop offset=".1259" stop-color="#81bf4f" stop-opacity=".2438"/><stop offset=".3663" stop-color="#6ab350" stop-opacity=".5182"/><stop offset=".5924" stop-color="#5cac50" stop-opacity=".7765"/><stop offset=".7882" stop-color="#57a950"/></linearGradient><path fill="url(#SVGID_17_)" d="M606.83 257h-20.37c.54-1.28 1.67-2.42 2.89-3.14 2-1.18 4.33-1.72 6.28-2.99 1.95-1.26 3.5-3.71 2.62-5.87-.32-.77-.93-1.56-1.23-2.33-.2-.53-.26-1.05.02-1.55s.83-.78 1.25-1.17c1.73-1.64.8-4.54-.45-6.58-.89-1.45-1.92-3.08-2.07-4.69-.07-.65-.01-1.29.27-1.92.24-.53.61-1 .8-1.56.12-.34.16-.69.15-1.04-.02-.76-.26-1.53-.49-2.27-.92-2.89-1.48-5.83-1.96-8.79-.58-3.58-1.05-7.18-1.89-10.71.74-1.27 2.62-1.23 3.29.11l9.98 19.96c1.04 2.08.22 4.44-1.55 5.55l4.22 8.44c1.14 2.29.02 4.92-2.11 5.86l4.23 8.47c1.4 2.86-.69 6.22-3.88 6.22z"/></g><g transform="translate(-53.618752 3.491837)"><path d="M849.75 261.89s-5.72 5.96-5.87 13.83m-4.57-8.18s4.54 7.51 3.47 10.68" class="st22"/><path d="M839.65 258.98c-4.9-3.15-13.58-2.98-9.98 3.89 1.7 3.24-.5 9.46 8.14 5.56 7.43-3.35 6.53-6.44 1.84-9.45z" class="st19"/><path d="M859.15 258.28c1.18-5.02-1.76-8.05-8.21-6.91-8.61 1.51-3.55 5.06-3.34 9.12.29 6 9.65 5.89 11.55-2.21z" class="st20"/><path d="M853.65 266.99c-.95-1.62-12.24 4.13-10.4 12.54.38 1.75-.64-1.12 4.8-4.29 4.6-2.67 6.75-6.3 5.6-8.25z" class="st21"/><path d="M833.35 274.08c-3.36 2.07 4.53.99 9.65 5.89 1.93 1.84-1.49-10.91-9.65-5.89z" class="st21"/><circle cx="851.92" cy="257.42" r="1.29" class="st4"/><circle cx="835.48" cy="262.44" r="1.29" class="st4"/></g><g transform="translate(0 21)"><path d="M1309.29 240.04c-1.4 1.85-3.32 3.24-5.36 4.34-8.14 4.41-18.32 2.66-27.29 2.66h-16.39c-5.04 0-10.54-.04-14.77-3.08-.2-.15-.4-.3-.59-.46-4.31-3.48-3.16-12.23 3.53-11.43 1.4.18 2.85.97 4.16.42 1.55-.66 1.8-2.69 2.29-4.31.99-3.19 4.83-6.55 8.38-6.1.76.1 1.45.42 2.11.84 2.08 1.35 3.81 3.73 6.58 3.13 3.11-.68 5.37-5.27 7.91-7.07 2.51-1.79 5.71-2.62 8.75-2.12 3.04.49 5.85 2.38 7.34 5.08.9 1.62 1.31 3.51 2.38 5.04 3.48 4.97 11.73-1.65 12.87 6.54.32 2.3-.51 4.67-1.9 6.52z" class="st21"/><linearGradient id="SVGID_18_" x1="1267.7311" x2="1311.2994" y1="102.5655" y2="117.0278" gradientTransform="matrix(1 0 0 -1 0 342)" gradientUnits="userSpaceOnUse"><stop offset="0" stop-color="#90c74f" stop-opacity=".1"/><stop offset=".1259" stop-color="#81bf4f" stop-opacity=".2438"/><stop offset=".3663" stop-color="#6ab350" stop-opacity=".5182"/><stop offset=".5924" stop-color="#5cac50" stop-opacity=".7765"/><stop offset=".7882" stop-color="#57a950"/></linearGradient><path fill="url(#SVGID_18_)" d="M1309.29 240.04c-1.4 1.85-3.32 3.24-5.36 4.34-8.14 4.41-18.32 2.66-27.29 2.66h-.52c-.72-2.4 1.02-4.98 3.23-6.19 2.24-1.22 4.87-1.44 7.37-1.94 1.13-.22 2.33-.55 3.08-1.44.52-.61.75-1.43.82-2.24.24-2.59-1.11-5.27-3.34-6.61-.62-.38-1.33-.67-2.06-.6-1.58.13-2.52 1.74-3.55 2.93-1.84 2.1-4.73 3.24-7.51 2.97-2.78-.28-5.39-1.97-6.78-4.4-1.09-1.9-1.34-4.04-1.87-6.12-.04-.16-.09-.32-.15-.48 2.08 1.35 3.81 3.73 6.58 3.13 3.11-.68 5.37-5.27 7.91-7.07 2.51-1.79 5.71-2.62 8.75-2.12 3.04.49 5.85 2.38 7.34 5.08.9 1.62 1.31 3.51 2.38 5.04 3.48 4.97 11.73-1.65 12.87 6.54.32 2.3-.51 4.67-1.9 6.52z"/></g><g transform="translate(-536.668152 29.533915)"><path d="M993.53 242.4c-5.02 3.45-10.41 4.19-16.3 4.23-.23.01-.46.01-.7.01h-19.82c-4.33 0-7.96.75-11.54-2.25l-.06-.06c-.6-.5-1.17-1.03-1.62-1.67-3.12-4.36 1.02-11.86 6.58-9.52 2.28.95 4.33 5.02 6.58 1.86 1.21-1.69 2.35-3.1 3.44-4.28 11.6-12.59 16.66 1.81 21.44-2.14 2.83-2.34 6.58-3.92 10.16-2.31 6.15 2.77 7.51 12.24 1.84 16.13z" class="st21"/><linearGradient id="gradient-1" x1="959.8813" x2="1008.0363" y1="100.4247" y2="117.1198" gradientTransform="matrix(1 0 0 -1 0 342)" gradientUnits="userSpaceOnUse"><stop offset="0" stop-color="#90c74f" stop-opacity=".1"/><stop offset=".1259" stop-color="#81bf4f" stop-opacity=".2438"/><stop offset=".3663" stop-color="#6ab350" stop-opacity=".5182"/><stop offset=".5924" stop-color="#5cac50" stop-opacity=".7765"/><stop offset=".7882" stop-color="#57a950"/></linearGradient><path fill="url(#gradient-1)" d="M993.53 242.4c-5.02 3.45-10.41 4.19-16.3 4.23.08-.19.18-.39.28-.57 1.77-3.07 5.36-4.53 7.97-6.92.71-.66 1.4-1.51 1.31-2.48-.13-1.19-1.45-1.94-2.65-1.96s-2.34.47-3.51.76c-4.05.98-8.61-.77-10.97-4.21-.31-.46-.6-.95-1.06-1.26-.38-.25-.84-.35-1.3-.42-1.91-.28-3.89-.06-5.71.58-.41.15-.96.4-1.52.56 11.6-12.59 16.66 1.81 21.44-2.14 2.83-2.34 6.58-3.92 10.16-2.31 6.17 2.78 7.53 12.25 1.86 16.14z"/></g></svg>