<svg xmlns="http://www.w3.org/2000/svg" viewBox="0 0 512 512">
  <defs/>
  <circle cx="256" cy="256" r="256" fill="#ffe17d"/>
  <path fill="#ffd164" d="M293.161 474.839c-141.385 0-256-114.615-256-256 0-61.227 21.521-117.411 57.376-161.463C36.863 104.316 0 175.842 0 256c0 141.385 114.615 256 256 256 80.159 0 151.685-36.864 198.626-94.538-44.053 35.855-100.237 57.377-161.465 57.377z"/>
  <path fill="#aa7346" d="M107.419 183.734a10.305 10.305 0 01-7.806-3.56c-3.726-4.302-3.274-10.81 1.024-14.544 1.452-1.262 36.129-31.028 86.887-43.524 5.565-1.347 11.129 2.024 12.492 7.556 1.363 5.536-2.024 11.129-7.556 12.492-45.734 11.258-77.968 38.79-78.29 39.069a10.3 10.3 0 01-6.751 2.511z"/>
  <path fill="#9c6846" d="M256 394.107c27.16 0 53.289 2.114 77.717 6.016 19.827 3.167 34.447-18.282 24.383-35.656-20.404-35.222-58.456-58.92-102.1-58.92s-81.696 23.698-102.1 58.92c-10.065 17.374 4.556 38.823 24.383 35.656 24.428-3.902 50.557-6.016 77.717-6.016z"/>
  <path fill="#7d5046" d="M361.19 378.848c.496-4.718-.373-9.693-3.089-14.38-20.404-35.222-58.456-58.92-102.1-58.92s-81.696 23.698-102.1 58.92c-2.715 4.686-3.585 9.659-3.09 14.376 32.92-9.412 68.305-14.532 105.169-14.532 36.877-.001 72.278 5.119 105.21 14.536z"/>
  <path fill="#aa7346" d="M404.637 183.734c-2.395 0-4.798-.827-6.75-2.512-.323-.278-32.556-27.81-78.29-39.069-5.532-1.363-8.919-6.956-7.556-12.492a10.325 10.325 0 0112.492-7.556c50.758 12.496 85.435 42.262 86.887 43.524 4.298 3.734 4.75 10.242 1.024 14.544a10.307 10.307 0 01-7.807 3.561z"/>
  <path fill="#7d5046" d="M169.29 264.258c-11.402 0-20.645-9.243-20.645-20.645v-16.516c0-11.402 9.243-20.645 20.645-20.645s20.645 9.243 20.645 20.645v16.516c0 11.402-9.243 20.645-20.645 20.645z"/>
  <path fill="#9c6846" d="M169.29 206.452c-1.414 0-2.794.145-4.129.416v28.487c0 6.841 5.546 12.387 12.387 12.387s12.387-5.546 12.387-12.387v-8.258c0-11.402-9.242-20.645-20.645-20.645z"/>
  <path fill="#7d5046" d="M342.71 264.258c-11.402 0-20.645-9.243-20.645-20.645v-16.516c0-11.402 9.243-20.645 20.645-20.645s20.645 9.243 20.645 20.645v16.516c0 11.402-9.243 20.645-20.645 20.645z"/>
  <path fill="#9c6846" d="M342.71 206.452c-1.414 0-2.794.145-4.129.416v28.487c0 6.841 5.546 12.387 12.387 12.387s12.387-5.546 12.387-12.387v-8.258c0-11.402-9.243-20.645-20.645-20.645z"/>
  <path fill="#fff" d="M162.723 351.374c28.239-8.199 59.858-12.793 93.264-12.793 33.416 0 65.047 4.594 93.294 12.797-21.566-27.871-55.299-45.83-93.28-45.83-37.98 0-71.713 17.958-93.278 45.826z"/>
</svg>
