<svg xmlns="http://www.w3.org/2000/svg" viewBox="0 0 512 512">
  <defs/>
  <circle cx="256" cy="256" r="256" fill="#ffe17d"/>
  <path fill="#aa7346" d="M256 381.935c-35.524 0-69.234-13.597-90.177-36.367-3.863-4.194-3.589-10.726.605-14.585s10.734-3.589 14.589.609C198.121 350.19 226.153 361.29 256 361.29s57.879-11.101 74.984-29.698c3.855-4.198 10.395-4.468 14.589-.609 4.194 3.859 4.468 10.391.605 14.585-20.944 22.771-54.654 36.367-90.178 36.367z"/>
  <path fill="#7d5046" d="M169.29 256c-11.402 0-20.645-9.243-20.645-20.645v-16.516c0-11.402 9.243-20.645 20.645-20.645s20.645 9.243 20.645 20.645v16.516c0 11.402-9.243 20.645-20.645 20.645z"/>
  <path fill="#9c6846" d="M169.29 198.194c-1.414 0-2.794.145-4.129.416v28.487c0 6.841 5.546 12.387 12.387 12.387s12.387-5.546 12.387-12.387v-8.258c0-11.403-9.242-20.645-20.645-20.645z"/>
  <path fill="#7d5046" d="M342.71 256c-11.402 0-20.645-9.243-20.645-20.645v-16.516c0-11.402 9.243-20.645 20.645-20.645s20.645 9.243 20.645 20.645v16.516c0 11.402-9.243 20.645-20.645 20.645z"/>
  <path fill="#9c6846" d="M342.71 198.194c-1.414 0-2.794.145-4.129.416v28.487c0 6.841 5.546 12.387 12.387 12.387s12.387-5.546 12.387-12.387v-8.258c0-11.403-9.243-20.645-20.645-20.645z"/>
  <path fill="#ffd164" d="M293.161 474.839c-141.385 0-256-114.615-256-256 0-61.227 21.521-117.411 57.376-161.463C36.863 104.316 0 175.842 0 256c0 141.385 114.615 256 256 256 80.159 0 151.685-36.864 198.626-94.538-44.053 35.855-100.237 57.377-161.465 57.377z"/>
</svg>
