<svg width="17" height="22" viewBox="0 0 17 22" fill="none" xmlns="http://www.w3.org/2000/svg">
<path fill-rule="evenodd" clip-rule="evenodd" d="M8.43333 21.1674L2.62212 14.3419C-0.566168 11.0896 -0.523048 5.80287 2.72213 2.54182C4.3101 0.931687 6.42038 0.0508275 8.66143 0.0508275H8.66305C10.8503 0.0434671 12.9449 0.915773 14.4606 2.46503C17.6595 5.71057 17.6281 10.9931 14.3946 14.2613L8.43333 21.1674ZM8.54948 12.2772C10.9976 12.2746 12.9816 10.3251 12.9844 7.91948C12.9844 5.51263 10.9991 3.56133 8.54948 3.56133C6.10011 3.56133 4.11434 5.51263 4.11434 7.91948C4.11434 10.3263 6.10011 12.2772 8.54948 12.2772ZM8.54948 11.0049C6.81616 11.0029 5.4114 9.62271 5.40937 7.91948C5.40937 6.21525 6.81555 4.83389 8.54948 4.83389C10.2836 4.83389 11.6894 6.21525 11.6894 7.91948C11.6894 9.62331 10.2836 11.0049 8.54948 11.0049ZM3.60054 13.505C3.59001 13.4929 3.57968 13.4809 3.56875 13.47C0.847904 10.7093 0.882927 6.20988 3.65013 3.42944C4.95772 2.08448 6.76838 1.32338 8.66164 1.32338H8.66305C10.4992 1.31721 12.2581 2.04967 13.5302 3.35027C16.2517 6.11101 16.2158 10.6142 13.4515 13.3924C13.4485 13.3954 13.4456 13.3982 13.4428 13.401C13.4343 13.4093 13.4261 13.4173 13.4183 13.4266L8.46911 19.2185L3.60054 13.505Z" fill="#FF5050"/>
</svg>
