<svg width="10" height="20" viewBox="0 0 10 20" fill="none" xmlns="http://www.w3.org/2000/svg">
<path style="fill: #ED1E24; fill-rule: evenodd; clip-rule: evenodd;" fill-rule="evenodd" clip-rule="evenodd" d="M6.60487 0.0630302H9.58058C9.76344 0.0630302 9.86773 0.141602 9.86773 0.323744V19.433C9.86773 19.563 9.81558 19.6416 9.65916 19.6416H8.04058C7.9363 19.6416 7.85773 19.5373 7.85773 19.4587V12.3845H6.55273L2.92416 19.4587C2.87201 19.5895 2.76701 19.6416 2.61058 19.6416H0.757013C0.548441 19.6416 0.417727 19.4587 0.548441 19.2237L4.54273 12.0187C2.40201 11.0795 1.2013 9.17374 1.2013 6.58946C1.2013 2.28232 3.68058 0.0630302 6.60487 0.0630302ZM6.7613 10.7137H7.85773V1.73375H6.5263C4.93416 1.73375 3.36773 3.06517 3.36773 6.32803C3.36773 9.46089 5.03844 10.7137 6.7613 10.7137Z" fill="#ED1E24"/>
</svg>
