<svg xmlns="http://www.w3.org/2000/svg" xmlns:xlink="http://www.w3.org/1999/xlink" id="Слой_1" x="0" y="0" version="1.1" viewBox="0 0 1800 340" xml:space="preserve">
  <style>
    .st1{fill:#fff}.st2{fill:#efefef}.st3{fill:#b75674}.st4,.st5{fill:#8d8ac2}.st5{opacity:.56;enable-background:new}.st6{fill:#d2cde7}.st7{fill:#e4e6f5}.st8{fill:#6f71b2}.st11,.st18{fill:none;stroke:#d2cde7;stroke-miterlimit:10}.st18{stroke:#8d8ac2}.st22{fill:#5e6fb1}.st23{fill:#f7d058}.st24{fill:#e8abae}.st25{fill:#363052}.st29{fill:#d08f97}.st30{fill:#e29058}.st38{fill:none;stroke:#8d8ac2;stroke-width:.5;stroke-linecap:round;stroke-miterlimit:10}.st54{fill:#a0c558}.st62{fill:none;stroke:#8d8ac2;stroke-width:.75;stroke-miterlimit:10}
  </style>
  <path fill="#f6dbcd" d="M0 0h1800v340H0z"/>
  <g>
    <path d="M477.2 84c0 1.5-.6 2.8-1.7 3.8s-2.4 1.6-4 1.6h-89.7c-3.1 0-5.6-2.4-5.6-5.4 0-1.5.6-2.8 1.7-3.8.9-.9 2.1-1.4 3.6-1.6H471.6c3 0 5.6 2.4 5.6 5.4z" class="st1"/>
    <ellipse cx="389.7" cy="80.2" class="st1" rx="8.6" ry="8.3"/>
    <path d="M432.8 89.5c2.3-3.1 3.7-6.8 4.1-10.8.1-.6.1-1.2.1-1.8 0-4.8-1.6-9.2-4.3-12.9-4.2-5.6-10.9-9.1-18.6-9.1-11 0-20.2 7.5-22.5 17.4-.4 1.5-.5 3.1-.5 4.7 0 .6 0 1.2.1 1.8.3 3.2 1.2 6.2 2.8 8.9.4.7.8 1.3 1.2 2h29.7l7.9-.2z" class="st1"/>
    <path d="M432.8 89.5h25.3c.3-.4.4-.8.6-1.2 1.2-2.4 2-5.1 2-8.1 0-.5 0-1.1-.1-1.6-.2-2.3-.9-4.4-1.9-6.4-3.1-6.1-9.7-10.4-17.2-10.4-3.2 0-6.2.8-8.9 2.1-5.6 2.8-9.6 8.3-10.2 14.6-.1.5-.1 1.1-.1 1.6 0 3.4.9 6.5 2.6 9.2h7.9z" class="st1"/>
    <ellipse cx="460.6" cy="80.2" class="st1" rx="8.6" ry="8.3"/>
  </g>
  <g>
    <path d="M1470.3 64c0 1.3.6 2.5 1.6 3.4s2.3 1.4 3.8 1.4h86.2c3 0 5.4-2.2 5.4-4.8 0-1.3-.6-2.5-1.6-3.4-.9-.8-2.1-1.3-3.4-1.4H1475.7c-3 0-5.4 2.1-5.4 4.8z" class="st1"/>
    <ellipse cx="1554.3" cy="60.6" class="st1" rx="8.3" ry="7.4"/>
    <path d="M1520.5 68.8h28.6c.4-.6.8-1.1 1.2-1.7 1.5-2.4 2.4-5.1 2.7-7.9.1-.5.1-1.1.1-1.6 0-1.4-.2-2.8-.5-4.2-2.1-8.9-11-15.5-21.6-15.5-7.4 0-13.9 3.2-17.9 8.2-2.6 3.2-4.2 7.2-4.2 11.5 0 .5 0 1.1.1 1.6.3 3.6 1.7 6.9 3.9 9.7l7.6-.1z" class="st1"/>
    <path d="M1520.5 68.8c1.6-2.4 2.5-5.2 2.5-8.2 0-.5 0-1-.1-1.4-.6-5.7-4.4-10.6-9.8-13.1-2.6-1.2-5.5-1.9-8.6-1.9-7.3 0-13.6 3.8-16.6 9.2-1 1.8-1.6 3.7-1.8 5.7-.1.5-.1 1-.1 1.4 0 2.6.7 5 1.9 7.2.2.3.4.7.6 1h32v.1z" class="st1"/>
    <ellipse cx="1486.1" cy="60.6" class="st1" rx="8.3" ry="7.4"/>
  </g>
  <g>
    <path d="M1111.6 125.7c0 .9-.4 1.7-1.1 2.3s-1.6 1-2.6 1h-58c-2 0-3.6-1.5-3.6-3.3 0-.9.4-1.7 1.1-2.3.6-.5 1.4-.9 2.3-.9h58.3c2 0 3.6 1.4 3.6 3.2z" class="st1"/>
    <ellipse cx="1055.1" cy="123.5" class="st1" rx="5.6" ry="5"/>
    <path d="M1077.8 129h-19.2c-.3-.4-.6-.8-.8-1.2-1-1.6-1.6-3.4-1.8-5.3 0-.4-.1-.7-.1-1.1 0-1 .1-1.9.3-2.8 1.4-6 7.4-10.4 14.5-10.4 5 0 9.3 2.2 12 5.5 1.8 2.2 2.8 4.8 2.8 7.7 0 .4 0 .7-.1 1.1-.2 2.4-1.2 4.6-2.6 6.5h-5z" class="st1"/>
    <path d="M1077.8 129c-1.1-1.6-1.7-3.5-1.7-5.5 0-.3 0-.7.1-1 .4-3.8 2.9-7.1 6.6-8.8 1.7-.8 3.7-1.3 5.8-1.3 4.9 0 9.1 2.5 11.2 6.2.6 1.2 1.1 2.5 1.2 3.9 0 .3.1.6.1 1 0 1.7-.4 3.4-1.2 4.8-.1.2-.3.5-.4.7h-21.7z" class="st1"/>
    <ellipse cx="1100.9" cy="123.5" class="st1" rx="5.6" ry="5"/>
  </g>
  <g>
    <path d="M731.8 77.4c0 1.1-.4 2-1 2.7-.6.7-1.5 1.1-2.5 1.1h-50.2c-1.9 0-3.4-1.7-3.4-3.8 0-1.1.4-2 1-2.7.6-.7 1.5-1.1 2.5-1.1h50.2c1.9.1 3.4 1.8 3.4 3.8z" class="st1"/>
    <path d="M723.6 72.3c0 .5 0 .9-.1 1.4-.2 2.9-1.4 5.5-3.1 7.6h-18.2c-.2-.2-.3-.4-.4-.5-1.5-2-2.4-4.4-2.6-7.1-.1-.5-.1-.9-.1-1.4 0-2.5.6-4.7 1.6-6.7 2.1-4.1 6.1-6.8 10.7-6.8 5.6 0 10.3 4.1 11.7 9.7.4 1.3.5 2.5.5 3.8z" class="st1"/>
    <path d="M723.6 72.3c0 .5 0 .9-.1 1.4-.2 2.9-1.4 5.5-3.1 7.6h-18.2c-.2-.2-.3-.4-.4-.5-1.5-2-2.4-4.4-2.6-7.1-.1-.5-.1-.9-.1-1.4 0-2.5.6-4.7 1.6-6.7 2.1-4.1 6.1-6.8 10.7-6.8 5.6 0 10.3 4.1 11.7 9.7.4 1.3.5 2.5.5 3.8z" class="st1"/>
    <path d="M728.2 75.4c0 2.5-1.2 4.7-3.1 5.9h-6.4c-1.8-1.2-3.1-3.4-3.1-5.9 0-.6.1-1.1.2-1.7.7-3 3.1-5.2 6.1-5.2.4 0 .8.1 1.1.2 2.5.5 4.4 2.5 4.9 5.1.3.4.3 1 .3 1.6zM704.6 73.7c0 2.8-1.1 5.3-2.8 7.1-.2.2-.4.4-.6.5h-10.8c-.8-.7-1.5-1.5-2-2.4-.8-1.5-1.4-3.3-1.4-5.2 0-1 .2-2 .5-3 1.1-3.8 4.4-6.7 8.4-6.7 1.8 0 3.5.6 4.9 1.6 2.3 1.8 3.8 4.8 3.8 8.1z" class="st1"/>
    <ellipse cx="684.2" cy="75.4" class="st1" rx="5.4" ry="5.9"/>
  </g>
  <g>
    <path d="M201.1 95.4c0 .9-.4 1.8-1 2.4s-1.5 1-2.4 1h-49.3c-1.9 0-3.4-1.5-3.4-3.4 0-.9.4-1.8 1-2.4s1.5-1 2.4-1h49.3c1.9 0 3.4 1.5 3.4 3.4z" class="st1"/>
    <path d="M193.1 90.8c0 .4 0 .8-.1 1.2-.3 2.6-1.3 4.9-3 6.8h-17.9c-.1-.2-.3-.3-.4-.5-1.4-1.8-2.3-3.9-2.6-6.3 0-.4-.1-.8-.1-1.2 0-2.2.6-4.2 1.6-5.9 2.1-3.6 6-6.1 10.4-6.1 5.5 0 10.1 3.7 11.5 8.7.4 1 .6 2.1.6 3.3z" class="st1"/>
    <path d="M193.1 90.8c0 .4 0 .8-.1 1.2-.3 2.6-1.3 4.9-3 6.8h-17.9c-.1-.2-.3-.3-.4-.5-1.4-1.8-2.3-3.9-2.6-6.3 0-.4-.1-.8-.1-1.2 0-2.2.6-4.2 1.6-5.9 2.1-3.6 6-6.1 10.4-6.1 5.5 0 10.1 3.7 11.5 8.7.4 1 .6 2.1.6 3.3z" class="st1"/>
    <path d="M197.6 93.5c0 2.2-1.2 4.2-3 5.3h-6.3c-1.8-1.1-3-3-3-5.3 0-.5.1-1 .2-1.5.7-2.7 3.1-4.7 6-4.7.4 0 .8 0 1.1.1 2.4.4 4.3 2.2 4.8 4.6.2.5.2 1 .2 1.5zM174.4 92c0 2.5-1.1 4.7-2.7 6.3-.2.2-.4.3-.6.5h-10.6c-.8-.6-1.4-1.3-1.9-2.1-.9-1.3-1.4-2.9-1.4-4.6 0-.9.1-1.8.4-2.6 1.1-3.5 4.4-6 8.2-6 1.8 0 3.4.5 4.8 1.5 2.3 1.4 3.8 4 3.8 7z" class="st1"/>
    <circle cx="154.4" cy="93.5" r="5.3" class="st1"/>
  </g>
  <g>
    <path d="M1269.7 63.9c0 1.1-.4 2-1.1 2.7-.7.7-1.6 1.1-2.7 1.1h-54.7c-2.1 0-3.8-1.7-3.8-3.8 0-1.1.4-2 1.1-2.7.7-.7 1.6-1.1 2.7-1.1h54.7c2.1.2 3.8 1.8 3.8 3.8z" class="st1"/>
    <path d="M1260.7 58.9c0 .4 0 .9-.1 1.3-.3 2.9-1.5 5.5-3.3 7.5h-19.9c-.2-.2-.3-.4-.4-.5-1.6-2-2.6-4.4-2.9-7-.1-.4-.1-.9-.1-1.3 0-2.4.6-4.7 1.8-6.6 2.3-4 6.6-6.7 11.5-6.7 6.1 0 11.2 4 12.8 9.6.5 1.1.6 2.4.6 3.7z" class="st1"/>
    <path d="M1260.7 58.9c0 .4 0 .9-.1 1.3-.3 2.9-1.5 5.5-3.3 7.5h-19.9c-.2-.2-.3-.4-.4-.5-1.6-2-2.6-4.4-2.9-7-.1-.4-.1-.9-.1-1.3 0-2.4.6-4.7 1.8-6.6 2.3-4 6.6-6.7 11.5-6.7 6.1 0 11.2 4 12.8 9.6.5 1.1.6 2.4.6 3.7z" class="st1"/>
    <path d="M1265.8 61.9c0 2.5-1.3 4.7-3.3 5.9h-7c-2-1.2-3.3-3.4-3.3-5.9 0-.5.1-1.2.2-1.6.7-3 3.4-5.2 6.6-5.2.4 0 .9 0 1.3.1 2.6.4 4.7 2.5 5.4 5.1 0 .4.1 1 .1 1.6zM1240.1 60.3c0 2.8-1.2 5.2-3 7-.2.2-.4.4-.6.5h-11.7c-.8-.6-1.6-1.4-2.1-2.3-1-1.5-1.5-3.2-1.5-5.2 0-1 .2-2 .4-3 1.3-3.8 4.8-6.6 9.1-6.6 2 0 3.8.6 5.4 1.6 2.3 1.7 4 4.7 4 8z" class="st1"/>
    <circle cx="1217.8" cy="61.9" r="5.9" class="st1"/>
  </g>
  <path d="M821 200.3l-15.2-2.9v-22.7H821z" class="st2"/>
  <g>
    <path d="M1242.1 138c0 9-7.3 16.2-16.2 16.2-8.4 0-15.4-6.4-16.2-14.7 0-.5-.1-1-.1-1.6 0-9 7.3-16.2 16.2-16.2 9 .1 16.3 7.4 16.3 16.3z" class="st3"/>
    <path d="M1232.6 134.9c-3-4.4-6.8 0-6.8 0s-3.7-4.4-6.8 0c-2.9 4.2 6.8 11.4 6.8 11.4s9.7-7.2 6.8-11.4z" class="st1"/>
  </g>
  <g>
    <path d="M1268.7 106.5c0 6-4.8 10.8-10.8 10.8-5.6 0-10.2-4.3-10.7-9.7v-1c0-6 4.8-10.8 10.8-10.8s10.7 4.7 10.7 10.7z" class="st3"/>
    <path d="M1262.4 104.4c-2-2.9-4.5 0-4.5 0s-2.5-2.9-4.5 0c-1.9 2.8 4.5 7.6 4.5 7.6s6.5-4.8 4.5-7.6z" class="st1"/>
  </g>
  <g>
    <path d="M1294.2 80.5c0 4.6-3.7 8.3-8.3 8.3-4.3 0-7.8-3.3-8.2-7.5v-.8c0-4.6 3.7-8.3 8.3-8.3 4.5.1 8.2 3.8 8.2 8.3z" class="st3"/>
    <path d="M1289.4 79c-1.6-2.3-3.5 0-3.5 0s-1.9-2.3-3.5 0c-1.5 2.2 3.5 5.8 3.5 5.8s4.9-3.7 3.5-5.8z" class="st1"/>
  </g>
  <g>
    <path d="M1587.4 130.5h117.8v142.1h-117.8z" class="st4"/>
    <path d="M1477.4 205.1h110.1v67.5h-110.1z" class="st5"/>
    <path d="M1674.4 146.4h16.6v50.8h-16.6z" class="st6"/>
    <path d="M1676.1 173.7l13.1-7.7v-16.7h-13.1z" class="st2"/>
    <path d="M1638.6 146.4h16.6v50.8h-16.6zM1602.9 146.4h16.6v50.8h-16.6zM1643.5 205.1h58.1v67.5h-58.1z" class="st6"/>
    <path d="M1646.3 247.4l52.4-30.4v-8.6h-52.4z" class="st2"/>
    <path d="M1612.9 205.1h27.5v67.5h-27.5z" class="st6"/>
    <path d="M1616.3 260l20.9-9.5v-42.1h-20.7z" class="st2"/>
    <path d="M1589.4 205.1h20.8v67.5h-20.8z" class="st6"/>
    <path d="M1591.4 269.9l16.3-7.4v-54.1h-16.3z" class="st2"/>
    <path d="M1553.4 217.1h21.8v21.8h-21.8z" class="st7"/>
    <path d="M1555.2 218.8h18.2V237h-18.2z" class="st1"/>
    <path d="M1487.4 217.1h21.8v21.8h-21.8z" class="st7"/>
    <path d="M1489.2 218.9h18.2v18.2h-18.2z" class="st1"/>
    <circle cx="1531.4" cy="223.9" r="6.9" class="st7"/>
    <circle cx="1531.4" cy="223.9" r="5.5" class="st1"/>
    <path d="M1545.8 272.6c.3-1 .5-2 .5-3.1v-21c0-5.7-4.6-10.4-10.4-10.4h-9c-5.7 0-10.4 4.6-10.4 10.4v21c0 1.1.2 2.1.5 3.1h28.8z" class="st7"/>
    <path d="M1543.6 275.3c.3-1 .4-2 .4-3.1v-21.3c0-5.8-3.9-10.5-8.8-10.5h-7.6c-4.9 0-8.8 4.7-8.8 10.5v21.3c0 1.1.1 2.1.4 3.1h24.4z" class="st1"/>
    <path d="M1463.9 269.6h254.8v5.7h-254.8zM1588 134.2h117c1.1 0 2-.9 2-2v-2c0-1.1-.9-2-2-2h-117v6zM1588 202.7h118.2c.4 0 .7-.3.7-.7v-1.2c0-.4-.3-.7-.7-.7H1588v2.6zM1471.9 211.2h118.2c.4 0 .7-.3.7-.7v-1.2c0-.4-.3-.7-.7-.7h-118.2v2.6z" class="st8"/>
    <path d="M1640.4 186.1l13.1-8v-28.8h-13.1zM1604.7 195.3l13.1-6.7v-39.3h-13.1z" class="st2"/>
    <g>
      <g>
        <g>
          <g>
            <defs>
              <path id="SVGID_1_" d="M1584.2 130.5h124.2c1.6 0 2.8-1.5 2.4-3l-12.2-54.9c-.8-3.5-3.9-6.1-7.6-6.1h-88.8c-3.6 0-6.7 2.5-7.5 6l-13 54.9c-.3 1.6.9 3.1 2.5 3.1z"/>
            </defs>
            <clipPath id="SVGID_2_">
              <use overflow="visible" xlink:href="#SVGID_1_"/>
            </clipPath>
            <path fill="#8d8ac2" d="M1584.2 130.5h124.2c1.6 0 2.8-1.5 2.4-3l-12.2-54.9c-.8-3.5-3.9-6.1-7.6-6.1h-88.8c-3.6 0-6.7 2.5-7.5 6l-13 54.9c-.3 1.6.9 3.1 2.5 3.1z" clip-path="url(#SVGID_2_)"/>
          </g>
        </g>
      </g>
      <g>
        <g>
          <g>
            <defs>
              <path id="SVGID_3_" d="M1584.2 130.5h124.2c1.6 0 2.8-1.5 2.4-3l-12.2-54.9c-.8-3.5-3.9-6.1-7.6-6.1h-88.8c-3.6 0-6.7 2.5-7.5 6l-13 54.9c-.3 1.6.9 3.1 2.5 3.1z"/>
            </defs>
            <clipPath id="SVGID_4_">
              <use overflow="visible" xlink:href="#SVGID_3_"/>
            </clipPath>
            <g clip-path="url(#SVGID_4_)">
              <path d="M1707 77c-4.2 0-4.2-6-8.4-6s-4.2 6-8.4 6-4.2-6-8.4-6-4.2 6-8.4 6-4.2-6-8.4-6-4.2 6-8.4 6-4.2-6-8.4-6-4.2 6-8.4 6-4.2-6-8.4-6-4.2 6-8.4 6-4.2-6-8.4-6-4.2 6-8.4 6-4.2-6-8.4-6-4.2 6-8.4 6" class="st11"/>
            </g>
          </g>
        </g>
      </g>
      <g>
        <g>
          <g>
            <defs>
              <path id="SVGID_5_" d="M1584.2 130.5h124.2c1.6 0 2.8-1.5 2.4-3l-12.2-54.9c-.8-3.5-3.9-6.1-7.6-6.1h-88.8c-3.6 0-6.7 2.5-7.5 6l-13 54.9c-.3 1.6.9 3.1 2.5 3.1z"/>
            </defs>
            <clipPath id="SVGID_6_">
              <use overflow="visible" xlink:href="#SVGID_5_"/>
            </clipPath>
            <g clip-path="url(#SVGID_6_)">
              <path d="M1707 89.6c-4.2 0-4.2-6-8.4-6s-4.2 6-8.4 6-4.2-6-8.4-6-4.2 6-8.4 6-4.2-6-8.4-6-4.2 6-8.4 6-4.2-6-8.4-6-4.2 6-8.4 6-4.2-6-8.4-6-4.2 6-8.4 6-4.2-6-8.4-6-4.2 6-8.4 6-4.2-6-8.4-6-4.2 6-8.4 6" class="st11"/>
            </g>
          </g>
        </g>
      </g>
      <g>
        <g>
          <g>
            <defs>
              <path id="SVGID_7_" d="M1584.2 130.5h124.2c1.6 0 2.8-1.5 2.4-3l-12.2-54.9c-.8-3.5-3.9-6.1-7.6-6.1h-88.8c-3.6 0-6.7 2.5-7.5 6l-13 54.9c-.3 1.6.9 3.1 2.5 3.1z"/>
            </defs>
            <clipPath id="SVGID_8_">
              <use overflow="visible" xlink:href="#SVGID_7_"/>
            </clipPath>
            <g clip-path="url(#SVGID_8_)">
              <path d="M1710 101.6c-4.5 0-4.5-6-8.9-6-4.5 0-4.5 6-8.9 6-4.5 0-4.5-6-8.9-6-4.5 0-4.5 6-8.9 6-4.5 0-4.5-6-8.9-6-4.5 0-4.5 6-8.9 6-4.5 0-4.5-6-8.9-6-4.5 0-4.5 6-8.9 6-4.5 0-4.5-6-8.9-6-4.5 0-4.5 6-8.9 6-4.5 0-4.5-6-9-6s-4.5 6-8.9 6c-4.5 0-4.5-6-9-6s-4.5 6-9 6" class="st11"/>
            </g>
          </g>
        </g>
      </g>
      <g>
        <g>
          <g>
            <defs>
              <path id="SVGID_9_" d="M1584.2 130.5h124.2c1.6 0 2.8-1.5 2.4-3l-12.2-54.9c-.8-3.5-3.9-6.1-7.6-6.1h-88.8c-3.6 0-6.7 2.5-7.5 6l-13 54.9c-.3 1.6.9 3.1 2.5 3.1z"/>
            </defs>
            <clipPath id="SVGID_10_">
              <use overflow="visible" xlink:href="#SVGID_9_"/>
            </clipPath>
            <g clip-path="url(#SVGID_10_)">
              <path d="M1709 113.7c-4.5 0-4.5-6-8.9-6-4.5 0-4.5 6-8.9 6-4.5 0-4.5-6-8.9-6-4.5 0-4.5 6-8.9 6-4.5 0-4.5-6-8.9-6-4.5 0-4.5 6-8.9 6-4.5 0-4.5-6-8.9-6-4.5 0-4.5 6-8.9 6-4.5 0-4.5-6-8.9-6-4.5 0-4.5 6-8.9 6-4.5 0-4.5-6-9-6s-4.5 6-8.9 6c-4.5 0-4.5-6-9-6s-4.5 6-9 6" class="st11"/>
            </g>
          </g>
        </g>
      </g>
      <g>
        <g>
          <g>
            <defs>
              <path id="SVGID_11_" d="M1584.2 130.5h124.2c1.6 0 2.8-1.5 2.4-3l-12.2-54.9c-.8-3.5-3.9-6.1-7.6-6.1h-88.8c-3.6 0-6.7 2.5-7.5 6l-13 54.9c-.3 1.6.9 3.1 2.5 3.1z"/>
            </defs>
            <clipPath id="SVGID_12_">
              <use overflow="visible" xlink:href="#SVGID_11_"/>
            </clipPath>
            <g clip-path="url(#SVGID_12_)">
              <path d="M1714 126c-4.8 0-4.8-6-9.6-6s-4.8 6-9.6 6-4.8-6-9.6-6-4.8 6-9.6 6-4.8-6-9.6-6-4.8 6-9.6 6-4.8-6-9.6-6-4.8 6-9.6 6-4.8-6-9.6-6-4.8 6-9.6 6-4.8-6-9.6-6-4.8 6-9.6 6-4.8-6-9.6-6-4.8 6-9.6 6" class="st11"/>
            </g>
          </g>
        </g>
      </g>
    </g>
    <g>
      <g>
        <g>
          <g>
            <defs>
              <path id="SVGID_13_" d="M1469.3 209.7h124.2c1.6 0 2.8-1 2.4-2l-12.2-36.2c-.8-2.3-3.9-4-7.6-4h-88.8c-3.6 0-6.7 1.6-7.5 3.9l-13 36.3c-.3 1 .9 2 2.5 2z"/>
            </defs>
            <clipPath id="SVGID_14_">
              <use overflow="visible" xlink:href="#SVGID_13_"/>
            </clipPath>
            <path fill="#d2cde7" d="M1469.3 209.7h124.2c1.6 0 2.8-1 2.4-2l-12.2-36.2c-.8-2.3-3.9-4-7.6-4h-88.8c-3.6 0-6.7 1.6-7.5 3.9l-13 36.3c-.3 1 .9 2 2.5 2z" clip-path="url(#SVGID_14_)"/>
          </g>
        </g>
      </g>
      <g>
        <g>
          <g>
            <defs>
              <path id="SVGID_15_" d="M1469.3 209.7h124.2c1.6 0 2.8-1 2.4-2l-12.2-36.2c-.8-2.3-3.9-4-7.6-4h-88.8c-3.6 0-6.7 1.6-7.5 3.9l-13 36.3c-.3 1 .9 2 2.5 2z"/>
            </defs>
            <clipPath id="SVGID_16_">
              <use overflow="visible" xlink:href="#SVGID_15_"/>
            </clipPath>
            <g clip-path="url(#SVGID_16_)">
              <path d="M1589.4 179.4c-4.2 0-4.2-6-8.4-6s-4.2 6-8.4 6-4.2-6-8.4-6-4.2 6-8.4 6-4.2-6-8.4-6-4.2 6-8.4 6-4.2-6-8.4-6-4.2 6-8.4 6-4.2-6-8.4-6-4.2 6-8.4 6-4.2-6-8.4-6-4.2 6-8.4 6-4.2-6-8.4-6-4.2 6-8.4 6" class="st18"/>
            </g>
          </g>
        </g>
      </g>
      <g>
        <g>
          <g>
            <defs>
              <path id="SVGID_17_" d="M1469.3 209.7h124.2c1.6 0 2.8-1 2.4-2l-12.2-36.2c-.8-2.3-3.9-4-7.6-4h-88.8c-3.6 0-6.7 1.6-7.5 3.9l-13 36.3c-.3 1 .9 2 2.5 2z"/>
            </defs>
            <clipPath id="SVGID_18_">
              <use overflow="visible" xlink:href="#SVGID_17_"/>
            </clipPath>
            <g clip-path="url(#SVGID_18_)">
              <path d="M1589.4 190.4c-4.2 0-4.2-6-8.4-6s-4.2 6-8.4 6-4.2-6-8.4-6-4.2 6-8.4 6-4.2-6-8.4-6-4.2 6-8.4 6-4.2-6-8.4-6-4.2 6-8.4 6-4.2-6-8.4-6-4.2 6-8.4 6-4.2-6-8.4-6-4.2 6-8.4 6-4.2-6-8.4-6-4.2 6-8.4 6" class="st18"/>
            </g>
          </g>
        </g>
      </g>
      <g>
        <g>
          <g>
            <defs>
              <path id="SVGID_19_" d="M1469.3 209.7h124.2c1.6 0 2.8-1 2.4-2l-12.2-36.2c-.8-2.3-3.9-4-7.6-4h-88.8c-3.6 0-6.7 1.6-7.5 3.9l-13 36.3c-.3 1 .9 2 2.5 2z"/>
            </defs>
            <clipPath id="SVGID_20_">
              <use overflow="visible" xlink:href="#SVGID_19_"/>
            </clipPath>
            <g clip-path="url(#SVGID_20_)">
              <path d="M1589.4 135.7c-4.2 0-4.2-6-8.4-6s-4.2 6-8.4 6-4.2-6-8.4-6-4.2 6-8.4 6-4.2-6-8.4-6-4.2 6-8.4 6-4.2-6-8.4-6-4.2 6-8.4 6-4.2-6-8.4-6-4.2 6-8.4 6-4.2-6-8.4-6-4.2 6-8.4 6-4.2-6-8.4-6-4.2 6-8.4 6" class="st11"/>
            </g>
          </g>
        </g>
      </g>
      <g>
        <g>
          <g>
            <defs>
              <path id="SVGID_21_" d="M1469.3 209.7h124.2c1.6 0 2.8-1 2.4-2l-12.2-36.2c-.8-2.3-3.9-4-7.6-4h-88.8c-3.6 0-6.7 1.6-7.5 3.9l-13 36.3c-.3 1 .9 2 2.5 2z"/>
            </defs>
            <clipPath id="SVGID_22_">
              <use overflow="visible" xlink:href="#SVGID_21_"/>
            </clipPath>
            <g clip-path="url(#SVGID_22_)">
              <path d="M1595.1 201.3c-4.5 0-4.5-6-8.9-6-4.5 0-4.5 6-8.9 6s-4.5-6-8.9-6c-4.5 0-4.5 6-8.9 6-4.5 0-4.5-6-8.9-6-4.5 0-4.5 6-8.9 6-4.5 0-4.5-6-8.9-6-4.5 0-4.5 6-8.9 6-4.5 0-4.5-6-8.9-6-4.5 0-4.5 6-8.9 6-4.5 0-4.5-6-9-6s-4.5 6-8.9 6c-4.5 0-4.5-6-9-6s-4.5 6-9 6" class="st18"/>
            </g>
          </g>
        </g>
      </g>
    </g>
  </g>
  <g>
    <path d="M550.8 135h-99.3c-5.6 0-10.2-4.6-10.2-10.2V116c0-5.6 4.6-10.2 10.2-10.2H553c5.6 0 10.2 4.6 10.2 10.2v26.3c-3.6 5.1-6.7-7.3-12.4-7.3z" class="st22"/>
    <g>
      <path d="M463.1 113.3l1.7 5.2h5.5l-4.5 3.2 1.7 5.3-4.4-3.3-4.5 3.3 1.7-5.3-4.4-3.2h5.5zM483.4 113.3l1.7 5.2h5.5l-4.4 3.2 1.7 5.3-4.5-3.3-4.5 3.3 1.7-5.3-4.4-3.2h5.5zM503.7 113.3l1.7 5.2h5.5l-4.4 3.2 1.7 5.3-4.5-3.3-4.4 3.3 1.7-5.3-4.5-3.2h5.5zM524 113.3l1.7 5.2h5.5l-4.4 3.2 1.7 5.3-4.5-3.3-4.4 3.3 1.7-5.3-4.5-3.2h5.5z" class="st23"/>
      <path d="M544.3 113.3l1.7 5.2h5.5l-4.4 3.2 1.7 5.3-4.5-3.3-4.4 3.3 1.7-5.3-4.5-3.2h5.5z" class="st1"/>
    </g>
  </g>
  <g>
    <path d="M601.1 273.5s-.1.3-.2.9c-.9 4-4.8 20.5-13.4 34.1H581l8.5-37.3 11.6 2.3zM615.4 309l-2-.3-4.5-.8 2.1-27 .5-6.2s10.4 2.7 11.3 5.5c.7 2.9-7.4 28.8-7.4 28.8z" class="st24"/>
    <path d="M582.4 170.2l-18.5-11.7c-.4-.3-.5-.9-.2-1.3l.4-.6c.3-.5.9-.6 1.3-.4l18.5 11.7c.4.3.5.9.2 1.3l-.4.6c-.3.5-.9.7-1.3.4z" class="st8"/>
    <path d="M616.8 138.8s0 13.4-3.5 16.5c-.9 1.1-3.1 1.6-4.5 1.7h-.2c-2.2.2-6.5-.4-8.9-2.2-.7-.5-1.3-1.2-1.6-2-.3-.7 0-1.5.5-2.1 1.3-1.7 3-2.1 4-4.3v-.1c.8-1.7 1.1-3.5 1.1-5.3v-.3c0-.6 0-1.1.1-1.7.1-.4.4-.6.8-.8 1.7-.6 5.3.1 6.6.1.2.2 5.6.4 5.6.5z" class="st25"/>
    <linearGradient id="SVGID_23_" x1="599.589" x2="611.7505" y1="191.0759" y2="191.0759" gradientTransform="matrix(1 0 0 -1 0 340)" gradientUnits="userSpaceOnUse">
      <stop offset="0" stop-color="#3b4167" stop-opacity="0"/>
      <stop offset=".1963" stop-color="#303452" stop-opacity=".1963"/>
      <stop offset=".3967" stop-color="#262740" stop-opacity=".3967"/>
      <stop offset=".5843" stop-color="#212132" stop-opacity=".5843"/>
      <stop offset=".7532" stop-color="#18181e" stop-opacity=".7532"/>
      <stop offset=".8974" stop-color="#0b0b0d" stop-opacity=".8974"/>
      <stop offset="1"/>
    </linearGradient>
    <path fill="url(#SVGID_23_)" d="M611.7 148.1c-.1 1.4-.2 2.8-.4 4.3-.2 1-.4 2.1-.9 2.9-.4.7-1 1.2-1.6 1.7h-.2c-2.2.2-6.5-.4-8.9-2.2.5-.7 1.5-1.1 2.4-1.3 5.1-1.2 2.5-4.3.5-7.1.8-1.7 1.1-3.5 1.1-5.3 1.2-.4 2.6-.4 3.9.1 1.8.8 3.6 2.2 4.1 4.2.1.8.1 1.8 0 2.7z"/>
    <linearGradient id="SVGID_24_" x1="585.4867" x2="605.6664" y1="51.5481" y2="44.2527" gradientTransform="matrix(1 0 0 -1 0 340)" gradientUnits="userSpaceOnUse">
      <stop offset="0" stop-color="#e8abae" stop-opacity="0"/>
      <stop offset=".151" stop-color="#db959e" stop-opacity=".151"/>
      <stop offset=".5581" stop-color="#c66f83" stop-opacity=".5581"/>
      <stop offset=".8516" stop-color="#bb5c78" stop-opacity=".8516"/>
      <stop offset="1" stop-color="#b75674"/>
    </linearGradient>
    <path fill="url(#SVGID_24_)" d="M600.9 274.4c-.9 4-4.8 20.5-13.4 34.1h-1.1c2.6-6 5.2-12.1 7.8-18.1.9-2.1 3.2-6.7 2-9-.9-1.7-3.7-.9-4.4-3.5-1.8-5.7 5.8-5.3 9.1-3.5z"/>
    <path fill="#dc9fa4" d="M617.4 152.7c-2.5 3.8-11.4 6.1-10.1 2.9.7-1.7 1.1-4.2 1.3-6.6.1-1.4.2-2.7.2-3.8v-2.3l5.4-3.6c.1.1 5.8 9.6 3.2 13.4z"/>
    <path d="M614.6 144.2c0 .8-.4 1.5-.8 2.1-.7.9-1.6 1.6-2.6 1.7-.7.1-1.2.1-1.8.5-.2.2-.5.4-.7.5.1-1.4.2-2.7.2-3.8.6-.3 1.1-.7 1.7-1 1-.5 2.2-1.1 3.3-1 .2 0 .4.1.5.2.2.3.2.5.2.8z" class="st29"/>
    <path d="M609.1 146.5c-3.6 1.7-8.1-4-8-9.5 0-2.7.4-4.8.9-6.5 1.4-4.2 3.9-5.6 5.2-5.8 2.4-.4 5.5.8 7.8 3 1.5 1.5 2.7 3.4 3 5.8.5 3.5-3 10.3-8.9 13z" class="st24"/>
    <path d="M635 281.8c-5.3 1.4-14.7-.2-19.2-2-10.8-4.3-22.7.2-33.8-2.3-1.2-.3-2.3-.6-3.3-.9-7.2-2.4-7-5.9-5.7-13.7 1.2-6.9 5.8-18.3 8-24.9 4.2-12.4 12.3-28.8 18.6-39 5.8-9.3-6.7-27.3-4-31.3 2.5-3.6 5.8-6.4 8.4-9.5 1.7-2 3-5.4 3.4-5.4 4.3.1 7-1.3 7-1.3 6.3 1.2 9.3 3.6 10.5 6.5 1.2 2.7.9 5.9.5 9.1-2 16.8-4.9 25-4.6 29.3.3 5 3.4 7.8 7.7 18.4 5.5 13.2 24.7 62.2 6.5 67z" class="st30"/>
    <path d="M618.5 178.3v.1c-.7 1.4-7.8 16.2-9.9 15.9-.8-.1-3.5-1.3-7.2-3.3-6-3.3-14.6-9.1-22.1-16.9l-.2-.2 3.8-3.6s19.8 9.5 21.1 12.1c0 0 3.8-8.9 5.1-8.5 1.1.3 7 3.3 8.8 4.2.4.1.6.2.6.2z" class="st24"/>
    <linearGradient id="SVGID_25_" x1="602.1359" x2="624.2849" y1="158.4254" y2="148.9322" gradientTransform="matrix(1 0 0 -1 0 340)" gradientUnits="userSpaceOnUse">
      <stop offset="0" stop-color="#e8abae" stop-opacity="0"/>
      <stop offset=".112" stop-color="#dd98a1" stop-opacity=".112"/>
      <stop offset=".4158" stop-color="#cb7689" stop-opacity=".4158"/>
      <stop offset=".6758" stop-color="#c0647c" stop-opacity=".6758"/>
      <stop offset=".8789" stop-color="#b95976" stop-opacity=".8789"/>
      <stop offset="1" stop-color="#b75674"/>
    </linearGradient>
    <path fill="url(#SVGID_25_)" d="M618.4 178.4c-.7 1.4-7.8 16.2-9.9 15.9-.8-.1-3.5-1.3-7.2-3.3 1.5 0 2.8.2 4.3.2 2.7 0 4.3-3.7 5.3-5.6 1.7-3.2-6.3-5.9-4-8.5.6-.7 1.5-.5 2.3-.3 1.2.2 2.3.9 3.4 1.3 1 .4 2.2.7 3.3.6.3.1 2.6-.3 2.5-.3z"/>
    <path d="M619.6 180.4c-1.9 3.3-12.2.1-14-3.3-.2-.3-.3-.6-.3-.9-.2-3.6 4-26.4 15.8-21.5.1 0 .2.1.3.1 6.9 3 9.3 6.3-1.8 25.6z" class="st30"/>
    <linearGradient id="SVGID_26_" x1="605.2619" x2="630.5543" y1="50.3147" y2="43.2332" gradientTransform="matrix(1 0 0 -1 0 340)" gradientUnits="userSpaceOnUse">
      <stop offset="0" stop-color="#e8abae" stop-opacity="0"/>
      <stop offset=".151" stop-color="#db959e" stop-opacity=".151"/>
      <stop offset=".5581" stop-color="#c66f83" stop-opacity=".5581"/>
      <stop offset=".8516" stop-color="#bb5c78" stop-opacity=".8516"/>
      <stop offset="1" stop-color="#b75674"/>
    </linearGradient>
    <path fill="url(#SVGID_26_)" d="M615.4 309l-2-.3c-.1-.4-.2-.8-.2-1.2.1-1.3 3.3-9.2 3.8-12 .4-2.2.9-4.3 1.3-6.5 1.1-5.3-4.3-5.6-7.3-8.1l.5-6.2s10.4 2.7 11.3 5.5c.7 2.9-7.4 28.8-7.4 28.8z"/>
    <path d="M615.1 134.6c0 .6-.1 1.1-.2 1.6-.1.6-2.4 8-1.8 8-2.4-.3-5.1-2.4-5-4.8 0-1.2 1.2-2.5 1.5-3.6.3-1.3.4-2.9-.2-4.1 0-.9-2-2.8-2.9-3-1.8-.5-4.5 1.9-4.7 3.5-.3 0-.5-.3-.6-.6-.6-1.6 1.1-3.8 2.1-4.9.8-.9 1.9-1.7 3.1-1.9 2.4-.4 5.5.8 7.8 3l.3.9c.4 1.7.7 3.9.6 5.9z" class="st29"/>
    <linearGradient id="SVGID_27_" x1="585.95" x2="665.3704" y1="129.4375" y2="95.534" gradientTransform="matrix(1 0 0 -1 0 340)" gradientUnits="userSpaceOnUse">
      <stop offset="0" stop-color="#e29058" stop-opacity="0"/>
      <stop offset=".1448" stop-color="#df8457" stop-opacity=".1448"/>
      <stop offset=".5241" stop-color="#d96f54" stop-opacity=".5241"/>
      <stop offset=".8221" stop-color="#d76252" stop-opacity=".8221"/>
      <stop offset="1" stop-color="#d65d52"/>
    </linearGradient>
    <path fill="url(#SVGID_27_)" d="M635 281.8c-5.3 1.4-14.7-.2-19.2-2-10.8-4.3-22.7.2-33.8-2.3-1.2-.3-2.3-.6-3.3-.9 2-2.6 3.7-5.2 6.6-7 3.5-2.2 8.5-4.5 12.6-5 8.7-1 17.9.2 24.8-5.3 4.5-3.5 6.3-5.9 6-11.5-.3-5.7-1.8-8.6-4.9-13.4-1.5-2.3-4.5-4.6-5.4-7.1-1.6-4.5 3.8-11.6 2.6-16.1-1.5-5.4-10.1-10.3-7.2-15.4 2.6-4.6 5.1-9.3 6.9-15.5.7-2.2 3.8-18.6 4.3-22.2 1.2 2.7.9 5.9.5 9.1-2 16.8-4.9 25-4.6 29.3.3 5 3.4 7.8 7.7 18.4 5.4 13.1 24.6 62.1 6.4 66.9z"/>
    <linearGradient id="SVGID_28_" x1="609.8663" x2="630.084" y1="174.8008" y2="166.854" gradientTransform="matrix(1 0 0 -1 0 340)" gradientUnits="userSpaceOnUse">
      <stop offset="0" stop-color="#e29058" stop-opacity="0"/>
      <stop offset=".1448" stop-color="#df8457" stop-opacity=".1448"/>
      <stop offset=".5241" stop-color="#d96f54" stop-opacity=".5241"/>
      <stop offset=".8221" stop-color="#d76252" stop-opacity=".8221"/>
      <stop offset="1" stop-color="#d65d52"/>
    </linearGradient>
    <path fill="url(#SVGID_28_)" d="M619.6 180.4c-1.9 3.3-12.2.1-14-3.3.4-.3.9-.5 1.4-.7 1.5-.4 3.1 0 4.6-.2 1.9-.2 3.7-1.8 3.7-3.7 0-.8-.3-1.7-.3-2.5.1-1.7 1.8-2.7 3-3.8 1.5-1.4 2.6-3.2 3.1-5.2.3-1 .4-2.1.4-3.2 0-.8-.5-2.1-.2-2.9 0-.1.1-.2.1-.3 6.9 3.2 9.3 6.5-1.8 25.8z"/>
    <path d="M636.3 159.4c-5.1 5.3-15.3 3.1-18.1 1.5-2.5-1.4-4.4-2.8-5.9-5.6-.9-1.6-1.2-4.7-.7-6.6.3-1.3 1.1-2.5.8-3.7-.3-1.5-1.9-2.2-2.6-3.5-.7-1.2-.5-2.8-.1-4.2.6-2.1 1.5-4.2.5-6.4-.8-1.8-3.4-3.3-5-3.9-1-.4-1.2-1.9-1.2-3 0-.3 0-.5.1-.7.6-2.9 2.9-4.2 5.6-4.5 3.1-.4 6.8.4 8.8 1.3 8.7 3.8 10.6 9.2 12.7 15.8.9 3 1.2 8.6 1.9 11.7.8 4.2 3.8 4 4.4 6.6.4 1.6-.1 4.1-1.2 5.2z" class="st25"/>
    <path d="M582.8 170.3l-3.7 3.5-.1.1-2.8-2.2s-3.3-1.3-5.5-3.9c-1.7-2.1-2.6-5.2-2.2-5.9.1-.2.2-.2.5 0 2.6 1.6 2.6 1.8 6.1 3.6 3.9 1.9-.6-2 .4-3 .8-.9 3.8 1.8 4.7 3.3 1.7 2.4 2.6 4.5 2.6 4.5z" class="st24"/>
    <path d="M616.3 315.3h-17.8s-1.9-.1 1.1-2.4c1.5-1.2 4.3-2.9 9.2-5.5 0 0 1.9 1.1 4.7.8.7-.1 1.4-.2 2.2-.5.9-.4 2.3 5.2.6 7.6zM588.5 315.8h-20.1s-1.1-.8 3.2-3.7c1.9-1.3 5-3 9.7-5.3 0 0 1.8 1.9 6 .5.4-.1.8-.3 1.2-.5 1.8-.8 2.3 9.1 0 9zM607.7 126.6c-1.7 1-4.5 1.9-5.5 3.6-.3.6-.5 1.2-.4 2 .1.7.2 1.4-.2 2-.3.4-2.6.1-3.4-1.6-1.4-2.9-.4-6.5 1.7-9 .3-.4.6-.7.9-1 .3-.3.6-.5.9-.7 2-1.4 5.2-2.9 7.6-1.3 1.9 1.5.2 4.9-1.6 6z" class="st25"/>
    <linearGradient id="SVGID_29_" x1="601.338" x2="645.6234" y1="197.3014" y2="202.2988" gradientTransform="matrix(1 0 0 -1 0 340)" gradientUnits="userSpaceOnUse">
      <stop offset="0" stop-color="#3b4167" stop-opacity="0"/>
      <stop offset=".1963" stop-color="#303452" stop-opacity=".1963"/>
      <stop offset=".3967" stop-color="#262740" stop-opacity=".3967"/>
      <stop offset=".5843" stop-color="#212132" stop-opacity=".5843"/>
      <stop offset=".7532" stop-color="#18181e" stop-opacity=".7532"/>
      <stop offset=".8974" stop-color="#0b0b0d" stop-opacity=".8974"/>
      <stop offset="1"/>
    </linearGradient>
    <path fill="url(#SVGID_29_)" d="M636.3 159.4c-5.1 5.3-15.3 3.1-18.1 1.5-2.5-1.4-4.4-2.8-5.9-5.6.2-.2.3-.4.6-.6 1-.8 2.4-1.2 3.7-1 1.8.2 3.3 1.3 5 2 2.1.8 3.8.9 5.5-.7 1.8-1.8 0-4.6-1.5-5.9-3.2-2.8.6-5-.7-8.4-.6-1.5-1.5-2.8-2-4.3-.7-2.3-.1-3.5.2-5.9.5-4.4-3.3-7.6-6.7-9.5-1.2-.7-2.5-1.3-3.8-1.7-.7-.2-2-.2-2.9-.6 3.1-.4 6.8.4 8.8 1.3 8.7 3.8 10.6 9.2 12.7 15.8.9 3 1.2 8.6 1.9 11.7.8 4.2 3.8 4 4.4 6.6.4 1.7-.1 4.2-1.2 5.3z"/>
    <linearGradient id="SVGID_30_" x1="596.6389" x2="604.5704" y1="214.2351" y2="206.1901" gradientTransform="matrix(1 0 0 -1 0 340)" gradientUnits="userSpaceOnUse">
      <stop offset="0" stop-color="#3b4167" stop-opacity="0"/>
      <stop offset=".1963" stop-color="#303452" stop-opacity=".1963"/>
      <stop offset=".3967" stop-color="#262740" stop-opacity=".3967"/>
      <stop offset=".5843" stop-color="#212132" stop-opacity=".5843"/>
      <stop offset=".7532" stop-color="#18181e" stop-opacity=".7532"/>
      <stop offset=".8974" stop-color="#0b0b0d" stop-opacity=".8974"/>
      <stop offset="1"/>
    </linearGradient>
    <path fill="url(#SVGID_30_)" d="M601.8 132.2c.1.7.2 1.4-.2 2-.3.4-2.6.1-3.4-1.6-1.4-2.9-.4-6.5 1.7-9-.2.9-.4 2-.3 2.6.3 1.6 1.3 3.1 2.7 4-.4.6-.6 1.2-.5 2z"/>
    <linearGradient id="SVGID_31_" x1="575.6755" x2="569.5978" y1="176.5468" y2="162.3113" gradientTransform="matrix(1 0 0 -1 0 340)" gradientUnits="userSpaceOnUse">
      <stop offset="0" stop-color="#e8abae" stop-opacity="0"/>
      <stop offset=".151" stop-color="#db959e" stop-opacity=".151"/>
      <stop offset=".5581" stop-color="#c66f83" stop-opacity=".5581"/>
      <stop offset=".8516" stop-color="#bb5c78" stop-opacity=".8516"/>
      <stop offset="1" stop-color="#b75674"/>
    </linearGradient>
    <path fill="url(#SVGID_31_)" d="M579.1 173.8l-.1.1-2.8-2.2s-3.3-1.3-5.5-3.9c-1.7-2.1-2.6-5.2-2.2-5.9.2.2.5.6.8 1 1.3 2 2.2 3.6 4.2 5.1 1.6 1.1 3.3 2.1 4.4 3.7.5.7.9 1.4 1.2 2.1z"/>
    <path d="M572.4 314.4h15.8M600 313.9h15.8" class="st38"/>
    <linearGradient id="SVGID_32_" x1="599.9867" x2="618.5869" y1="30.7175" y2="24.9977" gradientTransform="matrix(1 0 0 -1 0 340)" gradientUnits="userSpaceOnUse">
      <stop offset="0" stop-color="#363052" stop-opacity="0"/>
      <stop offset=".0715" stop-color="#362e4d" stop-opacity=".0715"/>
      <stop offset=".4182" stop-color="#34273b" stop-opacity=".4182"/>
      <stop offset=".6986" stop-color="#2a2428" stop-opacity=".6986"/>
      <stop offset=".8988" stop-color="#141313" stop-opacity=".8988"/>
      <stop offset="1"/>
    </linearGradient>
    <path fill="url(#SVGID_32_)" d="M616.3 315.3h-17.8s-1.9-.1 1.1-2.4c1-.4 2-.7 2.6-.5.1 0 .2 0 .2.1.9-.3 5.2-.3 5.6-.3 1.2-.2 2.4-.4 3.5-1 1.3-.8 1.6-1.9 2.1-3 .7-.1 1.4-.2 2.2-.5.8-.4 2.2 5.2.5 7.6z"/>
    <linearGradient id="SVGID_33_" x1="568.3204" x2="596.0459" y1="28.7674" y2="28.7674" gradientTransform="matrix(1 0 0 -1 0 340)" gradientUnits="userSpaceOnUse">
      <stop offset="0" stop-color="#363052" stop-opacity="0"/>
      <stop offset=".0715" stop-color="#362e4d" stop-opacity=".0715"/>
      <stop offset=".4182" stop-color="#34273b" stop-opacity=".4182"/>
      <stop offset=".6986" stop-color="#2a2428" stop-opacity=".6986"/>
      <stop offset=".8988" stop-color="#141313" stop-opacity=".8988"/>
      <stop offset="1"/>
    </linearGradient>
    <path fill="url(#SVGID_33_)" d="M588.5 315.8h-20.1s-1.1-.8 3.2-3.7c.5-.2 1-.3 1.3-.4 3.1-.7 6.5-.4 9.5-.1 1.5.1 3.2.2 4.2-1.2.7-1 .4-2.1.7-3.2.4-.1.8-.3 1.2-.5 1.8-.7 2.3 9.2 0 9.1z"/>
  </g>
  <g>
    <path d="M241.5 138.1h125.4v151.4H241.5z" class="st4"/>
    <path d="M366.9 217.6h117.3v71.9H366.9z" class="st5"/>
    <path d="M256.7 155h17.7v54.1h-17.7z" class="st6"/>
    <path d="M272.5 184.1l-13.9-8.2v-17.8h13.9z" class="st2"/>
    <path d="M294.7 155h17.7v54.1h-17.7zM332.7 155h17.7v54.1h-17.7zM245.3 217.6h61.9v71.9h-61.9z" class="st6"/>
    <path d="M304.2 262.7l-55.8-32.4v-9.2h55.8z" class="st2"/>
    <path d="M310.6 217.6h29.3v71.9h-29.3z" class="st6"/>
    <path d="M336.2 276l-22.3-10v-44.9H336z" class="st2"/>
    <path d="M342.6 217.6h22.1v71.9h-22.1z" class="st6"/>
    <path d="M362.7 286.6l-17.4-7.8v-57.7h17.4z" class="st2"/>
    <path d="M379.9 230.3h23.2v23.2h-23.2zM450.3 230.3h23.2v23.2h-23.2z" class="st6"/>
    <path d="M452.2 232.2h19.4v19.4h-19.4z" class="st2"/>
    <circle cx="426.6" cy="237.6" r="7.3" class="st6"/>
    <circle cx="426.6" cy="237.6" r="5.8" class="st2"/>
    <path d="M411.3 289.5c-.3-1-.5-2.1-.5-3.3v-22.4c0-6.1 4.9-11 11-11h9.5c6.1 0 11 4.9 11 11v22.4c0 1.1-.2 2.2-.5 3.3h-30.5z" class="st6"/>
    <path d="M413.6 292.4c-.3-1-.4-2.1-.4-3.3v-22.7c0-6.2 4.2-11.2 9.4-11.2h8.1c5.2 0 9.4 5 9.4 11.2v22.7c0 1.2-.1 2.3-.4 3.3h-26.1z" class="st2"/>
    <path d="M227 286.3h271.4v6H227zM366.3 142H241.6c-1.1 0-2-.9-2-2v-2.4c0-1.1.9-2 2-2h124.7v6.4zM366.3 215h-126c-.4 0-.7-.3-.7-.7v-1.4c0-.4.3-.7.7-.7h126v2.8zM488 224.1H362c-.4 0-.7-.3-.7-.7V222c0-.4.3-.7.7-.7h126v2.8z" class="st8"/>
    <path d="M310.5 197.3l-13.9-8.4v-30.8h13.9zM348.5 207.2l-13.9-7.2v-41.9h13.9z" class="st2"/>
    <circle cx="269.3" cy="253.9" r="16.4" class="st3"/>
    <g>
      <g>
        <g>
          <g>
            <defs>
              <path id="SVGID_34_" d="M370.4 138.1H238c-1.7 0-3-1.6-2.6-3.2l13-58.5c.8-3.8 4.2-6.5 8.1-6.5h94.6c3.8 0 7.2 2.6 8 6.4l13.8 58.5c.4 1.7-.8 3.3-2.5 3.3z"/>
            </defs>
            <clipPath id="SVGID_35_">
              <use overflow="visible" xlink:href="#SVGID_34_"/>
            </clipPath>
            <path fill="#d2cde7" d="M370.4 138.1H238c-1.7 0-3-1.6-2.6-3.2l13-58.5c.8-3.8 4.2-6.5 8.1-6.5h94.6c3.8 0 7.2 2.6 8 6.4l13.8 58.5c.4 1.7-.8 3.3-2.5 3.3z" clip-path="url(#SVGID_35_)"/>
          </g>
        </g>
      </g>
      <g>
        <g>
          <g>
            <defs>
              <path id="SVGID_36_" d="M370.4 138.1H238c-1.7 0-3-1.6-2.6-3.2l13-58.5c.8-3.8 4.2-6.5 8.1-6.5h94.6c3.8 0 7.2 2.6 8 6.4l13.8 58.5c.4 1.7-.8 3.3-2.5 3.3z"/>
            </defs>
            <clipPath id="SVGID_37_">
              <use overflow="visible" xlink:href="#SVGID_36_"/>
            </clipPath>
            <g clip-path="url(#SVGID_37_)">
              <path d="M239.6 74.9c4.5 0 4.5 6 9 6s4.5-6 9-6 4.5 6 9 6 4.5-6 9-6 4.5 6 9 6 4.5-6 9-6 4.5 6 9 6 4.5-6 9-6 4.5 6 9 6 4.5-6 9-6 4.5 6 9 6 4.5-6 9-6 4.5 6 9 6 4.5-6 9-6" class="st18"/>
            </g>
          </g>
        </g>
      </g>
      <g>
        <g>
          <g>
            <defs>
              <path id="SVGID_38_" d="M370.4 138.1H238c-1.7 0-3-1.6-2.6-3.2l13-58.5c.8-3.8 4.2-6.5 8.1-6.5h94.6c3.8 0 7.2 2.6 8 6.4l13.8 58.5c.4 1.7-.8 3.3-2.5 3.3z"/>
            </defs>
            <clipPath id="SVGID_39_">
              <use overflow="visible" xlink:href="#SVGID_38_"/>
            </clipPath>
            <g clip-path="url(#SVGID_39_)">
              <path d="M239.6 88.4c4.5 0 4.5 6 9 6s4.5-6 9-6 4.5 6 9 6 4.5-6 9-6 4.5 6 9 6 4.5-6 9-6 4.5 6 9 6 4.5-6 9-6 4.5 6 9 6 4.5-6 9-6 4.5 6 9 6 4.5-6 9-6 4.5 6 9 6 4.5-6 9-6" class="st18"/>
            </g>
          </g>
        </g>
      </g>
      <g>
        <g>
          <g>
            <defs>
              <path id="SVGID_40_" d="M370.4 138.1H238c-1.7 0-3-1.6-2.6-3.2l13-58.5c.8-3.8 4.2-6.5 8.1-6.5h94.6c3.8 0 7.2 2.6 8 6.4l13.8 58.5c.4 1.7-.8 3.3-2.5 3.3z"/>
            </defs>
            <clipPath id="SVGID_41_">
              <use overflow="visible" xlink:href="#SVGID_40_"/>
            </clipPath>
            <g clip-path="url(#SVGID_41_)">
              <path d="M239.6 101.2c4.5 0 4.5 6 9 6s4.5-6 9-6 4.5 6 9 6 4.5-6 9-6 4.5 6 9 6 4.5-6 9-6 4.5 6 9 6 4.5-6 9-6 4.5 6 9 6 4.5-6 9-6 4.5 6 9 6 4.5-6 9-6 4.5 6 9 6 4.5-6 9-6" class="st18"/>
            </g>
          </g>
        </g>
      </g>
      <g>
        <g>
          <g>
            <defs>
              <path id="SVGID_42_" d="M370.4 138.1H238c-1.7 0-3-1.6-2.6-3.2l13-58.5c.8-3.8 4.2-6.5 8.1-6.5h94.6c3.8 0 7.2 2.6 8 6.4l13.8 58.5c.4 1.7-.8 3.3-2.5 3.3z"/>
            </defs>
            <clipPath id="SVGID_43_">
              <use overflow="visible" xlink:href="#SVGID_42_"/>
            </clipPath>
            <g clip-path="url(#SVGID_43_)">
              <path d="M239.6 114c4.5 0 4.5 6 9 6s4.5-6 9-6 4.5 6 9 6 4.5-6 9-6 4.5 6 9 6 4.5-6 9-6 4.5 6 9 6 4.5-6 9-6 4.5 6 9 6 4.5-6 9-6 4.5 6 9 6 4.5-6 9-6 4.5 6 9 6 4.5-6 9-6" class="st18"/>
            </g>
          </g>
        </g>
      </g>
      <g>
        <g>
          <g>
            <defs>
              <path id="SVGID_44_" d="M370.4 138.1H238c-1.7 0-3-1.6-2.6-3.2l13-58.5c.8-3.8 4.2-6.5 8.1-6.5h94.6c3.8 0 7.2 2.6 8 6.4l13.8 58.5c.4 1.7-.8 3.3-2.5 3.3z"/>
            </defs>
            <clipPath id="SVGID_45_">
              <use overflow="visible" xlink:href="#SVGID_44_"/>
            </clipPath>
            <g clip-path="url(#SVGID_45_)">
              <path d="M237.7 126.8c4.5 0 4.5 6 9 6s4.5-6 9-6 4.5 6 9 6 4.5-6 9-6 4.5 6 9 6 4.5-6 9-6 4.5 6 9 6 4.5-6 9-6 4.5 6 9 6 4.5-6 9-6 4.5 6 9 6 4.5-6 9-6 4.5 6 9 6 4.5-6 9-6" class="st18"/>
            </g>
          </g>
        </g>
      </g>
    </g>
    <g>
      <g>
        <g>
          <g>
            <defs>
              <path id="SVGID_46_" d="M491.4 222.5H359.1c-1.7 0-3-1-2.6-2.1l13-38.6c.8-2.5 4.2-4.3 8.1-4.3h94.6c3.8 0 7.2 1.7 8 4.2l13.8 38.6c.4 1.1-.9 2.2-2.6 2.2z"/>
            </defs>
            <clipPath id="SVGID_47_">
              <use overflow="visible" xlink:href="#SVGID_46_"/>
            </clipPath>
            <path fill="#8d8ac2" d="M491.4 222.5H359.1c-1.7 0-3-1-2.6-2.1l13-38.6c.8-2.5 4.2-4.3 8.1-4.3h94.6c3.8 0 7.2 1.7 8 4.2l13.8 38.6c.4 1.1-.9 2.2-2.6 2.2z" clip-path="url(#SVGID_47_)"/>
          </g>
        </g>
      </g>
      <g>
        <g>
          <g>
            <defs>
              <path id="SVGID_48_" d="M491.4 222.5H359.1c-1.7 0-3-1-2.6-2.1l13-38.6c.8-2.5 4.2-4.3 8.1-4.3h94.6c3.8 0 7.2 1.7 8 4.2l13.8 38.6c.4 1.1-.9 2.2-2.6 2.2z"/>
            </defs>
            <clipPath id="SVGID_49_">
              <use overflow="visible" xlink:href="#SVGID_48_"/>
            </clipPath>
            <g clip-path="url(#SVGID_49_)">
              <path d="M363.5 184c4.5 0 4.5 6 9 6s4.5-6 9-6 4.5 6 9 6 4.5-6 9-6 4.5 6 9 6 4.5-6 9-6 4.5 6 9 6 4.5-6 9-6 4.5 6 9 6 4.5-6 9-6 4.5 6 9 6 4.5-6 9-6 4.5 6 9 6 4.5-6 9-6" class="st11"/>
            </g>
          </g>
        </g>
      </g>
      <g>
        <g>
          <g>
            <defs>
              <path id="SVGID_50_" d="M491.4 222.5H359.1c-1.7 0-3-1-2.6-2.1l13-38.6c.8-2.5 4.2-4.3 8.1-4.3h94.6c3.8 0 7.2 1.7 8 4.2l13.8 38.6c.4 1.1-.9 2.2-2.6 2.2z"/>
            </defs>
            <clipPath id="SVGID_51_">
              <use overflow="visible" xlink:href="#SVGID_50_"/>
            </clipPath>
            <g clip-path="url(#SVGID_51_)">
              <path d="M363.5 195.7c4.5 0 4.5 6 9 6s4.5-6 9-6 4.5 6 9 6 4.5-6 9-6 4.5 6 9 6 4.5-6 9-6 4.5 6 9 6 4.5-6 9-6 4.5 6 9 6 4.5-6 9-6 4.5 6 9 6 4.5-6 9-6 4.5 6 9 6 4.5-6 9-6" class="st11"/>
            </g>
          </g>
        </g>
      </g>
      <g>
        <g>
          <g>
            <defs>
              <path id="SVGID_52_" d="M491.4 222.5H359.1c-1.7 0-3-1-2.6-2.1l13-38.6c.8-2.5 4.2-4.3 8.1-4.3h94.6c3.8 0 7.2 1.7 8 4.2l13.8 38.6c.4 1.1-.9 2.2-2.6 2.2z"/>
            </defs>
            <clipPath id="SVGID_53_">
              <use overflow="visible" xlink:href="#SVGID_52_"/>
            </clipPath>
            <g clip-path="url(#SVGID_53_)">
              <path d="M363.5 137.5c4.5 0 4.5 6 9 6s4.5-6 9-6 4.5 6 9 6 4.5-6 9-6 4.5 6 9 6 4.5-6 9-6 4.5 6 9 6 4.5-6 9-6 4.5 6 9 6 4.5-6 9-6 4.5 6 9 6 4.5-6 9-6 4.5 6 9 6 4.5-6 9-6" class="st11"/>
            </g>
          </g>
        </g>
      </g>
      <g>
        <g>
          <g>
            <defs>
              <path id="SVGID_54_" d="M491.4 222.5H359.1c-1.7 0-3-1-2.6-2.1l13-38.6c.8-2.5 4.2-4.3 8.1-4.3h94.6c3.8 0 7.2 1.7 8 4.2l13.8 38.6c.4 1.1-.9 2.2-2.6 2.2z"/>
            </defs>
            <clipPath id="SVGID_55_">
              <use overflow="visible" xlink:href="#SVGID_54_"/>
            </clipPath>
            <g clip-path="url(#SVGID_55_)">
              <path d="M360.6 207.4c4.5 0 4.5 6 9 6s4.5-6 9-6 4.5 6 9 6 4.5-6 9-6 4.5 6 9 6 4.5-6 9-6 4.5 6 9 6 4.5-6 9-6 4.5 6 9 6 4.5-6 9-6 4.5 6 9 6 4.5-6 9-6 4.5 6 9 6 4.5-6 9-6" class="st11"/>
            </g>
          </g>
        </g>
      </g>
    </g>
    <text transform="translate(260.8705 261.9412)" class="st1" font-family="Raleway-SemiBold" font-size="22.3705">
      %
    </text>
    <path d="M401.2 248.6l-19.3-11v-5.4h19.3z" class="st2"/>
  </g>
  <g>
    <path d="M189.7 274.2c-9.4 10.3-25.5 10.5-37.4 10.2h-1c-6.7-.1-14.4-.1-20-4.2-7.6-5.6-7.3-15.8-1.1-22.3 1.3-1.4 2.6-2.7 4.1-3.8.8-.6 1.7-1.1 2.6-1.6 2.6-1.3 7.1 1.3 9.8 2.1 4.6 1.4 5.7-4.6 8.2-8 0-.1.1-.1.1-.2 3-3.9 7.1-8.6 12.4-8.7 15.8-.4 7.8 20.8 9.9 20.8 4.5 0 10.2-7.3 14.7-3.8 5.6 4.6 2.3 14.4-2.3 19.5z" class="st54"/>
    <path d="M111.9 212.3c.3 14.1 1.5 28.4 4.3 38.1.2.6.3 1.2.5 1.7 6.7 24.2 1.1 31 1.1 31H97s13.5-10.9 5.5-90.1c-.1-1.2-.2-2.5-.4-3.7-.4-4.2-.9-8.5-1.5-13.1 0 0 5-20 11.9-10.5.2.3-.1 6.9-.4 16.5-.2 5.9-.3 13-.3 20.4v.4c3.6-.3 8.8-3.7 16.2-14.5 17.8-25.9 13.3-40.8 12.9-42.2l5.8 14.9s-4.5 14.4-16.9 31.3c-4.8 6.6-10.7 13.3-17.9 19.8z" class="st30"/>
    <linearGradient id="SVGID_56_" x1="102.6431" x2="130.1851" y1="117.65" y2="117.65" gradientTransform="matrix(1 0 0 -1 0 340)" gradientUnits="userSpaceOnUse">
      <stop offset="0" stop-color="#e29058" stop-opacity="0"/>
      <stop offset=".1477" stop-color="#d17e51" stop-opacity=".1483"/>
      <stop offset=".4914" stop-color="#b66446" stop-opacity=".4932"/>
      <stop offset=".7863" stop-color="#a7563f" stop-opacity=".7892"/>
      <stop offset=".9962" stop-color="#a2523d"/>
    </linearGradient>
    <path fill="url(#SVGID_56_)" d="M111.9 212.3c.3 14.1 1.5 28.4 4.3 38.1.2.6.3 1.2.5 1.7-2.9-1-5.7-2.2-8.5-3.6-1-.5-2.1-1.1-2.6-2.1-.5-.9-.5-2-.4-3 .5-5.1 3.7-9.7 4.4-14.8.8-5.2-1.1-10.5-1.2-15.8-.2-7.7 7.8-7.2 11.9-11.8 2.9-3.3 4.7-8 9.5-8.4-4.8 6.5-10.7 13.2-17.9 19.7z"/>
    <linearGradient id="SVGID_57_" x1="101.9908" x2="120.2873" y1="147.4074" y2="147.4074" gradientTransform="matrix(1 0 0 -1 0 340)" gradientUnits="userSpaceOnUse">
      <stop offset="0" stop-color="#e29058" stop-opacity="0"/>
      <stop offset=".1477" stop-color="#d17e51" stop-opacity=".1483"/>
      <stop offset=".4914" stop-color="#b66446" stop-opacity=".4932"/>
      <stop offset=".7863" stop-color="#a7563f" stop-opacity=".7892"/>
      <stop offset=".9962" stop-color="#a2523d"/>
    </linearGradient>
    <path fill="url(#SVGID_57_)" d="M111.8 202.7c-.3.2-.6.3-.9.4-4 1.1-7.4-6.3-8.4-10.1-.1-.4-.2-.7-.2-1-.2-.9-.3-1.8-.2-2.7v-.3c.2-1.2.8-2.3 1.6-3.2 1.2-1.6 2.9-3 4.8-3.6 1.2-.3 2.4-.3 3.6 0-.2 6-.3 13.1-.3 20.5z"/>
    <path d="M183.1 150.1c-.4 5-3 9.6-6.3 13.4-4.1 4.6-11.8 8-17.3 10.7-1.5.7-2.9 2.5-2 3.9 1 1.6 3.4.9 5.3 1 3.9.3 6 5 5.5 8.8-.6 4.7-3.8 8.8-7.6 11.5-9.5 6.8-25.3 8.4-35 1.1-.1-.1-.2-.1-.3-.2-3-2.5-3.4-7.3-5.8-10-.5-.5-1-1-1.7-1.3-5-2.5-9.2 2.9-12 6.1-4.4 5-9.4 7.6-14.7 8.3-1.4.2-2.9.3-4.3.2-16.2-.7-33.4-16.5-39.1-29.8-4.1-9.6-5-22.4-3.5-32.5.7-5 2.2-11.1 6.7-14.1 6.9-4.7 13.3 5.8 19.4 1 7.7-6.1 4-22.5 2.8-30.1-1.3-8-1.8-16.4.6-24.1 2-6.4 6.1-12.3 11.9-15.5 1.3-.7 2.6-1.3 4-1.7 5.7-1.7 11.9-.2 16.5 3.4 7.4 5.9 5 15 8.5 22.8.9 2 2.4 4.1 4.6 4.2 1.1.1 2.3-.4 3.3-.9 13.1-6 33.8-5.9 36.9 12.3 1.3 7.4-.5 14.8-2.1 22-.9 4-5.5 15.4-2.6 18.8 6.1 7 13.1-1.1 20.2-.2 1.8.2 3.6.8 5 1.9 2.5 2.1 3.4 5.7 3.1 9z" class="st54"/>
    <path d="M138.5 281c-12.1 4.5-29 3.9-41.9 2.2-.2 0-.3 0-.5-.1-8.2-1.1-16.2-3.9-20.6-11.4-1.2-2-2.3-5.6-1.1-7.8 1.8-3.3 4.4-1.6 7.2-.7 7.4 2.3 4.7-8.1 4.6-12.7-.2-4.5 0-9.4 2.4-13.3.7-1.1 1.5-2.1 2.5-2.9 6.1-5.2 14.8 3.5 18.4 7.9 2 2.4 3.8 5.6 7.1 4.3 2.8-1.1 4.8-5 7.3-6.7 2-1.3 4.5-2 6.9-1.6 2.4.4 4.6 1.9 5.7 4.1 2.8 6.1-2.6 12.1-3.2 18 0 .5-.1 1 .1 1.5 1.3 2.8 5.2.9 6.9.2 3-1.3 6.5-2.3 9.5-.2 10.7 7-7 17.6-11.3 19.2z" class="st23"/>
    <linearGradient id="SVGID_58_" x1="80.5085" x2="196.4416" y1="200.3421" y2="227.3356" gradientTransform="matrix(1 0 0 -1 0 340)" gradientUnits="userSpaceOnUse">
      <stop offset="0" stop-color="#a0c558" stop-opacity="0"/>
      <stop offset=".2068" stop-color="#89b557" stop-opacity=".2068"/>
      <stop offset=".528" stop-color="#72a555" stop-opacity=".528"/>
      <stop offset=".8037" stop-color="#659c53" stop-opacity=".8037"/>
      <stop offset="1" stop-color="#619952"/>
    </linearGradient>
    <path fill="url(#SVGID_58_)" d="M183.1 150.1c-.4 5-3 9.6-6.3 13.4-4.1 4.6-11.8 8-17.3 10.7-1.5.7-2.9 2.5-2 3.9 1 1.6 3.4.9 5.3 1 3.9.3 6 5 5.5 8.8-.6 4.7-3.8 8.8-7.6 11.5-9.5 6.8-25.3 8.4-35 1.1-.1-.1-.2-.1-.3-.2-2.7-2.4-2.9-8.5-5.7-9.9 0 0-.1 0-.1-.1-.5-.5-1-1-1.7-1.3-5-2.5-9.2 2.9-12 6.1-4.4 5-9.4 7.6-14.7 8.3-1.4.2-2.9.3-4.3.2 1.1-9.2.9-18.8 8.1-25.8 4.9-4.7 11.9-7.1 18.6-6.4 11.3 1.2 24.2.5 31.1-9.8 1.7-2.6 1.6-6.9-1.3-8-1.7-.6-3.8.1-5.3-.9-1.4-1-1.6-2.9-1.4-4.6 1.2-10.5 10.8-23.5 3.5-33.9-2.2-3.2-6.8-3.5-10.5-2.6s-7.2 2.8-11 3.1c-7.3.5-13.9-5.3-16.5-12.1-2.6-6.9-1.9-14.5-.6-21.7.9-4.9 2.1-10.1.7-14.9-2.1-8.6-9.2-7.8-16.1-7.5h-.5c1.3-.7 2.6-1.3 4-1.7 5.7-1.7 11.9-.2 16.5 3.4 7.4 5.9 5 15 8.5 22.8.9 2 2.4 4.1 4.6 4.2 1.1.1 2.3-.4 3.3-.9 13.1-6 33.8-5.9 36.9 12.3 1.3 7.4-.5 14.8-2.1 22-.9 4-5.5 15.4-2.6 18.8 6.1 7 13.1-1.1 20.2-.2 1.8.2 3.6.8 5 1.9 2.5 2.1 3.4 5.7 3.1 9z"/>
    <linearGradient id="SVGID_59_" x1="78.5951" x2="169.4986" y1="69.357" y2="102.5686" gradientTransform="matrix(1 0 0 -1 0 340)" gradientUnits="userSpaceOnUse">
      <stop offset="0" stop-color="#f7d058" stop-opacity="0"/>
      <stop offset=".2166" stop-color="#efbb58" stop-opacity=".2175"/>
      <stop offset=".5405" stop-color="#e7a258" stop-opacity=".5425"/>
      <stop offset=".812" stop-color="#e39458" stop-opacity=".8151"/>
      <stop offset=".9962" stop-color="#e29058"/>
    </linearGradient>
    <path fill="url(#SVGID_59_)" d="M138.5 281c-12.1 4.5-29 3.9-41.9 2.2 1.6-2.1 5-2.9 7.8-3.2 5.3-.6 10.7-1.3 16-1.9 2-.2 4-.5 5.6-1.7s2.5-3.5 1.4-5.2c-2 .8-4.2-1.4-4.4-3.5-.6-4.3 4-8.5-.7-11.1-3.2-1.8-8.3 1-11.7.9-4.3-.1-8.8-1.6-11.4-5-2.9-3.8-2.8-9.2-5.9-12.9-1.1-1.3-3-1.9-4.7-2.4.7-1.1 1.5-2.1 2.5-2.9 6.1-5.2 14.8 3.5 18.4 7.9 2 2.4 3.8 5.6 7.1 4.3 2.8-1.1 4.8-5 7.3-6.7 2-1.3 4.5-2 6.9-1.6s4.6 1.9 5.7 4.1c2.8 6.1-2.6 12.1-3.2 18 0 .5-.1 1 .1 1.5 1.3 2.8 5.2.9 6.9.2 3-1.3 6.5-2.3 9.5-.2 10.7 7-7 17.6-11.3 19.2z"/>
    <linearGradient id="SVGID_60_" x1="152.1939" x2="204.702" y1="75.1025" y2="88.4571" gradientTransform="matrix(1 0 0 -1 0 340)" gradientUnits="userSpaceOnUse">
      <stop offset="0" stop-color="#a0c558" stop-opacity="0"/>
      <stop offset=".2068" stop-color="#89b557" stop-opacity=".2068"/>
      <stop offset=".528" stop-color="#72a555" stop-opacity=".528"/>
      <stop offset=".8037" stop-color="#659c53" stop-opacity=".8037"/>
      <stop offset="1" stop-color="#619952"/>
    </linearGradient>
    <path fill="url(#SVGID_60_)" d="M189.7 274.2c-9.4 10.3-25.5 10.5-37.4 10.2h-1c2.8-4.5 8.4-7.3 13.8-7.8 2.8-.3 5.7-.1 8.3-1.3 2.5-1.2 4.5-4.4 3.1-6.8-2.5-4.4-11.8-1.1-13.1-6-.7-2.6 2-4.8 3-7.3 3.6-9.1-4.8-8.5-11.5-8.5 0-.1.1-.1.1-.2 3-3.9 7.1-8.6 12.4-8.7 15.8-.4 7.8 20.8 9.9 20.8 4.5 0 10.2-7.3 14.7-3.8 5.6 4.5 2.3 14.3-2.3 19.4z"/>
  </g>
  <path d="M717.9 154.1h147.2v124H717.9z" class="st5"/>
  <path d="M738.4 172.2h19v30.7h-19z" class="st6"/>
  <path d="M755.5 187.5l-15.2-5.5v-7.3h15.2z" class="st2"/>
  <path d="M782.3 172.4h19v30.7h-19zM826.2 172.4h19v30.7h-19zM723.7 215.5h44.2v55.2h-44.2z" class="st6"/>
  <path d="M765.4 249.7l-39.2-11v-20h39.2z" class="st2"/>
  <path d="M815.1 215.5h44.2v55.2h-44.2z" class="st6"/>
  <circle cx="791.8" cy="223" r="7.9" class="st6"/>
  <circle cx="791.8" cy="223" r="6.7" class="st2"/>
  <path d="M809.9 247.4V278h-35.8v-30.7c0-5.5 4.4-9.9 9.9-9.9h16c5.5 0 9.9 4.5 9.9 10z" class="st6"/>
  <path d="M807.8 248.5V278h-32v-29.6c0-4.9 4-8.9 8.9-8.9h14.2c4.9.1 8.9 4.1 8.9 9z" class="st2"/>
  <path d="M717.9 159.8h147.2v4.6H717.9zM717.9 208h147.2v2.3H717.9z" class="st8"/>
  <path d="M799.4 194.5l-15.2-4.2v-15.6h15.2zM856.8 259.9l-39.2-10.2v-31h39.2z" class="st2"/>
  <path d="M774.8 228.1h-57.7c-1.3 0-2.2-1.4-1.6-2.6l5.2-10H771l5.4 9.9c.6 1.2-.3 2.7-1.6 2.7zM865 228.1h-54.7c-1.8 0-3-1.9-2.1-3.5l4.7-9.1h49.3l4.9 9.1c.9 1.5-.3 3.5-2.1 3.5z" class="st3"/>
  <g>
    <g>
      <g>
        <g>
          <defs>
            <path id="SVGID_61_" d="M864.1 161.6H717.8c-2.6 0-4.3-2.6-3.4-4.9l20.7-49.5c.6-1.3 1.9-2.2 3.4-2.2h104.3c1.5 0 2.8.9 3.4 2.2l21.2 49.5c1 2.3-.7 4.9-3.3 4.9z"/>
          </defs>
          <clipPath id="SVGID_62_">
            <use overflow="visible" xlink:href="#SVGID_61_"/>
          </clipPath>
          <path fill="#d2cde7" d="M864.1 161.6H717.8c-2.6 0-4.3-2.6-3.4-4.9l20.7-49.5c.6-1.3 1.9-2.2 3.4-2.2h104.3c1.5 0 2.8.9 3.4 2.2l21.2 49.5c1 2.3-.7 4.9-3.3 4.9z" clip-path="url(#SVGID_62_)"/>
        </g>
      </g>
    </g>
    <g>
      <g>
        <g>
          <defs>
            <path id="SVGID_63_" d="M864.1 161.6H717.8c-2.6 0-4.3-2.6-3.4-4.9l20.7-49.5c.6-1.3 1.9-2.2 3.4-2.2h104.3c1.5 0 2.8.9 3.4 2.2l21.2 49.5c1 2.3-.7 4.9-3.3 4.9z"/>
          </defs>
          <clipPath id="SVGID_64_">
            <use overflow="visible" xlink:href="#SVGID_63_"/>
          </clipPath>
          <g clip-path="url(#SVGID_64_)">
            <path d="M726.2 109.3c6.5 0 6.5 8 13.1 8 6.5 0 6.5-8 13-8s6.5 8 13 8 6.5-8 13.1-8c6.5 0 6.5 8 13 8s6.5-8 13-8 6.5 8 13.1 8c6.5 0 6.5-8 13-8s6.5 8 13.1 8 6.5-8 13.1-8" class="st62"/>
          </g>
        </g>
      </g>
    </g>
    <g>
      <g>
        <g>
          <defs>
            <path id="SVGID_65_" d="M864.1 161.6H717.8c-2.6 0-4.3-2.6-3.4-4.9l20.7-49.5c.6-1.3 1.9-2.2 3.4-2.2h104.3c1.5 0 2.8.9 3.4 2.2l21.2 49.5c1 2.3-.7 4.9-3.3 4.9z"/>
          </defs>
          <clipPath id="SVGID_66_">
            <use overflow="visible" xlink:href="#SVGID_65_"/>
          </clipPath>
          <g clip-path="url(#SVGID_66_)">
            <path d="M726.2 125.7c6.5 0 6.5 8 13.1 8 6.5 0 6.5-8 13-8s6.5 8 13 8 6.5-8 13.1-8c6.5 0 6.5 8 13 8s6.5-8 13-8 6.5 8 13.1 8c6.5 0 6.5-8 13-8s6.5 8 13.1 8 6.5-8 13.1-8" class="st62"/>
          </g>
        </g>
      </g>
    </g>
    <g>
      <g>
        <g>
          <defs>
            <path id="SVGID_67_" d="M864.1 161.6H717.8c-2.6 0-4.3-2.6-3.4-4.9l20.7-49.5c.6-1.3 1.9-2.2 3.4-2.2h104.3c1.5 0 2.8.9 3.4 2.2l21.2 49.5c1 2.3-.7 4.9-3.3 4.9z"/>
          </defs>
          <clipPath id="SVGID_68_">
            <use overflow="visible" xlink:href="#SVGID_67_"/>
          </clipPath>
          <g clip-path="url(#SVGID_68_)">
            <path d="M720.4 142.4c7.1 0 7.1 8 14.3 8 7.1 0 7.1-8 14.3-8 7.1 0 7.1 8 14.3 8 7.1 0 7.1-8 14.3-8 7.1 0 7.1 8 14.3 8 7.1 0 7.1-8 14.3-8 7.1 0 7.1 8 14.3 8 7.1 0 7.1-8 14.3-8 7.1 0 7.1 8 14.3 8 7.1 0 7.1-8 14.3-8" class="st62"/>
          </g>
        </g>
      </g>
    </g>
  </g>
  <path d="M791.2 237.9h1.7v41.7h-1.7z" class="st6"/>
  <path d="M866 278H716.7c-.8 0-1.4.6-1.4 1.4v2.8c0 .8.6 1.4 1.4 1.4H866c.8 0 1.4-.6 1.4-1.4v-2.8c0-.7-.6-1.4-1.4-1.4z" class="st8"/>
  <g>
    <path d="M919.8 154.1c-3.6-.3-5.5-3.5-6.6-7.9-2.3-9-1.4-23.2-4.3-28.7-.9-1.7 2.8-3.5 3.3 1.1.8 8.4 1.4 14.9 2.3 19.5 1.5 8 3.5 10.2 7.6 6.7 1.6-1.5-.6 8.1-2.3 9.3zM965.7 184.1c-5.7 20.3-6.5 48.6-6.5 61.2 0 4.1.1 6.5.1 6.5s-25.6 6.4-16.3-8.4c5-7.9 8.6-24.4 10.9-38 1.1-6.7 1.9-12.7 2.4-16.6.3-2.8.5-4.4.5-4.4l10-3.8c-.5 1.2-.8 2.3-1.1 3.5z" class="st30"/>
    <linearGradient id="SVGID_69_" x1="948.0554" x2="965.6741" y1="125.1057" y2="125.1057" gradientTransform="matrix(1 0 0 -1 0 340)" gradientUnits="userSpaceOnUse">
      <stop offset="0" stop-color="#e29058" stop-opacity="0"/>
      <stop offset=".1477" stop-color="#d17e51" stop-opacity=".1483"/>
      <stop offset=".4914" stop-color="#b66446" stop-opacity=".4932"/>
      <stop offset=".7863" stop-color="#a7563f" stop-opacity=".7892"/>
      <stop offset=".9962" stop-color="#a2523d"/>
    </linearGradient>
    <path fill="url(#SVGID_69_)" d="M965.7 184.1c-5.7 20.3-6.5 48.6-6.5 61.2-2.7.6-5.8.4-8.7.1-.7-.1-1.5-.2-2-.8s-.4-1.6-.2-2.4c1.4-5.7 3.9-11 5.8-16.6 1.8-5.6 3-11.6 1.4-17.2-.3-1.1-.7-2.2-1.7-2.8h-.1c-1-.6-2.1-.3-2.7.6-.6-1.9-2.8-3-3-5.2-.2-2 .8-3.9 2-5.5 1.7-2.5 3.8-4.7 6.2-6.5 2.7-2.1 5.7-3.7 8.9-4.7.2-.1.4-.2.6-.2z"/>
    <linearGradient id="SVGID_70_" x1="913.1302" x2="922.6069" y1="193.95" y2="193.95" gradientTransform="matrix(1 0 0 -1 0 340)" gradientUnits="userSpaceOnUse">
      <stop offset="0" stop-color="#e29058" stop-opacity="0"/>
      <stop offset=".1477" stop-color="#d17e51" stop-opacity=".1483"/>
      <stop offset=".4914" stop-color="#b66446" stop-opacity=".4932"/>
      <stop offset=".7863" stop-color="#a7563f" stop-opacity=".7892"/>
      <stop offset=".9962" stop-color="#a2523d"/>
    </linearGradient>
    <path fill="url(#SVGID_70_)" d="M919.8 154.1c-3.6-.3-5.5-3.5-6.6-7.9.3-2.3.7-5.5 1.3-8.2 1.5 8 3.5 10.2 7.6 6.7 1.6-1.4-.6 8.2-2.3 9.4z"/>
    <path d="M976.9 201.4c-4.8-1.2-9-6.2-13.8-4.8-2 .6-3.5 2.2-4.8 3.9l-1.2 1.5c-6.2 7.7-15.8 12.6-25.7 13.2-8.8.5-17.5-2.4-24.4-7.7-8.5-6.4-14.3-16.3-14.4-27.2-.1-9 4.3-15.7 12.3-19.5 6.4-3.1 13.5-4 14.9-12.3 1.1-6.6-4.4-22.8 9.3-20.7 2.1.3 4.1 1.5 6.2 1.4 2.2-.2 4-1.8 5.1-3.8 1-1.9 1.4-4.1 1.7-6.3 2-12.6 5.1-26.2 17.6-31.7.5-.3 1.1-.5 1.7-.7 9.4-3.3 19.4-1.6 25.4 6.8 3.7 5.2 5 11.1 5.1 17.4.1 6.6-3.3 10.3-4.1 16.5-.5 3.4.9 7.3 4 8.6 3 1.3 6.5 0 9.8.4 4.7.7 8 5 10.1 9.4 10.3 22.2-4.5 63.3-34.8 55.6zM923.1 119.3c-6.7 3.3-10.7 6.4-12.2 13.9-1.1 5.7-4.1 8.9-9.8 5.7-.4-.2-.7-.4-1.1-.7-2.4-1.6-4.2-3.9-5.6-6.4-4.4-7.7-6.6-20.8-.1-28.1 1.1-1.2 2.7-2.5 4.4-3.3 2.3-1.1 4.9-1.5 7-.4 2.9 1.5 2.3 4.8 4.9 6.5 3.3 2.3 5.4-3.4 8.8-6 1.8-1.3 4-1.8 6.9.3 7.2 5.3 3.5 15.3-3.2 18.5z" class="st23"/>
    <path d="M993.5 272c-8 13.3-32.8 11.9-46.1 11.6h-.2c-7.6-.2-16.7.1-23.2-4.6-8.4-6.2-8-17.5-1.2-24.6 1.4-1.5 2.9-2.9 4.5-4.1.9-.7 1.9-1.3 2.9-1.8 2.8-1.4 6.2-2.1 9.2-1.1 4.5 1.4 7.2-1.1 9.7-4.2.4-.5.7-.9 1.1-1.4 3.4-4.4 7.8-9 13.7-9.6 7.5-.8 11.1 7.5 9.7 13.7-.2.9-.5 1.7-.4 2.6.2 2.3 2.7 3.8 5 3.8 4.9 0 7.9-5.2 12.8-1.3 6.2 4.9 6.4 14.5 2.5 21z" class="st54"/>
    <path d="M939.9 289.6c-9.8 3.7-20.7 2.8-31 1.5-1.9-.3-3.7-.7-5.5-1.3-4.4-1.6-8.4-4.4-10.9-8.7-.9-1.6-1.8-4.5-.8-6.2 1.4-2.6 3.5-1.2 5.7-.6 5.9 1.8 3.8-6.5 3.6-10.1-.1-2.1-.1-4.2.3-6.3.5-2.5 1.5-4.9 3.6-6.7 4.9-4.1 11.8 2.8 14.6 6.3 1.6 1.9 3 4.5 5.7 3.4 2.3-.9 3.8-4 5.8-5.3 1.6-1 3.6-1.6 5.5-1.3s3.7 1.5 4.5 3.2c2.3 4.8-2.1 9.6-2.5 14.3 0 .4 0 .8.1 1.2 1.1 2.3 4.1.7 5.5.1 2.4-1 5.2-1.8 7.6-.2 8.4 5.8-8.4 15.4-11.8 16.7z" class="st23"/>
    <linearGradient id="SVGID_71_" x1="922.475" x2="1038.6656" y1="186.9085" y2="199.3472" gradientTransform="matrix(1 0 0 -1 0 340)" gradientUnits="userSpaceOnUse">
      <stop offset="0" stop-color="#f7d058" stop-opacity="0"/>
      <stop offset=".2517" stop-color="#eeb758" stop-opacity=".2517"/>
      <stop offset=".5547" stop-color="#e7a158" stop-opacity=".5547"/>
      <stop offset=".8148" stop-color="#e39458" stop-opacity=".8148"/>
      <stop offset="1" stop-color="#e29058"/>
    </linearGradient>
    <path fill="url(#SVGID_71_)" d="M976.9 201.4c-4.8-1.2-9-6.2-13.8-4.8-2 .6-3.5 2.2-4.8 3.9l-1.2 1.5c-6.2 7.7-15.8 12.6-25.7 13.2-8.8.5-17.5-2.4-24.4-7.7 4-1.5 9.1-.8 13.4-2.2 7.4-2.5 10.7-10.9 15.1-17.3 3.4-4.8 8-9 13.6-10.9s12.1-1.5 16.9 2c1.4 1 2.7 2.3 4.3 3.1s3.4 1 5.1.9c7.6-.4 14.4-7.1 14.8-14.7.4-7.6-5.7-15-13.3-16.1-3.6-.5-7.4.2-10.7-1.3-6.2-2.7-7.1-11.3-4.8-17.6 2.4-6.3 7-11.6 9.1-18 2.4-7.3 1.1-15.7-3.3-22-1.9-2.7-4.5-5-7.6-6.1.5-.3 1.1-.5 1.7-.7 9.4-3.3 19.4-1.6 25.4 6.8 3.7 5.2 5 11.1 5.1 17.4.1 6.6-3.3 10.3-4.1 16.5-.5 3.4.9 7.3 4 8.6 3 1.3 6.5 0 9.8.4 4.7.7 8 5 10.1 9.4 10.4 22.3-4.4 63.4-34.7 55.7z"/>
    <linearGradient id="SVGID_72_" x1="898.2742" x2="930.218" y1="220.1913" y2="220.1913" gradientTransform="matrix(1 0 0 -1 0 340)" gradientUnits="userSpaceOnUse">
      <stop offset="0" stop-color="#f7d058" stop-opacity="0"/>
      <stop offset=".2517" stop-color="#eeb758" stop-opacity=".2517"/>
      <stop offset=".5547" stop-color="#e7a158" stop-opacity=".5547"/>
      <stop offset=".8148" stop-color="#e39458" stop-opacity=".8148"/>
      <stop offset="1" stop-color="#e29058"/>
    </linearGradient>
    <path fill="url(#SVGID_72_)" d="M923.1 119.3c-6.7 3.3-10.7 6.4-12.2 13.9-1.1 5.7-4.1 8.9-9.8 5.7-.1-.6-.1-1.3-.1-1.9.2-2.3 1.2-4.5 2.1-6.6 1.5-3.3 3.2-6.9 6.3-8.8 1.5-.9 3.3-1.5 4.5-2.7 1.2-1.3 1.6-3.7.1-4.6-1.7-1.1-3.7.7-5.6 1.4-8.6 3.6-11.4-8.9-9.8-15.2 2.3-1.1 4.9-1.5 7-.4 2.9 1.5 2.3 4.8 4.9 6.5 3.3 2.3 5.4-3.4 8.8-6 1.8-1.3 4-1.8 6.9.3 7.3 5.2 3.6 15.2-3.1 18.4z"/>
    <linearGradient id="SVGID_73_" x1="901.2555" x2="954.0293" y1="68.8652" y2="68.8652" gradientTransform="matrix(1 0 0 -1 0 340)" gradientUnits="userSpaceOnUse">
      <stop offset="0" stop-color="#f7d058" stop-opacity="0"/>
      <stop offset=".2517" stop-color="#eeb758" stop-opacity=".2517"/>
      <stop offset=".5547" stop-color="#e7a158" stop-opacity=".5547"/>
      <stop offset=".8148" stop-color="#e39458" stop-opacity=".8148"/>
      <stop offset="1" stop-color="#e29058"/>
    </linearGradient>
    <path fill="url(#SVGID_73_)" d="M939.9 289.6c-9.8 3.7-20.7 2.8-31 1.5-1.9-.3-3.7-.7-5.5-1.3 7.2-4.7 17.6-.6 23.8-8.2 1.9-2.4 2.8-6.8.6-9.3-4.1-4.7-12.8 3.4-17-1.7-1.3-1.6-1-3.9-.7-6 0-.2.1-.4.1-.6.4-2.2.4-5-1.5-6.2-.8-.5-1.7-.7-2.7-.7-1.5 0-3.3.6-4.8.9.5-2.5 1.5-4.9 3.6-6.7 4.9-4.1 11.8 2.8 14.6 6.3 1.6 1.9 3 4.5 5.7 3.4 2.3-.9 3.8-4 5.8-5.3 1.6-1 3.6-1.6 5.5-1.3s3.7 1.5 4.5 3.2c2.3 4.8-2.1 9.6-2.5 14.3 0 .4 0 .8.1 1.2 1.1 2.3 4.1.7 5.5.1 2.4-1 5.2-1.8 7.6-.2 8.5 5.7-8.3 15.3-11.7 16.6z"/>
    <linearGradient id="SVGID_74_" x1="947.4" x2="996.1058" y1="82.0321" y2="82.0321" gradientTransform="matrix(1 0 0 -1 0 340)" gradientUnits="userSpaceOnUse">
      <stop offset="0" stop-color="#a0c558" stop-opacity="0"/>
      <stop offset=".2068" stop-color="#89b557" stop-opacity=".2068"/>
      <stop offset=".528" stop-color="#72a555" stop-opacity=".528"/>
      <stop offset=".8037" stop-color="#659c53" stop-opacity=".8037"/>
      <stop offset="1" stop-color="#619952"/>
    </linearGradient>
    <path fill="url(#SVGID_74_)" d="M993.5 272c-8 13.3-32.8 11.9-46.1 11.6.4-.5 1-1 1.5-1.4 6.8-5.4 18.5-2.7 22.2-11.9 1.6-4-.2-9.3-4.3-10.5-1.3-.4-2.8-.3-4.1-.8-2.3-.9-3.7-3.4-3.9-5.9-.2-2.6.3-4.8.4-6.6.2-2.7-.5-4.2-6.1-4-1.2 0-2.6.3-4 .7.4-.5.7-.9 1.1-1.4 3.4-4.4 7.8-9 13.7-9.6 7.5-.8 11.1 7.5 9.7 13.7-.2.9-.5 1.7-.4 2.6.2 2.3 2.7 3.8 5 3.8 4.9 0 7.9-5.2 12.8-1.3 6.2 4.9 6.4 14.5 2.5 21z"/>
  </g>
  <g>
    <path d="M1387.3 150.7c-.7.7.3-.9 0 0zM1405.7 129.2c0 .3-.2.6-.5.8-6.3 5.4-10.1 14.7-12.3 22.7-1.5-.9-2-1.3-2.6-1.6s-1.2-.4-3-.4c3.8-4 5.8-9.1 8.4-13.8 2-3.8 4.4-7.3 8-9.7.5.5 1.1 1 1.6 1.4.2.2.4.4.4.6zM1373.9 262.4s-20 3.1-15.7-12.5c1.6-5.6 2-12 1.9-17.8-.1-7.5-1.1-14.2-1.6-17.2-.2-1.1-.3-1.7-.3-1.7l7.5-2.4.7 4.4 6.3 39.6 1.2 7.6z" class="st30"/>
    <linearGradient id="SVGID_75_" x1="1358.5155" x2="1372.6655" y1="105.129" y2="105.129" gradientTransform="matrix(1 0 0 -1 0 340)" gradientUnits="userSpaceOnUse">
      <stop offset="0" stop-color="#e29058" stop-opacity="0"/>
      <stop offset=".1477" stop-color="#d17e51" stop-opacity=".1483"/>
      <stop offset=".4914" stop-color="#b66446" stop-opacity=".4932"/>
      <stop offset=".7863" stop-color="#a7563f" stop-opacity=".7892"/>
      <stop offset=".9962" stop-color="#a2523d"/>
    </linearGradient>
    <path fill="url(#SVGID_75_)" d="M1366.4 215.3c-2.3-.7-4.9-.8-7.3-.4-.2 0-.4.1-.6.1.5 3 1.5 9.7 1.6 17.2.4.2.9.5 1.3.8 4 3.2 1.9 8.4 2.7 13.1.4 2.4 1.1 4.9 2.8 6.8 1.5 1.6 3.8 2.6 5.9 2l-6.4-39.6z"/>
    <path d="M1429.3 182c-4.7 8.7-14.8 13.8-24.7 14.1-4.6.1-13.2-2.8-14.3 4.4 0 .2 0 .3-.1.5-.5 5.2 7.3 4.2 6.9 10.5-.2 2.9-1.9 5.5-4.1 7.5-11 10.2-34.9 10.6-48.5 7.7-14-3-26.8-11.2-35.8-22.4-.6-.7-1.1-1.5-1.7-2.2-3.1-4.2-5.7-9.1-5.4-14.4.3-5.2 4.5-10.5 9.7-10.3 2.7.1 5.2 1.6 7.9 2.1 24.6 4.8-.2-28.8 1.5-36.3 2.1-8.9 12.7-6 18.9-8.9 10.4-4.8 6.4-17.4 9.3-26.4 1-3.1 3.6-6.8 7.1-10.3 9.5-9.6 25.6-17.8 33.6-8.7 14.5 16.5-19.6 52.5 5.7 60.7 4.1 1.3 8.4 1.1 12.7 1.3 5.7.2 11.6 1.1 16.2 4.4 8 5.8 9.8 18 5.1 26.7z" class="st54"/>
    <path d="M1410.4 275.7c-1.6 9-9.8 16-18.3 18.2-10.9 2.8-28.7 3.1-41.3 2.8-4.2-.1-7.8-.2-10.4-.3-9.4-.3-17.3-1.5-24.1-8.7-4.8-5.1-6.2-19.7 4.7-17 2.2.5 3 3.8 5.6 3.8 4.8 0 3.6-8.7 4.7-11.6.2-.6.5-1.2.8-1.8 1.5-2.9 4-5.8 6.9-6.9 5.7-2.3 5.8 1 10.1 2.8 9.5 3.9 9.2-5.8 15-12 6.6-7.1 17.9-7.5 19.3 3.7.6 4.9-4.1 16.3 5.9 14.7 1.8-.3 3.4-1.5 5.1-2.2 5.5-2.4 10.6.2 13.6 4.5 2 2.9 3 6.6 2.4 10z" class="st23"/>
    <linearGradient id="SVGID_76_" x1="1338.0077" x2="1460.9778" y1="183.3952" y2="183.3952" gradientTransform="matrix(1 0 0 -1 0 340)" gradientUnits="userSpaceOnUse">
      <stop offset="0" stop-color="#a0c558" stop-opacity="0"/>
      <stop offset=".2068" stop-color="#89b557" stop-opacity=".2068"/>
      <stop offset=".528" stop-color="#72a555" stop-opacity=".528"/>
      <stop offset=".8037" stop-color="#659c53" stop-opacity=".8037"/>
      <stop offset="1" stop-color="#619952"/>
    </linearGradient>
    <path fill="url(#SVGID_76_)" d="M1429.3 182c-4.7 8.7-14.8 13.8-24.7 14.1-4.6.1-13.2-2.8-14.3 4.4 0 .2 0 .3-.1.5-.5 5.2 7.3 4.2 6.9 10.5-.2 2.9-1.9 5.5-4.1 7.5-11 10.2-34.9 10.6-48.5 7.7-14-3-26.8-11.2-35.8-22.4 1.5-1.2 3.1-2 5-2.4 6.6-1.5 13 2.6 19.1 5.6 8.3 4.1 17.3 6.6 26.5 7.2 1.8.1 3.6.2 5.2-.6 3.1-1.5 4.1-5.6 3.6-9s-1.9-6.7-2.1-10.2c-.5-8.6 8.8-16.4 16.9-13.9 2.1.6 4.2 1.8 6.3 1.3 3.1-.9 3.9-5.5 1.9-8.1-1.9-2.6-5.4-3.6-8.6-4s-6.6-.4-9.6-1.7c-4-1.8-6.6-5.8-7.7-10s-.9-8.6-.4-12.9c.8-7.7 2.2-15.4 5.6-22.4 2-4 4.6-7.7 6-11.9 1.5-4.2 1.6-9.2-1.1-12.8-2.7-3.5-7.6-4.7-12-4.1-1.9.3-4.7 1.8-7.6 3.2 9.5-9.6 25.6-17.8 33.6-8.7 14.5 16.5-19.6 52.5 5.7 60.7 4.1 1.3 8.4 1.1 12.7 1.3 5.7.2 11.6 1.1 16.2 4.4 8.3 5.8 10.1 18 5.4 26.7z"/>
    <linearGradient id="SVGID_77_" x1="1332.0956" x2="1410.4695" y1="71.6879" y2="71.6879" gradientTransform="matrix(1 0 0 -1 0 340)" gradientUnits="userSpaceOnUse">
      <stop offset="0" stop-color="#f7d058" stop-opacity="0"/>
      <stop offset=".2517" stop-color="#eeb758" stop-opacity=".2517"/>
      <stop offset=".5547" stop-color="#e7a158" stop-opacity=".5547"/>
      <stop offset=".8148" stop-color="#e39458" stop-opacity=".8148"/>
      <stop offset="1" stop-color="#e29058"/>
    </linearGradient>
    <path fill="url(#SVGID_77_)" d="M1410.4 275.7c-1.6 9-9.8 16-18.3 18.2-10.9 2.8-28.7 3.1-41.3 2.8 5.1-2.2 10.5-3.8 16.1-4.5 4.7-.6 9.9-.8 13.6-3.8 2.6-2 4.9-5.2 2.8-8.4-2.1-3.1-6.5-1.7-9.6-2.7-2.5-.8-4-3.5-4.4-6.1-.5-3.9 2.7-7.7-1.7-9.3-2.4-.8-6.7 1.8-8.5 3.1-6.4 4.3-15.6 6.9-21.3 1.7-1.9-1.7-3.1-4.2-5.3-5.5-.1-.1-.2-.1-.3-.2 1.5-2.9 4-5.8 6.9-6.9 5.7-2.3 5.8 1 10.1 2.8 9.5 3.9 9.2-5.8 15-12 6.6-7.1 17.9-7.5 19.3 3.7.6 4.9-4.1 16.3 5.9 14.7 1.8-.3 3.4-1.5 5.1-2.2 5.5-2.4 10.6.2 13.6 4.5 1.9 3 2.9 6.7 2.3 10.1z"/>
    <linearGradient id="SVGID_78_" x1="1390.2556" x2="1405.6779" y1="200.05" y2="200.05" gradientTransform="matrix(1 0 0 -1 0 340)" gradientUnits="userSpaceOnUse">
      <stop offset="0" stop-color="#e29058" stop-opacity="0"/>
      <stop offset=".1477" stop-color="#d17e51" stop-opacity=".1483"/>
      <stop offset=".4914" stop-color="#b66446" stop-opacity=".4932"/>
      <stop offset=".7863" stop-color="#a7563f" stop-opacity=".7892"/>
      <stop offset=".9962" stop-color="#a2523d"/>
    </linearGradient>
    <path fill="url(#SVGID_78_)" d="M1405.7 129.2c0 .3-.2.6-.5.8-6.3 5.4-10.1 14.7-12.3 22.7-1.5-.9-2-1.3-2.6-1.6 1.5-2.7 3.3-5.4 3.5-5.9 1.5-2.8 1.6-5.6 1.8-8.3 2-3.8 4.4-7.3 8-9.7.5.5 1.1 1 1.6 1.4.3.2.5.4.5.6z"/>
    <path d="M1408.9 139.3c-2.2-.7-4.1-1.7-5.7-2.9-8.4-6.2-8.8-17.6-2.6-26.6.2-.3.4-.6.6-.8.4-.5.9-1.1 1.6-1.8 3-2.9 10.7-8.9 15.2-6.3 7.9 4.6-.9 10.9-2.9 15-3 6.4 7.2 8.6 9.7 12.6 5.7 9.4-9.2 13.1-15.9 10.8z" class="st54"/>
    <linearGradient id="SVGID_79_" x1="1400.5657" x2="1426.0132" y1="219.8873" y2="219.8873" gradientTransform="matrix(1 0 0 -1 0 340)" gradientUnits="userSpaceOnUse">
      <stop offset="0" stop-color="#a0c558" stop-opacity="0"/>
      <stop offset=".2068" stop-color="#89b557" stop-opacity=".2068"/>
      <stop offset=".528" stop-color="#72a555" stop-opacity=".528"/>
      <stop offset=".8037" stop-color="#659c53" stop-opacity=".8037"/>
      <stop offset="1" stop-color="#619952"/>
    </linearGradient>
    <path fill="url(#SVGID_79_)" d="M1408.9 139.3c-2.2-.7-4.1-1.7-5.7-2.9 1.3-1.4 2.9-2.9 3.8-4.5.8-1.6 1.1-3.3.1-5.1-.9-1.7-2.3-3.2-2.8-5.1-.6-2.3.2-4.7.1-7.1 0-3.3-1.9-4.2-3.9-4.8.2-.3.4-.6.6-.8.4-.5.9-1.1 1.6-1.8 3-2.9 10.7-8.9 15.2-6.3 7.9 4.6-.9 10.9-2.9 15-3 6.4 7.2 8.6 9.7 12.6 5.8 9.4-9.1 13.1-15.8 10.8z"/>
  </g>
  <g>
    <path d="M1052.9 281.1h-3l-.9-30.3h4.8zM1225.4 271.5h3l.9-30.4h-4.8zM1247 281.1h2.9l.9-30.3h-4.8zM1074.4 271.5h-2.9l-1-30.4h4.9z" class="st8"/>
    <path d="M1257 248.7v.2c0 2.1-1.7 3.9-3.9 3.9h-206c-2.1 0-3.9-1.7-3.9-3.9v-.2H1257z" class="st4"/>
    <path d="M1241 183.3l-4.7 40.2v.2h-170.6l-3.2-40.5c-.2-2.3 1.6-4.2 3.9-4.2h170.8c2.3 0 4.1 2 3.8 4.3z" class="st6"/>
    <path d="M1256.3 248.7h-213l22.5-25 .1-.2h170.8z" class="st6"/>
    <linearGradient id="SVGID_80_" x1="1075.7" x2="1257" y1="89.25" y2="89.25" gradientTransform="matrix(1 0 0 -1 0 340)" gradientUnits="userSpaceOnUse">
      <stop offset="0" stop-color="#d2cde7" stop-opacity="0"/>
      <stop offset=".336" stop-color="#9e9acb" stop-opacity=".336"/>
      <stop offset=".6315" stop-color="#8180bb" stop-opacity=".6315"/>
      <stop offset=".8623" stop-color="#7375b4" stop-opacity=".8623"/>
      <stop offset="1" stop-color="#6f71b2"/>
    </linearGradient>
    <path fill="url(#SVGID_80_)" d="M1257 248.7v.2c0 2.1-1.7 3.9-3.9 3.9h-177.4c2.1-1.7 4.6-3 7.1-4.1H1257z"/>
    <linearGradient id="SVGID_81_" x1="1076.1448" x2="1300.7792" y1="113.2235" y2="142.0893" gradientTransform="matrix(1 0 0 -1 0 340)" gradientUnits="userSpaceOnUse">
      <stop offset="0" stop-color="#d2cde7" stop-opacity="0"/>
      <stop offset=".1208" stop-color="#bcb6db" stop-opacity=".1208"/>
      <stop offset=".4063" stop-color="#9390c5" stop-opacity=".4063"/>
      <stop offset=".6585" stop-color="#7d7db9" stop-opacity=".6585"/>
      <stop offset=".8649" stop-color="#7274b3" stop-opacity=".8649"/>
      <stop offset="1" stop-color="#6f71b2"/>
    </linearGradient>
    <path fill="url(#SVGID_81_)" d="M1256.3 248.7h-169.2c2.3-1.9 5.2-3 7.9-4 12-4.6 24.3-8.7 37-10.9 5.5-1 10.4-.8 15.8-2.5 6.3-2 12.5-4 18.8-5.7 5.5-1.5 12.7-5.2 11.1-12.2-2.6-11-20.1-12.2-29.2-13.9-12.5-2.4-25.3-3.6-37.8-6-7-1.3-17.8-5.1-14.3-14.4h140.7c2.3 0 4.1 2 3.9 4.4l-4.7 40.2h.4l19.6 25z"/>
    <g>
      <path d="M1068.6 188l35.8.3-35.8.3c-.1 0-.3-.1-.3-.2 0-.3.2-.4.3-.4z" class="st4"/>
    </g>
    <g>
      <path d="M1091.3 198.3l31.3.3-31.3.3c-.1 0-.3-.1-.3-.2.1-.2.2-.4.3-.4z" class="st4"/>
    </g>
    <g>
      <path d="M1075.4 208.7l43.1.3-43.1.3c-.1 0-.3-.1-.3-.2 0-.3.1-.4.3-.4z" class="st4"/>
    </g>
    <g>
      <path d="M1102.8 219.8l39.3.3-39.3.3c-.1 0-.3-.1-.3-.2.1-.3.2-.4.3-.4z" class="st4"/>
    </g>
    <g>
      <path d="M1068.6 231.1l53.9.3-53.9.3c-.1 0-.3-.1-.3-.2 0-.3.2-.4.3-.4z" class="st4"/>
    </g>
    <g>
      <path d="M1085.7 240.9l53.9.3-53.9.3c-.1 0-.3-.1-.3-.2.1-.3.2-.4.3-.4z" class="st4"/>
    </g>
  </g>
  <g>
    <path d="M1183.3 293.3v8.3s5.5 4.2 6.8.7l1.5-10.1-8.3 1.1zM1159.9 293.2l5.3 13c-.7 3 1.2 9.2 5.3-3.4l-1.4-10.6-9.2 1z" class="st24"/>
    <path d="M1200.9 256.2c0 5.9-7.1 27.5-9 38.9-.4 2.5-10.1 1.3-10.1-1.2v-2.1c.2-21.1 3.7-29.6 3.6-32.1-.1-4.2-9.3-14.1-11.6-17.6-.4-.7-1.4-.7-1.8-.1 0 0-.1.1-.1.2-3.2 5-15.1 12.9-12.8 16.5 4.2 6.5 5.3 13.9 11.3 35.1.5 1.9-3.2 3.1-6.4 3.1-1.9 0-3.5-.3-4.1-1.2-8.5-13.1-15.3-32.8-17.6-37-2.9-5.4 15.3-33 15.3-33s7.1-1.1 14.5-1.4c6.6-.3 13.4.2 15.2 2.9 8.9 13.8 13.7 24.5 13.6 29z" class="st22"/>
    <path d="M1154.1 204.3c0 .9-.1 3.3-.2 6-.1 3.4-.3 7.3-.4 9.2 0 .8-.1 1.3-.1 1.3s-.7.8-1.8 1.6c-1.8 1.4-4.7 2.9-7.9 1.7-1.3-.5-2-2.1-2.2-4.2-.9-6.4 1.8-17.7 1.8-17.7s10.8-.8 10.8 2.1zM1177.4 179.6c0 3.7-14.9 6.6-13.5 0 .7-3.3.7-6.4.5-8.5s-.5-3.4-.5-3.4 13.8-4.8 12.6-2.1c-.6 1.3-.4 4.8 0 8s.9 6 .9 6z" class="st24"/>
    <linearGradient id="SVGID_82_" x1="1165.4489" x2="1178.1758" y1="164.2508" y2="177.6352" gradientTransform="matrix(1 0 0 -1 0 340)" gradientUnits="userSpaceOnUse">
      <stop offset="0" stop-color="#e8abae" stop-opacity="0"/>
      <stop offset=".112" stop-color="#dd98a1" stop-opacity=".112"/>
      <stop offset=".4158" stop-color="#cb7689" stop-opacity=".4158"/>
      <stop offset=".6758" stop-color="#c0647c" stop-opacity=".6758"/>
      <stop offset=".8789" stop-color="#b95976" stop-opacity=".8789"/>
      <stop offset="1" stop-color="#b75674"/>
    </linearGradient>
    <path fill="url(#SVGID_82_)" d="M1176.5 165.6c-.6 1.3-.4 4.8 0 8-1 .1-4 .4-4.9 0-.4-.2-4-.6-5.6-1.3-.6-.3-1.1-.7-1.5-1.1-.2-2.1-.5-3.4-.5-3.4s13.7-4.9 12.5-2.2z"/>
    <path d="M1180.5 153.7c0 7.7-3.8 17.4-11 17.4s-13-9.3-14.4-16.7c-2.1-11.1 5.5-14.8 12.7-14.8s12.7 1.1 12.7 14.1z" class="st24"/>
    <linearGradient id="SVGID_83_" x1="1162.254" x2="1183.3801" y1="185.7173" y2="200.8528" gradientTransform="matrix(1 0 0 -1 0 340)" gradientUnits="userSpaceOnUse">
      <stop offset="0" stop-color="#e8abae" stop-opacity="0"/>
      <stop offset=".112" stop-color="#dd98a1" stop-opacity=".112"/>
      <stop offset=".4158" stop-color="#cb7689" stop-opacity=".4158"/>
      <stop offset=".6758" stop-color="#c0647c" stop-opacity=".6758"/>
      <stop offset=".8789" stop-color="#b95976" stop-opacity=".8789"/>
      <stop offset="1" stop-color="#b75674"/>
    </linearGradient>
    <path fill="url(#SVGID_83_)" d="M1163.1 153.3c3.1.6 6.9-.7 9.5-2.2.9-.5 1.5-1.5 2.5-1.9.8-.4 1.9-.4 2.5.2.6.6.6 1.6.8 2.5.2.9 1.1 1.7 1.8 1.3.3-.1.4-.4.5-.7 1.8-3.4.5-8-2.7-10-1.7-1-3.7-1.4-5.7-1.6-1.9-.3-3.9-.4-5.6.5-.8.4-1.5 1.1-2.3 1.5-1.8 1.1-4.1 1.1-5.8 2.2-1.3.8-4.7 5.8-2.1 6.5 1.6.4 2.6-1.8 4.2-1.4 0 .9 0 2.2.9 2.6.5.2 1 .4 1.5.5z"/>
    <path d="M1185 142.1c.2 3.4-1.6 8.4-3.6 11-.3.4-.9.8-1.2.4-.1-.1-.2-.3-.2-.5-.4-1.8-.5-5.7-2.6-6.3-.3-.1-.7-.1-1.2 0-1.2.3-2.2 1.1-3.2 1.9-.4.3-.8.6-1.2.8-2.3 1.4-5.6 2.1-8.2 1.6-.5-.1-1-.3-1.3-.6-1.2-1.1.6-4.1-2.5-2.8-2.6 1.1-2.9 5.5-3.4 7.8-.1.2-.1.5-.3.5-.3.1-.5-.2-.7-.4-2.3-3.5-4.5-6.6-4.5-11 0-3.7 1.7-7 5.2-8.3.3-.1.5-.2.8-.3 1.5-.4 3.4.9 4.7 0 .6-.5.9-1.3 1.2-2 2-3.9 7.6-3.5 11.1-2.2 1.9.7 3.3 1.8 4.4 3.5.6 1 .8 1.7 1.9 2 .9.3 1.8-.2 2.7.3 1.3.9 2 3 2.1 4.6z" class="st30"/>
    <path d="M1216.5 248.4c0-1.2-.2-2.5-.8-3.5-.8-1.6-2-2.8-3.2-4.1-.2-.2-.5-.4-.7-.5-.5-1.6-1.6-3.5-2.1-4.7-3.7-7.7-5.5-14.2-7.4-16.6-.9-5.1-3.3-19.6-3.3-19.6l-10.9 2.1s.3 2.2.8 5.2c.8 5.3 2 13 2.4 14.3.3 1.1.8 2.2 1.4 3.2 3.8 6.8 9 12 14.2 18.7.1.3.1.5.1.6 0 2-.6 3.7 0 5.8.1.3.2.6.5.8.2.2.6.3.9.2.3-.2.4-.6.4-1-.1-1 .3-2 .5-2.9.3-.1.6.2.7.6.6 1.3.5 2.9 1.1 4.3.3.7 1 1.4 1.9 1.9.7.4 1.5.5 2.3.3 1.7-.8 1.2-3.6 1.2-5.1z" class="st24"/>
    <linearGradient id="SVGID_84_" x1="1194.0208" x2="1225.1746" y1="108.5378" y2="125.7431" gradientTransform="matrix(1 0 0 -1 0 340)" gradientUnits="userSpaceOnUse">
      <stop offset="0" stop-color="#e8abae" stop-opacity="0"/>
      <stop offset=".112" stop-color="#dd98a1" stop-opacity=".112"/>
      <stop offset=".4158" stop-color="#cb7689" stop-opacity=".4158"/>
      <stop offset=".6758" stop-color="#c0647c" stop-opacity=".6758"/>
      <stop offset=".8789" stop-color="#b95976" stop-opacity=".8789"/>
      <stop offset="1" stop-color="#b75674"/>
    </linearGradient>
    <path fill="url(#SVGID_84_)" d="M1215.2 253.2c-.7.2-1.5 0-2.3-.3 1.4-.4 1.9-2.5 1.6-4.1-.5-2.1-1.7-4-3.1-5.7-.7-.9-1.5-1.8-2.3-2.8-.2-.2-.3-.4-.5-.6-5.7-7.2-9.6-15.9-11.1-25-.4-2.4-1-5.3-3.3-6.1-.8-.2-1.6-.2-2.4-.3-1.1-.2-2.2-.9-3-1.8-.4-3-.8-5.2-.8-5.2l10.9-2.1s2.3 14.5 3.3 19.6c1.9 2.5 3.8 8.9 7.4 16.6.6 1.2 1.6 3 2.1 4.7.3.1.5.3.7.5 1.2 1.3 2.4 2.6 3.2 4.1.6 1.1.8 2.3.8 3.5.1 1.7.6 4.5-1.2 5z"/>
    <linearGradient id="SVGID_85_" x1="1172.2361" x2="1219.5035" y1="77.9717" y2="89.785" gradientTransform="matrix(1 0 0 -1 0 340)" gradientUnits="userSpaceOnUse">
      <stop offset="0" stop-color="#6f71b2" stop-opacity="0"/>
      <stop offset=".1917" stop-color="#615f94" stop-opacity=".1917"/>
      <stop offset=".5554" stop-color="#4a456e" stop-opacity=".5554"/>
      <stop offset=".8369" stop-color="#3c3559" stop-opacity=".8369"/>
      <stop offset="1" stop-color="#363052"/>
    </linearGradient>
    <path fill="url(#SVGID_85_)" d="M1200.9 256.2c0 5.9-7.1 27.5-9 38.9-.4 2.5-10.1 1.3-10.1-1.2v-2.1c1.2-.3 2.5-.3 3.5-.9 5.5-3.1 6-13.8 7.5-19.1 1.4-5 3.1-10.2 3.1-15.5-.1-3.4-2-6.6-3.6-9.6-1.3-2.3-2.6-4.7-4.3-6.6-2.3-2.5-4.9-3.4-8.2-4-3.4-.6-26-1.9-22.2-8.3 1.4-2.4 9.2-2.2 11.9-2.9.8-.2 1.7-.4 2.6-.7 6.6-.3 13.4.2 15.2 2.9 8.9 13.9 13.7 24.6 13.6 29.1z"/>
    <path d="M1200.8 202.7c-1.9 2-10.7 2.6-12.6.9-.1-.1-.3 0-.3.1.4 3.8.3 9.2.2 13-.1 1.9.3 9.8.2 10.5-.4 4.7-14.6 4.1-17.1 4.2-4.1.1-11.2-.4-15.2-1.1-1.3-.2-1.2-2.4-1-4.4.1-.9.2-1.8.2-2.4.3-6.8-.4-10.6 0-17.5 0 0-11.2 1.4-12.7-1.6-1.2-2.4 4.2-21.4 5.2-22.8.7-1.1 0-4.5 16.2-6.1 1.5-.1 1.4 2.5 7.6 1.9 2-.2 4.2-.7 5.2-2.6.2-.5 5-.1 9.6 1.3 3.8 1.2 7.4 3 8.3 5.8 2.6 7.8 7.3 19.6 6.2 20.8z" class="st3"/>
    <linearGradient id="SVGID_86_" x1="1164.3947" x2="1208.5602" y1="139.4055" y2="122.7891" gradientTransform="matrix(1 0 0 -1 0 340)" gradientUnits="userSpaceOnUse">
      <stop offset="0" stop-color="#b75674" stop-opacity="0"/>
      <stop offset=".2104" stop-color="#a5526e" stop-opacity=".2104"/>
      <stop offset=".7043" stop-color="#884a63" stop-opacity=".7043"/>
      <stop offset="1" stop-color="#7e475f"/>
    </linearGradient>
    <path fill="url(#SVGID_86_)" d="M1200.8 202.7c-1.9 2-10.7 2.6-12.6.9-.1-.1-.3 0-.3.1.4 3.8.3 9.2.2 13-.1 1.9.3 9.8.2 10.5-.4 4.7-14.6 4.1-17.1 4.2-4.1.1-11.2-.4-15.2-1.1-1.3-.2-1.2-2.4-1-4.4.6-.1 1.3-.1 1.9-.1 4.9 0 10.1.9 14.5-1.4 3.7-1.9 6.1-5.8 6.9-9.8.8-3.7.4-7.8 2.1-11.2 1.9-3.7 6.3-4.6 8.9-7.6 3.7-4.1 2-9.2.6-13.9-.4-1.2-.7-2.5-1.4-3.6-.6-1-1.5-1.5-2.2-2.3 3.8 1.2 7.4 3 8.3 5.8 2.6 7.9 7.3 19.7 6.2 20.9z"/>
    <path d="M1173.4 208.6c-10.4 8.2-17.4 12.1-21.9 14-5 2-6.9 1.6-6.9 1.6-.7 0-1.5-1.5-2.1-3.2-.7-2.1-1.1-4.5-.6-5.3.4-.7 5.8-2.9 11.9-5.3 4.7-1.8 9.8-3.6 13.2-4.8 1.7-.6 3-1 3.6-1.2 1.9-.5 2.5.9 2.7 2.3.2.9.1 1.9.1 1.9z" class="st24"/>
    <path d="M1180.1 200.6c0 .2 0 .4-.1.6-.2.5-.7.9-1.3.9l-5.2.3c-.8 0-1.5-.6-1.6-1.4l-.8-13.7v-.1c0-.8.6-1.5 1.4-1.5l5.2-.3c.8 0 1.5.6 1.6 1.4l.8 13.8z" class="st7"/>
    <linearGradient id="SVGID_87_" x1="1170.9341" x2="1183.162" y1="146.6" y2="146.6" gradientTransform="matrix(1 0 0 -1 0 340)" gradientUnits="userSpaceOnUse">
      <stop offset="0" stop-color="#e4e6f5" stop-opacity="0"/>
      <stop offset=".1166" stop-color="#d4d5ec" stop-opacity=".1166"/>
      <stop offset=".5142" stop-color="#aaa8d3" stop-opacity=".5142"/>
      <stop offset=".8218" stop-color="#9491c6" stop-opacity=".8218"/>
      <stop offset="1" stop-color="#8d8ac2"/>
    </linearGradient>
    <path fill="url(#SVGID_87_)" d="M1180.1 200.6c0 .2 0 .4-.1.6-.9 0-1.9-.4-2.5-1-1.3-1.3-1.6-3.2-1.6-5 0-3.7 0-6.5-4-7.7-.2-.1-.4-.1-.7-.1 0-.8.6-1.5 1.4-1.5l5.2-.3c.8 0 1.5.6 1.6 1.4l.7 13.6z"/>
    <path d="M1181.6 203.5c-.9 1.5-6.1 4.1-8.2 5.1-.5.2-.9.4-.9.4s-1.2-.3-2.5-.8c-2.1-.7-4.5-1.9-3.1-2.6 2.4-1.3 2.3-1.9 3-5.5.9-4.2.6-4.7 1.6-4.3 1.1.4-.1 3.8.8 4.3 1.3.7 7.2-4.3 7.2-4.3.7.2 1.3.5 1.7 1 1.9 1.8 1 5.6.4 6.7z" class="st24"/>
    <path d="M1172.6 306c-4.3 9.2-7.6 15.1-15.5 13.4-3.7-.8-3.8-3.5-2.9-5.4.4-.8.9-1.4 1.4-1.7 7.6-4.9 4-12.3 6.8-11.3 1.2.4 3.1.7 4.7.5 1.5-.2 2.7-.8 2.9-2 .3-1.6 3.7 4.2 2.6 6.5zM1195.5 319c-2.5 1.3-4.6.6-6.5-1-3.8-3.3-6.4-10.4-7.2-12.8-.5-1.3.7-6.9 1.6-6.5 2.6 1.3 4.3 1.5 5.4 1.3 1.8-.3 2-1.5 2.3-.4.6 2.6-1.4 5.6 7.1 12.3 1.5 1.3 1 5.3-2.7 7.1z" class="st3"/>
    <path d="M1158.2 161.5c-.1-1.7-.9-7.7-3.9-6-.6.4-1 1.1-1 1.8 0 .9.6 1.2 1.1 1.8.5.5.6 1.1 1.1 1.7.5.6 1.3 1.1 2.1 1.2.2 0 .4 0 .5-.1.2-.2.2-.3.1-.4zM1178.5 160c-.1-1.7-.2-7.8 3-6.4.7.3 1.2.9 1.2 1.6.1.9-.4 1.3-.9 1.9-.4.5-.4 1.2-.8 1.8-.4.7-1.1 1.2-1.9 1.5-.2.1-.4.1-.6-.1v-.3z" class="st24"/>
    <linearGradient id="SVGID_88_" x1="1160.3639" x2="1198.3459" y1="193.175" y2="206.3127" gradientTransform="matrix(1 0 0 -1 0 340)" gradientUnits="userSpaceOnUse">
      <stop offset="0" stop-color="#e29058" stop-opacity="0"/>
      <stop offset=".0549" stop-color="#e18c58" stop-opacity=".0551"/>
      <stop offset=".4362" stop-color="#dc7b55" stop-opacity=".4379"/>
      <stop offset=".7633" stop-color="#da7254" stop-opacity=".7662"/>
      <stop offset=".9962" stop-color="#d96f54"/>
    </linearGradient>
    <path fill="url(#SVGID_88_)" d="M1185 142.1c.2 3.4-1.6 8.4-3.6 11-.3.4-.9.8-1.2.4-.1-.1-.2-.3-.2-.5-.4-1.8-.5-5.7-2.6-6.3l.2-.2c1.4-.9 2.3-2.4 1.2-4-.6-.9-1.8-.7-2.3-1.5-.6-1-.7-2.4-1.4-3.3-2.2-3.1-6.5-4.5-9.8-2.1-.8.6-1.4 1.3-2.2 1.8-.9.5-1.9.8-3 .8-1.8.1-2.3-1.1-3.7-1.8l-.6-.3c.3-.1.5-.2.8-.3 1.5-.4 3.4.9 4.7 0 .6-.5.9-1.3 1.2-2 2-3.9 7.6-3.5 11.1-2.2 1.9.7 3.3 1.8 4.4 3.5.6 1 .8 1.7 1.9 2 .9.3 1.8-.2 2.7.3 1.6 1 2.3 3.1 2.4 4.7z"/>
    <linearGradient id="SVGID_89_" x1="1158.1785" x2="1173.8823" y1="136.0696" y2="110.4118" gradientTransform="matrix(1 0 0 -1 0 340)" gradientUnits="userSpaceOnUse">
      <stop offset="0" stop-color="#e8abae" stop-opacity="0"/>
      <stop offset=".112" stop-color="#dd98a1" stop-opacity=".112"/>
      <stop offset=".4158" stop-color="#cb7689" stop-opacity=".4158"/>
      <stop offset=".6758" stop-color="#c0647c" stop-opacity=".6758"/>
      <stop offset=".8789" stop-color="#b95976" stop-opacity=".8789"/>
      <stop offset="1" stop-color="#b75674"/>
    </linearGradient>
    <path fill="url(#SVGID_89_)" d="M1181.6 203.5c-.9 1.5-6.1 4.1-8.2 5.1-10.4 8.2-17.4 12.1-21.9 14-1.8 1.4-4.7 2.9-7.9 1.7-1.3-.5-2-2.1-2.2-4.2.3.4.7.7 1.2.9.1.1.3.2.4.2 1.6.7 3.5.6 5.3.2 1.8-.4 3.5-1 5.1-1.8 5.9-2.9 24.1-14.3 25.2-16.1.8-1.2.9-2.7 1.2-4 .3-1 .8-2.1 1.6-2.7 1.7 1.8.8 5.6.2 6.7z"/>
    <linearGradient id="SVGID_90_" x1="1148.3929" x2="1185.1499" y1="68.4042" y2="72.3177" gradientTransform="matrix(1 0 0 -1 0 340)" gradientUnits="userSpaceOnUse">
      <stop offset="0" stop-color="#6f71b2" stop-opacity="0"/>
      <stop offset=".4065" stop-color="#55517f" stop-opacity=".4065"/>
      <stop offset=".8" stop-color="#3f395d" stop-opacity=".8"/>
      <stop offset="1" stop-color="#363052"/>
    </linearGradient>
    <path fill="url(#SVGID_90_)" d="M1159.1 258.7c4.2 6.5 5.3 13.9 11.3 35.1.5 1.9-3.2 3.1-6.4 3.1.6-.5 1.3-.9 1.8-1.5 1.5-1.8.5-4.5-.6-6.6-4.4-8.6-8.4-17.4-12.1-26.3-.6-1.4-1.1-2.8-.9-4.3.3-1.8.5-4.1 1.8-5.3 4-3.6 4-3.2 8-6.8 3.4-3.1 8.8-4.1 9.9-4 0 0-.1.1-.1.2-3.2 4.9-15.1 12.7-12.7 16.4z"/>
    <linearGradient id="SVGID_91_" x1="1185.4734" x2="1196.3735" y1="28.9349" y2="31.6524" gradientTransform="matrix(1 0 0 -1 0 340)" gradientUnits="userSpaceOnUse">
      <stop offset="0" stop-color="#b75674" stop-opacity="0"/>
      <stop offset=".2104" stop-color="#a5526e" stop-opacity=".2104"/>
      <stop offset=".7043" stop-color="#884a63" stop-opacity=".7043"/>
      <stop offset="1" stop-color="#7e475f"/>
    </linearGradient>
    <path fill="url(#SVGID_91_)" d="M1195.5 319c-2.5 1.3-4.6.6-6.5-1 1.3-.6 2.7-1 3.2-2.2.7-1.5-.5-3.2-1.5-4.6-1.5-2.1-2.6-4.5-2.7-7.1 0-1 .2-2.6.7-4.1 1.8-.3 2-1.5 2.3-.4.6 2.6-1.4 5.6 7.1 12.3 1.6 1.3 1.1 5.3-2.6 7.1z"/>
    <linearGradient id="SVGID_92_" x1="1153.7611" x2="1172.8281" y1="30.5765" y2="30.5765" gradientTransform="matrix(1 0 0 -1 0 340)" gradientUnits="userSpaceOnUse">
      <stop offset="0" stop-color="#b75674" stop-opacity="0"/>
      <stop offset=".2104" stop-color="#a5526e" stop-opacity=".2104"/>
      <stop offset=".7043" stop-color="#884a63" stop-opacity=".7043"/>
      <stop offset="1" stop-color="#7e475f"/>
    </linearGradient>
    <path fill="url(#SVGID_92_)" d="M1172.6 306c-4.3 9.2-7.6 15.1-15.5 13.4-3.7-.8-3.8-3.5-2.9-5.4 2.3-.1 5 1.7 7.3 1.1 2.2-.6 3.3-3 4.2-5.1.5-1.3 1.1-2.7 1.2-4.2.1-1.3 0-2.9.1-4.4 1.5-.2 2.7-.8 2.9-2 .4-1.5 3.8 4.3 2.7 6.6z"/>
  </g>
  <g>
    <path d="M1751.4 280.3c-6.9 5.1-16.6 4.7-24.8 4.9h-.3c-5.7.2-13.4.5-21.1-.1-11.6-.9-23.2-3.8-28.3-12.3-4.2-7-3.9-17.3 2.8-22.5 5.3-4.1 8.5 1.4 13.7 1.4 1.7 0 3.5-.8 4.5-2 .5-.6.8-1.3.8-2 .1-.9-.2-1.9-.4-2.8-1.5-6.6 2.4-15.5 10.4-14.7 6.3.6 11.1 5.6 14.7 10.3l1.2 1.5c2.7 3.3 5.5 6 10.3 4.5 3.2-1 6.8-.4 9.9 1.2 1.1.5 2.1 1.2 3.1 1.9 1.8 1.3 3.4 2.9 4.9 4.4 7.3 7.6 7.6 19.8-1.4 26.3z" class="st54"/>
    <linearGradient id="SVGID_93_" x1="1698.035" x2="1758.2151" y1="82.248" y2="82.248" gradientTransform="matrix(1 0 0 -1 0 340)" gradientUnits="userSpaceOnUse">
      <stop offset="0" stop-color="#a0c558" stop-opacity="0"/>
      <stop offset=".2068" stop-color="#89b557" stop-opacity=".2068"/>
      <stop offset=".528" stop-color="#72a555" stop-opacity=".528"/>
      <stop offset=".8037" stop-color="#659c53" stop-opacity=".8037"/>
      <stop offset="1" stop-color="#619952"/>
    </linearGradient>
    <path fill="url(#SVGID_93_)" d="M1751.4 280.3c-6.9 5.1-16.6 4.7-24.8 4.9h-.3c-5.7.2-13.4.5-21.1-.1 7.9-3.3 30.1-.7 33.3-11.1 2.2-7.3-3.8-7.8-8.8-8.9-1.1-.2-2.1-.5-3-.8-6.7-2.5-10.3-5-14.6-11.1-3-4.3-8.8-2.7-14.2-3.6.5-.6.8-1.3.8-2 .1-.9-.2-1.9-.4-2.8-1.5-6.6 2.4-15.5 10.4-14.7 6.3.6 11.1 5.6 14.7 10.3l1.2 1.5c2.7 3.3 5.5 6 10.3 4.5 3.2-1 6.8-.4 9.9 1.2 1.1.5 2.1 1.2 3.1 1.9 1.8 1.3 3.4 2.9 4.9 4.4 7.3 7.7 7.6 19.9-1.4 26.4z"/>
  </g>
  <path fill="none" d="M-39-201l2-2"/>
</svg>
