<?xml version="1.0" encoding="iso-8859-1"?><svg xmlns="http://www.w3.org/2000/svg" xmlns:xlink="http://www.w3.org/1999/xlink" style="display:none"><symbol viewBox="0 0 473.931 473.931" id="angry" xmlns="http://www.w3.org/2000/svg"><circle cx="236.966" cy="236.966" r="236.966" fill="#ffc10e"/><g fill="#333"><path d="M106.883 85.989c25.141 18.817 50.282 37.638 75.423 56.456 9.669 7.237 18.978-9.018 9.44-16.153-25.141-18.817-50.282-37.638-75.423-56.456-9.664-7.24-18.977 9.014-9.44 16.153zM356.298 69.832c-25.141 18.817-50.282 37.638-75.423 56.456-9.538 7.139-.228 23.39 9.44 16.153 25.141-18.817 50.282-37.638 75.423-56.456 9.538-7.135.229-23.389-9.44-16.153z"/><circle cx="164.937" cy="155.231" r="37.216"/><circle cx="305.664" cy="155.231" r="37.216"/></g><path d="M392.514 377.719c0-85.911-69.645-155.56-155.56-155.56s-155.56 69.649-155.56 155.56h311.12z" fill="#fff"/><g fill="#cccbcb"><path d="M306.177 377.719V238.413a154.016 154.016 0 00-18.709-7.82v147.126h18.709zM190.59 377.719V229.19c-6.432 2.006-12.666 4.453-18.709 7.244v141.289h18.709v-.004z"/></g></symbol><symbol viewBox="0 0 473.935 473.935" id="angry-1" xmlns="http://www.w3.org/2000/svg"><circle cx="236.967" cy="236.967" r="236.967" fill="#ffc10e"/><g fill="#333"><circle cx="164.938" cy="192.665" r="37.216"/><circle cx="305.667" cy="192.665" r="37.216"/><path d="M318.258 101.309l-86.024 38.125h9.441c-28.673-12.707-57.343-25.418-86.016-38.125-10.926-4.842-20.453 11.274-9.441 16.153 15.469 6.855 30.933 13.714 46.398 20.569l29.785 13.201c4.034 1.789 9.961 5.635 14.556 5.635 4.595 0 10.522-3.847 14.556-5.635l29.788-13.201c15.469-6.855 30.937-13.714 46.402-20.569 11.004-4.879 1.477-20.995-9.445-16.153zM105.245 326.856h259.164c12.067 0 12.067-18.709 0-18.709H105.245c-12.067 0-12.067 18.709 0 18.709z"/></g></symbol><symbol viewBox="0 0 473.935 473.935" id="bored" xmlns="http://www.w3.org/2000/svg"><circle cx="236.967" cy="236.967" r="236.967" fill="#ffc10e"/><g fill="#333"><path d="M340.009 335.736c0 56.886-46.129 103.045-103.045 103.045s-103.045-46.159-103.045-103.045c0-56.916 46.129-103.049 103.045-103.049s103.045 46.132 103.045 103.049z"/><ellipse cx="164.938" cy="155.232" rx="37.216" ry="19.757"/><ellipse cx="305.667" cy="155.232" rx="37.216" ry="19.757"/></g></symbol><symbol viewBox="0 0 473.931 473.931" id="bored-1" xmlns="http://www.w3.org/2000/svg"><circle cx="236.966" cy="236.966" r="236.966" fill="#ffc10e"/><g fill="#333"><path d="M374.187 172.974c-16.801-35.584-57.331-51.868-94.057-37.59-11.117 4.325-6.286 22.421 4.973 18.043 29.522-11.48 59.371.277 72.927 28.987 5.149 10.908 21.276 1.407 16.157-9.44zM122.243 182.328c13.556-28.711 43.404-40.471 72.927-28.987 11.259 4.378 16.09-13.717 4.973-18.043-36.725-14.282-77.252 2.006-94.057 37.59-5.118 10.844 11.009 20.344 16.157 9.44zM283.158 287.816c0 39.981-20.684 72.384-46.203 72.384-25.511 0-46.203-32.404-46.203-72.384 0-39.962 20.692-72.384 46.203-72.384 25.518 0 46.203 32.422 46.203 72.384z"/></g></symbol><symbol viewBox="0 0 473.931 473.931" id="bored-2" xmlns="http://www.w3.org/2000/svg"><circle cx="236.966" cy="236.966" r="236.966" fill="#ffc10e"/><g fill="#333"><circle cx="346.15" cy="335.711" r="25.762"/><path d="M243.499 112.908c1.684 31.251 23.992 53.56 55.243 55.247 31.184 1.68 53.698-26.525 55.247-55.247.651-12.063-18.061-12-18.709 0-2.537 47.094-70.536 47.094-73.069 0-.651-12-19.363-12.064-18.712 0zM108.694 112.908c1.684 31.255 23.988 53.56 55.243 55.247 31.184 1.68 53.694-26.525 55.243-55.247.651-12.063-18.061-12-18.709 0-2.537 47.094-70.532 47.094-73.065 0-.65-12-19.363-12.064-18.712 0z"/></g></symbol><symbol viewBox="0 0 473.931 473.931" id="confused" xmlns="http://www.w3.org/2000/svg"><circle cx="236.966" cy="236.966" r="236.966" fill="#ffc10e"/><g fill="#333"><circle cx="164.937" cy="155.231" r="37.216"/><circle cx="305.664" cy="155.231" r="37.216"/><path d="M105.278 326.581H364.44c12.067 0 12.067-18.709 0-18.709H105.278c-12.067 0-12.067 18.709 0 18.709z"/></g></symbol><symbol viewBox="0 0 473.931 473.931" id="confused-1" xmlns="http://www.w3.org/2000/svg"><circle cx="236.966" cy="236.966" r="236.966" fill="#ffc10e"/><g fill="#333"><path d="M230.328 309.417c-34.514 58.038-123.336 39.532-129.383-28.894-1.051-11.921-19.771-12.022-18.709 0 3.592 40.628 30.608 73.069 70.865 81.844 37.294 8.127 74.454-11.682 93.376-43.505 6.182-10.399-9.994-19.802-16.149-9.445z"/><path d="M393.955 359.456c2.193-43.045-24.523-79.872-65.877-91.684-38.428-10.978-78.517 9.362-98.195 42.454-6.181 10.395 9.994 19.801 16.149 9.44 37.709-63.415 132.952-33.657 129.214 39.79-.613 12.063 18.099 12.004 18.709 0z"/><circle cx="164.937" cy="155.231" r="37.216"/><circle cx="305.664" cy="155.231" r="62.162"/></g></symbol><symbol viewBox="0 0 473.935 473.935" id="crying" xmlns="http://www.w3.org/2000/svg"><circle cx="236.967" cy="236.967" r="236.967" fill="#ffc10e"/><path d="M357.644 355.144c-66.005-68.621-174.861-68.763-241.065-.341-8.389 8.666 4.827 21.912 13.227 13.227 59.266-61.249 155.52-61.088 214.61.341 8.378 8.715 21.591-4.531 13.228-13.227z" fill="#333"/><g fill="#75cdde"><path d="M116.893 124.849c-19.588 20.954-35.974 44.827-48.913 70.387-13.818 27.296-7.42 60.647 20.135 76.793 25.182 14.75 62.986 7.139 76.793-20.138 5.051-9.976 10.529-19.652 16.587-29.055 2.848-4.415 5.934-8.666 9.066-12.879-9.658 12.995 3.173-3.027 5.702-5.732 20.879-22.331 22.17-57.208 0-79.375-21.076-21.083-58.479-22.355-79.37-.001zM414.987 216.279c-13.643-32.157-31.708-61.126-54.776-87.427-20.183-23.016-58.81-20.565-79.375 0-22.683 22.683-20.153 56.396 0 79.375a197.717 197.717 0 015.841 6.818c-4.026-5.369-4.135-5.474-.333-.318 3.817 5.212 7.252 10.69 10.638 16.183 8.239 13.351 14.96 27.603 21.074 42.028 11.959 28.187 52.961 34.091 76.793 20.135 28.875-16.918 32.082-48.629 20.138-76.794z"/></g><g fill="#333"><circle cx="164.938" cy="155.232" r="37.216"/><circle cx="305.667" cy="155.232" r="37.216"/></g></symbol><symbol viewBox="0 0 473.931 473.931" id="crying-1" xmlns="http://www.w3.org/2000/svg"><circle cx="236.966" cy="236.966" r="236.966" fill="#ffc10e"/><g fill="#75cdde"><path d="M366.532 278.29c-13.205 0-25.736-7.817-31.113-20.771-11.113-26.765-24.928-49.754-39.951-66.484-12.426-13.837-11.285-35.131 2.552-47.558 13.837-12.426 35.128-11.289 47.554 2.556 20.336 22.645 37.848 51.464 52.044 85.66 7.132 17.178-1.01 36.883-18.189 44.014a33.572 33.572 0 01-12.897 2.583zM113.465 278.29c-4.303 0-8.677-.831-12.902-2.582-17.178-7.128-25.32-26.836-18.189-44.014 14.196-34.196 31.708-63.015 52.044-85.66 12.426-13.833 33.717-14.982 47.554-2.556 13.837 12.426 14.978 33.721 2.552 47.558-15.023 16.729-28.838 39.715-39.951 66.484-5.372 12.953-17.907 20.77-31.108 20.77z"/></g><g fill="#333"><circle cx="164.937" cy="155.227" r="37.216"/><circle cx="305.664" cy="155.227" r="37.216"/><path d="M296.381 302.024c0 43.805-26.57 79.344-59.356 79.344s-59.356-35.539-59.356-79.344c0-43.827 26.57-79.348 59.356-79.348s59.356 35.52 59.356 79.348z"/></g></symbol><symbol viewBox="0 0 473.935 473.935" id="embarrassed" xmlns="http://www.w3.org/2000/svg"><circle cx="236.967" cy="236.967" r="236.967" fill="#ffc10e"/><g fill="#333"><circle cx="236.967" cy="335.713" r="25.762"/><circle cx="164.938" cy="155.232" r="37.216"/><circle cx="305.667" cy="155.232" r="37.216"/></g><g fill="#f0ae1d"><circle cx="80.845" cy="262.786" r="44.785"/><circle cx="389.745" cy="262.786" r="44.785"/></g></symbol><symbol viewBox="0 0 473.931 473.931" id="emoticons" xmlns="http://www.w3.org/2000/svg"><circle cx="236.966" cy="236.966" r="236.966" fill="#ffc10e"/><g fill="#333"><circle cx="175.26" cy="110.33" r="41.657"/><circle cx="291.595" cy="110.33" r="41.657"/><path d="M269.287 341.548h91.415c12.063 0 12.063-18.709 0-18.709h-91.415c-12.067 0-12.067 18.709 0 18.709z"/></g></symbol><symbol viewBox="0 0 473.931 473.931" id="happy" xmlns="http://www.w3.org/2000/svg"><circle cx="236.966" cy="236.966" r="236.966" fill="#ffc10e"/><g fill="#333"><path d="M383.164 237.123c-1.332 80.699-65.514 144.873-146.213 146.206-80.702 1.332-144.907-67.52-146.206-146.206-.198-12.052-18.907-12.071-18.709 0 1.5 90.921 73.993 163.414 164.914 164.914 90.929 1.5 163.455-76.25 164.922-164.914.199-12.071-18.51-12.052-18.708 0z"/><circle cx="164.937" cy="155.227" r="37.216"/><circle cx="305.664" cy="155.227" r="37.216"/></g></symbol><symbol viewBox="0 0 473.931 473.931" id="happy-1" xmlns="http://www.w3.org/2000/svg"><circle cx="236.966" cy="236.966" r="236.966" fill="#ffc10e"/><path d="M81.391 237.123c0 85.911 69.649 155.56 155.56 155.56 85.915 0 155.564-69.649 155.564-155.56H81.391z" fill="#fff"/><g fill="#cccbcb"><path d="M167.728 237.123v139.306a154.55 154.55 0 0018.709 7.82V237.123h-18.709zM283.319 237.123v148.529c6.432-2.006 12.666-4.453 18.709-7.24V237.123h-18.709z"/></g><g fill="#333"><path d="M219.181 158.793c-1.684-31.255-23.992-53.56-55.243-55.243-31.184-1.68-53.698 26.522-55.243 55.243-.651 12.063 18.061 12 18.709 0 2.537-47.09 70.536-47.09 73.069 0 .647 12 19.359 12.063 18.708 0zM353.985 158.793c-1.684-31.255-23.992-53.56-55.243-55.243-31.184-1.68-53.694 26.522-55.243 55.243-.651 12.063 18.061 12 18.709 0 2.537-47.09 70.532-47.09 73.069 0 .647 12 19.36 12.063 18.708 0z"/></g></symbol><symbol viewBox="0 0 473.931 473.931" id="happy-2" xmlns="http://www.w3.org/2000/svg"><circle cx="236.966" cy="236.966" r="236.966" fill="#ffc10e"/><path d="M81.391 237.127c0 85.911 69.649 155.56 155.56 155.56 85.915 0 155.567-69.649 155.567-155.56H81.391z" fill="#333"/><path d="M150.452 298.705c0 47.771 38.731 86.498 86.498 86.498 47.775 0 86.502-38.731 86.502-86.498h-173z" fill="#ca2027"/><g fill="#333"><circle cx="164.937" cy="155.231" r="37.216"/><circle cx="305.664" cy="155.231" r="37.216"/></g></symbol><symbol viewBox="0 0 473.931 473.931" id="happy-3" xmlns="http://www.w3.org/2000/svg"><circle cx="236.966" cy="236.966" r="236.966" fill="#ffc10e"/><g fill="#333"><path d="M201.853 462.968v8.359a238.988 238.988 0 0035.094 2.604c11.637 0 23.064-.876 34.252-2.496v-8.468c0-44.717-69.346-44.717-69.346.001z"/><circle cx="164.937" cy="155.231" r="37.216"/><circle cx="305.664" cy="155.231" r="37.216"/><path d="M343.25 316.86c-59.277 60.332-154.666 59.857-213.449-.898-8.4-8.685-21.616 4.557-13.227 13.227 65.761 67.973 173.648 68.336 239.903.898 8.461-8.61-4.759-21.845-13.227-13.227z"/></g></symbol><symbol viewBox="0 0 473.931 473.931" id="happy-4" xmlns="http://www.w3.org/2000/svg"><circle cx="236.966" cy="236.966" r="236.966" fill="#ffc10e"/><path d="M392.518 237.123c0 85.915-69.653 155.56-155.567 155.56-85.911 0-155.56-69.645-155.56-155.56h311.127z" fill="#fff"/><g fill="#333"><circle cx="164.937" cy="155.227" r="37.216"/><circle cx="305.664" cy="155.227" r="37.216"/></g></symbol><symbol viewBox="0 0 473.931 473.931" id="ill" xmlns="http://www.w3.org/2000/svg"><circle cx="236.966" cy="236.966" r="236.966" fill="#81c241"/><circle cx="236.966" cy="318.274" r="28.254" fill="#5e9a42"/><g fill="#333"><circle cx="164.937" cy="155.227" r="37.216"/><circle cx="305.664" cy="155.227" r="37.216"/></g><g fill="#67af45"><path d="M203.907 277.758c0 44.617-36.183 80.815-80.807 80.815-44.617 0-80.8-36.198-80.8-80.815 0-44.624 36.183-80.807 80.8-80.807 44.624.004 80.807 36.183 80.807 80.807zM432.054 277.758c0 44.617-36.183 80.815-80.807 80.815-44.632 0-80.815-36.198-80.815-80.815 0-44.624 36.183-80.807 80.815-80.807 44.624.004 80.807 36.183 80.807 80.807z"/></g></symbol><symbol viewBox="0 0 473.931 473.931" id="in-love" xmlns="http://www.w3.org/2000/svg"><circle cx="236.966" cy="236.966" r="236.966" fill="#ffc10e"/><g fill="#ed3533"><path d="M182.13 109.97c-14.133 0-27.262 6.892-35.154 18.432l-1.628 2.069-1.089-1.388c-7.802-11.962-20.954-19.109-35.232-19.109-24.363 0-42.042 17.684-42.042 42.039 0 35.962 65.107 88.968 69.855 92.784 2.241 2.144 5.175 3.323 8.288 3.323s6.047-1.175 8.288-3.326c4.763-3.847 70.753-57.683 70.753-92.781 0-24.359-17.68-42.043-42.039-42.043zM366.696 109.97c-14.133 0-27.262 6.892-35.154 18.432l-1.628 2.069-1.089-1.388c-7.802-11.962-20.954-19.109-35.232-19.109-24.363 0-42.042 17.684-42.042 42.039 0 35.962 65.107 88.968 69.855 92.784a11.917 11.917 0 008.288 3.323c3.109 0 6.043-1.175 8.288-3.326 4.76-3.843 70.749-57.683 70.749-92.781.004-24.359-17.676-42.043-42.035-42.043z"/></g><path d="M343.254 316.86c-59.281 60.325-154.662 59.853-213.449-.898-8.4-8.681-21.616 4.561-13.227 13.227 65.769 67.969 173.644 68.332 239.903.898 8.46-8.606-4.763-21.841-13.227-13.227z" fill="#333"/></symbol><symbol viewBox="0 0 473.931 473.931" id="kissing" xmlns="http://www.w3.org/2000/svg"><circle cx="236.966" cy="236.966" r="236.966" fill="#ffc10e"/><path d="M131.841 281.987h209.535S310.57 400.088 235.843 400.088 131.841 281.987 131.841 281.987z" fill="#d22327"/><path d="M259.203 298.675c0 9.081-13.351 16.434-22.596 16.434-9.242 0-22.596-7.353-22.596-16.434 0-9.078 13.354-16.438 22.596-16.438 9.242.004 22.596 7.36 22.596 16.438z" fill="#9b1c1f"/><g fill="#333"><path d="M374.187 172.974c-16.801-35.584-57.331-51.868-94.057-37.59-11.117 4.325-6.286 22.421 4.973 18.043 29.522-11.48 59.371.277 72.927 28.987 5.149 10.908 21.276 1.407 16.157-9.44zM122.243 182.328c13.556-28.711 43.404-40.471 72.927-28.987 11.259 4.378 16.09-13.717 4.973-18.043-36.725-14.282-77.252 2.006-94.057 37.59-5.118 10.844 11.009 20.344 16.157 9.44z"/></g><path d="M334.296 270.926c-26.922-14.174-53.724-74.233-97.398-30.772h-.378c-43.67-43.461-70.476 16.598-97.398 30.772-6.978 3.674-7.143 11.016-7.143 11.016s30.159 24.628 56.351 24.628 30.473-14.499 48.272-14.499h.21c17.803 0 22.084 14.499 48.276 14.499s56.351-24.628 56.351-24.628-.164-7.338-7.143-11.016z" fill="#e22928"/></symbol><symbol viewBox="0 0 473.935 473.935" id="mad" xmlns="http://www.w3.org/2000/svg"><circle cx="236.967" cy="236.967" r="236.967" fill="#ffc10e"/><g fill="#333"><path d="M357.318 354.8c-66.084-68.291-174.663-68.288-240.743.007-8.389 8.666 4.827 21.912 13.227 13.227 59.139-61.118 155.146-61.122 214.288-.007 8.401 8.681 21.621-4.561 13.228-13.227z"/><circle cx="164.938" cy="192.665" r="37.216"/><circle cx="305.667" cy="192.665" r="37.216"/><path d="M316.364 68.389c-28.677 28.673-57.35 57.35-86.024 86.024h13.227c-28.673-28.677-57.347-57.35-86.02-86.024-8.539-8.539-21.766 4.688-13.227 13.227 28.673 28.677 57.347 57.35 86.02 86.024 3.603 3.603 9.624 3.603 13.227 0 28.677-28.673 57.35-57.35 86.024-86.024 8.539-8.539-4.692-21.77-13.227-13.227z"/></g></symbol><symbol viewBox="0 0 473.931 473.931" id="nerd" xmlns="http://www.w3.org/2000/svg"><circle cx="236.966" cy="236.966" r="236.966" fill="#ffc10e"/><g fill="#333"><path d="M213.393 155.231c-2.66 62.491-94.225 62.491-96.885 0-1.16-27.229 22.922-47.356 48.433-48.441 27.236-1.16 47.366 22.922 48.452 48.441.513 12.019 19.221 12.067 18.709 0-1.605-37.698-29.463-65.548-67.157-67.15-37.65-1.601-65.642 31.869-67.142 67.15-1.601 37.642 31.861 65.649 67.142 67.15 37.653 1.601 65.657-31.865 67.157-67.15.512-12.068-18.197-12.019-18.709 0zM353.709 155.231c-2.66 62.491-94.225 62.491-96.885 0-1.16-27.229 22.922-47.356 48.433-48.441 27.236-1.16 47.366 22.922 48.452 48.441.513 12.019 19.221 12.067 18.709 0-1.605-37.698-29.463-65.548-67.157-67.15-37.65-1.601-65.642 31.869-67.142 67.15-1.601 37.642 31.861 65.649 67.142 67.15 37.653 1.601 65.657-31.865 67.157-67.15.512-12.068-18.197-12.019-18.709 0zM343.25 316.86c-59.281 60.336-154.658 59.849-213.449-.898-8.4-8.685-21.616 4.561-13.227 13.227 65.769 67.965 173.64 68.343 239.903.898 8.461-8.61-4.759-21.845-13.227-13.227z"/><path d="M104.668 146.209c-26.121 4.988-62.319 9.972-92.238 14.956a235.037 235.037 0 00-5.759 19.887c31.588-5.601 73.623-11.203 102.977-16.804 11.839-2.26 6.807-20.288-4.98-18.039zM365.742 146.209c-11.787-2.249-16.819 15.779-4.977 18.039 30.252 5.774 74.637 11.543 106.588 17.317a236.393 236.393 0 00-5.706-19.895c-30.641-5.152-68.893-10.308-95.905-15.461zM258.17 126.337c12.067 0 12.067-18.709 0-18.709h-46.772c-12.067 0-12.067 18.709 0 18.709h46.772z"/><circle cx="164.937" cy="155.231" r="25.99"/><circle cx="305.664" cy="155.231" r="24.119"/></g></symbol><symbol viewBox="0 0 473.931 473.931" id="ninja" xmlns="http://www.w3.org/2000/svg"><circle cx="236.966" cy="236.966" r="236.966" fill="#333"/><path d="M418.516 161.109S322.473 90.016 232.67 90.016 49.324 161.109 49.324 161.109s195.2 129.091 369.192 0z" fill="#ffc10e"/><g fill="#333"><circle cx="164.937" cy="155.227" r="37.216"/><circle cx="305.664" cy="155.227" r="37.216"/></g></symbol><symbol viewBox="0 0 473.931 473.931" id="quiet" xmlns="http://www.w3.org/2000/svg"><circle cx="236.966" cy="236.966" r="236.966" fill="#ffc10e"/><g fill="#333"><circle cx="164.937" cy="155.227" r="37.216"/><circle cx="305.664" cy="155.227" r="37.216"/></g><path d="M361.076 316.534c7.154 2.78 10.694 10.836 7.91 17.99l-10.073 25.904c-2.78 7.154-10.836 10.698-17.99 7.914L112.825 279.61c-7.154-2.78-10.698-10.836-7.914-17.994l10.077-25.9c2.78-7.154 10.836-10.694 17.99-7.914l228.098 88.732z" fill="#efefef"/><path d="M337.772 223.353c7.027-3.091 15.225.097 18.32 7.124l11.188 25.444c3.091 7.023-.094 15.225-7.121 18.316l-224.03 98.55c-7.027 3.091-15.229-.101-18.32-7.128l-11.192-25.44c-3.091-7.023.101-15.225 7.124-18.32l224.031-98.546z" fill="#fff"/></symbol><symbol viewBox="0 0 473.935 473.935" id="sad" xmlns="http://www.w3.org/2000/svg"><circle cx="236.967" cy="236.967" r="236.967" fill="#ffc10e"/><g fill="#333"><path d="M356.671 354.1c-66.226-67.618-174.255-67.337-240.096.703-8.389 8.666 4.827 21.912 13.227 13.227 58.87-60.83 154.386-61.204 213.641-.703 8.453 8.633 21.673-4.606 13.228-13.227z"/><circle cx="164.938" cy="155.232" r="37.216"/><circle cx="305.667" cy="155.232" r="37.216"/></g></symbol><symbol viewBox="0 0 473.935 473.935" id="secret" xmlns="http://www.w3.org/2000/svg"><circle cx="236.967" cy="236.967" r="236.967" fill="#ffc10e"/><g fill="#333"><circle cx="164.938" cy="155.232" r="37.216"/><circle cx="305.667" cy="155.232" r="37.216"/><path d="M105.279 326.583h259.164c12.067 0 12.067-18.709 0-18.709H105.279c-12.067 0-12.067 18.709 0 18.709z"/><path d="M112.935 300.533v16.838c0 6.032 9.354 6.032 9.354 0v-16.838c0-6.036-9.354-6.036-9.354 0zM170.932 300.533v16.838c0 6.032 9.354 6.032 9.354 0v-16.838c.001-6.036-9.354-6.036-9.354 0zM228.93 300.533v16.838c0 6.032 9.354 6.032 9.354 0v-16.838c.001-6.036-9.354-6.036-9.354 0zM286.928 300.533v16.838c0 6.032 9.354 6.032 9.354 0v-16.838c0-6.036-9.354-6.036-9.354 0zM141.619 316.436v16.838c0 6.032 9.354 6.032 9.354 0v-16.838c.001-6.036-9.354-6.036-9.354 0zM199.617 316.436v16.838c0 6.032 9.354 6.032 9.354 0v-16.838c0-6.036-9.354-6.036-9.354 0zM257.615 316.436v16.838c0 6.032 9.354 6.032 9.354 0v-16.838c0-6.036-9.354-6.036-9.354 0zM315.612 316.436v16.838c0 6.032 9.354 6.032 9.354 0v-16.838c.001-6.036-9.354-6.036-9.354 0zM390.384 335.519h-30.338c-4.977 0-30.151-14.937-30.151-19.091 0-4.153 24.894-19.091 30.151-19.091h30.338c10.541.004 10.541 38.182 0 38.182z"/></g></symbol><symbol viewBox="0 0 473.931 473.931" id="smart" xmlns="http://www.w3.org/2000/svg"><circle cx="236.966" cy="236.966" r="236.966" fill="#ffc10e"/><g fill="#333"><circle cx="164.937" cy="189.367" r="37.216"/><circle cx="305.664" cy="189.367" r="37.216"/><path d="M236.951 332.747c-41.358-.797-78.39-16.995-107.145-46.712-8.4-8.685-21.616 4.561-13.227 13.227 32.119 33.197 74.218 51.307 120.372 52.194 12.074.232 12.048-18.481 0-18.709zM143.171 115.77c24.83 7.929 46.301 21.395 64.325 40.201 8.359 8.726 21.575-4.524 13.227-13.227-20.224-21.104-44.759-36.127-72.575-45.017-11.529-3.678-16.423 14.387-4.977 18.043zM261.119 154.565c23.031-12.352 47.307-18.481 73.436-18.544 12.063-.03 12.067-18.739 0-18.709-29.358.071-57.021 7.233-82.876 21.104-10.635 5.698-1.191 21.851 9.44 16.149z"/></g></symbol><symbol viewBox="0 0 473.931 473.931" id="smile" xmlns="http://www.w3.org/2000/svg"><circle cx="236.966" cy="236.966" r="236.966" fill="#ffc10e"/><g fill="#333"><circle cx="164.937" cy="152.997" r="37.216"/><circle cx="305.664" cy="152.997" r="37.216"/><path d="M236.951 362.678c-41.358-.797-78.39-16.995-107.145-46.712-8.4-8.685-21.616 4.561-13.227 13.227 32.119 33.197 74.218 51.307 120.372 52.194 12.074.231 12.048-18.481 0-18.709zM120.301 105.944c19.966-16.759 42.907-27.566 68.388-32.845 11.809-2.447 6.795-20.482-4.977-18.043-28.722 5.953-54.218 18.836-76.639 37.661-9.252 7.764 4.057 20.931 13.228 13.227zM291.079 68.152c24.871 7.794 46.42 21.126 64.553 39.835 8.408 8.677 21.624-4.565 13.227-13.227-20.34-20.988-44.939-35.917-72.803-44.654-11.548-3.615-16.449 14.447-4.977 18.046z"/></g></symbol><symbol viewBox="0 0 473.935 473.935" id="smiling" xmlns="http://www.w3.org/2000/svg"><circle cx="236.967" cy="236.967" r="236.967" fill="#ffc10e"/><g fill="#333"><circle cx="164.938" cy="155.232" r="37.216"/><circle cx="305.667" cy="155.232" r="37.216"/><path d="M343.257 316.862c-59.281 60.329-154.663 59.854-213.45-.898-8.4-8.685-21.616 4.561-13.227 13.227 65.769 67.97 173.645 68.34 239.905.898 8.459-8.61-4.764-21.844-13.228-13.227z"/></g></symbol><symbol viewBox="0 0 473.931 473.931" id="surprised" xmlns="http://www.w3.org/2000/svg"><circle cx="236.966" cy="236.966" r="236.966" fill="#ffc10e"/><g fill="#333"><ellipse cx="164.937" cy="163.26" rx="37.216" ry="70.188"/><ellipse cx="305.664" cy="163.26" rx="37.216" ry="70.188"/><circle cx="236.966" cy="341.997" r="25.762"/></g></symbol><symbol viewBox="0 0 473.931 473.931" id="surprised-1" xmlns="http://www.w3.org/2000/svg"><circle cx="236.966" cy="236.966" r="236.966" fill="#ffc10e"/><g fill="#333"><ellipse cx="164.974" cy="128.155" rx="37.216" ry="35.094"/><ellipse cx="236.966" cy="323.737" rx="105.929" ry="105.031"/><circle cx="305.664" cy="128.155" r="62.162"/></g></symbol><symbol viewBox="0 0 473.935 473.935" id="suspicious" xmlns="http://www.w3.org/2000/svg"><circle cx="236.967" cy="236.967" r="236.967" fill="#ffc10e"/><g fill="#333"><circle cx="164.938" cy="207.632" r="37.216"/><ellipse cx="313.637" cy="188.324" rx="37.216" ry="56.501"/><path d="M195.348 102.72l-37.365 43.708h13.227L95.787 85.901c-9.31-7.472-22.642 5.676-13.227 13.227l75.423 60.527c3.719 2.986 9.658 4.176 13.227 0l37.365-43.708c7.794-9.115-5.373-22.414-13.227-13.227zM280.432 124.747c12.456-14.571 24.913-29.137 37.366-43.708h-13.227l75.423 60.527c9.31 7.472 22.642-5.676 13.227-13.227l-75.423-60.527c-3.719-2.986-9.658-4.176-13.227 0-12.456 14.571-24.913 29.137-37.366 43.708-7.794 9.115 5.377 22.414 13.227 13.227zM178.457 386.725h112.736c12.067 0 12.067-18.709 0-18.709H178.457c-12.063 0-12.063 18.709 0 18.709z"/></g></symbol><symbol viewBox="0 0 473.935 473.935" id="suspicious-1" xmlns="http://www.w3.org/2000/svg"><circle cx="236.967" cy="236.967" r="236.967" fill="#ffc10e"/><g fill="#333"><circle cx="164.938" cy="207.632" r="37.216"/><circle cx="313.637" cy="207.632" r="37.216"/><path d="M280.432 101.047c12.456-14.571 24.913-29.137 37.366-43.708h-13.227l75.423 60.527c9.31 7.472 22.642-5.676 13.227-13.227l-75.423-60.527c-3.719-2.986-9.658-4.176-13.227 0-12.456 14.571-24.913 29.137-37.366 43.708-7.794 9.115 5.377 22.413 13.227 13.227zM208.635 87.82L171.27 44.112c-3.57-4.176-9.508-2.986-13.227 0-25.145 20.176-50.282 40.351-75.423 60.527-9.414 7.551 3.918 20.7 13.227 13.227l75.423-60.527h-13.227l37.365 43.708c7.85 9.186 21.021-4.112 13.227-13.227zM178.592 369.397c35.831 11.326 71.659 22.66 107.49 33.99 11.54 3.648 16.438-14.421 4.977-18.043-35.831-11.326-71.659-22.66-107.49-33.99-11.54-3.648-16.435 14.417-4.977 18.043z"/></g></symbol><symbol viewBox="0 0 473.935 473.935" id="tongue-out" xmlns="http://www.w3.org/2000/svg"><circle cx="236.967" cy="236.967" r="236.967" fill="#ffc10e"/><g fill="#333"><circle cx="164.938" cy="155.232" r="37.216"/><circle cx="305.667" cy="155.232" r="37.216"/></g><path d="M220.635 317.36c0 35.431 28.726 64.157 64.157 64.157 35.435 0 64.16-28.729 64.16-64.157H220.635z" fill="#ca2027"/><path d="M105.283 326.583h259.164c12.064 0 12.064-18.709 0-18.709H105.283c-12.064 0-12.064 18.709 0 18.709z" fill="#333"/></symbol><symbol viewBox="0 0 473.931 473.931" id="tongue-out-1" xmlns="http://www.w3.org/2000/svg"><circle cx="236.966" cy="236.966" r="236.966" fill="#ffc10e"/><path d="M262.327 342.379c24.074 44.916 62.944 70.959 86.828 58.162 23.884-12.808 23.73-59.603-.341-104.522l-86.487 46.36z" fill="#ca2027"/><g fill="#333"><circle cx="164.937" cy="155.227" r="37.216"/><circle cx="305.664" cy="155.227" r="37.216"/><path d="M343.25 285.055c-59.281 60.328-154.662 59.846-213.449-.898-8.4-8.681-21.616 4.561-13.227 13.227 65.769 67.965 173.64 68.336 239.903.898 8.461-8.606-4.759-21.841-13.227-13.227z"/></g></symbol><symbol viewBox="0 0 473.935 473.935" id="unhappy" xmlns="http://www.w3.org/2000/svg"><circle cx="236.967" cy="236.967" r="236.967" fill="#ffc10e"/><g fill="#333"><path d="M356.671 354.1c-66.23-67.618-174.251-67.337-240.096.703-8.389 8.666 4.827 21.908 13.227 13.227 58.87-60.834 154.379-61.204 213.641-.703 8.453 8.633 21.673-4.606 13.228-13.227z"/><circle cx="164.938" cy="155.232" r="37.216"/><circle cx="305.667" cy="155.232" r="37.216"/></g><path d="M343.167 188.612s-27.517 33.874-27.517 68.819c0 15.203 12.31 27.521 27.513 27.525 15.218-.007 27.532-12.325 27.532-27.528 0-16.921-27.528-68.816-27.528-68.816z" fill="#a2d4de"/></symbol><symbol viewBox="0 0 473.931 473.931" id="wink" xmlns="http://www.w3.org/2000/svg"><circle cx="236.966" cy="236.966" r="236.966" fill="#ffc10e"/><g fill="#333"><path d="M72.036 237.123c1.04 62.895 35.64 119.175 91.782 147.826 61.17 31.218 135.455 17.766 185.685-27.304 8.999-8.071-4.277-21.261-13.227-13.227-46.2 41.455-112.081 50.372-167.399 22.14-48.385-24.692-77.249-75.92-78.132-129.435-.198-12.049-18.907-12.071-18.709 0z"/><ellipse cx="164.937" cy="155.231" rx="37.216" ry="18.709"/><circle cx="305.664" cy="155.231" r="37.216"/></g></symbol></svg>