<svg xmlns="http://www.w3.org/2000/svg" viewBox="0 0 64 64" width="64px" height="64px"><radialGradient id="x785EUDIrX9k0LdX7VJaEa" cx="-1118" cy="2321.5" r="30.775" gradientTransform="matrix(-1 0 0 1 -1086 -2289)" gradientUnits="userSpaceOnUse" spreadMethod="reflect"><stop offset="0" stop-color="#f4e9c3"/><stop offset=".219" stop-color="#f8eecd"/><stop offset=".644" stop-color="#fdf4dc"/><stop offset="1" stop-color="#fff6e1"/></radialGradient><path fill="url(#x785EUDIrX9k0LdX7VJaEa)" d="M0,40L0,40c0,2.8,2.2,5,5,5h7c2.8,0,5,2.2,5,5l0,0c0,2.8-2.2,5-5,5h-1.6C8.5,55,7,56.5,7,58.4l0,0 c0,2,1.6,3.6,3.6,3.6h41.9c1.9,0,3.5-1.6,3.5-3.5v0c0-1.9-1.6-3.5-3.5-3.5H50c-2.2,0-4-1.8-4-4l0,0c0-2.2,1.8-4,4-4h9 c2.8,0,5-2.2,5-5l0,0c0-2.8-2.2-5-5-5h-1c-1.7,0-3-1.3-3-3l0,0c0-1.7,1.3-3,3-3h0.5c3,0,5.5-2.5,5.5-5.5l0,0c0-3-2.5-5.5-5.5-5.5 H53c-2.2,0-4-1.8-4-4l0,0c0-2.2,1.8-4,4-4h0.5C56,12,58,10,58,7.5l0,0C58,5,56,3,53.5,3H31H12C9.8,3,8,4.8,8,7l0,0c0,2.2,1.8,4,4,4 h0.5c1.9,0,3.5,1.6,3.5,3.5l0,0c0,1.9-1.6,3.5-3.5,3.5H5c-2.2,0-4,1.8-4,4l0,0c0,2.2,1.8,4,4,4c0.2,0,0.3,0,0.5,0 C8,26,10,28,10,30.5l0,0C10,33,8,35,5.5,35H5C2.2,35,0,37.2,0,40z"/><g><linearGradient id="x785EUDIrX9k0LdX7VJaEb" x1="32.5" x2="32.5" y1="49.917" y2="9.712" gradientUnits="userSpaceOnUse" spreadMethod="reflect"><stop offset="0" stop-color="#155cde"/><stop offset=".278" stop-color="#1f7fe5"/><stop offset=".569" stop-color="#279ceb"/><stop offset=".82" stop-color="#2cafef"/><stop offset="1" stop-color="#2eb5f0"/></linearGradient><path fill="url(#x785EUDIrX9k0LdX7VJaEb)" d="M23.3,49c-3.3,0-4.9-3.1-6.3-5.6c-0.4-0.7-0.9-1.6-1.3-2.2c-1.4,0.9-4.2,3.7-6.3,6.6c-1,1.3-2.9,1.6-4.2,0.6 c-1.3-1-1.6-2.9-0.6-4.2C7.8,40,12.3,35,16,35c3.3,0,4.9,3.1,6.3,5.6c0.3,0.6,0.8,1.5,1.3,2.1c0.7-0.6,1.8-1.9,2.5-2.7 c2.3-2.6,4.4-5,7.2-5c3.3,0,4.9,3.1,6.3,5.6c0.3,0.6,0.8,1.5,1.3,2.1c0.7-0.6,1.8-1.9,2.5-2.7c2.3-2.6,4.4-5,7.2-5 c4.1,0,8,6,10,9.6c0.8,1.5,0.3,3.3-1.2,4.1s-3.3,0.3-4.1-1.2c-1.5-2.7-3.6-5.5-4.7-6.3c-0.7,0.5-2,1.9-2.8,2.8 c-2.3,2.6-4.4,5-7.2,5c-3.3,0-4.9-3.1-6.3-5.6c-0.3-0.6-0.8-1.5-1.3-2.1c-0.7,0.6-1.8,1.9-2.5,2.7C28.3,46.6,26.2,49,23.3,49 C23.3,49,23.3,49,23.3,49z M23,43L23,43L23,43z M50.3,41L50.3,41L50.3,41z M23.3,29c-3.3,0-4.9-3.1-6.3-5.6 c-0.4-0.7-0.9-1.6-1.3-2.2c-1.4,0.9-4.2,3.7-6.3,6.6c-1,1.3-2.9,1.6-4.2,0.6c-1.3-1-1.6-2.9-0.6-4.2C7.8,20,12.3,15,16,15 c3.3,0,4.9,3.1,6.3,5.6c0.3,0.6,0.8,1.5,1.3,2.1c0.7-0.6,1.8-1.9,2.5-2.7c2.3-2.6,4.4-5,7.2-5c3.3,0,4.9,3.1,6.3,5.6 c0.3,0.6,0.8,1.5,1.3,2.1c0.7-0.6,1.8-1.9,2.5-2.7c2.3-2.6,4.4-5,7.2-5c4.1,0,8,6,10,9.6c0.8,1.5,0.3,3.3-1.2,4.1 c-1.5,0.8-3.3,0.3-4.1-1.2c-1.5-2.7-3.6-5.5-4.7-6.3c-0.7,0.5-2,1.9-2.8,2.8c-2.3,2.6-4.4,5-7.2,5c-3.3,0-4.9-3.1-6.3-5.6 c-0.3-0.6-0.8-1.5-1.3-2.1c-0.7,0.6-1.8,1.9-2.5,2.7C28.3,26.6,26.2,29,23.3,29C23.3,29,23.3,29,23.3,29z M50.3,21L50.3,21L50.3,21 z"/></g></svg>