<svg xmlns="http://www.w3.org/2000/svg" viewBox="0 0 64 64" width="64px" height="64px"><radialGradient id="vsItdjozfYMq25ZLIlNy8a" cx="32" cy="31.5" r="30.775" gradientUnits="userSpaceOnUse"><stop offset="0" stop-color="#afeeff"/><stop offset=".193" stop-color="#bbf1ff"/><stop offset=".703" stop-color="#d7f8ff"/><stop offset="1" stop-color="#e1faff"/></radialGradient><path fill="url(#vsItdjozfYMq25ZLIlNy8a)" d="M60.5,43h-0.87c-1.431,0-2.569-1.198-2.497-2.627l0,0C57.201,39.043,58.299,38,59.63,38	l-0.329,0c1.895,0,3.594-1.419,3.693-3.312C63.101,32.67,61.495,31,59.5,31h-6.889L53,23.352c0.752,0.387,1.6,0.61,2.5,0.61l2.741,0	c2.868,0,5.442-2.082,5.731-4.936c0.331-3.275-2.26-6.064-5.471-6.064h-5.879c-0.962-0.186-1.68-1.057-1.617-2.087	C51.069,9.798,52.049,9,53.128,9l3.256,0c1.67,0,3.195-1.122,3.538-2.757C60.392,3.998,58.668,2,56.5,2H34.006H32.5L8.614,2	C6.944,2,5.42,3.122,5.078,4.757C4.608,7.002,6.332,9,8.5,9l1.394,0c0.996,0,1.919,0.681,2.078,1.665C12.176,11.918,11.215,13,10,13	l-3.241,0c-2.868,0-5.442,2.082-5.731,4.936C0.698,21.211,3.289,24,6.5,24h23c0.169,0,0.335-0.01,0.5-0.026V32L3.616,32	c-1.67,0-3.195,1.122-3.538,2.757C-0.392,37.002,1.332,39,3.5,39h0.394c0.996,0,1.919,0.681,2.078,1.665C6.176,41.918,5.215,43,4,43	H3.5c-2.168,0-3.892,1.998-3.422,4.243C0.421,48.878,1.945,50,3.615,50H8.4c1.494,0,2.413,0.681,2.573,1.665	C11.176,52.918,10.215,54,9,54l-1.384,0c-1.67,0-3.195,1.122-3.538,2.757C3.608,59.002,5.332,61,7.5,61h23.494H32.5l23.886,0	c1.67,0,3.195-1.122,3.537-2.757C60.392,55.998,58.668,54,56.5,54h-0.394c-0.996,0-1.919-0.681-2.078-1.665	C53.824,51.082,54.785,50,56,50l4.384,0c1.67,0,3.195-1.122,3.538-2.757C64.392,44.998,62.668,43,60.5,43z"/><linearGradient id="vsItdjozfYMq25ZLIlNy8b" x1="12.271" x2="12.271" y1="20.04" y2="30.94" gradientTransform="matrix(1 0 0 -1 0 66)" gradientUnits="userSpaceOnUse"><stop offset="0" stop-color="#155cde"/><stop offset=".278" stop-color="#1f7fe5"/><stop offset=".569" stop-color="#279ceb"/><stop offset=".82" stop-color="#2cafef"/><stop offset="1" stop-color="#2eb5f0"/></linearGradient><path fill="url(#vsItdjozfYMq25ZLIlNy8b)" d="M9.56,35.06l4.595,3.333c0.691,0.501,0.988,1.385,0.739,2.202L13.26,45.96	C11.16,42.8,9.83,39.08,9.56,35.06z"/><linearGradient id="vsItdjozfYMq25ZLIlNy8c" x1="19.135" x2="19.135" y1="46.31" y2="53.54" gradientTransform="matrix(1 0 0 -1 0 66)" gradientUnits="userSpaceOnUse"><stop offset="0" stop-color="#155cde"/><stop offset=".278" stop-color="#1f7fe5"/><stop offset=".569" stop-color="#279ceb"/><stop offset=".82" stop-color="#2cafef"/><stop offset="1" stop-color="#2eb5f0"/></linearGradient><path fill="url(#vsItdjozfYMq25ZLIlNy8c)" d="M24.02,12.46l-1.901,5.848c-0.268,0.824-1.036,1.382-1.902,1.382H14.25	C16.75,16.46,20.13,13.93,24.02,12.46z"/><linearGradient id="vsItdjozfYMq25ZLIlNy8d" x1="32" x2="32" y1="10" y2="14.168" gradientTransform="matrix(1 0 0 -1 0 66)" gradientUnits="userSpaceOnUse"><stop offset="0" stop-color="#155cde"/><stop offset=".278" stop-color="#1f7fe5"/><stop offset=".569" stop-color="#279ceb"/><stop offset=".82" stop-color="#2cafef"/><stop offset="1" stop-color="#2eb5f0"/></linearGradient><path fill="url(#vsItdjozfYMq25ZLIlNy8d)" d="M33.193,52.226l4.197,3.114C35.66,55.78,33.86,56,32,56s-3.66-0.22-5.39-0.65l4.198-3.123	C31.516,51.7,32.485,51.7,33.193,52.226z"/><linearGradient id="vsItdjozfYMq25ZLIlNy8e" x1="44.865" x2="44.865" y1="46.31" y2="53.54" gradientTransform="matrix(1 0 0 -1 0 66)" gradientUnits="userSpaceOnUse"><stop offset="0" stop-color="#155cde"/><stop offset=".278" stop-color="#1f7fe5"/><stop offset=".569" stop-color="#279ceb"/><stop offset=".82" stop-color="#2cafef"/><stop offset="1" stop-color="#2eb5f0"/></linearGradient><path fill="url(#vsItdjozfYMq25ZLIlNy8e)" d="M49.75,19.69h-5.967c-0.866,0-1.634-0.558-1.902-1.382L39.98,12.46	C43.87,13.93,47.25,16.46,49.75,19.69z"/><linearGradient id="vsItdjozfYMq25ZLIlNy8f" x1="51.73" x2="51.73" y1="20.04" y2="30.94" gradientTransform="matrix(1 0 0 -1 0 66)" gradientUnits="userSpaceOnUse"><stop offset="0" stop-color="#155cde"/><stop offset=".278" stop-color="#1f7fe5"/><stop offset=".569" stop-color="#279ceb"/><stop offset=".82" stop-color="#2cafef"/><stop offset="1" stop-color="#2eb5f0"/></linearGradient><path fill="url(#vsItdjozfYMq25ZLIlNy8f)" d="M54.44,35.06c-0.27,4.02-1.6,7.74-3.7,10.9l-1.634-5.366	c-0.249-0.816,0.048-1.701,0.739-2.202L54.44,35.06z"/><linearGradient id="vsItdjozfYMq25ZLIlNy8g" x1="32.001" x2="32.001" y1="8.489" y2="60.577" gradientTransform="matrix(1 0 0 -1 0 66)" gradientUnits="userSpaceOnUse"><stop offset="0" stop-color="#ff7966"/><stop offset=".007" stop-color="#ff7966"/><stop offset=".989" stop-color="#fb75a3"/><stop offset="1" stop-color="#fb75a3"/></linearGradient><path fill="url(#vsItdjozfYMq25ZLIlNy8g)" d="M56.31,30l-9.51,6.9c-0.35,0.25-0.62,0.56-0.81,0.92c-0.36,0.65-0.45,1.44-0.2,2.19	l3.66,12.03c0.54,1.65-0.08,3.17-1.2,4.08c-1.23,1-3.06,1.26-4.61,0.13l-10-7.43c-0.49-0.36-1.06-0.53-1.64-0.53	s-1.15,0.17-1.64,0.53l-10,7.43c-1.41,1.02-3.05,0.91-4.26,0.13c-1.33-0.86-2.14-2.52-1.55-4.34l3.66-12.03	c0.1-0.29,0.14-0.59,0.14-0.88c0-0.87-0.41-1.7-1.15-2.23L7.69,30c-1.64-1.19-2-3.07-1.44-4.63c0.53-1.49,1.91-2.68,3.83-2.68h11.76	c0.51,0,0.99-0.14,1.41-0.41c0.58-0.34,1.03-0.89,1.24-1.56l3.95-12.14C29,6.86,30.5,6,32,6s3,0.86,3.56,2.58l3.95,12.14	c0.05,0.15,0.11,0.29,0.18,0.43c0.47,0.92,1.42,1.54,2.47,1.54h11.76c1.81,0,3.14,1.05,3.73,2.42C58.35,26.71,58.04,28.75,56.31,30z"/><linearGradient id="vsItdjozfYMq25ZLIlNy8h" x1="35.845" x2="35.845" y1="59.638" y2="-15.508" gradientTransform="matrix(1 0 0 -1 0 66)" gradientUnits="userSpaceOnUse"><stop offset="0" stop-color="#ff5840"/><stop offset=".007" stop-color="#ff5840"/><stop offset=".989" stop-color="#fa528c"/><stop offset="1" stop-color="#fa528c"/></linearGradient><path fill="url(#vsItdjozfYMq25ZLIlNy8h)" d="M39.69,21.15L32,33V6c1.5,0,3,0.86,3.56,2.58l3.95,12.14C39.56,20.87,39.62,21.01,39.69,21.15	z"/><linearGradient id="vsItdjozfYMq25ZLIlNy8i" x1="19.125" x2="19.125" y1="72.149" y2="-28.918" gradientTransform="matrix(1 0 0 -1 0 66)" gradientUnits="userSpaceOnUse"><stop offset="0" stop-color="#ff5840"/><stop offset=".007" stop-color="#ff5840"/><stop offset=".989" stop-color="#fa528c"/><stop offset="1" stop-color="#fa528c"/></linearGradient><path fill="url(#vsItdjozfYMq25ZLIlNy8i)" d="M32,33L6.25,25.37c0.53-1.49,1.91-2.68,3.83-2.68h11.76c0.51,0,0.99-0.14,1.41-0.41L32,33z"/><linearGradient id="vsItdjozfYMq25ZLIlNy8j" x1="23.177" x2="23.177" y1="72.149" y2="-28.918" gradientTransform="matrix(1 0 0 -1 0 66)" gradientUnits="userSpaceOnUse"><stop offset="0" stop-color="#ff5840"/><stop offset=".007" stop-color="#ff5840"/><stop offset=".989" stop-color="#fa528c"/><stop offset="1" stop-color="#fa528c"/></linearGradient><path fill="url(#vsItdjozfYMq25ZLIlNy8j)" d="M32,33L16.1,56.38c-1.33-0.86-2.14-2.52-1.55-4.34l3.66-12.03c0.1-0.29,0.14-0.59,0.14-0.88	L32,33z"/><linearGradient id="vsItdjozfYMq25ZLIlNy8k" x1="40.135" x2="40.135" y1="72.149" y2="-28.918" gradientTransform="matrix(1 0 0 -1 0 66)" gradientUnits="userSpaceOnUse"><stop offset="0" stop-color="#ff5840"/><stop offset=".007" stop-color="#ff5840"/><stop offset=".989" stop-color="#fa528c"/><stop offset="1" stop-color="#fa528c"/></linearGradient><path fill="url(#vsItdjozfYMq25ZLIlNy8k)" d="M48.27,56.06l-0.02,0.06c-1.23,1-3.06,1.26-4.61,0.13l-10-7.43	c-0.49-0.36-1.06-0.53-1.64-0.53V33L48.27,56.06z"/><linearGradient id="vsItdjozfYMq25ZLIlNy8l" x1="44.999" x2="44.999" y1="72.149" y2="-28.918" gradientTransform="matrix(1 0 0 -1 0 66)" gradientUnits="userSpaceOnUse"><stop offset="0" stop-color="#ff5840"/><stop offset=".007" stop-color="#ff5840"/><stop offset=".989" stop-color="#fa528c"/><stop offset="1" stop-color="#fa528c"/></linearGradient><path fill="url(#vsItdjozfYMq25ZLIlNy8l)" d="M56.31,30l-9.51,6.9c-0.35,0.25-0.62,0.56-0.81,0.92L32,33l25.65-7.89	C58.35,26.71,58.04,28.75,56.31,30z"/></svg>