<svg xmlns="http://www.w3.org/2000/svg" viewBox="0 0 64 64" width="64px" height="64px"><radialGradient id="YC4OU1nBDcQ~JjEIVcsj4a" cx="34.833" cy="35.917" r="26" gradientUnits="userSpaceOnUse" spreadMethod="reflect"><stop offset="0" stop-color="#afeeff"/><stop offset=".193" stop-color="#bbf1ff"/><stop offset=".703" stop-color="#d7f8ff"/><stop offset="1" stop-color="#e1faff"/></radialGradient><path fill="url(#YC4OU1nBDcQ~JjEIVcsj4a)" d="M8,8L8,8c2.209,0,4-1.791,4-4v0c0-2.209-1.791-4-4-4h0C5.791,0,4,1.791,4,4v0 C4,6.209,5.791,8,8,8z"/><radialGradient id="YC4OU1nBDcQ~JjEIVcsj4b" cx="31.417" cy="29.917" r="28.77" gradientUnits="userSpaceOnUse" spreadMethod="reflect"><stop offset="0" stop-color="#afeeff"/><stop offset=".193" stop-color="#bbf1ff"/><stop offset=".703" stop-color="#d7f8ff"/><stop offset="1" stop-color="#e1faff"/></radialGradient><path fill="url(#YC4OU1nBDcQ~JjEIVcsj4b)" d="M7.5,64L7.5,64c1.933,0,3.5-1.567,3.5-3.5v0c0-1.933-1.567-3.5-3.5-3.5h0 C5.567,57,4,58.567,4,60.5v0C4,62.433,5.567,64,7.5,64z"/><radialGradient id="YC4OU1nBDcQ~JjEIVcsj4c" cx="32" cy="32" r="32" gradientUnits="userSpaceOnUse" spreadMethod="reflect"><stop offset="0" stop-color="#afeeff"/><stop offset=".193" stop-color="#bbf1ff"/><stop offset=".703" stop-color="#d7f8ff"/><stop offset="1" stop-color="#e1faff"/></radialGradient><path fill="url(#YC4OU1nBDcQ~JjEIVcsj4c)" d="M64,20.5L64,20.5c0-2.485-2.015-4.5-4.5-4.5H44c-2.209,0-4-1.791-4-4v0c0-2.209,1.791-4,4-4 h2c2.209,0,4-1.791,4-4v0c0-2.209-1.791-4-4-4L20,0c-2.209,0-4,1.791-4,4v0c0,2.209,1.791,4,4,4h1c1.657,0,3,1.343,3,3v0 c0,1.657-1.343,3-3,3h-9c-1.933,0-3.5,1.567-3.5,3.5v0c0,1.933,1.567,3.5,3.5,3.5h1c1.657,0,3,1.343,3,3v0c0,1.657-1.343,3-3,3H5 c-2.761,0-5,2.239-5,5v0c0,2.761,2.239,5,5,5h8.5c1.933,0,3.5,1.567,3.5,3.5v0c0,1.933-1.567,3.5-3.5,3.5H4c-2.209,0-4,1.791-4,4v0 c0,2.209,1.791,4,4,4h13.5c1.381,0,2.5,1.119,2.5,2.5v0c0,1.381-1.119,2.5-2.5,2.5h0c-1.933,0-3.5,1.567-3.5,3.5v0 c0,1.933,1.567,3.5,3.5,3.5h30c1.933,0,3.5-1.567,3.5-3.5v0c0-1.933-1.567-3.5-3.5-3.5H47c-1.105,0-2-0.895-2-2v0 c0-1.105,0.895-2,2-2h7c2.209,0,4-1.791,4-4v0c0-2.209-1.791-4-4-4h-5.5c-1.381,0-2.5-1.119-2.5-2.5v0c0-1.381,1.119-2.5,2.5-2.5 H50c2.209,0,4-1.791,4-4v0c0-2.209-1.791-4-4-4h-2.5c-1.933,0-3.5-1.567-3.5-3.5v0c0-1.933,1.567-3.5,3.5-3.5h12 C61.985,25,64,22.985,64,20.5z"/><radialGradient id="YC4OU1nBDcQ~JjEIVcsj4d" cx="36.917" cy="35.417" r="27.938" gradientUnits="userSpaceOnUse" spreadMethod="reflect"><stop offset="0" stop-color="#afeeff"/><stop offset=".193" stop-color="#bbf1ff"/><stop offset=".703" stop-color="#d7f8ff"/><stop offset="1" stop-color="#e1faff"/></radialGradient><path fill="url(#YC4OU1nBDcQ~JjEIVcsj4d)" d="M60,40L60,40c-2.209,0-4-1.791-4-4v0c0-2.209,1.791-4,4-4h0c2.209,0,4,1.791,4,4v0 C64,38.209,62.209,40,60,40z"/><path fill="#717171" d="M41.5,18.5c-0.828,0-1.5-0.671-1.5-1.5v-4.5c0-1.378-1.346-2.5-3-2.5H27c-1.654,0-3,1.122-3,2.5V17 c0,0.829-0.672,1.5-1.5,1.5S21,17.829,21,17v-4.5C21,9.467,23.691,7,27,7h10c3.309,0,6,2.467,6,5.5V17 C43,17.829,42.328,18.5,41.5,18.5z"/><linearGradient id="YC4OU1nBDcQ~JjEIVcsj4e" x1="32" x2="32" y1="55" y2="15" gradientUnits="userSpaceOnUse" spreadMethod="reflect"><stop offset="0" stop-color="#ff9757"/><stop offset="1" stop-color="#ffb65b"/><stop offset="1" stop-color="#ffb65b"/></linearGradient><path fill="url(#YC4OU1nBDcQ~JjEIVcsj4e)" d="M54,55H10c-3.314,0-6-2.686-6-6V21c0-3.314,2.686-6,6-6h44c3.314,0,6,2.686,6,6v28 C60,52.314,57.314,55,54,55z"/><linearGradient id="YC4OU1nBDcQ~JjEIVcsj4f" x1="32" x2="32" y1="45.64" y2="19.166" gradientUnits="userSpaceOnUse" spreadMethod="reflect"><stop offset="0" stop-color="#ffc96a"/><stop offset=".004" stop-color="#ffc96a"/><stop offset=".578" stop-color="#ffc887"/><stop offset="1" stop-color="#ffc797"/><stop offset="1" stop-color="#ffc797"/></linearGradient><path fill="url(#YC4OU1nBDcQ~JjEIVcsj4f)" d="M55,31H9c-2.761,0-5-2.239-5-5v-6c0-3.314,2.686-6,6-6h44c3.314,0,6,2.686,6,6v6 C60,28.761,57.761,31,55,31z"/><linearGradient id="YC4OU1nBDcQ~JjEIVcsj4g" x1="19" x2="19" y1="36" y2="26" gradientUnits="userSpaceOnUse" spreadMethod="reflect"><stop offset="0" stop-color="#ffe79f"/><stop offset=".119" stop-color="#ffe9a6"/><stop offset="1" stop-color="#fff5d5"/></linearGradient><path fill="url(#YC4OU1nBDcQ~JjEIVcsj4g)" d="M22,28v6c0,1.105-0.895,2-2,2h-2c-1.105,0-2-0.895-2-2v-6c0-1.105,0.895-2,2-2h2 C21.105,26,22,26.895,22,28z"/><linearGradient id="YC4OU1nBDcQ~JjEIVcsj4h" x1="45" x2="45" y1="36" y2="26" gradientUnits="userSpaceOnUse" spreadMethod="reflect"><stop offset="0" stop-color="#ffe79f"/><stop offset=".119" stop-color="#ffe9a6"/><stop offset="1" stop-color="#fff5d5"/></linearGradient><path fill="url(#YC4OU1nBDcQ~JjEIVcsj4h)" d="M48,28v6c0,1.105-0.895,2-2,2h-2c-1.105,0-2-0.895-2-2v-6c0-1.105,0.895-2,2-2h2 C47.105,26,48,26.895,48,28z"/><linearGradient id="YC4OU1nBDcQ~JjEIVcsj4i" x1="52" x2="52" y1="46.974" y2="21.245" gradientUnits="userSpaceOnUse" spreadMethod="reflect"><stop offset="0" stop-color="#ff8b67"/><stop offset=".847" stop-color="#ffa76a"/><stop offset="1" stop-color="#ffad6b"/><stop offset="1" stop-color="#ffad6b"/></linearGradient><path fill="url(#YC4OU1nBDcQ~JjEIVcsj4i)" d="M60,49V38h-6.868c-1.451,0-2.789,0.972-3.071,2.395C49.681,42.307,51.152,44,53,44h0.357 c1.308,0,2.499,0.941,2.63,2.242C56.137,47.739,54.966,49,53.5,49h-6.369c-1.451,0-2.789,0.972-3.071,2.395 C43.681,53.307,45.152,55,47,55h7C57.314,55,60,52.314,60,49z"/></svg>