<svg xmlns="http://www.w3.org/2000/svg" viewBox="0 0 64 64" width="64px" height="64px"><radialGradient id="rUYNYOOdcCKnGoy3F81kma" cx="30.425" cy="31.468" r="65.348" gradientTransform="matrix(1 0 0 -1 0 66)" gradientUnits="userSpaceOnUse"><stop offset="0" stop-color="#c5f1ff"/><stop offset=".35" stop-color="#cdf3ff"/><stop offset=".907" stop-color="#e4faff"/><stop offset="1" stop-color="#e9fbff"/></radialGradient><path fill="url(#rUYNYOOdcCKnGoy3F81kma)" d="M37,20h21.5c2.168,0,3.892-1.998,3.422-4.243C61.58,14.122,60.056,13,58.385,13H52	c-1.105,0-2-0.895-2-2s0.895-2,2-2h1.385c1.67,0,3.195-1.122,3.537-2.757C57.392,3.998,55.668,2,53.5,2h-42C9.575,2,8,3.575,8,5.5	S9.575,9,11.5,9H13c1.105,0,2,0.895,2,2s-0.895,2-2,2H7.615c-1.67,0-3.195,1.122-3.537,2.757C3.608,18.002,5.332,20,7.5,20H18v12	H5.615c-1.67,0-3.195,1.122-3.537,2.757C1.608,37.002,3.332,39,5.5,39H18c1.105,0,2,0.895,2,2s-0.895,2-2,2H3.5	c-2.168,0-3.892,1.998-3.422,4.243C0.42,48.878,1.944,50,3.615,50H8c1.105,0,2,0.895,2,2s-0.895,2-2,2H6.615	c-1.67,0-3.195,1.122-3.537,2.757C2.608,59.002,4.332,61,6.5,61h51c1.925,0,3.5-1.575,3.5-3.5S59.425,54,57.5,54H57	c-1.105,0-2-0.895-2-2s0.895-2,2-2h2.385c1.67,0,3.195-1.122,3.537-2.757C63.392,44.998,61.668,43,59.5,43H40V31h17.385	c1.67,0,3.195-1.122,3.537-2.757C61.392,25.998,59.668,24,57.5,24H37c-1.105,0-2-0.895-2-2S35.895,20,37,20z"/><linearGradient id="rUYNYOOdcCKnGoy3F81kmb" x1="32" x2="32" y1="14.982" y2="45.465" gradientTransform="matrix(1 0 0 -1 0 66)" gradientUnits="userSpaceOnUse"><stop offset="0" stop-color="#feaa53"/><stop offset=".612" stop-color="#ffcd49"/><stop offset="1" stop-color="#ffde44"/></linearGradient><path fill="url(#rUYNYOOdcCKnGoy3F81kmb)" d="M50.132,42.685c-3.798-1.123-11.981-3.31-18.132-3.31s-14.334,2.187-18.132,3.31	c-1.244,0.368-3.214,1.929-2.868,3.025c1,3.167,2.765,5.848,4.686,7.596c0.793,0.722,2.054,0.882,3.105,0.472	c2.375-0.926,7.327-2.525,13.209-2.525s10.834,1.599,13.209,2.525c1.051,0.41,2.312,0.25,3.105-0.472	C50.235,51.559,52,48.878,53,45.711C53.346,44.614,51.376,43.053,50.132,42.685z"/><linearGradient id="rUYNYOOdcCKnGoy3F81kmc" x1="32" x2="32" y1="53.997" y2="17.056" gradientTransform="matrix(1 0 0 -1 0 66)" gradientUnits="userSpaceOnUse"><stop offset="0" stop-color="#42d778"/><stop offset=".428" stop-color="#3dca76"/><stop offset="1" stop-color="#34b171"/></linearGradient><path fill="url(#rUYNYOOdcCKnGoy3F81kmc)" d="M54,34v8.53H10V34c0-1.02,0.07-2.02,0.22-3c0.73-5.19,3.37-9.76,7.18-13	c2.45-2.08,5.38-3.61,8.61-4.4c1.23-0.3,2.5-0.49,3.81-0.56C30.21,13.01,30.6,13,31,13h2c0.4,0,0.79,0.01,1.18,0.04	c1.31,0.07,2.58,0.26,3.81,0.56C47.18,15.84,54,24.12,54,34z"/><linearGradient id="rUYNYOOdcCKnGoy3F81kmd" x1="32" x2="32" y1="60.872" y2="24.026" gradientTransform="matrix(1 0 0 -1 0 66)" gradientUnits="userSpaceOnUse"><stop offset="0" stop-color="#42cb78"/><stop offset="1" stop-color="#35a571"/></linearGradient><path fill="url(#rUYNYOOdcCKnGoy3F81kmd)" d="M45,42H19c0-15.07,6.52-25.73,10.82-28.96C30.72,12.35,31.48,12,32,12s1.28,0.35,2.18,1.04	C38.48,16.27,45,26.93,45,42z"/><linearGradient id="rUYNYOOdcCKnGoy3F81kme" x1="32" x2="32" y1="50.191" y2="58.228" gradientTransform="matrix(1 0 0 -1 0 66)" gradientUnits="userSpaceOnUse"><stop offset="0" stop-color="#feaa53"/><stop offset=".612" stop-color="#ffcd49"/><stop offset="1" stop-color="#ffde44"/></linearGradient><ellipse cx="32" cy="11.5" fill="url(#rUYNYOOdcCKnGoy3F81kme)" rx="6" ry="4.5"/><linearGradient id="rUYNYOOdcCKnGoy3F81kmf" x1="32" x2="32" y1="-.215" y2="28.616" gradientTransform="matrix(1 0 0 -1 0 66)" gradientUnits="userSpaceOnUse"><stop offset="0" stop-color="#feaa53"/><stop offset=".612" stop-color="#ffcd49"/><stop offset="1" stop-color="#ffde44"/></linearGradient><path fill="url(#rUYNYOOdcCKnGoy3F81kmf)" d="M51.945,40.31C47.767,39.187,38.766,37,32,37s-15.767,2.187-19.945,3.31	c-1.368,0.368-2.232,1.438-2.024,2.559c0.653,3.525,1.911,6.315,4.024,8.062c0.873,0.722,2.259,0.882,3.416,0.472	c2.612-0.926,8.06-2.525,14.529-2.525s11.917,1.599,14.529,2.525c1.157,0.41,2.543,0.25,3.416-0.472	c2.114-1.748,3.371-4.537,4.024-8.062C54.177,41.748,53.313,40.678,51.945,40.31z"/><linearGradient id="rUYNYOOdcCKnGoy3F81kmg" x1="30.874" x2="32.271" y1="21.724" y2="41.285" gradientTransform="matrix(1 0 0 -1 0 66)" gradientUnits="userSpaceOnUse"><stop offset="0" stop-color="#feaa53"/><stop offset=".612" stop-color="#ffcd49"/><stop offset="1" stop-color="#ffde44"/></linearGradient><path fill="url(#rUYNYOOdcCKnGoy3F81kmg)" d="M35.51,28.63c-1.38,0-1.41,1.59-2.99,1.59c-1.04,0-1.88-0.88-1.88-3.22	c0-2.26,0.8-3.22,1.88-3.22c1.57,0,1.53,1.4,2.9,1.4c0.88,0,1.4-0.54,1.4-1.5c0-1.96-2.3-2.68-4.16-2.68c-3.7,0-5.66,2.68-5.66,6.02	c0,3.64,1.76,5.98,5.5,5.98c2.03,0,4.5-0.78,4.5-2.78C37,29.22,36.43,28.63,35.51,28.63z"/></svg>