<svg xmlns="http://www.w3.org/2000/svg" viewBox="0 0 64 64" width="64px" height="64px"><radialGradient id="LF5RTgWsqnRr17xSmRI~Za" cx="29.599" cy="27.127" r="25.991" gradientUnits="userSpaceOnUse" spreadMethod="reflect"><stop offset="0" stop-color="#afeeff"/><stop offset=".193" stop-color="#bbf1ff"/><stop offset=".703" stop-color="#d7f8ff"/><stop offset="1" stop-color="#e1faff"/></radialGradient><path fill="url(#LF5RTgWsqnRr17xSmRI~Za)" d="M40,18h-6.501C32.671,18,32,17.328,32,16.5c0-0.828,0.672-1.5,1.5-1.5H34c1.657,0,3-1.343,3-3 c0-1.657-1.343-3-3-3H9c-1.657,0-3,1.343-3,3c0,1.657,1.343,3,3,3h7.5c0.828,0,1.5,0.672,1.5,1.5c0,0.828-0.671,1.5-1.499,1.5H16 c-2.2,0-4,1.8-4,4s1.8,4,4,4h24c2.2,0,4-1.8,4-4S42.2,18,40,18z"/><linearGradient id="LF5RTgWsqnRr17xSmRI~Zb" x1="32.5" x2="32.5" y1="63.389" y2="20.064" gradientUnits="userSpaceOnUse" spreadMethod="reflect"><stop offset="0" stop-color="#ff634d"/><stop offset=".207" stop-color="#fe6464"/><stop offset=".527" stop-color="#fc6581"/><stop offset=".802" stop-color="#fa6694"/><stop offset="1" stop-color="#fa669a"/></linearGradient><path fill="url(#LF5RTgWsqnRr17xSmRI~Zb)" d="M6.604,34.852L6.604,34.852c0.924-1.387,1.619-2.913,2.058-4.521l0.006-0.022 c1.386-5.082,5.925-8.667,11.19-8.836l14.459-0.466c4.683-0.151,9.025,2.437,11.12,6.627l1.833,3.907 c0.455,0.91,1.341,1.528,2.352,1.64l4.801,0.533c1.668,0.185,3.223,0.933,4.409,2.119l0.003,0.003 C60.221,37.221,61,39.101,61,41.061V46c0,1.657-1.343,3-3,3H7c-1.657,0-3-1.343-3-3v-2.547C4,40.392,4.906,37.399,6.604,34.852z"/><linearGradient id="LF5RTgWsqnRr17xSmRI~Zc" x1="32.5" x2="32.5" y1="44.819" y2="66.669" gradientUnits="userSpaceOnUse" spreadMethod="reflect"><stop offset="0" stop-color="#f2dd94"/><stop offset="0" stop-color="#f2dd94"/><stop offset=".214" stop-color="#f6e6ab"/><stop offset=".505" stop-color="#fbefc2"/><stop offset=".774" stop-color="#fef4d1"/><stop offset="1" stop-color="#fff6d6"/></linearGradient><path fill="url(#LF5RTgWsqnRr17xSmRI~Zc)" d="M59,52L6.072,52c-0.911,0-1.762,0.577-1.999,1.456C3.715,54.786,4.723,56,6,56h15.5 c0.828,0,1.5,0.672,1.5,1.5v0c0,0.828-0.672,1.5-1.5,1.5h-5.116c-0.911,0-1.762,0.577-1.999,1.456 C14.028,61.786,15.036,63,16.312,63l34.616,0c0.911,0,1.762-0.577,1.999-1.456C53.285,60.214,52.277,59,51,59h-1.5 c-0.828,0-1.5-0.672-1.5-1.5v0c0-0.828,0.672-1.5,1.5-1.5l9.428,0c0.911,0,1.762-0.577,1.999-1.456C61.285,53.214,60.277,52,59,52z"/><linearGradient id="LF5RTgWsqnRr17xSmRI~Zd" x1="32.5" x2="32.5" y1="48.92" y2="39.92" gradientUnits="userSpaceOnUse" spreadMethod="reflect"><stop offset="0" stop-color="#ff5840"/><stop offset=".007" stop-color="#ff5840"/><stop offset=".989" stop-color="#fa528c"/><stop offset="1" stop-color="#fa528c"/></linearGradient><path fill="url(#LF5RTgWsqnRr17xSmRI~Zd)" d="M50,40c-3.917,0-7.24,2.507-8.477,6H23.477c-1.237-3.493-4.56-6-8.477-6 c-4.59,0-8.378,3.436-8.931,7.877C5.995,48.473,6.469,49,7.069,49H8.5H11h8h5h17h5h8h2h1.931c0.6,0,1.074-0.528,1-1.123 C58.378,43.436,54.59,40,50,40z"/><linearGradient id="LF5RTgWsqnRr17xSmRI~Ze" x1="-587.75" x2="-586.75" y1="-343.833" y2="-343.833" gradientTransform="matrix(0 -12 -12 0 -4076 -6994.664)" gradientUnits="userSpaceOnUse" spreadMethod="reflect"><stop offset="0" stop-color="#a4a4a4"/><stop offset=".619" stop-color="gray"/><stop offset="1" stop-color="#6f6f6f"/><stop offset="1" stop-color="#6f6f6f"/></linearGradient><path fill="url(#LF5RTgWsqnRr17xSmRI~Ze)" d="M50 43A6 6 0 1 0 50 55A6 6 0 1 0 50 43Z"/><linearGradient id="LF5RTgWsqnRr17xSmRI~Zf" x1="-587.75" x2="-586.75" y1="-343.167" y2="-343.167" gradientTransform="matrix(0 -12 -12 0 -4103 -6992.844)" gradientUnits="userSpaceOnUse" spreadMethod="reflect"><stop offset="0" stop-color="#a4a4a4"/><stop offset=".619" stop-color="gray"/><stop offset="1" stop-color="#6f6f6f"/><stop offset="1" stop-color="#6f6f6f"/></linearGradient><path fill="url(#LF5RTgWsqnRr17xSmRI~Zf)" d="M15 43A6 6 0 1 0 15 55A6 6 0 1 0 15 43Z"/><linearGradient id="LF5RTgWsqnRr17xSmRI~Zg" x1="55.237" x2="55.237" y1="39.83" y2="34.716" gradientUnits="userSpaceOnUse" spreadMethod="reflect"><stop offset="0" stop-color="#ffef9c"/><stop offset=".018" stop-color="#ffef9c"/><stop offset=".117" stop-color="#fff09f"/><stop offset="1" stop-color="#fff8b3"/></linearGradient><path fill="url(#LF5RTgWsqnRr17xSmRI~Zg)" d="M55.5,40c0.807,0,1.517-0.389,1.974-0.982c-0.203-0.383-0.445-0.746-0.76-1.061 c-0.705-0.705-1.635-1.152-2.622-1.261l-0.917-0.102C53.066,36.875,53,37.179,53,37.5C53,38.881,54.119,40,55.5,40z"/><linearGradient id="LF5RTgWsqnRr17xSmRI~Zh" x1="31.444" x2="31.444" y1="42.139" y2="27.544" gradientUnits="userSpaceOnUse" spreadMethod="reflect"><stop offset="0" stop-color="#ff735d"/><stop offset=".139" stop-color="#fe746b"/><stop offset=".492" stop-color="#fc758a"/><stop offset=".791" stop-color="#fa769d"/><stop offset="1" stop-color="#fa76a4"/></linearGradient><path fill="url(#LF5RTgWsqnRr17xSmRI~Zh)" d="M55.764,34c-0.436-0.133-0.882-0.235-1.341-0.286l-4.802-0.534 c-1.011-0.112-1.897-0.73-2.352-1.64l-1.833-3.907c-2.095-4.19-6.437-6.778-11.12-6.627l-14.459,0.466 c-5.265,0.17-9.804,3.754-11.19,8.836l-0.006,0.022C8.311,31.617,7.789,32.848,7.124,34H55.764z"/><linearGradient id="LF5RTgWsqnRr17xSmRI~Zi" x1="37.16" x2="37.16" y1="24" y2="34" gradientUnits="userSpaceOnUse" spreadMethod="reflect"><stop offset="0" stop-color="#edfbff"/><stop offset="0" stop-color="#edfbff"/><stop offset=".256" stop-color="#e6f9ff"/><stop offset=".633" stop-color="#d2f5ff"/><stop offset="1" stop-color="#b8efff"/></linearGradient><path fill="url(#LF5RTgWsqnRr17xSmRI~Zi)" d="M29,32c0,1.105,0.895,2,2,2h14.32c-0.28-0.342-0.53-0.713-0.733-1.118l-0.017-0.034 l-0.016-0.034l-1.816-3.87C41.199,25.894,38.124,24,34.707,24c-0.097,0-0.195,0.002-0.292,0.005L29,24.179V32z"/><linearGradient id="LF5RTgWsqnRr17xSmRI~Zj" x1="17.752" x2="17.752" y1="24.308" y2="34" gradientUnits="userSpaceOnUse" spreadMethod="reflect"><stop offset="0" stop-color="#edfbff"/><stop offset="0" stop-color="#edfbff"/><stop offset=".256" stop-color="#e6f9ff"/><stop offset=".633" stop-color="#d2f5ff"/><stop offset="1" stop-color="#b8efff"/></linearGradient><path fill="url(#LF5RTgWsqnRr17xSmRI~Zj)" d="M25,24.308l-5.265,0.17c-3.908,0.126-7.145,2.869-8.178,6.64 c-0.273,0.996-0.627,1.957-1.053,2.881H23c1.105,0,2-0.895,2-2V24.308z"/></svg>