<svg xmlns="http://www.w3.org/2000/svg" viewBox="0 0 64 64" width="64px" height="64px"><radialGradient id="N2pUS61A1jpR_LBa6C5iia" cx="32" cy="35.5" r="31.259" gradientTransform="matrix(1 0 0 -1 0 66)" gradientUnits="userSpaceOnUse"><stop offset="0" stop-color="#c5f1ff"/><stop offset=".35" stop-color="#cdf3ff"/><stop offset=".907" stop-color="#e4faff"/><stop offset="1" stop-color="#e9fbff"/></radialGradient><path fill="url(#N2pUS61A1jpR_LBa6C5iia)" d="M50,51c0,0.55,0.22,1.05,0.59,1.41C50.95,52.78,51.45,53,52,53h8c2.33,0,4.22,2.03,3.98,4.41	C63.77,59.49,61.9,61,59.81,61H4c-2.34,0-4.22-2.03-3.98-4.41C0.23,54.51,2.1,53,4.19,53H9c0.55,0,1.05-0.22,1.41-0.59	C10.78,52.05,11,51.55,11,51c0-1.1-0.9-2-2-2H3c-1.65,0-3-1.35-3-3s1.35-3,3-3h19V33H4c-2.34,0-4.22-2.03-3.98-4.41	C0.23,26.51,2.1,25,4.19,25H8.5c1.93,0,3.5-1.57,3.5-3.5S10.43,18,8.5,18H5c-2.34,0-4.22-2.03-3.98-4.41C1.23,11.51,3.1,10,5.19,10	H19c1.1,0,2-1.9,2-3c0-1.11-0.9-2-2-2h-3.5c-1.47,0-2.64-1.26-2.49-2.76C13.14,0.94,14.34,0,15.64,0H48.5	c1.47,0,2.64,1.26,2.49,2.76C50.86,4.06,49.66,5,48.36,5H42.5C41.67,5,41,5.67,41,6.5S41.67,8,42.5,8h13c1.47,0,2.64,1.26,2.49,2.76	c-0.13,1.3-1.33,2.24-2.63,2.24H55c-1.1,0-2,2.9-2,4s0.9,1,2,1h4.81c2.09,0,3.96,1.51,4.17,3.59C64.22,23.97,62.33,26,60,26H42v5h19	c1.65,0,3,1.35,3,3s-1.35,3-3,3H50c-1.38,0-2.5,1.12-2.5,2.5S48.62,42,50,42h10.5c1.92,0,3.5,1.58,3.5,3.5S62.42,49,60.5,49H52	C50.9,49,50,49.9,50,51z"/><linearGradient id="N2pUS61A1jpR_LBa6C5iib" x1="17.5" x2="17.5" y1="9" y2="58.432" gradientTransform="matrix(1 0 0 -1 0 66)" gradientUnits="userSpaceOnUse"><stop offset="0" stop-color="#3280e5"/><stop offset=".076" stop-color="#3487e6"/><stop offset=".449" stop-color="#3ca4ed"/><stop offset=".77" stop-color="#41b7f1"/><stop offset="1" stop-color="#43bdf2"/></linearGradient><rect width="23" height="36" x="6" y="20" fill="url(#N2pUS61A1jpR_LBa6C5iib)"/><linearGradient id="N2pUS61A1jpR_LBa6C5iic" x1="12" x2="12" y1="41" y2="37" gradientTransform="matrix(1 0 0 -1 0 66)" gradientUnits="userSpaceOnUse"><stop offset="0" stop-color="#e3ecef"/><stop offset=".989" stop-color="#e6f0f3"/></linearGradient><path fill="url(#N2pUS61A1jpR_LBa6C5iic)" d="M14,29h-4c-0.552,0-1-0.448-1-1v-2c0-0.552,0.448-1,1-1h4c0.552,0,1,0.448,1,1v2	C15,28.552,14.552,29,14,29z"/><linearGradient id="N2pUS61A1jpR_LBa6C5iid" x1="17.5" x2="17.5" y1="10.66" y2="64.72" gradientTransform="matrix(1 0 0 -1 0 66)" gradientUnits="userSpaceOnUse"><stop offset="0" stop-color="#ff9757"/><stop offset="1" stop-color="#ffb65b"/></linearGradient><path fill="url(#N2pUS61A1jpR_LBa6C5iid)" d="M29,22H6c-1.105,0-2-0.895-2-2l0,0c0-1.105,0.895-2,2-2h23c1.105,0,2,0.895,2,2l0,0	C31,21.105,30.105,22,29,22z"/><linearGradient id="N2pUS61A1jpR_LBa6C5iie" x1="12" x2="12" y1="33" y2="29" gradientTransform="matrix(1 0 0 -1 0 66)" gradientUnits="userSpaceOnUse"><stop offset="0" stop-color="#e3ecef"/><stop offset=".989" stop-color="#e6f0f3"/></linearGradient><path fill="url(#N2pUS61A1jpR_LBa6C5iie)" d="M14,37h-4c-0.552,0-1-0.448-1-1v-2c0-0.552,0.448-1,1-1h4c0.552,0,1,0.448,1,1v2	C15,36.552,14.552,37,14,37z"/><linearGradient id="N2pUS61A1jpR_LBa6C5iif" x1="12" x2="12" y1="25" y2="21" gradientTransform="matrix(1 0 0 -1 0 66)" gradientUnits="userSpaceOnUse"><stop offset="0" stop-color="#e3ecef"/><stop offset=".989" stop-color="#e6f0f3"/></linearGradient><path fill="url(#N2pUS61A1jpR_LBa6C5iif)" d="M14,45h-4c-0.552,0-1-0.448-1-1v-2c0-0.552,0.448-1,1-1h4c0.552,0,1,0.448,1,1v2	C15,44.552,14.552,45,14,45z"/><linearGradient id="N2pUS61A1jpR_LBa6C5iig" x1="22" x2="22" y1="41" y2="37" gradientTransform="matrix(1 0 0 -1 0 66)" gradientUnits="userSpaceOnUse"><stop offset="0" stop-color="#e3ecef"/><stop offset=".989" stop-color="#e6f0f3"/></linearGradient><path fill="url(#N2pUS61A1jpR_LBa6C5iig)" d="M24,29h-4c-0.552,0-1-0.448-1-1v-2c0-0.552,0.448-1,1-1h4c0.552,0,1,0.448,1,1v2	C25,28.552,24.552,29,24,29z"/><linearGradient id="N2pUS61A1jpR_LBa6C5iih" x1="47.5" x2="47.5" y1="8.745" y2="60.66" gradientTransform="matrix(1 0 0 -1 0 66)" gradientUnits="userSpaceOnUse"><stop offset="0" stop-color="#3280e5"/><stop offset=".076" stop-color="#3487e6"/><stop offset=".449" stop-color="#3ca4ed"/><stop offset=".77" stop-color="#41b7f1"/><stop offset="1" stop-color="#43bdf2"/></linearGradient><polygon fill="url(#N2pUS61A1jpR_LBa6C5iih)" points="36,56 59,56 59,11 36,11"/><linearGradient id="N2pUS61A1jpR_LBa6C5iii" x1="-494" x2="-494" y1="41" y2="37" gradientTransform="rotate(180 -220.5 33)" gradientUnits="userSpaceOnUse"><stop offset="0" stop-color="#e3ecef"/><stop offset=".989" stop-color="#e6f0f3"/></linearGradient><path fill="url(#N2pUS61A1jpR_LBa6C5iii)" d="M51,29h4c0.552,0,1-0.448,1-1v-2c0-0.552-0.448-1-1-1h-4c-0.552,0-1,0.448-1,1v2	C50,28.552,50.448,29,51,29z"/><linearGradient id="N2pUS61A1jpR_LBa6C5iij" x1="-488.5" x2="-488.5" y1="18.66" y2="72.72" gradientTransform="rotate(180 -220.5 33)" gradientUnits="userSpaceOnUse"><stop offset="0" stop-color="#ff9757"/><stop offset="1" stop-color="#ffb65b"/></linearGradient><path fill="url(#N2pUS61A1jpR_LBa6C5iij)" d="M36,14h23c1.105,0,2-0.895,2-2l0,0c0-1.105-0.895-2-2-2H36c-1.105,0-2,0.895-2,2l0,0	C34,13.105,34.895,14,36,14z"/><linearGradient id="N2pUS61A1jpR_LBa6C5iik" x1="-494" x2="-494" y1="33" y2="29" gradientTransform="rotate(180 -220.5 33)" gradientUnits="userSpaceOnUse"><stop offset="0" stop-color="#e3ecef"/><stop offset=".989" stop-color="#e6f0f3"/></linearGradient><path fill="url(#N2pUS61A1jpR_LBa6C5iik)" d="M51,37h4c0.552,0,1-0.448,1-1v-2c0-0.552-0.448-1-1-1h-4c-0.552,0-1,0.448-1,1v2	C50,36.552,50.448,37,51,37z"/><linearGradient id="N2pUS61A1jpR_LBa6C5iil" x1="-494" x2="-494" y1="25" y2="21" gradientTransform="rotate(180 -220.5 33)" gradientUnits="userSpaceOnUse"><stop offset="0" stop-color="#e3ecef"/><stop offset=".989" stop-color="#e6f0f3"/></linearGradient><path fill="url(#N2pUS61A1jpR_LBa6C5iil)" d="M51,45h4c0.552,0,1-0.448,1-1v-2c0-0.552-0.448-1-1-1h-4c-0.552,0-1,0.448-1,1v2	C50,44.552,50.448,45,51,45z"/><linearGradient id="N2pUS61A1jpR_LBa6C5iim" x1="-484" x2="-484" y1="41" y2="37" gradientTransform="rotate(180 -220.5 33)" gradientUnits="userSpaceOnUse"><stop offset="0" stop-color="#e3ecef"/><stop offset=".989" stop-color="#e6f0f3"/></linearGradient><path fill="url(#N2pUS61A1jpR_LBa6C5iim)" d="M41,29h4c0.552,0,1-0.448,1-1v-2c0-0.552-0.448-1-1-1h-4c-0.552,0-1,0.448-1,1v2	C40,28.552,40.448,29,41,29z"/><linearGradient id="N2pUS61A1jpR_LBa6C5iin" x1="-494" x2="-494" y1="49" y2="45" gradientTransform="rotate(180 -220.5 33)" gradientUnits="userSpaceOnUse"><stop offset="0" stop-color="#e3ecef"/><stop offset=".989" stop-color="#e6f0f3"/></linearGradient><path fill="url(#N2pUS61A1jpR_LBa6C5iin)" d="M51,21h4c0.552,0,1-0.448,1-1v-2c0-0.552-0.448-1-1-1h-4c-0.552,0-1,0.448-1,1v2	C50,20.552,50.448,21,51,21z"/><linearGradient id="N2pUS61A1jpR_LBa6C5iio" x1="-484" x2="-484" y1="49" y2="45" gradientTransform="rotate(180 -220.5 33)" gradientUnits="userSpaceOnUse"><stop offset="0" stop-color="#e3ecef"/><stop offset=".989" stop-color="#e6f0f3"/></linearGradient><path fill="url(#N2pUS61A1jpR_LBa6C5iio)" d="M41,21h4c0.552,0,1-0.448,1-1v-2c0-0.552-0.448-1-1-1h-4c-0.552,0-1,0.448-1,1v2	C40,20.552,40.448,21,41,21z"/><linearGradient id="N2pUS61A1jpR_LBa6C5iip" x1="32.5" x2="32.5" y1=".021" y2="49.561" gradientTransform="matrix(1 0 0 -1 0 66)" gradientUnits="userSpaceOnUse"><stop offset="0" stop-color="#ff735d"/><stop offset=".137" stop-color="#fe746b"/><stop offset=".486" stop-color="#fc758a"/><stop offset=".783" stop-color="#fa769d"/><stop offset=".989" stop-color="#fa76a4"/><stop offset="1" stop-color="#fa76a4"/></linearGradient><rect width="23" height="22" x="21" y="34" fill="url(#N2pUS61A1jpR_LBa6C5iip)"/><linearGradient id="N2pUS61A1jpR_LBa6C5iiq" x1="27" x2="27" y1="18" y2="14" gradientTransform="matrix(1 0 0 -1 0 66)" gradientUnits="userSpaceOnUse"><stop offset="0" stop-color="#e3ecef"/><stop offset=".989" stop-color="#e6f0f3"/></linearGradient><path fill="url(#N2pUS61A1jpR_LBa6C5iiq)" d="M29,52h-4c-0.552,0-1-0.448-1-1v-2c0-0.552,0.448-1,1-1h4c0.552,0,1,0.448,1,1v2	C30,51.552,29.552,52,29,52z"/><linearGradient id="N2pUS61A1jpR_LBa6C5iir" x1="32.5" x2="32.5" y1="-4.34" y2="49.72" gradientTransform="matrix(1 0 0 -1 0 66)" gradientUnits="userSpaceOnUse"><stop offset="0" stop-color="#ff9757"/><stop offset="1" stop-color="#ffb65b"/></linearGradient><path fill="url(#N2pUS61A1jpR_LBa6C5iir)" d="M44,37H21c-1.105,0-2-0.895-2-2l0,0c0-1.105,0.895-2,2-2h23c1.105,0,2,0.895,2,2l0,0	C46,36.105,45.105,37,44,37z"/><linearGradient id="N2pUS61A1jpR_LBa6C5iis" x1="37" x2="37" y1="18" y2="14" gradientTransform="matrix(1 0 0 -1 0 66)" gradientUnits="userSpaceOnUse"><stop offset="0" stop-color="#e3ecef"/><stop offset=".989" stop-color="#e6f0f3"/></linearGradient><path fill="url(#N2pUS61A1jpR_LBa6C5iis)" d="M39,52h-4c-0.552,0-1-0.448-1-1v-2c0-0.552,0.448-1,1-1h4c0.552,0,1,0.448,1,1v2	C40,51.552,39.552,52,39,52z"/><linearGradient id="N2pUS61A1jpR_LBa6C5iit" x1="27" x2="27" y1="26" y2="22" gradientTransform="matrix(1 0 0 -1 0 66)" gradientUnits="userSpaceOnUse"><stop offset="0" stop-color="#e3ecef"/><stop offset=".989" stop-color="#e6f0f3"/></linearGradient><path fill="url(#N2pUS61A1jpR_LBa6C5iit)" d="M29,44h-4c-0.552,0-1-0.448-1-1v-2c0-0.552,0.448-1,1-1h4c0.552,0,1,0.448,1,1v2	C30,43.552,29.552,44,29,44z"/><linearGradient id="N2pUS61A1jpR_LBa6C5iiu" x1="37" x2="37" y1="26" y2="22" gradientTransform="matrix(1 0 0 -1 0 66)" gradientUnits="userSpaceOnUse"><stop offset="0" stop-color="#e3ecef"/><stop offset=".989" stop-color="#e6f0f3"/></linearGradient><path fill="url(#N2pUS61A1jpR_LBa6C5iiu)" d="M39,44h-4c-0.552,0-1-0.448-1-1v-2c0-0.552,0.448-1,1-1h4c0.552,0,1,0.448,1,1v2	C40,43.552,39.552,44,39,44z"/></svg>