<svg xmlns="http://www.w3.org/2000/svg" viewBox="0 0 64 64" width="64px" height="64px"><radialGradient id="1y65RI1cjwOWHZiG0RAf4a" cx="31.873" cy="38.414" r="52.414" gradientTransform="matrix(1 0 0 -1 0 66)" gradientUnits="userSpaceOnUse"><stop offset="0" stop-color="#afeeff"/><stop offset=".193" stop-color="#bbf1ff"/><stop offset=".703" stop-color="#d7f8ff"/><stop offset="1" stop-color="#e1faff"/></radialGradient><path fill="url(#1y65RI1cjwOWHZiG0RAf4a)" d="M60.5,15c1.933,0,3.5-1.567,3.5-3.5S62.433,8,60.5,8h-1.639H55.5C54.67,8,54,7.33,54,6.5	S54.67,5,55.5,5h0.91c1.14,0,2.2-0.72,2.5-1.82C59.35,1.52,58.1,0,56.5,0H8.595C7.456,0,6.389,0.719,6.091,1.818	C5.639,3.479,6.899,5,8.5,5c0.69,0,1.32,0.28,1.77,0.73c0.417,0.417,0.688,0.988,0.725,1.618C11.083,8.804,9.801,10,8.343,10h-4.72	c-1.949,0-3.28,0.972-3.563,2.395C-0.319,14.307,1.152,16,3,16h23c0.35,0,0.68-0.07,1-0.18V23H3.165	c-1.626,0-3.079,1.221-3.161,2.844C-0.083,27.575,1.288,29,3,29h16.59c-1.14,0-2.2,1.72-2.5,2.82c-0.22,0.82-0.02,6.6,0.42,7.18	H2.644c-1.308,0-2.5,0.94-2.631,2.241C-0.138,42.737,1.035,44,2.5,44h0.856c1.308,0,2.5,0.94,2.631,2.241	C6.138,47.737,4.965,49,3.5,49H3.165c-1.626,0-3.079,1.221-3.161,2.844C-0.083,53.575,1.288,55,3,55h13.5c0.83,0,1.5,0.67,1.5,1.5	S17.33,58,16.5,58h-0.16c-0.45,0.11-1.11,0-1.84,0h-1.335c-1.626,0-3.079,1.221-3.161,2.844C9.917,62.575,11.288,64,13,64h35.835	c1.626,0,3.079-1.221,3.161-2.844C52.083,59.425,50.712,58,49,58h-1.5c-0.73,0-1.39,0.11-1.84,0H45.5c-0.83,0-1.5-0.67-1.5-1.5	s0.67-1.5,1.5-1.5h15.335c1.626,0,3.079-1.221,3.161-2.844C64.083,50.425,62.712,49,61,49H45l-2.6-8h6.01c1.14,0,2.2-0.72,2.5-1.82	c0.431-1.625-0.758-3.116-2.309-3.178c-0.734-0.029-1.425-0.469-1.569-1.189C46.838,33.845,47.568,33,48.5,33h11	c2.485,0,4.5-2.015,4.5-4.5S61.985,24,59.5,24H48v-9H60.5z"/><linearGradient id="1y65RI1cjwOWHZiG0RAf4b" x1="33" x2="33" y1="55.714" y2="29.569" gradientTransform="matrix(1 0 0 -1 0 66)" gradientUnits="userSpaceOnUse"><stop offset="0" stop-color="#42d778"/><stop offset=".996" stop-color="#34b171"/><stop offset="1" stop-color="#34b171"/></linearGradient><path fill="url(#1y65RI1cjwOWHZiG0RAf4b)" d="M58,20.108v21.784C58,43.609,56.56,45,54.77,45H11.23C9.44,45,8,43.609,8,41.892V21.108	C8,19.391,9.44,17,11.23,17h43.54C56.56,17,58,18.391,58,20.108z"/><linearGradient id="1y65RI1cjwOWHZiG0RAf4c" x1="29.08" x2="28.846" y1="51.571" y2="14.787" gradientTransform="matrix(1 0 0 -1 0 66)" gradientUnits="userSpaceOnUse"><stop offset="0" stop-color="#42d778"/><stop offset=".996" stop-color="#34b171"/><stop offset="1" stop-color="#34b171"/></linearGradient><path fill="url(#1y65RI1cjwOWHZiG0RAf4c)" d="M54,16.108v21.784C54,39.609,52.56,41,50.77,41H7.23C5.44,41,4,39.609,4,37.892V16.108	C4,14.391,5.44,13,7.23,13h43.54C52.56,13,54,14.391,54,16.108z"/><linearGradient id="1y65RI1cjwOWHZiG0RAf4d" x1="29" x2="29" y1="50.814" y2="23.59" gradientTransform="matrix(1 0 0 -1 0 66)" gradientUnits="userSpaceOnUse"><stop offset="0" stop-color="#62de8f"/><stop offset=".478" stop-color="#5dd18d"/><stop offset="1" stop-color="#56be89"/></linearGradient><path fill="url(#1y65RI1cjwOWHZiG0RAf4d)" d="M48,37H10c-1.105,0-2-0.895-2-2V19c0-1.105,0.895-2,2-2h38c1.105,0,2,0.895,2,2v16	C50,36.105,49.105,37,48,37z"/><linearGradient id="1y65RI1cjwOWHZiG0RAf4e" x1="29" x2="29" y1="61.787" y2="35.347" gradientTransform="matrix(1 0 0 -1 0 66)" gradientUnits="userSpaceOnUse"><stop offset="0" stop-color="#42d778"/><stop offset=".996" stop-color="#34b171"/><stop offset="1" stop-color="#34b171"/></linearGradient><circle cx="29" cy="27" r="6" fill="url(#1y65RI1cjwOWHZiG0RAf4e)"/><linearGradient id="1y65RI1cjwOWHZiG0RAf4f" x1="51.5" x2="51.5" y1="14.223" y2="19.707" gradientTransform="matrix(1 0 0 -1 0 66)" gradientUnits="userSpaceOnUse"><stop offset="0" stop-color="#ffce76"/><stop offset=".004" stop-color="#ffce76"/><stop offset=".605" stop-color="#ffcd92"/><stop offset="1" stop-color="#ffcca0"/><stop offset="1" stop-color="#ffcca0"/></linearGradient><circle cx="51.5" cy="39.5" r="8.5" fill="url(#1y65RI1cjwOWHZiG0RAf4f)"/><linearGradient id="1y65RI1cjwOWHZiG0RAf4g" x1="51.5" x2="51.5" y1="33.894" y2="42.642" gradientTransform="matrix(1 0 0 -1 0 66)" gradientUnits="userSpaceOnUse"><stop offset="0" stop-color="#ff9757"/><stop offset="1" stop-color="#ffb65b"/><stop offset="1" stop-color="#ffb65b"/></linearGradient><path fill="url(#1y65RI1cjwOWHZiG0RAf4g)" d="M51.5,30c-5.238,0-9.5,4.262-9.5,9.5s4.262,9.5,9.5,9.5s9.5-4.262,9.5-9.5S56.738,30,51.5,30z M57.714,43.695c-0.063-0.105-0.113-0.216-0.203-0.306c-0.586-0.586-1.536-0.586-2.121,0c-0.586,0.586-0.586,1.536,0,2.121	c0.09,0.09,0.201,0.141,0.306,0.203c-0.815,0.552-1.744,0.945-2.742,1.142C52.981,46.741,53,46.623,53,46.5	c0-0.828-0.672-1.5-1.5-1.5S50,45.672,50,46.5c0,0.123,0.019,0.241,0.047,0.356c-0.999-0.197-1.928-0.591-2.742-1.142	c0.105-0.063,0.216-0.113,0.306-0.203c0.586-0.586,0.586-1.536,0-2.121c-0.586-0.586-1.536-0.586-2.121,0	c-0.09,0.09-0.141,0.201-0.203,0.306c-0.552-0.815-0.945-1.744-1.142-2.742C44.259,40.981,44.377,41,44.5,41	c0.828,0,1.5-0.672,1.5-1.5S45.328,38,44.5,38c-0.123,0-0.241,0.019-0.356,0.047c0.197-0.999,0.591-1.928,1.142-2.742	c0.063,0.105,0.113,0.216,0.203,0.306c0.586,0.586,1.536,0.586,2.121,0c0.586-0.586,0.586-1.536,0-2.121	c-0.09-0.09-0.201-0.141-0.306-0.203c0.815-0.552,1.744-0.945,2.742-1.142C50.019,32.259,50,32.377,50,32.5	c0,0.828,0.672,1.5,1.5,1.5s1.5-0.672,1.5-1.5c0-0.123-0.019-0.241-0.047-0.356c0.999,0.197,1.928,0.591,2.742,1.142	c-0.105,0.063-0.216,0.113-0.306,0.203c-0.586,0.586-0.586,1.536,0,2.121c0.586,0.586,1.536,0.586,2.121,0	c0.09-0.09,0.141-0.201,0.203-0.306c0.552,0.815,0.945,1.744,1.142,2.742C58.741,38.019,58.623,38,58.5,38	c-0.828,0-1.5,0.672-1.5,1.5s0.672,1.5,1.5,1.5c0.123,0,0.241-0.019,0.356-0.047C58.659,41.952,58.266,42.881,57.714,43.695z"/><linearGradient id="1y65RI1cjwOWHZiG0RAf4h" x1="42.5" x2="42.5" y1="6.421" y2="28.855" gradientTransform="matrix(1 0 0 -1 0 66)" gradientUnits="userSpaceOnUse"><stop offset="0" stop-color="#ffce76"/><stop offset=".004" stop-color="#ffce76"/><stop offset=".605" stop-color="#ffcd92"/><stop offset="1" stop-color="#ffcca0"/><stop offset="1" stop-color="#ffcca0"/></linearGradient><circle cx="42.5" cy="44.5" r="8.5" fill="url(#1y65RI1cjwOWHZiG0RAf4h)"/><linearGradient id="1y65RI1cjwOWHZiG0RAf4i" x1="42.596" x2="42.426" y1="7.069" y2="32.601" gradientTransform="matrix(1 0 0 -1 0 66)" gradientUnits="userSpaceOnUse"><stop offset="0" stop-color="#ff9757"/><stop offset="1" stop-color="#ffb65b"/><stop offset="1" stop-color="#ffb65b"/></linearGradient><path fill="url(#1y65RI1cjwOWHZiG0RAf4i)" d="M42.5,35c-5.238,0-9.5,4.262-9.5,9.5s4.262,9.5,9.5,9.5s9.5-4.262,9.5-9.5S47.738,35,42.5,35z M48.714,48.695c-0.063-0.105-0.113-0.216-0.203-0.306c-0.586-0.586-1.536-0.586-2.121,0c-0.586,0.586-0.586,1.536,0,2.121	c0.09,0.09,0.201,0.141,0.306,0.203c-0.815,0.552-1.744,0.945-2.742,1.142C43.981,51.741,44,51.623,44,51.5	c0-0.828-0.672-1.5-1.5-1.5S41,50.672,41,51.5c0,0.123,0.019,0.241,0.047,0.356c-0.999-0.197-1.928-0.591-2.742-1.142	c0.105-0.063,0.216-0.113,0.306-0.203c0.586-0.586,0.586-1.536,0-2.121c-0.586-0.586-1.536-0.586-2.121,0	c-0.09,0.09-0.141,0.201-0.203,0.306c-0.552-0.815-0.945-1.744-1.142-2.742C35.259,45.981,35.377,46,35.5,46	c0.828,0,1.5-0.672,1.5-1.5S36.328,43,35.5,43c-0.123,0-0.241,0.019-0.356,0.047c0.197-0.999,0.591-1.928,1.142-2.742	c0.063,0.105,0.113,0.216,0.203,0.306c0.586,0.586,1.536,0.586,2.121,0c0.586-0.586,0.586-1.536,0-2.121	c-0.09-0.09-0.201-0.141-0.306-0.203c0.815-0.552,1.744-0.945,2.742-1.142C41.019,37.259,41,37.377,41,37.5	c0,0.828,0.672,1.5,1.5,1.5s1.5-0.672,1.5-1.5c0-0.123-0.019-0.241-0.047-0.356c0.999,0.197,1.928,0.591,2.742,1.142	c-0.105,0.063-0.216,0.113-0.306,0.203c-0.586,0.586-0.586,1.536,0,2.121c0.586,0.586,1.536,0.586,2.121,0	c0.09-0.09,0.141-0.201,0.203-0.306c0.552,0.815,0.945,1.744,1.142,2.742C49.741,43.019,49.623,43,49.5,43	c-0.828,0-1.5,0.672-1.5,1.5s0.672,1.5,1.5,1.5c0.123,0,0.241-0.019,0.356-0.047C49.659,46.952,49.266,47.881,48.714,48.695z"/></svg>