<svg xmlns="http://www.w3.org/2000/svg" viewBox="0 0 64 64" width="64px" height="64px"><radialGradient id="O_SAGkyF8uZQ2k2mO_~vUa" cx="32" cy="30" r="29.155" gradientTransform="matrix(1 0 0 -1 0 66)" gradientUnits="userSpaceOnUse"><stop offset="0" stop-color="#c5f1ff"/><stop offset=".35" stop-color="#cdf3ff"/><stop offset=".907" stop-color="#e4faff"/><stop offset="1" stop-color="#e9fbff"/></radialGradient><path fill="url(#O_SAGkyF8uZQ2k2mO_~vUa)" d="M63.98,58.41C63.77,60.49,61.9,62,59.81,62H4c-2.34,0-4.22-2.03-3.98-4.41	C0.23,55.51,2.1,54,4.19,54H6c0.55,0,1.05-0.22,1.41-0.59c0.41-0.4,0.64-0.97,0.58-1.59C7.9,50.77,6.94,50,5.89,50H4.13	c-1.45,0-2.79-0.97-3.07-2.4C0.68,45.69,2.15,44,4,44h18V33H4c-2.34,0-4.22-2.03-3.98-4.41C0.23,26.51,2.1,25,4.19,25H5.4	c1.67,0,3.19-1.13,3.52-2.77C9.39,19.99,7.67,18,5.5,18H5c-2.34,0-4.22-2.03-3.98-4.41C1.23,11.51,3.1,10,5.19,10H59.5	c1.47,0,2.63,1.25,2.49,2.75c-0.12,1.3-1.32,2.25-2.63,2.25H58c-0.55,0-1.05,0.22-1.41,0.59C56.22,15.95,56,16.45,56,17	c0,1.1,0.9,2,2,2h1.81c2.09,0,3.96,1.51,4.17,3.59C64.22,24.97,62.33,27,60,27H46l-1,13h14.37c1.67,0,3.2,1.12,3.55,2.75	C63.4,44.99,61.67,47,59.5,47h-1c-0.96,0-1.84,0.39-2.47,1.03c-0.43,0.42-0.74,0.95-0.9,1.54C55.04,49.87,55,50.18,55,50.5	c0,1.23,0.63,2.3,1.59,2.91c0.01,0.02,0.03,0.03,0.05,0.04C56.99,53.8,57.47,54,58,54h2C62.33,54,64.22,56.03,63.98,58.41z"/><linearGradient id="O_SAGkyF8uZQ2k2mO_~vUb" x1="42" x2="42" y1="-14.17" y2="60.521" gradientTransform="matrix(1 0 0 -1 0 66)" gradientUnits="userSpaceOnUse"><stop offset="0" stop-color="#3280e5"/><stop offset=".076" stop-color="#3487e6"/><stop offset=".449" stop-color="#3ca4ed"/><stop offset=".77" stop-color="#41b7f1"/><stop offset="1" stop-color="#43bdf2"/></linearGradient><rect width="20" height="52" x="32" y="7" fill="url(#O_SAGkyF8uZQ2k2mO_~vUb)"/><linearGradient id="O_SAGkyF8uZQ2k2mO_~vUc" x1="22" x2="22" y1="6.34" y2="55.629" gradientTransform="matrix(1 0 0 -1 0 66)" gradientUnits="userSpaceOnUse"><stop offset="0" stop-color="#3cb5ea"/><stop offset="1" stop-color="#7ddefb"/></linearGradient><rect width="20" height="52" x="12" y="7" fill="url(#O_SAGkyF8uZQ2k2mO_~vUc)"/><linearGradient id="O_SAGkyF8uZQ2k2mO_~vUd" x1="-286" x2="-286" y1="39" y2="35" gradientTransform="rotate(180 -119.5 33)" gradientUnits="userSpaceOnUse"><stop offset="0" stop-color="#e3ecef"/><stop offset=".989" stop-color="#e6f0f3"/></linearGradient><path fill="url(#O_SAGkyF8uZQ2k2mO_~vUd)" d="M45,31h4c0.552,0,1-0.448,1-1v-2c0-0.552-0.448-1-1-1h-4c-0.552,0-1,0.448-1,1v2	C44,30.552,44.448,31,45,31z"/><linearGradient id="O_SAGkyF8uZQ2k2mO_~vUe" x1="-277" x2="-277" y1="39" y2="35" gradientTransform="rotate(180 -119.5 33)" gradientUnits="userSpaceOnUse"><stop offset="0" stop-color="#e3ecef"/><stop offset=".989" stop-color="#e6f0f3"/></linearGradient><path fill="url(#O_SAGkyF8uZQ2k2mO_~vUe)" d="M36,31h4c0.552,0,1-0.448,1-1v-2c0-0.552-0.448-1-1-1h-4c-0.552,0-1,0.448-1,1v2	C35,30.552,35.448,31,36,31z"/><linearGradient id="O_SAGkyF8uZQ2k2mO_~vUf" x1="-286" x2="-286" y1="30" y2="26" gradientTransform="rotate(180 -119.5 33)" gradientUnits="userSpaceOnUse"><stop offset="0" stop-color="#e3ecef"/><stop offset=".989" stop-color="#e6f0f3"/></linearGradient><path fill="url(#O_SAGkyF8uZQ2k2mO_~vUf)" d="M45,40h4c0.552,0,1-0.448,1-1v-2c0-0.552-0.448-1-1-1h-4c-0.552,0-1,0.448-1,1v2	C44,39.552,44.448,40,45,40z"/><linearGradient id="O_SAGkyF8uZQ2k2mO_~vUg" x1="-277" x2="-277" y1="30" y2="26" gradientTransform="rotate(180 -119.5 33)" gradientUnits="userSpaceOnUse"><stop offset="0" stop-color="#e3ecef"/><stop offset=".989" stop-color="#e6f0f3"/></linearGradient><path fill="url(#O_SAGkyF8uZQ2k2mO_~vUg)" d="M36,40h4c0.552,0,1-0.448,1-1v-2c0-0.552-0.448-1-1-1h-4c-0.552,0-1,0.448-1,1v2	C35,39.552,35.448,40,36,40z"/><linearGradient id="O_SAGkyF8uZQ2k2mO_~vUh" x1="-286" x2="-286" y1="21" y2="17" gradientTransform="rotate(180 -119.5 33)" gradientUnits="userSpaceOnUse"><stop offset="0" stop-color="#e3ecef"/><stop offset=".989" stop-color="#e6f0f3"/></linearGradient><path fill="url(#O_SAGkyF8uZQ2k2mO_~vUh)" d="M45,49h4c0.552,0,1-0.448,1-1v-2c0-0.552-0.448-1-1-1h-4c-0.552,0-1,0.448-1,1v2	C44,48.552,44.448,49,45,49z"/><linearGradient id="O_SAGkyF8uZQ2k2mO_~vUi" x1="-277" x2="-277" y1="21" y2="17" gradientTransform="rotate(180 -119.5 33)" gradientUnits="userSpaceOnUse"><stop offset="0" stop-color="#e3ecef"/><stop offset=".989" stop-color="#e6f0f3"/></linearGradient><path fill="url(#O_SAGkyF8uZQ2k2mO_~vUi)" d="M36,49h4c0.552,0,1-0.448,1-1v-2c0-0.552-0.448-1-1-1h-4c-0.552,0-1,0.448-1,1v2	C35,48.552,35.448,49,36,49z"/><linearGradient id="O_SAGkyF8uZQ2k2mO_~vUj" x1="-286" x2="-286" y1="48" y2="44" gradientTransform="rotate(180 -119.5 33)" gradientUnits="userSpaceOnUse"><stop offset="0" stop-color="#e3ecef"/><stop offset=".989" stop-color="#e6f0f3"/></linearGradient><path fill="url(#O_SAGkyF8uZQ2k2mO_~vUj)" d="M45,22h4c0.552,0,1-0.448,1-1v-2c0-0.552-0.448-1-1-1h-4c-0.552,0-1,0.448-1,1v2	C44,21.552,44.448,22,45,22z"/><linearGradient id="O_SAGkyF8uZQ2k2mO_~vUk" x1="-277" x2="-277" y1="48" y2="44" gradientTransform="rotate(180 -119.5 33)" gradientUnits="userSpaceOnUse"><stop offset="0" stop-color="#e3ecef"/><stop offset=".989" stop-color="#e6f0f3"/></linearGradient><path fill="url(#O_SAGkyF8uZQ2k2mO_~vUk)" d="M36,22h4c0.552,0,1-0.448,1-1v-2c0-0.552-0.448-1-1-1h-4c-0.552,0-1,0.448-1,1v2	C35,21.552,35.448,22,36,22z"/><linearGradient id="O_SAGkyF8uZQ2k2mO_~vUl" x1="-265" x2="-265" y1="39" y2="35" gradientTransform="rotate(180 -119.5 33)" gradientUnits="userSpaceOnUse"><stop offset="0" stop-color="#e3ecef"/><stop offset=".989" stop-color="#e6f0f3"/></linearGradient><path fill="url(#O_SAGkyF8uZQ2k2mO_~vUl)" d="M24,31h4c0.552,0,1-0.448,1-1v-2c0-0.552-0.448-1-1-1h-4c-0.552,0-1,0.448-1,1v2	C23,30.552,23.448,31,24,31z"/><linearGradient id="O_SAGkyF8uZQ2k2mO_~vUm" x1="-256" x2="-256" y1="39" y2="35" gradientTransform="rotate(180 -119.5 33)" gradientUnits="userSpaceOnUse"><stop offset="0" stop-color="#e3ecef"/><stop offset=".989" stop-color="#e6f0f3"/></linearGradient><path fill="url(#O_SAGkyF8uZQ2k2mO_~vUm)" d="M15,31h4c0.552,0,1-0.448,1-1v-2c0-0.552-0.448-1-1-1h-4c-0.552,0-1,0.448-1,1v2	C14,30.552,14.448,31,15,31z"/><linearGradient id="O_SAGkyF8uZQ2k2mO_~vUn" x1="-265" x2="-265" y1="30" y2="26" gradientTransform="rotate(180 -119.5 33)" gradientUnits="userSpaceOnUse"><stop offset="0" stop-color="#e3ecef"/><stop offset=".989" stop-color="#e6f0f3"/></linearGradient><path fill="url(#O_SAGkyF8uZQ2k2mO_~vUn)" d="M24,40h4c0.552,0,1-0.448,1-1v-2c0-0.552-0.448-1-1-1h-4c-0.552,0-1,0.448-1,1v2	C23,39.552,23.448,40,24,40z"/><linearGradient id="O_SAGkyF8uZQ2k2mO_~vUo" x1="-256" x2="-256" y1="30" y2="26" gradientTransform="rotate(180 -119.5 33)" gradientUnits="userSpaceOnUse"><stop offset="0" stop-color="#e3ecef"/><stop offset=".989" stop-color="#e6f0f3"/></linearGradient><path fill="url(#O_SAGkyF8uZQ2k2mO_~vUo)" d="M15,40h4c0.552,0,1-0.448,1-1v-2c0-0.552-0.448-1-1-1h-4c-0.552,0-1,0.448-1,1v2	C14,39.552,14.448,40,15,40z"/><linearGradient id="O_SAGkyF8uZQ2k2mO_~vUp" x1="-265" x2="-265" y1="21" y2="17" gradientTransform="rotate(180 -119.5 33)" gradientUnits="userSpaceOnUse"><stop offset="0" stop-color="#e3ecef"/><stop offset=".989" stop-color="#e6f0f3"/></linearGradient><path fill="url(#O_SAGkyF8uZQ2k2mO_~vUp)" d="M24,49h4c0.552,0,1-0.448,1-1v-2c0-0.552-0.448-1-1-1h-4c-0.552,0-1,0.448-1,1v2	C23,48.552,23.448,49,24,49z"/><linearGradient id="O_SAGkyF8uZQ2k2mO_~vUq" x1="-256" x2="-256" y1="21" y2="17" gradientTransform="rotate(180 -119.5 33)" gradientUnits="userSpaceOnUse"><stop offset="0" stop-color="#e3ecef"/><stop offset=".989" stop-color="#e6f0f3"/></linearGradient><path fill="url(#O_SAGkyF8uZQ2k2mO_~vUq)" d="M15,49h4c0.552,0,1-0.448,1-1v-2c0-0.552-0.448-1-1-1h-4c-0.552,0-1,0.448-1,1v2	C14,48.552,14.448,49,15,49z"/><linearGradient id="O_SAGkyF8uZQ2k2mO_~vUr" x1="-265" x2="-265" y1="48" y2="44" gradientTransform="rotate(180 -119.5 33)" gradientUnits="userSpaceOnUse"><stop offset="0" stop-color="#e3ecef"/><stop offset=".989" stop-color="#e6f0f3"/></linearGradient><path fill="url(#O_SAGkyF8uZQ2k2mO_~vUr)" d="M24,22h4c0.552,0,1-0.448,1-1v-2c0-0.552-0.448-1-1-1h-4c-0.552,0-1,0.448-1,1v2	C23,21.552,23.448,22,24,22z"/><linearGradient id="O_SAGkyF8uZQ2k2mO_~vUs" x1="-256" x2="-256" y1="48" y2="44" gradientTransform="rotate(180 -119.5 33)" gradientUnits="userSpaceOnUse"><stop offset="0" stop-color="#e3ecef"/><stop offset=".989" stop-color="#e6f0f3"/></linearGradient><path fill="url(#O_SAGkyF8uZQ2k2mO_~vUs)" d="M15,22h4c0.552,0,1-0.448,1-1v-2c0-0.552-0.448-1-1-1h-4c-0.552,0-1,0.448-1,1v2	C14,21.552,14.448,22,15,22z"/><linearGradient id="O_SAGkyF8uZQ2k2mO_~vUt" x1="44" x2="44" y1="52.468" y2="61.068" gradientTransform="matrix(1 0 0 -1 0 66)" gradientUnits="userSpaceOnUse"><stop offset="0" stop-color="#ff8b67"/><stop offset=".847" stop-color="#ffa76a"/><stop offset="1" stop-color="#ffad6b"/><stop offset="1" stop-color="#ffad6b"/></linearGradient><path fill="url(#O_SAGkyF8uZQ2k2mO_~vUt)" d="M56,10c0,1.66-1.34,3-3,3H32V7h21c0.83,0,1.58,0.34,2.12,0.88S56,9.17,56,10z"/><linearGradient id="O_SAGkyF8uZQ2k2mO_~vUu" x1="22" x2="22" y1="2.989" y2="84.08" gradientTransform="matrix(1 0 0 -1 0 66)" gradientUnits="userSpaceOnUse"><stop offset="0" stop-color="#ff9757"/><stop offset="1" stop-color="#ffb65b"/></linearGradient><path fill="url(#O_SAGkyF8uZQ2k2mO_~vUu)" d="M35,10c0,1.66-1.34,3-3,3H12c-0.83,0-1.58-0.34-2.12-0.88S9,10.83,9,10c0-1.66,1.34-3,3-3h20	c0.83,0,1.58,0.34,2.12,0.88S35,9.17,35,10z"/></svg>