<svg xmlns="http://www.w3.org/2000/svg" viewBox="0 0 64 64" width="64px" height="64px"><radialGradient id="6yvv11UTacbLZAsNoLVuJa" cx="31" cy="32.5" r="30.276" gradientUnits="userSpaceOnUse"><stop offset="0" stop-color="#afeeff"/><stop offset=".193" stop-color="#bbf1ff"/><stop offset=".703" stop-color="#d7f8ff"/><stop offset="1" stop-color="#e1faff"/></radialGradient><path fill="url(#6yvv11UTacbLZAsNoLVuJa)" d="M47,6v5.05c1.141,0.232,2,1.24,2,2.45c0,1.381-1.119,2.5-2.5,2.5H30v26h25.5	c1.381,0,2.5,1.119,2.5,2.5c0,1.381-1.119,2.5-2.5,2.5H55c-1.105,0-2,0.895-2,2c0,1.105,0.895,2,2,2h0.5c1.381,0,2.5,1.119,2.5,2.5	c0,1.381-1.119,2.5-2.5,2.5h-13c-0.828,0-1.5,0.672-1.5,1.5s0.672,1.5,1.5,1.5H47h2.5c1.381,0,2.5,1.119,2.5,2.5	c0,1.381-1.119,2.5-2.5,2.5H47H36H18H7H4.5C3.119,64,2,62.881,2,61.5C2,60.119,3.119,59,4.5,59H7h4.5c0.828,0,1.5-0.672,1.5-1.5	S12.328,56,11.5,56C10.119,56,9,54.881,9,53.5c0-1.381,1.119-2.5,2.5-2.5H24V16h-4.5c-1.381,0-2.5-1.119-2.5-2.5	c0-1.381,1.119-2.5,2.5-2.5H40V6H15.5C14.119,6,13,4.881,13,3.5C13,2.119,14.119,1,15.5,1h42C58.881,1,60,2.119,60,3.5	C60,4.881,58.881,6,57.5,6H47z M7.102,5.573c0.266,0.18,0.568,0.31,0.894,0.376C8.159,5.983,8.327,6,8.5,6C9.881,6,11,4.881,11,3.5	C11,2.119,9.881,1,8.5,1C8.327,1,8.159,1.017,7.996,1.051C7.671,1.117,7.368,1.247,7.102,1.427C6.437,1.876,6,2.637,6,3.5	C6,4.363,6.437,5.124,7.102,5.573z"/><linearGradient id="6yvv11UTacbLZAsNoLVuJb" x1="26.5" x2="26.5" y1="16" y2="51" gradientUnits="userSpaceOnUse"><stop offset="0" stop-color="#a4a4a4"/><stop offset=".619" stop-color="gray"/><stop offset="1" stop-color="#6f6f6f"/><stop offset="1" stop-color="#6f6f6f"/></linearGradient><path fill="url(#6yvv11UTacbLZAsNoLVuJb)" d="M46,51H7c-2.761,0-5-2.239-5-5V21c0-2.761,2.239-5,5-5h39c2.761,0,5,2.239,5,5v25	C51,48.761,48.761,51,46,51z"/><linearGradient id="6yvv11UTacbLZAsNoLVuJc" x1="26.5" x2="26.5" y1="21.127" y2="36.597" gradientUnits="userSpaceOnUse"><stop offset="0" stop-color="#dff9ff"/><stop offset="0" stop-color="#dff9ff"/><stop offset=".173" stop-color="#d8f8ff"/><stop offset=".423" stop-color="#c5f4ff"/><stop offset=".72" stop-color="#a5eeff"/><stop offset="1" stop-color="#81e7ff"/></linearGradient><path fill="url(#6yvv11UTacbLZAsNoLVuJc)" d="M43.5,48h-34C7.567,48,6,46.433,6,44.5v-21C6,21.567,7.567,20,9.5,20h34	c1.933,0,3.5,1.567,3.5,3.5v21C47,46.433,45.433,48,43.5,48z"/><linearGradient id="6yvv11UTacbLZAsNoLVuJd" x1="26.5" x2="26.5" y1="20" y2="48" gradientUnits="userSpaceOnUse"><stop offset="0" stop-color="#dff9ff"/><stop offset="0" stop-color="#dff9ff"/><stop offset=".173" stop-color="#d8f8ff"/><stop offset=".423" stop-color="#c5f4ff"/><stop offset=".72" stop-color="#a5eeff"/><stop offset="1" stop-color="#81e7ff"/></linearGradient><path fill="url(#6yvv11UTacbLZAsNoLVuJd)" d="M47,23.5L47,23.5c0-1.933-1.567-3.5-3.5-3.5h-34C7.567,20,6,21.567,6,23.5V45v0	c0,1.657,1.343,3,3,3h26.5c1.381,0,2.5-1.119,2.5-2.5v0c0-1.381-1.119-2.5-2.5-2.5h-1c-1.381,0-2.5-1.119-2.5-2.5v0	c0-1.381,1.119-2.5,2.5-2.5h5c1.933,0,3.5-1.567,3.5-3.5v0c0-1.933-1.567-3.5-3.5-3.5H36c-1.105,0-2-0.895-2-2v0	c0-1.105,0.895-2,2-2h7.5C45.433,27,47,25.433,47,23.5z"/><linearGradient id="6yvv11UTacbLZAsNoLVuJe" x1="59" x2="59" y1="13.513" y2="35.942" gradientUnits="userSpaceOnUse"><stop offset=".269" stop-color="#a4a4a4"/><stop offset=".366" stop-color="#a4a4a4"/><stop offset=".758" stop-color="gray"/><stop offset="1" stop-color="#6f6f6f"/><stop offset="1" stop-color="#6f6f6f"/></linearGradient><path fill="url(#6yvv11UTacbLZAsNoLVuJe)" d="M59,34L59,34c-0.552,0-1-0.448-1-1V15c0-0.552,0.448-1,1-1l0,0c0.552,0,1,0.448,1,1v18	C60,33.552,59.552,34,59,34z"/><linearGradient id="6yvv11UTacbLZAsNoLVuJf" x1="19.006" x2="19.006" y1="56.212" y2="71.839" gradientTransform="rotate(22.426 150.62 98.536)" gradientUnits="userSpaceOnUse"><stop offset=".269" stop-color="#a4a4a4"/><stop offset=".366" stop-color="#a4a4a4"/><stop offset=".758" stop-color="gray"/><stop offset="1" stop-color="#6f6f6f"/><stop offset="1" stop-color="#6f6f6f"/></linearGradient><path fill="url(#6yvv11UTacbLZAsNoLVuJf)" d="M38.006,21.044c-0.818-1.438-2.109-3.368-3.752-4.718c-1.165-0.957-1.455-2.619-0.663-3.901	L38,7l13,5l0,7.125c0,1.786-1.551,3.184-3.325,2.977c-2.346-0.273-4.792,0.043-6.486,0.373	C39.927,22.721,38.642,22.161,38.006,21.044z"/><linearGradient id="6yvv11UTacbLZAsNoLVuJg" x1="59" x2="59" y1="40.228" y2="32.315" gradientUnits="userSpaceOnUse"><stop offset="0" stop-color="#ff9757"/><stop offset="1" stop-color="#ffb65b"/><stop offset="1" stop-color="#ffb65b"/></linearGradient><path fill="url(#6yvv11UTacbLZAsNoLVuJg)" d="M59,33L59,33c-0.138,0-0.274,0.009-0.407,0.027c-1.925,0.261-2.851,2.543-1.851,4.209	l1.401,2.335c0.388,0.647,1.327,0.647,1.715,0l1.401-2.335c1-1.666,0.074-3.947-1.851-4.209C59.274,33.009,59.138,33,59,33z"/><linearGradient id="6yvv11UTacbLZAsNoLVuJh" x1="45.574" x2="45.574" y1="2.708" y2="16.165" gradientUnits="userSpaceOnUse"><stop offset="0" stop-color="#a4a4a4"/><stop offset=".619" stop-color="gray"/><stop offset="1" stop-color="#6f6f6f"/><stop offset="1" stop-color="#6f6f6f"/></linearGradient><path fill="url(#6yvv11UTacbLZAsNoLVuJh)" d="M60.948,13.241L50.404,4.204C49.498,3.427,48.344,3,47.15,3h-16.3	c-0.945,0-1.363,1.19-0.625,1.781l11.404,9.123C42.517,14.614,43.619,15,44.754,15h15.543C61.225,15,61.652,13.845,60.948,13.241z"/><linearGradient id="6yvv11UTacbLZAsNoLVuJi" x1="27" x2="27" y1="51" y2="58" gradientUnits="userSpaceOnUse"><stop offset="0" stop-color="#a4a4a4"/><stop offset=".619" stop-color="gray"/><stop offset="1" stop-color="#6f6f6f"/><stop offset="1" stop-color="#6f6f6f"/></linearGradient><path fill="url(#6yvv11UTacbLZAsNoLVuJi)" d="M36,54h-3l-1-3H22l-1,3h-3c-1.105,0-2,0.895-2,2c0,1.105,0.895,2,2,2h18c1.105,0,2-0.895,2-2	C38,54.895,37.105,54,36,54z"/></svg>