<svg xmlns="http://www.w3.org/2000/svg" viewBox="0 0 64 64" width="64px" height="64px"><radialGradient id="GrTb7Tjk36XZ5ZBS40KWEa" cx="32.5" cy="31.5" r="30.516" gradientUnits="userSpaceOnUse" spreadMethod="reflect"><stop offset="0" stop-color="#afeeff"/><stop offset=".193" stop-color="#bbf1ff"/><stop offset=".703" stop-color="#d7f8ff"/><stop offset="1" stop-color="#e1faff"/></radialGradient><path fill="url(#GrTb7Tjk36XZ5ZBS40KWEa)" d="M59,20h1.5c2.168,0,3.892-1.998,3.422-4.243C63.58,14.122,62.056,13,60.385,13L53,13 c-1.105,0-2-0.895-2-2c0-1.105,0.895-2,2-2h3.385c1.67,0,3.195-1.122,3.537-2.757C60.392,3.998,58.668,2,56.5,2H34.006H32.5h-24 C6.575,2,5,3.575,5,5.5S6.575,9,8.5,9H10c1.105,0,2,0.895,2,2c0,1.105-0.895,2-2,2l-5.385,0c-1.67,0-3.195,1.122-3.537,2.757 C0.608,18.002,2.332,20,4.5,20H18v12L4.615,32c-1.67,0-3.195,1.122-3.537,2.757C0.608,37.002,2.332,39,4.5,39H5c1.105,0,2,0.895,2,2 c0,1.105-0.895,2-2,2H4.5c-2.168,0-3.892,1.998-3.422,4.243C1.42,48.878,2.945,50,4.615,50H10c1.105,0,2,0.895,2,2 c0,1.105-0.895,2-2,2l-1.385,0c-1.67,0-3.195,1.122-3.537,2.757C4.608,59.002,6.332,61,8.5,61h22.494H32.5h23 c1.925,0,3.5-1.575,3.5-3.5S57.425,54,55.5,54H55c-1.105,0-2-0.895-2-2c0-1.105,0.895-2,2-2h4.385c1.67,0,3.195-1.122,3.537-2.757 C63.392,44.998,61.668,43,59.5,43H47V31h12.385c1.67,0,3.195-1.122,3.537-2.757C63.392,25.998,61.668,24,59.5,24H59 c-1.105,0-2-0.895-2-2C57,20.895,57.895,20,59,20z"/><linearGradient id="GrTb7Tjk36XZ5ZBS40KWEb" x1="32" x2="32" y1="13.032" y2="63.032" gradientUnits="userSpaceOnUse" spreadMethod="reflect"><stop offset="0" stop-color="#40daf2"/><stop offset=".259" stop-color="#3bd3ef"/><stop offset=".624" stop-color="#2ec1e8"/><stop offset="1" stop-color="#1ba7dd"/></linearGradient><path fill="url(#GrTb7Tjk36XZ5ZBS40KWEb)" d="M57,31c0,13.805-11.195,25-25,25S7,44.805,7,31S18.195,6,32,6S57,17.195,57,31z"/><linearGradient id="GrTb7Tjk36XZ5ZBS40KWEc" x1="26.474" x2="26.474" y1="48" y2="30" gradientUnits="userSpaceOnUse" spreadMethod="reflect"><stop offset="0" stop-color="#01579b"/><stop offset=".518" stop-color="#016fb5"/><stop offset="1" stop-color="#0288d1"/></linearGradient><path fill="url(#GrTb7Tjk36XZ5ZBS40KWEc)" d="M24,30h4.949l0.997,15.949c0.002,0.034,0.003,0.068,0.003,0.102v0 C29.949,47.128,29.076,48,28,48h-3.051C23.872,48,23,47.128,23,46.051v0c0-0.034,0.001-0.068,0.003-0.102L24,30z"/><linearGradient id="GrTb7Tjk36XZ5ZBS40KWEd" x1="40.5" x2="40.5" y1="48" y2="33" gradientUnits="userSpaceOnUse" spreadMethod="reflect"><stop offset="0" stop-color="#01579b"/><stop offset=".518" stop-color="#016fb5"/><stop offset="1" stop-color="#0288d1"/></linearGradient><path fill="url(#GrTb7Tjk36XZ5ZBS40KWEd)" d="M42,33h-5v13.124C37,47.16,37.84,48,38.876,48h3.249C43.16,48,44,47.16,44,46.124l0,0 c0-0.083-0.005-0.166-0.016-0.248L42,33z"/><path fill="#fff" d="M38 15c-.552 0-1 .448-1 1v17h5c0 0 2-3.14 2-9C44 19.029 41.439 15 38 15zM31.5 15c-.825 0-1.5.675-1.5 1.5V25c0 .552-.448 1-1 1h0c-.552 0-1-.448-1-1v-8.5c0-.825-.675-1.5-1.5-1.5S25 15.675 25 16.5V25c0 .552-.448 1-1 1h0c-.552 0-1-.448-1-1v-8.5c0-.825-.675-1.5-1.5-1.5S20 15.675 20 16.5V26v0c0 2.209 1.791 4 4 4h5c2.209 0 4-1.791 4-4v0-9.5C33 15.675 32.325 15 31.5 15z"/></svg>