<svg xmlns="http://www.w3.org/2000/svg" viewBox="0 0 64 64" width="64px" height="64px"><radialGradient id="7Y_x4E~93zIYsmmnj_L4Pa" cx="32" cy="31.5" r="31.259" gradientUnits="userSpaceOnUse" spreadMethod="reflect"><stop offset="0" stop-color="#eed7a2"/><stop offset=".106" stop-color="#f1dcab"/><stop offset=".437" stop-color="#f8e8c3"/><stop offset=".744" stop-color="#fcefd2"/><stop offset="1" stop-color="#fef2d7"/></radialGradient><path fill="url(#7Y_x4E~93zIYsmmnj_L4Pa)" d="M58,54c-1.105,0-2-0.895-2-2c0-1.105,0.895-2,2-2h2.5c1.925,0,3.5-1.575,3.5-3.5 S62.425,43,60.5,43H50c-1.381,0-2.5-1.119-2.5-2.5c0-1.381,1.119-2.5,2.5-2.5h8c1.65,0,3-1.35,3-3c0-1.65-1.35-3-3-3H42v-6h18 c2.335,0,4.22-2.028,3.979-4.41C63.77,19.514,61.897,18,59.811,18H58c-1.105,0-2-0.895-2-2c0-1.105,0.895-2,2-2h0.357 c1.308,0,2.499-0.941,2.63-2.242C61.137,10.261,59.966,9,58.5,9h-14C43.672,9,43,8.328,43,7.5S43.672,6,44.5,6h3.857 c1.308,0,2.499-0.941,2.63-2.242C51.137,2.261,49.966,1,48.5,1L15.643,1c-1.308,0-2.499,0.941-2.63,2.242 C12.863,4.739,14.034,6,15.5,6H19c1.105,0,2,0.895,2,2c0,1.105-0.895,2-2,2H6.189c-2.086,0-3.958,1.514-4.168,3.59 C1.78,15.972,3.665,18,6,18h2.5c1.933,0,3.5,1.567,3.5,3.5c0,1.933-1.567,3.5-3.5,3.5H5.189c-2.086,0-3.958,1.514-4.168,3.59 C0.78,30.972,2.665,33,5,33h17v11H6c-1.65,0-3,1.35-3,3c0,1.65,1.35,3,3,3h0c1.105,0,2,0.895,2,2c0,1.105-0.895,2-2,2H4.189 c-2.086,0-3.958,1.514-4.168,3.59C-0.22,59.972,1.665,62,4,62h53.811c2.086,0,3.958-1.514,4.168-3.59C62.22,56.028,60.335,54,58,54 z"/><linearGradient id="7Y_x4E~93zIYsmmnj_L4Pb" x1="32" x2="32" y1="71.134" y2="27.134" gradientUnits="userSpaceOnUse" spreadMethod="reflect"><stop offset="0" stop-color="#3cb5ea"/><stop offset="1" stop-color="#7ddefb"/></linearGradient><path fill="url(#7Y_x4E~93zIYsmmnj_L4Pb)" d="M50,12H14c-2.209,0-4,1.791-4,4v36c0,2.209,1.791,4,4,4h36c2.209,0,4-1.791,4-4V16 C54,13.791,52.209,12,50,12z"/><linearGradient id="7Y_x4E~93zIYsmmnj_L4Pc" x1="31.494" x2="31.494" y1="48.301" y2="18.69" gradientUnits="userSpaceOnUse" spreadMethod="reflect"><stop offset="0" stop-color="#2472e2"/><stop offset=".469" stop-color="#2a7fe5"/><stop offset="1" stop-color="#3394ea"/></linearGradient><path fill="url(#7Y_x4E~93zIYsmmnj_L4Pc)" d="M40.73,35.27L38,38l-6.407-11.213c-0.946-1.655-0.695-3.734,0.617-5.116l2.83-2.982 l6.399,11.505C42.363,31.855,42.074,33.926,40.73,35.27z M21.548,36.796l6.399,11.505l2.83-2.982 c1.312-1.382,1.563-3.461,0.617-5.116l-6.407-11.213l-2.73,2.73C20.914,33.065,20.624,35.136,21.548,36.796z"/><linearGradient id="7Y_x4E~93zIYsmmnj_L4Pd" x1="31.494" x2="31.494" y1="49.628" y2="-9.169" gradientUnits="userSpaceOnUse" spreadMethod="reflect"><stop offset="0" stop-color="#0d47a1"/><stop offset=".365" stop-color="#135fba"/><stop offset=".734" stop-color="#1770cc"/><stop offset="1" stop-color="#1976d2"/></linearGradient><path fill="url(#7Y_x4E~93zIYsmmnj_L4Pd)" d="M47.487,25.891l-0.804,1.004c-0.95,1.188-2.655,1.444-3.912,0.587l-4.503-3.067L35.04,18.69 v0c1.523-1.551,3.947-1.768,5.722-0.513l6.261,4.426C48.095,23.36,48.308,24.865,47.487,25.891z M38,38l-4.007-7l-4.281-2.449 c-1.447-0.828-3.529-0.733-4.708,0.445l0,0l-0.016-0.005l4.007,7l4.379,2.468c1.447,0.828,3.431,0.714,4.61-0.465l0,0L38,38z M15.965,44.389l6.261,4.426c1.775,1.255,4.198,1.037,5.722-0.513h0l-3.228-5.725l-4.503-3.067c-1.257-0.856-2.962-0.6-3.912,0.587 L15.5,41.1C14.68,42.126,14.892,43.631,15.965,44.389z"/></svg>