<svg xmlns="http://www.w3.org/2000/svg" viewBox="0 0 64 64" width="64px" height="64px"><radialGradient id="3DJnZFVYMqRuAWpNrvJ2ka" cx="32.532" cy="45.979" r="38.069" gradientTransform="matrix(1 0 0 -1 0 66)" gradientUnits="userSpaceOnUse"><stop offset="0" stop-color="#afeeff"/><stop offset=".193" stop-color="#bbf1ff"/><stop offset=".703" stop-color="#d7f8ff"/><stop offset="1" stop-color="#e1faff"/></radialGradient><circle cx="59" cy="4" r="3" fill="url(#3DJnZFVYMqRuAWpNrvJ2ka)"/><radialGradient id="3DJnZFVYMqRuAWpNrvJ2kb" cx="-31.762" cy="36.575" r="45.682" gradientTransform="matrix(1 0 0 -1 0 66)" gradientUnits="userSpaceOnUse"><stop offset="0" stop-color="#afeeff"/><stop offset=".193" stop-color="#bbf1ff"/><stop offset=".703" stop-color="#d7f8ff"/><stop offset="1" stop-color="#e1faff"/></radialGradient><circle cx="3" cy="36" r="3" fill="url(#3DJnZFVYMqRuAWpNrvJ2kb)"/><radialGradient id="3DJnZFVYMqRuAWpNrvJ2kc" cx="32.5" cy="42.077" r="40.601" gradientTransform="matrix(1 0 0 -1 0 66)" gradientUnits="userSpaceOnUse"><stop offset="0" stop-color="#afeeff"/><stop offset=".193" stop-color="#bbf1ff"/><stop offset=".703" stop-color="#d7f8ff"/><stop offset="1" stop-color="#e1faff"/></radialGradient><path fill="url(#3DJnZFVYMqRuAWpNrvJ2kc)" d="M59.5,23h-9.393c-0.996,0-1.92-0.681-2.08-1.664C47.824,20.083,48.785,19,50,19h8.5	c2.631,0,4.735-2.258,4.479-4.942C62.756,11.718,60.657,10,58.306,10H46.5C45.672,10,45,9.328,45,8.5S45.672,7,46.5,7h2.33	c1.625,0,3.081-1.216,3.166-2.839C52.086,2.431,50.71,1,49,1H9.17C7.545,1,6.089,2.216,6.004,3.839C5.914,5.569,7.29,7,9,7h9.893	c0.996,0,1.92,0.681,2.08,1.664C21.176,9.917,20.215,11,19,11h-5.302c-1.895,0-3.594,1.419-3.693,3.312	C9.899,16.33,11.505,18,13.5,18h3c0.828,0,1.5,0.672,1.5,1.5S17.328,21,16.5,21H6.172c-2.089,0-3.955,1.527-4.153,3.607	C1.791,26.993,3.661,29,6,29h14.5c0.828,0,1.5,0.672,1.5,1.5S21.328,33,20.5,33h-8.33c-1.624,0-3.081,1.216-3.166,2.839	C8.914,37.569,10.29,39,12,39h2c1.105,0,2,0.895,2,2l0,0c0,1.105-0.895,2-2,2H6.643c-1.308,0-2.499,0.941-2.63,2.242	C3.863,46.739,5.034,48,6.5,48H39v-1h4.893c0.996,0,1.92-0.681,2.08-1.664C46.176,44.083,45.215,43,44,43h-3.5	c-0.828,0-1.5-0.672-1.5-1.5s0.672-1.5,1.5-1.5h10c1.933,0,3.5-1.567,3.5-3.5V36c0-1.657-1.343-3-3-3h-6.357	c-1.308,0-2.499-0.941-2.63-2.242C41.863,29.261,43.034,28,44.5,28h14.857c1.308,0,2.499-0.941,2.63-2.242	C62.137,24.261,60.966,23,59.5,23z"/><linearGradient id="3DJnZFVYMqRuAWpNrvJ2kd" x1="32.002" x2="32.002" y1="-5.796" y2="17.979" gradientTransform="matrix(1 0 0 -1 0 66)" gradientUnits="userSpaceOnUse"><stop offset="0" stop-color="#e9ce8e"/><stop offset="0" stop-color="#e9ce8e"/><stop offset=".241" stop-color="#f1dca9"/><stop offset=".521" stop-color="#f9e8c0"/><stop offset=".782" stop-color="#fdefcf"/><stop offset="1" stop-color="#fff2d4"/></linearGradient><path fill="url(#3DJnZFVYMqRuAWpNrvJ2kd)" d="M62,60H50.5c-0.83,0-1.5-0.67-1.5-1.5s0.67-1.5,1.5-1.5H53c0.91,0,1.76-0.58,2-1.46	c0.36-1.33-0.65-2.54-1.93-2.54h-48c-0.91,0-1.76,0.58-2,1.46C2.71,55.79,3.72,57,5,57h2.5C8.33,57,9,57.67,9,58.5S8.33,60,7.5,60	H2.07c-0.91,0-1.76,0.58-2,1.46C-0.28,62.79,0.72,64,2,64h59.93c0.91,0,1.76-0.58,2-1.46C64.29,61.21,63.28,60,62,60z"/><linearGradient id="3DJnZFVYMqRuAWpNrvJ2ke" x1="61" x2="61" y1="6.165" y2="14.81" gradientTransform="matrix(1 0 0 -1 0 66)" gradientUnits="userSpaceOnUse"><stop offset="0" stop-color="#e9ce8e"/><stop offset="0" stop-color="#e9ce8e"/><stop offset=".241" stop-color="#f1dca9"/><stop offset=".521" stop-color="#f9e8c0"/><stop offset=".782" stop-color="#fdefcf"/><stop offset="1" stop-color="#fff2d4"/></linearGradient><path fill="url(#3DJnZFVYMqRuAWpNrvJ2ke)" d="M62,57h-2c-1.105,0-2-0.895-2-2l0,0c0-1.105,0.895-2,2-2h2c1.105,0,2,0.895,2,2l0,0	C64,56.105,63.105,57,62,57z"/><linearGradient id="3DJnZFVYMqRuAWpNrvJ2kf" x1="23.5" x2="23.5" y1="1912" y2="1897" gradientTransform="translate(0 -1874)" gradientUnits="userSpaceOnUse"><stop offset="0" stop-color="#ffc662"/><stop offset=".004" stop-color="#ffc662"/><stop offset=".609" stop-color="#ffc582"/><stop offset="1" stop-color="#ffc491"/><stop offset="1" stop-color="#ffc491"/></linearGradient><path fill="url(#3DJnZFVYMqRuAWpNrvJ2kf)" d="M17.5,38c0.64,0,1.28-0.244,1.768-0.732l12-10c0.977-0.976,0.977-2.559,0-3.535	c-0.976-0.977-2.56-0.977-3.535,0l-12,10c-0.977,0.976-0.977,2.559,0,3.535C16.22,37.756,16.86,38,17.5,38z"/><linearGradient id="3DJnZFVYMqRuAWpNrvJ2kg" x1="-883.5" x2="-883.5" y1="1912" y2="1897" gradientTransform="matrix(-1 0 0 1 -843 -1874)" gradientUnits="userSpaceOnUse"><stop offset="0" stop-color="#ffc662"/><stop offset=".004" stop-color="#ffc662"/><stop offset=".609" stop-color="#ffc582"/><stop offset="1" stop-color="#ffc491"/><stop offset="1" stop-color="#ffc491"/></linearGradient><path fill="url(#3DJnZFVYMqRuAWpNrvJ2kg)" d="M48.267,37.268c0.977-0.976,0.977-2.559,0-3.535l-12-10c-0.975-0.977-2.559-0.977-3.535,0	c-0.977,0.976-0.977,2.559,0,3.535l12,10C45.221,37.756,45.861,38,46.5,38S47.78,37.756,48.267,37.268z"/><linearGradient id="3DJnZFVYMqRuAWpNrvJ2kh" x1="32" x2="32" y1="46.064" y2="55.19" gradientTransform="matrix(1 0 0 -1 0 66)" gradientUnits="userSpaceOnUse"><stop offset="0" stop-color="#ffc662"/><stop offset=".004" stop-color="#ffc662"/><stop offset=".609" stop-color="#ffc582"/><stop offset="1" stop-color="#ffc491"/><stop offset="1" stop-color="#ffc491"/></linearGradient><path fill="url(#3DJnZFVYMqRuAWpNrvJ2kh)" d="M38.317,10C37.193,7.637,34.791,6,32,6s-5.193,1.637-6.317,4H25v3c0,3.866,3.134,7,7,7	s7-3.134,7-7v-3H38.317z"/><linearGradient id="3DJnZFVYMqRuAWpNrvJ2ki" x1="32" x2="32" y1="53.957" y2="64.43" gradientTransform="matrix(1 0 0 -1 0 66)" gradientUnits="userSpaceOnUse"><stop offset="0" stop-color="#155cde"/><stop offset=".278" stop-color="#1f7fe5"/><stop offset=".569" stop-color="#279ceb"/><stop offset=".82" stop-color="#2cafef"/><stop offset="1" stop-color="#2eb5f0"/></linearGradient><path fill="url(#3DJnZFVYMqRuAWpNrvJ2ki)" d="M39,10H25l-1.434-1.912c-0.79-1.053-0.365-2.568,0.857-3.057l3.863-1.545	c2.384-0.954,5.044-0.954,7.428,0l3.863,1.545c1.222,0.489,1.647,2.004,0.857,3.057L39,10z"/><linearGradient id="3DJnZFVYMqRuAWpNrvJ2kj" x1="32" x2="32" y1="57.647" y2="52.086" gradientTransform="matrix(1 0 0 -1 0 66)" gradientUnits="userSpaceOnUse"><stop offset="0" stop-color="#a4a4a4"/><stop offset=".619" stop-color="gray"/><stop offset="1" stop-color="#6f6f6f"/><stop offset="1" stop-color="#6f6f6f"/></linearGradient><path fill="url(#3DJnZFVYMqRuAWpNrvJ2kj)" d="M26,9h12c0.552,0,1,0.448,1,1l0,0c0,2.209-1.791,4-4,4h-6c-2.209,0-4-1.791-4-4l0,0	C25,9.448,25.448,9,26,9z"/><linearGradient id="3DJnZFVYMqRuAWpNrvJ2kk" x1="32" x2="32" y1="6.532" y2="46.765" gradientTransform="matrix(1 0 0 -1 0 66)" gradientUnits="userSpaceOnUse"><stop offset="0" stop-color="#155cde"/><stop offset=".278" stop-color="#1f7fe5"/><stop offset=".569" stop-color="#279ceb"/><stop offset=".82" stop-color="#2cafef"/><stop offset="1" stop-color="#2eb5f0"/></linearGradient><path fill="url(#3DJnZFVYMqRuAWpNrvJ2kk)" d="M41.5,38.5c0-2.472-0.952-4.717-2.5-6.407V29c0-4.16-3.68-7.5-7.94-6.94	c-3.52,0.47-6.06,3.65-6.06,7.2v2.833c-1.548,1.69-2.5,3.934-2.5,6.407s0.952,4.717,2.5,6.407V57.41c0,1.14,0.72,2.2,1.82,2.5	C28.48,60.35,30,59.1,30,57.5V50c0-1.1,0.9-2,2-2c1.1,0,2,0.9,2,2v7.41c0,1.14,0.72,2.2,1.82,2.5C37.48,60.35,39,59.1,39,57.5	V44.907C40.548,43.217,41.5,40.972,41.5,38.5z"/></svg>