<svg xmlns="http://www.w3.org/2000/svg" viewBox="0 0 64 64" width="64px" height="64px"><radialGradient id="2if7zscK5VwC~5AAomY3Ka" cx="31.702" cy="31.383" r="59.555" gradientTransform="matrix(1 0 0 -1 0 66)" gradientUnits="userSpaceOnUse"><stop offset="0" stop-color="#afeeff"/><stop offset=".193" stop-color="#bbf1ff"/><stop offset=".703" stop-color="#d7f8ff"/><stop offset="1" stop-color="#e1faff"/></radialGradient><path fill="url(#2if7zscK5VwC~5AAomY3Ka)" d="M59.999,53h-1.896c-0.809-0.021-1.608-0.396-1.923-1.141C55.564,50.401,56.618,49,58,49h2.385	c1.67,0,3.195-1.122,3.537-2.757C64.392,43.998,62.668,42,60.5,42H47c-1.105,0-2-0.895-2-2s0.895-2,2-2h13c1.657,0,3-1.343,3-3	s-1.343-3-3-3H42V21h18c2.335,0,4.22-2.028,3.979-4.41c-0.21-2.075-2.082-3.59-4.168-3.59H55.5c-1.381,0-2.5-1.119-2.5-2.5	S54.119,8,55.5,8H58c1.657,0,3-1.343,3-3s-1.343-3-3-3H46c-1.105,0-25.785,0-27,0H4.189C2.103,2,0.231,3.514,0.021,5.59	C-0.22,7.972,1.665,10,4,10h2.302c1.733,0,3.348,1.166,3.644,2.873C10.329,15.083,8.638,17,6.5,17H4.189	c-2.086,0-3.958,1.514-4.168,3.59C-0.22,22.972,1.665,25,4,25h18v9H5c-1.657,0-3,1.343-3,3s1.343,3,3,3h17v3H3c-1.657,0-3,1.343-3,3	s1.343,3,3,3h2c1.215,0,2.176,1.083,1.973,2.336C6.813,52.319,5.889,53,4.893,53H4.189c-2.086,0-3.958,1.514-4.168,3.59	C-0.22,58.972,1.665,61,4,61h56c2.209,0,4-1.791,4-4S62.209,53,59.999,53z"/><linearGradient id="2if7zscK5VwC~5AAomY3Kb" x1="32" x2="32" y1="5.336" y2="67.549" gradientTransform="matrix(1 0 0 -1 0 66)" gradientUnits="userSpaceOnUse"><stop offset="0" stop-color="#ff735d"/><stop offset=".137" stop-color="#fe746b"/><stop offset=".486" stop-color="#fc758a"/><stop offset=".783" stop-color="#fa769d"/><stop offset=".989" stop-color="#fa76a4"/><stop offset="1" stop-color="#fa76a4"/></linearGradient><path fill="url(#2if7zscK5VwC~5AAomY3Kb)" d="M59.63,24.89C58.17,20.01,51.17,18.39,43,19c-1.67-7.59-6.1-13.88-11-14	c-4.9,0.12-9.33,6.41-11,14c-8.17-0.61-15.17,1.01-16.63,5.89C2.98,29.59,6.3,36.06,13,40c-3.11,7.59-2.23,13.8,1.96,16.68	C19,59.47,26.18,57.16,32,52c5.82,5.16,13,7.47,17.04,4.68C53.23,53.8,54.11,47.59,51,40C57.7,36.06,61.02,29.59,59.63,24.89z"/><linearGradient id="2if7zscK5VwC~5AAomY3Kc" x1="31.923" x2="31.923" y1="17.539" y2="50.009" gradientTransform="matrix(1 0 0 -1 0 66)" gradientUnits="userSpaceOnUse"><stop offset="0" stop-color="#ffda76"/><stop offset=".335" stop-color="#ffe075"/><stop offset="1" stop-color="#ffe673"/></linearGradient><path fill="url(#2if7zscK5VwC~5AAomY3Kc)" d="M47.907,27.72c-0.69-2.45-5.36-3.36-11.02-2.37c-0.45-5.3-1.887-9.313-4.964-9.313	c-2.924,0-4.514,4.013-4.964,9.313c-5.66-0.99-10.33-0.08-11.02,2.37c-0.65,2.33,2.16,5.22,7.07,7.29c-2.7,5.06-2.93,9.89-0.8,11.3	c2.005,1.33,6.238-0.27,9.714-4.226c3.476,3.957,7.708,5.557,9.714,4.226c2.13-1.41,1.9-6.24-0.8-11.3	C45.747,32.94,48.557,30.05,47.907,27.72z"/><linearGradient id="2if7zscK5VwC~5AAomY3Kd" x1="32" x2="32" y1="25.681" y2="53.351" gradientTransform="matrix(1 0 0 -1 0 66)" gradientUnits="userSpaceOnUse"><stop offset="0" stop-color="#ff634d"/><stop offset=".204" stop-color="#fe6464"/><stop offset=".521" stop-color="#fc6581"/><stop offset=".794" stop-color="#fa6694"/><stop offset=".989" stop-color="#fa669a"/><stop offset="1" stop-color="#fa669a"/></linearGradient><circle cx="32" cy="33" r="5" fill="url(#2if7zscK5VwC~5AAomY3Kd)"/></svg>