<svg xmlns="http://www.w3.org/2000/svg" viewBox="0 0 64 64" width="64px" height="64px"><radialGradient id="c46_3fHtbkN7ptYciGUvRa" cx="32" cy="34" r="31.017" gradientTransform="matrix(1 0 0 -1 0 66)" gradientUnits="userSpaceOnUse"><stop offset="0" stop-color="#afeeff"/><stop offset=".193" stop-color="#bbf1ff"/><stop offset=".703" stop-color="#d7f8ff"/><stop offset="1" stop-color="#e1faff"/></radialGradient><path fill="url(#c46_3fHtbkN7ptYciGUvRa)" d="M64,48.13C63.93,49.77,62.45,51,60.81,51H58.5c-1.46,0-2.62,1.24-2.49,2.73	c0.12,1.32,1.34,2.27,2.67,2.27H59c1.7,0,3.07,1.41,3,3.13C61.93,60.77,60.45,62,58.81,62H5c-2.24,0-3.89-2.43-2.47-4.8	C2.99,56.43,3.87,56,4.77,56H5.5c1.45,0,2.62-1.24,2.49-2.73C7.87,51.95,6.65,51,5.32,51H3c-2.24,0-3.89-2.43-2.47-4.8	C0.99,45.43,1.87,45,2.77,45H14.5c1.45,0,2.62-1.24,2.49-2.73C16.87,40.95,15.65,40,14.32,40H2.5c-1.58,0-2.82-1.46-2.43-3.1	C0.34,35.75,1.46,35,2.64,35H4c0.55,0,1.05-0.22,1.41-0.59c0.32-0.31,0.53-0.73,0.58-1.2C6.11,32,5.03,31,3.81,31H3.69	c-1.47,0-2.79-1.21-2.68-2.69c0.04-0.61,0.31-1.17,0.72-1.58C2.18,26.28,2.81,26,3.5,26h6c1.93,0,3.5-1.57,3.5-3.5S11.43,19,9.5,19	H3c-1.83,0-3.3-1.67-2.95-3.56C0.32,13.99,1.7,13,3.18,13H17.5c1.38,0,2.5-1.62,2.5-3s-1.12-3-2.5-3h-11C4.92,7,3.67,5.52,4.07,3.88	C4.36,2.74,5.48,2,6.66,2H56.5c1.6,0,2.85,1.52,2.41,3.18C58.61,6.28,57.55,7,56.41,7H46.5C45.67,7,44,7.57,44,9.57	S45.67,12,46.5,12h15.43c0.3,0,0.59,0.1,0.8,0.31C65.33,14.87,63.52,18,61,18h-5.5c-2.21,0-4,1.79-4,4s1.79,4,4,4h6	c1.6,0,2.85,1.52,2.41,3.18c-0.3,1.1-1.36,1.82-2.5,1.82H60c-0.56,0-1.06,0.22-1.42,0.59C58.22,31.95,58,32.45,58,33	c0,1.1,0.89,2,2,2h1c1.7,0,3.07,1.42,3,3.14C63.92,39.77,62.44,41,60.8,41H49c-0.56,0-1.06,0.22-1.42,0.59	C47.22,41.95,47,42.45,47,43c0,1.1,0.89,2,2,2h12C62.7,45,64.07,46.41,64,48.13z"/><linearGradient id="c46_3fHtbkN7ptYciGUvRb" x1="43.5" x2="43.5" y1="44.872" y2="60.437" gradientTransform="matrix(1 0 0 -1 0 66)" gradientUnits="userSpaceOnUse"><stop offset="0" stop-color="#fbaa5e"/><stop offset="1" stop-color="#ffbb70"/></linearGradient><circle cx="43.5" cy="12.5" r="7.5" fill="url(#c46_3fHtbkN7ptYciGUvRb)"/><linearGradient id="c46_3fHtbkN7ptYciGUvRc" x1="44" x2="44" y1="44.395" y2="56.397" gradientTransform="matrix(1 0 0 -1 0 66)" gradientUnits="userSpaceOnUse"><stop offset="0" stop-color="#f5cb63"/><stop offset=".076" stop-color="#f6cc6a"/><stop offset=".458" stop-color="#fdd088"/><stop offset=".672" stop-color="#ffd194"/><stop offset="1" stop-color="#ffd194"/></linearGradient><circle cx="44" cy="12" r="4" fill="url(#c46_3fHtbkN7ptYciGUvRc)"/><linearGradient id="c46_3fHtbkN7ptYciGUvRd" x1="20.5" x2="20.5" y1="44.872" y2="60.437" gradientTransform="matrix(1 0 0 -1 0 66)" gradientUnits="userSpaceOnUse"><stop offset="0" stop-color="#fbaa5e"/><stop offset="1" stop-color="#ffbb70"/></linearGradient><circle cx="20.5" cy="12.5" r="7.5" fill="url(#c46_3fHtbkN7ptYciGUvRd)"/><linearGradient id="c46_3fHtbkN7ptYciGUvRe" x1="20" x2="20" y1="44.395" y2="56.397" gradientTransform="matrix(1 0 0 -1 0 66)" gradientUnits="userSpaceOnUse"><stop offset="0" stop-color="#f5cb63"/><stop offset=".076" stop-color="#f6cc6a"/><stop offset=".458" stop-color="#fdd088"/><stop offset=".672" stop-color="#ffd194"/><stop offset="1" stop-color="#ffd194"/></linearGradient><circle cx="20" cy="12" r="4" fill="url(#c46_3fHtbkN7ptYciGUvRe)"/><linearGradient id="c46_3fHtbkN7ptYciGUvRf" x1="32" x2="32" y1="11.66" y2="31.583" gradientTransform="matrix(1 0 0 -1 0 66)" gradientUnits="userSpaceOnUse"><stop offset="0" stop-color="#fbaa5e"/><stop offset="1" stop-color="#ffbb70"/></linearGradient><path fill="url(#c46_3fHtbkN7ptYciGUvRf)" d="M17.933,43.159C17.933,34.872,24.231,27,32,27s14.067,7.872,14.067,16.159S39.769,56,32,56	S17.933,51.446,17.933,43.159z"/><linearGradient id="c46_3fHtbkN7ptYciGUvRg" x1="32" x2="32" y1="3.192" y2="24.195" gradientTransform="matrix(1 0 0 -1 0 66)" gradientUnits="userSpaceOnUse"><stop offset="0" stop-color="#f5cb63"/><stop offset=".076" stop-color="#f6cc6a"/><stop offset=".458" stop-color="#fdd088"/><stop offset=".672" stop-color="#ffd194"/><stop offset="1" stop-color="#ffd194"/></linearGradient><circle cx="32" cy="46" r="7" fill="url(#c46_3fHtbkN7ptYciGUvRg)"/><linearGradient id="c46_3fHtbkN7ptYciGUvRh" x1="19.204" x2="19.204" y1="16.192" y2="40.512" gradientTransform="matrix(1 0 0 -1 0 66)" gradientUnits="userSpaceOnUse"><stop offset="0" stop-color="#fbaa5e"/><stop offset="1" stop-color="#ffbb70"/></linearGradient><path fill="url(#c46_3fHtbkN7ptYciGUvRh)" d="M29.69,34.01c-0.76,0.99-2.04,1.39-3.2,1.87c-3.34,1.39-6.15,3.93-8.3,6.81	c-0.14,0.2-0.34,0.46-0.39,0.56c-0.27,0.55-0.62,1.03-1.04,1.43c-1.51,1.45-3.83,1.88-5.82,0.91c-2.53-1.25-3.58-4.32-2.33-6.85	c0.29-0.6,0.72-1.13,1.19-1.62c0.13-0.13,0.26-0.25,0.39-0.38c0.39-0.37,0.78-0.71,1.16-1.04c1.1-0.98,2.27-1.88,3.49-2.7	c2.45-1.63,5.13-2.91,7.94-3.79c0.74-0.24,1.5-0.34,2.24-0.55c0.84-0.24,1.75-0.27,2.6-0.01c1.08,0.33,2.02,1.12,2.45,2.16	C30.51,31.85,30.38,33.12,29.69,34.01z"/><linearGradient id="c46_3fHtbkN7ptYciGUvRi" x1="44.81" x2="44.81" y1="16.192" y2="40.512" gradientTransform="matrix(1 0 0 -1 0 66)" gradientUnits="userSpaceOnUse"><stop offset="0" stop-color="#fbaa5e"/><stop offset="1" stop-color="#ffbb70"/></linearGradient><path fill="url(#c46_3fHtbkN7ptYciGUvRi)" d="M54.39,44.64c-1.99,1.96-5.08,1.86-7.09,0c-0.03-0.03-0.06-0.06-0.09-0.09	c-0.4-0.37-0.75-0.8-1.07-1.25c-0.22-0.3-0.43-0.6-0.62-0.91c-0.49-0.76-1.08-1.37-1.71-2.02c-1.81-1.87-3.94-3.59-6.39-4.58	c-1.12-0.45-2.23-0.64-3-1.66c-0.68-0.89-0.89-2.09-0.55-3.16c0.5-1.59,2.03-2.57,3.62-2.43c5.93,0.49,11.61,3.8,15.88,7.81	c0.26,0.25,0.52,0.5,0.76,0.76c0.9,0.93,1.6,1.94,1.75,3.32C56.05,41.98,55.5,43.55,54.39,44.64z"/><linearGradient id="c46_3fHtbkN7ptYciGUvRj" x1="12.541" x2="12.541" y1="5.745" y2="31.851" gradientTransform="matrix(1 0 0 -1 0 66)" gradientUnits="userSpaceOnUse"><stop offset="0" stop-color="#f5cb63"/><stop offset=".076" stop-color="#f6cc6a"/><stop offset=".458" stop-color="#fdd088"/><stop offset=".672" stop-color="#ffd194"/><stop offset="1" stop-color="#ffd194"/></linearGradient><path fill="url(#c46_3fHtbkN7ptYciGUvRj)" d="M17,43c0,0.58-0.08,1.15-0.24,1.68c-1.51,1.45-3.83,1.88-5.82,0.91	c-2.53-1.25-3.58-4.32-2.33-6.85c0.29-0.6,0.72-1.13,1.19-1.62C10.19,37.04,10.59,37,11,37C14.31,37,17,39.69,17,43z"/><linearGradient id="c46_3fHtbkN7ptYciGUvRk" x1="51.455" x2="51.455" y1="5.745" y2="31.851" gradientTransform="matrix(1 0 0 -1 0 66)" gradientUnits="userSpaceOnUse"><stop offset="0" stop-color="#f5cb63"/><stop offset=".076" stop-color="#f6cc6a"/><stop offset=".458" stop-color="#fdd088"/><stop offset=".672" stop-color="#ffd194"/><stop offset="1" stop-color="#ffd194"/></linearGradient><path fill="url(#c46_3fHtbkN7ptYciGUvRk)" d="M54.39,44.64c-1.99,1.96-5.08,1.86-7.09,0c-0.03-0.03-0.06-0.06-0.09-0.09	C47.07,44.06,47,43.54,47,43c0-3.31,2.69-6,6-6c0.39,0,0.77,0.04,1.13,0.11c0.9,0.93,1.6,1.94,1.75,3.32	C56.05,41.98,55.5,43.55,54.39,44.64z"/><linearGradient id="c46_3fHtbkN7ptYciGUvRl" x1="32" x2="32" y1="25.34" y2="56.643" gradientTransform="matrix(1 0 0 -1 0 66)" gradientUnits="userSpaceOnUse"><stop offset="0" stop-color="#fbaa5e"/><stop offset="1" stop-color="#ffbb70"/></linearGradient><path fill="url(#c46_3fHtbkN7ptYciGUvRl)" d="M16,22.133C16,14.475,23.163,7.2,32,7.2s16,7.275,16,14.933S40.837,36,32,36	S16,29.792,16,22.133z"/><linearGradient id="c46_3fHtbkN7ptYciGUvRm" x1="21.629" x2="21.629" y1="7.34" y2="20.209" gradientTransform="matrix(1 0 0 -1 0 66)" gradientUnits="userSpaceOnUse"><stop offset="0" stop-color="#fbaa5e"/><stop offset="1" stop-color="#ffbb70"/></linearGradient><path fill="url(#c46_3fHtbkN7ptYciGUvRm)" d="M28.874,49.042c1.286,4.801-0.914,9.562-4.915,10.634s-8.287-1.951-9.574-6.752	s0.914-9.562,4.915-10.634S27.587,44.241,28.874,49.042z"/><linearGradient id="c46_3fHtbkN7ptYciGUvRn" x1="42.511" x2="42.511" y1="7.34" y2="20.209" gradientTransform="matrix(1 0 0 -1 0 66)" gradientUnits="userSpaceOnUse"><stop offset="0" stop-color="#fbaa5e"/><stop offset="1" stop-color="#ffbb70"/></linearGradient><path fill="url(#c46_3fHtbkN7ptYciGUvRn)" d="M49.756,52.962c-1.286,4.801-5.573,7.824-9.574,6.752s-6.202-5.833-4.915-10.634	s5.573-7.824,9.574-6.752S51.043,48.161,49.756,52.962z"/><linearGradient id="c46_3fHtbkN7ptYciGUvRo" x1="-116.022" x2="-116.022" y1="-101.941" y2="-86.939" gradientTransform="scale(1 -1) rotate(14.999 -195.387 449.95)" gradientUnits="userSpaceOnUse"><stop offset="0" stop-color="#f5cb63"/><stop offset=".076" stop-color="#f6cc6a"/><stop offset=".458" stop-color="#fdd088"/><stop offset=".672" stop-color="#ffd194"/><stop offset="1" stop-color="#ffd194"/></linearGradient><path fill="url(#c46_3fHtbkN7ptYciGUvRo)" d="M24.864,49.965c0.715,2.667-0.436,5.293-2.57,5.865c-2.134,0.572-4.443-1.127-5.158-3.794	s0.436-5.293,2.57-5.865C21.84,45.599,24.149,47.297,24.864,49.965z"/><linearGradient id="c46_3fHtbkN7ptYciGUvRp" x1="148.228" x2="148.228" y1="139.793" y2="154.795" gradientTransform="scale(1 -1) rotate(-14.999 -674.622 450.056)" gradientUnits="userSpaceOnUse"><stop offset="0" stop-color="#f5cb63"/><stop offset=".076" stop-color="#f6cc6a"/><stop offset=".458" stop-color="#fdd088"/><stop offset=".672" stop-color="#ffd194"/><stop offset="1" stop-color="#ffd194"/></linearGradient><path fill="url(#c46_3fHtbkN7ptYciGUvRp)" d="M46.864,52.035c-0.715,2.667-3.024,4.366-5.158,3.794c-2.134-0.572-3.284-3.198-2.57-5.865	c0.715-2.667,3.024-4.366,5.158-3.794S47.578,49.368,46.864,52.035z"/><linearGradient id="c46_3fHtbkN7ptYciGUvRq" x1="32" x2="32" y1="22.192" y2="43.195" gradientTransform="matrix(1 0 0 -1 0 66)" gradientUnits="userSpaceOnUse"><stop offset="0" stop-color="#f5cb63"/><stop offset=".076" stop-color="#f6cc6a"/><stop offset=".458" stop-color="#fdd088"/><stop offset=".672" stop-color="#ffd194"/><stop offset="1" stop-color="#ffd194"/></linearGradient><ellipse cx="32" cy="27" fill="url(#c46_3fHtbkN7ptYciGUvRq)" rx="9" ry="7"/><linearGradient id="c46_3fHtbkN7ptYciGUvRr" x1="32" x2="32" y1="36.497" y2="43.998" gradientTransform="matrix(1 0 0 -1 0 66)" gradientUnits="userSpaceOnUse"><stop offset="0" stop-color="#e3714d"/><stop offset=".25" stop-color="#e4754e"/><stop offset="1" stop-color="#e77b50"/></linearGradient><path fill="url(#c46_3fHtbkN7ptYciGUvRr)" d="M28,23c0-1.105,2.343-2,4-2c1.657,0,4,0.895,4,2s-2.343,3-4,3C30.343,26,28,24.105,28,23z"/><circle cx="25" cy="20" r="2" fill="#717171"/><circle cx="39" cy="20" r="2" fill="#717171"/><linearGradient id="c46_3fHtbkN7ptYciGUvRs" x1="30.302" x2="30.302" y1="35.828" y2="44" gradientTransform="matrix(1 0 0 -1 0 66)" gradientUnits="userSpaceOnUse"><stop offset="0" stop-color="#e3714d"/><stop offset=".25" stop-color="#e4754e"/><stop offset="1" stop-color="#e77b50"/></linearGradient><path fill="url(#c46_3fHtbkN7ptYciGUvRs)" d="M28.354,27.646c0.319,0.21,0.687,0.55,0.897,0.622c0.245,0.11,0.507,0.146,0.749,0.107	c0.241-0.049,0.455-0.147,0.622-0.292c0.103-0.093,0.442-0.497,0.687-0.774L31.023,28c-0.049-0.833-0.067-1.667-0.088-2.5	c0-0.833,0.001-1.667,0.064-2.5c0.042-0.552,0.524-0.966,1.076-0.924C32.577,22.114,32.964,22.514,33,23	c0.063,0.833,0.064,1.667,0.064,2.5c-0.021,0.833-0.039,1.667-0.088,2.5l-0.009,0.149c-0.013,0.219-0.12,0.413-0.278,0.542	c-0.335,0.272-0.51,0.492-1.056,0.869c-0.492,0.31-1.076,0.451-1.635,0.408c-0.557-0.044-1.093-0.249-1.507-0.593	c-0.439-0.399-0.585-0.682-0.846-1.021c-0.17-0.22-0.129-0.536,0.091-0.706c0.175-0.135,0.409-0.137,0.584-0.022L28.354,27.646z"/><linearGradient id="c46_3fHtbkN7ptYciGUvRt" x1="33.696" x2="33.696" y1="35.828" y2="44" gradientTransform="matrix(1 0 0 -1 0 66)" gradientUnits="userSpaceOnUse"><stop offset="0" stop-color="#e3714d"/><stop offset=".25" stop-color="#e4754e"/><stop offset="1" stop-color="#e77b50"/></linearGradient><path fill="url(#c46_3fHtbkN7ptYciGUvRt)" d="M36.354,28.354c-0.261,0.339-0.407,0.622-0.846,1.021c-0.414,0.344-0.95,0.549-1.507,0.593	c-0.559,0.044-1.142-0.098-1.635-0.407c-0.546-0.377-0.721-0.597-1.056-0.87c-0.17-0.139-0.265-0.336-0.277-0.539L31.023,28	c-0.049-0.833-0.067-1.667-0.088-2.5c0-0.833,0.001-1.667,0.064-2.5c0.042-0.552,0.524-0.966,1.076-0.924	C32.577,22.114,32.964,22.514,33,23c0.063,0.833,0.064,1.667,0.064,2.5c-0.021,0.833-0.039,1.667-0.088,2.5l-0.286-0.691	c0.245,0.276,0.584,0.68,0.687,0.774c0.167,0.145,0.381,0.243,0.622,0.292c0.243,0.039,0.504,0.004,0.749-0.107	c0.21-0.072,0.578-0.412,0.897-0.622l0.031-0.021c0.232-0.153,0.544-0.089,0.697,0.143C36.496,27.953,36.481,28.188,36.354,28.354z"/></svg>