<svg xmlns="http://www.w3.org/2000/svg" viewBox="0 0 64 64" width="64px" height="64px"><radialGradient id="VXBX9MUzj525PiB5fDQAla" cx="6" cy="19.5" r="13.852" gradientTransform="matrix(1 0 0 -1 0 66)" gradientUnits="userSpaceOnUse"><stop offset="0" stop-color="#c5f1ff"/><stop offset=".35" stop-color="#cdf3ff"/><stop offset=".907" stop-color="#e4faff"/><stop offset="1" stop-color="#e9fbff"/></radialGradient><path fill="url(#VXBX9MUzj525PiB5fDQAla)" d="M0.019,41.393C0.217,43.473,2.083,45,4.172,45h3.186c1.308,0,2.499,0.941,2.629,2.243	C10.137,48.739,8.966,50,7.5,50H4c-1.657,0-3,1.343-3,3l0,0c0,1.657,1.343,3,3,3h8v-1v-5V37H4C1.661,37-0.209,39.008,0.019,41.393z"/><radialGradient id="VXBX9MUzj525PiB5fDQAlb" cx="54" cy="48" r="15.788" gradientTransform="matrix(1 0 0 -1 0 66)" gradientUnits="userSpaceOnUse"><stop offset="0" stop-color="#c5f1ff"/><stop offset=".35" stop-color="#cdf3ff"/><stop offset=".907" stop-color="#e4faff"/><stop offset="1" stop-color="#e9fbff"/></radialGradient><path fill="url(#VXBX9MUzj525PiB5fDQAlb)" d="M64,22c0-2.209-1.791-4-4-4h-1c-1.104,0-2-0.895-2-2c0-1.104,0.895-2,2-2l0,0	c1.104,0,2-0.895,2-2c0-1.104-0.896-2-2-2H44l4,16h12C62.209,26,64,24.209,64,22z"/><radialGradient id="VXBX9MUzj525PiB5fDQAlc" cx="57.5" cy="22.5" r="16.836" gradientTransform="matrix(1 0 0 -1 0 66)" gradientUnits="userSpaceOnUse"><stop offset="0" stop-color="#c5f1ff"/><stop offset=".35" stop-color="#cdf3ff"/><stop offset=".907" stop-color="#e4faff"/><stop offset="1" stop-color="#e9fbff"/></radialGradient><path fill="url(#VXBX9MUzj525PiB5fDQAlc)" d="M58.828,41H57.17c-1.625,0-3.081-1.217-3.166-2.839C54.001,38.107,54,38.053,54,38	c0.001-1.656,1.344-3,3-3c1.106,0,2.002-0.897,2-2.003c0-0.109-0.009-0.22-0.027-0.333C58.812,31.681,57.89,31,56.893,31H52v6v19	h5.357c1.308,0,2.499-0.941,2.63-2.242C59.996,53.67,60,53.583,60,53.497C59.999,52.118,58.88,51,57.5,51H56c-0.553,0-1-0.447-1-1	s0.447-1,1-1h3c2.211,0,4.003-1.794,4-4.005c0-0.128-0.006-0.257-0.019-0.388C62.783,42.527,60.917,41,58.828,41z"/><radialGradient id="VXBX9MUzj525PiB5fDQAld" cx="11.5" cy="44" r="15.011" gradientTransform="matrix(1 0 0 -1 0 66)" gradientUnits="userSpaceOnUse"><stop offset="0" stop-color="#c5f1ff"/><stop offset=".35" stop-color="#cdf3ff"/><stop offset=".907" stop-color="#e4faff"/><stop offset="1" stop-color="#e9fbff"/></radialGradient><path fill="url(#VXBX9MUzj525PiB5fDQAld)" d="M17,18H5.459H4c-2.209,0-4,1.791-4,4s1.791,4,4,4h1.459H17h6v-8H17z"/><linearGradient id="VXBX9MUzj525PiB5fDQAle" x1="-1600.168" x2="-1599.168" y1="1212.842" y2="1212.842" gradientTransform="matrix(-31.6671 0 0 31.6671 -50655.348 -38394.68)" gradientUnits="userSpaceOnUse"><stop offset="0" stop-color="#c5f1ff"/><stop offset="1" stop-color="#e9fbff"/></linearGradient><path fill="url(#VXBX9MUzj525PiB5fDQAle)" d="M5.5,10h-2C2.119,10,1,11.119,1,12.5S2.119,15,3.5,15h2C6.881,15,8,13.881,8,12.5	S6.881,10,5.5,10"/><linearGradient id="VXBX9MUzj525PiB5fDQAlf" x1="13.499" x2="13.499" y1="12.621" y2="62.738" gradientTransform="matrix(1 0 0 -1 0 66)" gradientUnits="userSpaceOnUse"><stop offset="0" stop-color="#f5cb63"/><stop offset=".076" stop-color="#f6cc6a"/><stop offset=".458" stop-color="#fdd088"/><stop offset=".672" stop-color="#ffd194"/><stop offset="1" stop-color="#ffd194"/></linearGradient><path fill="url(#VXBX9MUzj525PiB5fDQAlf)" d="M24,10L13.89,34l-2.36,2.33C10.45,37.4,8.98,38,7.45,38c-0.21,0-0.43-0.02-0.64-0.05	c-0.58-0.09-1.11-0.3-1.59-0.61c-0.65-0.42-1.17-1.02-1.5-1.76c-0.99-2.29-0.95-4.86,0.05-7.08c0.24-0.54,0.54-1.06,0.89-1.55	l0.16-0.2c0.75-1.04,1.78-3.76,2.51-5.86c0.33-0.95,0.59-1.93,0.83-2.91c0.1-0.39,0.19-0.79,0.28-1.19	c0.81-3.62,3.77-6.26,7.54-6.72c0.31-0.04,0.63-0.06,0.95-0.07C16.93,10,24,10,24,10z"/><linearGradient id="VXBX9MUzj525PiB5fDQAlg" x1="50.499" x2="50.499" y1="12.621" y2="62.738" gradientTransform="matrix(1 0 0 -1 0 66)" gradientUnits="userSpaceOnUse"><stop offset="0" stop-color="#f5cb63"/><stop offset=".076" stop-color="#f6cc6a"/><stop offset=".458" stop-color="#fdd088"/><stop offset=".672" stop-color="#ffd194"/><stop offset="1" stop-color="#ffd194"/></linearGradient><path fill="url(#VXBX9MUzj525PiB5fDQAlg)" d="M60.27,35.57c-0.33,0.74-0.85,1.35-1.5,1.77C58.12,37.76,57.34,38,56.53,38	c-1.55,0-3.03-0.6-4.11-1.67L50.03,34L40,10h7.14c0.29,0.01,0.59,0.02,0.88,0.07c0.05,0,0.09,0.01,0.14,0.02	c3.7,0.47,6.5,3.04,7.34,6.58c0.1,0.44,0.21,0.88,0.31,1.31c0.25,0.99,0.51,1.98,0.85,2.94c0.73,2.1,1.76,4.79,2.52,5.83l0.14,0.2	C61.15,29.46,61.51,32.73,60.27,35.57z"/><linearGradient id="VXBX9MUzj525PiB5fDQAlh" x1="32" x2="32" y1="6.565" y2="65.308" gradientTransform="matrix(1 0 0 -1 0 66)" gradientUnits="userSpaceOnUse"><stop offset="0" stop-color="#ffc050"/><stop offset=".004" stop-color="#ffc050"/><stop offset=".641" stop-color="#ffbe75"/><stop offset="1" stop-color="#ffbd85"/><stop offset="1" stop-color="#ffbd85"/></linearGradient><path fill="url(#VXBX9MUzj525PiB5fDQAlh)" d="M52,29.82V56H12V29.82c0-4.2,1.1-8.12,3-11.46c1.79-3.15,4.31-5.77,7.28-7.59	c0.07-0.04,0.14-0.09,0.22-0.12c0.42-0.25,0.84-0.49,1.28-0.7c0.9-0.46,1.84-0.84,2.81-1.14l0.03,0.02c1.28-0.39,2.6-0.66,3.96-0.77	C31.03,8.02,31.49,8,31.95,8c0,0,0,0,0.01,0h0.07c0,0,0,0,0.01,0c0,0,0,0,0.01,0c0.46,0,0.92,0.02,1.37,0.06	c0.27,0.02,0.55,0.05,0.82,0.09c0.17,0.02,0.33,0.05,0.5,0.07c0.02,0,0.03,0.01,0.05,0.01c0.88,0.14,1.75,0.34,2.59,0.6l0.03-0.02	c0.97,0.3,1.91,0.68,2.81,1.14c0.44,0.21,0.86,0.45,1.28,0.7c0.08,0.03,0.15,0.08,0.22,0.12c2.97,1.82,5.48,4.44,7.28,7.59	C50.9,21.7,52,25.62,52,29.82z"/><linearGradient id="VXBX9MUzj525PiB5fDQAli" x1="32" x2="32" y1="15.319" y2="34.474" gradientTransform="matrix(1 0 0 -1 0 66)" gradientUnits="userSpaceOnUse"><stop offset="0" stop-color="#ff5840"/><stop offset=".007" stop-color="#ff5840"/><stop offset=".989" stop-color="#fa528c"/><stop offset="1" stop-color="#fa528c"/></linearGradient><path fill="url(#VXBX9MUzj525PiB5fDQAli)" d="M32,48L32,48c-1.657,0-3-1.343-3-3v-6h6v6C35,46.657,33.657,48,32,48z"/><linearGradient id="VXBX9MUzj525PiB5fDQAlj" x1="26.5" x2="26.5" y1="2.417" y2="50.025" gradientTransform="matrix(1 0 0 -1 0 66)" gradientUnits="userSpaceOnUse"><stop offset="0" stop-color="#f5cb63"/><stop offset=".076" stop-color="#f6cc6a"/><stop offset=".458" stop-color="#fdd088"/><stop offset=".672" stop-color="#ffd194"/><stop offset="1" stop-color="#ffd194"/></linearGradient><path fill="url(#VXBX9MUzj525PiB5fDQAlj)" d="M26,43h1c3.314,0,6-2.686,6-6l0,0c0-3.314-2.686-6-6-6h-1c-3.314,0-6,2.686-6,6l0,0	C20,40.314,22.686,43,26,43z"/><linearGradient id="VXBX9MUzj525PiB5fDQAlk" x1="37.5" x2="37.5" y1="2.417" y2="50.025" gradientTransform="matrix(1 0 0 -1 0 66)" gradientUnits="userSpaceOnUse"><stop offset="0" stop-color="#f5cb63"/><stop offset=".076" stop-color="#f6cc6a"/><stop offset=".458" stop-color="#fdd088"/><stop offset=".672" stop-color="#ffd194"/><stop offset="1" stop-color="#ffd194"/></linearGradient><path fill="url(#VXBX9MUzj525PiB5fDQAlk)" d="M37,43h1c3.314,0,6-2.686,6-6l0,0c0-3.314-2.686-6-6-6h-1c-3.314,0-6,2.686-6,6l0,0	C31,40.314,33.686,43,37,43z"/><linearGradient id="VXBX9MUzj525PiB5fDQAll" x1="16.5" x2="16.5" y1="7.059" y2="29.459" gradientTransform="matrix(1 0 0 -1 0 66)" gradientUnits="userSpaceOnUse"><stop offset="0" stop-color="#ffc96a"/><stop offset=".004" stop-color="#ffc96a"/><stop offset=".578" stop-color="#ffc887"/><stop offset="1" stop-color="#ffc797"/><stop offset="1" stop-color="#ffc797"/></linearGradient><path fill="url(#VXBX9MUzj525PiB5fDQAll)" d="M21,53c0,1.66-1.34,3-3,3h-6V43h4.88c1,0,1.93,0.68,2.09,1.66C19.18,45.91,18.21,47,17,47	h-1.5c-0.83,0-1.5,0.67-1.5,1.5s0.67,1.5,1.5,1.5H18c0.83,0,1.58,0.34,2.12,0.88C20.66,51.42,21,52.17,21,53z"/><linearGradient id="VXBX9MUzj525PiB5fDQAlm" x1="46" x2="46" y1="-11.447" y2="30.08" gradientTransform="matrix(1 0 0 -1 0 66)" gradientUnits="userSpaceOnUse"><stop offset="0" stop-color="#ffa241"/><stop offset=".926" stop-color="#ffaf6c"/><stop offset="1" stop-color="#ffb070"/><stop offset="1" stop-color="#ffb070"/></linearGradient><path fill="url(#VXBX9MUzj525PiB5fDQAlm)" d="M52,44v12h-9.5c-0.69,0-1.32-0.28-1.77-0.73S40,54.19,40,53.5c0-1.38,1.12-2.5,2.5-2.5h3	c0.83,0,1.5-0.67,1.5-1.5S46.33,48,45.5,48H45c-0.55,0-1.05-0.22-1.41-0.59C43.22,47.05,43,46.55,43,46c0-1.1,0.9-2,2-2H52z"/><linearGradient id="VXBX9MUzj525PiB5fDQAln" x1="32" x2="32" y1="8.751" y2="52.481" gradientTransform="matrix(1 0 0 -1 0 66)" gradientUnits="userSpaceOnUse"><stop offset="0" stop-color="#f5cb63"/><stop offset=".076" stop-color="#f6cc6a"/><stop offset=".458" stop-color="#fdd088"/><stop offset=".672" stop-color="#ffd194"/><stop offset="1" stop-color="#ffd194"/></linearGradient><path fill="url(#VXBX9MUzj525PiB5fDQAln)" d="M35.66,25.17L37,31H27l1.34-5.83c0.75-3.24,0.57-6.7-0.73-9.74	c-0.91-2.1-2.22-3.97-3.83-5.48c0.9-0.46,1.84-0.84,2.81-1.14l0.03,0.02c1.28-0.39,2.6-0.66,3.96-0.77C31.03,8.02,31.49,8,31.95,8	c0,0,0,0,0.01,0h0.07c0,0,0,0,0.01,0c0,0,0,0,0.01,0c0.46,0,0.92,0.02,1.37,0.06c0.27,0.02,0.55,0.05,0.82,0.09	c0.17,0.02,0.33,0.05,0.5,0.07c0.02,0,0.03,0.01,0.05,0.01c0.88,0.14,1.75,0.34,2.59,0.6l0.03-0.02c0.97,0.3,1.91,0.68,2.81,1.14	c-1.61,1.51-2.92,3.38-3.83,5.48C35.09,18.47,34.91,21.93,35.66,25.17z"/><linearGradient id="VXBX9MUzj525PiB5fDQAlo" x1="23.49" x2="23.49" y1="2441.999" y2="2433" gradientTransform="translate(0 -2414)" gradientUnits="userSpaceOnUse"><stop offset="0" stop-color="#ff5840"/><stop offset=".007" stop-color="#ff5840"/><stop offset=".989" stop-color="#fa528c"/><stop offset="1" stop-color="#fa528c"/></linearGradient><path fill="url(#VXBX9MUzj525PiB5fDQAlo)" d="M28.939,21.439c-0.216-1.175-1.162-2.145-2.334-2.378c-1.048-0.208-2.022,0.131-2.695,0.781	c-0.238,0.23-0.601,0.23-0.839,0c-0.673-0.65-1.647-0.988-2.695-0.781c-1.171,0.232-2.117,1.201-2.334,2.374	c-0.202,1.093,0.197,2.092,0.911,2.756l-0.007,0.005l3.906,3.56c0.351,0.324,0.924,0.324,1.275,0l3.881-3.538l0.009-0.021	C28.738,23.535,29.14,22.535,28.939,21.439z"/><linearGradient id="VXBX9MUzj525PiB5fDQAlp" x1="40.501" x2="40.501" y1="2441.999" y2="2433" gradientTransform="translate(0 -2414)" gradientUnits="userSpaceOnUse"><stop offset="0" stop-color="#ff5840"/><stop offset=".007" stop-color="#ff5840"/><stop offset=".989" stop-color="#fa528c"/><stop offset="1" stop-color="#fa528c"/></linearGradient><path fill="url(#VXBX9MUzj525PiB5fDQAlp)" d="M45.95,21.439c-0.216-1.175-1.162-2.145-2.334-2.378c-1.048-0.208-2.022,0.131-2.695,0.781	c-0.238,0.23-0.601,0.23-0.839,0c-0.673-0.65-1.647-0.988-2.695-0.781c-1.171,0.232-2.117,1.201-2.334,2.374	c-0.202,1.093,0.197,2.092,0.911,2.756l-0.007,0.005l3.906,3.56c0.351,0.324,0.924,0.324,1.275,0l3.881-3.538l0.009-0.021	C45.748,23.535,46.151,22.535,45.95,21.439z"/><linearGradient id="VXBX9MUzj525PiB5fDQAlq" x1="32" x2="32" y1="39.01" y2="30.533" gradientTransform="matrix(1 0 0 -1 0 66)" gradientUnits="userSpaceOnUse"><stop offset="0" stop-color="#9097a2"/><stop offset=".278" stop-color="#7c8390"/><stop offset=".733" stop-color="#616876"/><stop offset="1" stop-color="#575e6d"/><stop offset="1" stop-color="#575e6d"/></linearGradient><path fill="url(#VXBX9MUzj525PiB5fDQAlq)" d="M38,31.548c0-1.065-1.008-1.991-2.429-2.238c-2.381-0.414-4.762-0.414-7.142,0	C27.008,29.556,26,30.482,26,31.548l0,0c0,0.609,0.332,1.194,0.923,1.625l1.424,0.738C28.968,35.14,30.368,36,32.002,36	c1.635,0,3.037-0.861,3.657-2.092l1.418-0.735C37.668,32.742,38,32.157,38,31.548z"/></svg>