<svg xmlns="http://www.w3.org/2000/svg">
  <defs>
    <symbol viewBox="0 0 64 64" id="icon-fiat-500">
      <radialGradient id="aa" cx="29.599" cy="27.127" r="25.991" gradientUnits="userSpaceOnUse" spreadMethod="reflect">
        <stop offset="0" stop-color="#afeeff"/>
        <stop offset=".193" stop-color="#bbf1ff"/>
        <stop offset=".703" stop-color="#d7f8ff"/>
        <stop offset="1" stop-color="#e1faff"/>
      </radialGradient>
      <path fill="url(#aa)" d="M40 18h-6.501a1.5 1.5 0 01.001-3h.5a3 3 0 100-6H9a3 3 0 100 6h7.5a1.5 1.5 0 01.001 3H16c-2.2 0-4 1.8-4 4s1.8 4 4 4h24c2.2 0 4-1.8 4-4s-1.8-4-4-4z"/>
      <path fill="url(#ab)" d="M6.604 34.852a15.532 15.532 0 002.058-4.521l.006-.022a11.999 11.999 0 0111.19-8.836l14.459-.466a12 12 0 0111.12 6.627l1.833 3.907a3 3 0 002.352 1.64l4.801.533a7.388 7.388 0 014.409 2.119l.003.003A7.387 7.387 0 0161 41.061V46a3 3 0 01-3 3H7a3 3 0 01-3-3v-2.547c0-3.061.906-6.054 2.604-8.601z"/>
      <path fill="url(#ac)" d="M59 52H6.072c-.911 0-1.762.577-1.999 1.456A2.006 2.006 0 006 56h15.5a1.5 1.5 0 010 3h-5.116c-.911 0-1.762.577-1.999 1.456A2.007 2.007 0 0016.312 63h34.616c.911 0 1.762-.577 1.999-1.456A2.006 2.006 0 0051 59h-1.5a1.5 1.5 0 010-3h9.428c.911 0 1.762-.577 1.999-1.456A2.006 2.006 0 0059 52z"/>
      <path fill="url(#ad)" d="M50 40c-3.917 0-7.24 2.507-8.477 6H23.477c-1.237-3.493-4.56-6-8.477-6a9.002 9.002 0 00-8.931 7.877c-.074.596.4 1.123 1 1.123H57.931c.6 0 1.074-.528 1-1.123A9.002 9.002 0 0050 40z"/>
      <path fill="url(#ae)" d="M50 43a6 6 0 100 12 6 6 0 100-12z"/>
      <path fill="url(#af)" d="M15 43a6 6 0 100 12 6 6 0 100-12z"/>
      <path fill="url(#ag)" d="M55.5 40c.807 0 1.517-.389 1.974-.982a4.37 4.37 0 00-.76-1.061 4.403 4.403 0 00-2.622-1.261l-.917-.102A2.497 2.497 0 0053 37.5a2.5 2.5 0 002.5 2.5z"/>
      <path fill="url(#ah)" d="M55.764 34a7.39 7.39 0 00-1.341-.286l-4.802-.534a3 3 0 01-2.352-1.64l-1.833-3.907a12 12 0 00-11.12-6.627l-14.459.466a12 12 0 00-11.19 8.836l-.006.022A15.463 15.463 0 017.124 34h48.64z"/>
      <path fill="url(#ai)" d="M29 32a2 2 0 002 2h14.32a6.04 6.04 0 01-.733-1.118l-.017-.034-.016-.034-1.816-3.87a8.949 8.949 0 00-8.323-4.939L29 24.179V32z"/>
      <path fill="url(#aj)" d="M25 24.308l-5.265.17c-3.908.126-7.145 2.869-8.178 6.64a18.653 18.653 0 01-1.053 2.881H23a2 2 0 002-2v-7.691z"/>
      <linearGradient id="ab" x1="32.5" x2="32.5" y1="63.389" y2="20.064" gradientUnits="userSpaceOnUse" spreadMethod="reflect">
        <stop offset="0" stop-color="#ff634d"/>
        <stop offset=".207" stop-color="#fe6464"/>
        <stop offset=".527" stop-color="#fc6581"/>
        <stop offset=".802" stop-color="#fa6694"/>
        <stop offset="1" stop-color="#fa669a"/>
      </linearGradient>
      <linearGradient id="ac" x1="32.5" x2="32.5" y1="44.819" y2="66.669" gradientUnits="userSpaceOnUse" spreadMethod="reflect">
        <stop offset="0" stop-color="#f2dd94"/>
        <stop offset="0" stop-color="#f2dd94"/>
        <stop offset=".214" stop-color="#f6e6ab"/>
        <stop offset=".505" stop-color="#fbefc2"/>
        <stop offset=".774" stop-color="#fef4d1"/>
        <stop offset="1" stop-color="#fff6d6"/>
      </linearGradient>
      <linearGradient id="ad" x1="32.5" x2="32.5" y1="48.92" y2="39.92" gradientUnits="userSpaceOnUse" spreadMethod="reflect">
        <stop offset="0" stop-color="#ff5840"/>
        <stop offset=".007" stop-color="#ff5840"/>
        <stop offset=".989" stop-color="#fa528c"/>
        <stop offset="1" stop-color="#fa528c"/>
      </linearGradient>
      <linearGradient id="ae" x1="-587.75" x2="-586.75" y1="-343.833" y2="-343.833" gradientTransform="matrix(0 -12 -12 0 -4076 -6994.664)" gradientUnits="userSpaceOnUse" spreadMethod="reflect">
        <stop offset="0" stop-color="#a4a4a4"/>
        <stop offset=".619" stop-color="gray"/>
        <stop offset="1" stop-color="#6f6f6f"/>
        <stop offset="1" stop-color="#6f6f6f"/>
      </linearGradient>
      <linearGradient id="af" x1="-587.75" x2="-586.75" y1="-343.167" y2="-343.167" gradientTransform="matrix(0 -12 -12 0 -4103 -6992.844)" gradientUnits="userSpaceOnUse" spreadMethod="reflect">
        <stop offset="0" stop-color="#a4a4a4"/>
        <stop offset=".619" stop-color="gray"/>
        <stop offset="1" stop-color="#6f6f6f"/>
        <stop offset="1" stop-color="#6f6f6f"/>
      </linearGradient>
      <linearGradient id="ag" x1="55.237" x2="55.237" y1="39.83" y2="34.716" gradientUnits="userSpaceOnUse" spreadMethod="reflect">
        <stop offset="0" stop-color="#ffef9c"/>
        <stop offset=".018" stop-color="#ffef9c"/>
        <stop offset=".117" stop-color="#fff09f"/>
        <stop offset="1" stop-color="#fff8b3"/>
      </linearGradient>
      <linearGradient id="ah" x1="31.444" x2="31.444" y1="42.139" y2="27.544" gradientUnits="userSpaceOnUse" spreadMethod="reflect">
        <stop offset="0" stop-color="#ff735d"/>
        <stop offset=".139" stop-color="#fe746b"/>
        <stop offset=".492" stop-color="#fc758a"/>
        <stop offset=".791" stop-color="#fa769d"/>
        <stop offset="1" stop-color="#fa76a4"/>
      </linearGradient>
      <linearGradient id="ai" x1="37.16" x2="37.16" y1="24" y2="34" gradientUnits="userSpaceOnUse" spreadMethod="reflect">
        <stop offset="0" stop-color="#edfbff"/>
        <stop offset="0" stop-color="#edfbff"/>
        <stop offset=".256" stop-color="#e6f9ff"/>
        <stop offset=".633" stop-color="#d2f5ff"/>
        <stop offset="1" stop-color="#b8efff"/>
      </linearGradient>
      <linearGradient id="aj" x1="17.752" x2="17.752" y1="24.308" y2="34" gradientUnits="userSpaceOnUse" spreadMethod="reflect">
        <stop offset="0" stop-color="#edfbff"/>
        <stop offset="0" stop-color="#edfbff"/>
        <stop offset=".256" stop-color="#e6f9ff"/>
        <stop offset=".633" stop-color="#d2f5ff"/>
        <stop offset="1" stop-color="#b8efff"/>
      </linearGradient>
    </symbol>
    <symbol viewBox="0 0 64 64" id="icon-protein">
      <radialGradient id="ba" cx="32" cy="31.5" r="31.259" gradientUnits="userSpaceOnUse" spreadMethod="reflect">
        <stop offset="0" stop-color="#eed7a2"/>
        <stop offset=".106" stop-color="#f1dcab"/>
        <stop offset=".437" stop-color="#f8e8c3"/>
        <stop offset=".744" stop-color="#fcefd2"/>
        <stop offset="1" stop-color="#fef2d7"/>
      </radialGradient>
      <path fill="url(#ba)" d="M58 54a2 2 0 110-4h2.5c1.925 0 3.5-1.575 3.5-3.5S62.425 43 60.5 43H50a2.5 2.5 0 110-5h8c1.65 0 3-1.35 3-3s-1.35-3-3-3H42v-6h18c2.335 0 4.22-2.028 3.979-4.41-.209-2.076-2.082-3.59-4.168-3.59H58a2 2 0 110-4h.357c1.308 0 2.499-.941 2.63-2.242A2.5 2.5 0 0058.5 9h-14a1.5 1.5 0 010-3h3.857c1.308 0 2.499-.941 2.63-2.242A2.5 2.5 0 0048.5 1H15.643c-1.308 0-2.499.941-2.63 2.242A2.5 2.5 0 0015.5 6H19a2 2 0 110 4H6.189c-2.086 0-3.958 1.514-4.168 3.59C1.78 15.972 3.665 18 6 18h2.5a3.5 3.5 0 110 7H5.189c-2.086 0-3.958 1.514-4.168 3.59C.78 30.972 2.665 33 5 33h17v11H6c-1.65 0-3 1.35-3 3s1.35 3 3 3a2 2 0 110 4H4.189C2.103 54 .231 55.514.021 57.59-.22 59.972 1.665 62 4 62h53.811c2.086 0 3.958-1.514 4.168-3.59C62.22 56.028 60.335 54 58 54z"/>
      <path fill="url(#bb)" d="M50 12H14a4 4 0 00-4 4v36a4 4 0 004 4h36a4 4 0 004-4V16a4 4 0 00-4-4z"/>
      <path fill="url(#bc)" d="M40.73 35.27L38 38l-6.407-11.213a4.318 4.318 0 01.617-5.116l2.83-2.982 6.399 11.505a4.253 4.253 0 01-.709 5.076zm-19.182 1.526l6.399 11.505 2.83-2.982a4.318 4.318 0 00.617-5.116L24.987 28.99l-2.73 2.73a4.255 4.255 0 00-.709 5.076z"/>
      <path fill="url(#bd)" d="M47.487 25.891l-.804 1.004a2.91 2.91 0 01-3.912.587l-4.503-3.067-3.228-5.725a4.433 4.433 0 015.722-.513l6.261 4.426a2.28 2.28 0 01.464 3.288zM38 38l-4.007-7-4.281-2.449c-1.447-.828-3.529-.733-4.708.445l-.016-.005 4.007 7 4.379 2.468c1.447.828 3.431.714 4.61-.465L38 38zm-22.035 6.389l6.261 4.426a4.435 4.435 0 005.722-.513l-3.228-5.725-4.503-3.067a2.912 2.912 0 00-3.912.587L15.5 41.1a2.282 2.282 0 00.465 3.289z"/>
      <linearGradient id="bb" x1="32" x2="32" y1="71.134" y2="27.134" gradientUnits="userSpaceOnUse" spreadMethod="reflect">
        <stop offset="0" stop-color="#3cb5ea"/>
        <stop offset="1" stop-color="#7ddefb"/>
      </linearGradient>
      <linearGradient id="bc" x1="31.494" x2="31.494" y1="48.301" y2="18.69" gradientUnits="userSpaceOnUse" spreadMethod="reflect">
        <stop offset="0" stop-color="#2472e2"/>
        <stop offset=".469" stop-color="#2a7fe5"/>
        <stop offset="1" stop-color="#3394ea"/>
      </linearGradient>
      <linearGradient id="bd" x1="31.494" x2="31.494" y1="49.628" y2="-9.169" gradientUnits="userSpaceOnUse" spreadMethod="reflect">
        <stop offset="0" stop-color="#0d47a1"/>
        <stop offset=".365" stop-color="#135fba"/>
        <stop offset=".734" stop-color="#1770cc"/>
        <stop offset="1" stop-color="#1976d2"/>
      </linearGradient>
    </symbol>
    <symbol viewBox="0 0 64 64" id="icon-safe">
      <radialGradient id="ca" cx="32.149" cy="34.535" r="36.062" gradientTransform="matrix(1 0 0 -1 0 66)" gradientUnits="userSpaceOnUse">
        <stop offset="0" stop-color="#f4e9c3"/>
        <stop offset=".219" stop-color="#f8eecd"/>
        <stop offset=".644" stop-color="#fdf4dc"/>
        <stop offset="1" stop-color="#fff6e1"/>
      </radialGradient>
      <path fill="url(#ca)" d="M60.5 41H50a3 3 0 01-3-3v-1a3 3 0 013-3h8.5a3.5 3.5 0 100-7h-2.379c-.997 0-1.927-.675-2.093-1.659A2.006 2.006 0 0156 23h4.5a3.506 3.506 0 003.418-4.249C63.571 17.118 62.045 16 60.376 16H52a2.004 2.004 0 01-1.971-2.341c.165-.984 1.095-1.659 2.092-1.659h4.254c1.669 0 3.196-1.118 3.542-2.751A3.505 3.505 0 0056.5 5h-49a3.509 3.509 0 00-3.419 4.255C4.428 10.885 5.952 12 7.619 12H13.6a2.004 2.004 0 011.971 2.341c-.165.984-1.095 1.659-2.092 1.659H3.624C1.955 16 .428 17.118.082 18.751A3.506 3.506 0 003.5 23H18v6H4.624c-1.669 0-3.196 1.118-3.542 2.751A3.506 3.506 0 004.5 36h2.84c1.458 0 2.742 1.196 2.655 2.651a2.508 2.508 0 01-.725 1.619c-.45.45-1.08.73-1.77.73h-4a3.506 3.506 0 00-3.418 4.249C.429 46.882 1.955 48 3.624 48H13a2.004 2.004 0 011.971 2.341c-.165.984-1.095 1.659-2.092 1.659H6.624c-1.669 0-3.196 1.118-3.542 2.751A3.506 3.506 0 006.5 59h51c2.166 0 3.899-2.011 3.42-4.251C60.57 53.115 59.04 52 57.37 52H51a2.004 2.004 0 01-1.971-2.341c.165-.984 1.095-1.659 2.092-1.659h9.254c1.669 0 3.196-1.118 3.542-2.751A3.505 3.505 0 0060.5 41z"/>
      <path fill="url(#cb)" d="M56 16.06v31.88c0 3.35-2.71 6.06-6.06 6.06H14.06C10.71 54 8 51.29 8 47.94V16.06C8 12.71 10.71 10 14.06 10h35.88c3.35 0 6.06 2.71 6.06 6.06z"/>
      <path fill="url(#cc)" d="M17.087 15h28.797A4.116 4.116 0 0150 19.116v25.768A4.116 4.116 0 0145.884 49H17.087A3.087 3.087 0 0114 45.913V18.087A3.087 3.087 0 0117.087 15z"/>
      <path fill="url(#cd)" d="M13 27h2a1 1 0 001-1v-6a1 1 0 00-1-1h-2a1 1 0 00-1 1v6a1 1 0 001 1z"/>
      <path fill="url(#cg)" d="M31 21h4v3a2 2 0 11-4 0v-3z"/>
      <path fill="url(#ch)" d="M23.153 26.705l2.494-3.127 2.345 1.87a2 2 0 01-2.494 3.128l-2.345-1.871z"/>
      <path fill="url(#ci)" d="M22.721 36.398l-.89-3.9 2.925-.668a2 2 0 11.89 3.9l-2.925.668z"/>
      <path fill="url(#cj)" d="M30.029 42.778l-3.604-1.736 1.302-2.703a2 2 0 013.604 1.736l-1.302 2.703z"/>
      <path fill="url(#ck)" d="M39.575 41.043l-3.604 1.736-1.302-2.703a2 2 0 013.604-1.736l1.302 2.703z"/>
      <path fill="url(#cl)" d="M44.169 32.498l-.89 3.9-2.925-.668a2 2 0 11.89-3.9l2.925.668z"/>
      <path fill="url(#cm)" d="M40.353 23.578l2.494 3.127-2.345 1.87a2 2 0 11-2.494-3.128l2.345-1.869z"/>
      <path fill="url(#cn)" d="M13 45h2a1 1 0 001-1v-6a1 1 0 00-1-1h-2a1 1 0 00-1 1v6a1 1 0 001 1z"/>
      <linearGradient id="cb" x1="32" x2="32" y1="-8.745" y2="74.99" gradientTransform="matrix(1 0 0 -1 0 66)" gradientUnits="userSpaceOnUse">
        <stop offset="0" stop-color="#155cde"/>
        <stop offset=".278" stop-color="#1f7fe5"/>
        <stop offset=".569" stop-color="#279ceb"/>
        <stop offset=".82" stop-color="#2cafef"/>
        <stop offset="1" stop-color="#2eb5f0"/>
      </linearGradient>
      <linearGradient id="cc" x1="32" x2="32" y1="53.468" y2="16.208" gradientTransform="matrix(1 0 0 -1 0 66)" gradientUnits="userSpaceOnUse">
        <stop offset="0" stop-color="#40daf2"/>
        <stop offset=".259" stop-color="#3bd3ef"/>
        <stop offset=".624" stop-color="#2ec1e8"/>
        <stop offset="1" stop-color="#1ba7dd"/>
      </linearGradient>
      <linearGradient id="cd" x1="14" x2="14" y1="33.383" y2="67.429" gradientTransform="matrix(1 0 0 -1 0 66)" gradientUnits="userSpaceOnUse">
        <stop offset="0" stop-color="#155cde"/>
        <stop offset=".278" stop-color="#1f7fe5"/>
        <stop offset=".569" stop-color="#279ceb"/>
        <stop offset=".82" stop-color="#2cafef"/>
        <stop offset="1" stop-color="#2eb5f0"/>
      </linearGradient>
      <linearGradient id="ce" x1="33" x2="33" y1="1.894" y2="82.176" gradientTransform="matrix(1 0 0 -1 0 66)" gradientUnits="userSpaceOnUse">
        <stop offset="0" stop-color="#feaa53"/>
        <stop offset=".612" stop-color="#ffcd49"/>
        <stop offset="1" stop-color="#ffde44"/>
      </linearGradient>
      <linearGradient id="cf" x1="33" x2="33" y1="-14.447" y2="36.79" gradientTransform="matrix(1 0 0 -1 0 66)" gradientUnits="userSpaceOnUse">
        <stop offset="0" stop-color="#febb75"/>
        <stop offset=".612" stop-color="#ffd76d"/>
        <stop offset="1" stop-color="#ffe569"/>
      </linearGradient>
      <linearGradient id="cg" x1="33" x2="33" y1="1.894" y2="82.176" gradientTransform="matrix(1 0 0 -1 0 66)" gradientUnits="userSpaceOnUse">
        <stop offset="0" stop-color="#feaa53"/>
        <stop offset=".612" stop-color="#ffcd49"/>
        <stop offset="1" stop-color="#ffde44"/>
      </linearGradient>
      <linearGradient id="ch" x1="25.949" x2="25.949" y1="1.894" y2="82.176" gradientTransform="matrix(1 0 0 -1 0 66)" gradientUnits="userSpaceOnUse">
        <stop offset="0" stop-color="#feaa53"/>
        <stop offset=".612" stop-color="#ffcd49"/>
        <stop offset="1" stop-color="#ffde44"/>
      </linearGradient>
      <linearGradient id="ci" x1="24.516" x2="24.516" y1="1.895" y2="82.177" gradientTransform="matrix(1 0 0 -1 0 66)" gradientUnits="userSpaceOnUse">
        <stop offset="0" stop-color="#feaa53"/>
        <stop offset=".612" stop-color="#ffcd49"/>
        <stop offset="1" stop-color="#ffde44"/>
      </linearGradient>
      <linearGradient id="cj" x1="28.977" x2="28.977" y1="1.894" y2="82.176" gradientTransform="matrix(1 0 0 -1 0 66)" gradientUnits="userSpaceOnUse">
        <stop offset="0" stop-color="#feaa53"/>
        <stop offset=".612" stop-color="#ffcd49"/>
        <stop offset="1" stop-color="#ffde44"/>
      </linearGradient>
      <linearGradient id="ck" x1="37.023" x2="37.023" y1="1.894" y2="82.176" gradientTransform="matrix(1 0 0 -1 0 66)" gradientUnits="userSpaceOnUse">
        <stop offset="0" stop-color="#feaa53"/>
        <stop offset=".612" stop-color="#ffcd49"/>
        <stop offset="1" stop-color="#ffde44"/>
      </linearGradient>
      <linearGradient id="cl" x1="41.484" x2="41.484" y1="1.895" y2="82.177" gradientTransform="matrix(1 0 0 -1 0 66)" gradientUnits="userSpaceOnUse">
        <stop offset="0" stop-color="#feaa53"/>
        <stop offset=".612" stop-color="#ffcd49"/>
        <stop offset="1" stop-color="#ffde44"/>
      </linearGradient>
      <linearGradient id="cm" x1="40.051" x2="40.051" y1="1.894" y2="82.176" gradientTransform="matrix(1 0 0 -1 0 66)" gradientUnits="userSpaceOnUse">
        <stop offset="0" stop-color="#feaa53"/>
        <stop offset=".612" stop-color="#ffcd49"/>
        <stop offset="1" stop-color="#ffde44"/>
      </linearGradient>
      <linearGradient id="cn" x1="14" x2="14" y1="20.34" y2="65.596" gradientTransform="matrix(1 0 0 -1 0 66)" gradientUnits="userSpaceOnUse">
        <stop offset="0" stop-color="#155cde"/>
        <stop offset=".278" stop-color="#1f7fe5"/>
        <stop offset=".569" stop-color="#279ceb"/>
        <stop offset=".82" stop-color="#2cafef"/>
        <stop offset="1" stop-color="#2eb5f0"/>
      </linearGradient>
      <circle cx="33" cy="32" r="13" fill="url(#ce)"/>
      <circle cx="33" cy="32" r="10" fill="url(#cf)"/>
    </symbol>
    <symbol viewBox="0 0 64 64" id="icon-spa-flower">
      <radialGradient id="da" cx="31.702" cy="31.383" r="59.555" gradientTransform="matrix(1 0 0 -1 0 66)" gradientUnits="userSpaceOnUse">
        <stop offset="0" stop-color="#afeeff"/>
        <stop offset=".193" stop-color="#bbf1ff"/>
        <stop offset=".703" stop-color="#d7f8ff"/>
        <stop offset="1" stop-color="#e1faff"/>
      </radialGradient>
      <path fill="url(#da)" d="M59.999 53h-1.896c-.809-.021-1.608-.396-1.923-1.141C55.564 50.401 56.618 49 58 49h2.385c1.67 0 3.195-1.122 3.537-2.757A3.51 3.51 0 0060.5 42H47a2 2 0 110-4h13a3 3 0 100-6H42V21h18c2.335 0 4.22-2.028 3.979-4.41-.21-2.075-2.082-3.59-4.168-3.59H55.5a2.5 2.5 0 110-5H58a3 3 0 100-6H4.189C2.103 2 .231 3.514.021 5.59-.22 7.972 1.665 10 4 10h2.302c1.733 0 3.348 1.166 3.644 2.873A3.503 3.503 0 016.5 17H4.189C2.103 17 .231 18.514.021 20.59-.22 22.972 1.665 25 4 25h18v9H5a3 3 0 100 6h17v3H3a3 3 0 100 6h2a2.002 2.002 0 011.973 2.336C6.813 52.319 5.889 53 4.893 53h-.704C2.103 53 .231 54.514.021 56.59-.22 58.972 1.665 61 4 61h56a4 4 0 10-.001-8z"/>
      <path fill="url(#db)" d="M59.63 24.89C58.17 20.01 51.17 18.39 43 19c-1.67-7.59-6.1-13.88-11-14-4.9.12-9.33 6.41-11 14-8.17-.61-15.17 1.01-16.63 5.89C2.98 29.59 6.3 36.06 13 40c-3.11 7.59-2.23 13.8 1.96 16.68C19 59.47 26.18 57.16 32 52c5.82 5.16 13 7.47 17.04 4.68C53.23 53.8 54.11 47.59 51 40c6.7-3.94 10.02-10.41 8.63-15.11z"/>
      <path fill="url(#dc)" d="M47.907 27.72c-.69-2.45-5.36-3.36-11.02-2.37-.45-5.3-1.887-9.313-4.964-9.313-2.924 0-4.514 4.013-4.964 9.313-5.66-.99-10.33-.08-11.02 2.37-.65 2.33 2.16 5.22 7.07 7.29-2.7 5.06-2.93 9.89-.8 11.3 2.005 1.33 6.238-.27 9.714-4.226 3.476 3.957 7.708 5.557 9.714 4.226 2.13-1.41 1.9-6.24-.8-11.3 4.91-2.07 7.72-4.96 7.07-7.29z"/>
      <linearGradient id="db" x1="32" x2="32" y1="5.336" y2="67.549" gradientTransform="matrix(1 0 0 -1 0 66)" gradientUnits="userSpaceOnUse">
        <stop offset="0" stop-color="#ff735d"/>
        <stop offset=".137" stop-color="#fe746b"/>
        <stop offset=".486" stop-color="#fc758a"/>
        <stop offset=".783" stop-color="#fa769d"/>
        <stop offset=".989" stop-color="#fa76a4"/>
        <stop offset="1" stop-color="#fa76a4"/>
      </linearGradient>
      <linearGradient id="dc" x1="31.923" x2="31.923" y1="17.539" y2="50.009" gradientTransform="matrix(1 0 0 -1 0 66)" gradientUnits="userSpaceOnUse">
        <stop offset="0" stop-color="#ffda76"/>
        <stop offset=".335" stop-color="#ffe075"/>
        <stop offset="1" stop-color="#ffe673"/>
      </linearGradient>
      <linearGradient id="dd" x1="32" x2="32" y1="25.681" y2="53.351" gradientTransform="matrix(1 0 0 -1 0 66)" gradientUnits="userSpaceOnUse">
        <stop offset="0" stop-color="#ff634d"/>
        <stop offset=".204" stop-color="#fe6464"/>
        <stop offset=".521" stop-color="#fc6581"/>
        <stop offset=".794" stop-color="#fa6694"/>
        <stop offset=".989" stop-color="#fa669a"/>
        <stop offset="1" stop-color="#fa669a"/>
      </linearGradient>
      <circle cx="32" cy="33" r="5" fill="url(#dd)"/>
    </symbol>
  </defs>
</svg>